ply
format ascii 1.0
element vertex 791
property float x
property float y
property float z
end_header
-0.004623 0.009497 0.75 
-0.008741 0.018992 0.75 
-0.013119 0.029436 0.75 
-0.017236 0.039502 0.75 
-0.021256 0.049526 0.75 
-0.025711 0.06083 0.75 
-0.029752 0.071249 0.75 
-0.034065 0.082527 0.75 
-0.037721 0.09221 0.75 
-0.041226 0.101629 0.75 
-0.045255 0.112693 0.75 
-0.048947 0.123081 0.75 
-0.052856 0.134347 0.75 
-0.056137 0.144005 0.75 
-0.059554 0.15425 0.75 
-0.0631 0.165085 0.75 
-0.06677 0.17651 0.75 
-0.070558 0.188527 0.75 
-0.074457 0.201138 0.75 
-0.077447 0.210968 0.75 
-0.080483 0.221098 0.75 
-0.083605 0.231672 0.75 
-0.086768 0.242546 0.75 
-0.089928 0.253577 0.75 
-0.093043 0.264621 0.75 
-0.096113 0.275678 0.75 
-0.099056 0.286459 0.75 
-0.101869 0.296963 0.75 
-0.104556 0.307191 0.75 
-0.107081 0.316996 0.75 
-0.110267 0.329652 0.75 
-0.113231 0.341744 0.75 
-0.11598 0.35327 0.75 
-0.118523 0.364229 0.75 
-0.120868 0.374618 0.75 
-0.123214 0.385314 0.75 
-0.125623 0.396609 0.75 
-0.128089 0.408507 0.75 
-0.130605 0.421006 0.75 
-0.133165 0.434108 0.75 
-0.135114 0.444349 0.75 
-0.137076 0.454893 0.75 
-0.139046 0.465741 0.75 
-0.140972 0.476596 0.75 
-0.142798 0.487165 0.75 
-0.144524 0.497446 0.75 
-0.146153 0.507439 0.75 
-0.148159 0.520182 0.75 
-0.149996 0.532344 0.75 
-0.151671 0.543923 0.75 
-0.153194 0.554918 0.75 
-0.154571 0.565327 0.75 
-0.155962 0.57634 0.75 
-0.15736 0.587956 0.75 
-0.15876 0.600176 0.75 
-0.160155 0.613001 0.75 
-0.1612 0.623071 0.75 
-0.162232 0.633445 0.75 
-0.163249 0.644122 0.75 
-0.164249 0.655101 0.75 
-0.165241 0.666533 0.75 
-0.166161 0.67767 0.75 
-0.167009 0.688512 0.75 
-0.167784 0.699059 0.75 
-0.168478 0.70916 0.75 
-0.169301 0.722184 0.75 
-0.17001 0.734614 0.75 
-0.17061 0.746449 0.75 
-0.171111 0.757688 0.75 
-0.171521 0.76833 0.75 
-0.171877 0.779274 0.75 
-0.172185 0.79082 0.75 
-0.172439 0.802967 0.75 
-0.172632 0.815715 0.75 
-0.172759 0.829065 0.75 
-0.172807 0.83949 0.75 
-0.172812 0.850215 0.75 
-0.17277 0.86124 0.75 
-0.172679 0.872714 0.75 
-0.172543 0.883888 0.75 
-0.172364 0.894762 0.75 
-0.172145 0.905335 0.75 
-0.171889 0.915456 0.75 
-0.171487 0.9285 0.75 
-0.171026 0.940942 0.75 
-0.170514 0.952781 0.75 
-0.169958 0.964017 0.75 
-0.169368 0.974651 0.75 
-0.168695 0.98558 0.75 
-0.167918 0.997104 0.75 
-0.16703 1.00922 0.75 
-0.166026 1.02193 0.75 
-0.164899 1.03523 0.75 
-0.163969 1.04562 0.75 
-0.162967 1.0563 0.75 
-0.16189 1.06727 0.75 
-0.160722 1.07868 0.75 
-0.159505 1.09009 0.75 
-0.158246 1.1015 0.75 
-0.156981 1.1129 0.75 
-0.155668 1.12476 0.75 
-0.154323 1.13691 0.75 
-0.152945 1.14936 0.75 
-0.151535 1.1621 0.75 
-0.150077 1.1753 0.75 
-0.148619 1.18849 0.75 
-0.147178 1.20154 0.75 
-0.145771 1.21429 0.75 
-0.144414 1.22659 0.75 
-0.143057 1.23889 0.75 
-0.141718 1.25104 0.75 
-0.140412 1.26289 0.75 
-0.139155 1.2743 0.75 
-0.1379 1.2857 0.75 
-0.136661 1.29696 0.75 
-0.135455 1.30792 0.75 
-0.1343 1.31843 0.75 
-0.133144 1.32894 0.75 
-0.132005 1.33931 0.75 
-0.1309 1.34937 0.75 
-0.129492 1.36219 0.75 
-0.128084 1.37502 0.75 
-0.12698 1.38508 0.75 
-0.125843 1.39544 0.75 
-0.124673 1.40611 0.75 
-0.12347 1.41706 0.75 
-0.122218 1.42847 0.75 
-0.120934 1.44018 0.75 
-0.119616 1.45218 0.75 
-0.118266 1.46448 0.75 
-0.116867 1.47723 0.75 
-0.115468 1.48998 0.75 
-0.114085 1.50258 0.75 
-0.112735 1.51488 0.75 
-0.111434 1.52673 0.75 
-0.110165 1.53829 0.75 
-0.108913 1.54969 0.75 
-0.107661 1.5611 0.75 
-0.106458 1.57206 0.75 
-0.105256 1.58302 0.75 
-0.104036 1.59413 0.75 
-0.102784 1.60553 0.75 
-0.101483 1.61739 0.75 
-0.100149 1.62954 0.75 
-0.098783 1.64199 0.75 
-0.097383 1.65474 0.75 
-0.095935 1.66793 0.75 
-0.094519 1.68083 0.75 
-0.09312 1.69358 0.75 
-0.091721 1.70633 0.75 
-0.090371 1.71863 0.75 
-0.089053 1.73063 0.75 
-0.087768 1.74233 0.75 
-0.086516 1.75374 0.75 
-0.085264 1.76515 0.75 
-0.084045 1.77626 0.75 
-0.082858 1.78707 0.75 
-0.081705 1.79758 0.75 
-0.080551 1.80809 0.75 
-0.079414 1.8183 0.75 
-0.077879 1.83141 0.75 
-0.076335 1.84392 0.75 
-0.074789 1.85582 0.75 
-0.073251 1.86711 0.75 
-0.071727 1.8778 0.75 
-0.070139 1.88849 0.75 
-0.068395 1.89975 0.75 
-0.066489 1.9116 0.75 
-0.064417 1.92403 0.75 
-0.062171 1.93704 0.75 
-0.060373 1.94715 0.75 
-0.058477 1.95756 0.75 
-0.056456 1.96839 0.75 
-0.05436 1.97937 0.75 
-0.052136 1.99078 0.75 
-0.049851 2.00249 0.75 
-0.047479 2.01463 0.75 
-0.045052 2.02707 0.75 
-0.042567 2.03981 0.75 
-0.040026 2.05284 0.75 
-0.0374 2.06631 0.75 
-0.034831 2.07948 0.75 
-0.032321 2.09237 0.75 
-0.029869 2.10496 0.75 
-0.027503 2.1171 0.75 
-0.025138 2.12925 0.75 
-0.022803 2.14125 0.75 
-0.020525 2.15296 0.75 
-0.018334 2.16422 0.75 
-0.0162 2.17519 0.75 
-0.014096 2.18601 0.75 
-0.011992 2.19683 0.75 
-0.009974 2.20721 0.75 
-0.007957 2.21759 0.75 
-0.005963 2.22783 0.75 
-0.003984 2.23776 0.75 
-0.001392 2.25039 0.75 
0.001155 2.26243 0.75 
0.00365 2.27386 0.75 
0.006084 2.28469 0.75 
0.008449 2.29492 0.75 
0.011013 2.30572 0.75 
0.013784 2.31709 0.75 
0.016765 2.32902 0.75 
0.019965 2.34152 0.75 
0.022525 2.35131 0.75 
0.025205 2.36139 0.75 
0.028006 2.37174 0.75 
0.03093 2.38237 0.75 
0.03402 2.39342 0.75 
0.037157 2.40446 0.75 
0.0403 2.41534 0.75 
0.043405 2.42592 0.75 
0.046652 2.43692 0.75 
0.04998 2.44822 0.75 
0.053392 2.4598 0.75 
0.056886 2.47167 0.75 
0.060505 2.48397 0.75 
0.064207 2.49657 0.75 
0.067948 2.5093 0.75 
0.071688 2.52204 0.75 
0.075298 2.53435 0.75 
0.078823 2.54637 0.75 
0.082261 2.5581 0.75 
0.085613 2.56954 0.75 
0.088963 2.58099 0.75 
0.092227 2.59214 0.75 
0.095406 2.60301 0.75 
0.098499 2.6136 0.75 
0.101591 2.62418 0.75 
0.104597 2.63447 0.75 
0.107518 2.64448 0.75 
0.110354 2.6542 0.75 
0.113315 2.66435 0.75 
0.11636 2.67479 0.75 
0.11949 2.68552 0.75 
0.122704 2.69654 0.75 
0.126043 2.70798 0.75 
0.129467 2.71972 0.75 
0.132975 2.73174 0.75 
0.136567 2.74406 0.75 
0.140159 2.75637 0.75 
0.143667 2.76839 0.75 
0.147133 2.78027 0.75 
0.150599 2.79215 0.75 
0.153939 2.8036 0.75 
0.157195 2.81476 0.75 
0.16041 2.82577 0.75 
0.163624 2.83679 0.75 
0.166712 2.84737 0.75 
0.169716 2.85767 0.75 
0.17272 2.86796 0.75 
0.175809 2.87855 0.75 
0.179023 2.88956 0.75 
0.182321 2.90087 0.75 
0.185704 2.91246 0.75 
0.18917 2.92434 0.75 
0.192762 2.93665 0.75 
0.196271 2.94867 0.75 
0.199737 2.96055 0.75 
0.203204 2.97243 0.75 
0.206544 2.98388 0.75 
0.2098 2.99504 0.75 
0.213014 3.00606 0.75 
0.216229 3.01707 0.75 
0.219317 3.02765 0.75 
0.222321 3.03795 0.75 
0.225283 3.0481 0.75 
0.228246 3.05825 0.75 
0.231082 3.06797 0.75 
0.234737 3.0805 0.75 
0.238351 3.09288 0.75 
0.241838 3.10484 0.75 
0.245283 3.11664 0.75 
0.248603 3.12802 0.75 
0.25188 3.13925 0.75 
0.255031 3.15005 0.75 
0.25814 3.1607 0.75 
0.261124 3.17093 0.75 
0.264065 3.18101 0.75 
0.26688 3.19065 0.75 
0.270346 3.20253 0.75 
0.273603 3.21369 0.75 
0.276775 3.22456 0.75 
0.279821 3.235 0.75 
0.282867 3.24544 0.75 
0.285704 3.25516 0.75 
0.288981 3.26639 0.75 
0.292132 3.27719 0.75 
0.295157 3.28756 0.75 
0.298056 3.29749 0.75 
0.300956 3.30743 0.75 
0.304086 3.31816 0.75 
0.307132 3.3286 0.75 
0.310325 3.33955 0.75 
0.313477 3.35034 0.75 
0.316334 3.36014 0.75 
0.319149 3.36979 0.75 
0.321985 3.37951 0.75 
0.324821 3.38923 0.75 
0.327868 3.39967 0.75 
0.330872 3.40996 0.75 
0.333786 3.41989 0.75 
0.336857 3.43017 0.75 
0.339866 3.44007 0.75 
0.336778 3.43035 0.75 
0.333617 3.42081 0.75 
0.330075 3.41133 0.75 
0.326253 3.40155 0.75 
0.322129 3.39124 0.75 
0.317771 3.38047 0.75 
0.31348 3.36974 0.75 
0.309587 3.35991 0.75 
0.305399 3.34923 0.75 
0.30087 3.33755 0.75 
0.297053 3.32761 0.75 
0.293056 3.31709 0.75 
0.288883 3.306 0.75 
0.28454 3.29433 0.75 
0.280036 3.28208 0.75 
0.276575 3.27257 0.75 
0.272991 3.26262 0.75 
0.26934 3.25238 0.75 
0.265626 3.24184 0.75 
0.261851 3.231 0.75 
0.258045 3.22018 0.75 
0.254275 3.20966 0.75 
0.250548 3.19944 0.75 
0.246872 3.18952 0.75 
0.243306 3.18005 0.75 
0.239696 3.17059 0.75 
0.23599 3.161 0.75 
0.232138 3.15115 0.75 
0.228085 3.1409 0.75 
0.223887 3.13038 0.75 
0.219547 3.1196 0.75 
0.215066 3.10855 0.75 
0.210391 3.09709 0.75 
0.205809 3.08592 0.75 
0.201323 3.07503 0.75 
0.196939 3.06443 0.75 
0.192547 3.05382 0.75 
0.188265 3.0435 0.75 
0.184099 3.03346 0.75 
0.180049 3.02369 0.75 
0.176004 3.01392 0.75 
0.172079 3.00442 0.75 
0.168162 2.99492 0.75 
0.164131 2.98515 0.75 
0.159929 2.97495 0.75 
0.155611 2.96448 0.75 
0.151179 2.95374 0.75 
0.146632 2.94271 0.75 
0.141913 2.93127 0.75 
0.137079 2.91956 0.75 
0.132188 2.9077 0.75 
0.127296 2.89585 0.75 
0.122575 2.88441 0.75 
0.117854 2.87297 0.75 
0.11319 2.86167 0.75 
0.10864 2.85065 0.75 
0.104262 2.84004 0.75 
0.099883 2.82943 0.75 
0.095561 2.81896 0.75 
0.091353 2.80877 0.75 
0.087317 2.799 0.75 
0.08341 2.7895 0.75 
0.078459 2.77726 0.75 
0.073808 2.76555 0.75 
0.069448 2.75437 0.75 
0.065373 2.74372 0.75 
0.061574 2.73361 0.75 
0.057837 2.72348 0.75 
0.053956 2.71276 0.75 
0.049938 2.70145 0.75 
0.045786 2.68956 0.75 
0.041509 2.67707 0.75 
0.038228 2.66733 0.75 
0.034894 2.6573 0.75 
0.031463 2.64682 0.75 
0.027983 2.63604 0.75 
0.024504 2.62511 0.75 
0.021072 2.61416 0.75 
0.01752 2.60277 0.75 
0.013876 2.5911 0.75 
0.010141 2.57915 0.75 
0.006314 2.56691 0.75 
0.00235 2.55424 0.75 
-0.001616 2.54157 0.75 
-0.005584 2.5289 0.75 
-0.009554 2.51624 0.75 
-0.013392 2.504 0.75 
-0.017142 2.49205 0.75 
-0.020804 2.48038 0.75 
-0.024377 2.46901 0.75 
-0.027953 2.45763 0.75 
-0.031439 2.44654 0.75 
-0.034838 2.43574 0.75 
-0.038148 2.42522 0.75 
-0.041459 2.41471 0.75 
-0.044681 2.40448 0.75 
-0.047815 2.39453 0.75 
-0.050859 2.38488 0.75 
-0.054688 2.37256 0.75 
-0.058261 2.36079 0.75 
-0.061587 2.34957 0.75 
-0.064675 2.33891 0.75 
-0.067533 2.32881 0.75 
-0.070779 2.31702 0.75 
-0.073857 2.3055 0.75 
-0.076425 2.29563 0.75 
-0.079084 2.28516 0.75 
-0.081828 2.2741 0.75 
-0.084651 2.26243 0.75 
-0.087548 2.25017 0.75 
-0.090512 2.23731 0.75 
-0.092772 2.22728 0.75 
-0.095056 2.21696 0.75 
-0.097393 2.20618 0.75 
-0.099682 2.1954 0.75 
-0.101891 2.18475 0.75 
-0.103988 2.17439 0.75 
-0.10595 2.16445 0.75 
-0.108408 2.15164 0.75 
-0.110678 2.13939 0.75 
-0.112766 2.12773 0.75 
-0.11468 2.11664 0.75 
-0.116503 2.1057 0.75 
-0.118331 2.09429 0.75 
-0.120185 2.08228 0.75 
-0.122057 2.06967 0.75 
-0.123942 2.05645 0.75 
-0.125362 2.04613 0.75 
-0.126778 2.0355 0.75 
-0.128186 2.02456 0.75 
-0.129604 2.01317 0.75 
-0.130935 2.00208 0.75 
-0.132179 1.99127 0.75 
-0.133338 1.98076 0.75 
-0.1344 1.9707 0.75 
-0.135699 1.95771 0.75 
-0.136861 1.94531 0.75 
-0.137894 1.93351 0.75 
-0.138806 1.9223 0.75 
-0.139639 1.91123 0.75 
-0.140438 1.89971 0.75 
-0.141206 1.88758 0.75 
-0.14194 1.87485 0.75 
-0.142631 1.86152 0.75 
-0.143119 1.8511 0.75 
-0.143576 1.84039 0.75 
-0.143998 1.82937 0.75 
-0.144388 1.8179 0.75 
-0.14472 1.80673 0.75 
-0.144997 1.79586 0.75 
-0.14522 1.78529 0.75 
-0.145386 1.77517 0.75 
-0.145529 1.76212 0.75 
-0.145588 1.74967 0.75 
-0.14557 1.73782 0.75 
-0.145484 1.72657 0.75 
-0.145338 1.71592 0.75 
-0.145123 1.70497 0.75 
-0.144827 1.69343 0.75 
-0.144447 1.68128 0.75 
-0.143974 1.66854 0.75 
-0.143405 1.6552 0.75 
-0.142909 1.64479 0.75 
-0.142353 1.63408 0.75 
-0.141736 1.62307 0.75 
-0.141046 1.61162 0.75 
-0.140307 1.60017 0.75 
-0.13953 1.58887 0.75 
-0.13872 1.57787 0.75 
-0.137894 1.56733 0.75 
-0.137042 1.55709 0.75 
-0.135875 1.54394 0.75 
-0.134682 1.5314 0.75 
-0.133472 1.51946 0.75 
-0.132253 1.50812 0.75 
-0.131033 1.49739 0.75 
-0.129749 1.48667 0.75 
-0.128326 1.47536 0.75 
-0.12676 1.46346 0.75 
-0.125044 1.45098 0.75 
-0.123172 1.43791 0.75 
-0.121666 1.42775 0.75 
-0.120072 1.41729 0.75 
-0.118396 1.4064 0.75 
-0.116676 1.3952 0.75 
-0.114914 1.38371 0.75 
-0.113108 1.37193 0.75 
-0.111235 1.35969 0.75 
-0.10932 1.34716 0.75 
-0.107362 1.33434 0.75 
-0.10536 1.32122 0.75 
-0.103428 1.30854 0.75 
-0.101543 1.29615 0.75 
-0.099683 1.28392 0.75 
-0.097825 1.27169 0.75 
-0.096035 1.25989 0.75 
-0.094293 1.2484 0.75 
-0.092597 1.2372 0.75 
-0.090947 1.2263 0.75 
-0.089299 1.2154 0.75 
-0.087696 1.2048 0.75 
-0.08614 1.19449 0.75 
-0.08463 1.18448 0.75 
-0.083121 1.17446 0.75 
-0.081177 1.16156 0.75 
-0.079227 1.14881 0.75 
-0.077267 1.13651 0.75 
-0.075329 1.12482 0.75 
-0.07342 1.11374 0.75 
-0.071549 1.10325 0.75 
-0.06956 1.09248 0.75 
-0.067395 1.08114 0.75 
-0.06505 1.06922 0.75 
-0.062516 1.05672 0.75 
-0.059788 1.04365 0.75 
-0.057608 1.03346 0.75 
-0.055321 1.02298 0.75 
-0.052924 1.01222 0.75 
-0.050382 1.00103 0.75 
-0.047725 0.989559 0.75 
-0.045018 0.978099 0.75 
-0.042328 0.966944 0.75 
-0.039693 0.956239 0.75 
-0.03708 0.945837 0.75 
-0.034492 0.935738 0.75 
-0.031933 0.925942 0.75 
-0.028604 0.913479 0.75 
-0.025355 0.901616 0.75 
-0.022195 0.890351 0.75 
-0.019132 0.879682 0.75 
-0.015837 0.868455 0.75 
-0.012303 0.856674 0.75 
-0.008524 0.84434 0.75 
-0.005509 0.834674 0.75 
-0.002362 0.824735 0.75 
0.00092 0.814525 0.75 
0.004339 0.804044 0.75 
0.007945 0.79315 0.75 
0.011502 0.782556 0.75 
0.015009 0.772262 0.75 
0.018468 0.762269 0.75 
0.021824 0.752716 0.75 
0.026216 0.740428 0.75 
0.03048 0.728731 0.75 
0.034607 0.717623 0.75 
0.03859 0.707101 0.75 
0.042421 0.697164 0.75 
0.04642 0.686971 0.75 
0.050702 0.676244 0.75 
0.055271 0.664986 0.75 
0.060133 0.653199 0.75 
0.065294 0.640887 0.75 
0.069371 0.631292 0.75 
0.073607 0.621439 0.75 
0.078004 0.611329 0.75 
0.082265 0.601651 0.75 
0.086451 0.592267 0.75 
0.091893 0.580241 0.75 
0.09716 0.568795 0.75 
0.102244 0.557925 0.75 
0.107138 0.547629 0.75 
0.111832 0.537902 0.75 
0.116586 0.528205 0.75 
0.121664 0.517998 0.75 
0.127071 0.507286 0.75 
0.132813 0.49607 0.75 
0.138895 0.484355 0.75 
0.143674 0.475259 0.75 
0.148631 0.465917 0.75 
0.15384 0.456201 0.75 
0.159233 0.446242 0.75 
0.164668 0.436307 0.75 
0.17 0.426657 0.75 
0.175156 0.417424 0.75 
0.180209 0.408477 0.75 
0.186764 0.39702 0.75 
0.193089 0.386122 0.75 
0.199177 0.375781 0.75 
0.205021 0.365993 0.75 
0.210768 0.356497 0.75 
0.21673 0.34678 0.75 
0.223065 0.336589 0.75 
0.229779 0.325927 0.75 
0.236877 0.314797 0.75 
0.242445 0.306162 0.75 
0.248213 0.297298 0.75 
0.254266 0.288084 0.75 
0.260524 0.278645 0.75 
0.266907 0.269109 0.75 
0.27333 0.2596 0.75 
0.279541 0.250491 0.75 
0.285621 0.241656 0.75 
0.291735 0.232845 0.75 
0.298024 0.223789 0.75 
0.304569 0.214364 0.75 
0.311285 0.204692 0.75 
0.318171 0.194773 0.75 
0.325227 0.184607 0.75 
0.33254 0.174071 0.75 
0.340023 0.163288 0.75 
0.347505 0.152504 0.75 
0.354816 0.141967 0.75 
0.362126 0.13143 0.75 
0.369265 0.121138 0.75 
0.376232 0.111093 0.75 
0.383028 0.101294 0.75 
0.389567 0.091864 0.75 
0.396105 0.082434 0.75 
0.402557 0.073127 0.75 
0.408839 0.064066 0.75 
0.414863 0.055375 0.75 
0.420887 0.046684 0.75 
0.42683 0.038118 0.75 
0.432638 0.029825 0.75 
0.440096 0.019299 0.75 
0.44727 0.009308 0.75 
0.454154 -0.000152 0.75 
0.460741 -0.009087 0.75 
0.467022 -0.017501 0.75 
0.473716 -0.026355 0.75 
0.480827 -0.035646 0.75 
0.488359 -0.045371 0.75 
0.496317 -0.055523 0.75 
0.502603 -0.063461 0.75 
0.50911 -0.071605 0.75 
0.51584 -0.079956 0.75 
0.522795 -0.088511 0.75 
0.530071 -0.097384 0.75 
0.537384 -0.106226 0.75 
0.54464 -0.114922 0.75 
0.551739 -0.123357 0.75 
0.558875 -0.131761 0.75 
0.565851 -0.139907 0.75 
0.572859 -0.148026 0.75 
0.580064 -0.156371 0.75 
0.587562 -0.165058 0.75 
0.595253 -0.173974 0.75 
0.603138 -0.183119 0.75 
0.611216 -0.192493 0.75 
0.619586 -0.20221 0.75 
0.62815 -0.212157 0.75 
0.636711 -0.222105 0.75 
0.645075 -0.231828 0.75 
0.653143 -0.241211 0.75 
0.661013 -0.250369 0.75 
0.668784 -0.259414 0.75 
0.676554 -0.268461 0.75 
0.684028 -0.277167 0.75 
0.691306 -0.285648 0.75 
0.698484 -0.294016 0.75 
0.705661 -0.302385 0.75 
0.712543 -0.310414 0.75 
0.719425 -0.318443 0.75 
0.726404 -0.326586 0.75 
0.733579 -0.334958 0.75 
0.741046 -0.34367 0.75 
0.748709 -0.352611 0.75 
0.756567 -0.361779 0.75 
0.76462 -0.371175 0.75 
0.772967 -0.380913 0.75 
0.781508 -0.390878 0.75 
0.790049 -0.400844 0.75 
0.798396 -0.410582 0.75 
0.806449 -0.419977 0.75 
0.814307 -0.429146 0.75 
0.822067 -0.4382 0.75 
0.829828 -0.447254 0.75 
0.837296 -0.455967 0.75 
0.844568 -0.464452 0.75 
0.851645 -0.472709 0.75 
0.858527 -0.480738 0.75 
0.865409 -0.488767 0.75 
0.872109 -0.496558 0.75 
0.880772 -0.506517 0.75 
0.889102 -0.51597 0.75 
0.897093 -0.524922 0.75 
0.904738 -0.533379 0.75 
0.912031 -0.541345 0.75 
0.918964 -0.548827 0.75 
0.925943 -0.556265 0.75 
0.933378 -0.564098 0.75 
0.941274 -0.572321 0.75 
0.949635 -0.580929 0.75 
0.958464 -0.589918 0.75 
0.967767 -0.599283 0.75 
0.975043 -0.606538 0.75 
0.982563 -0.613973 0.75 
0.990413 -0.621714 0.75 
0.998476 -0.629667 0.75 
1.00675 -0.63783 0.75 
1.01524 -0.646205 0.75 
1.02405 -0.654896 0.75 
1.03307 -0.663799 0.75 
1.04231 -0.672913 0.75 
1.05176 -0.682238 0.75 
1.06088 -0.691247 0.75 
1.07001 -0.700257 0.75 
1.07903 -0.709162 0.75 
1.08784 -0.717856 0.75 
1.09632 -0.726235 0.75 
1.10459 -0.734403 0.75 
1.11276 -0.742466 0.75 
1.12092 -0.75053 0.75 
1.12877 -0.758278 0.75 
1.1364 -0.765815 0.75 
1.14392 -0.773247 0.75 
1.15144 -0.78068 0.75 
1.15864 -0.787796 0.75 
1.16585 -0.794913 0.75 
1.17316 -0.802135 0.75 
1.18068 -0.809567 0.75 
1.18852 -0.817316 0.75 
1.19658 -0.825276 0.75 
1.20484 -0.833447 0.75 
1.21333 -0.841829 0.75 
1.22213 -0.850527 0.75 
1.23115 -0.859435 0.75 
1.24027 -0.86845 0.75 
1.24939 -0.877464 0.75 
1.2582 -0.886162 0.75 
1.26678 -0.894649 0.75 
1.27527 -0.90303 0.75 
1.28375 -0.911412 0.75 
1.29191 -0.919477 0.75 
1.29986 -0.927332 0.75 
1.3077 -0.935081 0.75 
1.31555 -0.94283 0.75 
1.32307 -0.950262 0.75 
1.33038 -0.957484 0.75 
1.33758 -0.964601 0.75 
1.34478 -0.971717 0.75 
1.35396 -0.980784 0.75 
1.36116 -0.9879 0.75 
1.36858 -0.995228 0.75 
1.3762 -1.00277 0.75 
1.38405 -1.01051 0.75 
1.39221 -1.01858 0.75 
1.40059 -1.02686 0.75 
1.40918 -1.03534 0.75 
1.41798 -1.04404 0.75 
1.42678 -1.05274 0.75 
1.43537 -1.06123 0.75 
1.44385 -1.06961 0.75 
1.45233 -1.07799 0.75 
1.4605 -1.08606 0.75 
1.46845 -1.09391 0.75 
1.47629 -1.10166 0.75 
1.48413 -1.10941 0.75 
1.49165 -1.11684 0.75 
1.49918 -1.12427 0.75 
1.50659 -1.1316 0.75 
1.51379 -1.13872 0.75 
1.52297 -1.14778 0.75 
1.53215 -1.15685 0.75 
1.54089 -1.1655 0.75 
1.54964 -1.17414 0.75 
1.55797 -1.18236 0.75 
1.56629 -1.19059 0.75 
1.57419 -1.19839 0.75 
1.58166 -1.20577 0.75 
1.58913 -1.21315 0.75 
1.59659 -1.22053 0.75 
1.6054 -1.22923 0.75 
1.61399 -1.23772 0.75 
1.62225 -1.24589 0.75 
1.6301 -1.25363 0.75 
1.63775 -1.26115 0.75 
1.64501 -1.26821 0.75 
1.6523 -1.27523 0.75 
1.66055 -1.2831 0.75 
1.66873 -1.29082 0.75 
1.6764 -1.29799 0.75 
1.684 -1.30502 0.75 
1.69223 -1.31257 0.75 
1.7004 -1.31999 0.75 
1.70815 -1.32696 0.75 
1.71665 -1.33455 0.75 
1.72471 -1.34174 0.75 
1.73232 -1.34853 0.75 
1.73993 -1.35532 0.75 
1.74748 -1.36207 0.75 
1.75503 -1.36882 0.75 
1.76252 -1.37551 0.75 
1.77052 -1.38266 0.75 
1.77846 -1.38976 0.75 
1.786 -1.39651 0.75 
