ply
format ascii 1.0
element vertex 928
property float x
property float y
property float z
end_header
-0.009613 0.003408 0.75 
-0.019503 0.007152 0.75 
-0.029282 0.010976 0.75 
-0.039657 0.015128 0.75 
-0.049797 0.019262 0.75 
-0.05929 0.023194 0.75 
-0.069594 0.027518 0.75 
-0.08028 0.032096 0.75 
-0.090347 0.036589 0.75 
-0.101086 0.041599 0.75 
-0.110657 0.04627 0.75 
-0.120076 0.051078 0.75 
-0.12979 0.056291 0.75 
-0.138849 0.061449 0.75 
-0.147666 0.067146 0.75 
-0.155982 0.072921 0.75 
-0.164301 0.078823 0.75 
-0.173124 0.08518 0.75 
-0.181848 0.091547 0.75 
-0.191623 0.098762 0.75 
-0.200582 0.105443 0.75 
-0.209506 0.112169 0.75 
-0.217663 0.118417 0.75 
-0.226773 0.125517 0.75 
-0.235061 0.132084 0.75 
-0.244005 0.139273 0.75 
-0.253714 0.147186 0.75 
-0.261929 0.153964 0.75 
-0.270569 0.161169 0.75 
-0.27963 0.168805 0.75 
-0.289109 0.176878 0.75 
-0.299001 0.18539 0.75 
-0.306646 0.192028 0.75 
-0.314604 0.198992 0.75 
-0.32277 0.206174 0.75 
-0.331161 0.213555 0.75 
-0.339777 0.221134 0.75 
-0.348731 0.229009 0.75 
-0.35791 0.237083 0.75 
-0.367315 0.245355 0.75 
-0.376945 0.253826 0.75 
-0.386913 0.262593 0.75 
-0.396881 0.27136 0.75 
-0.406736 0.280029 0.75 
-0.416366 0.288499 0.75 
-0.425658 0.296672 0.75 
-0.434725 0.304647 0.75 
-0.443679 0.312523 0.75 
-0.452633 0.320398 0.75 
-0.461249 0.327977 0.75 
-0.46964 0.335358 0.75 
-0.477806 0.34254 0.75 
-0.485747 0.349524 0.75 
-0.493687 0.356508 0.75 
-0.501402 0.363294 0.75 
-0.511304 0.372024 0.75 
-0.520706 0.380412 0.75 
-0.52961 0.388457 0.75 
-0.538021 0.396152 0.75 
-0.545944 0.40349 0.75 
-0.553823 0.410877 0.75 
-0.562093 0.418723 0.75 
-0.570751 0.427033 0.75 
-0.579791 0.43581 0.75 
-0.589209 0.445059 0.75 
-0.596504 0.452295 0.75 
-0.603981 0.459773 0.75 
-0.611743 0.467603 0.75 
-0.619682 0.475679 0.75 
-0.627796 0.484004 0.75 
-0.636082 0.492579 0.75 
-0.644021 0.500865 0.75 
-0.651718 0.508967 0.75 
-0.659383 0.517098 0.75 
-0.667252 0.525451 0.75 
-0.67543 0.53413 0.75 
-0.683814 0.543026 0.75 
-0.692406 0.55214 0.75 
-0.701205 0.561471 0.75 
-0.710313 0.571128 0.75 
-0.719423 0.580784 0.75 
-0.72843 0.59033 0.75 
-0.737233 0.599657 0.75 
-0.745728 0.608656 0.75 
-0.754224 0.617654 0.75 
-0.762617 0.626542 0.75 
-0.770806 0.635211 0.75 
-0.778686 0.643552 0.75 
-0.786361 0.651675 0.75 
-0.793934 0.659687 0.75 
-0.801508 0.667699 0.75 
-0.808773 0.675384 0.75 
-0.816038 0.683068 0.75 
-0.823201 0.690642 0.75 
-0.830159 0.697998 0.75 
-0.838986 0.707404 0.75 
-0.847347 0.716426 0.75 
-0.855245 0.725058 0.75 
-0.862688 0.733293 0.75 
-0.869682 0.741125 0.75 
-0.877025 0.749449 0.75 
-0.884714 0.758267 0.75 
-0.892743 0.767585 0.75 
-0.901108 0.777405 0.75 
-0.907635 0.785146 0.75 
-0.914322 0.793144 0.75 
-0.921166 0.801401 0.75 
-0.928165 0.809919 0.75 
-0.935129 0.818467 0.75 
-0.941868 0.82681 0.75 
-0.948383 0.834948 0.75 
-0.954677 0.842879 0.75 
-0.960938 0.850837 0.75 
-0.968958 0.861132 0.75 
-0.976831 0.871351 0.75 
-0.984375 0.881254 0.75 
-0.991772 0.891082 0.75 
-0.998845 0.900589 0.75 
-1.00578 0.910014 0.75 
-1.0124 0.919111 0.75 
-1.01888 0.928119 0.75 
-1.02506 0.936793 0.75 
-1.03111 0.945373 0.75 
-1.03687 0.953612 0.75 
-1.04391 0.963791 0.75 
-1.05047 0.973389 0.75 
-1.05681 0.98277 0.75 
-1.06286 0.991809 0.75 
-1.06886 1.00088 0.75 
-1.07474 1.00985 0.75 
-1.08024 1.01835 0.75 
-1.08571 1.02687 0.75 
-1.09181 1.0365 0.75 
-1.09779 1.04603 0.75 
-1.10333 1.05495 0.75 
-1.10874 1.06377 0.75 
-1.11454 1.07332 0.75 
-1.12023 1.08277 0.75 
-1.12556 1.09173 0.75 
-1.13134 1.10155 0.75 
-1.13677 1.11089 0.75 
-1.14185 1.11973 0.75 
-1.1469 1.1286 0.75 
-1.15186 1.13742 0.75 
-1.15712 1.14685 0.75 
-1.16229 1.15625 0.75 
-1.16741 1.16568 0.75 
-1.17242 1.17516 0.75 
-1.17724 1.18448 0.75 
-1.18207 1.19406 0.75 
-1.18675 1.20354 0.75 
-1.18262 1.19438 0.75 
-1.17848 1.18498 0.75 
-1.17448 1.17568 0.75 
-1.17056 1.16642 0.75 
-1.16613 1.15576 0.75 
-1.16211 1.14597 0.75 
-1.15781 1.13534 0.75 
-1.15313 1.12372 0.75 
-1.14914 1.11384 0.75 
-1.14494 1.10341 0.75 
-1.1405 1.09242 0.75 
-1.13584 1.08087 0.75 
-1.13096 1.06877 0.75 
-1.12717 1.05938 0.75 
-1.12321 1.04957 0.75 
-1.11914 1.03949 0.75 
-1.11496 1.02913 0.75 
-1.11066 1.01849 0.75 
-1.10619 1.00743 0.75 
-1.10172 0.996376 0.75 
-1.09726 0.98532 0.75 
-1.09279 0.974264 0.75 
-1.08849 0.963625 0.75 
-1.08419 0.952987 0.75 
-1.07983 0.942209 0.75 
-1.07536 0.931153 0.75 
-1.07072 0.91968 0.75 
-1.06597 0.907929 0.75 
-1.06111 0.8959 0.75 
-1.05613 0.883593 0.75 
-1.05116 0.871285 0.75 
-1.0463 0.859256 0.75 
-1.04149 0.847366 0.75 
-1.03668 0.835475 0.75 
-1.03204 0.824003 0.75 
-1.02752 0.812808 0.75 
-1.0231 0.801891 0.75 
-1.0188 0.791253 0.75 
-1.0145 0.780614 0.75 
-1.01031 0.770254 0.75 
-1.00624 0.760171 0.75 
-1.00227 0.750367 0.75 
-0.998312 0.740563 0.75 
-0.994236 0.730481 0.75 
-0.990047 0.72012 0.75 
-0.985747 0.709482 0.75 
-0.981277 0.698426 0.75 
-0.976695 0.687092 0.75 
-0.972001 0.67548 0.75 
-0.967194 0.66359 0.75 
-0.962219 0.651282 0.75 
-0.957356 0.639253 0.75 
-0.952606 0.627502 0.75 
-0.947967 0.616029 0.75 
-0.943329 0.604556 0.75 
-0.938804 0.593362 0.75 
-0.93439 0.582445 0.75 
-0.93009 0.571806 0.75 
-0.925789 0.561168 0.75 
-0.921601 0.550807 0.75 
-0.917525 0.540725 0.75 
-0.913561 0.530921 0.75 
-0.909598 0.521117 0.75 
-0.905634 0.511313 0.75 
-0.901615 0.501369 0.75 
-0.897483 0.491148 0.75 
-0.893182 0.480509 0.75 
-0.888769 0.469593 0.75 
-0.884243 0.458398 0.75 
-0.879605 0.446925 0.75 
-0.874798 0.435035 0.75 
-0.869879 0.422866 0.75 
-0.86496 0.410698 0.75 
-0.860153 0.398808 0.75 
-0.855515 0.387335 0.75 
-0.85099 0.37614 0.75 
-0.84652 0.365084 0.75 
-0.842051 0.354029 0.75 
-0.83775 0.34339 0.75 
-0.833562 0.33303 0.75 
-0.82943 0.322808 0.75 
-0.825298 0.312587 0.75 
-0.821365 0.30277 0.75 
-0.817589 0.293214 0.75 
-0.812806 0.280912 0.75 
-0.808314 0.26914 0.75 
-0.804105 0.257902 0.75 
-0.800173 0.247201 0.75 
-0.796306 0.236477 0.75 
-0.792302 0.225165 0.75 
-0.788169 0.213262 0.75 
-0.783911 0.200768 0.75 
-0.780646 0.191026 0.75 
-0.777328 0.180984 0.75 
-0.773915 0.170501 0.75 
-0.770456 0.159717 0.75 
-0.766998 0.148776 0.75 
-0.763588 0.137819 0.75 
-0.760226 0.126848 0.75 
-0.756998 0.116149 0.75 
-0.753903 0.105724 0.75 
-0.750942 0.095572 0.75 
-0.748152 0.085839 0.75 
-0.744625 0.073274 0.75 
-0.741336 0.061267 0.75 
-0.738276 0.049819 0.75 
-0.735437 0.038933 0.75 
-0.73259 0.027739 0.75 
-0.729666 0.015946 0.75 
-0.726669 0.003554 0.75 
-0.723607 -0.00944 0.75 
-0.721267 -0.019599 0.75 
-0.718905 -0.030061 0.75 
-0.716524 -0.040826 0.75 
-0.714093 -0.05204 0.75 
-0.711712 -0.063266 0.75 
-0.709379 -0.074501 0.75 
-0.707096 -0.085746 0.75 
-0.704949 -0.09656 0.75 
-0.702834 -0.107381 0.75 
-0.70069 -0.118348 0.75 
-0.698489 -0.12961 0.75 
-0.696202 -0.141314 0.75 
-0.693856 -0.153311 0.75 
-0.691454 -0.165604 0.75 
-0.688993 -0.178191 0.75 
-0.686447 -0.191219 0.75 
-0.6839 -0.204248 0.75 
-0.681382 -0.217129 0.75 
-0.678922 -0.229716 0.75 
-0.676548 -0.241861 0.75 
-0.674232 -0.253711 0.75 
-0.671944 -0.265415 0.75 
-0.669656 -0.277119 0.75 
-0.667455 -0.28838 0.75 
-0.665311 -0.299348 0.75 
-0.663225 -0.310021 0.75 
-0.661196 -0.3204 0.75 
-0.659168 -0.330778 0.75 
-0.657197 -0.340862 0.75 
-0.655254 -0.350799 0.75 
-0.653312 -0.360736 0.75 
-0.651283 -0.371115 0.75 
-0.649197 -0.381788 0.75 
-0.647053 -0.392755 0.75 
-0.644852 -0.404017 0.75 
-0.642564 -0.415721 0.75 
-0.640219 -0.427719 0.75 
-0.637817 -0.440011 0.75 
-0.635356 -0.452598 0.75 
-0.632896 -0.465185 0.75 
-0.630493 -0.477477 0.75 
-0.628119 -0.489622 0.75 
-0.625745 -0.501767 0.75 
-0.623458 -0.513471 0.75 
-0.621228 -0.52488 0.75 
-0.619055 -0.535995 0.75 
-0.61694 -0.546815 0.75 
-0.614825 -0.557635 0.75 
-0.612739 -0.568308 0.75 
-0.61071 -0.578687 0.75 
-0.608682 -0.589065 0.75 
-0.606707 -0.598996 0.75 
-0.60409 -0.611781 0.75 
-0.601514 -0.623961 0.75 
-0.598989 -0.635539 0.75 
-0.596522 -0.646515 0.75 
-0.594123 -0.656891 0.75 
-0.5918 -0.666669 0.75 
-0.589346 -0.676724 0.75 
-0.586687 -0.687346 0.75 
-0.583819 -0.698535 0.75 
-0.580735 -0.710287 0.75 
-0.577429 -0.722601 0.75 
-0.573896 -0.735475 0.75 
-0.571088 -0.745514 0.75 
-0.568157 -0.755831 0.75 
-0.5651 -0.766424 0.75 
-0.561999 -0.777003 0.75 
-0.558854 -0.78757 0.75 
-0.555627 -0.798269 0.75 
-0.552309 -0.809254 0.75 
-0.548862 -0.82067 0.75 
-0.545331 -0.832374 0.75 
-0.541713 -0.844365 0.75 
-0.538011 -0.856644 0.75 
-0.534181 -0.869354 0.75 
-0.530351 -0.882065 0.75 
-0.526567 -0.894633 0.75 
-0.52287 -0.906913 0.75 
-0.519304 -0.918763 0.75 
-0.515825 -0.930326 0.75 
-0.512434 -0.941603 0.75 
-0.509131 -0.952592 0.75 
-0.505958 -0.96315 0.75 
-0.502872 -0.973422 0.75 
-0.499874 -0.983406 0.75 
-0.496962 -0.993104 0.75 
-0.493254 -1.00546 0.75 
-0.48972 -1.01724 0.75 
-0.486358 -1.02845 0.75 
-0.482998 -1.03965 0.75 
-0.479854 -1.0503 0.75 
-0.476944 -1.06039 0.75 
-0.473639 -1.07216 0.75 
-0.470582 -1.08337 0.75 
-0.467494 -1.09505 0.75 
-0.464913 -1.10507 0.75 
-0.462242 -1.11569 0.75 
-0.459488 -1.12691 0.75 
-0.456656 -1.13872 0.75 
-0.453752 -1.15114 0.75 
-0.450782 -1.16415 0.75 
-0.448511 -1.17433 0.75 
-0.446218 -1.1848 0.75 
-0.443903 -1.19558 0.75 
-0.44154 -1.20681 0.75 
-0.439236 -1.21805 0.75 
-0.43705 -1.22916 0.75 
-0.435004 -1.24 0.75 
-0.433119 -1.2504 0.75 
-0.431361 -1.26053 0.75 
-0.429209 -1.27355 0.75 
-0.427268 -1.286 0.75 
-0.425523 -1.29787 0.75 
-0.423959 -1.30917 0.75 
-0.422564 -1.31988 0.75 
-0.421325 -1.33 0.75 
-0.419973 -1.34185 0.75 
-0.418818 -1.35281 0.75 
-0.417681 -1.36461 0.75 
-0.416653 -1.37641 0.75 
-0.415788 -1.38725 0.75 
-0.414812 -1.39914 0.75 
-0.413933 -1.4093 0.75 
-0.412965 -1.42006 0.75 
-0.411906 -1.43141 0.75 
-0.410756 -1.44335 0.75 
-0.409516 -1.45589 0.75 
-0.408185 -1.46902 0.75 
-0.407131 -1.47924 0.75 
-0.40603 -1.48976 0.75 
-0.404869 -1.50073 0.75 
-0.403663 -1.51199 0.75 
-0.402414 -1.52354 0.75 
-0.401124 -1.5354 0.75 
-0.399826 -1.54725 0.75 
-0.398556 -1.55881 0.75 
-0.397298 -1.57021 0.75 
-0.396039 -1.58162 0.75 
-0.394909 -1.59259 0.75 
-0.393926 -1.60327 0.75 
-0.39308 -1.61366 0.75 
-0.39236 -1.62376 0.75 
-0.391589 -1.63663 0.75 
-0.391004 -1.64892 0.75 
-0.390585 -1.66061 0.75 
-0.390309 -1.67171 0.75 
-0.390157 -1.68221 0.75 
-0.390113 -1.69443 0.75 
-0.3902 -1.70576 0.75 
-0.390388 -1.71618 0.75 
-0.390709 -1.72742 0.75 
-0.391164 -1.73889 0.75 
-0.391676 -1.75036 0.75 
-0.392178 -1.76159 0.75 
-0.392643 -1.77201 0.75 
-0.393149 -1.78332 0.75 
-0.393694 -1.79553 0.75 
-0.394163 -1.80602 0.75 
-0.394658 -1.81711 0.75 
-0.39518 -1.8288 0.75 
-0.395729 -1.84109 0.75 
-0.396305 -1.85398 0.75 
-0.396757 -1.86409 0.75 
-0.397222 -1.87451 0.75 
-0.397701 -1.88522 0.75 
-0.398193 -1.89623 0.75 
-0.398705 -1.9077 0.75 
-0.39923 -1.91946 0.75 
-0.399769 -1.93152 0.75 
-0.400321 -1.94388 0.75 
-0.400893 -1.9567 0.75 
-0.401479 -1.96981 0.75 
-0.402078 -1.98322 0.75 
-0.402691 -1.99693 0.75 
-0.403283 -2.0102 0.75 
-0.403862 -2.02316 0.75 
-0.404428 -2.03582 0.75 
-0.40498 -2.04818 0.75 
-0.405512 -2.0601 0.75 
-0.406044 -2.07201 0.75 
-0.40657 -2.08377 0.75 
-0.407082 -2.09524 0.75 
-0.407574 -2.10625 0.75 
-0.408066 -2.11726 0.75 
-0.408551 -2.12813 0.75 
-0.409023 -2.13869 0.75 
-0.409495 -2.14926 0.75 
-0.40998 -2.16012 0.75 
-0.410479 -2.17128 0.75 
-0.410991 -2.18275 0.75 
-0.411523 -2.19466 0.75 
-0.412069 -2.20687 0.75 
-0.412627 -2.21939 0.75 
-0.4132 -2.2322 0.75 
-0.413792 -2.24546 0.75 
-0.414371 -2.25842 0.75 
-0.414937 -2.27109 0.75 
-0.415489 -2.28345 0.75 
-0.416021 -2.29536 0.75 
-0.416553 -2.30727 0.75 
-0.417079 -2.31904 0.75 
-0.417591 -2.3305 0.75 
-0.418083 -2.34152 0.75 
-0.418575 -2.35253 0.75 
-0.41906 -2.36339 0.75 
-0.419532 -2.37396 0.75 
-0.419984 -2.38407 0.75 
-0.420436 -2.39419 0.75 
-0.420894 -2.40445 0.75 
-0.421366 -2.41502 0.75 
-0.421858 -2.42603 0.75 
-0.422364 -2.43735 0.75 
-0.422882 -2.44896 0.75 
-0.423414 -2.46087 0.75 
-0.423967 -2.47323 0.75 
-0.424532 -2.4859 0.75 
-0.425105 -2.49871 0.75 
-0.425677 -2.51152 0.75 
-0.426249 -2.52433 0.75 
-0.426808 -2.53685 0.75 
-0.427354 -2.54906 0.75 
-0.427886 -2.56097 0.75 
-0.428398 -2.57244 0.75 
-0.42891 -2.5839 0.75 
-0.429415 -2.59521 0.75 
-0.429907 -2.60623 0.75 
-0.430379 -2.61679 0.75 
-0.430851 -2.62736 0.75 
-0.43133 -2.63807 0.75 
-0.431822 -2.64908 0.75 
-0.432334 -2.66055 0.75 
-0.432859 -2.67231 0.75 
-0.433398 -2.68437 0.75 
-0.43395 -2.69674 0.75 
-0.434523 -2.70955 0.75 
-0.435108 -2.72266 0.75 
-0.435694 -2.73577 0.75 
-0.436266 -2.74858 0.75 
-0.436819 -2.76095 0.75 
-0.437371 -2.77331 0.75 
-0.437916 -2.78552 0.75 
-0.438449 -2.79744 0.75 
-0.438961 -2.8089 0.75 
-0.439459 -2.82006 0.75 
-0.439951 -2.83108 0.75 
-0.440443 -2.84209 0.75 
-0.440915 -2.85266 0.75 
-0.441374 -2.86292 0.75 
-0.441947 -2.87611 0.75 
-0.442418 -2.8887 0.75 
-0.442789 -2.90069 0.75 
-0.44307 -2.91209 0.75 
-0.443269 -2.92289 0.75 
-0.443394 -2.93309 0.75 
-0.443456 -2.94329 0.75 
-0.443458 -2.95409 0.75 
-0.443394 -2.96549 0.75 
-0.443257 -2.97749 0.75 
-0.443042 -2.99008 0.75 
-0.442742 -3.00328 0.75 
-0.442458 -3.01355 0.75 
-0.442122 -3.02412 0.75 
-0.441725 -3.03514 0.75 
-0.44127 -3.04645 0.75 
-0.440768 -3.05777 0.75 
-0.440227 -3.06878 0.75 
-0.439658 -3.07934 0.75 
-0.439057 -3.0896 0.75 
-0.438213 -3.10277 0.75 
-0.437328 -3.11534 0.75 
-0.436412 -3.12731 0.75 
-0.435473 -3.13867 0.75 
-0.434464 -3.15002 0.75 
-0.43333 -3.16197 0.75 
-0.432067 -3.1745 0.75 
-0.430667 -3.18763 0.75 
-0.429526 -3.19784 0.75 
-0.428306 -3.20834 0.75 
-0.426987 -3.21929 0.75 
-0.425583 -3.23053 0.75 
-0.424111 -3.24191 0.75 
-0.422589 -3.25328 0.75 
-0.42108 -3.2642 0.75 
-0.419565 -3.27482 0.75 
-0.418026 -3.28528 0.75 
-0.416437 -3.29574 0.75 
-0.414868 -3.30574 0.75 
-0.412776 -3.31862 0.75 
-0.410703 -3.3309 0.75 
-0.408657 -3.34257 0.75 
-0.406648 -3.35364 0.75 
-0.404599 -3.36455 0.75 
-0.402571 -3.375 0.75 
-0.4006 -3.38486 0.75 
-0.398217 -3.39639 0.75 
-0.395974 -3.40688 0.75 
-0.393441 -3.4183 0.75 
-0.391087 -3.42853 0.75 
-0.388585 -3.43904 0.75 
-0.385928 -3.44982 0.75 
-0.383357 -3.45984 0.75 
-0.380465 -3.47072 0.75 
-0.377709 -3.48077 0.75 
-0.37464 -3.49167 0.75 
-0.371251 -3.50342 0.75 
-0.368282 -3.51349 0.75 
-0.36509 -3.52412 0.75 
-0.361668 -3.53531 0.75 
-0.358012 -3.54705 0.75 
-0.354117 -3.55935 0.75 
-0.351018 -3.56899 0.75 
-0.34779 -3.5789 0.75 
-0.344431 -3.58909 0.75 
-0.34094 -3.59954 0.75 
-0.337266 -3.61041 0.75 
-0.333551 -3.62127 0.75 
-0.329831 -3.63197 0.75 
-0.326075 -3.64233 0.75 
-0.322331 -3.65222 0.75 
-0.318558 -3.66178 0.75 
-0.313509 -3.67398 0.75 
-0.308474 -3.68553 0.75 
-0.303476 -3.69644 0.75 
-0.29854 -3.70671 0.75 
-0.293691 -3.71636 0.75 
-0.28895 -3.72539 0.75 
-0.283205 -3.73584 0.75 
-0.277691 -3.74539 0.75 
-0.271539 -3.75552 0.75 
-0.265881 -3.76436 0.75 
-0.259968 -3.77313 0.75 
-0.253564 -3.7821 0.75 
-0.247254 -3.7904 0.75 
-0.240074 -3.79769 0.75 
-0.232263 -3.80402 0.75 
-0.22374 -3.81065 0.75 
-0.215613 -3.81681 0.75 
-0.20689 -3.82331 0.75 
-0.198181 -3.82969 0.75 
-0.188337 -3.83682 0.75 
-0.179246 -3.84331 0.75 
-0.169387 -3.85029 0.75 
-0.16091 -3.85623 0.75 
-0.151917 -3.86247 0.75 
-0.142404 -3.86902 0.75 
-0.133139 -3.8754 0.75 
-0.124408 -3.8815 0.75 
-0.116205 -3.88731 0.75 
-0.106643 -3.89418 0.75 
-0.097861 -3.90059 0.75 
-0.088887 -3.90725 0.75 
-0.079242 -3.91452 0.75 
-0.071014 -3.9208 0.75 
-0.062346 -3.92749 0.75 
-0.053242 -3.9346 0.75 
-0.043705 -3.94212 0.75 
-0.03374 -3.95008 0.75 
-0.023349 -3.95846 0.75 
-0.015266 -3.96504 0.75 
-0.006977 -3.97185 0.75 
0.001517 -3.97888 0.75 
0.010347 -3.98621 0.75 
0.019408 -3.99373 0.75 
0.028699 -4.00144 0.75 
0.038222 -4.00934 0.75 
0.048091 -4.01753 0.75 
0.058191 -4.02591 0.75 
0.068406 -4.03439 0.75 
0.078621 -4.04287 0.75 
0.08849 -4.05106 0.75 
0.098359 -4.05925 0.75 
0.108113 -4.06735 0.75 
0.117635 -4.07525 0.75 
0.126812 -4.08287 0.75 
0.135757 -4.09029 0.75 
0.144587 -4.09762 0.75 
0.153417 -4.10495 0.75 
0.161901 -4.11199 0.75 
0.170154 -4.11884 0.75 
0.178292 -4.12559 0.75 
0.186429 -4.13234 0.75 
0.194221 -4.13881 0.75 
0.202012 -4.14528 0.75 
0.209919 -4.15184 0.75 
0.218056 -4.15859 0.75 
0.22654 -4.16563 0.75 
0.235255 -4.17286 0.75 
0.2442 -4.18029 0.75 
0.253377 -4.1879 0.75 
0.262899 -4.19581 0.75 
0.272653 -4.2039 0.75 
0.282522 -4.21209 0.75 
0.292391 -4.22029 0.75 
0.301913 -4.22819 0.75 
0.311436 -4.23609 0.75 
0.320843 -4.2439 0.75 
0.330019 -4.25152 0.75 
0.33885 -4.25885 0.75 
0.347449 -4.26598 0.75 
0.355933 -4.27302 0.75 
0.364416 -4.28007 0.75 
0.3729 -4.28711 0.75 
0.381615 -4.29434 0.75 
0.39056 -4.30176 0.75 
0.399737 -4.30938 0.75 
0.409259 -4.31728 0.75 
0.419013 -4.32538 0.75 
0.428997 -4.33366 0.75 
0.439213 -4.34214 0.75 
0.449428 -4.35062 0.75 
0.459412 -4.3589 0.75 
0.469166 -4.367 0.75 
0.478688 -4.3749 0.75 
0.487865 -4.38252 0.75 
0.497041 -4.39014 0.75 
0.506102 -4.39766 0.75 
0.514932 -4.40498 0.75 
0.523416 -4.41202 0.75 
0.531669 -4.41888 0.75 
0.539807 -4.42563 0.75 
0.547944 -4.43238 0.75 
0.555736 -4.43885 0.75 
0.565758 -4.44721 0.75 
0.57527 -4.45524 0.75 
0.584274 -4.46294 0.75 
0.592778 -4.47031 0.75 
0.600785 -4.47733 0.75 
0.608974 -4.4846 0.75 
0.617567 -4.49232 0.75 
0.626558 -4.50049 0.75 
0.635945 -4.50912 0.75 
0.645721 -4.51821 0.75 
0.653321 -4.52534 0.75 
0.661107 -4.53272 0.75 
0.66908 -4.54033 0.75 
0.677344 -4.54829 0.75 
0.68579 -4.5565 0.75 
0.6942 -4.56474 0.75 
0.702255 -4.5727 0.75 
0.710063 -4.58048 0.75 
0.717849 -4.58829 0.75 
0.72574 -4.5962 0.75 
0.733843 -4.60433 0.75 
0.742264 -4.61277 0.75 
0.750897 -4.62143 0.75 
0.759741 -4.63029 0.75 
0.768798 -4.63938 0.75 
0.778172 -4.64878 0.75 
0.787334 -4.65796 0.75 
0.796284 -4.66694 0.75 
0.805023 -4.6757 0.75 
0.813444 -4.68414 0.75 
0.821865 -4.69258 0.75 
0.830286 -4.70103 0.75 
0.838707 -4.70947 0.75 
0.84681 -4.7176 0.75 
0.854701 -4.72551 0.75 
0.862486 -4.73331 0.75 
0.870272 -4.74112 0.75 
0.877739 -4.74861 0.75 
0.884995 -4.75588 0.75 
0.892145 -4.76305 0.75 
0.899295 -4.77022 0.75 
0.908405 -4.77936 0.75 
0.915554 -4.78653 0.75 
0.922916 -4.79391 0.75 
0.93049 -4.8015 0.75 
0.938275 -4.80931 0.75 
0.946378 -4.81743 0.75 
0.954693 -4.82577 0.75 
0.96322 -4.83432 0.75 
0.971959 -4.84308 0.75 
0.981015 -4.85216 0.75 
0.990071 -4.86124 0.75 
0.999022 -4.87022 0.75 
1.00776 -4.87898 0.75 
1.01618 -4.88742 0.75 
1.0246 -4.89587 0.75 
1.03292 -4.9042 0.75 
1.04102 -4.91233 0.75 
1.0488 -4.92014 0.75 
1.05659 -4.92794 0.75 
1.06427 -4.93564 0.75 
1.07174 -4.94313 0.75 
1.07889 -4.9503 0.75 
1.08604 -4.95747 0.75 
1.09329 -4.96474 0.75 
1.10076 -4.97223 0.75 
1.10854 -4.98004 0.75 
1.11654 -4.98806 0.75 
1.12475 -4.99629 0.75 
1.13317 -5.00473 0.75 
1.14191 -5.01349 0.75 
1.15086 -5.02247 0.75 
1.15992 -5.03155 0.75 
1.16897 -5.04063 0.75 
1.17771 -5.04939 0.75 
1.18645 -5.05815 0.75 
1.19508 -5.06681 0.75 
1.20351 -5.07525 0.75 
1.21161 -5.08338 0.75 
1.2195 -5.09129 0.75 
1.22729 -5.0991 0.75 
1.23507 -5.1069 0.75 
1.24254 -5.11439 0.75 
1.25001 -5.12188 0.75 
1.25737 -5.12926 0.75 
1.26452 -5.13643 0.75 
1.27167 -5.1436 0.75 
1.27903 -5.15098 0.75 
1.2866 -5.15858 0.75 
1.29439 -5.16638 0.75 
1.30249 -5.17451 0.75 
1.3108 -5.18284 0.75 
1.31933 -5.19139 0.75 
1.32807 -5.20015 0.75 
1.33713 -5.20924 0.75 
1.34618 -5.21832 0.75 
1.35513 -5.22729 0.75 
1.36387 -5.23605 0.75 
1.37261 -5.24481 0.75 
1.38114 -5.25336 0.75 
1.38945 -5.2617 0.75 
1.39755 -5.26983 0.75 
1.40534 -5.27763 0.75 
1.41313 -5.28544 0.75 
1.42329 -5.29564 0.75 
1.43076 -5.30312 0.75 
1.43823 -5.31061 0.75 
1.4457 -5.3181 0.75 
1.45338 -5.3258 0.75 
1.46127 -5.33371 0.75 
1.46937 -5.34184 0.75 
1.47779 -5.35028 0.75 
1.48642 -5.35893 0.75 
1.49527 -5.3678 0.75 
1.50433 -5.37688 0.75 
1.5137 -5.38628 0.75 
1.52286 -5.39547 0.75 
1.53181 -5.40445 0.75 
1.54055 -5.41321 0.75 
1.54897 -5.42165 0.75 
1.55739 -5.4301 0.75 
1.56571 -5.43843 0.75 
1.57381 -5.44656 0.75 
1.5816 -5.45437 0.75 
1.58938 -5.46217 0.75 
1.59706 -5.46987 0.75 
1.60453 -5.47736 0.75 
1.61168 -5.48453 0.75 
1.61884 -5.49169 0.75 
1.62823 -5.50097 0.75 
1.63724 -5.50977 0.75 
1.64588 -5.5181 0.75 
1.65413 -5.52596 0.75 
1.66222 -5.53357 0.75 
1.67057 -5.54133 0.75 
1.67941 -5.54945 0.75 
1.68873 -5.55792 0.75 
1.69856 -5.56673 0.75 
1.70624 -5.57356 0.75 
1.71417 -5.58055 0.75 
1.72248 -5.5878 0.75 
1.73104 -5.59522 0.75 
1.73974 -5.60269 0.75 
1.74848 -5.61013 0.75 
1.75725 -5.61753 0.75 
1.76582 -5.6247 0.75 
1.7742 -5.63164 0.75 
1.78237 -5.63835 0.75 
1.79022 -5.64474 0.75 
1.80039 -5.65292 0.75 
1.81015 -5.66066 0.75 
1.81947 -5.66797 0.75 
1.82837 -5.67485 0.75 
1.83755 -5.68187 0.75 
1.84724 -5.68919 0.75 
1.85746 -5.69681 0.75 
1.86821 -5.70473 0.75 
1.87663 -5.71087 0.75 
1.88533 -5.71715 0.75 
1.89429 -5.72357 0.75 
1.90365 -5.73021 0.75 
1.91328 -5.73699 0.75 
1.92315 -5.74395 0.75 
1.93326 -5.75108 0.75 
1.94374 -5.75846 0.75 
1.95447 -5.76603 0.75 
1.96544 -5.77376 0.75 
1.97666 -5.78167 0.75 
1.98751 -5.78932 0.75 
1.99812 -5.79679 0.75 
2.00848 -5.8041 0.75 
2.01859 -5.81123 0.75 
2.02871 -5.81836 0.75 
2.03857 -5.82531 0.75 
2.0482 -5.8321 0.75 
2.05758 -5.83871 0.75 
2.06696 -5.84532 0.75 
2.07609 -5.85176 0.75 
2.08498 -5.85803 0.75 
2.09362 -5.86412 0.75 
2.10227 -5.87021 0.75 
2.11116 -5.87647 0.75 
2.12029 -5.88291 0.75 
2.12967 -5.88952 0.75 
2.13942 -5.8964 0.75 
2.14941 -5.90344 0.75 
2.15964 -5.91066 0.75 
2.17013 -5.91804 0.75 
2.18098 -5.92569 0.75 
2.19158 -5.93317 0.75 
2.20194 -5.94047 0.75 
2.21205 -5.9476 0.75 
2.2218 -5.95447 0.75 
2.23155 -5.96134 0.75 
2.24117 -5.96813 0.75 
2.25055 -5.97474 0.75 
2.25956 -5.98109 0.75 
2.26857 -5.98744 0.75 
2.27759 -5.99379 0.75 
2.2866 -6.00014 0.75 
2.29598 -6.00675 0.75 
2.30536 -6.01337 0.75 
2.31461 -6.01989 0.75 
2.32363 -6.02624 0.75 
2.33227 -6.03234 0.75 
2.34091 -6.03843 0.75 
2.34943 -6.04444 0.75 
2.35771 -6.05027 0.75 
2.36598 -6.0561 0.75 
2.37665 -6.06362 0.75 
2.38683 -6.07079 0.75 
2.39688 -6.07788 0.75 
2.40656 -6.08471 0.75 
2.41613 -6.09145 0.75 
2.42532 -6.09793 0.75 
2.43439 -6.10432 0.75 
2.4431 -6.11046 0.75 
2.45169 -6.1165 0.75 
2.45994 -6.12223 0.75 
2.47014 -6.12924 0.75 
2.47976 -6.13577 0.75 
2.48941 -6.14225 0.75 
2.49872 -6.14843 0.75 
2.50781 -6.1544 0.75 
2.5163 -6.15992 0.75 
2.52482 -6.1654 0.75 
2.53456 -6.1716 0.75 
2.54408 -6.1776 0.75 
2.55311 -6.18323 0.75 
2.56192 -6.18867 0.75 
2.57073 -6.19411 0.75 
2.58011 -6.19989 0.75 
2.58924 -6.20552 0.75 
2.59894 -6.21151 0.75 
2.60839 -6.21734 0.75 
2.61707 -6.22269 0.75 
2.62646 -6.22848 0.75 
2.63509 -6.23378 0.75 
2.64445 -6.23946 0.75 
2.65364 -6.24498 0.75 
2.66286 -6.25046 0.75 
2.67211 -6.2559 0.75 
2.68112 -6.26113 0.75 
