ply
format ascii 1.0
element vertex 458
property float x
property float y
property float z
end_header
-0.00992 0.003441 0.75 
-0.019764 0.007093 0.75 
-0.029569 0.01085 0.75 
-0.039903 0.014902 0.75 
-0.05021 0.019022 0.75 
-0.059661 0.022858 0.75 
-0.069926 0.027082 0.75 
-0.080863 0.031643 0.75 
-0.090939 0.035928 0.75 
-0.100157 0.039933 0.75 
-0.109618 0.044129 0.75 
-0.120006 0.048826 0.75 
-0.131177 0.053972 0.75 
-0.140687 0.058423 0.75 
-0.150715 0.063183 0.75 
-0.161258 0.068255 0.75 
-0.172314 0.073646 0.75 
-0.183879 0.07936 0.75 
-0.192869 0.083852 0.75 
-0.20211 0.088515 0.75 
-0.211332 0.093213 0.75 
-0.220536 0.097946 0.75 
-0.229589 0.102646 0.75 
-0.241144 0.108711 0.75 
-0.252265 0.114634 0.75 
-0.263351 0.120623 0.75 
-0.27427 0.126603 0.75 
-0.284763 0.132426 0.75 
-0.295093 0.138231 0.75 
-0.304872 0.143794 0.75 
-0.314232 0.149181 0.75 
-0.323566 0.154614 0.75 
-0.332745 0.160015 0.75 
-0.341513 0.165227 0.75 
-0.350129 0.1704 0.75 
-0.360388 0.176626 0.75 
-0.370231 0.182668 0.75 
-0.37979 0.188601 0.75 
-0.388686 0.194179 0.75 
-0.397556 0.199797 0.75 
-0.406016 0.205222 0.75 
-0.415047 0.211146 0.75 
-0.42413 0.217261 0.75 
-0.432517 0.223065 0.75 
-0.441307 0.22934 0.75 
-0.450016 0.235727 0.75 
-0.459023 0.242468 0.75 
-0.467734 0.249102 0.75 
-0.476035 0.255532 0.75 
-0.484286 0.262026 0.75 
-0.492361 0.268501 0.75 
-0.500719 0.275341 0.75 
-0.508894 0.282166 0.75 
-0.517117 0.289168 0.75 
-0.525272 0.296248 0.75 
-0.53325 0.303304 0.75 
-0.541051 0.310331 0.75 
-0.549119 0.317735 0.75 
-0.556567 0.324704 0.75 
-0.564271 0.332056 0.75 
-0.556705 0.324136 0.75 
-0.549124 0.316445 0.75 
-0.541333 0.308538 0.75 
-0.533609 0.300567 0.75 
-0.526398 0.292934 0.75 
-0.518859 0.284787 0.75 
-0.511391 0.276576 0.75 
-0.50458 0.268983 0.75 
-0.497219 0.260674 0.75 
-0.489216 0.251533 0.75 
-0.48244 0.24371 0.75 
-0.475308 0.2354 0.75 
-0.467826 0.226601 0.75 
-0.459997 0.21731 0.75 
-0.451923 0.207637 0.75 
-0.444001 0.198032 0.75 
-0.436519 0.188843 0.75 
-0.429471 0.180075 0.75 
-0.422756 0.171616 0.75 
-0.416 0.162999 0.75 
-0.408928 0.153867 0.75 
-0.401545 0.144218 0.75 
-0.393856 0.134047 0.75 
-0.385866 0.123352 0.75 
-0.379712 0.11503 0.75 
-0.373328 0.106319 0.75 
-0.366806 0.097338 0.75 
-0.360146 0.088085 0.75 
-0.353352 0.07856 0.75 
-0.346598 0.069006 0.75 
-0.339872 0.059432 0.75 
-0.333059 0.049737 0.75 
-0.326073 0.039796 0.75 
-0.318828 0.029488 0.75 
-0.311409 0.018934 0.75 
-0.303818 0.008136 0.75 
-0.296053 -0.002908 0.75 
-0.288546 -0.013582 0.75 
-0.281039 -0.024257 0.75 
-0.273617 -0.034808 0.75 
-0.266368 -0.045114 0.75 
-0.259377 -0.055051 0.75 
-0.252558 -0.064742 0.75 
-0.245825 -0.074311 0.75 
-0.239091 -0.083879 0.75 
-0.232616 -0.093079 0.75 
-0.226313 -0.102033 0.75 
-0.220097 -0.110864 0.75 
-0.21388 -0.119695 0.75 
-0.207921 -0.128158 0.75 
-0.202135 -0.136376 0.75 
-0.194721 -0.146932 0.75 
-0.187714 -0.157041 0.75 
-0.181113 -0.166701 0.75 
-0.17491 -0.175906 0.75 
-0.169098 -0.184651 0.75 
-0.162362 -0.194942 0.75 
-0.156191 -0.204528 0.75 
-0.149691 -0.214793 0.75 
-0.144211 -0.223573 0.75 
-0.138467 -0.232895 0.75 
-0.132462 -0.242762 0.75 
-0.126203 -0.253175 0.75 
-0.119693 -0.264138 0.75 
-0.112936 -0.275652 0.75 
-0.107706 -0.284583 0.75 
-0.102246 -0.293902 0.75 
-0.096634 -0.303478 0.75 
-0.09087 -0.313313 0.75 
-0.084952 -0.323406 0.75 
-0.078805 -0.333887 0.75 
-0.072506 -0.344626 0.75 
-0.066054 -0.355623 0.75 
-0.059449 -0.366878 0.75 
-0.05307 -0.377744 0.75 
-0.046843 -0.388351 0.75 
-0.04069 -0.398828 0.75 
-0.034536 -0.409304 0.75 
-0.02861 -0.419392 0.75 
-0.022834 -0.429221 0.75 
-0.017134 -0.43892 0.75 
-0.011433 -0.448618 0.75 
-0.005959 -0.457928 0.75 
-0.000637 -0.466979 0.75 
0.004605 -0.475904 0.75 
0.009809 -0.48485 0.75 
0.01638 -0.496298 0.75 
0.022583 -0.507266 0.75 
0.028423 -0.517749 0.75 
0.033908 -0.527742 0.75 
0.039047 -0.537242 0.75 
0.043845 -0.546243 0.75 
0.048589 -0.555272 0.75 
0.053556 -0.564862 0.75 
0.05874 -0.575015 0.75 
0.064136 -0.585734 0.75 
0.069739 -0.597019 0.75 
0.075542 -0.608875 0.75 
0.080047 -0.618193 0.75 
0.084642 -0.627801 0.75 
0.089197 -0.637428 0.75 
0.09358 -0.646804 0.75 
0.099103 -0.658793 0.75 
0.104303 -0.67027 0.75 
0.109187 -0.681231 0.75 
0.113762 -0.691673 0.75 
0.118037 -0.70159 0.75 
0.122487 -0.712086 0.75 
0.127106 -0.723162 0.75 
0.131888 -0.734819 0.75 
0.136827 -0.74706 0.75 
0.140651 -0.756677 0.75 
0.144544 -0.76659 0.75 
0.148503 -0.7768 0.75 
0.152526 -0.787306 0.75 
0.156503 -0.797829 0.75 
0.160436 -0.808369 0.75 
0.164271 -0.818786 0.75 
0.167959 -0.828937 0.75 
0.171451 -0.83868 0.75 
0.175016 -0.848715 0.75 
0.178683 -0.859033 0.75 
0.182451 -0.869633 0.75 
0.186371 -0.880657 0.75 
0.190394 -0.891963 0.75 
0.194518 -0.903551 0.75 
0.198744 -0.915421 0.75 
0.203123 -0.927714 0.75 
0.207503 -0.940007 0.75 
0.211834 -0.952158 0.75 
0.216065 -0.964027 0.75 
0.220147 -0.97547 0.75 
0.224229 -0.986914 0.75 
0.228263 -0.998216 0.75 
0.232196 -1.00924 0.75 
0.235979 -1.01983 0.75 
0.239662 -1.03014 0.75 
0.243296 -1.04031 0.75 
0.24693 -1.05048 0.75 
0.250414 -1.06023 0.75 
0.253782 -1.0697 0.75 
0.258033 -1.08188 0.75 
0.26201 -1.09352 0.75 
0.265721 -1.10461 0.75 
0.269174 -1.11516 0.75 
0.272376 -1.12516 0.75 
0.276046 -1.1369 0.75 
0.279364 -1.14781 0.75 
0.282814 -1.15946 0.75 
0.285688 -1.1694 0.75 
0.28867 -1.17994 0.75 
0.291754 -1.19107 0.75 
0.294934 -1.20279 0.75 
0.298204 -1.21512 0.75 
0.301558 -1.22804 0.75 
0.304111 -1.23807 0.75 
0.306763 -1.24854 0.75 
0.309489 -1.2593 0.75 
0.312291 -1.27035 0.75 
0.315167 -1.28169 0.75 
0.318155 -1.29347 0.75 
0.321219 -1.30553 0.75 
0.324358 -1.31789 0.75 
0.327571 -1.33054 0.75 
0.330786 -1.34319 0.75 
0.333929 -1.35554 0.75 
0.336998 -1.36761 0.75 
0.339995 -1.37938 0.75 
0.342992 -1.39116 0.75 
0.345917 -1.40264 0.75 
0.348769 -1.41383 0.75 
0.351547 -1.42473 0.75 
0.354215 -1.4352 0.75 
0.356901 -1.44566 0.75 
0.3596 -1.45596 0.75 
0.362271 -1.46596 0.75 
0.36575 -1.4787 0.75 
0.369148 -1.49083 0.75 
0.372459 -1.50236 0.75 
0.375672 -1.5133 0.75 
0.37878 -1.52364 0.75 
0.381774 -1.5334 0.75 
0.385006 -1.5437 0.75 
0.388482 -1.55456 0.75 
0.392207 -1.56596 0.75 
0.396186 -1.57792 0.75 
0.400426 -1.59042 0.75 
0.403798 -1.6002 0.75 
0.407311 -1.61026 0.75 
0.410961 -1.62058 0.75 
0.414714 -1.63119 0.75 
0.418617 -1.64222 0.75 
0.422618 -1.65353 0.75 
0.426718 -1.66513 0.75 
0.430916 -1.67701 0.75 
0.435263 -1.68931 0.75 
0.439609 -1.70162 0.75 
0.443953 -1.71392 0.75 
0.448296 -1.72623 0.75 
0.452488 -1.73811 0.75 
0.456579 -1.74971 0.75 
0.460569 -1.76103 0.75 
0.464458 -1.77206 0.75 
0.468346 -1.7831 0.75 
0.472134 -1.79385 0.75 
0.475821 -1.80432 0.75 
0.479408 -1.81451 0.75 
0.482993 -1.82469 0.75 
0.486479 -1.8346 0.75 
0.489864 -1.84422 0.75 
0.494243 -1.85667 0.75 
0.498567 -1.86899 0.75 
0.50263 -1.88075 0.75 
0.506425 -1.89198 0.75 
0.509961 -1.90266 0.75 
0.513244 -1.91279 0.75 
0.516284 -1.92237 0.75 
0.519923 -1.93412 0.75 
0.522964 -1.94417 0.75 
0.526117 -1.95481 0.75 
0.529377 -1.96605 0.75 
0.532737 -1.97788 0.75 
0.536192 -1.99031 0.75 
0.538838 -2.00001 0.75 
0.541522 -2.01 0.75 
0.544279 -2.02045 0.75 
0.547068 -2.03119 0.75 
0.54985 -2.04209 0.75 
0.552587 -2.053 0.75 
0.55542 -2.06435 0.75 
0.558328 -2.076 0.75 
0.561312 -2.08793 0.75 
0.564371 -2.10015 0.75 
0.567543 -2.11281 0.75 
0.57079 -2.12576 0.75 
0.57404 -2.13871 0.75 
0.57722 -2.15136 0.75 
0.580294 -2.16358 0.75 
0.583296 -2.17551 0.75 
0.586264 -2.18729 0.75 
0.589235 -2.19907 0.75 
0.592097 -2.21042 0.75 
0.594888 -2.22147 0.75 
0.597645 -2.23238 0.75 
0.600403 -2.24329 0.75 
0.603053 -2.25376 0.75 
0.605631 -2.26393 0.75 
0.608142 -2.27382 0.75 
0.611421 -2.28645 0.75 
0.614629 -2.29848 0.75 
0.617757 -2.30991 0.75 
0.620797 -2.32074 0.75 
0.62374 -2.33098 0.75 
0.626577 -2.34062 0.75 
0.629957 -2.35182 0.75 
0.633421 -2.36299 0.75 
0.63646 -2.37258 0.75 
0.639737 -2.38271 0.75 
0.643258 -2.39339 0.75 
0.647029 -2.40463 0.75 
0.651054 -2.41641 0.75 
0.655196 -2.42831 0.75 
0.659263 -2.43976 0.75 
0.663196 -2.45062 0.75 
0.666988 -2.46089 0.75 
0.670949 -2.47142 0.75 
0.675187 -2.48249 0.75 
0.679707 -2.49409 0.75 
0.684516 -2.50622 0.75 
0.688323 -2.51568 0.75 
0.692284 -2.5254 0.75 
0.696401 -2.53539 0.75 
0.700734 -2.54577 0.75 
0.705229 -2.55641 0.75 
0.709828 -2.56717 0.75 
0.714474 -2.57791 0.75 
0.719167 -2.58862 0.75 
0.723786 -2.59905 0.75 
0.728327 -2.60917 0.75 
0.73279 -2.61901 0.75 
0.737296 -2.62882 0.75 
0.741718 -2.63835 0.75 
0.746114 -2.64772 0.75 
0.750513 -2.65709 0.75 
0.755102 -2.66686 0.75 
0.759818 -2.67691 0.75 
0.764659 -2.68723 0.75 
0.769627 -2.69782 0.75 
0.774784 -2.70883 0.75 
0.780068 -2.7201 0.75 
0.785477 -2.73165 0.75 
0.791013 -2.74346 0.75 
0.796356 -2.75487 0.75 
0.801572 -2.76601 0.75 
0.806722 -2.77702 0.75 
0.811871 -2.78802 0.75 
0.816829 -2.79862 0.75 
0.821658 -2.80895 0.75 
0.826424 -2.81914 0.75 
0.832776 -2.83273 0.75 
0.837348 -2.84251 0.75 
0.84173 -2.85189 0.75 
0.84611 -2.86126 0.75 
0.850432 -2.8705 0.75 
0.856022 -2.88229 0.75 
0.861429 -2.89351 0.75 
0.866644 -2.90415 0.75 
0.87166 -2.91422 0.75 
0.876469 -2.92372 0.75 
0.881061 -2.93266 0.75 
0.886757 -2.94356 0.75 
0.89168 -2.95284 0.75 
0.896942 -2.96261 0.75 
0.902547 -2.97288 0.75 
0.908499 -2.98365 0.75 
0.914805 -2.9949 0.75 
0.91976 -3.00364 0.75 
0.9249 -3.01263 0.75 
0.930303 -3.02198 0.75 
0.935881 -3.03157 0.75 
0.94161 -3.04143 0.75 
0.947489 -3.05155 0.75 
0.953593 -3.06205 0.75 
0.959848 -3.07282 0.75 
0.966252 -3.08384 0.75 
0.972807 -3.09513 0.75 
0.979587 -3.1068 0.75 
0.986216 -3.11822 0.75 
0.992693 -3.12937 0.75 
0.999019 -3.14027 0.75 
1.00512 -3.15078 0.75 
1.01122 -3.16128 0.75 
1.01724 -3.17166 0.75 
1.02312 -3.18178 0.75 
1.02876 -3.19151 0.75 
1.03426 -3.20098 0.75 
1.03968 -3.21033 0.75 
1.04509 -3.21967 0.75 
1.05029 -3.22862 0.75 
1.05548 -3.23757 0.75 
1.0606 -3.24639 0.75 
1.06721 -3.25765 0.75 
1.07359 -3.26834 0.75 
1.07972 -3.27848 0.75 
1.08561 -3.28807 0.75 
1.09124 -3.29711 0.75 
1.09668 -3.30574 0.75 
1.10225 -3.31446 0.75 
1.1082 -3.32365 0.75 
1.11454 -3.33331 0.75 
1.12126 -3.34343 0.75 
1.12837 -3.35401 0.75 
1.13588 -3.36505 0.75 
1.14174 -3.37358 0.75 
1.1479 -3.38245 0.75 
1.15409 -3.3913 0.75 
1.16032 -3.40012 0.75 
1.16658 -3.40892 0.75 
1.17263 -3.41732 0.75 
1.17853 -3.42545 0.75 
1.18617 -3.43585 0.75 
1.19352 -3.44571 0.75 
1.20092 -3.45553 0.75 
1.20857 -3.46555 0.75 
1.21608 -3.47529 0.75 
1.22346 -3.48475 0.75 
1.23071 -3.49394 0.75 
1.23782 -3.50285 0.75 
1.24478 -3.5115 0.75 
1.25159 -3.51988 0.75 
1.25825 -3.52799 0.75 
1.26476 -3.53585 0.75 
1.27264 -3.54528 0.75 
1.28039 -3.55445 0.75 
1.28769 -3.56301 0.75 
1.29504 -3.57153 0.75 
1.30213 -3.57967 0.75 
1.30907 -3.58756 0.75 
1.31684 -3.5963 0.75 
1.32466 -3.60501 0.75 
1.33192 -3.61301 0.75 
1.33921 -3.62097 0.75 
1.34705 -3.62945 0.75 
1.35494 -3.63789 0.75 
1.36246 -3.64585 0.75 
1.37001 -3.65378 0.75 
1.37698 -3.66102 0.75 
1.38451 -3.66876 0.75 
1.39207 -3.67647 0.75 
1.39936 -3.68382 0.75 
1.40699 -3.69146 0.75 
1.41445 -3.69885 0.75 
1.42194 -3.70621 0.75 
1.42958 -3.71363 0.75 
1.43714 -3.72091 0.75 
1.44441 -3.72785 0.75 
1.45204 -3.73507 0.75 
1.45938 -3.74194 0.75 
