ply
format ascii 1.0
element vertex 1339
property float x
property float y
property float z
end_header
0.0105 0 0.75 
0.02145 0 0.75 
0.03285 0 0.75 
0.0429 0 0.75 
0.05445 0 0.75 
0.065025 0 0.75 
0.0765 0 0.75 
0.089025 0 0.75 
0.099675 0 0.75 
0.110925 0 0.75 
0.122775 0 0.75 
0.135225 0 0.75 
0.148275 0 0.75 
0.1584 0 0.75 
0.168975 0 0.75 
0.17985 0 0.75 
0.191025 0 0.75 
0.2025 0 0.75 
0.214425 0 0.75 
0.22635 0 0.75 
0.238275 0 0.75 
0.2502 0 0.75 
0.261675 0 0.75 
0.27285 0 0.75 
0.283875 0 0.75 
0.2949 0 0.75 
0.305475 3.3e-05 0.75 
0.315749 0.000114 0.75 
0.328948 0.000291 0.75 
0.341546 0.000538 0.75 
0.353542 0.000848 0.75 
0.364936 0.001213 0.75 
0.376328 0.001647 0.75 
0.388316 0.002175 0.75 
0.4009 0.002804 0.75 
0.41408 0.003539 0.75 
0.424336 0.004163 0.75 
0.434888 0.004851 0.75 
0.445887 0.005616 0.75 
0.457181 0.00645 0.75 
0.468621 0.007346 0.75 
0.480057 0.008291 0.75 
0.491489 0.009286 0.75 
0.502617 0.010303 0.75 
0.513443 0.011341 0.75 
0.523965 0.012396 0.75 
0.534482 0.0135 0.75 
0.544696 0.014621 0.75 
0.557809 0.016133 0.75 
0.570317 0.017654 0.75 
0.582219 0.019177 0.75 
0.593518 0.020694 0.75 
0.604807 0.022279 0.75 
0.616681 0.024019 0.75 
0.629137 0.025918 0.75 
0.642174 0.027984 0.75 
0.652314 0.029644 0.75 
0.662743 0.031396 0.75 
0.673607 0.033271 0.75 
0.684759 0.035245 0.75 
0.696049 0.037294 0.75 
0.707331 0.039392 0.75 
0.718603 0.041539 0.75 
0.729578 0.043644 0.75 
0.740268 0.045643 0.75 
0.750672 0.047537 0.75 
0.760642 0.049303 0.75 
0.773504 0.051509 0.75 
0.785787 0.053537 0.75 
0.797491 0.055396 0.75 
0.808612 0.057093 0.75 
0.82004 0.058766 0.75 
0.832072 0.060454 0.75 
0.844709 0.062152 0.75 
0.85795 0.063853 0.75 
0.868297 0.065129 0.75 
0.878946 0.066395 0.75 
0.8899 0.06765 0.75 
0.901306 0.068907 0.75 
0.912717 0.070114 0.75 
0.923984 0.071256 0.75 
0.934958 0.07232 0.75 
0.945488 0.073295 0.75 
0.956022 0.074223 0.75 
0.96641 0.075104 0.75 
0.976495 0.075998 0.75 
0.989338 0.077207 0.75 
1.00158 0.078437 0.75 
1.01321 0.079678 0.75 
1.02424 0.080924 0.75 
1.03526 0.082235 0.75 
1.04687 0.083686 0.75 
1.05907 0.085283 0.75 
1.07185 0.087032 0.75 
1.08187 0.088455 0.75 
1.09219 0.089965 0.75 
1.10279 0.091563 0.75 
1.11369 0.093252 0.75 
1.12502 0.095059 0.75 
1.13634 0.096913 0.75 
1.14766 0.098817 0.75 
1.15897 0.100769 0.75 
1.16982 0.102691 0.75 
1.18038 0.104606 0.75 
1.19077 0.10654 0.75 
1.20116 0.108519 0.75 
1.21199 0.110596 0.75 
1.22311 0.112726 0.75 
1.23453 0.11491 0.75 
1.24624 0.117147 0.75 
1.2584 0.119466 0.75 
1.27085 0.121838 0.75 
1.2836 0.124263 0.75 
1.29664 0.126741 0.75 
1.30924 0.129133 0.75 
1.32154 0.131466 0.75 
1.33355 0.13374 0.75 
1.34527 0.135957 0.75 
1.35699 0.138171 0.75 
1.36841 0.140327 0.75 
1.37954 0.142426 0.75 
1.39038 0.144467 0.75 
1.40121 0.146506 0.75 
1.41175 0.148487 0.75 
1.422 0.150412 0.75 
1.43195 0.15228 0.75 
1.44234 0.15423 0.75 
1.45303 0.156236 0.75 
1.46402 0.158297 0.75 
1.47529 0.160413 0.75 
1.48701 0.162613 0.75 
1.49903 0.164867 0.75 
1.51134 0.167178 0.75 
1.52394 0.169543 0.75 
1.53655 0.171909 0.75 
1.54915 0.174274 0.75 
1.56161 0.176612 0.75 
1.57377 0.178895 0.75 
1.58549 0.181095 0.75 
1.59692 0.18324 0.75 
1.6082 0.185356 0.75 
1.61948 0.187473 0.75 
1.63031 0.189507 0.75 
1.64085 0.191486 0.75 
1.65124 0.193437 0.75 
1.66164 0.195388 0.75 
1.6716 0.197224 0.75 
1.68444 0.199521 0.75 
1.69671 0.201635 0.75 
1.7084 0.203574 0.75 
1.71951 0.205348 0.75 
1.73048 0.207031 0.75 
1.74191 0.208715 0.75 
1.75394 0.210415 0.75 
1.76657 0.212126 0.75 
1.77981 0.213841 0.75 
1.79016 0.215129 0.75 
1.80081 0.216409 0.75 
1.81176 0.217678 0.75 
1.82316 0.21895 0.75 
1.83457 0.220173 0.75 
1.84599 0.221348 0.75 
1.85741 0.222474 0.75 
1.86838 0.223508 0.75 
1.87907 0.224468 0.75 
1.88975 0.225386 0.75 
1.90074 0.226327 0.75 
1.91217 0.227307 0.75 
1.9239 0.228315 0.75 
1.93593 0.22935 0.75 
1.94826 0.230411 0.75 
1.96104 0.231513 0.75 
1.97411 0.232642 0.75 
1.98719 0.233773 0.75 
1.99997 0.234879 0.75 
2.0123 0.235948 0.75 
2.02463 0.237018 0.75 
2.0368 0.238076 0.75 
2.04869 0.239109 0.75 
2.06012 0.240105 0.75 
2.07155 0.241101 0.75 
2.08283 0.242086 0.75 
2.09382 0.243045 0.75 
2.10435 0.243966 0.75 
2.11489 0.244888 0.75 
2.12863 0.246092 0.75 
2.14178 0.247246 0.75 
2.15463 0.248374 0.75 
2.16778 0.249529 0.75 
2.17802 0.250429 0.75 
2.18855 0.251354 0.75 
2.19953 0.252319 0.75 
2.21082 0.25331 0.75 
2.2224 0.254328 0.75 
2.23428 0.255372 0.75 
2.2466 0.256454 0.75 
2.25923 0.257564 0.75 
2.27201 0.258686 0.75 
2.28478 0.259808 0.75 
2.29711 0.260891 0.75 
2.30914 0.261947 0.75 
2.32087 0.262978 0.75 
2.3323 0.263982 0.75 
2.34373 0.264986 0.75 
2.35486 0.265963 0.75 
2.36569 0.266915 0.75 
2.37623 0.26784 0.75 
2.38631 0.268759 0.75 
2.3993 0.27002 0.75 
2.41168 0.271304 0.75 
2.42346 0.272604 0.75 
2.43464 0.27391 0.75 
2.44521 0.275214 0.75 
2.45517 0.276506 0.75 
2.46684 0.278101 0.75 
2.47924 0.27989 0.75 
2.48977 0.281479 0.75 
2.50088 0.283222 0.75 
2.51258 0.285122 0.75 
2.52485 0.287188 0.75 
2.53771 0.289423 0.75 
2.54768 0.291204 0.75 
2.55809 0.293078 0.75 
2.56879 0.295004 0.75 
2.57979 0.296981 0.75 
2.59108 0.299011 0.75 
2.60282 0.301118 0.75 
2.61485 0.303278 0.75 
2.62718 0.305489 0.75 
2.63981 0.307751 0.75 
2.65243 0.310013 0.75 
2.66505 0.312273 0.75 
2.67753 0.314505 0.75 
2.68971 0.316683 0.75 
2.70145 0.318782 0.75 
2.71289 0.320826 0.75 
2.72419 0.322843 0.75 
2.73549 0.324859 0.75 
2.74634 0.326795 0.75 
2.7569 0.328677 0.75 
2.76731 0.330533 0.75 
2.77772 0.332387 0.75 
2.78769 0.334162 0.75 
2.79795 0.335989 0.75 
2.80851 0.337869 0.75 
2.81937 0.339801 0.75 
2.83066 0.341813 0.75 
2.84226 0.343876 0.75 
2.85415 0.345993 0.75 
2.86633 0.348162 0.75 
2.87895 0.35041 0.75 
2.89158 0.352658 0.75 
2.90421 0.354906 0.75 
2.91683 0.357154 0.75 
2.92902 0.359323 0.75 
2.94091 0.361439 0.75 
2.9525 0.363503 0.75 
2.9638 0.365515 0.75 
2.97509 0.367526 0.75 
2.98609 0.369485 0.75 
2.9968 0.371391 0.75 
3.00721 0.373245 0.75 
3.01762 0.375099 0.75 
3.02774 0.3769 0.75 
3.03771 0.378675 0.75 
3.04768 0.38045 0.75 
3.05809 0.382304 0.75 
3.06879 0.38421 0.75 
3.0798 0.386169 0.75 
3.09109 0.388181 0.75 
3.10283 0.390271 0.75 
3.11487 0.392414 0.75 
3.1272 0.39461 0.75 
3.13983 0.396858 0.75 
3.15245 0.399106 0.75 
3.16479 0.401301 0.75 
3.17682 0.403444 0.75 
3.18856 0.405535 0.75 
3.2003 0.407625 0.75 
3.21175 0.409663 0.75 
3.2229 0.411648 0.75 
3.23375 0.413581 0.75 
3.24461 0.415514 0.75 
3.25516 0.417394 0.75 
3.26572 0.419274 0.75 
3.27658 0.421206 0.75 
3.28787 0.423218 0.75 
3.29947 0.425282 0.75 
3.31135 0.427399 0.75 
3.32354 0.429568 0.75 
3.33616 0.431816 0.75 
3.34909 0.434117 0.75 
3.36201 0.436418 0.75 
3.37463 0.438666 0.75 
3.38682 0.440835 0.75 
3.39871 0.442952 0.75 
3.41045 0.445042 0.75 
3.42219 0.447133 0.75 
3.43348 0.449144 0.75 
3.44448 0.451103 0.75 
3.45534 0.453036 0.75 
3.46619 0.454968 0.75 
3.4766 0.456822 0.75 
3.48672 0.458623 0.75 
3.49971 0.460953 0.75 
3.5121 0.463254 0.75 
3.52389 0.465524 0.75 
3.53506 0.467753 0.75 
3.54564 0.469932 0.75 
3.55562 0.472053 0.75 
3.56727 0.474613 0.75 
3.5786 0.477195 0.75 
3.59079 0.480065 0.75 
3.60114 0.482573 0.75 
3.61206 0.485283 0.75 
3.6234 0.488164 0.75 
3.63458 0.491077 0.75 
3.64516 0.493905 0.75 
3.65514 0.49664 0.75 
3.66482 0.499355 0.75 
3.67505 0.502293 0.75 
3.68585 0.505458 0.75 
3.6972 0.508858 0.75 
3.70911 0.512497 0.75 
3.72156 0.516382 0.75 
3.73122 0.519443 0.75 
3.74128 0.522682 0.75 
3.75162 0.526057 0.75 
3.76223 0.529568 0.75 
3.77311 0.533218 0.75 
3.7844 0.537059 0.75 
3.79553 0.540899 0.75 
3.80622 0.544636 0.75 
3.81661 0.548319 0.75 
3.82699 0.552049 0.75 
3.83706 0.555725 0.75 
3.84684 0.559345 0.75 
3.85632 0.562906 0.75 
3.86837 0.567509 0.75 
3.87983 0.57197 0.75 
3.89071 0.576279 0.75 
3.901 0.580431 0.75 
3.91182 0.584872 0.75 
3.92318 0.589608 0.75 
3.93505 0.594644 0.75 
3.94435 0.598645 0.75 
3.95391 0.602805 0.75 
3.96373 0.607129 0.75 
3.9738 0.611616 0.75 
3.98426 0.616332 0.75 
3.99443 0.620969 0.75 
4.00458 0.625646 0.75 
4.015 0.630451 0.75 
4.02583 0.635444 0.75 
4.03693 0.640561 0.75 
4.0483 0.645802 0.75 
4.05995 0.651168 0.75 
4.07201 0.65672 0.75 
4.08407 0.66227 0.75 
4.09599 0.667757 0.75 
4.10764 0.673117 0.75 
4.11889 0.678288 0.75 
4.13013 0.683457 0.75 
4.14124 0.688563 0.75 
4.15207 0.693543 0.75 
4.1625 0.698333 0.75 
4.17266 0.702997 0.75 
4.18268 0.707598 0.75 
4.1927 0.712198 0.75 
4.20231 0.71661 0.75 
4.21192 0.72102 0.75 
4.22139 0.725367 0.75 
4.2306 0.729589 0.75 
4.24232 0.734966 0.75 
4.25153 0.739187 0.75 
4.261 0.743532 0.75 
4.27075 0.748003 0.75 
4.28077 0.752599 0.75 
4.2912 0.757382 0.75 
4.30163 0.762165 0.75 
4.31193 0.766886 0.75 
4.32195 0.771482 0.75 
4.33197 0.776078 0.75 
4.34172 0.780549 0.75 
4.35119 0.784894 0.75 
4.3604 0.789115 0.75 
4.3696 0.793336 0.75 
4.38146 0.798776 0.75 
4.39319 0.804154 0.75 
4.40451 0.809344 0.75 
4.41569 0.814472 0.75 
4.42646 0.819412 0.75 
4.4371 0.824289 0.75 
4.44732 0.828979 0.75 
4.45741 0.833607 0.75 
4.46709 0.838047 0.75 
4.47664 0.842424 0.75 
4.48577 0.846614 0.75 
4.49702 0.851773 0.75 
4.50759 0.856619 0.75 
4.51788 0.861341 0.75 
4.52777 0.865874 0.75 
4.53765 0.870408 0.75 
4.54685 0.874629 0.75 
4.55606 0.87885 0.75 
4.56656 0.883665 0.75 
4.57651 0.888229 0.75 
4.58592 0.892544 0.75 
4.59505 0.896734 0.75 
4.60507 0.90133 0.75 
4.61509 0.905926 0.75 
4.62545 0.910679 0.75 
4.63581 0.915432 0.75 
4.64508 0.919684 0.75 
4.65435 0.923937 0.75 
4.66356 0.928157 0.75 
4.67276 0.932378 0.75 
4.6819 0.936568 0.75 
4.69165 0.941038 0.75 
4.70133 0.945478 0.75 
4.71108 0.949949 0.75 
4.72076 0.954389 0.75 
4.72997 0.95861 0.75 
4.73951 0.962987 0.75 
4.74899 0.967334 0.75 
4.75887 0.971867 0.75 
4.76821 0.976151 0.75 
4.77735 0.980341 0.75 
4.76794 0.976026 0.75 
4.7586 0.971742 0.75 
4.7494 0.967521 0.75 
4.74027 0.963331 0.75 
4.72977 0.958516 0.75 
4.72016 0.954108 0.75 
4.70972 0.949324 0.75 
4.69834 0.944102 0.75 
4.68866 0.939662 0.75 
4.67843 0.934972 0.75 
4.66766 0.930032 0.75 
4.65634 0.924841 0.75 
4.64448 0.919401 0.75 
4.63528 0.91518 0.75 
4.62567 0.910771 0.75 
4.61578 0.906237 0.75 
4.6059 0.901698 0.75 
4.59631 0.897241 0.75 
4.58715 0.892928 0.75 
4.57538 0.887301 0.75 
4.56418 0.881859 0.75 
4.55356 0.87661 0.75 
4.5435 0.871562 0.75 
4.53401 0.866723 0.75 
4.52509 0.862101 0.75 
4.51467 0.856614 0.75 
4.50363 0.850695 0.75 
4.49428 0.845601 0.75 
4.48443 0.840164 0.75 
4.47409 0.834379 0.75 
4.46338 0.828327 0.75 
4.45276 0.822429 0.75 
4.4426 0.816928 0.75 
4.43292 0.81181 0.75 
4.42373 0.80706 0.75 
4.41294 0.801629 0.75 
4.40291 0.796713 0.75 
4.39363 0.792287 0.75 
4.3837 0.787676 0.75 
4.37351 0.783088 0.75 
4.36375 0.778835 0.75 
4.35352 0.774526 0.75 
4.34276 0.770121 0.75 
4.33232 0.76594 0.75 
4.3224 0.762071 0.75 
4.3116 0.757974 0.75 
4.30168 0.754301 0.75 
4.29089 0.750389 0.75 
4.27909 0.746199 0.75 
4.26903 0.742694 0.75 
4.25839 0.739048 0.75 
4.24716 0.735264 0.75 
4.23534 0.731348 0.75 
4.22293 0.727306 0.75 
4.21329 0.724212 0.75 
4.20321 0.721018 0.75 
4.19283 0.717773 0.75 
4.18215 0.714479 0.75 
4.17118 0.711129 0.75 
4.15976 0.70768 0.75 
4.14805 0.704176 0.75 
4.13604 0.700615 0.75 
4.12374 0.696997 0.75 
4.11099 0.693279 0.75 
4.09824 0.689584 0.75 
4.08563 0.685953 0.75 
4.0733 0.682423 0.75 
4.0614 0.679032 0.75 
4.0495 0.675655 0.75 
4.03773 0.672329 0.75 
4.02625 0.669094 0.75 
4.01521 0.665987 0.75 
4.00445 0.662966 0.75 
3.99383 0.659989 0.75 
3.98322 0.657013 0.75 
3.97303 0.654157 0.75 
3.96285 0.6513 0.75 
3.95253 0.648402 0.75 
3.9419 0.645452 0.75 
3.93084 0.642414 0.75 
3.91947 0.639327 0.75 
3.90781 0.636191 0.75 
3.89586 0.633005 0.75 
3.88346 0.62973 0.75 
3.87076 0.626404 0.75 
3.85806 0.623101 0.75 
3.84564 0.619893 0.75 
3.83365 0.616814 0.75 
3.82166 0.613749 0.75 
3.80982 0.610735 0.75 
3.79826 0.607804 0.75 
3.78713 0.604992 0.75 
3.7763 0.602259 0.75 
3.7656 0.599567 0.75 
3.75491 0.596878 0.75 
3.74466 0.594298 0.75 
3.73469 0.591791 0.75 
3.72487 0.589317 0.75 
3.71506 0.58684 0.75 
3.70524 0.584381 0.75 
3.69512 0.58188 0.75 
3.6847 0.579337 0.75 
3.67398 0.57675 0.75 
3.66282 0.574085 0.75 
3.65136 0.571377 0.75 
3.6396 0.568624 0.75 
3.62755 0.565825 0.75 
3.61505 0.562947 0.75 
3.60255 0.560088 0.75 
3.59019 0.557279 0.75 
3.57812 0.554551 0.75 
3.56648 0.551933 0.75 
3.55485 0.549324 0.75 
3.54335 0.546756 0.75 
3.53216 0.544258 0.75 
3.52139 0.541861 0.75 
3.51063 0.539466 0.75 
3.50002 0.537103 0.75 
3.4897 0.534803 0.75 
3.47981 0.532598 0.75 
3.46993 0.530389 0.75 
3.4599 0.528146 0.75 
3.44958 0.525865 0.75 
3.43881 0.523519 0.75 
3.42773 0.521139 0.75 
3.41636 0.518725 0.75 
3.40469 0.516277 0.75 
3.39257 0.513762 0.75 
3.38016 0.511212 0.75 
3.36759 0.508655 0.75 
3.35502 0.506118 0.75 
3.34289 0.503688 0.75 
3.33075 0.501273 0.75 
3.31876 0.498899 0.75 
3.30706 0.496594 0.75 
3.2958 0.494384 0.75 
3.28483 0.492238 0.75 
3.27401 0.490125 0.75 
3.26319 0.488014 0.75 
3.25281 0.48599 0.75 
3.24243 0.483964 0.75 
3.2322 0.481965 0.75 
3.22226 0.480019 0.75 
3.2096 0.477534 0.75 
3.19967 0.475581 0.75 
3.18944 0.47357 0.75 
3.17892 0.471502 0.75 
3.1681 0.469376 0.75 
3.15684 0.467163 0.75 
3.14528 0.464893 0.75 
3.13343 0.462565 0.75 
3.12129 0.460179 0.75 
3.10871 0.457707 0.75 
3.09612 0.455234 0.75 
3.08369 0.452791 0.75 
3.07154 0.450406 0.75 
3.05984 0.448107 0.75 
3.04814 0.445809 0.75 
3.03659 0.443539 0.75 
3.02533 0.441328 0.75 
3.01451 0.439203 0.75 
3.00369 0.437079 0.75 
2.99302 0.434978 0.75 
2.98265 0.432889 0.75 
2.97274 0.430841 0.75 
2.95997 0.42813 0.75 
2.94781 0.425465 0.75 
2.93625 0.422855 0.75 
2.92529 0.420309 0.75 
2.91493 0.417834 0.75 
2.90517 0.415439 0.75 
2.89514 0.412912 0.75 
2.88453 0.410177 0.75 
2.87337 0.407228 0.75 
2.86164 0.404059 0.75 
2.84935 0.400664 0.75 
2.83649 0.397067 0.75 
2.82645 0.394261 0.75 
2.81612 0.391376 0.75 
2.8055 0.388414 0.75 
2.79445 0.385333 0.75 
2.7831 0.382174 0.75 
2.77147 0.378937 0.75 
2.75955 0.375622 0.75 
2.74719 0.372189 0.75 
2.73483 0.368759 0.75 
2.72262 0.365372 0.75 
2.7107 0.362067 0.75 
2.6992 0.358884 0.75 
2.688 0.355783 0.75 
2.67694 0.352725 0.75 
2.66588 0.349668 0.75 
2.65525 0.346733 0.75 
2.64491 0.343879 0.75 
2.63472 0.341067 0.75 
2.62452 0.338257 0.75 
2.61476 0.335567 0.75 
2.60217 0.332133 0.75 
2.59014 0.328937 0.75 
2.57867 0.32597 0.75 
2.56776 0.323224 0.75 
2.55741 0.320689 0.75 
2.54764 0.318359 0.75 
2.53616 0.315708 0.75 
2.52467 0.313143 0.75 
2.51485 0.311018 0.75 
2.50443 0.308825 0.75 
2.49341 0.30657 0.75 
2.48179 0.304259 0.75 
2.46956 0.301898 0.75 
2.45673 0.299492 0.75 
2.44677 0.297673 0.75 
2.43636 0.295815 0.75 
2.42565 0.293947 0.75 
2.41478 0.292092 0.75 
2.40391 0.29024 0.75 
2.3926 0.288312 0.75 
2.381 0.286332 0.75 
2.36909 0.2843 0.75 
2.35689 0.282217 0.75 
2.34425 0.280056 0.75 
2.33132 0.277843 0.75 
2.31838 0.275629 0.75 
2.30574 0.273464 0.75 
2.29354 0.271374 0.75 
2.28134 0.269283 0.75 
2.26929 0.267216 0.75 
2.25754 0.265199 0.75 
2.24623 0.263257 0.75 
2.23492 0.261314 0.75 
2.22376 0.259396 0.75 
2.2129 0.257527 0.75 
2.20247 0.255734 0.75 
2.19205 0.25394 0.75 
2.18178 0.252165 0.75 
2.17181 0.250398 0.75 
2.15912 0.248075 0.75 
2.14703 0.245782 0.75 
2.13556 0.243528 0.75 
2.12468 0.241322 0.75 
2.1144 0.239171 0.75 
2.10216 0.236522 0.75 
2.09176 0.2342 0.75 
2.0808 0.231683 0.75 
2.06926 0.228967 0.75 
2.05716 0.226045 0.75 
2.04449 0.222911 0.75 
2.03468 0.220431 0.75 
2.02443 0.217799 0.75 
2.01391 0.215048 0.75 
2.00326 0.212215 0.75 
1.99262 0.209332 0.75 
1.98242 0.206519 0.75 
1.97253 0.203738 0.75 
1.95984 0.200096 0.75 
1.94775 0.196544 0.75 
1.93626 0.19309 0.75 
1.92537 0.189742 0.75 
1.91449 0.186327 0.75 
1.90306 0.182664 0.75 
1.89109 0.178747 0.75 
1.87856 0.174571 0.75 
1.86883 0.171271 0.75 
1.85883 0.167831 0.75 
1.84842 0.1642 0.75 
1.83775 0.160424 0.75 
1.82709 0.156601 0.75 
1.81673 0.152835 0.75 
1.80638 0.149023 0.75 
1.79633 0.145269 0.75 
1.78658 0.141575 0.75 
1.77713 0.137941 0.75 
1.76512 0.133246 0.75 
1.75369 0.128698 0.75 
1.74285 0.124305 0.75 
1.73258 0.120074 0.75 
1.72179 0.115549 0.75 
1.71048 0.110726 0.75 
1.69864 0.105597 0.75 
1.68937 0.101525 0.75 
1.67985 0.09729 0.75 
1.67007 0.092891 0.75 
1.66003 0.088326 0.75 
1.64961 0.083528 0.75 
1.6392 0.078685 0.75 
1.62896 0.073861 0.75 
1.61901 0.069117 0.75 
1.60948 0.064522 0.75 
1.60025 0.060013 0.75 
1.58842 0.054156 0.75 
1.57716 0.048494 0.75 
1.56648 0.043037 0.75 
1.55636 0.03779 0.75 
1.54627 0.03248 0.75 
1.53568 0.026829 0.75 
1.5246 0.020829 0.75 
1.51303 0.014477 0.75 
1.50405 0.009486 0.75 
1.49483 0.00431 0.75 
1.48524 -0.001127 0.75 
1.47541 -0.006756 0.75 
1.46561 -0.012427 0.75 
1.45609 -0.01799 0.75 
1.44619 -0.023794 0.75 
1.43603 -0.02975 0.75 
1.42561 -0.035857 0.75 
1.41494 -0.042116 0.75 
1.40388 -0.048603 0.75 
1.39255 -0.055242 0.75 
1.3811 -0.061956 0.75 
1.36965 -0.068671 0.75 
1.35859 -0.075158 0.75 
1.34752 -0.081644 0.75 
1.33659 -0.088055 0.75 
1.32591 -0.094315 0.75 
1.31563 -0.100346 0.75 
1.3056 -0.106226 0.75 
1.2957 -0.11203 0.75 
1.2858 -0.117834 0.75 
1.27629 -0.123411 0.75 
1.26704 -0.128835 0.75 
1.25792 -0.134184 0.75 
1.24879 -0.139533 0.75 
1.24006 -0.144654 0.75 
1.23133 -0.149775 0.75 
1.21994 -0.156452 0.75 
1.20909 -0.162867 0.75 
1.19889 -0.169177 0.75 
1.18932 -0.175373 0.75 
1.18038 -0.181432 0.75 
1.17206 -0.18733 0.75 
1.16249 -0.194452 0.75 
1.15383 -0.201266 0.75 
1.14472 -0.208854 0.75 
1.13676 -0.215927 0.75 
1.12909 -0.223205 0.75 
1.12138 -0.231083 0.75 
1.11442 -0.238842 0.75 
1.10806 -0.247189 0.75 
1.10225 -0.255484 0.75 
1.09643 -0.263858 0.75 
1.09021 -0.272783 0.75 
1.08404 -0.281644 0.75 
1.07709 -0.29161 0.75 
1.0707 -0.300776 0.75 
1.06379 -0.310678 0.75 
1.05786 -0.319164 0.75 
1.05159 -0.328141 0.75 
1.04498 -0.337609 0.75 
1.03802 -0.347568 0.75 
1.03071 -0.358018 0.75 
1.02306 -0.368959 0.75 
1.01556 -0.379634 0.75 
1.00833 -0.389771 0.75 
1.00138 -0.399374 0.75 
0.994735 -0.408447 0.75 
0.988385 -0.416997 0.75 
0.982342 -0.425027 0.75 
0.975197 -0.434387 0.75 
0.967982 -0.443693 0.75 
0.961773 -0.451595 0.75 
0.955145 -0.459931 0.75 
0.948095 -0.468698 0.75 
0.940617 -0.477891 0.75 
0.932709 -0.487506 0.75 
0.924364 -0.49754 0.75 
0.917854 -0.505294 0.75 
0.911021 -0.513365 0.75 
0.903973 -0.521647 0.75 
0.896731 -0.530158 0.75 
0.889296 -0.538898 0.75 
0.88157 -0.547982 0.75 
0.873651 -0.557296 0.75 
0.865539 -0.566839 0.75 
0.857233 -0.576611 0.75 
0.848637 -0.586727 0.75 
0.840237 -0.596615 0.75 
0.832031 -0.606276 0.75 
0.824021 -0.615709 0.75 
0.816011 -0.625142 0.75 
0.808197 -0.634347 0.75 
0.800578 -0.643325 0.75 
0.793153 -0.652074 0.75 
0.785729 -0.660824 0.75 
0.7785 -0.669346 0.75 
0.771466 -0.67764 0.75 
0.764626 -0.685705 0.75 
0.757787 -0.693771 0.75 
0.751143 -0.701608 0.75 
0.742646 -0.71171 0.75 
0.734726 -0.721509 0.75 
0.727381 -0.730998 0.75 
0.720593 -0.740157 0.75 
0.714345 -0.748966 0.75 
0.70862 -0.757407 0.75 
0.702158 -0.767429 0.75 
0.696413 -0.776839 0.75 
0.690491 -0.787103 0.75 
0.685402 -0.796458 0.75 
0.68058 -0.80587 0.75 
0.675822 -0.815815 0.75 
0.671617 -0.825353 0.75 
0.667822 -0.835142 0.75 
0.664408 -0.844674 0.75 
0.661046 -0.854304 0.75 
0.657515 -0.86459 0.75 
0.65404 -0.874815 0.75 
0.650149 -0.886325 0.75 
0.646578 -0.896915 0.75 
0.642722 -0.908358 0.75 
0.639414 -0.918164 0.75 
0.635905 -0.928537 0.75 
0.63219 -0.939473 0.75 
0.628262 -0.950971 0.75 
0.624114 -0.963027 0.75 
0.619736 -0.975639 0.75 
0.61629 -0.985478 0.75 
0.612719 -0.995591 0.75 
0.609019 -1.00598 0.75 
0.605132 -1.01677 0.75 
0.601207 -1.02756 0.75 
0.597247 -1.03833 0.75 
0.593296 -1.0491 0.75 
0.589202 -1.0603 0.75 
0.585015 -1.07178 0.75 
0.580729 -1.08355 0.75 
0.576338 -1.0956 0.75 
0.571785 -1.10807 0.75 
0.567221 -1.12054 0.75 
0.562693 -1.13286 0.75 
0.558246 -1.14489 0.75 
0.553928 -1.15648 0.75 
0.549581 -1.16807 0.75 
0.545253 -1.1795 0.75 
0.540995 -1.19064 0.75 
0.536858 -1.20135 0.75 
0.532679 -1.21203 0.75 
0.52851 -1.22256 0.75 
0.524405 -1.2328 0.75 
0.520419 -1.24259 0.75 
0.516549 -1.25211 0.75 
0.511735 -1.2644 0.75 
0.507307 -1.2762 0.75 
0.50324 -1.28749 0.75 
0.499515 -1.29826 0.75 
0.496109 -1.30851 0.75 
0.493004 -1.31822 0.75 
0.489511 -1.32963 0.75 
0.486415 -1.34021 0.75 
0.483232 -1.35162 0.75 
0.480502 -1.36192 0.75 
0.477917 -1.37217 0.75 
0.475323 -1.38289 0.75 
0.472682 -1.39297 0.75 
0.469519 -1.40298 0.75 
0.46618 -1.41254 0.75 
0.462813 -1.42217 0.75 
0.459252 -1.43244 0.75 
0.455731 -1.44265 0.75 
0.45178 -1.45414 0.75 
0.448145 -1.46471 0.75 
0.444209 -1.47612 0.75 
0.440825 -1.48591 0.75 
0.437232 -1.49625 0.75 
0.433422 -1.50715 0.75 
0.429388 -1.51861 0.75 
0.425409 -1.52978 0.75 
0.421564 -1.54035 0.75 
0.41786 -1.55033 0.75 
0.414306 -1.55973 0.75 
0.410066 -1.57072 0.75 
0.405469 -1.58237 0.75 
0.401495 -1.59225 0.75 
0.397238 -1.60266 0.75 
0.392692 -1.61361 0.75 
0.387853 -1.62508 0.75 
0.382715 -1.63707 0.75 
0.378684 -1.64636 0.75 
0.374434 -1.65604 0.75 
0.370022 -1.66598 0.75 
0.365447 -1.67618 0.75 
0.360706 -1.68663 0.75 
0.356111 -1.69665 0.75 
0.351362 -1.70693 0.75 
0.34649 -1.71749 0.75 
0.341494 -1.72832 0.75 
0.336312 -1.73955 0.75 
0.331006 -1.75107 0.75 
0.325576 -1.76285 0.75 
0.320023 -1.77491 0.75 
0.314472 -1.78697 0.75 
0.309048 -1.79875 0.75 
0.303752 -1.81027 0.75 
0.298582 -1.82151 0.75 
0.293602 -1.83235 0.75 
0.288623 -1.84318 0.75 
0.283709 -1.85388 0.75 
0.278921 -1.86431 0.75 
0.274322 -1.87433 0.75 
0.269725 -1.88435 0.75 
0.265191 -1.89424 0.75 
0.260784 -1.90385 0.75 
0.256595 -1.91307 0.75 
0.251265 -1.92498 0.75 
0.246255 -1.93638 0.75 
0.241558 -1.94726 0.75 
0.237165 -1.95761 0.75 
0.233069 -1.96744 0.75 
0.229261 -1.97674 0.75 
0.224875 -1.98767 0.75 
0.220297 -1.99933 0.75 
0.216468 -2.00927 0.75 
0.212484 -2.01979 0.75 
0.208349 -2.03089 0.75 
0.204069 -2.04258 0.75 
0.19965 -2.05486 0.75 
0.196267 -2.06441 0.75 
0.192774 -2.07439 0.75 
0.189209 -2.08466 0.75 
0.185543 -2.09522 0.75 
0.181776 -2.10606 0.75 
0.177859 -2.11732 0.75 
0.173841 -2.12887 0.75 
0.169721 -2.1407 0.75 
0.1655 -2.15281 0.75 
0.161128 -2.16534 0.75 
0.156853 -2.17759 0.75 
0.152674 -2.18956 0.75 
0.148591 -2.20124 0.75 
0.144655 -2.2125 0.75 
0.140716 -2.22375 0.75 
0.136826 -2.23486 0.75 
0.133032 -2.2457 0.75 
0.129385 -2.2561 0.75 
0.125737 -2.2665 0.75 
0.122136 -2.27677 0.75 
0.118634 -2.28674 0.75 
0.115229 -2.29628 0.75 
0.110729 -2.30853 0.75 
0.106318 -2.32017 0.75 
0.102012 -2.33121 0.75 
0.097826 -2.34165 0.75 
0.093775 -2.3515 0.75 
0.089872 -2.36076 0.75 
0.0852 -2.37157 0.75 
0.08085 -2.38138 0.75 
0.075997 -2.39202 0.75 
0.071608 -2.4014 0.75 
0.066831 -2.41133 0.75 
0.062133 -2.42089 0.75 
0.056894 -2.43152 0.75 
0.052021 -2.44141 0.75 
0.046752 -2.45211 0.75 
0.042248 -2.46126 0.75 
0.037479 -2.47095 0.75 
0.032447 -2.48117 0.75 
0.027151 -2.49194 0.75 
0.021592 -2.50325 0.75 
0.015769 -2.5151 0.75 
0.011238 -2.52432 0.75 
0.006575 -2.53381 0.75 
0.001714 -2.54371 0.75 
-0.003278 -2.55387 0.75 
-0.008402 -2.56431 0.75 
-0.013657 -2.57501 0.75 
-0.018713 -2.58531 0.75 
-0.02367 -2.59533 0.75 
-0.028591 -2.60503 0.75 
-0.033471 -2.61441 0.75 
-0.038233 -2.62334 0.75 
-0.044504 -2.63479 0.75 
-0.050629 -2.64563 0.75 
-0.056591 -2.65587 0.75 
-0.062375 -2.66551 0.75 
-0.067965 -2.67458 0.75 
-0.073344 -2.68307 0.75 
-0.079781 -2.69293 0.75 
-0.085775 -2.70182 0.75 
-0.092465 -2.71142 0.75 
-0.098522 -2.71981 0.75 
-0.10476 -2.72817 0.75 
-0.111226 -2.73653 0.75 
-0.117819 -2.74471 0.75 
-0.124455 -2.75235 0.75 
-0.131558 -2.76019 0.75 
-0.138695 -2.76789 0.75 
-0.146167 -2.776 0.75 
-0.15308 -2.7838 0.75 
-0.159863 -2.79181 0.75 
-0.166588 -2.79997 0.75 
-0.173154 -2.80807 0.75 
-0.17963 -2.81614 0.75 
-0.186925 -2.82529 0.75 
-0.193632 -2.83366 0.75 
-0.201024 -2.84283 0.75 
-0.207357 -2.85063 0.75 
-0.21409 -2.85888 0.75 
-0.221229 -2.86758 0.75 
-0.228778 -2.87671 0.75 
-0.236742 -2.88628 0.75 
-0.245125 -2.89628 0.75 
-0.251654 -2.90402 0.75 
-0.258498 -2.91208 0.75 
-0.265563 -2.92035 0.75 
-0.272851 -2.92882 0.75 
-0.280365 -2.93749 0.75 
-0.288208 -2.94648 0.75 
-0.295887 -2.95521 0.75 
-0.303502 -2.96379 0.75 
-0.311154 -2.97234 0.75 
-0.319127 -2.98121 0.75 
-0.327318 -2.99028 0.75 
-0.335728 -2.99957 0.75 
-0.344362 -3.00905 0.75 
-0.353323 -3.01884 0.75 
-0.362311 -3.02861 0.75 
-0.371224 -3.03825 0.75 
-0.379963 -3.04763 0.75 
-0.388733 -3.05699 0.75 
-0.397331 -3.0661 0.75 
-0.405756 -3.07496 0.75 
-0.414009 -3.08356 0.75 
-0.421985 -3.09181 0.75 
-0.429996 -3.10003 0.75 
-0.437938 -3.1081 0.75 
-0.445706 -3.11593 0.75 
-0.453193 -3.1234 0.75 
-0.460502 -3.13062 0.75 
-0.469947 -3.13984 0.75 
-0.478995 -3.14861 0.75 
-0.487529 -3.15704 0.75 
-0.495549 -3.16515 0.75 
-0.503069 -3.1729 0.75 
-0.510097 -3.18029 0.75 
-0.518223 -3.18902 0.75 
-0.525645 -3.19717 0.75 
-0.533521 -3.20602 0.75 
-0.540506 -3.21406 0.75 
-0.547347 -3.22213 0.75 
-0.55437 -3.23063 0.75 
-0.561141 -3.23904 0.75 
-0.568184 -3.248 0.75 
-0.575173 -3.25711 0.75 
-0.581944 -3.26609 0.75 
-0.588158 -3.27446 0.75 
-0.594851 -3.2836 0.75 
-0.602014 -3.2935 0.75 
-0.608119 -3.30205 0.75 
-0.61453 -3.31111 0.75 
-0.621242 -3.32069 0.75 
-0.62825 -3.3308 0.75 
-0.63555 -3.34143 0.75 
-0.641246 -3.34981 0.75 
-0.64709 -3.35844 0.75 
-0.653104 -3.36732 0.75 
-0.659289 -3.37645 0.75 
-0.665728 -3.38594 0.75 
-0.672337 -3.39569 0.75 
-0.679117 -3.40568 0.75 
-0.686067 -3.41592 0.75 
-0.693271 -3.42653 0.75 
-0.700477 -3.43714 0.75 
-0.707601 -3.44762 0.75 
-0.714559 -3.45786 0.75 
-0.721517 -3.46809 0.75 
-0.728309 -3.47807 0.75 
-0.734933 -3.48781 0.75 
-0.741391 -3.49729 0.75 
-0.747596 -3.50641 0.75 
-0.753802 -3.51552 0.75 
-0.759926 -3.52451 0.75 
-0.765881 -3.53325 0.75 
-0.771838 -3.54198 0.75 
-0.777627 -3.55047 0.75 
-0.785065 -3.56138 0.75 
-0.792336 -3.57203 0.75 
-0.799452 -3.58243 0.75 
-0.80629 -3.59229 0.75 
-0.812848 -3.60162 0.75 
-0.819118 -3.61041 0.75 
-0.825092 -3.61868 0.75 
-0.832144 -3.62829 0.75 
-0.839089 -3.63762 0.75 
-0.846645 -3.6476 0.75 
-0.853125 -3.65606 0.75 
-0.860021 -3.66494 0.75 
-0.867335 -3.67427 0.75 
-0.875074 -3.68402 0.75 
-0.883241 -3.6942 0.75 
-0.889615 -3.70207 0.75 
-0.896024 -3.7099 0.75 
-0.904341 -3.71996 0.75 
-0.912335 -3.72951 0.75 
-0.920001 -3.73854 0.75 
-0.92733 -3.74708 0.75 
-0.934909 -3.75579 0.75 
-0.942936 -3.76491 0.75 
-0.951415 -3.77444 0.75 
-0.960351 -3.78435 0.75 
-0.967369 -3.79206 0.75 
-0.974622 -3.79996 0.75 
-0.982114 -3.80805 0.75 
-0.989948 -3.81644 0.75 
-0.998025 -3.825 0.75 
-1.00614 -3.83354 0.75 
-1.01408 -3.84182 0.75 
-1.02175 -3.84974 0.75 
-1.02945 -3.85763 0.75 
-1.03708 -3.86538 0.75 
-1.04454 -3.87288 0.75 
-1.0517 -3.88003 0.75 
-1.06103 -3.88916 0.75 
-1.07007 -3.89772 0.75 
-1.07881 -3.90572 0.75 
-1.08722 -3.91319 0.75 
-1.0953 -3.92013 0.75 
-1.10302 -3.92657 0.75 
-1.11218 -3.93396 0.75 
-1.12064 -3.94055 0.75 
-1.13 -3.94758 0.75 
-1.13839 -3.95363 0.75 
-1.14696 -3.95957 0.75 
-1.15578 -3.96541 0.75 
-1.16468 -3.97097 0.75 
-1.17361 -3.97574 0.75 
-1.18308 -3.98044 0.75 
-1.1925 -3.98509 0.75 
-1.20252 -3.99004 0.75 
-1.21233 -3.9949 0.75 
-1.22154 -3.99946 0.75 
-1.23155 -4.00442 0.75 
-1.24237 -4.00978 0.75 
-1.25164 -4.01438 0.75 
-1.26145 -4.01924 0.75 
-1.2718 -4.02438 0.75 
-1.28268 -4.02978 0.75 
-1.2941 -4.03545 0.75 
-1.30606 -4.04139 0.75 
-1.31513 -4.04588 0.75 
-1.327 -4.05167 0.75 
-1.33836 -4.05712 0.75 
-1.34921 -4.06224 0.75 
-1.35955 -4.06704 0.75 
-1.36937 -4.07153 0.75 
-1.37868 -4.07571 0.75 
-1.38801 -4.07983 0.75 
-1.39791 -4.08414 0.75 
-1.40839 -4.08863 0.75 
-1.41945 -4.09329 0.75 
-1.43108 -4.09812 0.75 
-1.4433 -4.10311 0.75 
-1.45283 -4.10695 0.75 
-1.46266 -4.11086 0.75 
-1.47292 -4.11489 0.75 
-1.4832 -4.11888 0.75 
-1.49336 -4.12277 0.75 
-1.50325 -4.1265 0.75 
-1.51274 -4.13002 0.75 
-1.525 -4.13451 0.75 
-1.53672 -4.13871 0.75 
-1.5479 -4.14264 0.75 
-1.55853 -4.14631 0.75 
-1.56947 -4.15 0.75 
-1.58101 -4.15382 0.75 
-1.59313 -4.15776 0.75 
-1.60585 -4.16181 0.75 
-1.6158 -4.16493 0.75 
-1.62605 -4.16809 0.75 
-1.6366 -4.17129 0.75 
-1.6476 -4.17457 0.75 
-1.65832 -4.17772 0.75 
-1.66891 -4.18078 0.75 
-1.67952 -4.1838 0.75 
-1.6897 -4.18665 0.75 
-1.69961 -4.18937 0.75 
-1.70938 -4.19202 0.75 
-1.71916 -4.19462 0.75 
-1.73166 -4.19781 0.75 
-1.74362 -4.20071 0.75 
-1.75502 -4.20332 0.75 
-1.76587 -4.20566 0.75 
-1.77616 -4.20775 0.75 
-1.78817 -4.21003 0.75 
-1.79933 -4.21197 0.75 
-1.80963 -4.21361 0.75 
-1.82076 -4.21522 0.75 
-1.83214 -4.21666 0.75 
-1.84288 -4.21782 0.75 
-1.85289 -4.21869 0.75 
-1.86367 -4.21937 0.75 
-1.8737 -4.21995 0.75 
-1.88449 -4.22058 0.75 
-1.89594 -4.22126 0.75 
-1.90717 -4.22193 0.75 
-1.91758 -4.22256 0.75 
-1.92888 -4.22325 0.75 
-1.94108 -4.22399 0.75 
-1.95156 -4.22463 0.75 
-1.96264 -4.22531 0.75 
-1.97312 -4.22591 0.75 
-1.98533 -4.22652 0.75 
-1.99665 -4.227 0.75 
-2.00707 -4.22735 0.75 
-2.01779 -4.22764 0.75 
-2.02956 -4.22787 0.75 
-2.03961 -4.228 0.75 
-2.05026 -4.22808 0.75 
-2.06151 -4.22811 0.75 
-2.07336 -4.22807 0.75 
-2.08581 -4.22796 0.75 
-2.09886 -4.22779 0.75 
-2.10898 -4.2276 0.75 
-2.11955 -4.22737 0.75 
-2.13043 -4.22708 0.75 
-2.1416 -4.22675 0.75 
-2.15307 -4.2264 0.75 
-2.16499 -4.22605 0.75 
-2.17721 -4.22569 0.75 
-2.18972 -4.22531 0.75 
-2.20254 -4.22493 0.75 
-2.21581 -4.22454 0.75 
-2.22908 -4.22415 0.75 
-2.2422 -4.22377 0.75 
-2.25502 -4.2234 0.75 
-2.26739 -4.22304 0.75 
-2.27976 -4.22268 0.75 
-2.29198 -4.22233 0.75 
-2.3039 -4.22198 0.75 
-2.31537 -4.22165 0.75 
-2.32654 -4.22133 0.75 
-2.33756 -4.22102 0.75 
-2.34858 -4.22071 0.75 
-2.35915 -4.22041 0.75 
-2.36972 -4.22011 0.75 
-2.38015 -4.21981 0.75 
-2.39027 -4.21953 0.75 
-2.40084 -4.21923 0.75 
-2.41171 -4.21892 0.75 
-2.42288 -4.21861 0.75 
-2.43435 -4.21829 0.75 
-2.44627 -4.21795 0.75 
-2.45849 -4.21761 0.75 
-2.47101 -4.21726 0.75 
-2.48383 -4.2169 0.75 
-2.49665 -4.21653 0.75 
-2.50917 -4.21618 0.75 
-2.52154 -4.21583 0.75 
-2.53391 -4.21548 0.75 
-2.54583 -4.21515 0.75 
-2.55745 -4.21482 0.75 
-2.56877 -4.2145 0.75 
-2.57979 -4.21419 0.75 
-2.59082 -4.21388 0.75 
-2.60154 -4.21358 0.75 
-2.61211 -4.21328 0.75 
-2.62268 -4.21298 0.75 
-2.63325 -4.21269 0.75 
-2.64412 -4.21238 0.75 
-2.65529 -4.21206 0.75 
-2.66676 -4.21174 0.75 
-2.67868 -4.2114 0.75 
-2.6909 -4.21106 0.75 
-2.70342 -4.21071 0.75 
-2.71624 -4.21034 0.75 
-2.72951 -4.20997 0.75 
-2.74248 -4.2096 0.75 
-2.75515 -4.20925 0.75 
-2.76752 -4.2089 0.75 
-2.77944 -4.20856 0.75 
-2.79136 -4.20822 0.75 
-2.80313 -4.20789 0.75 
-2.8146 -4.20757 0.75 
-2.82562 -4.20726 0.75 
-2.83664 -4.20695 0.75 
-2.84752 -4.20664 0.75 
-2.85809 -4.20635 0.75 
-2.86821 -4.20606 0.75 
-2.87833 -4.20578 0.75 
-2.89152 -4.2054 0.75 
-2.90442 -4.20504 0.75 
-2.91701 -4.20468 0.75 
-2.92931 -4.20434 0.75 
-2.9413 -4.204 0.75 
-2.953 -4.20367 0.75 
-2.96439 -4.20335 0.75 
-2.97549 -4.20303 0.75 
-2.98628 -4.20273 0.75 
-2.99678 -4.20243 0.75 
-3.00698 -4.20215 0.75 
-3.01935 -4.2018 0.75 
-3.03112 -4.20147 0.75 
-3.04274 -4.20114 0.75 
-3.05406 -4.20082 0.75 
-3.06493 -4.20051 0.75 
-3.0752 -4.20022 0.75 
-3.08532 -4.19994 0.75 
-3.09701 -4.19961 0.75 
-3.10826 -4.19929 0.75 
-3.11906 -4.19899 0.75 
-3.1294 -4.19869 0.75 
-3.14087 -4.19837 0.75 
-3.15189 -4.19806 0.75 
-3.16201 -4.19777 0.75 
-3.17311 -4.19746 0.75 
-3.18331 -4.19718 0.75 
-3.19433 -4.19687 0.75 
-3.20445 -4.19659 0.75 
-3.21539 -4.19628 0.75 
-3.22612 -4.19597 0.75 
-3.23684 -4.19567 0.75 
-3.24688 -4.19539 0.75 
