ply
format ascii 1.0
element vertex 916
property float x
property float y
property float z
end_header
-0.003831 0.010657 0.75 
-0.006096 0.020906 0.75 
-0.008627 0.034395 0.75 
-0.010835 0.047257 0.75 
-0.013521 0.063993 0.75 
-0.015304 0.075708 0.75 
-0.016904 0.086616 0.75 
-0.018578 0.098423 0.75 
-0.020212 0.110387 0.75 
-0.021621 0.121321 0.75 
-0.023108 0.133682 0.75 
-0.025136 0.152171 0.75 
-0.026164 0.162319 0.75 
-0.027699 0.178597 0.75 
-0.028719 0.190252 0.75 
-0.030216 0.208792 0.75 
-0.031191 0.221956 0.75 
-0.033052 0.250094 0.75 
-0.033709 0.26125 0.75 
-0.034731 0.280348 0.75 
-0.035283 0.291809 0.75 
-0.035769 0.302824 0.75 
-0.03655 0.323809 0.75 
-0.036936 0.337003 0.75 
-0.037339 0.355749 0.75 
-0.037499 0.367448 0.75 
-0.037598 0.383797 0.75 
-0.037582 0.394597 0.75 
-0.037339 0.417996 0.75 
-0.0371 0.430594 0.75 
-0.036775 0.44379 0.75 
-0.036472 0.45406 0.75 
-0.036116 0.464629 0.75 
-0.035549 0.479318 0.75 
-0.03505 0.490782 0.75 
-0.033757 0.516625 0.75 
-0.033177 0.527785 0.75 
-0.032582 0.539244 0.75 
-0.031332 0.563362 0.75 
-0.030684 0.57587 0.75 
-0.029566 0.597516 0.75 
-0.028889 0.610624 0.75 
-0.028229 0.623432 0.75 
-0.02735 0.640509 0.75 
-0.026714 0.652868 0.75 
-0.026094 0.664927 0.75 
-0.024903 0.688146 0.75 
-0.024316 0.699606 0.75 
-0.023009 0.725148 0.75 
-0.022469 0.735709 0.75 
-0.021062 0.763274 0.75 
-0.020547 0.773386 0.75 
-0.019268 0.798478 0.75 
-0.018692 0.809788 0.75 
-0.017284 0.837427 0.75 
-0.016654 0.849786 0.75 
-0.015131 0.879673 0.75 
-0.014493 0.892181 0.75 
-0.013863 0.90454 0.75 
-0.012626 0.928809 0.75 
-0.012034 0.940419 0.75 
-0.010679 0.967009 0.75 
-0.010118 0.97802 0.75 
-0.008861 1.00266 0.75 
-0.008315 1.01337 0.75 
-0.00696 1.03996 0.75 
-0.006353 1.05187 0.75 
-0.004867 1.08101 0.75 
-0.004199 1.09412 0.75 
-0.003531 1.10723 0.75 
-0.002248 1.13239 0.75 
-0.001633 1.14445 0.75 
-0.000224 1.17209 0.75 
0.00036 1.18355 0.75 
0.00167 1.20924 0.75 
0.002216 1.21995 0.75 
0.003434 1.24385 0.75 
0.003972 1.25441 0.75 
0.005305 1.28055 0.75 
0.005905 1.29231 0.75 
0.007367 1.321 0.75 
0.00802 1.33381 0.75 
0.009528 1.36339 0.75 
0.010158 1.37575 0.75 
0.011583 1.40369 0.75 
0.012167 1.41515 0.75 
0.013694 1.44511 0.75 
0.014233 1.45567 0.75 
0.01513 1.47327 0.75 
0.015645 1.48339 0.75 
0.017161 1.51312 0.75 
0.0177 1.52368 0.75 
0.018628 1.54189 0.75 
0.019212 1.55335 0.75 
0.019811 1.5651 0.75 
0.021056 1.58952 0.75 
0.021709 1.60233 0.75 
0.022797 1.62368 0.75 
0.023427 1.63604 0.75 
0.024042 1.6481 0.75 
0.025256 1.67192 0.75 
0.025841 1.68338 0.75 
0.026784 1.70188 0.75 
0.027345 1.71289 0.75 
0.027891 1.7236 0.75 
0.028937 1.74412 0.75 
0.029453 1.75423 0.75 
0.030333 1.77049 0.75 
0.031097 1.78291 0.75 
0.032728 1.80595 0.75 
0.033568 1.81642 0.75 
0.035491 1.83793 0.75 
0.036634 1.84958 0.75 
0.037891 1.86166 0.75 
0.039297 1.87449 0.75 
0.04254 1.9019 0.75 
0.04392 1.91283 0.75 
0.047439 1.93922 0.75 
0.049015 1.95044 0.75 
0.052776 1.97589 0.75 
0.054443 1.98663 0.75 
0.058208 2.0098 0.75 
0.060335 2.02222 0.75 
0.063485 2.03979 0.75 
0.065528 2.0507 0.75 
0.068543 2.06616 0.75 
0.07069 2.07675 0.75 
0.074241 2.09363 0.75 
0.076858 2.10565 0.75 
0.081174 2.12482 0.75 
0.083494 2.13483 0.75 
0.085924 2.14512 0.75 
0.091198 2.16684 0.75 
0.093976 2.17797 0.75 
0.098637 2.19621 0.75 
0.101434 2.20687 0.75 
0.104166 2.21709 0.75 
0.107727 2.23011 0.75 
0.111207 2.24253 0.75 
0.116281 2.26012 0.75 
0.119525 2.27104 0.75 
0.12421 2.2864 0.75 
0.127528 2.29699 0.75 
0.13299 2.31398 0.75 
0.136931 2.32595 0.75 
0.145594 2.35152 0.75 
0.149113 2.36165 0.75 
0.155238 2.37898 0.75 
0.159017 2.38949 0.75 
0.1629 2.40029 0.75 
0.171067 2.42302 0.75 
0.1753 2.43481 0.75 
0.185607 2.46354 0.75 
0.190085 2.47604 0.75 
0.200124 2.50407 0.75 
0.204242 2.51558 0.75 
0.208258 2.52681 0.75 
0.216184 2.54898 0.75 
0.219993 2.55965 0.75 
0.226171 2.57695 0.75 
0.229825 2.5872 0.75 
0.233377 2.59716 0.75 
0.237911 2.60987 0.75 
0.241341 2.6194 0.75 
0.249156 2.64058 0.75 
0.253409 2.6518 0.75 
0.259538 2.6676 0.75 
0.26341 2.67736 0.75 
0.269779 2.69307 0.75 
0.274369 2.70416 0.75 
0.284445 2.72791 0.75 
0.288532 2.73733 0.75 
0.295755 2.75374 0.75 
0.300315 2.76394 0.75 
0.305043 2.7744 0.75 
0.311415 2.78831 0.75 
0.316057 2.79831 0.75 
0.320678 2.80815 0.75 
0.328074 2.82365 0.75 
0.333777 2.83539 0.75 
0.341969 2.85192 0.75 
0.347177 2.86223 0.75 
0.354591 2.87664 0.75 
0.359676 2.88633 0.75 
0.367939 2.90182 0.75 
0.373879 2.91276 0.75 
0.383449 2.93009 0.75 
0.388545 2.93919 0.75 
0.401204 2.96141 0.75 
0.406953 2.97134 0.75 
0.41997 2.99353 0.75 
0.425712 3.00329 0.75 
0.43974 3.02715 0.75 
0.446012 3.03781 0.75 
0.461404 3.064 0.75 
0.467978 3.07519 0.75 
0.483061 3.10086 0.75 
0.489329 3.11153 0.75 
0.503269 3.13526 0.75 
0.50908 3.14516 0.75 
0.522181 3.16747 0.75 
0.527534 3.17659 0.75 
0.539825 3.19747 0.75 
0.546607 3.20879 0.75 
0.556367 3.2248 0.75 
0.562457 3.23462 0.75 
0.571103 3.24832 0.75 
0.576775 3.25715 0.75 
0.589095 3.27598 0.75 
0.595749 3.28596 0.75 
0.60608 3.30125 0.75 
0.612947 3.31127 0.75 
0.622953 3.32569 0.75 
0.62942 3.3349 0.75 
0.638981 3.34835 0.75 
0.645111 3.35687 0.75 
0.654205 3.36936 0.75 
0.661554 3.37932 0.75 
0.671306 3.39235 0.75 
0.678331 3.40161 0.75 
0.684945 3.41024 0.75 
0.691417 3.4186 0.75 
0.697651 3.42658 0.75 
0.70392 3.43453 0.75 
0.712098 3.4448 0.75 
0.723408 3.4588 0.75 
0.734346 3.47214 0.75 
0.744616 3.48447 0.75 
0.75449 3.49616 0.75 
0.76376 3.50698 0.75 
0.772407 3.51696 0.75 
0.780714 3.52643 0.75 
0.788175 3.53485 0.75 
0.794924 3.5424 0.75 
0.804665 3.55311 0.75 
0.811977 3.56095 0.75 
0.819367 3.56872 0.75 
0.82636 3.57594 0.75 
0.833894 3.58358 0.75 
0.841224 3.59088 0.75 
0.825722 3.59151 0.75 
0.81298 3.59196 0.75 
0.796497 3.59271 0.75 
0.776277 3.5938 0.75 
0.764972 3.59448 0.75 
0.748283 3.59558 0.75 
0.727049 3.59724 0.75 
0.715919 3.59824 0.75 
0.7039 3.59941 0.75 
0.693605 3.60048 0.75 
0.671245 3.60298 0.75 
0.659181 3.60443 0.75 
0.64653 3.60601 0.75 
0.633293 3.60774 0.75 
0.605064 3.61166 0.75 
0.593858 3.6133 0.75 
0.56754 3.61733 0.75 
0.556663 3.61913 0.75 
0.532832 3.62348 0.75 
0.520037 3.62604 0.75 
0.502007 3.62996 0.75 
0.49076 3.63259 0.75 
0.474898 3.63655 0.75 
0.465185 3.63913 0.75 
0.451758 3.64291 0.75 
0.441625 3.64594 0.75 
0.430609 3.64941 0.75 
0.416748 3.65407 0.75 
0.404762 3.65842 0.75 
0.394997 3.66228 0.75 
0.384521 3.66746 0.75 
0.374795 3.67281 0.75 
0.365591 3.67786 0.75 
0.351258 3.68573 0.75 
0.333501 3.69546 0.75 
0.323438 3.70098 0.75 
0.312453 3.707 0.75 
0.303112 3.71211 0.75 
0.290678 3.71892 0.75 
0.280282 3.72461 0.75 
0.260875 3.73523 0.75 
0.250249 3.74112 0.75 
0.23523 3.74961 0.75 
0.226001 3.75492 0.75 
0.213189 3.76243 0.75 
0.202952 3.76854 0.75 
0.191992 3.7752 0.75 
0.182671 3.78095 0.75 
0.167797 3.79027 0.75 
0.157292 3.79695 0.75 
0.140784 3.80761 0.75 
0.132061 3.81332 0.75 
0.110759 3.82747 0.75 
0.101245 3.83388 0.75 
0.074612 3.8522 0.75 
0.066325 3.85802 0.75 
0.048318 3.87087 0.75 
0.038732 3.87784 0.75 
0.025219 3.88782 0.75 
0.0167 3.89422 0.75 
0.003099 3.90458 0.75 
-0.006511 3.91201 0.75 
-0.021732 3.92396 0.75 
-0.029657 3.93026 0.75 
-0.052059 3.94836 0.75 
-0.060581 3.95535 0.75 
-0.076961 3.96897 0.75 
-0.08505 3.97578 0.75 
-0.105052 3.99267 0.75 
-0.114053 4.00026 0.75 
-0.136015 4.01877 0.75 
-0.145822 4.02704 0.75 
-0.169172 4.0467 0.75 
-0.178754 4.05476 0.75 
-0.188224 4.06273 0.75 
-0.206821 4.07837 0.75 
-0.21572 4.08585 0.75 
-0.230017 4.09786 0.75 
-0.238459 4.10496 0.75 
-0.246787 4.11195 0.75 
-0.26264 4.12526 0.75 
-0.270396 4.13177 0.75 
-0.287921 4.14647 0.75 
-0.295679 4.15298 0.75 
-0.314814 4.16902 0.75 
-0.323491 4.1763 0.75 
-0.332398 4.18377 0.75 
-0.351016 4.19939 0.75 
-0.360727 4.20753 0.75 
-0.377104 4.22127 0.75 
-0.386701 4.22932 0.75 
-0.396067 4.23717 0.75 
-0.41434 4.2525 0.75 
-0.423246 4.25997 0.75 
-0.443186 4.2767 0.75 
-0.451633 4.28378 0.75 
-0.470308 4.29945 0.75 
-0.478065 4.30595 0.75 
-0.49674 4.32162 0.75 
-0.505187 4.3287 0.75 
-0.526045 4.3462 0.75 
-0.535411 4.35406 0.75 
-0.558108 4.3731 0.75 
-0.567934 4.38134 0.75 
-0.590057 4.3999 0.75 
-0.599308 4.40766 0.75 
-0.608444 4.41532 0.75 
-0.626027 4.43007 0.75 
-0.634589 4.43725 0.75 
-0.651023 4.45104 0.75 
-0.659125 4.45783 0.75 
-0.677215 4.47303 0.75 
-0.68681 4.4812 0.75 
-0.700312 4.49287 0.75 
-0.70865 4.5002 0.75 
-0.724297 4.5142 0.75 
-0.732501 4.52168 0.75 
-0.741103 4.52961 0.75 
-0.750098 4.538 0.75 
-0.769249 4.55617 0.75 
-0.776865 4.56351 0.75 
-0.789917 4.57623 0.75 
-0.79809 4.58428 0.75 
-0.806229 4.59237 0.75 
-0.821981 4.60823 0.75 
-0.8297 4.6161 0.75 
-0.842069 4.62887 0.75 
-0.849069 4.63618 0.75 
-0.86863 4.65701 0.75 
-0.876552 4.66562 0.75 
-0.887631 4.67785 0.75 
-0.894823 4.68591 0.75 
-0.906214 4.69886 0.75 
-0.91427 4.70816 0.75 
-0.931389 4.72825 0.75 
-0.938185 4.73635 0.75 
-0.954672 4.7563 0.75 
-0.961828 4.76507 0.75 
-0.978247 4.78546 0.75 
-0.98572 4.79475 0.75 
-1.00392 4.81737 0.75 
-1.01206 4.82747 0.75 
-1.03149 4.85159 0.75 
-1.03955 4.86157 0.75 
-1.04741 4.87132 0.75 
-1.06258 4.8901 0.75 
-1.07008 4.89938 0.75 
-1.08682 4.92008 0.75 
-1.09375 4.92866 0.75 
-1.10956 4.94818 0.75 
-1.11593 4.95605 0.75 
-1.13468 4.97918 0.75 
-1.1428 4.9892 0.75 
-1.15121 4.99957 0.75 
-1.15787 5.00779 0.75 
-1.16472 5.01623 0.75 
-1.17899 5.03383 0.75 
-1.1865 5.04309 0.75 
-1.19939 5.05899 0.75 
-1.20747 5.06896 0.75 
-1.21536 5.07869 0.75 
-1.23094 5.09791 0.75 
-1.23846 5.10717 0.75 
-1.25541 5.12809 0.75 
-1.26254 5.13689 0.75 
-1.27837 5.1564 0.75 
-1.28503 5.16462 0.75 
-1.29575 5.17784 0.75 
-1.30397 5.18798 0.75 
-1.32135 5.20942 0.75 
-1.32829 5.21798 0.75 
-1.34525 5.2389 0.75 
-1.35285 5.24828 0.75 
-1.37141 5.27117 0.75 
-1.37949 5.28113 0.75 
-1.39758 5.30345 0.75 
-1.405 5.31259 0.75 
-1.42186 5.33339 0.75 
-1.4288 5.34196 0.75 
-1.44666 5.36398 0.75 
-1.45313 5.37196 0.75 
-1.4681 5.39043 0.75 
-1.47476 5.39864 0.75 
-1.49124 5.41897 0.75 
-1.49866 5.42812 0.75 
-1.51675 5.45043 0.75 
-1.52482 5.46039 0.75 
-1.54339 5.48329 0.75 
-1.55099 5.49267 0.75 
-1.56842 5.51417 0.75 
-1.57564 5.52308 0.75 
-1.59185 5.54306 0.75 
-1.5986 5.55139 0.75 
-1.61376 5.5701 0.75 
-1.62042 5.57831 0.75 
-1.6369 5.59864 0.75 
-1.64432 5.60779 0.75 
-1.65192 5.61717 0.75 
-1.66241 5.6301 0.75 
-1.67049 5.64006 0.75 
-1.67856 5.65002 0.75 
-1.68905 5.66296 0.75 
-1.69684 5.67257 0.75 
-1.70454 5.68207 0.75 
-1.71446 5.6943 0.75 
-1.72169 5.70322 0.75 
-1.72891 5.71213 0.75 
-1.73827 5.72366 0.75 
-1.74502 5.732 0.75 
-1.75168 5.74021 0.75 
-1.76481 5.7564 0.75 
-1.77303 5.76654 0.75 
-1.78522 5.78138 0.75 
-1.79305 5.79067 0.75 
-1.80423 5.8036 0.75 
-1.81129 5.81158 0.75 
-1.82135 5.8227 0.75 
-1.82905 5.83101 0.75 
-1.83621 5.83859 0.75 
-1.84401 5.84669 0.75 
-1.85207 5.85486 0.75 
-1.86182 5.86452 0.75 
-1.87532 5.87753 0.75 
-1.8827 5.88447 0.75 
-1.89089 5.89196 0.75 
-1.89925 5.89937 0.75 
-1.90807 5.90694 0.75 
-1.91588 5.91339 0.75 
-1.9255 5.92092 0.75 
-1.93425 5.92751 0.75 
-1.943 5.93409 0.75 
-1.95212 5.94119 0.75 
-1.96299 5.94992 0.75 
-1.97654 5.96107 0.75 
-1.98442 5.96767 0.75 
-1.99295 5.97489 0.75 
-2.00212 5.98275 0.75 
-2.01193 5.99124 0.75 
-2.02029 5.99854 0.75 
-2.03356 6.01026 0.75 
-2.04296 6.01865 0.75 
-2.0578 6.03198 0.75 
-2.06567 6.03905 0.75 
-2.07376 6.04631 0.75 
-2.09061 6.06145 0.75 
-2.09949 6.06941 0.75 
-2.12109 6.08879 0.75 
-2.13064 6.09735 0.75 
-2.15248 6.11693 0.75 
-2.16136 6.12489 0.75 
-2.18141 6.14285 0.75 
-2.18985 6.1504 0.75 
-2.20857 6.16716 0.75 
-2.21645 6.17422 0.75 
-2.23872 6.19421 0.75 
-2.2478 6.20251 0.75 
-2.2565 6.21055 0.75 
-2.2646 6.21814 0.75 
-2.27979 6.23264 0.75 
-2.28775 6.24037 0.75 
-2.29599 6.24847 0.75 
-2.30471 6.25714 0.75 
-2.32327 6.27591 0.75 
-2.33065 6.28349 0.75 
-2.34857 6.30216 0.75 
-2.35646 6.31049 0.75 
-2.37432 6.32963 0.75 
-2.38178 6.33774 0.75 
-2.39374 6.35089 0.75 
-2.40083 6.35873 0.75 
-2.40813 6.3668 0.75 
-2.42332 6.3836 0.75 
-2.43132 6.39244 0.75 
-2.44506 6.40762 0.75 
-2.45367 6.41713 0.75 
-2.46247 6.42686 0.75 
-2.47989 6.4461 0.75 
-2.48819 6.45527 0.75 
-2.50173 6.47023 0.75 
-2.50974 6.47907 0.75 
-2.51754 6.48769 0.75 
-2.53255 6.50425 0.75 
-2.53965 6.51209 0.75 
-2.55611 6.53026 0.75 
-2.56291 6.53776 0.75 
-2.57878 6.55527 0.75 
-2.58588 6.56311 0.75 
-2.60325 6.58228 0.75 
-2.61106 6.5909 0.75 
-2.63015 6.61196 0.75 
-2.63876 6.62146 0.75 
-2.65312 6.6373 0.75 
-2.66142 6.64647 0.75 
-2.66953 6.65542 0.75 
-2.68555 6.67309 0.75 
-2.69325 6.68159 0.75 
-2.71557 6.70621 0.75 
-2.72277 6.71416 0.75 
-2.73873 6.73178 0.75 
-2.74563 6.73939 0.75 
-2.75767 6.75267 0.75 
-2.76517 6.76095 0.75 
-2.77288 6.76946 0.75 
-2.7891 6.78735 0.75 
-2.79751 6.79663 0.75 
-2.8176 6.81881 0.75 
-2.82591 6.82797 0.75 
-2.8451 6.84915 0.75 
-2.85301 6.85787 0.75 
-2.87099 6.87771 0.75 
-2.87839 6.88588 0.75 
-2.89506 6.90428 0.75 
-2.90206 6.912 0.75 
-2.91762 6.92918 0.75 
-2.92629 6.93874 0.75 
-2.93857 6.9523 0.75 
-2.94613 6.96084 0.75 
-2.95657 6.97302 0.75 
-2.96436 6.98244 0.75 
-2.97145 6.99128 0.75 
-2.97784 6.99951 0.75 
-2.9846 7.0085 0.75 
-2.99298 7.02012 0.75 
-3.00001 7.0304 0.75 
-3.00547 7.03883 0.75 
-3.01072 7.04741 0.75 
-3.01594 7.05599 0.75 
-3.02485 7.07059 0.75 
-3.03447 7.08633 0.75 
-3.03999 7.09535 0.75 
-3.04598 7.10514 0.75 
-3.05252 7.11582 0.75 
-3.05953 7.12727 0.75 
-3.06549 7.13699 0.75 
-3.0744 7.15158 0.75 
-3.07981 7.16058 0.75 
-3.0872 7.17311 0.75 
-3.09279 7.18279 0.75 
-3.09816 7.19225 0.75 
-3.1039 7.20253 0.75 
-3.11 7.21364 0.75 
-3.11514 7.22314 0.75 
-3.12324 7.23837 0.75 
-3.12894 7.24927 0.75 
-3.13794 7.26674 0.75 
-3.14252 7.27577 0.75 
-3.14726 7.28521 0.75 
-3.1538 7.29838 0.75 
-3.15889 7.30867 0.75 
-3.1641 7.31923 0.75 
-3.17128 7.33375 0.75 
-3.17683 7.34498 0.75 
-3.18251 7.35647 0.75 
-3.19036 7.37234 0.75 
-3.19624 7.38424 0.75 
-3.202 7.39587 0.75 
-3.2131 7.41832 0.75 
-3.21859 7.42941 0.75 
-3.23087 7.45422 0.75 
-3.23596 7.4645 0.75 
-3.24105 7.47478 0.75 
-3.2507 7.49428 0.75 
-3.25539 7.50375 0.75 
-3.26607 7.52533 0.75 
-3.27187 7.53702 0.75 
-3.28032 7.55409 0.75 
-3.28564 7.56485 0.75 
-3.29303 7.58011 0.75 
-3.29753 7.58959 0.75 
-3.30373 7.60292 0.75 
-3.30854 7.6135 0.75 
-3.31352 7.62467 0.75 
-3.31773 7.63429 0.75 
-3.32442 7.64986 0.75 
-3.32908 7.66092 0.75 
-3.33513 7.67554 0.75 
-3.34017 7.68791 0.75 
-3.34405 7.69758 0.75 
-3.34795 7.70741 0.75 
-3.35612 7.72837 0.75 
-3.36012 7.73881 0.75 
-3.3688 7.76207 0.75 
-3.37227 7.77158 0.75 
-3.37969 7.79242 0.75 
-3.38356 7.80362 0.75 
-3.38894 7.81954 0.75 
-3.39246 7.83022 0.75 
-3.39796 7.84736 0.75 
-3.40177 7.85953 0.75 
-3.40768 7.8789 0.75 
-3.41071 7.88903 0.75 
-3.41801 7.91417 0.75 
-3.42105 7.92492 0.75 
-3.42768 7.949 0.75 
-3.43041 7.95922 0.75 
-3.43637 7.98208 0.75 
-3.43897 7.99217 0.75 
-3.44534 8.01679 0.75 
-3.44822 8.02789 0.75 
-3.45531 8.05527 0.75 
-3.45849 8.06754 0.75 
-3.46597 8.09636 0.75 
-3.46908 8.10833 0.75 
-3.47608 8.13526 0.75 
-3.47901 8.14652 0.75 
-3.48556 8.1717 0.75 
-3.48834 8.18237 0.75 
-3.49529 8.20908 0.75 
-3.49785 8.21888 0.75 
-3.50439 8.24399 0.75 
-3.50776 8.2569 0.75 
-3.5131 8.27737 0.75 
-3.51589 8.28804 0.75 
-3.52276 8.31438 0.75 
-3.52584 8.32621 0.75 
-3.53332 8.35488 0.75 
-3.53656 8.36729 0.75 
-3.54373 8.39479 0.75 
-3.54667 8.40604 0.75 
-3.55339 8.43181 0.75 
-3.55617 8.44247 0.75 
-3.5624 8.46635 0.75 
-3.56503 8.47644 0.75 
-3.57096 8.49915 0.75 
-3.57425 8.51147 0.75 
-3.57903 8.52882 0.75 
-3.58211 8.53964 0.75 
-3.58653 8.55476 0.75 
-3.59002 8.56632 0.75 
-3.5936 8.57785 0.75 
-3.59674 8.58772 0.75 
-3.60184 8.60341 0.75 
-3.60559 8.61465 0.75 
-3.61169 8.63254 0.75 
-3.61608 8.64514 0.75 
-3.62318 8.66507 0.75 
-3.62694 8.67543 0.75 
-3.63578 8.69927 0.75 
-3.63948 8.70902 0.75 
-3.64998 8.73592 0.75 
-3.6544 8.74691 0.75 
-3.65866 8.75732 0.75 
-3.66275 8.76715 0.75 
-3.67159 8.78784 0.75 
-3.67646 8.79898 0.75 
-3.68163 8.81063 0.75 
-3.68712 8.8228 0.75 
-3.69906 8.84868 0.75 
-3.70388 8.85893 0.75 
-3.71506 8.88226 0.75 
-3.7197 8.89176 0.75 
-3.73055 8.91359 0.75 
-3.73651 8.92537 0.75 
-3.74517 8.9425 0.75 
-3.75057 8.95339 0.75 
-3.75804 8.96877 0.75 
-3.76262 8.97838 0.75 
-3.76793 8.98973 0.75 
-3.77232 8.99927 0.75 
-3.78166 9.02007 0.75 
-3.7866 9.03133 0.75 
-3.79431 9.04924 0.75 
-3.79831 9.0587 0.75 
-3.80799 9.08205 0.75 
-3.81231 9.09268 0.75 
-3.82217 9.11741 0.75 
-3.82618 9.12768 0.75 
-3.83504 9.15072 0.75 
-3.83899 9.16101 0.75 
-3.8486 9.186 0.75 
-3.85293 9.19727 0.75 
-3.8635 9.22478 0.75 
-3.86821 9.23703 0.75 
-3.87287 9.24915 0.75 
-3.8789 9.26483 0.75 
-3.88329 9.27624 0.75 
-3.88757 9.28736 0.75 
-3.89328 9.3022 0.75 
-3.89741 9.31291 0.75 
-3.90142 9.32334 0.75 
-3.90934 9.34392 0.75 
-3.91314 9.35379 0.75 
-3.92169 9.37597 0.75 
-3.92643 9.38829 0.75 
-3.93317 9.40579 0.75 
-3.9376 9.41726 0.75 
-3.94392 9.43363 0.75 
-3.9481 9.44424 0.75 
-3.95409 9.45913 0.75 
-3.95881 9.47057 0.75 
-3.9658 9.48708 0.75 
-3.97021 9.49726 0.75 
-3.97741 9.51359 0.75 
-3.98258 9.52509 0.75 
-3.99089 9.54323 0.75 
-3.99535 9.55281 0.75 
-3.99998 9.56266 0.75 
-4.00643 9.5762 0.75 
-4.01141 9.58653 0.75 
-4.01644 9.59685 0.75 
-4.02321 9.61057 0.75 
-4.02821 9.62056 0.75 
-4.03304 9.63014 0.75 
-4.03945 9.64269 0.75 
-4.04427 9.65211 0.75 
-4.04929 9.66192 0.75 
-4.0562 9.67541 0.75 
-4.06163 9.68603 0.75 
-4.06719 9.69691 0.75 
-4.07873 9.71948 0.75 
-4.08476 9.73131 0.75 
-4.09837 9.75795 0.75 
-4.10393 9.76884 0.75 
-4.11658 9.79363 0.75 
-4.12179 9.80385 0.75 
-4.12687 9.81381 0.75 
-4.13341 9.82664 0.75 
-4.13821 9.83606 0.75 
-4.14301 9.84548 0.75 
-4.1522 9.86352 0.75 
-4.1568 9.87255 0.75 
-4.16398 9.88665 0.75 
-4.16955 9.89761 0.75 
-4.17999 9.91856 0.75 
-4.18471 9.92827 0.75 
-4.19123 9.94195 0.75 
-4.19652 9.9533 0.75 
-4.2021 9.96551 0.75 
-4.20678 9.9759 0.75 
-4.2141 9.99251 0.75 
-4.21923 10.0043 0.75 
-4.22998 10.0298 0.75 
-4.23419 10.04 0.75 
-4.24562 10.0682 0.75 
-4.24974 10.0786 0.75 
-4.25883 10.102 0.75 
-4.26279 10.1123 0.75 
-4.27258 10.1377 0.75 
-4.27698 10.1491 0.75 
-4.28149 10.1608 0.75 
-4.29089 10.1851 0.75 
-4.29556 10.1972 0.75 
-4.30311 10.2167 0.75 
-4.30758 10.2283 0.75 
-4.31199 10.2397 0.75 
-4.32044 10.2615 0.75 
-4.32447 10.2719 0.75 
-4.33245 10.2925 0.75 
-4.33627 10.3023 0.75 
-4.34121 10.3151 0.75 
-4.34487 10.3245 0.75 
-4.35082 10.3398 0.75 
-4.35548 10.3518 0.75 
-4.36405 10.3746 0.75 
-4.36791 10.3852 0.75 
-4.37321 10.4 0.75 
-4.37727 10.4117 0.75 
-4.38139 10.4238 0.75 
-4.38484 10.4342 0.75 
-4.39025 10.4509 0.75 
-4.39401 10.4628 0.75 
-4.39985 10.4817 0.75 
-4.40286 10.4917 0.75 
-4.41005 10.5161 0.75 
-4.41321 10.5271 0.75 
-4.41984 10.5515 0.75 
-4.42238 10.5614 0.75 
-4.42899 10.5895 0.75 
-4.43146 10.6011 0.75 
-4.43469 10.6175 0.75 
-4.43655 10.6277 0.75 
-4.43893 10.6419 0.75 
-4.44058 10.6528 0.75 
-4.44217 10.6645 0.75 
-4.44394 10.6798 0.75 
-4.44538 10.6956 0.75 
-4.44604 10.7059 0.75 
-4.44655 10.7161 0.75 
-4.44721 10.7346 0.75 
-4.44766 10.7541 0.75 
-4.44782 10.7652 0.75 
-4.44794 10.7773 0.75 
-4.44799 10.7876 0.75 
-4.44798 10.8043 0.75 
-4.44792 10.8161 0.75 
-4.44771 10.835 0.75 
-4.4475 10.8475 0.75 
-4.4469 10.8706 0.75 
-4.44652 10.8812 0.75 
-4.44608 10.8917 0.75 
-4.44556 10.9027 0.75 
-4.44423 10.9262 0.75 
-4.4434 10.9389 0.75 
-4.44246 10.9522 0.75 
-4.44167 10.9626 0.75 
-4.44081 10.9733 0.75 
-4.43888 10.9957 0.75 
-4.43781 11.0071 0.75 
-4.43594 11.0262 0.75 
-4.43478 11.0373 0.75 
-4.4336 11.0481 0.75 
-4.43106 11.0686 0.75 
-4.42926 11.0816 0.75 
-4.42739 11.0939 0.75 
-4.42546 11.1056 0.75 
-4.42151 11.1271 0.75 
-4.41952 11.137 0.75 
-4.41655 11.1506 0.75 
-4.41415 11.1609 0.75 
-4.41135 11.1721 0.75 
-4.40676 11.1889 0.75 
-4.40389 11.1986 0.75 
-4.39893 11.2145 0.75 
-4.39347 11.2316 0.75 
-4.39026 11.2415 0.75 
-4.38675 11.2523 0.75 
-4.38298 11.2638 0.75 
-4.37701 11.2816 0.75 
-4.3733 11.2926 0.75 
-4.36837 11.307 0.75 
-4.36436 11.3186 0.75 
-4.35838 11.3357 0.75 
-4.35448 11.3468 0.75 
-4.34875 11.3629 0.75 
-4.34514 11.3727 0.75 
-4.33825 11.3907 0.75 
-4.33423 11.4006 0.75 
-4.32971 11.4114 0.75 
-4.32364 11.4252 0.75 
-4.31815 11.437 0.75 
-4.31371 11.4461 0.75 
-4.30781 11.4575 0.75 
-4.30253 11.4664 0.75 
-4.29668 11.4755 0.75 
-4.29052 11.4848 0.75 
-4.2846 11.4935 0.75 
-4.27867 11.5017 0.75 
-4.2725 11.5096 0.75 
-4.26566 11.5182 0.75 
-4.25846 11.527 0.75 
-4.24958 11.5377 0.75 
-4.241 11.5476 0.75 
-4.23388 11.5555 0.75 
-4.22603 11.564 0.75 
-4.21539 11.5752 0.75 
-4.20311 11.5879 0.75 
-4.19376 11.5973 0.75 
-4.18487 11.606 0.75 
-4.17726 11.6131 0.75 
-4.1688 11.6204 0.75 
-4.16074 11.627 0.75 
-4.15237 11.6337 0.75 
-4.14411 11.6401 0.75 
-4.13585 11.6461 0.75 
-4.12692 11.6523 0.75 
-4.11854 11.658 0.75 
-4.11004 11.6636 0.75 
-4.10129 11.6693 0.75 
-4.09264 11.6747 0.75 
-4.08345 11.6802 0.75 
-4.07417 11.6856 0.75 
-4.06313 11.6918 0.75 
-4.05371 11.6969 0.75 
-4.04461 11.7017 0.75 
-4.03504 11.7066 0.75 
-4.0254 11.7113 0.75 
-4.01359 11.7168 0.75 
-4.00436 11.721 0.75 
-4.01365 11.7162 0.75 
-4.02538 11.7103 0.75 
-4.03492 11.7054 0.75 
-4.04415 11.6993 0.75 
-4.05075 11.6918 0.75 
-4.05985 11.681 0.75 
-4.06667 11.6727 0.75 
-4.07396 11.6637 0.75 
