ply
format ascii 1.0
element vertex 1670
property float x
property float y
property float z
end_header
0.01469 0.000516 0.75 
0.02997 0.00131 0.75 
0.046738 0.00235 0.75 
0.066787 0.003767 0.75 
0.084425 0.00525 0.75 
0.09965 0.006764 0.75 
0.110086 0.00792 0.75 
0.122002 0.009333 0.75 
0.144616 0.012242 0.75 
0.154721 0.013627 0.75 
0.171056 0.01596 0.75 
0.182628 0.01768 0.75 
0.200416 0.02044 0.75 
0.211667 0.022276 0.75 
0.227339 0.024958 0.75 
0.239445 0.027135 0.75 
0.251828 0.029459 0.75 
0.26243 0.03152 0.75 
0.279486 0.034962 0.75 
0.291526 0.03748 0.75 
0.317321 0.043098 0.75 
0.327563 0.045409 0.75 
0.345393 0.049532 0.75 
0.356485 0.052161 0.75 
0.367859 0.054905 0.75 
0.389403 0.060261 0.75 
0.39972 0.062904 0.75 
0.416112 0.067215 0.75 
0.428565 0.070584 0.75 
0.451673 0.077066 0.75 
0.462332 0.080164 0.75 
0.478427 0.084977 0.75 
0.489899 0.088499 0.75 
0.508212 0.094267 0.75 
0.517778 0.097348 0.75 
0.541281 0.105103 0.75 
0.55194 0.108703 0.75 
0.576755 0.117264 0.75 
0.587524 0.121004 0.75 
0.598576 0.124842 0.75 
0.621817 0.132906 0.75 
0.633863 0.137082 0.75 
0.654699 0.144299 0.75 
0.667457 0.148714 0.75 
0.680215 0.153126 0.75 
0.7046 0.161553 0.75 
0.716511 0.165665 0.75 
0.743736 0.175056 0.75 
0.754798 0.178868 0.75 
0.779475 0.187366 0.75 
0.789688 0.19088 0.75 
0.812951 0.19888 0.75 
0.825434 0.203169 0.75 
0.845295 0.209992 0.75 
0.855651 0.213549 0.75 
0.881045 0.222272 0.75 
0.892536 0.22622 0.75 
0.920483 0.23582 0.75 
0.932967 0.240109 0.75 
0.945734 0.244495 0.75 
0.970135 0.252877 0.75 
0.982051 0.256971 0.75 
1.00929 0.266327 0.75 
1.02035 0.270129 0.75 
1.04504 0.278608 0.75 
1.05511 0.282068 0.75 
1.07737 0.289769 0.75 
1.08924 0.293984 0.75 
1.10587 0.300037 0.75 
1.11627 0.303914 0.75 
1.13085 0.309475 0.75 
1.14202 0.313846 0.75 
1.15345 0.31841 0.75 
1.16317 0.32237 0.75 
1.17868 0.328816 0.75 
1.18974 0.333496 0.75 
1.21341 0.34375 0.75 
1.22288 0.347933 0.75 
1.24599 0.358334 0.75 
1.25622 0.363031 0.75 
1.27925 0.374311 0.75 
1.28842 0.379106 0.75 
1.30848 0.390262 0.75 
1.31905 0.39655 0.75 
1.33377 0.405833 0.75 
1.34275 0.411833 0.75 
1.355 0.420488 0.75 
1.37258 0.434035 0.75 
1.38891 0.448171 0.75 
1.3988 0.457788 0.75 
1.40753 0.466872 0.75 
1.41882 0.478497 0.75 
1.43269 0.492627 0.75 
1.4407 0.500732 0.75 
1.45297 0.513069 0.75 
1.46061 0.520708 0.75 
1.47293 0.532989 0.75 
1.48166 0.541654 0.75 
1.49318 0.553047 0.75 
1.50044 0.56021 0.75 
1.52052 0.580011 0.75 
1.52768 0.587278 0.75 
1.54313 0.603636 0.75 
1.55116 0.612551 0.75 
1.56215 0.625254 0.75 
1.56887 0.633327 0.75 
1.57805 0.644806 0.75 
1.58481 0.653608 0.75 
1.59089 0.661799 0.75 
1.6011 0.676255 0.75 
1.60959 0.688983 0.75 
1.61954 0.704344 0.75 
1.62525 0.713332 0.75 
1.63139 0.723115 0.75 
1.63795 0.733696 0.75 
1.64492 0.74508 0.75 
1.65083 0.754829 0.75 
1.66024 0.770529 0.75 
1.66681 0.78163 0.75 
1.68071 0.805472 0.75 
1.68617 0.814962 0.75 
1.69568 0.831473 0.75 
1.70159 0.841741 0.75 
1.70766 0.852267 0.75 
1.72041 0.87435 0.75 
1.72702 0.885777 0.75 
1.7425 0.912519 0.75 
1.74882 0.923419 0.75 
1.76298 0.947807 0.75 
1.76886 0.957923 0.75 
1.78229 0.981 0.75 
1.78772 0.990332 0.75 
1.80027 1.01184 0.75 
1.80548 1.02078 0.75 
1.81736 1.04111 0.75 
1.82373 1.05199 0.75 
1.83252 1.06735 0.75 
1.8379 1.07706 0.75 
1.84527 1.09081 0.75 
1.85073 1.10132 0.75 
1.85567 1.1111 0.75 
1.8601 1.12012 0.75 
1.86475 1.12987 0.75 
1.87101 1.1435 0.75 
1.87566 1.15407 0.75 
1.88197 1.16899 0.75 
1.88948 1.18731 0.75 
1.8938 1.19786 0.75 
1.89944 1.2116 0.75 
1.90349 1.22145 0.75 
1.91116 1.24003 0.75 
1.91587 1.25139 0.75 
1.92334 1.2694 0.75 
1.92731 1.27896 0.75 
1.93706 1.30236 0.75 
1.94145 1.31288 0.75 
1.95048 1.33447 0.75 
1.95485 1.345 0.75 
1.95903 1.35528 0.75 
1.96799 1.37819 0.75 
1.97262 1.39055 0.75 
1.97793 1.40522 0.75 
1.98185 1.4164 0.75 
1.98801 1.43474 0.75 
1.99115 1.44445 0.75 
1.99535 1.45791 0.75 
1.99847 1.46825 0.75 
2.00174 1.47949 0.75 
2.00717 1.49915 0.75 
2.01263 1.52005 0.75 
2.01721 1.53869 0.75 
2.02097 1.55507 0.75 
2.02513 1.57442 0.75 
2.02742 1.58559 0.75 
2.02982 1.59766 0.75 
2.03181 1.60796 0.75 
2.0349 1.62448 0.75 
2.03703 1.63629 0.75 
2.04036 1.6552 0.75 
2.04209 1.6651 0.75 
2.04634 1.68948 0.75 
2.04828 1.70056 0.75 
2.05302 1.7276 0.75 
2.05515 1.73971 0.75 
2.05732 1.75212 0.75 
2.06169 1.77694 0.75 
2.06387 1.78935 0.75 
2.06887 1.81771 0.75 
2.07091 1.82923 0.75 
2.0756 1.85582 0.75 
2.07754 1.86675 0.75 
2.07942 1.87739 0.75 
2.08303 1.89777 0.75 
2.08484 1.90796 0.75 
2.08895 1.93115 0.75 
2.09076 1.94134 0.75 
2.0952 1.9663 0.75 
2.09719 1.97752 0.75 
2.10206 2.00499 0.75 
2.10427 2.0174 0.75 
2.10951 2.04694 0.75 
2.11171 2.05935 0.75 
2.11675 2.0877 0.75 
2.11879 2.09922 0.75 
2.12351 2.12581 0.75 
2.12547 2.13688 0.75 
2.12744 2.14796 0.75 
2.13116 2.16893 0.75 
2.13293 2.17898 0.75 
2.1365 2.20119 0.75 
2.13818 2.21307 0.75 
2.14024 2.22975 0.75 
2.14135 2.24019 0.75 
2.14301 2.25932 0.75 
2.14403 2.27608 0.75 
2.14447 2.28717 0.75 
2.14471 2.29827 0.75 
2.14469 2.31102 0.75 
2.14452 2.32197 0.75 
2.14446 2.33307 0.75 
2.14458 2.35422 0.75 
2.14488 2.37282 0.75 
2.14524 2.38781 0.75 
2.14558 2.39936 0.75 
2.146 2.41195 0.75 
2.14623 2.42275 0.75 
2.14632 2.43625 0.75 
2.14621 2.4535 0.75 
2.14605 2.46355 0.75 
2.1457 2.47914 0.75 
2.14488 2.50463 0.75 
2.14444 2.51572 0.75 
2.14364 2.5337 0.75 
2.14309 2.54644 0.75 
2.14209 2.57372 0.75 
2.14175 2.58452 0.75 
2.14101 2.61121 0.75 
2.14073 2.6232 0.75 
2.14013 2.6523 0.75 
2.1399 2.66489 0.75 
2.13969 2.67749 0.75 
2.13932 2.70179 0.75 
2.13916 2.71349 0.75 
2.13881 2.74033 0.75 
2.13866 2.75128 0.75 
2.13844 2.77558 0.75 
2.13845 2.78863 0.75 
2.13864 2.80708 0.75 
2.13886 2.81863 0.75 
2.13931 2.83482 0.75 
2.13967 2.84487 0.75 
2.14051 2.86315 0.75 
2.14169 2.88261 0.75 
2.14301 2.90011 0.75 
2.14387 2.91013 0.75 
2.14487 2.92103 0.75 
2.14595 2.93283 0.75 
2.14712 2.94568 0.75 
2.14811 2.95658 0.75 
2.1497 2.97406 0.75 
2.15083 2.98646 0.75 
2.15261 3.00618 0.75 
2.15354 3.01648 0.75 
2.15452 3.02724 0.75 
2.15585 3.04203 0.75 
2.15688 3.05353 0.75 
2.15795 3.06534 0.75 
2.16008 3.08909 0.75 
2.16113 3.10074 0.75 
2.1635 3.12719 0.75 
2.1645 3.13839 0.75 
2.16625 3.15797 0.75 
2.16734 3.17007 0.75 
2.16846 3.18262 0.75 
2.17 3.1998 0.75 
2.17119 3.21309 0.75 
2.17238 3.22639 0.75 
2.17467 3.25194 0.75 
2.1758 3.26449 0.75 
2.17834 3.29288 0.75 
2.17938 3.30453 0.75 
2.18178 3.33127 0.75 
2.18276 3.34218 0.75 
2.18491 3.36623 0.75 
2.18611 3.37953 0.75 
2.18799 3.40059 0.75 
2.18899 3.41165 0.75 
2.19 3.423 0.75 
2.19177 3.44272 0.75 
2.19287 3.45497 0.75 
2.19399 3.46752 0.75 
2.19624 3.49262 0.75 
2.19737 3.50517 0.75 
2.19922 3.52579 0.75 
2.20029 3.53774 0.75 
2.20133 3.5494 0.75 
2.20332 3.57151 0.75 
2.20428 3.58226 0.75 
2.20678 3.6102 0.75 
2.20771 3.62051 0.75 
2.20946 3.64008 0.75 
2.21061 3.65293 0.75 
2.21244 3.67325 0.75 
2.2134 3.68401 0.75 
2.21576 3.7103 0.75 
2.21681 3.7221 0.75 
2.2179 3.73421 0.75 
2.22015 3.75931 0.75 
2.22128 3.77186 0.75 
2.22312 3.79247 0.75 
2.2242 3.80443 0.75 
2.22524 3.81608 0.75 
2.2273 3.83909 0.75 
2.22831 3.85029 0.75 
2.22995 3.86867 0.75 
2.2309 3.87927 0.75 
2.23183 3.88958 0.75 
2.23362 3.9096 0.75 
2.23456 3.92006 0.75 
2.23619 3.93829 0.75 
2.23721 3.94964 0.75 
2.23826 3.9613 0.75 
2.2397 3.97743 0.75 
2.24083 3.98998 0.75 
2.24198 4.00283 0.75 
2.24351 4.01986 0.75 
2.24463 4.03241 0.75 
2.24576 4.04496 0.75 
2.24798 4.06976 0.75 
2.24905 4.08171 0.75 
2.2511 4.10457 0.75 
2.2521 4.11578 0.75 
2.2547 4.14476 0.75 
2.25568 4.15567 0.75 
2.25738 4.17464 0.75 
2.25844 4.18645 0.75 
2.25952 4.19855 0.75 
2.2618 4.22395 0.75 
2.26298 4.23709 0.75 
2.26496 4.2592 0.75 
2.26611 4.27205 0.75 
2.26724 4.2846 0.75 
2.26874 4.30133 0.75 
2.26982 4.31344 0.75 
2.27088 4.32524 0.75 
2.27224 4.34048 0.75 
2.27324 4.35153 0.75 
2.2742 4.36229 0.75 
2.2761 4.38351 0.75 
2.27704 4.39396 0.75 
2.27934 4.41966 0.75 
2.28039 4.43132 0.75 
2.28293 4.4597 0.75 
2.28407 4.4724 0.75 
2.28679 4.50273 0.75 
2.28791 4.51528 0.75 
2.29051 4.54426 0.75 
2.29158 4.55622 0.75 
2.29402 4.58341 0.75 
2.29503 4.59461 0.75 
2.29726 4.61956 0.75 
2.29817 4.62972 0.75 
2.30024 4.65273 0.75 
2.30136 4.66528 0.75 
2.30315 4.6853 0.75 
2.30409 4.69576 0.75 
2.30506 4.70651 0.75 
2.30709 4.72922 0.75 
2.30815 4.74103 0.75 
2.31073 4.76986 0.75 
2.3119 4.78286 0.75 
2.31459 4.81289 0.75 
2.3157 4.82529 0.75 
2.31679 4.83739 0.75 
2.31885 4.8604 0.75 
2.31985 4.8716 0.75 
2.32214 4.89715 0.75 
2.32315 4.90836 0.75 
2.3256 4.9357 0.75 
2.3267 4.94795 0.75 
2.3286 4.96916 0.75 
2.32978 4.98231 0.75 
2.33259 5.01368 0.75 
2.33376 5.02668 0.75 
2.33637 5.05582 0.75 
2.33744 5.06777 0.75 
2.33987 5.09496 0.75 
2.34088 5.10616 0.75 
2.34314 5.13141 0.75 
2.34409 5.14202 0.75 
2.3463 5.16667 0.75 
2.34731 5.17788 0.75 
2.34976 5.20522 0.75 
2.35086 5.21747 0.75 
2.35353 5.24735 0.75 
2.3547 5.26035 0.75 
2.35809 5.29815 0.75 
2.35917 5.31025 0.75 
2.3616 5.33729 0.75 
2.36259 5.34834 0.75 
2.36484 5.37345 0.75 
2.36576 5.38375 0.75 
2.36789 5.40751 0.75 
2.36904 5.42036 0.75 
2.37078 5.43978 0.75 
2.37171 5.45009 0.75 
2.37397 5.47534 0.75 
2.37499 5.48669 0.75 
2.37748 5.51448 0.75 
2.37861 5.52703 0.75 
2.38123 5.55631 0.75 
2.38234 5.56872 0.75 
2.38487 5.59695 0.75 
2.38592 5.60861 0.75 
2.38827 5.6349 0.75 
2.38927 5.64596 0.75 
2.39152 5.67106 0.75 
2.39252 5.68226 0.75 
2.39497 5.7096 0.75 
2.39607 5.72185 0.75 
2.39875 5.75173 0.75 
2.39991 5.76473 0.75 
2.40255 5.79416 0.75 
2.40366 5.80656 0.75 
2.40614 5.8342 0.75 
2.40719 5.84586 0.75 
2.40951 5.87185 0.75 
2.41047 5.88246 0.75 
2.41285 5.90905 0.75 
2.41396 5.92145 0.75 
2.41571 5.94178 0.75 
2.41652 5.95255 0.75 
2.41745 5.96752 0.75 
2.41803 5.97905 0.75 
2.41845 5.9897 0.75 
2.41891 6.00799 0.75 
2.41902 6.02269 0.75 
2.41882 6.04069 0.75 
2.41833 6.05988 0.75 
2.41769 6.08267 0.75 
2.41741 6.09287 0.75 
2.41698 6.10936 0.75 
2.41667 6.12106 0.75 
2.41621 6.13965 0.75 
2.41588 6.15285 0.75 
2.41521 6.18104 0.75 
2.41495 6.19229 0.75 
2.41434 6.21943 0.75 
2.41408 6.23113 0.75 
2.41346 6.25902 0.75 
2.41318 6.27162 0.75 
2.4123 6.31121 0.75 
2.412 6.32471 0.75 
2.4115 6.3472 0.75 
2.41121 6.36025 0.75 
2.41093 6.37299 0.75 
2.41038 6.39759 0.75 
2.41012 6.40929 0.75 
2.40951 6.43628 0.75 
2.40927 6.44738 0.75 
2.40902 6.45817 0.75 
2.4087 6.47257 0.75 
2.40847 6.48292 0.75 
2.40824 6.49311 0.75 
2.40795 6.50631 0.75 
2.40772 6.51636 0.75 
2.40749 6.5267 0.75 
2.407 6.5486 0.75 
2.40674 6.56 0.75 
2.40612 6.58789 0.75 
2.40584 6.60049 0.75 
2.40516 6.63078 0.75 
2.40487 6.64367 0.75 
2.40459 6.65627 0.75 
2.40421 6.67307 0.75 
2.40394 6.68521 0.75 
2.40368 6.69706 0.75 
2.40333 6.71266 0.75 
2.40307 6.72421 0.75 
2.40282 6.73545 0.75 
2.40249 6.74985 0.75 
2.40226 6.76019 0.75 
2.40203 6.77054 0.75 
2.40172 6.78464 0.75 
2.40147 6.79559 0.75 
2.40122 6.80683 0.75 
2.40069 6.83053 0.75 
2.40041 6.84282 0.75 
2.39974 6.87282 0.75 
2.39946 6.88541 0.75 
2.39881 6.91451 0.75 
2.39854 6.9265 0.75 
2.39793 6.95379 0.75 
2.39768 6.96504 0.75 
2.39702 6.99458 0.75 
2.39678 7.00508 0.75 
2.39632 7.02577 0.75 
2.39608 7.03657 0.75 
2.39548 7.06296 0.75 
2.39522 7.07481 0.75 
2.39457 7.10375 0.75 
2.39429 7.11635 0.75 
2.39344 7.15414 0.75 
2.39317 7.16629 0.75 
2.39256 7.19373 0.75 
2.3923 7.20528 0.75 
2.39172 7.23092 0.75 
2.39148 7.24172 0.75 
2.39089 7.26811 0.75 
2.39062 7.27996 0.75 
2.38998 7.3089 0.75 
2.38968 7.32195 0.75 
2.38878 7.36229 0.75 
2.38849 7.37534 0.75 
2.38783 7.40458 0.75 
2.38756 7.41657 0.75 
2.38697 7.44327 0.75 
2.38671 7.45451 0.75 
2.38615 7.47986 0.75 
2.38591 7.49051 0.75 
2.38537 7.51465 0.75 
2.38513 7.52545 0.75 
2.38454 7.55184 0.75 
2.38427 7.56369 0.75 
2.38362 7.59263 0.75 
2.38334 7.60523 0.75 
2.38249 7.64302 0.75 
2.38222 7.65516 0.75 
2.38161 7.68261 0.75 
2.38135 7.69415 0.75 
2.38076 7.7204 0.75 
2.38052 7.73119 0.75 
2.37997 7.75549 0.75 
2.37974 7.76598 0.75 
2.37916 7.79178 0.75 
2.3789 7.80347 0.75 
2.37826 7.83197 0.75 
2.37798 7.84471 0.75 
2.37728 7.87576 0.75 
2.37699 7.8888 0.75 
2.37633 7.91805 0.75 
2.37606 7.93004 0.75 
2.37554 7.95344 0.75 
2.37528 7.96483 0.75 
2.37504 7.97593 0.75 
2.37455 7.99753 0.75 
2.37429 8.00802 0.75 
2.3737 8.02481 0.75 
2.3731 8.03755 0.75 
2.37163 8.0612 0.75 
2.37079 8.07212 0.75 
2.36991 8.08243 0.75 
2.36876 8.09452 0.75 
2.36713 8.10974 0.75 
2.36484 8.12834 0.75 
2.36277 8.1432 0.75 
2.36035 8.15877 0.75 
2.35711 8.17799 0.75 
2.35294 8.20087 0.75 
2.351 8.21103 0.75 
2.34778 8.22737 0.75 
2.34542 8.23898 0.75 
2.34289 8.25117 0.75 
2.34018 8.26394 0.75 
2.33418 8.29119 0.75 
2.33173 8.30201 0.75 
2.3274 8.32072 0.75 
2.32472 8.33211 0.75 
2.31636 8.36774 0.75 
2.31342 8.3803 0.75 
2.30838 8.40192 0.75 
2.30532 8.41507 0.75 
2.3023 8.42807 0.75 
2.29651 8.45306 0.75 
2.29375 8.46505 0.75 
2.2858 8.49954 0.75 
2.28326 8.51066 0.75 
2.27917 8.5285 0.75 
2.27683 8.53873 0.75 
2.27456 8.54868 0.75 
2.27016 8.56798 0.75 
2.26733 8.58042 0.75 
2.26295 8.59972 0.75 
2.26065 8.60982 0.75 
2.25497 8.63483 0.75 
2.25241 8.64609 0.75 
2.24799 8.66555 0.75 
2.24523 8.67768 0.75 
2.2424 8.69012 0.75 
2.23662 8.71557 0.75 
2.23379 8.728 0.75 
2.22747 8.75579 0.75 
2.22487 8.7672 0.75 
2.21905 8.7928 0.75 
2.21662 8.80347 0.75 
2.2127 8.82058 0.75 
2.21039 8.83036 0.75 
2.20364 8.85774 0.75 
2.20075 8.86892 0.75 
2.19658 8.88458 0.75 
2.19391 8.89427 0.75 
2.1901 8.90768 0.75 
2.18305 8.93141 0.75 
2.17982 8.94187 0.75 
2.17453 8.95861 0.75 
2.1707 8.97045 0.75 
2.16662 8.98285 0.75 
2.16338 8.99252 0.75 
2.16012 9.00218 0.75 
2.15403 9.02055 0.75 
2.1503 9.03211 0.75 
2.14519 9.04843 0.75 
2.14209 9.05862 0.75 
2.13787 9.07286 0.75 
2.13473 9.08382 0.75 
2.13013 9.10044 0.75 
2.12737 9.11073 0.75 
2.12305 9.12727 0.75 
2.12003 9.1392 0.75 
2.11618 9.15478 0.75 
2.11382 9.16455 0.75 
2.11139 9.17461 0.75 
2.10625 9.1959 0.75 
2.10357 9.20698 0.75 
2.09702 9.2341 0.75 
2.09406 9.24634 0.75 
2.08686 9.27608 0.75 
2.08372 9.28906 0.75 
2.0767 9.31807 0.75 
2.07384 9.32988 0.75 
2.06738 9.35656 0.75 
2.06466 9.36778 0.75 
2.05862 9.39271 0.75 
2.05622 9.40278 0.75 
2.0497 9.43129 0.75 
2.04717 9.44302 0.75 
2.04376 9.45947 0.75 
2.04171 9.46977 0.75 
2.03897 9.48422 0.75 
2.03699 9.49514 0.75 
2.03526 9.50519 0.75 
2.0336 9.51525 0.75 
2.03187 9.52622 0.75 
2.03007 9.53823 0.75 
2.02748 9.5565 0.75 
2.02596 9.5678 0.75 
2.02355 9.58594 0.75 
2.02186 9.59873 0.75 
2.01917 9.61895 0.75 
2.01774 9.62965 0.75 
2.01425 9.65582 0.75 
2.01267 9.66757 0.75 
2.00882 9.69626 0.75 
2.00713 9.70875 0.75 
2.00223 9.74502 0.75 
2.00066 9.75661 0.75 
1.99695 9.78396 0.75 
1.9953 9.79615 0.75 
1.99127 9.82587 0.75 
1.98946 9.83925 0.75 
1.98523 9.87047 0.75 
1.98343 9.8837 0.75 
1.97943 9.91328 0.75 
1.9778 9.92532 0.75 
1.97411 9.95251 0.75 
1.97256 9.96396 0.75 
1.96912 9.98938 0.75 
1.96767 10.0001 0.75 
1.96441 10.0242 0.75 
1.963 10.0346 0.75 
1.95954 10.0601 0.75 
1.95797 10.0717 0.75 
1.95301 10.1083 0.75 
1.95126 10.1212 0.75 
1.9473 10.1505 0.75 
1.94563 10.1628 0.75 
1.9419 10.1903 0.75 
1.94033 10.2019 0.75 
1.93586 10.2349 0.75 
1.93447 10.2452 0.75 
1.93216 10.2623 0.75 
1.93077 10.2725 0.75 
1.92944 10.2825 0.75 
1.9278 10.2953 0.75 
1.92631 10.3075 0.75 
1.92434 10.3248 0.75 
1.92321 10.3355 0.75 
1.92175 10.3505 0.75 
1.92065 10.3629 0.75 
1.91956 10.3762 0.75 
1.9187 10.3875 0.75 
1.91746 10.4058 0.75 
1.91668 10.4187 0.75 
1.91557 10.439 0.75 
1.91496 10.4522 0.75 
1.91404 10.4768 0.75 
1.91372 10.4882 0.75 
1.9134 10.5041 0.75 
1.91326 10.5146 0.75 
1.91318 10.5374 0.75 
1.91324 10.5497 0.75 
1.91343 10.5659 0.75 
1.91366 10.5791 0.75 
1.91433 10.6055 0.75 
1.91475 10.6182 0.75 
1.9155 10.637 0.75 
1.91606 10.6488 0.75 
1.91731 10.6714 0.75 
1.91799 10.6822 0.75 
1.91907 10.6979 0.75 
1.91983 10.7081 0.75 
1.92105 10.7232 0.75 
1.92209 10.7351 0.75 
1.92314 10.7466 0.75 
1.92422 10.7578 0.75 
1.92578 10.7731 0.75 
1.92691 10.7835 0.75 
1.92823 10.7951 0.75 
1.93026 10.8121 0.75 
1.93253 10.8298 0.75 
1.93468 10.8457 0.75 
1.9368 10.8606 0.75 
1.93894 10.875 0.75 
1.94137 10.8905 0.75 
1.94329 10.9024 0.75 
1.94556 10.9158 0.75 
1.94736 10.9262 0.75 
1.94924 10.9367 0.75 
1.95119 10.9473 0.75 
1.9532 10.9579 0.75 
1.9554 10.9692 0.75 
1.95736 10.9791 0.75 
1.9595 10.9897 0.75 
1.9619 11.0016 0.75 
1.96449 11.0144 0.75 
1.96715 11.0276 0.75 
1.97018 11.0426 0.75 
1.97397 11.0614 0.75 
1.97614 11.0722 0.75 
1.97893 11.0864 0.75 
1.98149 11.1006 0.75 
1.98425 11.1175 0.75 
1.98575 11.1276 0.75 
1.9848 11.1174 0.75 
1.98362 11.1067 0.75 
1.98095 11.0822 0.75 
1.97979 11.0718 0.75 
1.97837 11.0588 0.75 
1.9766 11.0401 0.75 
1.97545 11.0252 0.75 
1.97428 11.0059 0.75 
1.9735 10.99 0.75 
1.97301 10.9789 0.75 
1.97233 10.9617 0.75 
1.97193 10.951 0.75 
1.97124 10.9339 0.75 
1.97071 10.9218 0.75 
1.96979 10.9025 0.75 
1.96928 10.8923 0.75 
1.96792 10.8673 0.75 
1.96725 10.856 0.75 
1.96548 10.8284 0.75 
1.96464 10.8162 0.75 
1.96375 10.8041 0.75 
1.96183 10.7799 0.75 
1.96082 10.7681 0.75 
1.95836 10.7415 0.75 
1.95726 10.7298 0.75 
1.95462 10.7012 0.75 
1.95346 10.6883 0.75 
1.95062 10.6571 0.75 
1.94935 10.6432 0.75 
1.94645 10.6123 0.75 
1.94522 10.5996 0.75 
1.94398 10.5872 0.75 
1.94143 10.563 0.75 
1.94013 10.5513 0.75 
1.93608 10.5175 0.75 
1.93467 10.5066 0.75 
1.93132 10.4825 0.75 
1.92957 10.4696 0.75 
1.92727 10.4513 0.75 
1.92595 10.4398 0.75 
1.92366 10.4182 0.75 
1.92257 10.407 0.75 
1.92148 10.3952 0.75 
1.9204 10.3828 0.75 
1.9182 10.3562 0.75 
1.91737 10.3456 0.75 
1.91538 10.3194 0.75 
1.91452 10.3077 0.75 
1.91275 10.2809 0.75 
1.91214 10.27 0.75 
1.91097 10.2454 0.75 
1.91054 10.2346 0.75 
1.90966 10.208 0.75 
1.90933 10.196 0.75 
1.90867 10.167 0.75 
1.90843 10.1549 0.75 
1.90796 10.127 0.75 
1.90778 10.1156 0.75 
1.90749 10.0968 0.75 
1.90734 10.0856 0.75 
1.90721 10.0742 0.75 
1.90706 10.0503 0.75 
1.90703 10.0379 0.75 
1.90706 10.0164 0.75 
1.90712 10.0031 0.75 
1.9072 9.98957 0.75 
1.90744 9.96258 0.75 
1.90759 9.94938 0.75 
1.90786 9.92808 0.75 
1.90803 9.91578 0.75 
1.9082 9.90378 0.75 
1.90854 9.88083 0.75 
1.9087 9.86988 0.75 
1.90906 9.84484 0.75 
1.90911 9.83449 0.75 
1.90884 9.81184 0.75 
1.90846 9.7997 0.75 
1.9073 9.77723 0.75 
1.90656 9.76691 0.75 
1.9053 9.75256 0.75 
1.90343 9.73556 0.75 
1.90196 9.72441 0.75 
1.90027 9.71314 0.75 
1.89835 9.7019 0.75 
1.89539 9.68536 0.75 
1.89082 9.66058 0.75 
1.88611 9.63583 0.75 
1.88399 9.62493 0.75 
1.88055 9.60757 0.75 
1.87805 9.59522 0.75 
1.87398 9.57553 0.75 
1.87182 9.56526 0.75 
1.86637 9.54004 0.75 
1.86383 9.52862 0.75 
1.85801 9.50318 0.75 
1.85554 9.49282 0.75 
1.84992 9.46995 0.75 
1.8468 9.45774 0.75 
1.84229 9.44062 0.75 
1.83938 9.42991 0.75 
1.83517 9.41489 0.75 
1.83179 9.40322 0.75 
1.82808 9.39071 0.75 
1.82485 9.38009 0.75 
1.81962 9.36318 0.75 
1.81589 9.35115 0.75 
1.80996 9.33195 0.75 
1.80686 9.32191 0.75 
1.79925 9.29726 0.75 
1.7958 9.28608 0.75 
1.78742 9.25884 0.75 
1.78371 9.2468 0.75 
1.77525 9.21927 0.75 
1.77169 9.20765 0.75 
1.76153 9.17453 0.75 
1.75823 9.16377 0.75 
1.75019 9.13752 0.75 
1.74659 9.12576 0.75 
1.7378 9.09708 0.75 
1.73384 9.08417 0.75 
1.72462 9.05405 0.75 
1.72071 9.04129 0.75 
1.71196 9.01275 0.75 
1.70827 9.0007 0.75 
1.70001 8.97374 0.75 
1.69663 8.96269 0.75 
1.68911 8.93817 0.75 
1.68582 8.92741 0.75 
1.67777 8.90117 0.75 
1.67417 8.88941 0.75 
1.66538 8.86072 0.75 
1.66143 8.84781 0.75 
1.65255 8.81884 0.75 
1.6489 8.80694 0.75 
1.64077 8.78041 0.75 
1.63735 8.76922 0.75 
1.6297 8.74427 0.75 
1.62654 8.73394 0.75 
1.61933 8.71042 0.75 
1.61541 8.69781 0.75 
1.60975 8.6801 0.75 
1.60608 8.66899 0.75 
1.60079 8.65336 0.75 
1.59743 8.64373 0.75 
1.59269 8.63045 0.75 
1.58897 8.62031 0.75 
1.58506 8.60992 0.75 
1.57791 8.59146 0.75 
1.57392 8.58142 0.75 
1.56762 8.56585 0.75 
1.5636 8.55615 0.75 
1.55787 8.54261 0.75 
1.55346 8.53242 0.75 
1.54909 8.52255 0.75 
1.54428 8.51188 0.75 
1.53902 8.50043 0.75 
1.53446 8.49065 0.75 
1.52958 8.48034 0.75 
1.52027 8.46102 0.75 
1.51452 8.4493 0.75 
1.50203 8.42435 0.75 
1.497 8.41446 0.75 
1.4882 8.3974 0.75 
1.48292 8.38729 0.75 
1.47774 8.37747 0.75 
1.46773 8.35885 0.75 
1.46291 8.35003 0.75 
1.44915 8.32541 0.75 
1.44342 8.31538 0.75 
1.43792 8.30591 0.75 
1.43222 8.29622 0.75 
1.41971 8.27538 0.75 
1.41289 8.26426 0.75 
1.4057 8.25266 0.75 
1.40004 8.24363 0.75 
1.39418 8.23438 0.75 
1.38203 8.21545 0.75 
1.37604 8.20627 0.75 
1.36261 8.18603 0.75 
1.3553 8.17522 0.75 
1.34485 8.16001 0.75 
1.33823 8.15055 0.75 
1.32867 8.13709 0.75 
1.32191 8.12773 0.75 
1.311 8.11285 0.75 
1.30321 8.10238 0.75 
1.29083 8.08598 0.75 
1.28435 8.07753 0.75 
1.26825 8.0568 0.75 
1.26146 8.0482 0.75 
1.24626 8.02925 0.75 
1.238 8.01914 0.75 
1.22622 8.00494 0.75 
1.21878 7.99611 0.75 
1.20814 7.98369 0.75 
1.20096 7.97543 0.75 
1.18935 7.96227 0.75 
1.18104 7.95299 0.75 
1.16773 7.93833 0.75 
1.16073 7.93072 0.75 
1.14323 7.91196 0.75 
1.13531 7.90355 0.75 
1.12719 7.89492 0.75 
1.116 7.88301 0.75 
1.10738 7.87382 0.75 
1.09845 7.86429 0.75 
1.08626 7.85125 0.75 
1.07725 7.84161 0.75 
1.06845 7.83217 0.75 
1.057 7.81988 0.75 
1.04842 7.81065 0.75 
1.04015 7.80175 0.75 
1.02944 7.7902 0.75 
1.02149 7.78162 0.75 
1.01364 7.77315 0.75 
0.998676 7.75695 0.75 
0.991554 7.74924 0.75 
0.97508 7.73137 0.75 
0.967758 7.72343 0.75 
0.949657 7.70381 0.75 
0.941521 7.69499 0.75 
0.92169 7.67349 0.75 
0.912841 7.6639 0.75 
0.8925 7.64185 0.75 
0.883956 7.63259 0.75 
0.864631 7.61164 0.75 
0.856697 7.60304 0.75 
0.848763 7.59444 0.75 
0.838489 7.58331 0.75 
0.831064 7.57526 0.75 
0.823841 7.56743 0.75 
0.814483 7.55729 0.75 
0.807464 7.54969 0.75 
0.800139 7.54175 0.75 
0.784881 7.52521 0.75 
0.776946 7.51661 0.75 
0.757415 7.49545 0.75 
0.748667 7.48597 0.75 
0.728526 7.46414 0.75 
0.719981 7.45488 0.75 
0.700348 7.43361 0.75 
0.692312 7.4249 0.75 
0.674408 7.4055 0.75 
0.667084 7.39756 0.75 
0.65976 7.38962 0.75 
0.64969 7.37871 0.75 
0.641857 7.37022 0.75 
0.633821 7.36151 0.75 
0.617036 7.34332 0.75 
0.608288 7.33384 0.75 
0.588147 7.31202 0.75 
0.579602 7.30275 0.75 
0.571057 7.2935 0.75 
0.559969 7.28148 0.75 
0.551933 7.27277 0.75 
0.5441 7.26428 0.75 
0.53403 7.25337 0.75 
0.526706 7.24543 0.75 
0.519382 7.23749 0.75 
0.505344 7.22228 0.75 
0.496392 7.21258 0.75 
0.487542 7.20299 0.75 
0.479096 7.19384 0.75 
0.463282 7.17701 0.75 
0.455911 7.16932 0.75 
0.448908 7.16211 0.75 
0.440694 7.15378 0.75 
0.43305 7.14615 0.75 
0.424591 7.13785 0.75 
0.41736 7.13087 0.75 
0.409427 7.12332 0.75 
0.400785 7.11521 0.75 
0.393305 7.10828 0.75 
0.383239 7.09906 0.75 
0.374677 7.09131 0.75 
0.358564 7.07692 0.75 
0.348657 7.0682 0.75 
0.332808 7.05442 0.75 
0.324732 7.04748 0.75 
0.306753 7.03227 0.75 
0.297062 7.02422 0.75 
0.28336 7.01301 0.75 
0.274712 7.00605 0.75 
0.262483 6.99637 0.75 
0.253014 6.989 0.75 
0.243254 6.98151 0.75 
0.234881 6.97518 0.75 
0.221413 6.96514 0.75 
0.211744 6.95803 0.75 
0.196198 6.94676 0.75 
0.188025 6.94091 0.75 
0.167805 6.92664 0.75 
0.158941 6.92047 0.75 
0.138411 6.90638 0.75 
0.129838 6.90058 0.75 
0.110247 6.88751 0.75 
0.099718 6.88059 0.75 
0.079064 6.86723 0.75 
0.06945 6.8611 0.75 
0.055744 6.85246 0.75 
0.046577 6.84675 0.75 
0.033295 6.83857 0.75 
0.024586 6.83326 0.75 
0.012258 6.82582 0.75 
0.001955 6.81967 0.75 
-0.011735 6.81158 0.75 
-0.021059 6.80613 0.75 
-0.030143 6.80086 0.75 
-0.039115 6.7957 0.75 
-0.049279 6.78991 0.75 
-0.064043 6.78158 0.75 
-0.073212 6.77647 0.75 
-0.083317 6.77087 0.75 
-0.092918 6.76561 0.75 
-0.105835 6.75859 0.75 
-0.117726 6.7522 0.75 
-0.128563 6.74638 0.75 
-0.138259 6.74098 0.75 
-0.148659 6.73499 0.75 
-0.16312 6.72644 0.75 
-0.180817 6.71571 0.75 
-0.190771 6.70956 0.75 
-0.199296 6.70424 0.75 
-0.208306 6.69856 0.75 
-0.2178 6.69252 0.75 
-0.230294 6.68449 0.75 
-0.240864 6.67764 0.75 
-0.25767 6.66661 0.75 
-0.266423 6.66081 0.75 
-0.275408 6.65482 0.75 
-0.291086 6.64426 0.75 
-0.300764 6.63769 0.75 
-0.319065 6.62512 0.75 
-0.327938 6.61896 0.75 
-0.336789 6.61278 0.75 
-0.349073 6.60417 0.75 
-0.358655 6.59745 0.75 
-0.368482 6.59057 0.75 
-0.388878 6.57628 0.75 
-0.399569 6.5688 0.75 
-0.425257 6.55083 0.75 
-0.436198 6.54318 0.75 
-0.446894 6.5357 0.75 
-0.460665 6.52608 0.75 
-0.470994 6.51886 0.75 
-0.481079 6.51182 0.75 
-0.500513 6.49825 0.75 
-0.509739 6.49182 0.75 
-0.530531 6.47731 0.75 
-0.539267 6.47122 0.75 
-0.55871 6.45767 0.75 
-0.569541 6.45013 0.75 
-0.586033 6.43864 0.75 
-0.594649 6.43263 0.75 
-0.615818 6.41789 0.75 
-0.625419 6.4112 0.75 
-0.648803 6.39491 0.75 
-0.659142 6.38771 0.75 
-0.683265 6.3709 0.75 
-0.693603 6.3637 0.75 
-0.716987 6.34741 0.75 
-0.726833 6.34055 0.75 
-0.736433 6.33386 0.75 
-0.74874 6.32528 0.75 
-0.757602 6.31911 0.75 
-0.766217 6.31311 0.75 
-0.783201 6.30127 0.75 
-0.794031 6.29373 0.75 
-0.810523 6.28224 0.75 
-0.819138 6.27624 0.75 
-0.828 6.27006 0.75 
-0.840307 6.26149 0.75 
-0.849907 6.2548 0.75 
-0.859752 6.24794 0.75 
-0.87329 6.23851 0.75 
-0.883629 6.23131 0.75 
-0.893967 6.2241 0.75 
-0.907751 6.2145 0.75 
-0.91772 6.20755 0.75 
-0.927442 6.20078 0.75 
-0.946642 6.1874 0.75 
-0.955872 6.18097 0.75 
-0.979626 6.16442 0.75 
-0.988241 6.15842 0.75 
-1.00522 6.14658 0.75 
-1.01372 6.14067 0.75 
-1.04067 6.12189 0.75 
-1.05027 6.1152 0.75 
-1.07365 6.09891 0.75 
-1.08412 6.09162 0.75 
-1.10959 6.07387 0.75 
-1.1203 6.06641 0.75 
-1.1443 6.04969 0.75 
-1.15414 6.04283 0.75 
-1.17654 6.02722 0.75 
-1.18577 6.02079 0.75 
-1.20657 6.0063 0.75 
-1.21531 6.00021 0.75 
-1.23463 5.98675 0.75 
-1.24546 5.9792 0.75 
-1.26269 5.9672 0.75 
-1.27168 5.96094 0.75 
-1.29371 5.94558 0.75 
-1.30368 5.93864 0.75 
-1.32792 5.92175 0.75 
-1.33851 5.91437 0.75 
-1.36263 5.89757 0.75 
-1.3726 5.89062 0.75 
-1.39512 5.87493 0.75 
-1.4046 5.86833 0.75 
-1.42564 5.85366 0.75 
-1.4345 5.84749 0.75 
-1.45421 5.83378 0.75 
-1.46484 5.82648 0.75 
-1.47752 5.81792 0.75 
-1.48715 5.81154 0.75 
-1.50501 5.79994 0.75 
-1.51528 5.79344 0.75 
-1.5247 5.78757 0.75 
-1.53391 5.78193 0.75 
-1.54819 5.77337 0.75 
-1.55711 5.76812 0.75 
-1.56657 5.76261 0.75 
-1.57659 5.75686 0.75 
-1.59829 5.74464 0.75 
-1.60997 5.73818 0.75 
-1.62208 5.73157 0.75 
-1.63119 5.72666 0.75 
-1.65667 5.71323 0.75 
-1.66721 5.70781 0.75 
-1.68207 5.70031 0.75 
-1.69175 5.69553 0.75 
-1.70714 5.68806 0.75 
-1.71811 5.68283 0.75 
-1.73564 5.67464 0.75 
-1.7449 5.67038 0.75 
-1.76774 5.66007 0.75 
-1.77802 5.65552 0.75 
-1.80886 5.64217 0.75 
-1.8188 5.63797 0.75 
-1.8407 5.6289 0.75 
-1.85253 5.62413 0.75 
-1.86927 5.61753 0.75 
-1.87977 5.61348 0.75 
-1.89493 5.60777 0.75 
-1.90549 5.60388 0.75 
-1.92242 5.59779 0.75 
-1.93445 5.59355 0.75 
-1.9536 5.58697 0.75 
-1.96369 5.58357 0.75 
-1.99191 5.57431 0.75 
-2.00262 5.57088 0.75 
-2.02711 5.56324 0.75 
-2.03787 5.55996 0.75 
-2.06417 5.55209 0.75 
-2.07597 5.54861 0.75 
-2.10477 5.54024 0.75 
-2.11775 5.53651 0.75 
-2.14776 5.52798 0.75 
-2.16018 5.52448 0.75 
-2.18849 5.51655 0.75 
-2.20019 5.51329 0.75 
-2.22635 5.50601 0.75 
-2.23704 5.50304 0.75 
-2.26132 5.49628 0.75 
-2.27216 5.49326 0.75 
-2.2986 5.48589 0.75 
-2.31045 5.48258 0.75 
-2.33934 5.47453 0.75 
-2.35235 5.4709 0.75 
-2.3824 5.46253 0.75 
-2.39483 5.45906 0.75 
-2.42315 5.45117 0.75 
-2.43485 5.44791 0.75 
-2.461 5.44062 0.75 
-2.4717 5.43764 0.75 
-2.49597 5.43087 0.75 
-2.50594 5.4281 0.75 
-2.53036 5.42129 0.75 
-2.54134 5.41823 0.75 
-2.56822 5.41075 0.75 
-2.58036 5.40736 0.75 
-2.6185 5.39673 0.75 
-2.63107 5.39323 0.75 
-2.65925 5.38538 0.75 
-2.67081 5.38216 0.75 
-2.69711 5.37483 0.75 
-2.70795 5.37181 0.75 
-2.73236 5.36501 0.75 
-2.74262 5.36215 0.75 
-2.76531 5.35583 0.75 
-2.77745 5.35245 0.75 
-2.79447 5.3476 0.75 
-2.80512 5.34447 0.75 
-2.81518 5.34145 0.75 
-2.8378 5.33437 0.75 
-2.84792 5.33107 0.75 
-2.85887 5.32741 0.75 
-2.87065 5.32337 0.75 
-2.88325 5.31896 0.75 
-2.89399 5.31513 0.75 
-2.91708 5.30666 0.75 
-2.92944 5.30202 0.75 
-2.94905 5.29451 0.75 
-2.95898 5.29064 0.75 
-2.98085 5.28192 0.75 
-2.99251 5.27715 0.75 
-3.00884 5.27033 0.75 
-3.01905 5.26596 0.75 
-3.03335 5.25973 0.75 
-3.04267 5.25558 0.75 
-3.06287 5.24638 0.75 
-3.07375 5.24131 0.75 
-3.09109 5.23308 0.75 
-3.10015 5.22871 0.75 
-3.12572 5.21614 0.75 
-3.13578 5.2111 0.75 
-3.1525 5.20261 0.75 
-3.16251 5.19747 0.75 
-3.17209 5.19248 0.75 
-3.18443 5.18598 0.75 
-3.19329 5.18124 0.75 
-3.21803 5.1677 0.75 
-3.2281 5.16205 0.75 
-3.24217 5.15402 0.75 
-3.25112 5.14882 0.75 
-3.26545 5.14035 0.75 
-3.27561 5.13424 0.75 
-3.29454 5.12265 0.75 
-3.30321 5.11727 0.75 
-3.3211 5.10599 0.75 
-3.33045 5.10002 0.75 
-3.33978 5.094 0.75 
-3.35171 5.08621 0.75 
-3.36035 5.0805 0.75 
-3.37914 5.06787 0.75 
-3.38917 5.061 0.75 
-3.4032 5.05123 0.75 
-3.41201 5.04499 0.75 
-3.42553 5.03526 0.75 
-3.4351 5.02827 0.75 
-3.45028 5.01701 0.75 
-3.46094 5.00898 0.75 
-3.47775 4.99614 0.75 
-3.48628 4.98953 0.75 
-3.4948 4.98288 0.75 
-3.50622 4.97387 0.75 
-3.51505 4.9669 0.75 
-3.52423 4.95964 0.75 
-3.53647 4.94998 0.75 
-3.54542 4.94291 0.75 
-3.55413 4.93604 0.75 
-3.57074 4.92294 0.75 
-3.57863 4.91672 0.75 
-3.59607 4.90298 0.75 
-3.60538 4.89565 0.75 
-3.61882 4.88507 0.75 
-3.62813 4.87775 0.75 
-3.64299 4.86607 0.75 
-3.65349 4.85782 0.75 
-3.67013 4.84476 0.75 
-3.67862 4.83809 0.75 
-3.68699 4.8315 0.75 
-3.69757 4.82288 0.75 
-3.70751 4.81442 0.75 
-3.72125 4.80211 0.75 
-3.72965 4.79418 0.75 
-3.74114 4.78276 0.75 
-3.74809 4.77551 0.75 
-3.7575 4.7652 0.75 
-3.76447 4.75715 0.75 
-3.77172 4.74836 0.75 
-3.7807 4.73672 0.75 
-3.78811 4.72635 0.75 
-3.79381 4.71771 0.75 
-3.80116 4.70585 0.75 
-3.80769 4.6949 0.75 
-3.81599 4.68064 0.75 
-3.8218 4.67048 0.75 
-3.82711 4.66108 0.75 
-3.83281 4.65086 0.75 
-3.8389 4.63983 0.75 
-3.84409 4.63036 0.75 
-3.85162 4.61636 0.75 
-3.85735 4.60547 0.75 
-3.86518 4.59027 0.75 
-3.86991 4.5809 0.75 
-3.87736 4.56584 0.75 
-3.88261 4.55505 0.75 
-3.89088 4.53772 0.75 
-3.89516 4.52863 0.75 
-3.89952 4.51924 0.75 
-3.90863 4.49933 0.75 
-3.91331 4.48893 0.75 
-3.9241 4.46451 0.75 
-3.92857 4.45419 0.75 
-3.93873 4.43031 0.75 
-3.94283 4.42048 0.75 
-3.95172 4.39867 0.75 
-3.95637 4.38696 0.75 
-3.96278 4.37046 0.75 
-3.96672 4.36009 0.75 
-3.97236 4.3449 0.75 
-3.97624 4.33418 0.75 
-3.98235 4.31693 0.75 
-3.98657 4.30474 0.75 
-3.99537 4.27858 0.75 
-3.99878 4.26817 0.75 
-4.00453 4.25033 0.75 
-4.00791 4.2396 0.75 
-4.01125 4.22886 0.75 
-4.01745 4.20848 0.75 
-4.02035 4.1987 0.75 
-4.02485 4.18314 0.75 
-4.02819 4.1713 0.75 
-4.03417 4.14929 0.75 
-4.03683 4.13914 0.75 
-4.04074 4.12373 0.75 
-4.04347 4.11266 0.75 
-4.04771 4.09486 0.75 
-4.05062 4.08229 0.75 
-4.05507 4.06238 0.75 
-4.05736 4.05183 0.75 
-4.06273 4.02628 0.75 
-4.06496 4.01526 0.75 
-4.06715 4.00422 0.75 
-4.07142 3.98336 0.75 
-4.07357 3.97338 0.75 
-4.0771 3.95757 0.75 
-4.07989 3.94559 0.75 
-4.08532 3.92345 0.75 
-4.08794 3.91328 0.75 
-4.09174 3.89908 0.75 
-4.09472 3.88839 0.75 
-4.09754 3.87859 0.75 
-4.10071 3.86795 0.75 
-4.10407 3.85706 0.75 
-4.10801 3.84477 0.75 
-4.1134 3.82791 0.75 
-4.11649 3.81819 0.75 
-4.11984 3.80761 0.75 
-4.12349 3.79602 0.75 
-4.12741 3.78357 0.75 
-4.13072 3.77298 0.75 
-4.136 3.75608 0.75 
-4.13974 3.74405 0.75 
-4.14569 3.72485 0.75 
-4.1488 3.71482 0.75 
-4.15199 3.7045 0.75 
-4.1564 3.69017 0.75 
-4.15985 3.67899 0.75 
-4.16328 3.6678 0.75 
-4.16777 3.65318 0.75 
-4.17111 3.64228 0.75 
-4.17454 3.63109 0.75 
-4.17929 3.6156 0.75 
-4.18298 3.60355 0.75 
-4.18676 3.59122 0.75 
-4.19194 3.5743 0.75 
-4.1959 3.56139 0.75 
-4.19986 3.54848 0.75 
-4.20496 3.53185 0.75 
-4.20865 3.5198 0.75 
-4.21235 3.50775 0.75 
-4.21718 3.49198 0.75 
-4.2207 3.48051 0.75 
-4.22413 3.46932 0.75 
-4.22854 3.45498 0.75 
-4.2317 3.44466 0.75 
-4.23487 3.43433 0.75 
-4.24103 3.41426 0.75 
-4.24491 3.40164 0.75 
-4.25063 3.383 0.75 
-4.25433 3.37095 0.75 
-4.26005 3.35231 0.75 
-4.26309 3.34242 0.75 
-4.26622 3.33224 0.75 
-4.27273 3.31101 0.75 
-4.27617 3.29983 0.75 
-4.28453 3.27258 0.75 
-4.28823 3.26054 0.75 
-4.29193 3.24849 0.75 
-4.29668 3.23301 0.75 
-4.30012 3.22182 0.75 
-4.30355 3.21064 0.75 
-4.30804 3.19601 0.75 
-4.31134 3.18526 0.75 
-4.31464 3.1745 0.75 
-4.31887 3.16074 0.75 
-4.32191 3.15084 0.75 
-4.32494 3.14095 0.75 
-4.32891 3.12804 0.75 
-4.33268 3.11571 0.75 
-4.33789 3.09817 0.75 
-4.34105 3.08721 0.75 
-4.34533 3.0719 0.75 
-4.34853 3.06002 0.75 
-4.35141 3.04899 0.75 
-4.35394 3.03896 0.75 
-4.35633 3.02919 0.75 
-4.35885 3.01854 0.75 
-4.3615 3.00699 0.75 
-4.36373 2.99703 0.75 
-4.36721 2.98091 0.75 
-4.36961 2.96946 0.75 
-4.37331 2.95123 0.75 
-4.37589 2.93828 0.75 
-4.38 2.91769 0.75 
-4.38215 2.90695 0.75 
-4.38436 2.89592 0.75 
-4.38742 2.88062 0.75 
-4.38981 2.86871 0.75 
-4.39227 2.8565 0.75 
-4.39558 2.84003 0.75 
-4.39807 2.82768 0.75 
-4.40056 2.81533 0.75 
-4.40377 2.79945 0.75 
-4.40617 2.78754 0.75 
-4.40858 2.77563 0.75 
-4.41174 2.76005 0.75 
-4.41403 2.74873 0.75 
-4.41627 2.7377 0.75 
-4.41914 2.72359 0.75 
-4.4212 2.71345 0.75 
-4.42326 2.70331 0.75 
-4.42594 2.69008 0.75 
-4.42842 2.67742 0.75 
-4.4318 2.65943 0.75 
-4.43382 2.64821 0.75 
-4.4365 2.63254 0.75 
-4.43848 2.6204 0.75 
-4.44041 2.60795 0.75 
-4.44199 2.59727 0.75 
-4.44441 2.58003 0.75 
-4.44604 2.56784 0.75 
-4.44849 2.5485 0.75 
-4.44972 2.53822 0.75 
-4.45095 2.52764 0.75 
-4.45258 2.51303 0.75 
-4.45377 2.50185 0.75 
-4.45492 2.49065 0.75 
-4.45631 2.47632 0.75 
-4.45733 2.46602 0.75 
-4.45836 2.45603 0.75 
-4.45976 2.4432 0.75 
-4.46118 2.43098 0.75 
-4.46333 2.41372 0.75 
-4.46476 2.40301 0.75 
-4.46688 2.38816 0.75 
-4.4686 2.37674 0.75 
-4.47028 2.36623 0.75 
-4.47217 2.35498 0.75 
-4.47416 2.34376 0.75 
-4.47782 2.3243 0.75 
-4.4802 2.31223 0.75 
-4.48282 2.2993 0.75 
-4.48506 2.28827 0.75 
-4.48989 2.26446 0.75 
-4.49248 2.25167 0.75 
-4.49519 2.23829 0.75 
-4.4973 2.22785 0.75 
-4.49947 2.21711 0.75 
-4.50401 2.19462 0.75 
-4.50639 2.18286 0.75 
-4.51039 2.16301 0.75 
-4.51279 2.1511 0.75 
-4.51519 2.13918 0.75 
-4.5199 2.1158 0.75 
-4.52215 2.10463 0.75 
-4.52575 2.08669 0.75 
-4.52788 2.0761 0.75 
-4.52998 2.06566 0.75 
-4.53406 2.04536 0.75 
-4.53616 2.03492 0.75 
-4.54129 2.00933 0.75 
-4.54359 1.99786 0.75 
-4.54926 1.96962 0.75 
-4.55181 1.95698 0.75 
-4.55765 1.92786 0.75 
-4.56013 1.91551 0.75 
-4.56583 1.88712 0.75 
-4.56817 1.8755 0.75 
-4.57337 1.84962 0.75 
-4.57549 1.83903 0.75 
-4.58037 1.81477 0.75 
-4.58241 1.80462 0.75 
-4.58442 1.79462 0.75 
-4.5884 1.77477 0.75 
-4.5905 1.76433 0.75 
-4.59414 1.74624 0.75 
-4.59641 1.73491 0.75 
-4.59874 1.72329 0.75 
-4.60362 1.69903 0.75 
-4.60616 1.68638 0.75 
-4.61036 1.6655 0.75 
-4.61284 1.65315 0.75 
-4.61532 1.64079 0.75 
-4.6202 1.61653 0.75 
-4.62253 1.60491 0.75 
-4.62628 1.58623 0.75 
-4.6285 1.5752 0.75 
-4.63068 1.56432 0.75 
-4.63417 1.54697 0.75 
-4.63621 1.53682 0.75 
-4.63825 1.52667 0.75 
-4.64139 1.51063 0.75 
-4.64369 1.49839 0.75 
-4.6468 1.48112 0.75 
-4.64866 1.47033 0.75 
-4.65114 1.45523 0.75 
-4.65294 1.44367 0.75 
-4.65465 1.4321 0.75 
-4.65605 1.42215 0.75 
-4.65821 1.40609 0.75 
-4.65967 1.39463 0.75 
-4.66262 1.36991 0.75 
-4.6641 1.35664 0.75 
-4.6663 1.33561 0.75 
-4.66741 1.32456 0.75 
-4.66933 1.30546 0.75 
-4.67054 1.29352 0.75 
-4.67178 1.28128 0.75 
-4.67439 1.25576 0.75 
-4.67575 1.24248 0.75 
-4.67889 1.21204 0.75 
-4.6802 1.19951 0.75 
-4.68321 1.17072 0.75 
-4.68445 1.15893 0.75 
-4.68798 1.12552 0.75 
-4.68912 1.11478 0.75 
-4.69099 1.09733 0.75 
-4.69206 1.08734 0.75 
-4.69528 1.05736 0.75 
-4.69642 1.04677 0.75 
-4.69921 1.02082 0.75 
-4.70046 1.00919 0.75 
-4.70354 0.980553 0.75 
-4.70492 0.967727 0.75 
-4.709 0.929846 0.75 
-4.71035 0.917318 0.75 
-4.71254 0.896886 0.75 
-4.71381 0.885104 0.75 
-4.71545 0.869892 0.75 
-4.71663 0.858855 0.75 
-4.71856 0.840958 0.75 
-4.7197 0.830369 0.75 
-4.7208 0.820079 0.75 
-4.72287 0.800689 0.75 
-4.72409 0.78845 0.75 
-4.72518 0.7768 0.75 
-4.72613 0.765741 0.75 
-4.72768 0.7454 0.75 
-4.72843 0.733875 0.75 
-4.72904 0.723242 0.75 
-4.72956 0.712605 0.75 
-4.73005 0.701065 0.75 
-4.73048 0.688623 0.75 
-4.73085 0.675278 0.75 
-4.7311 0.663881 0.75 
-4.73137 0.645733 0.75 
-4.73147 0.633133 0.75 
-4.73144 0.609133 0.75 
-4.73132 0.598034 0.75 
-4.73114 0.587536 0.75 
-4.7309 0.577038 0.75 
-4.73017 0.55425 0.75 
-4.72968 0.54196 0.75 
-4.72875 0.522482 0.75 
-4.7282 0.512147 0.75 
-4.72666 0.486844 0.75 
-4.72588 0.47547 0.75 
-4.7238 0.447648 0.75 
-4.72285 0.435987 0.75 
-4.72054 0.40999 0.75 
-4.71952 0.399388 0.75 
-4.71631 0.368807 0.75 
-4.71483 0.355992 0.75 
-4.71259 0.33783 0.75 
-4.71111 0.326527 0.75 
-4.70888 0.310481 0.75 
-4.70727 0.299498 0.75 
-4.70457 0.282005 0.75 
-4.70256 0.269567 0.75 
-4.69921 0.249747 0.75 
-4.6974 0.239405 0.75 
-4.69549 0.228775 0.75 
-4.69142 0.206951 0.75 
-4.68938 0.196346 0.75 
-4.68587 0.178691 0.75 
-4.68371 0.168109 0.75 
-4.68155 0.157528 0.75 
-4.67698 0.13519 0.75 
-4.67461 0.12358 0.75 
-4.66894 0.095803 0.75 
-4.6666 0.084338 0.75 
-4.66133 0.058469 0.75 
-4.65912 0.047592 0.75 
-4.65697 0.037009 0.75 
-4.65273 0.016135 0.75 
-4.6507 0.006139 0.75 
-4.64742 -0.010032 0.75 
-4.64486 -0.022675 0.75 
-4.64004 -0.046491 0.75 
-4.63771 -0.057959 0.75 
-4.63546 -0.069133 0.75 
-4.63326 -0.080013 0.75 
-4.62916 -0.100303 0.75 
-4.62672 -0.112359 0.75 
-4.62434 -0.124121 0.75 
-4.62212 -0.135149 0.75 
-4.61989 -0.146176 0.75 
-4.61775 -0.156762 0.75 
-4.6149 -0.170877 0.75 
-4.61104 -0.18999 0.75 
-4.60753 -0.207339 0.75 
-4.60361 -0.226747 0.75 
-4.60046 -0.242332 0.75 
-4.59749 -0.257035 0.75 
-4.59437 -0.272472 0.75 
-4.59178 -0.285264 0.75 
-4.58892 -0.299378 0.75 
-4.58669 -0.310405 0.75 
-4.5847 -0.320256 0.75 
-4.58256 -0.330842 0.75 
-4.58048 -0.341134 0.75 
-4.57825 -0.352161 0.75 
-4.5762 -0.362306 0.75 
