ply
format ascii 1.0
element vertex 155
property float x
property float y
property float z
end_header
-0.00847 0.006701 0.75 
-0.01684 0.013526 0.75 
-0.025612 0.020807 0.75 
-0.033418 0.027372 0.75 
-0.042104 0.034755 0.75 
-0.050186 0.041691 0.75 
-0.058919 0.04925 0.75 
-0.068297 0.057438 0.75 
-0.076294 0.064472 0.75 
-0.084716 0.071931 0.75 
-0.093216 0.079527 0.75 
-0.101335 0.086875 0.75 
-0.108965 0.093868 0.75 
-0.117867 0.102137 0.75 
-0.125292 0.10913 0.75 
-0.133112 0.116579 0.75 
-0.141321 0.12449 0.75 
-0.149914 0.132865 0.75 
-0.158889 0.14171 0.75 
-0.168239 0.151027 0.75 
-0.175534 0.158369 0.75 
-0.18301 0.165954 0.75 
-0.190665 0.173784 0.75 
-0.198496 0.181861 0.75 
-0.206605 0.190295 0.75 
-0.214679 0.198762 0.75 
-0.222615 0.207154 0.75 
-0.23031 0.215361 0.75 
-0.237664 0.22327 0.75 
-0.244984 0.23121 0.75 
-0.25217 0.239071 0.75 
-0.259121 0.246739 0.75 
-0.267938 0.256563 0.75 
-0.276258 0.266026 0.75 
-0.284066 0.275138 0.75 
-0.291373 0.283888 0.75 
-0.298192 0.292263 0.75 
-0.304535 0.300251 0.75 
-0.311777 0.30963 0.75 
-0.318343 0.318392 0.75 
-0.324256 0.326519 0.75 
-0.330478 0.335346 0.75 
-0.336635 0.344401 0.75 
-0.342213 0.352941 0.75 
-0.34753 0.361469 0.75 
-0.352724 0.37042 0.75 
-0.357959 0.380038 0.75 
-0.363217 0.389983 0.75 
-0.368256 0.399705 0.75 
-0.373164 0.409325 0.75 
-0.377685 0.418301 0.75 
-0.382565 0.428104 0.75 
-0.387797 0.438736 0.75 
-0.392264 0.447906 0.75 
-0.396959 0.457632 0.75 
-0.401878 0.467916 0.75 
-0.407017 0.47876 0.75 
-0.411845 0.489087 0.75 
-0.416356 0.4989 0.75 
-0.420559 0.508193 0.75 
-0.425489 0.519298 0.75 
-0.429625 0.528786 0.75 
-0.433942 0.538849 0.75 
-0.438435 0.549489 0.75 
-0.443097 0.560709 0.75 
-0.447924 0.57251 0.75 
-0.452909 0.584895 0.75 
-0.456727 0.594514 0.75 
-0.46067 0.604569 0.75 
-0.46468 0.61492 0.75 
-0.468753 0.625567 0.75 
-0.472888 0.636512 0.75 
-0.47682 0.647052 0.75 
-0.480707 0.65761 0.75 
-0.484499 0.668042 0.75 
-0.488145 0.678208 0.75 
-0.491597 0.687965 0.75 
-0.495008 0.697736 0.75 
-0.498329 0.707381 0.75 
-0.502517 0.71974 0.75 
-0.50644 0.731556 0.75 
-0.510103 0.742826 0.75 
-0.513515 0.753546 0.75 
-0.516682 0.763714 0.75 
-0.519701 0.773614 0.75 
-0.522832 0.784107 0.75 
-0.526071 0.795193 0.75 
-0.529412 0.806875 0.75 
-0.532848 0.819153 0.75 
-0.536373 0.832029 0.75 
-0.539058 0.842025 0.75 
-0.541815 0.852467 0.75 
-0.544604 0.863211 0.75 
-0.547422 0.874257 0.75 
-0.550266 0.885606 0.75 
-0.552954 0.89653 0.75 
-0.555526 0.907174 0.75 
-0.558017 0.917683 0.75 
-0.560464 0.928202 0.75 
-0.562766 0.938293 0.75 
-0.565039 0.94839 0.75 
-0.567345 0.958634 0.75 
-0.569718 0.96917 0.75 
-0.572191 0.980144 0.75 
-0.57473 0.991412 0.75 
-0.577336 1.00297 0.75 
-0.580009 1.01482 0.75 
-0.582781 1.02712 0.75 
-0.585554 1.03941 0.75 
-0.588295 1.05155 0.75 
-0.59097 1.0634 0.75 
-0.593646 1.07526 0.75 
-0.596256 1.08681 0.75 
-0.598801 1.09808 0.75 
-0.60128 1.10905 0.75 
-0.603759 1.12003 0.75 
-0.606173 1.13071 0.75 
-0.608521 1.1411 0.75 
-0.610804 1.15119 0.75 
-0.613087 1.16129 0.75 
-0.615304 1.17109 0.75 
-0.61815 1.18367 0.75 
-0.62093 1.19596 0.75 
-0.623645 1.20796 0.75 
-0.626295 1.21966 0.75 
-0.628878 1.23107 0.75 
-0.631395 1.24219 0.75 
-0.633846 1.25302 0.75 
-0.636231 1.26355 0.75 
-0.638549 1.27379 0.75 
-0.640802 1.28374 0.75 
-0.643517 1.29573 0.75 
-0.646167 1.30744 0.75 
-0.648783 1.319 0.75 
-0.651267 1.32997 0.75 
-0.653652 1.3405 0.75 
-0.65597 1.35074 0.75 
-0.658256 1.36084 0.75 
-0.660839 1.37225 0.75 
-0.663256 1.38293 0.75 
-0.665641 1.39346 0.75 
-0.66786 1.40326 0.75 
-0.67041 1.41453 0.75 
-0.672861 1.42535 0.75 
-0.675179 1.4356 0.75 
-0.67763 1.44642 0.75 
-0.680014 1.45695 0.75 
-0.682465 1.46778 0.75 
-0.68485 1.47831 0.75 
-0.687068 1.48812 0.75 
-0.689386 1.49836 0.75 
-0.691738 1.50874 0.75 
-0.694122 1.51928 0.75 
-0.696441 1.52952 0.75 
-0.698726 1.53961 0.75 
