ply
format ascii 1.0
element vertex 845
property float x
property float y
property float z
end_header
0.010495 -0.000302 0.75 
0.021435 -0.000778 0.75 
0.032819 -0.001375 0.75 
0.042852 -0.001965 0.75 
0.054378 -0.002706 0.75 
0.064928 -0.003435 0.75 
0.076372 -0.004275 0.75 
0.08886 -0.005244 0.75 
0.099325 -0.006099 0.75 
0.109635 -0.007001 0.75 
0.121657 -0.008137 0.75 
0.133221 -0.009319 0.75 
0.145374 -0.010653 0.75 
0.155803 -0.011865 0.75 
0.166822 -0.013209 0.75 
0.178427 -0.01469 0.75 
0.19062 -0.016314 0.75 
0.203397 -0.018087 0.75 
0.21342 -0.019526 0.75 
0.223733 -0.02105 0.75 
0.234336 -0.022661 0.75 
0.245229 -0.024362 0.75 
0.256559 -0.026177 0.75 
0.267882 -0.028038 0.75 
0.279198 -0.029946 0.75 
0.290505 -0.0319 0.75 
0.301361 -0.033822 0.75 
0.311914 -0.035735 0.75 
0.322312 -0.037665 0.75 
0.3327 -0.039644 0.75 
0.342637 -0.041587 0.75 
0.35543 -0.044161 0.75 
0.36762 -0.046692 0.75 
0.379207 -0.049173 0.75 
0.390193 -0.051596 0.75 
0.401018 -0.054052 0.75 
0.412267 -0.056675 0.75 
0.424083 -0.059503 0.75 
0.436465 -0.062543 0.75 
0.449412 -0.065799 0.75 
0.459509 -0.068393 0.75 
0.469885 -0.071105 0.75 
0.48054 -0.073939 0.75 
0.491617 -0.076936 0.75 
0.50268 -0.079981 0.75 
0.513586 -0.083033 0.75 
0.524191 -0.086049 0.75 
0.534349 -0.088987 0.75 
0.544495 -0.091969 0.75 
0.554485 -0.094951 0.75 
0.564174 -0.097888 0.75 
0.573851 -0.100867 0.75 
0.58352 -0.103872 0.75 
0.593332 -0.106921 0.75 
0.603431 -0.110059 0.75 
0.613959 -0.11333 0.75 
0.624775 -0.116689 0.75 
0.635877 -0.120136 0.75 
0.647266 -0.123672 0.75 
0.659085 -0.12734 0.75 
0.67119 -0.131097 0.75 
0.683439 -0.134897 0.75 
0.695688 -0.138697 0.75 
0.707508 -0.142363 0.75 
0.719041 -0.14594 0.75 
0.730431 -0.149471 0.75 
0.741821 -0.153002 0.75 
0.752781 -0.1564 0.75 
0.763456 -0.159708 0.75 
0.773987 -0.162971 0.75 
0.784518 -0.166234 0.75 
0.794619 -0.169364 0.75 
0.804434 -0.172404 0.75 
0.814106 -0.175399 0.75 
0.823777 -0.178394 0.75 
0.8361 -0.18221 0.75 
0.848423 -0.186025 0.75 
0.860173 -0.189662 0.75 
0.871364 -0.193076 0.75 
0.882002 -0.196246 0.75 
0.892084 -0.19918 0.75 
0.903845 -0.202514 0.75 
0.915054 -0.205598 0.75 
0.926719 -0.208714 0.75 
0.936736 -0.21132 0.75 
0.947349 -0.214017 0.75 
0.958559 -0.216799 0.75 
0.970367 -0.21966 0.75 
0.982775 -0.222595 0.75 
0.995783 -0.225597 0.75 
1.00595 -0.227893 0.75 
1.01642 -0.230212 0.75 
1.0272 -0.232554 0.75 
1.03842 -0.234945 0.75 
1.04936 -0.23723 0.75 
1.06001 -0.23941 0.75 
1.07038 -0.241487 0.75 
1.08076 -0.243521 0.75 
1.09114 -0.245526 0.75 
1.10167 -0.247561 0.75 
1.1125 -0.249654 0.75 
1.12376 -0.251832 0.75 
1.13532 -0.254069 0.75 
1.14718 -0.256363 0.75 
1.15933 -0.258714 0.75 
1.17192 -0.261152 0.75 
1.18481 -0.263647 0.75 
1.19769 -0.266143 0.75 
1.21028 -0.268583 0.75 
1.22243 -0.270937 0.75 
1.23429 -0.273235 0.75 
1.24599 -0.275505 0.75 
1.2577 -0.277776 0.75 
1.26896 -0.279961 0.75 
1.27994 -0.28209 0.75 
1.29061 -0.284162 0.75 
1.30099 -0.286177 0.75 
1.31137 -0.288193 0.75 
1.32146 -0.290152 0.75 
1.3314 -0.292082 0.75 
1.34134 -0.294013 0.75 
1.354 -0.296474 0.75 
1.36608 -0.29882 0.75 
1.37814 -0.301216 0.75 
1.3896 -0.303567 0.75 
1.40046 -0.305866 0.75 
1.41072 -0.308105 0.75 
1.42294 -0.310859 0.75 
1.43331 -0.31327 0.75 
1.44425 -0.31588 0.75 
1.45576 -0.318696 0.75 
1.46784 -0.321722 0.75 
1.48048 -0.324965 0.75 
1.49028 -0.327529 0.75 
1.5005 -0.33025 0.75 
1.51099 -0.333091 0.75 
1.52177 -0.336056 0.75 
1.53282 -0.339146 0.75 
1.54386 -0.342282 0.75 
1.55459 -0.345381 0.75 
1.56517 -0.348483 0.75 
1.57574 -0.35163 0.75 
1.58586 -0.354691 0.75 
1.59597 -0.357795 0.75 
1.60607 -0.360937 0.75 
1.61616 -0.364083 0.75 
1.62669 -0.367363 0.75 
1.6375 -0.370731 0.75 
1.6486 -0.374187 0.75 
1.65999 -0.377732 0.75 
1.6718 -0.381411 0.75 
1.68391 -0.385177 0.75 
1.6963 -0.389032 0.75 
1.70897 -0.392976 0.75 
1.72122 -0.396785 0.75 
1.73318 -0.400505 0.75 
1.74485 -0.404135 0.75 
1.75624 -0.407675 0.75 
1.76762 -0.411215 0.75 
1.77873 -0.414666 0.75 
1.78954 -0.418026 0.75 
1.80007 -0.421298 0.75 
1.81017 -0.424435 0.75 
1.82027 -0.427572 0.75 
1.83022 -0.430664 0.75 
1.83989 -0.433667 0.75 
1.84956 -0.43667 0.75 
1.86203 -0.440539 0.75 
1.87435 -0.444363 0.75 
1.8871 -0.448321 0.75 
1.89705 -0.451412 0.75 
1.90729 -0.454592 0.75 
1.91782 -0.45786 0.75 
1.92878 -0.461262 0.75 
1.94003 -0.464753 0.75 
1.95156 -0.468333 0.75 
1.96338 -0.472002 0.75 
1.97563 -0.475805 0.75 
1.98759 -0.479518 0.75 
1.99941 -0.483187 0.75 
2.01123 -0.486856 0.75 
2.02262 -0.490391 0.75 
2.03372 -0.493838 0.75 
2.04468 -0.49724 0.75 
2.05564 -0.500642 0.75 
2.06617 -0.503911 0.75 
2.07641 -0.507091 0.75 
2.08651 -0.510226 0.75 
2.09661 -0.513361 0.75 
2.10642 -0.516408 0.75 
2.11888 -0.520277 0.75 
2.13076 -0.523997 0.75 
2.14205 -0.527611 0.75 
2.15274 -0.531111 0.75 
2.16284 -0.53449 0.75 
2.17235 -0.537737 0.75 
2.18347 -0.541618 0.75 
2.19526 -0.545835 0.75 
2.20527 -0.549486 0.75 
2.21582 -0.553403 0.75 
2.2269 -0.557591 0.75 
2.23852 -0.562056 0.75 
2.25068 -0.566803 0.75 
2.26009 -0.570531 0.75 
2.26991 -0.574466 0.75 
2.27998 -0.578553 0.75 
2.29032 -0.582796 0.75 
2.30092 -0.587197 0.75 
2.31108 -0.591467 0.75 
2.32096 -0.595662 0.75 
2.33053 -0.59978 0.75 
2.33982 -0.603824 0.75 
2.35161 -0.609042 0.75 
2.36283 -0.614086 0.75 
2.37347 -0.618951 0.75 
2.38354 -0.623628 0.75 
2.39358 -0.628366 0.75 
2.40413 -0.63342 0.75 
2.41519 -0.638795 0.75 
2.42623 -0.64423 0.75 
2.43723 -0.649722 0.75 
2.44767 -0.654998 0.75 
2.45756 -0.660052 0.75 
2.46742 -0.665152 0.75 
2.47725 -0.670297 0.75 
2.48654 -0.675204 0.75 
2.4958 -0.680151 0.75 
2.50669 -0.686031 0.75 
2.51728 -0.691819 0.75 
2.52746 -0.697429 0.75 
2.53712 -0.702751 0.75 
2.54664 -0.708 0.75 
2.55591 -0.713103 0.75 
2.56477 -0.717988 0.75 
2.57476 -0.723488 0.75 
2.58461 -0.728916 0.75 
2.59381 -0.73398 0.75 
2.60288 -0.738972 0.75 
2.61181 -0.743891 0.75 
2.62147 -0.749207 0.75 
2.63074 -0.754306 0.75 
2.64072 -0.759801 0.75 
2.65031 -0.765102 0.75 
2.65921 -0.770085 0.75 
2.66867 -0.775446 0.75 
2.67745 -0.780482 0.75 
2.6868 -0.785899 0.75 
2.69605 -0.791324 0.75 
2.70527 -0.796793 0.75 
2.71494 -0.802545 0.75 
2.72429 -0.808104 0.75 
2.73325 -0.813434 0.75 
2.74227 -0.818801 0.75 
2.75097 -0.823975 0.75 
2.76059 -0.829665 0.75 
2.76975 -0.834808 0.75 
2.75981 -0.831449 0.75 
2.74962 -0.827445 0.75 
2.73897 -0.823395 0.75 
2.72954 -0.8199 0.75 
2.71869 -0.815955 0.75 
2.70873 -0.812401 0.75 
2.6979 -0.808601 0.75 
2.68606 -0.804514 0.75 
2.67598 -0.801084 0.75 
2.66546 -0.797553 0.75 
2.65506 -0.794132 0.75 
2.6452 -0.790959 0.75 
2.63369 -0.787335 0.75 
2.62214 -0.7838 0.75 
2.61222 -0.780834 0.75 
2.60171 -0.777756 0.75 
2.59061 -0.774572 0.75 
2.57891 -0.771288 0.75 
2.56662 -0.767909 0.75 
2.55373 -0.764441 0.75 
2.54365 -0.761781 0.75 
2.53327 -0.759087 0.75 
2.52258 -0.756361 0.75 
2.51146 -0.753569 0.75 
2.50031 -0.750824 0.75 
2.48916 -0.748124 0.75 
2.478 -0.745471 0.75 
2.46726 -0.742967 0.75 
2.4568 -0.740575 0.75 
2.44649 -0.738259 0.75 
2.43616 -0.735987 0.75 
2.42626 -0.733852 0.75 
2.41636 -0.731745 0.75 
2.40631 -0.729605 0.75 
2.39596 -0.727403 0.75 
2.38518 -0.725106 0.75 
2.3741 -0.722747 0.75 
2.36274 -0.720324 0.75 
2.35107 -0.717838 0.75 
2.33897 -0.715257 0.75 
2.32657 -0.712613 0.75 
2.31403 -0.709938 0.75 
2.30149 -0.707261 0.75 
2.28939 -0.704678 0.75 
2.27758 -0.702157 0.75 
2.26591 -0.699667 0.75 
2.25425 -0.697177 0.75 
2.24303 -0.694779 0.75 
2.2321 -0.692444 0.75 
2.22132 -0.69014 0.75 
2.21054 -0.687836 0.75 
2.2002 -0.685625 0.75 
2.19015 -0.683477 0.75 
2.18025 -0.681359 0.75 
2.17035 -0.679241 0.75 
2.15773 -0.676543 0.75 
2.14512 -0.673843 0.75 
2.1325 -0.671144 0.75 
2.1226 -0.669025 0.75 
2.11241 -0.666844 0.75 
2.10192 -0.664599 0.75 
2.09114 -0.662292 0.75 
2.07992 -0.659891 0.75 
2.0684 -0.657427 0.75 
2.0566 -0.6549 0.75 
2.0445 -0.652311 0.75 
2.03196 -0.649627 0.75 
2.01971 -0.647006 0.75 
2.00761 -0.644416 0.75 
1.99551 -0.641827 0.75 
1.98385 -0.639331 0.75 
1.97248 -0.636899 0.75 
1.96126 -0.634498 0.75 
1.95004 -0.632097 0.75 
1.93925 -0.62979 0.75 
1.92877 -0.627545 0.75 
1.91843 -0.625333 0.75 
1.90809 -0.62312 0.75 
1.89819 -0.621001 0.75 
1.88542 -0.61827 0.75 
1.87281 -0.615571 0.75 
1.86063 -0.612995 0.75 
1.84902 -0.610617 0.75 
1.83799 -0.608429 0.75 
1.82753 -0.606423 0.75 
1.81764 -0.60459 0.75 
1.80746 -0.602764 0.75 
1.79667 -0.600895 0.75 
1.78528 -0.59899 0.75 
1.77328 -0.597054 0.75 
1.76068 -0.595092 0.75 
1.74748 -0.593113 0.75 
1.73716 -0.591618 0.75 
1.72654 -0.590124 0.75 
1.71562 -0.588633 0.75 
1.70424 -0.587128 0.75 
1.69286 -0.585671 0.75 
1.68147 -0.584261 0.75 
1.67008 -0.5829 0.75 
1.65868 -0.581554 0.75 
1.64699 -0.580171 0.75 
1.635 -0.578753 0.75 
1.62271 -0.577299 0.75 
1.60997 -0.575791 0.75 
1.59694 -0.574248 0.75 
1.58376 -0.572686 0.75 
1.57057 -0.571123 0.75 
1.55784 -0.569612 0.75 
1.5454 -0.568136 0.75 
1.53311 -0.566678 0.75 
1.52082 -0.565218 0.75 
1.50898 -0.563811 0.75 
1.49744 -0.562439 0.75 
1.48604 -0.561085 0.75 
1.47465 -0.559729 0.75 
1.4637 -0.558427 0.75 
1.45305 -0.557159 0.75 
1.44255 -0.555909 0.75 
1.43205 -0.554658 0.75 
1.42199 -0.55346 0.75 
1.40904 -0.551916 0.75 
1.39623 -0.550388 0.75 
1.38386 -0.548914 0.75 
1.3712 -0.547403 0.75 
1.35795 -0.545822 0.75 
1.3476 -0.544587 0.75 
1.33695 -0.543316 0.75 
1.326 -0.54201 0.75 
1.31461 -0.540651 0.75 
1.30291 -0.539256 0.75 
1.29092 -0.537826 0.75 
1.27864 -0.53636 0.75 
1.2659 -0.53484 0.75 
1.25346 -0.533357 0.75 
1.24133 -0.531909 0.75 
1.22948 -0.530496 0.75 
1.21764 -0.529084 0.75 
1.2061 -0.527707 0.75 
1.19485 -0.526366 0.75 
1.18391 -0.52506 0.75 
1.17296 -0.523754 0.75 
1.16231 -0.522484 0.75 
1.15196 -0.521249 0.75 
1.1419 -0.52005 0.75 
1.13185 -0.518851 0.75 
1.11889 -0.517305 0.75 
1.10654 -0.515782 0.75 
1.09479 -0.514208 0.75 
1.08366 -0.512601 0.75 
1.07313 -0.510977 0.75 
1.06321 -0.509353 0.75 
1.05161 -0.507333 0.75 
1.04107 -0.505382 0.75 
1.02959 -0.503128 0.75 
1.01945 -0.501022 0.75 
1.00927 -0.498788 0.75 
0.998751 -0.496347 0.75 
0.9876 -0.493636 0.75 
0.976691 -0.490888 0.75 
0.966599 -0.488275 0.75 
0.956513 -0.48564 0.75 
0.945604 -0.482888 0.75 
0.93445 -0.480195 0.75 
0.924073 -0.477799 0.75 
0.912505 -0.475231 0.75 
0.901724 -0.472923 0.75 
0.890047 -0.470503 0.75 
0.880048 -0.468492 0.75 
0.869449 -0.466415 0.75 
0.858251 -0.46428 0.75 
0.846452 -0.462089 0.75 
0.834053 -0.459851 0.75 
0.821052 -0.45757 0.75 
0.810924 -0.455837 0.75 
0.800494 -0.454092 0.75 
0.789613 -0.452313 0.75 
0.77843 -0.450527 0.75 
0.767242 -0.448772 0.75 
0.756357 -0.447021 0.75 
0.745924 -0.44529 0.75 
0.735796 -0.44356 0.75 
0.722798 -0.441264 0.75 
0.710404 -0.438993 0.75 
0.698614 -0.436756 0.75 
0.687428 -0.43456 0.75 
0.676843 -0.432415 0.75 
0.666272 -0.430204 0.75 
0.655127 -0.427805 0.75 
0.643411 -0.42521 0.75 
0.631125 -0.422415 0.75 
0.618271 -0.419412 0.75 
0.608277 -0.417025 0.75 
0.598002 -0.414525 0.75 
0.587301 -0.411873 0.75 
0.576611 -0.409175 0.75 
0.565933 -0.406431 0.75 
0.555266 -0.403642 0.75 
0.545047 -0.400923 0.75 
0.535129 -0.398238 0.75 
0.525367 -0.39555 0.75 
0.515617 -0.392821 0.75 
0.503184 -0.38938 0.75 
0.491308 -0.38618 0.75 
0.479991 -0.383212 0.75 
0.469235 -0.380467 0.75 
0.459045 -0.377936 0.75 
0.44716 -0.375074 0.75 
0.436129 -0.372508 0.75 
0.425079 -0.370028 0.75 
0.413132 -0.367437 0.75 
0.402857 -0.365277 0.75 
0.391982 -0.363054 0.75 
0.380506 -0.360774 0.75 
0.368429 -0.358443 0.75 
0.355749 -0.356067 0.75 
0.345789 -0.354249 0.75 
0.335526 -0.352419 0.75 
0.32496 -0.350578 0.75 
0.314091 -0.34873 0.75 
0.303659 -0.346999 0.75 
0.292926 -0.345248 0.75 
0.281897 -0.343446 0.75 
0.270572 -0.341594 0.75 
0.258804 -0.339667 0.75 
0.24674 -0.33769 0.75 
0.23438 -0.335662 0.75 
0.221725 -0.333583 0.75 
0.208626 -0.331429 0.75 
0.195823 -0.329322 0.75 
0.183317 -0.327262 0.75 
0.171107 -0.325249 0.75 
0.158897 -0.323234 0.75 
0.146983 -0.321266 0.75 
0.135366 -0.319346 0.75 
0.124045 -0.317473 0.75 
0.113168 -0.315672 0.75 
0.102291 -0.313869 0.75 
0.091563 -0.31209 0.75 
0.08113 -0.310359 0.75 
0.071142 -0.308701 0.75 
0.061154 -0.307041 0.75 
0.048133 -0.304875 0.75 
0.035408 -0.302758 0.75 
0.022979 -0.300687 0.75 
0.010994 -0.298694 0.75 
-0.000262 -0.296884 0.75 
-0.010935 -0.295238 0.75 
-0.021026 -0.293749 0.75 
-0.032835 -0.292091 0.75 
-0.043765 -0.290643 0.75 
-0.055449 -0.289184 0.75 
-0.065429 -0.288004 0.75 
-0.076013 -0.286814 0.75 
-0.087199 -0.285619 0.75 
-0.098989 -0.284425 0.75 
-0.111382 -0.283238 0.75 
-0.124379 -0.282064 0.75 
-0.134467 -0.2812 0.75 
-0.145007 -0.280341 0.75 
-0.15585 -0.279502 0.75 
-0.166845 -0.278694 0.75 
-0.177844 -0.277931 0.75 
-0.188845 -0.277212 0.75 
-0.199548 -0.276525 0.75 
-0.209948 -0.275808 0.75 
-0.220046 -0.275064 0.75 
-0.232906 -0.274045 0.75 
-0.245161 -0.272996 0.75 
-0.256812 -0.271927 0.75 
-0.267859 -0.270845 0.75 
-0.279496 -0.269636 0.75 
-0.291722 -0.268291 0.75 
-0.304537 -0.266807 0.75 
-0.314588 -0.265591 0.75 
-0.324932 -0.264293 0.75 
-0.335568 -0.262913 0.75 
-0.346495 -0.261446 0.75 
-0.357861 -0.259871 0.75 
-0.369221 -0.258246 0.75 
-0.380573 -0.256571 0.75 
-0.391918 -0.254847 0.75 
-0.40281 -0.253143 0.75 
-0.413399 -0.251439 0.75 
-0.423832 -0.249713 0.75 
-0.434257 -0.24794 0.75 
-0.444232 -0.2462 0.75 
-0.457076 -0.243894 0.75 
-0.469771 -0.241599 0.75 
-0.482036 -0.239464 0.75 
-0.493723 -0.237506 0.75 
-0.50483 -0.235718 0.75 
-0.515355 -0.23409 0.75 
-0.525296 -0.232614 0.75 
-0.535543 -0.231157 0.75 
-0.546393 -0.229679 0.75 
-0.557846 -0.228186 0.75 
-0.569902 -0.226686 0.75 
-0.582563 -0.225182 0.75 
-0.595829 -0.223683 0.75 
-0.606194 -0.222562 0.75 
-0.616861 -0.221454 0.75 
-0.627832 -0.22036 0.75 
-0.639255 -0.219269 0.75 
-0.650682 -0.218226 0.75 
-0.661964 -0.217245 0.75 
-0.672952 -0.216336 0.75 
-0.683494 -0.215508 0.75 
-0.69404 -0.214726 0.75 
-0.70444 -0.213998 0.75 
-0.714543 -0.213335 0.75 
-0.725097 -0.212656 0.75 
-0.735949 -0.211956 0.75 
-0.747101 -0.211234 0.75 
-0.758551 -0.210491 0.75 
-0.770451 -0.209716 0.75 
-0.78265 -0.20892 0.75 
-0.795149 -0.208102 0.75 
-0.807946 -0.207263 0.75 
-0.820743 -0.206421 0.75 
-0.833241 -0.205597 0.75 
-0.845589 -0.204782 0.75 
-0.857937 -0.203964 0.75 
-0.869836 -0.203174 0.75 
-0.881436 -0.202403 0.75 
-0.892885 -0.20164 0.75 
-0.904335 -0.200875 0.75 
-0.915335 -0.200139 0.75 
-0.926036 -0.199422 0.75 
-0.936587 -0.198713 0.75 
-0.947138 -0.198004 0.75 
-0.95724 -0.197323 0.75 
-0.967343 -0.196642 0.75 
-0.977594 -0.19595 0.75 
-0.988145 -0.195239 0.75 
-0.999145 -0.194497 0.75 
-1.01044 -0.193735 0.75 
-1.02204 -0.192953 0.75 
-1.03394 -0.19215 0.75 
-1.04629 -0.191318 0.75 
-1.05894 -0.190465 0.75 
-1.07173 -0.189602 0.75 
-1.08453 -0.188739 0.75 
-1.09687 -0.187907 0.75 
-1.10892 -0.187094 0.75 
-1.12082 -0.186292 0.75 
-1.13272 -0.18549 0.75 
-1.14417 -0.184718 0.75 
-1.15532 -0.183966 0.75 
-1.16632 -0.183224 0.75 
-1.17732 -0.182483 0.75 
-1.18787 -0.181771 0.75 
-1.19812 -0.18108 0.75 
-1.20822 -0.180399 0.75 
-1.21832 -0.179718 0.75 
-1.23119 -0.17885 0.75 
-1.24129 -0.178169 0.75 
-1.2517 -0.177468 0.75 
-1.2624 -0.176746 0.75 
-1.2734 -0.176005 0.75 
-1.28485 -0.175233 0.75 
-1.29659 -0.174441 0.75 
-1.30864 -0.173629 0.75 
-1.32099 -0.172796 0.75 
-1.33379 -0.171933 0.75 
-1.34658 -0.171071 0.75 
-1.35923 -0.170218 0.75 
-1.37157 -0.169386 0.75 
-1.38347 -0.168584 0.75 
-1.39507 -0.167802 0.75 
-1.40652 -0.16703 0.75 
-1.41797 -0.166258 0.75 
-1.42897 -0.165516 0.75 
-1.43967 -0.164795 0.75 
-1.45022 -0.164083 0.75 
-1.46077 -0.163372 0.75 
-1.47087 -0.162691 0.75 
-1.48098 -0.16201 0.75 
-1.49415 -0.161138 0.75 
-1.50672 -0.160384 0.75 
-1.51871 -0.159743 0.75 
-1.53009 -0.159207 0.75 
-1.54089 -0.158768 0.75 
-1.55108 -0.158416 0.75 
-1.563 -0.158087 0.75 
-1.57522 -0.157841 0.75 
-1.58572 -0.157699 0.75 
-1.59682 -0.157611 0.75 
-1.60852 -0.157585 0.75 
-1.62082 -0.157625 0.75 
-1.63372 -0.157739 0.75 
-1.64384 -0.157876 0.75 
-1.65427 -0.158061 0.75 
-1.66499 -0.158294 0.75 
-1.67601 -0.158579 0.75 
-1.68703 -0.158909 0.75 
-1.69835 -0.159278 0.75 
-1.70997 -0.159653 0.75 
-1.72189 -0.160035 0.75 
-1.73426 -0.160429 0.75 
-1.74693 -0.16083 0.75 
-1.75989 -0.161237 0.75 
-1.77316 -0.16165 0.75 
-1.78643 -0.162061 0.75 
-1.7994 -0.16246 0.75 
-1.81207 -0.162846 0.75 
-1.82444 -0.163222 0.75 
-1.83636 -0.163581 0.75 
-1.84828 -0.163938 0.75 
-1.86005 -0.164289 0.75 
-1.87152 -0.164628 0.75 
-1.88254 -0.164952 0.75 
-1.89326 -0.165266 0.75 
-1.90383 -0.165574 0.75 
-1.9144 -0.16588 0.75 
-1.92452 -0.166171 0.75 
-1.93464 -0.166461 0.75 
-1.94784 -0.166837 0.75 
-1.96043 -0.167194 0.75 
-1.97273 -0.16754 0.75 
-1.98472 -0.167875 0.75 
-1.99672 -0.168209 0.75 
-2.00931 -0.16856 0.75 
-2.02251 -0.168927 0.75 
-2.03278 -0.169213 0.75 
-2.04335 -0.169507 0.75 
-2.05437 -0.169814 0.75 
-2.06569 -0.17013 0.75 
-2.07731 -0.170453 0.75 
-2.08923 -0.170786 0.75 
-2.1016 -0.17113 0.75 
-2.11397 -0.171475 0.75 
-2.12634 -0.17182 0.75 
-2.13871 -0.172165 0.75 
-2.15063 -0.172498 0.75 
-2.16225 -0.172822 0.75 
-2.17357 -0.173138 0.75 
-2.18459 -0.173445 0.75 
-2.19561 -0.173753 0.75 
-2.20634 -0.174052 0.75 
-2.21691 -0.174347 0.75 
-2.22748 -0.174642 0.75 
-2.2376 -0.174924 0.75 
-2.25064 -0.175289 0.75 
-2.26309 -0.175666 0.75 
-2.27493 -0.176103 0.75 
-2.28617 -0.17659 0.75 
-2.2968 -0.177119 0.75 
-2.30684 -0.177681 0.75 
-2.31859 -0.178419 0.75 
-2.33108 -0.179299 0.75 
-2.3417 -0.180116 0.75 
-2.35292 -0.181044 0.75 
-2.36472 -0.182087 0.75 
-2.37711 -0.183252 0.75 
-2.3901 -0.184545 0.75 
-2.40017 -0.185596 0.75 
-2.41068 -0.186737 0.75 
-2.42149 -0.187955 0.75 
-2.43259 -0.189252 0.75 
-2.44398 -0.190631 0.75 
-2.45492 -0.192002 0.75 
-2.46556 -0.193379 0.75 
-2.47604 -0.194782 0.75 
-2.48651 -0.196228 0.75 
-2.49654 -0.197658 0.75 
-2.50945 -0.199573 0.75 
-2.52175 -0.201476 0.75 
-2.53345 -0.20336 0.75 
-2.54454 -0.205217 0.75 
-2.55504 -0.207039 0.75 
-2.56581 -0.208976 0.75 
-2.57717 -0.211086 0.75 
-2.5891 -0.213375 0.75 
-2.60161 -0.215848 0.75 
-2.61469 -0.218512 0.75 
-2.6249 -0.220643 0.75 
-2.63539 -0.222879 0.75 
-2.64616 -0.225223 0.75 
-2.65736 -0.22771 0.75 
-2.66855 -0.230243 0.75 
-2.67959 -0.232791 0.75 
-2.69032 -0.235316 0.75 
-2.70104 -0.237888 0.75 
-2.71146 -0.240434 0.75 
-2.72158 -0.242951 0.75 
-2.73139 -0.245439 0.75 
-2.74119 -0.247968 0.75 
-2.75381 -0.251294 0.75 
-2.76583 -0.254542 0.75 
-2.77725 -0.257705 0.75 
-2.78807 -0.260775 0.75 
-2.7983 -0.263743 0.75 
-2.80837 -0.26673 0.75 
-2.81885 -0.269907 0.75 
-2.82988 -0.273321 0.75 
-2.84147 -0.27698 0.75 
-2.8536 -0.280887 0.75 
-2.86629 -0.28505 0.75 
-2.87618 -0.288348 0.75 
-2.88634 -0.291784 0.75 
-2.89677 -0.29536 0.75 
-2.90761 -0.299128 0.75 
-2.91843 -0.302941 0.75 
-2.92909 -0.306749 0.75 
-2.93946 -0.310501 0.75 
-2.94939 -0.314142 0.75 
-2.9593 -0.317825 0.75 
-2.96906 -0.321496 0.75 
-2.97852 -0.325102 0.75 
-2.9884 -0.328881 0.75 
-2.99856 -0.332764 0.75 
-3.009 -0.336754 0.75 
-3.01972 -0.340848 0.75 
-3.03086 -0.345101 0.75 
-3.04228 -0.349459 0.75 
-3.05398 -0.353921 0.75 
-3.06596 -0.358489 0.75 
-3.07795 -0.363055 0.75 
-3.08965 -0.367513 0.75 
-3.10122 -0.371915 0.75 
-3.11279 -0.376315 0.75 
-3.12393 -0.380554 0.75 
-3.1348 -0.384685 0.75 
-3.14552 -0.388761 0.75 
-3.15625 -0.392835 0.75 
-3.16656 -0.396749 0.75 
-3.17659 -0.400555 0.75 
-3.18647 -0.404306 0.75 
-3.19636 -0.408056 0.75 
-3.20583 -0.411646 0.75 
-3.21803 -0.416271 0.75 
-3.23009 -0.420842 0.75 
-3.24216 -0.425411 0.75 
-3.25464 -0.43014 0.75 
-3.26439 -0.433832 0.75 
-3.27442 -0.437631 0.75 
-3.28473 -0.441537 0.75 
-3.29546 -0.445601 0.75 
-3.30647 -0.449772 0.75 
-3.31776 -0.45405 0.75 
-3.32934 -0.458433 0.75 
-3.34133 -0.462976 0.75 
-3.35304 -0.467413 0.75 
-3.36462 -0.471796 0.75 
-3.37619 -0.47618 0.75 
-3.38734 -0.480404 0.75 
-3.39821 -0.484522 0.75 
-3.40894 -0.488587 0.75 
-3.41968 -0.492652 0.75 
-3.42999 -0.496557 0.75 
-3.44002 -0.500356 0.75 
-3.4499 -0.504102 0.75 
-3.45979 -0.507848 0.75 
-3.46926 -0.511435 0.75 
-3.48147 -0.516058 0.75 
-3.49353 -0.520627 0.75 
-3.50517 -0.525038 0.75 
-3.51625 -0.529235 0.75 
-3.52719 -0.53338 0.75 
-3.53771 -0.537365 0.75 
-3.54809 -0.541297 0.75 
-3.55805 -0.54507 0.75 
-3.56787 -0.54879 0.75 
-3.57769 -0.552509 0.75 
-3.58709 -0.556069 0.75 
-3.59866 -0.560453 0.75 
-3.60953 -0.564571 0.75 
-3.62012 -0.568583 0.75 
-3.63029 -0.572435 0.75 
-3.64046 -0.576287 0.75 
-3.64993 -0.579874 0.75 
-3.66087 -0.584018 0.75 
-3.67139 -0.588003 0.75 
-3.68191 -0.591988 0.75 
-3.69173 -0.595708 0.75 
-3.70141 -0.599374 0.75 
-3.71186 -0.603333 0.75 
-3.72203 -0.607185 0.75 
-3.73269 -0.611223 0.75 
-3.74321 -0.615209 0.75 
-3.75275 -0.618822 0.75 
-3.76229 -0.622434 0.75 
-3.77218 -0.62618 0.75 
-3.78165 -0.62977 0.75 
-3.7918 -0.63367 0.75 
-3.80179 -0.637567 0.75 
-3.81141 -0.641376 0.75 
-3.82137 -0.645372 0.75 
-3.83095 -0.649272 0.75 
