ply
format ascii 1.0
element vertex 882
property float x
property float y
property float z
end_header
-0.009276 0.005531 0.75 
-0.018469 0.011199 0.75 
-0.028121 0.017265 0.75 
-0.036721 0.022749 0.75 
-0.046301 0.028929 0.75 
-0.055224 0.034744 0.75 
-0.064369 0.040765 0.75 
-0.072722 0.046354 0.75 
-0.082514 0.053027 0.75 
-0.09139 0.059181 0.75 
-0.100957 0.065915 0.75 
-0.109139 0.071751 0.75 
-0.117776 0.077982 0.75 
-0.126865 0.084612 0.75 
-0.136401 0.091646 0.75 
-0.146382 0.099089 0.75 
-0.156803 0.106944 0.75 
-0.164921 0.11312 0.75 
-0.173252 0.119509 0.75 
-0.181797 0.126115 0.75 
-0.190671 0.13303 0.75 
-0.199753 0.140165 0.75 
-0.208808 0.147336 0.75 
-0.217599 0.154355 0.75 
-0.226012 0.161127 0.75 
-0.234398 0.167933 0.75 
-0.242637 0.174682 0.75 
-0.250582 0.181314 0.75 
-0.260619 0.189887 0.75 
-0.270093 0.198194 0.75 
-0.279014 0.20622 0.75 
-0.287392 0.213951 0.75 
-0.295238 0.221372 0.75 
-0.302562 0.228471 0.75 
-0.31096 0.236832 0.75 
-0.318607 0.244669 0.75 
-0.325525 0.251959 0.75 
-0.332841 0.259903 0.75 
-0.340123 0.268081 0.75 
-0.346764 0.275822 0.75 
-0.353655 0.284138 0.75 
-0.360437 0.292543 0.75 
-0.367509 0.301485 0.75 
-0.374417 0.310364 0.75 
-0.380719 0.318574 0.75 
-0.387609 0.327656 0.75 
-0.394987 0.337498 0.75 
-0.401243 0.34593 0.75 
-0.407818 0.354873 0.75 
-0.414708 0.36433 0.75 
-0.421907 0.374303 0.75 
-0.429412 0.384795 0.75 
-0.435228 0.392991 0.75 
-0.44119 0.401451 0.75 
-0.447115 0.409937 0.75 
-0.45283 0.418204 0.75 
-0.460107 0.428856 0.75 
-0.466982 0.439055 0.75 
-0.473462 0.448797 0.75 
-0.479553 0.458076 0.75 
-0.485425 0.467141 0.75 
-0.491404 0.476493 0.75 
-0.497649 0.486387 0.75 
-0.504154 0.496826 0.75 
-0.510914 0.507813 0.75 
-0.516138 0.516398 0.75 
-0.521481 0.525262 0.75 
-0.527017 0.534536 0.75 
-0.532666 0.54409 0.75 
-0.538351 0.553798 0.75 
-0.543995 0.56353 0.75 
-0.549598 0.573286 0.75 
-0.555009 0.582805 0.75 
-0.560228 0.592089 0.75 
-0.565256 0.601135 0.75 
-0.571607 0.612707 0.75 
-0.577599 0.623791 0.75 
-0.583241 0.634382 0.75 
-0.588539 0.644476 0.75 
-0.5935 0.654069 0.75 
-0.598677 0.664226 0.75 
-0.604064 0.674949 0.75 
-0.609655 0.68624 0.75 
-0.615444 0.698103 0.75 
-0.619937 0.707427 0.75 
-0.624519 0.717041 0.75 
-0.629187 0.726946 0.75 
-0.63394 0.737142 0.75 
-0.638649 0.747359 0.75 
-0.643314 0.757597 0.75 
-0.647873 0.767717 0.75 
-0.652266 0.777583 0.75 
-0.656436 0.787056 0.75 
-0.660565 0.796547 0.75 
-0.664594 0.805917 0.75 
-0.66969 0.817931 0.75 
-0.674481 0.829422 0.75 
-0.678972 0.840389 0.75 
-0.683171 0.850825 0.75 
-0.687141 0.860869 0.75 
-0.691104 0.871077 0.75 
-0.695221 0.881868 0.75 
-0.699486 0.893245 0.75 
-0.703892 0.90521 0.75 
-0.708434 0.917763 0.75 
-0.711908 0.927513 0.75 
-0.715489 0.937702 0.75 
-0.718929 0.947622 0.75 
-0.72223 0.957273 0.75 
-0.726439 0.969784 0.75 
-0.730532 0.982176 0.75 
-0.73442 0.994161 0.75 
-0.738201 1.00602 0.75 
-0.741792 1.01747 0.75 
-0.745328 1.02878 0.75 
-0.748688 1.03952 0.75 
-0.751914 1.04983 0.75 
-0.755097 1.05999 0.75 
-0.758146 1.06972 0.75 
-0.761153 1.07931 0.75 
-0.764743 1.09076 0.75 
-0.768336 1.10221 0.75 
-0.77175 1.11309 0.75 
-0.775076 1.12368 0.75 
-0.778224 1.1337 0.75 
-0.781373 1.14371 0.75 
-0.784928 1.15502 0.75 
-0.788439 1.16618 0.75 
-0.791727 1.17662 0.75 
-0.794971 1.18692 0.75 
-0.797991 1.19651 0.75 
-0.801463 1.20753 0.75 
-0.80462 1.21754 0.75 
-0.807686 1.22727 0.75 
-0.810933 1.23757 0.75 
-0.81418 1.24787 0.75 
-0.817517 1.25846 0.75 
-0.820763 1.26876 0.75 
-0.823919 1.27877 0.75 
-0.827075 1.28879 0.75 
-0.830141 1.29851 0.75 
-0.833388 1.30882 0.75 
-0.836544 1.31883 0.75 
-0.839655 1.3287 0.75 
-0.836499 1.31869 0.75 
-0.833298 1.30853 0.75 
-0.830187 1.29866 0.75 
-0.827076 1.28879 0.75 
-0.823559 1.27763 0.75 
-0.820312 1.26733 0.75 
-0.816796 1.25617 0.75 
-0.813775 1.24658 0.75 
-0.810574 1.23643 0.75 
-0.807192 1.2257 0.75 
-0.80363 1.2144 0.75 
-0.799888 1.20252 0.75 
-0.795965 1.19007 0.75 
-0.792899 1.18035 0.75 
-0.789743 1.17033 0.75 
-0.786497 1.16003 0.75 
-0.783115 1.1493 0.75 
-0.779644 1.13829 0.75 
-0.776082 1.12698 0.75 
-0.77243 1.11539 0.75 
-0.768913 1.10424 0.75 
-0.765486 1.09336 0.75 
-0.762105 1.08263 0.75 
-0.758723 1.0719 0.75 
-0.755477 1.0616 0.75 
-0.752321 1.05159 0.75 
-0.749165 1.04157 0.75 
-0.745918 1.03127 0.75 
-0.742537 1.02054 0.75 
-0.739065 1.00953 0.75 
-0.735503 0.998226 0.75 
-0.731851 0.986638 0.75 
-0.728064 0.97462 0.75 
-0.724186 0.962317 0.75 
-0.720309 0.950013 0.75 
-0.716522 0.937996 0.75 
-0.712734 0.925979 0.75 
-0.709037 0.914247 0.75 
-0.70543 0.902802 0.75 
-0.701913 0.891643 0.75 
-0.698397 0.880485 0.75 
-0.69497 0.869612 0.75 
-0.691634 0.859025 0.75 
-0.688387 0.848724 0.75 
-0.685141 0.838424 0.75 
-0.681985 0.828409 0.75 
-0.678919 0.818681 0.75 
-0.674951 0.806092 0.75 
-0.671028 0.793645 0.75 
-0.667241 0.781628 0.75 
-0.663504 0.769752 0.75 
-0.660007 0.75843 0.75 
-0.656758 0.747659 0.75 
-0.653749 0.737444 0.75 
-0.650969 0.727785 0.75 
-0.647812 0.716519 0.75 
-0.644859 0.705664 0.75 
-0.641833 0.694207 0.75 
-0.639292 0.684328 0.75 
-0.636659 0.673854 0.75 
-0.633942 0.662783 0.75 
-0.631144 0.651114 0.75 
-0.628274 0.638845 0.75 
-0.625335 0.625976 0.75 
-0.623078 0.615875 0.75 
-0.620798 0.605472 0.75 
-0.618496 0.594767 0.75 
-0.616175 0.583759 0.75 
-0.613991 0.573182 0.75 
-0.611834 0.5626 0.75 
-0.609646 0.551871 0.75 
-0.607397 0.540848 0.75 
-0.605056 0.529384 0.75 
-0.602654 0.517627 0.75 
-0.600191 0.505576 0.75 
-0.597666 0.493232 0.75 
-0.59505 0.480447 0.75 
-0.592432 0.467662 0.75 
-0.589844 0.455025 0.75 
-0.587314 0.442681 0.75 
-0.584873 0.430779 0.75 
-0.582432 0.418877 0.75 
-0.580019 0.407122 0.75 
-0.577666 0.395661 0.75 
-0.575402 0.384641 0.75 
-0.573198 0.373915 0.75 
-0.571023 0.363336 0.75 
-0.568848 0.352758 0.75 
-0.566762 0.34262 0.75 
-0.564675 0.332482 0.75 
-0.562618 0.322492 0.75 
-0.559986 0.30971 0.75 
-0.557413 0.297223 0.75 
-0.554718 0.284147 0.75 
-0.55263 0.27401 0.75 
-0.55045 0.263433 0.75 
-0.548209 0.252561 0.75 
-0.545909 0.241396 0.75 
-0.543547 0.229937 0.75 
-0.541095 0.218037 0.75 
-0.538582 0.205843 0.75 
-0.536009 0.193355 0.75 
-0.533375 0.180574 0.75 
-0.530833 0.168233 0.75 
-0.52835 0.156186 0.75 
-0.525928 0.144433 0.75 
-0.523567 0.132974 0.75 
-0.521206 0.121515 0.75 
-0.518905 0.110349 0.75 
-0.516665 0.099478 0.75 
-0.514486 0.0889 0.75 
-0.512306 0.078322 0.75 
-0.510187 0.068038 0.75 
-0.508129 0.058048 0.75 
-0.505465 0.04512 0.75 
-0.502831 0.032338 0.75 
-0.500288 0.019997 0.75 
-0.497781 0.007803 0.75 
-0.495455 -0.003817 0.75 
-0.493318 -0.014862 0.75 
-0.49136 -0.025331 0.75 
-0.489575 -0.035221 0.75 
-0.487525 -0.047044 0.75 
-0.485489 -0.059327 0.75 
-0.483815 -0.069844 0.75 
-0.48211 -0.080964 0.75 
-0.48038 -0.092687 0.75 
-0.47863 -0.105014 0.75 
-0.476867 -0.117944 0.75 
-0.475537 -0.128057 0.75 
-0.474211 -0.138473 0.75 
-0.472891 -0.149192 0.75 
-0.471561 -0.160363 0.75 
-0.470277 -0.171539 0.75 
-0.469038 -0.182721 0.75 
-0.467845 -0.193908 0.75 
-0.466744 -0.204651 0.75 
-0.465717 -0.215101 0.75 
-0.464728 -0.225554 0.75 
-0.463714 -0.236307 0.75 
-0.462654 -0.247507 0.75 
-0.461564 -0.259005 0.75 
-0.460442 -0.270802 0.75 
-0.459289 -0.282897 0.75 
-0.458091 -0.29544 0.75 
-0.456861 -0.308281 0.75 
-0.455629 -0.321122 0.75 
-0.454422 -0.333664 0.75 
-0.453213 -0.346206 0.75 
-0.452031 -0.358449 0.75 
-0.450875 -0.370393 0.75 
-0.449745 -0.382038 0.75 
-0.448614 -0.393684 0.75 
-0.447509 -0.40503 0.75 
-0.446432 -0.416078 0.75 
-0.445382 -0.426826 0.75 
-0.44433 -0.437575 0.75 
-0.443306 -0.448025 0.75 
-0.44231 -0.458176 0.75 
-0.441004 -0.471462 0.75 
-0.439991 -0.481762 0.75 
-0.438699 -0.494899 0.75 
-0.437466 -0.507439 0.75 
-0.436291 -0.519381 0.75 
-0.435176 -0.530726 0.75 
-0.434119 -0.541475 0.75 
-0.433121 -0.551626 0.75 
-0.431962 -0.563419 0.75 
-0.430891 -0.574316 0.75 
-0.429907 -0.584318 0.75 
-0.428895 -0.594619 0.75 
-0.42778 -0.605964 0.75 
-0.426577 -0.618205 0.75 
-0.42555 -0.628655 0.75 
-0.424464 -0.639701 0.75 
-0.42332 -0.651345 0.75 
-0.42219 -0.662991 0.75 
-0.421186 -0.674045 0.75 
-0.420305 -0.684508 0.75 
-0.41936 -0.696772 0.75 
-0.418573 -0.708144 0.75 
-0.417919 -0.718774 0.75 
-0.417295 -0.730307 0.75 
-0.416711 -0.742744 0.75 
-0.416277 -0.753385 0.75 
-0.41588 -0.764628 0.75 
-0.415525 -0.776472 0.75 
-0.415218 -0.788919 0.75 
-0.414966 -0.801966 0.75 
-0.414816 -0.812165 0.75 
-0.414703 -0.822664 0.75 
-0.414629 -0.833464 0.75 
-0.414673 -0.844264 0.75 
-0.414868 -0.854762 0.75 
-0.415204 -0.864956 0.75 
-0.415853 -0.87799 0.75 
-0.416707 -0.890411 0.75 
-0.41774 -0.902215 0.75 
-0.418927 -0.913402 0.75 
-0.420243 -0.92397 0.75 
-0.421662 -0.93392 0.75 
-0.423539 -0.945468 0.75 
-0.425498 -0.956088 0.75 
-0.427879 -0.967543 0.75 
-0.430227 -0.977623 0.75 
-0.432819 -0.987643 0.75 
-0.435733 -0.99773 0.75 
-0.438806 -1.0073 0.75 
-0.442155 -1.01725 0.75 
-0.445795 -1.02774 0.75 
-0.449515 -1.0382 0.75 
-0.452993 -1.04778 0.75 
-0.456836 -1.0582 0.75 
-0.461104 -1.06957 0.75 
-0.464786 -1.07925 0.75 
-0.468725 -1.08946 0.75 
-0.472925 -1.10022 0.75 
-0.477391 -1.11152 0.75 
-0.482128 -1.12336 0.75 
-0.487139 -1.13573 0.75 
-0.491059 -1.14531 0.75 
-0.49516 -1.1553 0.75 
-0.499372 -1.16557 0.75 
-0.503698 -1.17612 0.75 
-0.508135 -1.18695 0.75 
-0.512742 -1.19819 0.75 
-0.517461 -1.20971 0.75 
-0.522292 -1.22151 0.75 
-0.527235 -1.23359 0.75 
-0.532177 -1.24566 0.75 
-0.537004 -1.25747 0.75 
-0.541716 -1.26899 0.75 
-0.546313 -1.28024 0.75 
-0.550739 -1.29107 0.75 
-0.555164 -1.3019 0.75 
-0.559531 -1.31259 0.75 
-0.563783 -1.323 0.75 
-0.567864 -1.333 0.75 
-0.571945 -1.343 0.75 
-0.575967 -1.35286 0.75 
-0.579876 -1.36245 0.75 
-0.58486 -1.37467 0.75 
-0.589843 -1.38689 0.75 
-0.594597 -1.39856 0.75 
-0.599351 -1.41023 0.75 
-0.603877 -1.42135 0.75 
-0.60863 -1.43302 0.75 
-0.613608 -1.44524 0.75 
-0.617512 -1.45483 0.75 
-0.621529 -1.46469 0.75 
-0.625658 -1.47483 0.75 
-0.629902 -1.48525 0.75 
-0.634314 -1.49609 0.75 
-0.638841 -1.5072 0.75 
-0.64348 -1.51859 0.75 
-0.648232 -1.53026 0.75 
-0.652984 -1.54193 0.75 
-0.657624 -1.55332 0.75 
-0.66215 -1.56444 0.75 
-0.666563 -1.57527 0.75 
-0.670976 -1.58611 0.75 
-0.675276 -1.59667 0.75 
-0.679462 -1.60695 0.75 
-0.683536 -1.61695 0.75 
-0.687609 -1.62695 0.75 
-0.69157 -1.63667 0.75 
-0.695417 -1.64612 0.75 
-0.700396 -1.65835 0.75 
-0.705313 -1.67043 0.75 
-0.709942 -1.68199 0.75 
-0.714275 -1.69302 0.75 
-0.718321 -1.70352 0.75 
-0.722087 -1.71348 0.75 
-0.725581 -1.7229 0.75 
-0.729574 -1.7339 0.75 
-0.733483 -1.74493 0.75 
-0.736778 -1.75442 0.75 
-0.740214 -1.7645 0.75 
-0.743785 -1.77517 0.75 
-0.747488 -1.78643 0.75 
-0.751181 -1.79785 0.75 
-0.754818 -1.80928 0.75 
-0.758268 -1.8203 0.75 
-0.761623 -1.8312 0.75 
-0.7648 -1.84168 0.75 
-0.76789 -1.85203 0.75 
-0.770811 -1.86196 0.75 
-0.773646 -1.87175 0.75 
-0.776433 -1.88156 0.75 
-0.779174 -1.89139 0.75 
-0.78238 -1.90311 0.75 
-0.785444 -1.91456 0.75 
-0.788296 -1.92544 0.75 
-0.790982 -1.9359 0.75 
-0.793545 -1.94608 0.75 
-0.796024 -1.95613 0.75 
-0.798772 -1.9675 0.75 
-0.801429 -1.97874 0.75 
-0.803862 -1.98927 0.75 
-0.806215 -1.99965 0.75 
-0.808715 -2.01093 0.75 
-0.811065 -2.02178 0.75 
-0.813232 -2.03205 0.75 
-0.815334 -2.04234 0.75 
-0.81737 -2.05279 0.75 
-0.819215 -2.06267 0.75 
-0.821154 -2.0733 0.75 
-0.823054 -2.08393 0.75 
-0.824871 -2.09412 0.75 
-0.826976 -2.10394 0.75 
-0.830384 -2.11353 0.75 
-0.83465 -2.12346 0.75 
-0.838777 -2.13278 0.75 
-0.843283 -2.14276 0.75 
-0.847787 -2.15258 0.75 
-0.852025 -2.16169 0.75 
-0.856687 -2.1716 0.75 
-0.861779 -2.1823 0.75 
-0.866198 -2.19149 0.75 
-0.870911 -2.20121 0.75 
-0.875921 -2.21145 0.75 
-0.880985 -2.22166 0.75 
-0.885844 -2.23131 0.75 
-0.890489 -2.24039 0.75 
-0.896096 -2.25117 0.75 
-0.900934 -2.26032 0.75 
-0.906108 -2.26997 0.75 
-0.911623 -2.28012 0.75 
-0.917486 -2.29076 0.75 
-0.9237 -2.30189 0.75 
-0.930271 -2.31351 0.75 
-0.935409 -2.3225 0.75 
-0.940809 -2.33185 0.75 
-0.9464 -2.34144 0.75 
-0.952183 -2.35126 0.75 
-0.95816 -2.36132 0.75 
-0.964179 -2.37136 0.75 
-0.970086 -2.38111 0.75 
-0.975877 -2.39058 0.75 
-0.98155 -2.39977 0.75 
-0.987263 -2.40893 0.75 
-0.992829 -2.41783 0.75 
-0.998195 -2.42651 0.75 
-1.005 -2.43764 0.75 
-1.01142 -2.44831 0.75 
-1.01747 -2.4585 0.75 
-1.02316 -2.4682 0.75 
-1.02864 -2.47769 0.75 
-1.03436 -2.48772 0.75 
-1.04031 -2.49831 0.75 
-1.04649 -2.50946 0.75 
-1.0529 -2.52118 0.75 
-1.05782 -2.53028 0.75 
-1.06291 -2.5398 0.75 
-1.06797 -2.54935 0.75 
-1.07291 -2.55878 0.75 
-1.07768 -2.56797 0.75 
-1.0824 -2.57718 0.75 
-1.08696 -2.58614 0.75 
-1.09288 -2.59793 0.75 
-1.0986 -2.60949 0.75 
-1.104 -2.62054 0.75 
-1.1092 -2.63136 0.75 
-1.11415 -2.64196 0.75 
-1.11874 -2.65207 0.75 
-1.12296 -2.66168 0.75 
-1.12778 -2.673 0.75 
-1.13212 -2.68354 0.75 
-1.13594 -2.69316 0.75 
-1.13996 -2.70367 0.75 
-1.14389 -2.71437 0.75 
-1.14745 -2.72457 0.75 
-1.15067 -2.73424 0.75 
-1.15384 -2.74441 0.75 
-1.15685 -2.75463 0.75 
-1.15969 -2.76473 0.75 
-1.16227 -2.7746 0.75 
-1.16457 -2.78439 0.75 
-1.16662 -2.79453 0.75 
-1.16854 -2.8047 0.75 
-1.17033 -2.81459 0.75 
-1.17207 -2.82464 0.75 
-1.17397 -2.83588 0.75 
-1.17565 -2.84625 0.75 
-1.17725 -2.85678 0.75 
-1.17875 -2.86762 0.75 
-1.1801 -2.87864 0.75 
-1.18135 -2.88997 0.75 
-1.18246 -2.90102 0.75 
-1.18342 -2.91147 0.75 
-1.18434 -2.92253 0.75 
-1.18515 -2.9333 0.75 
-1.18586 -2.94408 0.75 
-1.18648 -2.95486 0.75 
-1.187 -2.96595 0.75 
-1.18739 -2.97674 0.75 
-1.18767 -2.98679 0.75 
-1.18786 -2.99684 0.75 
-1.18793 -3.00689 0.75 
-1.18785 -3.01754 0.75 
-1.18777 -3.02834 0.75 
-1.18769 -3.03974 0.75 
-1.18762 -3.04993 0.75 
-1.18754 -3.06134 0.75 
-1.18747 -3.07199 0.75 
-1.18739 -3.08353 0.75 
-1.18731 -3.09598 0.75 
-1.18723 -3.10663 0.75 
-1.18716 -3.11788 0.75 
-1.18708 -3.12973 0.75 
-1.187 -3.14218 0.75 
-1.18691 -3.15523 0.75 
-1.18684 -3.16543 0.75 
-1.18677 -3.17593 0.75 
-1.1867 -3.18673 0.75 
-1.18662 -3.19798 0.75 
-1.18655 -3.20953 0.75 
-1.18647 -3.22138 0.75 
-1.18638 -3.23353 0.75 
-1.1863 -3.24613 0.75 
-1.18622 -3.25843 0.75 
-1.18614 -3.27043 0.75 
-1.18606 -3.28213 0.75 
-1.18598 -3.29338 0.75 
-1.18591 -3.30463 0.75 
-1.18583 -3.31573 0.75 
-1.18576 -3.32653 0.75 
-1.18569 -3.33688 0.75 
-1.18562 -3.34723 0.75 
-1.18555 -3.35743 0.75 
-1.18546 -3.37063 0.75 
-1.18537 -3.38383 0.75 
-1.18528 -3.39718 0.75 
-1.18522 -3.40753 0.75 
-1.18514 -3.41833 0.75 
-1.18507 -3.42943 0.75 
-1.18499 -3.44082 0.75 
-1.18491 -3.45252 0.75 
-1.18483 -3.46467 0.75 
-1.18475 -3.47712 0.75 
-1.18466 -3.48972 0.75 
-1.18458 -3.50232 0.75 
-1.18449 -3.51492 0.75 
-1.18441 -3.52722 0.75 
-1.18433 -3.53922 0.75 
-1.18425 -3.55092 0.75 
-1.18418 -3.56217 0.75 
-1.1841 -3.57342 0.75 
-1.18403 -3.58452 0.75 
-1.18395 -3.59532 0.75 
-1.18388 -3.60567 0.75 
-1.18382 -3.61602 0.75 
-1.18375 -3.62622 0.75 
-1.18366 -3.63942 0.75 
-1.18357 -3.65247 0.75 
-1.18349 -3.66507 0.75 
-1.1834 -3.67752 0.75 
-1.18332 -3.68967 0.75 
-1.18323 -3.70242 0.75 
-1.18314 -3.71577 0.75 
-1.18307 -3.72612 0.75 
-1.183 -3.73692 0.75 
-1.18293 -3.74802 0.75 
-1.18285 -3.75942 0.75 
-1.18277 -3.77112 0.75 
-1.18269 -3.78327 0.75 
-1.18261 -3.79572 0.75 
-1.18252 -3.80832 0.75 
-1.18244 -3.82092 0.75 
-1.18236 -3.83307 0.75 
-1.18228 -3.84492 0.75 
-1.1822 -3.85647 0.75 
-1.18212 -3.86772 0.75 
-1.18205 -3.87897 0.75 
-1.18198 -3.88992 0.75 
-1.1819 -3.90057 0.75 
-1.18183 -3.91091 0.75 
-1.18176 -3.92126 0.75 
-1.1817 -3.93131 0.75 
-1.18161 -3.94451 0.75 
-1.18152 -3.95742 0.75 
-1.18145 -3.96972 0.75 
-1.18146 -3.98142 0.75 
-1.18154 -3.99252 0.75 
-1.18169 -4.00301 0.75 
-1.18194 -4.01531 0.75 
-1.18227 -4.02671 0.75 
-1.18268 -4.0381 0.75 
-1.18321 -4.05039 0.75 
-1.18373 -4.06087 0.75 
-1.18434 -4.07196 0.75 
-1.18505 -4.08364 0.75 
-1.18586 -4.09591 0.75 
-1.18678 -4.10878 0.75 
-1.18754 -4.1188 0.75 
-1.18837 -4.12911 0.75 
-1.18928 -4.13988 0.75 
-1.19026 -4.15093 0.75 
-1.19128 -4.16199 0.75 
-1.19232 -4.17274 0.75 
-1.1934 -4.18348 0.75 
-1.19449 -4.19392 0.75 
-1.19561 -4.20406 0.75 
-1.1971 -4.21703 0.75 
-1.19861 -4.22939 0.75 
-1.20011 -4.24114 0.75 
-1.20163 -4.25244 0.75 
-1.20323 -4.26388 0.75 
-1.205 -4.2759 0.75 
-1.20692 -4.2885 0.75 
-1.20901 -4.30169 0.75 
-1.21068 -4.3119 0.75 
-1.21247 -4.32255 0.75 
-1.21436 -4.33349 0.75 
-1.21635 -4.34472 0.75 
-1.21844 -4.35623 0.75 
-1.2205 -4.36729 0.75 
-1.2226 -4.37834 0.75 
-1.22473 -4.38923 0.75 
-1.22685 -4.39982 0.75 
-1.22901 -4.4104 0.75 
-1.23116 -4.42068 0.75 
-1.23328 -4.43066 0.75 
-1.23593 -4.44344 0.75 
-1.23837 -4.45565 0.75 
-1.24061 -4.46728 0.75 
-1.24267 -4.47834 0.75 
-1.24454 -4.48883 0.75 
-1.24625 -4.49873 0.75 
-1.24815 -4.51027 0.75 
-1.24982 -4.52095 0.75 
-1.25145 -4.53192 0.75 
-1.25316 -4.54395 0.75 
-1.25454 -4.55421 0.75 
-1.25594 -4.56507 0.75 
-1.25736 -4.57653 0.75 
-1.25879 -4.5886 0.75 
-1.26022 -4.60127 0.75 
-1.26164 -4.61454 0.75 
-1.2627 -4.62484 0.75 
-1.26375 -4.63558 0.75 
-1.26474 -4.64604 0.75 
-1.26568 -4.6562 0.75 
-1.267 -4.66918 0.75 
-1.26843 -4.68155 0.75 
-1.26994 -4.6933 0.75 
-1.27151 -4.70444 0.75 
-1.27313 -4.71496 0.75 
-1.27479 -4.72488 0.75 
-1.27686 -4.73639 0.75 
-1.27894 -4.74699 0.75 
-1.28136 -4.75844 0.75 
-1.28368 -4.76852 0.75 
-1.28616 -4.77857 0.75 
-1.28891 -4.78886 0.75 
-1.29189 -4.79909 0.75 
-1.29481 -4.80886 0.75 
-1.2979 -4.81921 0.75 
-1.30115 -4.83013 0.75 
-1.30436 -4.84092 0.75 
-1.3073 -4.85084 0.75 
-1.31055 -4.86177 0.75 
-1.31404 -4.87356 0.75 
-1.31703 -4.88363 0.75 
-1.32018 -4.89427 0.75 
-1.32351 -4.90549 0.75 
-1.327 -4.91728 0.75 
-1.33066 -4.92965 0.75 
-1.33439 -4.94231 0.75 
-1.33793 -4.95472 0.75 
-1.34123 -4.96657 0.75 
-1.34428 -4.97786 0.75 
-1.34719 -4.98888 0.75 
-1.3501 -5.00022 0.75 
-1.35311 -5.01214 0.75 
-1.35621 -5.02466 0.75 
-1.35858 -5.03443 0.75 
-1.361 -5.04449 0.75 
-1.3635 -5.055 0.75 
-1.36605 -5.0658 0.75 
-1.36864 -5.0769 0.75 
-1.37129 -5.0883 0.75 
-1.37393 -5.0997 0.75 
-1.37649 -5.11081 0.75 
-1.37901 -5.12177 0.75 
-1.38153 -5.13274 0.75 
-1.38395 -5.14326 0.75 
-1.38631 -5.15349 0.75 
-1.38865 -5.16358 0.75 
-1.39099 -5.17366 0.75 
-1.394 -5.18651 0.75 
-1.39704 -5.19874 0.75 
-1.40018 -5.21032 0.75 
-1.4034 -5.22126 0.75 
-1.40665 -5.23155 0.75 
-1.40994 -5.24121 0.75 
-1.41401 -5.25234 0.75 
-1.41804 -5.26252 0.75 
-1.42199 -5.27176 0.75 
-1.4265 -5.28157 0.75 
-1.43138 -5.29138 0.75 
-1.4362 -5.30036 0.75 
-1.44125 -5.30905 0.75 
-1.44685 -5.31776 0.75 
-1.45258 -5.32601 0.75 
-1.45875 -5.33469 0.75 
-1.46479 -5.34309 0.75 
-1.47088 -5.35147 0.75 
-1.47778 -5.36091 0.75 
-1.48381 -5.36914 0.75 
-1.4903 -5.37814 0.75 
-1.4967 -5.38721 0.75 
-1.50335 -5.39684 0.75 
-1.50974 -5.40628 0.75 
-1.51564 -5.41514 0.75 
-1.52198 -5.4248 0.75 
-1.52875 -5.43525 0.75 
-1.53449 -5.44422 0.75 
-1.5405 -5.45373 0.75 
-1.54679 -5.46377 0.75 
-1.55335 -5.47436 0.75 
-1.56016 -5.48548 0.75 
-1.56546 -5.4942 0.75 
-1.57087 -5.5032 0.75 
-1.57641 -5.51247 0.75 
-1.58191 -5.52177 0.75 
-1.58721 -5.53083 0.75 
-1.59231 -5.53966 0.75 
-1.59879 -5.55099 0.75 
-1.60489 -5.56184 0.75 
-1.61064 -5.57221 0.75 
-1.61611 -5.58221 0.75 
-1.62159 -5.59237 0.75 
-1.62729 -5.60311 0.75 
-1.6332 -5.6144 0.75 
-1.63933 -5.62626 0.75 
-1.64403 -5.63548 0.75 
-1.64889 -5.64513 0.75 
-1.65385 -5.65506 0.75 
-1.65889 -5.66528 0.75 
-1.66402 -5.6758 0.75 
-1.66891 -5.68593 0.75 
-1.67363 -5.69581 0.75 
-1.67824 -5.70557 0.75 
-1.68281 -5.71536 0.75 
-1.68717 -5.72475 0.75 
-1.69141 -5.73386 0.75 
-1.69685 -5.74556 0.75 
-1.70204 -5.75671 0.75 
-1.70711 -5.76758 0.75 
-1.71205 -5.77819 0.75 
-1.71687 -5.78852 0.75 
-1.72156 -5.79858 0.75 
-1.72612 -5.80837 0.75 
-1.73056 -5.81789 0.75 
-1.73487 -5.82713 0.75 
-1.74008 -5.83827 0.75 
-1.74516 -5.84915 0.75 
-1.74992 -5.85934 0.75 
-1.75468 -5.86953 0.75 
-1.75926 -5.87931 0.75 
-1.76413 -5.88995 0.75 
-1.76826 -5.89944 0.75 
-1.77221 -5.90901 0.75 
-1.77606 -5.91894 0.75 
-1.77944 -5.9284 0.75 
-1.78223 -5.93821 0.75 
-1.78478 -5.94885 0.75 
-1.78728 -5.95982 0.75 
-1.78963 -5.97052 0.75 
-1.79188 -5.98108 0.75 
-1.79393 -5.99092 0.75 
-1.79611 -6.00165 0.75 
-1.79841 -6.01328 0.75 
-1.80036 -6.02329 0.75 
-1.80239 -6.0339 0.75 
-1.8045 -6.0451 0.75 
-1.8067 -6.05689 0.75 
-1.80898 -6.06929 0.75 
-1.81132 -6.08228 0.75 
-1.81312 -6.09247 0.75 
-1.81495 -6.10296 0.75 
-1.81681 -6.11375 0.75 
-1.81868 -6.12485 0.75 
-1.82059 -6.13639 0.75 
-1.82251 -6.14823 0.75 
-1.82439 -6.16009 0.75 
-1.82618 -6.17165 0.75 
-1.82786 -6.18277 0.75 
-1.82949 -6.1939 0.75 
-1.83106 -6.20489 0.75 
-1.83254 -6.21559 0.75 
-1.83391 -6.22585 0.75 
-1.83519 -6.23582 0.75 
-1.83677 -6.24862 0.75 
-1.8382 -6.26084 0.75 
-1.83952 -6.27277 0.75 
-1.84076 -6.2844 0.75 
-1.84201 -6.29543 0.75 
-1.84325 -6.30585 0.75 
-1.84456 -6.31627 0.75 
-1.846 -6.32728 0.75 
-1.84751 -6.33828 0.75 
-1.84903 -6.34897 0.75 
-1.85057 -6.35935 0.75 
-1.85211 -6.36944 0.75 
-1.8537 -6.37951 0.75 
-1.85569 -6.39165 0.75 
-1.85769 -6.40348 0.75 
-1.85963 -6.41457 0.75 
-1.86157 -6.42534 0.75 
-1.86349 -6.43567 0.75 
-1.86545 -6.44598 0.75 
-1.86765 -6.45717 0.75 
-1.86972 -6.46715 0.75 
-1.87188 -6.47697 0.75 
-1.87423 -6.48705 0.75 
-1.87671 -6.49694 0.75 
-1.87946 -6.50739 0.75 
-1.88244 -6.51824 0.75 
-1.88558 -6.52935 0.75 
-1.88852 -6.53943 0.75 
-1.89153 -6.54949 0.75 
-1.89488 -6.56038 0.75 
-1.89803 -6.57025 0.75 
-1.9014 -6.5805 0.75 
-1.90489 -6.59073 0.75 
-1.90821 -6.60021 0.75 
-1.91188 -6.61037 0.75 
-1.91564 -6.62049 0.75 
-1.91939 -6.6303 0.75 
-1.92312 -6.63979 0.75 
-1.92722 -6.64995 0.75 
-1.93112 -6.65921 0.75 
-1.93545 -6.6691 0.75 
-1.93992 -6.67893 0.75 
-1.94447 -6.68856 0.75 
-1.94907 -6.698 0.75 
