ply
format ascii 1.0
element vertex 751
property float x
property float y
property float z
end_header
0.006726 -0.007964 0.75 
0.012696 -0.016587 0.75 
0.018341 -0.025794 0.75 
0.023852 -0.035169 0.75 
0.029214 -0.044543 0.75 
0.034825 -0.054553 0.75 
0.040254 -0.064406 0.75 
0.045231 -0.073567 0.75 
0.050585 -0.083546 0.75 
0.056311 -0.094347 0.75 
0.061186 -0.103647 0.75 
0.0663 -0.113498 0.75 
0.07165 -0.123904 0.75 
0.077231 -0.134865 0.75 
0.083037 -0.146384 0.75 
0.088779 -0.157936 0.75 
0.094185 -0.168984 0.75 
0.099261 -0.179525 0.75 
0.104016 -0.189555 0.75 
0.108456 -0.19907 0.75 
0.112839 -0.208612 0.75 
0.117414 -0.218725 0.75 
0.122174 -0.229413 0.75 
0.127114 -0.240677 0.75 
0.132228 -0.25252 0.75 
0.136197 -0.261835 0.75 
0.140243 -0.271443 0.75 
0.144364 -0.281345 0.75 
0.148557 -0.291541 0.75 
0.152877 -0.302172 0.75 
0.157151 -0.312821 0.75 
0.161326 -0.323349 0.75 
0.165346 -0.333614 0.75 
0.169323 -0.343897 0.75 
0.173148 -0.353917 0.75 
0.176825 -0.363672 0.75 
0.18035 -0.373163 0.75 
0.184776 -0.385281 0.75 
0.188923 -0.39686 0.75 
0.1928 -0.407899 0.75 
0.196414 -0.418394 0.75 
0.199773 -0.428343 0.75 
0.203261 -0.43888 0.75 
0.206873 -0.450009 0.75 
0.210603 -0.461729 0.75 
0.214445 -0.474044 0.75 
0.217412 -0.483724 0.75 
0.220425 -0.493705 0.75 
0.223481 -0.503985 0.75 
0.226579 -0.514566 0.75 
0.229757 -0.525592 0.75 
0.232888 -0.536632 0.75 
0.235932 -0.54754 0.75 
0.23885 -0.558172 0.75 
0.241723 -0.568816 0.75 
0.244474 -0.579182 0.75 
0.247104 -0.589269 0.75 
0.249617 -0.599078 0.75 
0.252088 -0.608897 0.75 
0.254604 -0.619013 0.75 
0.257195 -0.629421 0.75 
0.259861 -0.640118 0.75 
0.262637 -0.651253 0.75 
0.265488 -0.662677 0.75 
0.268413 -0.674392 0.75 
0.271413 -0.686398 0.75 
0.274525 -0.69884 0.75 
0.277638 -0.711281 0.75 
0.280717 -0.723577 0.75 
0.283725 -0.735581 0.75 
0.286734 -0.747584 0.75 
0.289673 -0.759296 0.75 
0.29254 -0.770717 0.75 
0.295335 -0.781846 0.75 
0.298132 -0.792975 0.75 
0.300857 -0.803813 0.75 
0.30351 -0.814359 0.75 
0.306091 -0.824614 0.75 
0.308674 -0.834869 0.75 
0.311184 -0.844833 0.75 
0.314411 -0.857632 0.75 
0.317639 -0.870431 0.75 
0.320152 -0.880395 0.75 
0.322738 -0.890648 0.75 
0.325434 -0.901339 0.75 
0.328203 -0.91232 0.75 
0.331046 -0.923592 0.75 
0.333962 -0.935155 0.75 
0.336988 -0.947154 0.75 
0.340087 -0.959444 0.75 
0.343223 -0.97188 0.75 
0.346359 -0.984316 0.75 
0.349384 -0.996315 0.75 
0.352337 -1.00802 0.75 
0.355216 -1.01944 0.75 
0.358021 -1.03057 0.75 
0.360827 -1.04169 0.75 
0.363559 -1.05253 0.75 
0.366218 -1.06308 0.75 
0.368803 -1.07333 0.75 
0.371389 -1.08358 0.75 
0.373901 -1.09355 0.75 
0.376376 -1.10336 0.75 
0.378852 -1.11318 0.75 
0.381327 -1.123 0.75 
0.383875 -1.13311 0.75 
0.386497 -1.14351 0.75 
0.389193 -1.1542 0.75 
0.391998 -1.16533 0.75 
0.394877 -1.17674 0.75 
0.397829 -1.18845 0.75 
0.400854 -1.20045 0.75 
0.40399 -1.21289 0.75 
0.407125 -1.22532 0.75 
0.410224 -1.23761 0.75 
0.413249 -1.24961 0.75 
0.416164 -1.26118 0.75 
0.41908 -1.27274 0.75 
0.421959 -1.28416 0.75 
0.424764 -1.29528 0.75 
0.427459 -1.30597 0.75 
0.430155 -1.31667 0.75 
0.432813 -1.32721 0.75 
0.435399 -1.33747 0.75 
0.437874 -1.34728 0.75 
0.440349 -1.3571 0.75 
0.443576 -1.3699 0.75 
0.44673 -1.38241 0.75 
0.449957 -1.39521 0.75 
0.452469 -1.40517 0.75 
0.455054 -1.41542 0.75 
0.45775 -1.42612 0.75 
0.460518 -1.4371 0.75 
0.46336 -1.44837 0.75 
0.466276 -1.45993 0.75 
0.469301 -1.47193 0.75 
0.4724 -1.48422 0.75 
0.475498 -1.49651 0.75 
0.478524 -1.50851 0.75 
0.481549 -1.52051 0.75 
0.484501 -1.53222 0.75 
0.48738 -1.54364 0.75 
0.490185 -1.55476 0.75 
0.492991 -1.56589 0.75 
0.495723 -1.57673 0.75 
0.498381 -1.58727 0.75 
0.500967 -1.59753 0.75 
0.503552 -1.60778 0.75 
0.506064 -1.61774 0.75 
0.508539 -1.62756 0.75 
0.511014 -1.63738 0.75 
0.5136 -1.64763 0.75 
0.516258 -1.65818 0.75 
0.51899 -1.66901 0.75 
0.521796 -1.68014 0.75 
0.524711 -1.6917 0.75 
0.5277 -1.70356 0.75 
0.530762 -1.7157 0.75 
0.533897 -1.72814 0.75 
0.537032 -1.74057 0.75 
0.540094 -1.75272 0.75 
0.543083 -1.76457 0.75 
0.545999 -1.77614 0.75 
0.548914 -1.7877 0.75 
0.551756 -1.79897 0.75 
0.554525 -1.80995 0.75 
0.55722 -1.82064 0.75 
0.559915 -1.83133 0.75 
0.562537 -1.84174 0.75 
0.565086 -1.85184 0.75 
0.567561 -1.86166 0.75 
0.570036 -1.87148 0.75 
0.573227 -1.88413 0.75 
0.576381 -1.89664 0.75 
0.579424 -1.90871 0.75 
0.582294 -1.92021 0.75 
0.584947 -1.93114 0.75 
0.587391 -1.94151 0.75 
0.589637 -1.95131 0.75 
0.592188 -1.9628 0.75 
0.594652 -1.97431 0.75 
0.59669 -1.98416 0.75 
0.59879 -1.9946 0.75 
0.600946 -2.00564 0.75 
0.603152 -2.01728 0.75 
0.605403 -2.02953 0.75 
0.607692 -2.04237 0.75 
0.60942 -2.05235 0.75 
0.611184 -2.06278 0.75 
0.612953 -2.07351 0.75 
0.614727 -2.08454 0.75 
0.616503 -2.09588 0.75 
0.618165 -2.10678 0.75 
0.619797 -2.11768 0.75 
0.621452 -2.12873 0.75 
0.623152 -2.14008 0.75 
0.62492 -2.15187 0.75 
0.626733 -2.16396 0.75 
0.628591 -2.17635 0.75 
0.630494 -2.18903 0.75 
0.632464 -2.20216 0.75 
0.634391 -2.21499 0.75 
0.636296 -2.22767 0.75 
0.638201 -2.24036 0.75 
0.640041 -2.25259 0.75 
0.641836 -2.26453 0.75 
0.643588 -2.27618 0.75 
0.645295 -2.28752 0.75 
0.647002 -2.29887 0.75 
0.648666 -2.30992 0.75 
0.650285 -2.32068 0.75 
0.65186 -2.33113 0.75 
0.653436 -2.34159 0.75 
0.654967 -2.35175 0.75 
0.656476 -2.36176 0.75 
0.657985 -2.37178 0.75 
0.659908 -2.38453 0.75 
0.661832 -2.39729 0.75 
0.663342 -2.4073 0.75 
0.664897 -2.41761 0.75 
0.666496 -2.42821 0.75 
0.66814 -2.43911 0.75 
0.669852 -2.45046 0.75 
0.671608 -2.4621 0.75 
0.673408 -2.47404 0.75 
0.675254 -2.48628 0.75 
0.677166 -2.49896 0.75 
0.679034 -2.51135 0.75 
0.680879 -2.52358 0.75 
0.682725 -2.53582 0.75 
0.684503 -2.54761 0.75 
0.686237 -2.55911 0.75 
0.687948 -2.57045 0.75 
0.689659 -2.5818 0.75 
0.691303 -2.5927 0.75 
0.692902 -2.60331 0.75 
0.694479 -2.61377 0.75 
0.696056 -2.62422 0.75 
0.697566 -2.63423 0.75 
0.699076 -2.64424 0.75 
0.700608 -2.65441 0.75 
0.702185 -2.66486 0.75 
0.703829 -2.67576 0.75 
0.705518 -2.68696 0.75 
0.707252 -2.69846 0.75 
0.70903 -2.71025 0.75 
0.710875 -2.72249 0.75 
0.712765 -2.73502 0.75 
0.714678 -2.7477 0.75 
0.71659 -2.76038 0.75 
0.718435 -2.77262 0.75 
0.720236 -2.78456 0.75 
0.722014 -2.79635 0.75 
0.723793 -2.80814 0.75 
0.725504 -2.81949 0.75 
0.72717 -2.83054 0.75 
0.728814 -2.84144 0.75 
0.730458 -2.85234 0.75 
0.732035 -2.8628 0.75 
0.733567 -2.87296 0.75 
0.735077 -2.88297 0.75 
0.736587 -2.89298 0.75 
0.738164 -2.90344 0.75 
0.739786 -2.91419 0.75 
0.741452 -2.92524 0.75 
0.743163 -2.93659 0.75 
0.744942 -2.94838 0.75 
0.746765 -2.96047 0.75 
0.748632 -2.97286 0.75 
0.750545 -2.98554 0.75 
0.752457 -2.99822 0.75 
0.754325 -3.0106 0.75 
0.75617 -3.02284 0.75 
0.758016 -3.03508 0.75 
0.759794 -3.04687 0.75 
0.761527 -3.05836 0.75 
0.763238 -3.06971 0.75 
0.76495 -3.08106 0.75 
0.766594 -3.09196 0.75 
0.768193 -3.10256 0.75 
0.76977 -3.11302 0.75 
0.771347 -3.12348 0.75 
0.772857 -3.13349 0.75 
0.774803 -3.14639 0.75 
0.776695 -3.15915 0.75 
0.778444 -3.17148 0.75 
0.780034 -3.18322 0.75 
0.781474 -3.19438 0.75 
0.782772 -3.20495 0.75 
0.783989 -3.21538 0.75 
0.785194 -3.22626 0.75 
0.786397 -3.23775 0.75 
0.787593 -3.24984 0.75 
0.788775 -3.26254 0.75 
0.789938 -3.27584 0.75 
0.790796 -3.28623 0.75 
0.791632 -3.29692 0.75 
0.792446 -3.30791 0.75 
0.793245 -3.31936 0.75 
0.793995 -3.33081 0.75 
0.794696 -3.34226 0.75 
0.795323 -3.35327 0.75 
0.795902 -3.36428 0.75 
0.796465 -3.37559 0.75 
0.797046 -3.3872 0.75 
0.797644 -3.39911 0.75 
0.798267 -3.41147 0.75 
0.798907 -3.42413 0.75 
0.799565 -3.43709 0.75 
0.80024 -3.45035 0.75 
0.800918 -3.4636 0.75 
0.801582 -3.47656 0.75 
0.802233 -3.48922 0.75 
0.802871 -3.50158 0.75 
0.803487 -3.51349 0.75 
0.804105 -3.5254 0.75 
0.804717 -3.53716 0.75 
0.805315 -3.54862 0.75 
0.80589 -3.55963 0.75 
0.806468 -3.57064 0.75 
0.807039 -3.5815 0.75 
0.807595 -3.59206 0.75 
0.808129 -3.60217 0.75 
0.808664 -3.61228 0.75 
0.8092 -3.62239 0.75 
0.809885 -3.63527 0.75 
0.81058 -3.6483 0.75 
0.811119 -3.65841 0.75 
0.811682 -3.66897 0.75 
0.81226 -3.67983 0.75 
0.812855 -3.69099 0.75 
0.813466 -3.70245 0.75 
0.8141 -3.71436 0.75 
0.814719 -3.72597 0.75 
0.81533 -3.73743 0.75 
0.81594 -3.74888 0.75 
0.816527 -3.75989 0.75 
0.817097 -3.7706 0.75 
0.81766 -3.78116 0.75 
0.818222 -3.79172 0.75 
0.818761 -3.80183 0.75 
0.819299 -3.81194 0.75 
0.820001 -3.82512 0.75 
0.820671 -3.83771 0.75 
0.821325 -3.84999 0.75 
0.821963 -3.86197 0.75 
0.822585 -3.87366 0.75 
0.823207 -3.88534 0.75 
0.823813 -3.89672 0.75 
0.824403 -3.90781 0.75 
0.824977 -3.91859 0.75 
0.825536 -3.92908 0.75 
0.826078 -3.93926 0.75 
0.826736 -3.95162 0.75 
0.827394 -3.96398 0.75 
0.828012 -3.97558 0.75 
0.828614 -3.98689 0.75 
0.829192 -3.99775 0.75 
0.82977 -4.00861 0.75 
0.830309 -4.01872 0.75 
0.83092 -4.03041 0.75 
0.831452 -4.04165 0.75 
0.831906 -4.05244 0.75 
0.83229 -4.06278 0.75 
0.832659 -4.07425 0.75 
0.832955 -4.08527 0.75 
0.833192 -4.09599 0.75 
0.833387 -4.10739 0.75 
0.833524 -4.11849 0.75 
0.833603 -4.12869 0.75 
0.833639 -4.13972 0.75 
0.833622 -4.14984 0.75 
0.833551 -4.16079 0.75 
0.833427 -4.17151 0.75 
0.833254 -4.18224 0.75 
0.83303 -4.19296 0.75 
0.83278 -4.20301 0.75 
0.832525 -4.21313 0.75 
0.832259 -4.2237 0.75 
0.831994 -4.2342 0.75 
0.831713 -4.24537 0.75 
0.831437 -4.25632 0.75 
0.831178 -4.26659 0.75 
0.830897 -4.27776 0.75 
0.830592 -4.28983 0.75 
0.830332 -4.30018 0.75 
0.830067 -4.31068 0.75 
0.829814 -4.32072 0.75 
0.829517 -4.33249 0.75 
0.829247 -4.34321 0.75 
0.828953 -4.35491 0.75 
0.828692 -4.36526 0.75 
0.828429 -4.37568 0.75 
0.828163 -4.38625 0.75 
0.827898 -4.39675 0.75 
0.828171 -4.38595 0.75 
0.828437 -4.37538 0.75 
0.8287 -4.36496 0.75 
0.82896 -4.35461 0.75 
0.829255 -4.34292 0.75 
0.829525 -4.33219 0.75 
0.829822 -4.32042 0.75 
0.830075 -4.31038 0.75 
0.830343 -4.29973 0.75 
0.830627 -4.28848 0.75 
0.830925 -4.27664 0.75 
0.831239 -4.26419 0.75 
0.831567 -4.25114 0.75 
0.831822 -4.24102 0.75 
0.832089 -4.23045 0.75 
0.832363 -4.21958 0.75 
0.832644 -4.20841 0.75 
0.832933 -4.19694 0.75 
0.833234 -4.18501 0.75 
0.833534 -4.17309 0.75 
0.833831 -4.16132 0.75 
0.83412 -4.14985 0.75 
0.834398 -4.13883 0.75 
0.834675 -4.1278 0.75 
0.834949 -4.11693 0.75 
0.835216 -4.10636 0.75 
0.835482 -4.09579 0.75 
0.835741 -4.08552 0.75 
0.836 -4.07524 0.75 
0.836266 -4.06467 0.75 
0.836544 -4.05365 0.75 
0.836829 -4.04233 0.75 
0.837122 -4.03071 0.75 
0.837423 -4.01879 0.75 
0.837734 -4.00642 0.75 
0.838054 -3.99375 0.75 
0.838377 -3.98092 0.75 
0.8387 -3.9681 0.75 
0.839012 -3.95573 0.75 
0.839323 -3.94336 0.75 
0.839631 -3.93114 0.75 
0.839932 -3.91922 0.75 
0.840221 -3.90775 0.75 
0.84051 -3.89628 0.75 
0.840795 -3.88495 0.75 
0.841073 -3.87393 0.75 
0.841339 -3.86336 0.75 
0.841606 -3.85279 0.75 
0.841868 -3.84237 0.75 
0.842123 -3.83225 0.75 
0.842448 -3.81935 0.75 
0.842773 -3.80646 0.75 
0.843028 -3.79633 0.75 
0.843291 -3.78591 0.75 
0.843561 -3.77519 0.75 
0.843839 -3.76417 0.75 
0.844128 -3.7527 0.75 
0.844425 -3.74093 0.75 
0.844729 -3.72886 0.75 
0.84504 -3.71649 0.75 
0.845363 -3.70367 0.75 
0.845687 -3.69084 0.75 
0.846006 -3.67817 0.75 
0.846318 -3.6658 0.75 
0.846618 -3.65388 0.75 
0.846911 -3.64226 0.75 
0.8472 -3.63079 0.75 
0.847489 -3.61932 0.75 
0.847767 -3.60829 0.75 
0.848037 -3.59757 0.75 
0.848303 -3.587 0.75 
0.84857 -3.57643 0.75 
0.848848 -3.56541 0.75 
0.849133 -3.55409 0.75 
0.849426 -3.54247 0.75 
0.849726 -3.53055 0.75 
0.850038 -3.51817 0.75 
0.850357 -3.5055 0.75 
0.850684 -3.49253 0.75 
0.851018 -3.47926 0.75 
0.851342 -3.46644 0.75 
0.851657 -3.45392 0.75 
0.851969 -3.44155 0.75 
0.85228 -3.42918 0.75 
0.852581 -3.41726 0.75 
0.852874 -3.40564 0.75 
0.853159 -3.39431 0.75 
0.853437 -3.38329 0.75 
0.853714 -3.37227 0.75 
0.853985 -3.36155 0.75 
0.854247 -3.35113 0.75 
0.854502 -3.34101 0.75 
0.854757 -3.33088 0.75 
0.855086 -3.31784 0.75 
0.855411 -3.30494 0.75 
0.855725 -3.2925 0.75 
0.856046 -3.27975 0.75 
0.856382 -3.26641 0.75 
0.856645 -3.25599 0.75 
0.856915 -3.24526 0.75 
0.857193 -3.23424 0.75 
0.857482 -3.22277 0.75 
0.857778 -3.211 0.75 
0.858083 -3.19893 0.75 
0.858394 -3.18656 0.75 
0.858717 -3.17374 0.75 
0.859033 -3.16122 0.75 
0.859341 -3.14899 0.75 
0.859641 -3.13707 0.75 
0.859942 -3.12515 0.75 
0.860234 -3.11353 0.75 
0.86052 -3.10221 0.75 
0.860797 -3.09119 0.75 
0.861075 -3.08017 0.75 
0.861345 -3.06945 0.75 
0.861608 -3.05903 0.75 
0.861863 -3.0489 0.75 
0.862118 -3.03878 0.75 
0.862447 -3.02574 0.75 
0.862772 -3.01284 0.75 
0.863085 -3.0004 0.75 
0.863384 -2.98855 0.75 
0.86369 -2.9764 0.75 
0.864011 -2.96366 0.75 
0.864347 -2.95031 0.75 
0.86461 -2.93989 0.75 
0.86488 -2.92917 0.75 
0.865158 -2.91815 0.75 
0.865447 -2.90668 0.75 
0.865744 -2.89491 0.75 
0.866048 -2.88283 0.75 
0.86636 -2.87046 0.75 
0.866671 -2.85809 0.75 
0.866983 -2.84572 0.75 
0.867291 -2.8335 0.75 
0.867591 -2.82158 0.75 
0.86788 -2.81011 0.75 
0.868162 -2.79894 0.75 
0.86844 -2.78791 0.75 
0.868717 -2.77689 0.75 
0.868984 -2.76632 0.75 
0.86925 -2.75575 0.75 
0.869517 -2.74518 0.75 
0.869783 -2.73461 0.75 
0.870061 -2.72359 0.75 
0.870346 -2.71227 0.75 
0.870639 -2.70064 0.75 
0.870939 -2.68872 0.75 
0.871251 -2.67635 0.75 
0.87157 -2.66368 0.75 
0.871897 -2.65071 0.75 
0.872232 -2.63744 0.75 
0.872555 -2.62462 0.75 
0.87287 -2.6121 0.75 
0.873178 -2.59987 0.75 
0.873478 -2.58795 0.75 
0.873779 -2.57603 0.75 
0.874072 -2.56441 0.75 
0.874357 -2.55309 0.75 
0.874635 -2.54207 0.75 
0.874901 -2.5315 0.75 
0.875168 -2.52093 0.75 
0.87543 -2.5105 0.75 
0.875685 -2.50038 0.75 
0.876062 -2.48749 0.75 
0.8765 -2.4752 0.75 
0.87699 -2.46351 0.75 
0.877524 -2.45242 0.75 
0.878094 -2.44194 0.75 
0.878727 -2.43145 0.75 
0.879461 -2.42038 0.75 
0.880303 -2.40871 0.75 
0.881259 -2.39645 0.75 
0.882334 -2.38359 0.75 
0.883228 -2.37351 0.75 
0.884192 -2.36313 0.75 
0.885229 -2.35245 0.75 
0.886341 -2.34148 0.75 
0.887547 -2.33007 0.75 
0.888802 -2.31866 0.75 
0.890088 -2.30741 0.75 
0.891386 -2.29646 0.75 
0.892681 -2.28597 0.75 
0.893986 -2.27578 0.75 
0.895736 -2.26269 0.75 
0.897484 -2.25022 0.75 
0.899223 -2.23834 0.75 
0.900944 -2.22707 0.75 
0.902686 -2.21611 0.75 
0.904543 -2.20486 0.75 
0.906567 -2.19303 0.75 
0.908764 -2.18063 0.75 
0.91114 -2.16764 0.75 
0.91304 -2.15755 0.75 
0.91504 -2.14716 0.75 
0.917171 -2.13634 0.75 
0.919408 -2.12524 0.75 
0.921723 -2.114 0.75 
0.924086 -2.10277 0.75 
0.926403 -2.092 0.75 
0.928702 -2.08152 0.75 
0.931041 -2.07105 0.75 
0.933449 -2.06029 0.75 
0.935953 -2.0491 0.75 
0.938521 -2.0376 0.75 
0.941152 -2.02582 0.75 
0.943846 -2.01374 0.75 
0.946635 -2.00122 0.75 
0.949488 -1.98841 0.75 
0.952339 -1.9756 0.75 
0.955122 -1.96308 0.75 
0.957806 -1.951 0.75 
0.960488 -1.93892 0.75 
0.963136 -1.92698 0.75 
0.965717 -1.91534 0.75 
0.968198 -1.90414 0.75 
0.970614 -1.89323 0.75 
0.972996 -1.88246 0.75 
0.975376 -1.8717 0.75 
0.977658 -1.86137 0.75 
0.979874 -1.85134 0.75 
0.982056 -1.84145 0.75 
0.984238 -1.83157 0.75 
0.987015 -1.81897 0.75 
0.989195 -1.80908 0.75 
0.991439 -1.7989 0.75 
0.993748 -1.78842 0.75 
0.996121 -1.77766 0.75 
0.998591 -1.76645 0.75 
1.00113 -1.75495 0.75 
1.00373 -1.74316 0.75 
1.00639 -1.73108 0.75 
1.00915 -1.71855 0.75 
1.01191 -1.70603 0.75 
1.01464 -1.69365 0.75 
1.0173 -1.68157 0.75 
1.01987 -1.66992 0.75 
1.02244 -1.65828 0.75 
1.02497 -1.64678 0.75 
1.02744 -1.63557 0.75 
1.02982 -1.6248 0.75 
1.03219 -1.61404 0.75 
1.03453 -1.60342 0.75 
1.03681 -1.59309 0.75 
1.03899 -1.5832 0.75 
1.04117 -1.57332 0.75 
1.04401 -1.56043 0.75 
1.04674 -1.54812 0.75 
1.0494 -1.53642 0.75 
1.05201 -1.52533 0.75 
1.05454 -1.51483 0.75 
1.057 -1.50493 0.75 
1.05951 -1.49504 0.75 
1.06223 -1.48459 0.75 
1.06517 -1.47357 0.75 
1.06833 -1.462 0.75 
1.07171 -1.44986 0.75 
1.07533 -1.43717 0.75 
1.07819 -1.4273 0.75 
1.08118 -1.41716 0.75 
1.08434 -1.40659 0.75 
1.08764 -1.39576 0.75 
1.09102 -1.38479 0.75 
1.09444 -1.37384 0.75 
1.09778 -1.36333 0.75 
1.10116 -1.35284 0.75 
1.10454 -1.3425 0.75 
1.10787 -1.33246 0.75 
1.11124 -1.32244 0.75 
1.11456 -1.31272 0.75 
1.11889 -1.30025 0.75 
1.1231 -1.28837 0.75 
1.12717 -1.27708 0.75 
1.13111 -1.26639 0.75 
1.13491 -1.25628 0.75 
1.13876 -1.24619 0.75 
1.1429 -1.23556 0.75 
1.14731 -1.2244 0.75 
1.15201 -1.21271 0.75 
1.15701 -1.2005 0.75 
1.16094 -1.191 0.75 
1.16504 -1.18125 0.75 
1.16934 -1.1711 0.75 
1.17381 -1.1607 0.75 
1.17839 -1.15017 0.75 
1.183 -1.13967 0.75 
1.18748 -1.1296 0.75 
1.192 -1.11954 0.75 
1.1965 -1.10964 0.75 
1.20092 -1.10003 0.75 
1.2052 -1.09085 0.75 
1.21077 -1.07905 0.75 
1.21616 -1.06783 0.75 
1.22135 -1.05718 0.75 
1.22635 -1.0471 0.75 
1.23113 -1.03758 0.75 
1.23611 -1.02783 0.75 
1.24142 -1.01757 0.75 
1.24707 -1.00682 0.75 
1.25306 -0.995564 0.75 
1.2594 -0.983816 0.75 
1.2644 -0.974666 0.75 
1.26958 -0.965275 0.75 
1.27494 -0.955644 0.75 
1.28057 -0.945643 0.75 
1.28624 -0.935665 0.75 
1.29188 -0.925843 0.75 
1.2974 -0.916303 0.75 
1.30274 -0.907176 0.75 
1.30812 -0.898072 0.75 
1.31354 -0.888988 0.75 
1.31896 -0.879907 0.75 
1.3246 -0.870439 0.75 
1.3304 -0.860712 0.75 
1.33628 -0.850857 0.75 
1.34193 -0.841387 0.75 
1.34757 -0.831918 0.75 
1.35307 -0.822706 0.75 
1.3584 -0.813751 0.75 
1.36359 -0.805053 0.75 
1.36877 -0.796355 0.75 
1.37553 -0.785016 0.75 
1.38213 -0.773934 0.75 
1.3885 -0.763238 0.75 
1.3948 -0.75267 0.75 
1.40094 -0.74236 0.75 
1.40669 -0.732694 0.75 
1.41237 -0.723156 0.75 
1.41782 -0.714005 0.75 
1.42319 -0.704982 0.75 
1.42856 -0.695959 0.75 
1.43377 -0.687194 0.75 
1.4401 -0.676559 0.75 
1.44605 -0.666569 0.75 
1.45184 -0.656836 0.75 
1.4574 -0.647489 0.75 
1.46295 -0.638142 0.75 
1.46821 -0.629311 0.75 
1.47426 -0.619126 0.75 
1.48001 -0.609456 0.75 
1.48553 -0.600172 0.75 
1.49082 -0.591276 0.75 
1.49611 -0.582378 0.75 
1.50189 -0.572643 0.75 
1.50745 -0.563294 0.75 
1.51327 -0.553494 0.75 
1.51902 -0.543822 0.75 
1.52423 -0.535053 0.75 
1.52936 -0.526412 0.75 
1.53453 -0.517707 0.75 
1.5397 -0.509001 0.75 
1.54525 -0.499651 0.75 
1.55073 -0.490429 0.75 
1.55602 -0.48153 0.75 
1.56149 -0.472308 0.75 
1.56677 -0.463408 0.75 
