ply
format ascii 1.0
element vertex 717
property float x
property float y
property float z
end_header
0.010765 -0.000868 0.75 
0.021516 -0.001893 0.75 
0.032855 -0.003069 0.75 
0.042994 -0.004182 0.75 
0.053127 -0.005355 0.75 
0.063544 -0.006667 0.75 
0.075137 -0.008249 0.75 
0.086418 -0.009891 0.75 
0.096945 -0.011501 0.75 
0.108351 -0.013318 0.75 
0.120634 -0.015354 0.75 
0.131131 -0.017153 0.75 
0.14221 -0.019106 0.75 
0.15387 -0.021219 0.75 
0.16611 -0.023497 0.75 
0.178928 -0.025945 0.75 
0.188939 -0.027899 0.75 
0.199238 -0.029947 0.75 
0.209822 -0.032092 0.75 
0.22084 -0.034365 0.75 
0.23185 -0.036678 0.75 
0.242705 -0.039 0.75 
0.253257 -0.041297 0.75 
0.263801 -0.043634 0.75 
0.274043 -0.045948 0.75 
0.283982 -0.048244 0.75 
0.29668 -0.05125 0.75 
0.308777 -0.054195 0.75 
0.320273 -0.057069 0.75 
0.33117 -0.059865 0.75 
0.341615 -0.062612 0.75 
0.352188 -0.065461 0.75 
0.363322 -0.068531 0.75 
0.375016 -0.071829 0.75 
0.387268 -0.07536 0.75 
0.400074 -0.07913 0.75 
0.409988 -0.082101 0.75 
0.420321 -0.085246 0.75 
0.430926 -0.088523 0.75 
0.44166 -0.091889 0.75 
0.45238 -0.095301 0.75 
0.462658 -0.098621 0.75 
0.472921 -0.101984 0.75 
0.483027 -0.105343 0.75 
0.492834 -0.10865 0.75 
0.502628 -0.111999 0.75 
0.512123 -0.115292 0.75 
0.524287 -0.119586 0.75 
0.536143 -0.123852 0.75 
0.547692 -0.128084 0.75 
0.558936 -0.132276 0.75 
0.570157 -0.13653 0.75 
0.581075 -0.140735 0.75 
0.591413 -0.144777 0.75 
0.601452 -0.148759 0.75 
0.611193 -0.152677 0.75 
0.620639 -0.156526 0.75 
0.630068 -0.160417 0.75 
0.641415 -0.165164 0.75 
0.652462 -0.169851 0.75 
0.662796 -0.174296 0.75 
0.672835 -0.17867 0.75 
0.682442 -0.182907 0.75 
0.69203 -0.187186 0.75 
0.702693 -0.192003 0.75 
0.713333 -0.196869 0.75 
0.723676 -0.201663 0.75 
0.733451 -0.206256 0.75 
0.742932 -0.210767 0.75 
0.753336 -0.215784 0.75 
0.763713 -0.220854 0.75 
0.773125 -0.225509 0.75 
0.782247 -0.230072 0.75 
0.791883 -0.234949 0.75 
0.801497 -0.23987 0.75 
0.811355 -0.244973 0.75 
0.820923 -0.249981 0.75 
0.830322 -0.254989 0.75 
0.839538 -0.260022 0.75 
0.848573 -0.26507 0.75 
0.857948 -0.270431 0.75 
0.867272 -0.275882 0.75 
0.876031 -0.281108 0.75 
0.884999 -0.286569 0.75 
0.894063 -0.292161 0.75 
0.902615 -0.29744 0.75 
0.911168 -0.302717 0.75 
0.920232 -0.308308 0.75 
0.929424 -0.313978 0.75 
0.939127 -0.319963 0.75 
0.948932 -0.326066 0.75 
0.957566 -0.331773 0.75 
0.966259 -0.337925 0.75 
0.974246 -0.344024 0.75 
0.968186 -0.335532 0.75 
0.961971 -0.327445 0.75 
0.956043 -0.319145 0.75 
0.950993 -0.310285 0.75 
0.945894 -0.300765 0.75 
0.941146 -0.291568 0.75 
0.93662 -0.282595 0.75 
0.932091 -0.273456 0.75 
0.927095 -0.263208 0.75 
0.922483 -0.253609 0.75 
0.917533 -0.243174 0.75 
0.912252 -0.231899 0.75 
0.907777 -0.222235 0.75 
0.90309 -0.212008 0.75 
0.898194 -0.201217 0.75 
0.893094 -0.189859 0.75 
0.887794 -0.177934 0.75 
0.882492 -0.165845 0.75 
0.877445 -0.154137 0.75 
0.872705 -0.142949 0.75 
0.868266 -0.132287 0.75 
0.864119 -0.122152 0.75 
0.860258 -0.112549 0.75 
0.856345 -0.102645 0.75 
0.852272 -0.092158 0.75 
0.848044 -0.081087 0.75 
0.843669 -0.069432 0.75 
0.839151 -0.057189 0.75 
0.835666 -0.047602 0.75 
0.83212 -0.037719 0.75 
0.828516 -0.027539 0.75 
0.824805 -0.016918 0.75 
0.821042 -0.005998 0.75 
0.817325 0.004937 0.75 
0.813749 0.015604 0.75 
0.81036 0.025858 0.75 
0.807015 0.036127 0.75 
0.803759 0.046267 0.75 
0.800637 0.056135 0.75 
0.796722 0.068741 0.75 
0.793062 0.080798 0.75 
0.789647 0.092301 0.75 
0.78647 0.10325 0.75 
0.783524 0.11364 0.75 
0.780641 0.124048 0.75 
0.777663 0.135053 0.75 
0.774595 0.146654 0.75 
0.771444 0.158853 0.75 
0.768216 0.171653 0.75 
0.765735 0.181701 0.75 
0.763226 0.192051 0.75 
0.760691 0.202703 0.75 
0.758132 0.213659 0.75 
0.755519 0.225063 0.75 
0.753019 0.236186 0.75 
0.7506 0.247172 0.75 
0.748227 0.258169 0.75 
0.745994 0.268736 0.75 
0.743867 0.279018 0.75 
0.741814 0.289163 0.75 
0.739805 0.299316 0.75 
0.737307 0.312277 0.75 
0.734998 0.324664 0.75 
0.732873 0.336474 0.75 
0.730924 0.347706 0.75 
0.729142 0.358358 0.75 
0.727425 0.369021 0.75 
0.725679 0.380286 0.75 
0.723911 0.392155 0.75 
0.722126 0.404628 0.75 
0.720331 0.417706 0.75 
0.718975 0.427966 0.75 
0.717625 0.43853 0.75 
0.716283 0.449398 0.75 
0.714951 0.460569 0.75 
0.713615 0.472192 0.75 
0.712329 0.483821 0.75 
0.711109 0.495306 0.75 
0.709969 0.506499 0.75 
0.708878 0.517696 0.75 
0.707863 0.528598 0.75 
0.706922 0.539207 0.75 
0.706052 0.54952 0.75 
0.705227 0.559837 0.75 
0.704468 0.569858 0.75 
0.70356 0.582726 0.75 
0.702771 0.595001 0.75 
0.702093 0.606681 0.75 
0.701518 0.617766 0.75 
0.701038 0.628255 0.75 
0.700621 0.638747 0.75 
0.700246 0.649841 0.75 
0.699918 0.661536 0.75 
0.699643 0.673833 0.75 
0.699428 0.686731 0.75 
0.69931 0.696781 0.75 
0.699231 0.70713 0.75 
0.699194 0.71793 0.75 
0.699202 0.72903 0.75 
0.699259 0.74043 0.75 
0.699366 0.75213 0.75 
0.699517 0.763379 0.75 
0.699715 0.774627 0.75 
0.699958 0.785724 0.75 
0.700241 0.79652 0.75 
0.700556 0.806866 0.75 
0.700915 0.817209 0.75 
0.701312 0.827402 0.75 
0.701894 0.840739 0.75 
0.702356 0.851079 0.75 
0.702837 0.861868 0.75 
0.703331 0.872957 0.75 
0.703838 0.884346 0.75 
0.704357 0.896034 0.75 
0.704895 0.908172 0.75 
0.705446 0.92061 0.75 
0.70601 0.933347 0.75 
0.706586 0.946385 0.75 
0.707141 0.958973 0.75 
0.707696 0.97156 0.75 
0.708244 0.983998 0.75 
0.708778 0.996137 0.75 
0.709291 1.00783 0.75 
0.709791 1.01921 0.75 
0.710284 1.03045 0.75 
0.710776 1.04169 0.75 
0.711248 1.05248 0.75 
0.711706 1.06297 0.75 
0.712158 1.07331 0.75 
0.712609 1.08365 0.75 
0.713184 1.09684 0.75 
0.713758 1.11003 0.75 
0.714306 1.12261 0.75 
0.714827 1.1346 0.75 
0.715347 1.14659 0.75 
0.715867 1.15858 0.75 
0.716413 1.17117 0.75 
0.716986 1.18436 0.75 
0.717434 1.1947 0.75 
0.717896 1.20534 0.75 
0.71837 1.21628 0.75 
0.718858 1.22752 0.75 
0.719365 1.23921 0.75 
0.719886 1.25119 0.75 
0.720419 1.26348 0.75 
0.720965 1.27607 0.75 
0.721492 1.28821 0.75 
0.722019 1.30035 0.75 
0.722539 1.31234 0.75 
0.723046 1.32403 0.75 
0.723534 1.33527 0.75 
0.724022 1.34651 0.75 
0.724503 1.35759 0.75 
0.724972 1.36838 0.75 
0.72542 1.37872 0.75 
0.725869 1.38906 0.75 
0.726312 1.39926 0.75 
0.726884 1.41244 0.75 
0.72745 1.42548 0.75 
0.727996 1.43807 0.75 
0.728549 1.45081 0.75 
0.729128 1.46414 0.75 
0.729576 1.47448 0.75 
0.730045 1.48527 0.75 
0.730526 1.49636 0.75 
0.73102 1.50775 0.75 
0.731528 1.51944 0.75 
0.732054 1.53158 0.75 
0.732594 1.54402 0.75 
0.733141 1.55661 0.75 
0.733687 1.56919 0.75 
0.734214 1.58133 0.75 
0.73474 1.59347 0.75 
0.735261 1.60546 0.75 
0.735768 1.61715 0.75 
0.736256 1.62839 0.75 
0.736731 1.63933 0.75 
0.737199 1.65012 0.75 
0.737667 1.66091 0.75 
0.738116 1.67125 0.75 
0.738565 1.68159 0.75 
0.739007 1.69178 0.75 
0.739573 1.70482 0.75 
0.740119 1.7174 0.75 
0.740659 1.72984 0.75 
0.741168 1.74168 0.75 
0.741592 1.75292 0.75 
0.741925 1.76357 0.75 
0.742176 1.77362 0.75 
0.742386 1.78531 0.75 
0.742503 1.79656 0.75 
0.742538 1.80841 0.75 
0.742503 1.81861 0.75 
0.742405 1.82941 0.75 
0.742238 1.84081 0.75 
0.741998 1.85281 0.75 
0.741678 1.8654 0.75 
0.741272 1.8786 0.75 
0.740906 1.88894 0.75 
0.740486 1.89958 0.75 
0.74001 1.91052 0.75 
0.739476 1.92176 0.75 
0.738896 1.933 0.75 
0.738287 1.94393 0.75 
0.737643 1.95471 0.75 
0.736955 1.96549 0.75 
0.736254 1.97626 0.75 
0.735533 1.98734 0.75 
0.734794 1.99872 0.75 
0.734036 2.01039 0.75 
0.733249 2.02252 0.75 
0.732444 2.03494 0.75 
0.73162 2.04766 0.75 
0.730777 2.06069 0.75 
0.729935 2.07371 0.75 
0.729113 2.08643 0.75 
0.728311 2.09886 0.75 
0.727529 2.11098 0.75 
0.726747 2.12311 0.75 
0.725985 2.13493 0.75 
0.725243 2.14646 0.75 
0.724521 2.15769 0.75 
0.723799 2.16891 0.75 
0.723097 2.17984 0.75 
0.722414 2.19047 0.75 
0.721751 2.2008 0.75 
0.721088 2.21112 0.75 
0.720445 2.22115 0.75 
0.719601 2.23433 0.75 
0.718758 2.2475 0.75 
0.718116 2.25753 0.75 
0.717454 2.26786 0.75 
0.716764 2.27864 0.75 
0.716054 2.28971 0.75 
0.715326 2.30109 0.75 
0.714578 2.31277 0.75 
0.713801 2.32489 0.75 
0.713006 2.33732 0.75 
0.712191 2.35004 0.75 
0.711357 2.36306 0.75 
0.710551 2.37564 0.75 
0.709765 2.38791 0.75 
0.708998 2.39989 0.75 
0.70825 2.41156 0.75 
0.707503 2.42324 0.75 
0.706774 2.43462 0.75 
0.706065 2.44569 0.75 
0.705374 2.45647 0.75 
0.704684 2.46725 0.75 
0.704013 2.47773 0.75 
0.703361 2.48791 0.75 
0.702517 2.50108 0.75 
0.701683 2.5141 0.75 
0.700878 2.52668 0.75 
0.700082 2.5391 0.75 
0.699315 2.55108 0.75 
0.698538 2.5632 0.75 
0.697723 2.57593 0.75 
0.69687 2.58925 0.75 
0.696208 2.59958 0.75 
0.695518 2.61036 0.75 
0.694808 2.62143 0.75 
0.69408 2.63281 0.75 
0.693332 2.64449 0.75 
0.692555 2.65661 0.75 
0.69176 2.66903 0.75 
0.690954 2.68161 0.75 
0.690149 2.69418 0.75 
0.689372 2.70631 0.75 
0.688615 2.71813 0.75 
0.687867 2.72981 0.75 
0.687119 2.74149 0.75 
0.6864 2.75271 0.75 
0.6857 2.76364 0.75 
0.68501 2.77442 0.75 
0.68432 2.7852 0.75 
0.683658 2.79553 0.75 
0.683016 2.80556 0.75 
0.682172 2.81873 0.75 
0.681347 2.8316 0.75 
0.680542 2.84418 0.75 
0.679717 2.85705 0.75 
0.679075 2.86708 0.75 
0.678413 2.87741 0.75 
0.677723 2.88819 0.75 
0.677013 2.89926 0.75 
0.676285 2.91064 0.75 
0.675537 2.92232 0.75 
0.67476 2.93444 0.75 
0.673965 2.94687 0.75 
0.673159 2.95944 0.75 
0.672354 2.97201 0.75 
0.671577 2.98414 0.75 
0.670801 2.99626 0.75 
0.670034 3.00824 0.75 
0.669286 3.01992 0.75 
0.668567 3.03114 0.75 
0.667867 3.04207 0.75 
0.667177 3.05285 0.75 
0.666486 3.06363 0.75 
0.665825 3.07396 0.75 
0.665163 3.08428 0.75 
0.664511 3.09446 0.75 
0.663677 3.10749 0.75 
0.662871 3.12006 0.75 
0.662066 3.13264 0.75 
0.661251 3.14536 0.75 
0.660398 3.15868 0.75 
0.659736 3.16901 0.75 
0.659046 3.17979 0.75 
0.658336 3.19087 0.75 
0.657608 3.20224 0.75 
0.65686 3.21392 0.75 
0.656083 3.22604 0.75 
0.655287 3.23847 0.75 
0.654482 3.25104 0.75 
0.653677 3.26362 0.75 
0.6529 3.27574 0.75 
0.652123 3.28787 0.75 
0.651356 3.29984 0.75 
0.650609 3.31152 0.75 
0.64989 3.32274 0.75 
0.64919 3.33367 0.75 
0.648499 3.34445 0.75 
0.647809 3.35523 0.75 
0.647147 3.36556 0.75 
0.646486 3.37589 0.75 
0.645834 3.38607 0.75 
0.645 3.39909 0.75 
0.644194 3.41166 0.75 
0.643389 3.42424 0.75 
0.642574 3.43696 0.75 
0.64173 3.45013 0.75 
0.640896 3.46316 0.75 
0.64009 3.47573 0.75 
0.639295 3.48816 0.75 
0.638537 3.49998 0.75 
0.637809 3.51136 0.75 
0.63709 3.52258 0.75 
0.636399 3.53336 0.75 
0.635719 3.54399 0.75 
0.635067 3.55417 0.75 
0.634415 3.56435 0.75 
0.633772 3.57438 0.75 
0.633005 3.58635 0.75 
0.632267 3.59788 0.75 
0.631548 3.60911 0.75 
0.630876 3.61959 0.75 
0.630205 3.63006 0.75 
0.629624 3.6401 0.75 
0.629297 3.65089 0.75 
0.629337 3.66184 0.75 
0.629773 3.67203 0.75 
0.630687 3.68204 0.75 
0.620664 3.68422 0.75 
0.610954 3.68162 0.75 
0.601216 3.67914 0.75 
0.590424 3.67655 0.75 
0.579307 3.67402 0.75 
0.569341 3.67185 0.75 
0.558185 3.6695 0.75 
0.547749 3.66738 0.75 
0.536417 3.66514 0.75 
0.52419 3.6628 0.75 
0.51372 3.66085 0.75 
0.502652 3.65884 0.75 
0.490984 3.65677 0.75 
0.478716 3.65464 0.75 
0.465847 3.65248 0.75 
0.455782 3.65082 0.75 
0.445416 3.64915 0.75 
0.434748 3.64747 0.75 
0.424073 3.64583 0.75 
0.413687 3.64429 0.75 
0.40359 3.64284 0.75 
0.390663 3.64106 0.75 
0.37832 3.63943 0.75 
0.366562 3.63795 0.75 
0.355391 3.63662 0.75 
0.344659 3.63541 0.75 
0.333771 3.63424 0.75 
0.32228 3.63308 0.75 
0.310185 3.63193 0.75 
0.297486 3.63079 0.75 
0.284183 3.62968 0.75 
0.273865 3.62886 0.75 
0.263095 3.62806 0.75 
0.252022 3.62728 0.75 
0.240797 3.62653 0.75 
0.229568 3.62584 0.75 
0.218786 3.62521 0.75 
0.208301 3.62465 0.75 
0.197964 3.62414 0.75 
0.187624 3.62368 0.75 
0.177283 3.62326 0.75 
0.16694 3.62287 0.75 
0.156448 3.62247 0.75 
0.145656 3.62206 0.75 
0.134414 3.62163 0.75 
0.122872 3.62119 0.75 
0.111031 3.62074 0.75 
0.09889 3.62027 0.75 
0.086299 3.61979 0.75 
0.073408 3.6193 0.75 
0.060518 3.6188 0.75 
0.047927 3.61832 0.75 
0.035337 3.61783 0.75 
0.023046 3.61736 0.75 
0.011055 3.61689 0.75 
-0.000637 3.61644 0.75 
-0.011878 3.61601 0.75 
-0.02312 3.61557 0.75 
-0.034211 3.61514 0.75 
-0.045003 3.61472 0.75 
-0.055345 3.61432 0.75 
-0.065688 3.61392 0.75 
-0.07588 3.61352 0.75 
-0.08907 3.61301 0.75 
-0.10211 3.6125 0.75 
-0.11455 3.61201 0.75 
-0.126541 3.61155 0.75 
-0.138532 3.61108 0.75 
-0.150673 3.6106 0.75 
-0.163413 3.6101 0.75 
-0.176753 3.60958 0.75 
-0.187095 3.60917 0.75 
-0.197887 3.60875 0.75 
-0.208978 3.60832 0.75 
-0.220369 3.60787 0.75 
-0.23206 3.60741 0.75 
-0.244201 3.60694 0.75 
-0.256642 3.60645 0.75 
-0.269082 3.60597 0.75 
-0.281223 3.60549 0.75 
-0.293363 3.60502 0.75 
-0.305204 3.60455 0.75 
-0.316745 3.6041 0.75 
-0.327987 3.60366 0.75 
-0.339228 3.60322 0.75 
-0.35017 3.60279 0.75 
-0.360812 3.60238 0.75 
-0.371154 3.60197 0.75 
-0.381496 3.60157 0.75 
-0.391538 3.60117 0.75 
-0.404728 3.60066 0.75 
-0.417618 3.60015 0.75 
-0.430209 3.59966 0.75 
-0.443099 3.59915 0.75 
-0.453141 3.59876 0.75 
-0.463483 3.59836 0.75 
-0.474275 3.59793 0.75 
-0.485366 3.5975 0.75 
-0.496758 3.59705 0.75 
-0.508449 3.5966 0.75 
-0.520589 3.59612 0.75 
-0.53303 3.59563 0.75 
-0.54562 3.59514 0.75 
-0.55821 3.59465 0.75 
-0.570351 3.59418 0.75 
-0.582492 3.5937 0.75 
-0.594483 3.59323 0.75 
-0.606174 3.59277 0.75 
-0.617415 3.59233 0.75 
-0.628357 3.59191 0.75 
-0.639148 3.59148 0.75 
-0.64994 3.59106 0.75 
-0.660282 3.59065 0.75 
-0.670624 3.59025 0.75 
-0.680817 3.58985 0.75 
-0.693856 3.58934 0.75 
-0.706447 3.58885 0.75 
-0.718887 3.58836 0.75 
-0.730878 3.58789 0.75 
-0.743019 3.58742 0.75 
-0.755759 3.58692 0.75 
-0.769099 3.5864 0.75 
-0.779441 3.58599 0.75 
-0.790233 3.58557 0.75 
-0.801324 3.58513 0.75 
-0.812715 3.58469 0.75 
-0.824406 3.58423 0.75 
-0.836547 3.58376 0.75 
-0.848988 3.58327 0.75 
-0.861578 3.58278 0.75 
-0.874168 3.58228 0.75 
-0.886309 3.58181 0.75 
-0.89815 3.58134 0.75 
-0.909841 3.58089 0.75 
-0.921532 3.58043 0.75 
-0.932773 3.57999 0.75 
-0.943715 3.57956 0.75 
-0.954507 3.57914 0.75 
-0.965298 3.57872 0.75 
-0.97564 3.57831 0.75 
-0.985683 3.57792 0.75 
-0.998873 3.5774 0.75 
-1.01176 3.5769 0.75 
-1.02435 3.5764 0.75 
-1.03664 3.57592 0.75 
-1.04833 3.57546 0.75 
-1.05973 3.57502 0.75 
-1.07082 3.57458 0.75 
-1.08161 3.57416 0.75 
-1.0921 3.57376 0.75 
-1.1044 3.57338 0.75 
-1.11579 3.57311 0.75 
-1.12719 3.57293 0.75 
-1.13949 3.57283 0.75 
-1.14999 3.57281 0.75 
-1.16109 3.57285 0.75 
-1.17279 3.57295 0.75 
-1.18509 3.57313 0.75 
-1.19799 3.57339 0.75 
-1.20803 3.57364 0.75 
-1.21838 3.57394 0.75 
-1.22917 3.57429 0.75 
-1.24027 3.5747 0.75 
-1.25166 3.57517 0.75 
-1.26334 3.5757 0.75 
-1.27458 3.57625 0.75 
-1.28582 3.57684 0.75 
-1.2969 3.57748 0.75 
-1.30768 3.57814 0.75 
-1.318 3.57882 0.75 
-1.32833 3.57954 0.75 
-1.3385 3.58029 0.75 
-1.35166 3.58133 0.75 
-1.36466 3.58244 0.75 
-1.37706 3.58357 0.75 
-1.38885 3.58472 0.75 
-1.40004 3.58589 0.75 
-1.41078 3.58707 0.75 
-1.42166 3.58834 0.75 
-1.43312 3.58974 0.75 
-1.44517 3.59128 0.75 
-1.45781 3.59297 0.75 
-1.47103 3.59481 0.75 
-1.48127 3.5963 0.75 
-1.49196 3.59789 0.75 
-1.50293 3.59957 0.75 
-1.51419 3.60134 0.75 
-1.52574 3.60321 0.75 
-1.53684 3.60506 0.75 
-1.54793 3.60695 0.75 
-1.55886 3.60886 0.75 
-1.56949 3.61077 0.75 
-1.57967 3.61264 0.75 
-1.58984 3.61456 0.75 
-1.59986 3.61649 0.75 
-1.61281 3.61905 0.75 
-1.62559 3.62166 0.75 
-1.63778 3.62422 0.75 
-1.64936 3.62673 0.75 
-1.66049 3.62921 0.75 
-1.67087 3.63159 0.75 
-1.68094 3.63397 0.75 
-1.69158 3.63655 0.75 
-1.70279 3.63933 0.75 
-1.71456 3.64233 0.75 
-1.7269 3.64555 0.75 
-1.7398 3.64898 0.75 
-1.74979 3.6517 0.75 
-1.7602 3.65457 0.75 
-1.77089 3.65757 0.75 
-1.78185 3.6607 0.75 
-1.79309 3.66396 0.75 
-1.80388 3.66714 0.75 
-1.81437 3.67028 0.75 
-1.8247 3.67342 0.75 
-1.83502 3.6766 0.75 
-1.8449 3.67969 0.75 
-1.85476 3.68283 0.75 
-1.86447 3.68596 0.75 
-1.87701 3.69007 0.75 
-1.88939 3.6942 0.75 
-1.90147 3.6983 0.75 
-1.91411 3.7026 0.75 
-1.92391 3.70593 0.75 
-1.93413 3.7094 0.75 
-1.94464 3.71297 0.75 
-1.95515 3.71654 0.75 
-1.96538 3.72 0.75 
-1.97561 3.72347 0.75 
-1.98555 3.72684 0.75 
-1.99536 3.73016 0.75 
-2.00516 3.73348 0.75 
-2.01766 3.73771 0.75 
-2.0296 3.74175 0.75 
-2.04154 3.74578 0.75 
-2.05291 3.74962 0.75 
-2.06428 3.75346 0.75 
-2.07508 3.7571 0.75 
-2.08588 3.76075 0.75 
-2.09611 3.7642 0.75 
-2.10635 3.76765 0.75 
-2.11601 3.7709 0.75 
-2.12568 3.77416 0.75 
-2.13705 3.77798 0.75 
-2.14843 3.78181 0.75 
-2.15938 3.78549 0.75 
-2.17004 3.78908 0.75 
-2.17999 3.79243 0.75 
-2.18994 3.79577 0.75 
-2.19947 3.79898 0.75 
-2.21056 3.80271 0.75 
-2.22122 3.8063 0.75 
-2.23146 3.80974 0.75 
-2.24127 3.81304 0.75 
-2.25221 3.81672 0.75 
-2.26245 3.82017 0.75 
-2.2724 3.82351 0.75 
-2.28193 3.82672 0.75 
-2.29216 3.83016 0.75 
-2.30254 3.83366 0.75 
-2.31278 3.8371 0.75 
-2.32315 3.84059 0.75 
-2.33311 3.84394 0.75 
-2.34292 3.84724 0.75 
-2.35315 3.85068 0.75 
-2.36311 3.85403 0.75 
-2.37306 3.85738 0.75 
-2.38272 3.86063 0.75 
-2.39253 3.86393 0.75 
