ply
format ascii 1.0
element vertex 339
property float x
property float y
property float z
end_header
0.0108 0 0.75 
0.0216 0 0.75 
0.0363 0 0.75 
0.0546 0 0.75 
0.06525 0 0.75 
0.0768 0 0.75 
0.08925 0 0.75 
0.1083 0 0.75 
0.12 0 0.75 
0.1386 0 0.75 
0.1518 0 0.75 
0.1728 0 0.75 
0.18375 0 0.75 
0.195 0 0.75 
0.2187 0 0.75 
0.231 0 0.75 
0.2598 0 0.75 
0.27195 0 0.75 
0.2991 0 0.75 
0.31035 0 0.75 
0.336 0 0.75 
0.34635 0 0.75 
0.3702 0 0.75 
0.3834 0 0.75 
0.4026 0 0.75 
0.4146 0 0.75 
0.4338 0 0.75 
0.44385 0 0.75 
0.4542 0 0.75 
0.4761 0 0.75 
0.4875 0 0.75 
0.5154 0 0.75 
0.528 0 0.75 
0.5571 0 0.75 
0.56925 0 0.75 
0.597 0 0.75 
0.60825 0 0.75 
0.6333 0 0.75 
0.64365 0 0.75 
0.6672 0 0.75 
0.6804 0 0.75 
0.699 0 0.75 
0.7113 0 0.75 
0.7308 0 0.75 
0.74115 0 0.75 
0.7665 0 0.75 
0.7779 0 0.75 
0.7896 0 0.75 
0.8142 0 0.75 
0.8268 0 0.75 
0.8556 0 0.75 
0.8673 0 0.75 
0.8934 0 0.75 
0.9042 0 0.75 
0.915 0 0.75 
0.9288 0 0.75 
0.942 0 0.75 
0.9615 0 0.75 
0.9741 0 0.75 
0.9924 0 0.75 
1.0044 0 0.75 
1.0221 0 0.75 
1.0332 0 0.75 
1.0539 0 0.75 
1.0641 0 0.75 
1.0788 0 0.75 
1.09065 0 0.75 
1.1019 0 0.75 
1.11315 0 0.75 
1.1238 0 0.75 
1.1343 0 0.75 
1.15035 0 0.75 
1.167 0 0.75 
1.1844 0 0.75 
1.2 0 0.75 
1.2144 0 0.75 
1.2279 0 0.75 
1.2408 0 0.75 
1.2528 0 0.75 
1.2642 0 0.75 
1.2747 0 0.75 
1.2864 0 0.75 
1.2972 0 0.75 
1.30725 0 0.75 
1.3182 0 0.75 
1.3284 0 0.75 
1.3422 0 0.75 
1.3593 0 0.75 
1.37519 -0.000291 0.75 
1.38746 -0.001143 0.75 
1.39788 -0.002472 0.75 
1.39365 0.006962 0.75 
1.38739 0.01502 0.75 
1.38126 0.023544 0.75 
1.37485 0.034734 0.75 
1.37005 0.043563 0.75 
1.36533 0.054089 0.75 
1.36198 0.063565 0.75 
1.35948 0.075453 0.75 
1.35758 0.08578 0.75 
1.35572 0.096875 0.75 
1.35416 0.106803 0.75 
1.35213 0.120453 0.75 
1.35045 0.132334 0.75 
1.34897 0.143184 0.75 
1.34743 0.154933 0.75 
1.34614 0.165052 0.75 
1.34482 0.175771 0.75 
1.34209 0.19901 0.75 
1.34068 0.211532 0.75 
1.33858 0.23122 0.75 
1.3373 0.244056 0.75 
1.33563 0.262279 0.75 
1.33468 0.27364 0.75 
1.33347 0.289494 0.75 
1.33264 0.301766 0.75 
1.33188 0.314343 0.75 
1.3313 0.325127 0.75 
1.33025 0.348503 0.75 
1.32979 0.361095 0.75 
1.32919 0.381186 0.75 
1.32894 0.391683 0.75 
1.32851 0.417479 0.75 
1.32839 0.428729 0.75 
1.3283 0.454678 0.75 
1.32834 0.465478 0.75 
1.32842 0.476278 0.75 
1.32855 0.490677 0.75 
1.32865 0.501927 0.75 
1.32875 0.513477 0.75 
1.32889 0.529376 0.75 
1.32899 0.541676 0.75 
1.3291 0.554275 0.75 
1.32925 0.571674 0.75 
1.32937 0.585174 0.75 
1.32948 0.598674 0.75 
1.32963 0.616373 0.75 
1.32973 0.629272 0.75 
1.32984 0.641872 0.75 
1.32997 0.658071 0.75 
1.33007 0.669771 0.75 
1.33016 0.681471 0.75 
1.33028 0.69677 0.75 
1.33037 0.70787 0.75 
1.33046 0.718669 0.75 
1.33057 0.732469 0.75 
1.33067 0.745669 0.75 
1.33082 0.765168 0.75 
1.33092 0.777768 0.75 
1.331 0.801767 0.75 
1.33091 0.812867 0.75 
1.33066 0.828465 0.75 
1.33036 0.840311 0.75 
1.32999 0.851255 0.75 
1.32957 0.861296 0.75 
1.32882 0.876127 0.75 
1.32811 0.887806 0.75 
1.32727 0.900377 0.75 
1.32648 0.911148 0.75 
1.32509 0.928493 0.75 
1.32403 0.940747 0.75 
1.32221 0.960162 0.75 
1.32119 0.970461 0.75 
1.31866 0.994176 0.75 
1.31718 1.00699 0.75 
1.31493 1.02515 0.75 
1.31345 1.03646 0.75 
1.31117 1.0528 0.75 
1.30947 1.06437 0.75 
1.30663 1.08276 0.75 
1.30452 1.09579 0.75 
1.30102 1.11649 0.75 
1.29912 1.12728 0.75 
1.29429 1.15369 0.75 
1.2921 1.16518 0.75 
1.28686 1.19167 0.75 
1.28463 1.20254 0.75 
1.28242 1.21311 0.75 
1.27803 1.23334 0.75 
1.27575 1.24359 0.75 
1.27013 1.26877 0.75 
1.26759 1.28019 0.75 
1.26144 1.30802 0.75 
1.25869 1.32047 0.75 
1.25589 1.33322 0.75 
1.25049 1.35783 0.75 
1.24781 1.37014 0.75 
1.24168 1.39828 0.75 
1.2392 1.40972 0.75 
1.23369 1.43523 0.75 
1.23141 1.44579 0.75 
1.22914 1.45634 0.75 
1.22486 1.47629 0.75 
1.2221 1.4892 0.75 
1.21809 1.50797 0.75 
1.21546 1.5203 0.75 
1.21166 1.5382 0.75 
1.20897 1.55082 0.75 
1.20474 1.57077 0.75 
1.20249 1.58133 0.75 
1.20018 1.59219 0.75 
1.197 1.60716 0.75 
1.19454 1.61875 0.75 
1.19201 1.63063 0.75 
1.18852 1.64707 0.75 
1.1859 1.65939 0.75 
1.18328 1.67172 0.75 
1.17985 1.68786 0.75 
1.17732 1.69974 0.75 
1.1748 1.71162 0.75 
1.17155 1.72688 0.75 
1.16921 1.73789 0.75 
1.16687 1.74889 0.75 
1.16381 1.76327 0.75 
1.1616 1.77369 0.75 
1.15945 1.78381 0.75 
1.15657 1.79731 0.75 
1.15388 1.81023 0.75 
1.15023 1.82847 0.75 
1.14802 1.83996 0.75 
1.14505 1.85619 0.75 
1.14329 1.86624 0.75 
1.14097 1.88014 0.75 
1.13928 1.89081 0.75 
1.13763 1.90179 0.75 
1.13591 1.91381 0.75 
1.13415 1.92674 0.75 
1.13272 1.93775 0.75 
1.13055 1.95532 0.75 
1.12909 1.96783 0.75 
1.1269 1.98781 0.75 
1.12581 1.99826 0.75 
1.12473 2.009 0.75 
1.12342 2.02274 0.75 
1.12248 2.03305 0.75 
1.12153 2.04365 0.75 
1.12023 2.0583 0.75 
1.11922 2.06965 0.75 
1.11817 2.08131 0.75 
1.11596 2.1058 0.75 
1.1148 2.1185 0.75 
1.11207 2.14823 0.75 
1.1109 2.16077 0.75 
1.1082 2.18975 0.75 
1.10708 2.20169 0.75 
1.10598 2.21334 0.75 
1.10388 2.23544 0.75 
1.10286 2.2462 0.75 
1.10051 2.27068 0.75 
1.09925 2.28382 0.75 
1.09737 2.30323 0.75 
1.09615 2.31577 0.75 
1.09437 2.33399 0.75 
1.09319 2.34593 0.75 
1.09164 2.36266 0.75 
1.09076 2.37312 0.75 
1.08966 2.38778 0.75 
1.08893 2.39885 0.75 
1.08834 2.40904 0.75 
1.0878 2.42012 0.75 
1.08732 2.43211 0.75 
1.08679 2.45011 0.75 
1.08653 2.46255 0.75 
1.08628 2.4816 0.75 
1.08622 2.4933 0.75 
1.08623 2.5119 0.75 
1.08632 2.5251 0.75 
1.08658 2.5461 0.75 
1.08673 2.55705 0.75 
1.08688 2.5683 0.75 
1.0872 2.592 0.75 
1.08736 2.60429 0.75 
1.08775 2.63429 0.75 
1.08792 2.64779 0.75 
1.08829 2.67809 0.75 
1.08845 2.69069 0.75 
1.0886 2.70329 0.75 
1.08888 2.72729 0.75 
1.08901 2.73899 0.75 
1.08932 2.76568 0.75 
1.08943 2.77648 0.75 
1.0897 2.80048 0.75 
1.08984 2.81368 0.75 
1.09004 2.83288 0.75 
1.09017 2.84548 0.75 
1.09035 2.86318 0.75 
1.09048 2.87428 0.75 
1.09077 2.88987 0.75 
1.09111 2.90172 0.75 
1.09151 2.91266 0.75 
1.09195 2.9227 0.75 
1.09258 2.93454 0.75 
1.09324 2.94531 0.75 
1.09404 2.95699 0.75 
1.09479 2.96701 0.75 
1.09635 2.986 0.75 
1.09739 2.99765 0.75 
1.09917 3.01616 0.75 
1.10051 3.02929 0.75 
1.10278 3.05017 0.75 
1.10402 3.06105 0.75 
1.10534 3.07222 0.75 
1.1071 3.08652 0.75 
1.10841 3.09678 0.75 
1.10972 3.10675 0.75 
1.11147 3.11953 0.75 
1.11322 3.1317 0.75 
1.11668 3.15424 0.75 
1.11837 3.1646 0.75 
1.12094 3.17968 0.75 
1.12284 3.19032 0.75 
1.12602 3.20742 0.75 
1.12835 3.2195 0.75 
1.13193 3.23745 0.75 
1.13435 3.2492 0.75 
1.13803 3.26651 0.75 
1.14046 3.27765 0.75 
1.14406 3.29375 0.75 
1.14647 3.30428 0.75 
1.14997 3.31918 0.75 
1.15236 3.32909 0.75 
1.15588 3.34336 0.75 
1.15879 3.35485 0.75 
1.16153 3.36545 0.75 
1.16421 3.37561 0.75 
1.16781 3.38893 0.75 
1.17287 3.40714 0.75 
1.17784 3.42444 0.75 
1.18277 3.44112 0.75 
1.18728 3.45606 0.75 
1.19173 3.47038 0.75 
1.19617 3.4844 0.75 
1.20015 3.49667 0.75 
1.20392 3.50806 0.75 
1.20755 3.51887 0.75 
1.21095 3.5288 0.75 
1.21478 3.53985 0.75 
1.21837 3.55004 0.75 
1.2218 3.55965 0.75 
