ply
format ascii 1.0
element vertex 1454
property float x
property float y
property float z
end_header
0.010765 -0.000867 0.75 
0.021367 -0.001878 0.75 
0.032711 -0.003006 0.75 
0.042861 -0.004015 0.75 
0.054205 -0.005142 0.75 
0.064803 -0.006194 0.75 
0.076296 -0.007334 0.75 
0.088686 -0.008562 0.75 
0.099284 -0.009613 0.75 
0.110479 -0.010722 0.75 
0.122271 -0.01189 0.75 
0.134661 -0.013116 0.75 
0.147647 -0.014401 0.75 
0.157798 -0.015406 0.75 
0.168247 -0.016439 0.75 
0.178994 -0.017502 0.75 
0.19019 -0.018609 0.75 
0.201684 -0.019746 0.75 
0.213476 -0.020912 0.75 
0.225567 -0.022107 0.75 
0.238106 -0.023347 0.75 
0.250943 -0.024617 0.75 
0.26393 -0.025901 0.75 
0.276917 -0.027185 0.75 
0.289455 -0.028425 0.75 
0.301994 -0.029665 0.75 
0.314384 -0.03089 0.75 
0.326475 -0.032086 0.75 
0.338118 -0.033238 0.75 
0.349761 -0.034389 0.75 
0.361255 -0.035526 0.75 
0.37245 -0.036633 0.75 
0.383198 -0.037696 0.75 
0.393945 -0.038759 0.75 
0.404544 -0.039807 0.75 
0.414844 -0.040825 0.75 
0.427979 -0.042125 0.75 
0.441115 -0.043424 0.75 
0.453654 -0.044664 0.75 
0.466193 -0.045904 0.75 
0.479329 -0.047203 0.75 
0.489629 -0.048222 0.75 
0.500227 -0.04927 0.75 
0.511124 -0.050348 0.75 
0.522319 -0.051455 0.75 
0.533962 -0.052606 0.75 
0.545904 -0.053787 0.75 
0.558144 -0.054998 0.75 
0.570683 -0.056238 0.75 
0.583222 -0.057478 0.75 
0.595462 -0.058689 0.75 
0.607553 -0.059884 0.75 
0.619644 -0.06108 0.75 
0.631287 -0.062232 0.75 
0.642632 -0.063354 0.75 
0.653678 -0.064446 0.75 
0.664426 -0.065509 0.75 
0.675173 -0.066572 0.75 
0.685622 -0.067606 0.75 
0.696071 -0.068639 0.75 
0.706819 -0.069702 0.75 
0.718014 -0.070809 0.75 
0.729508 -0.071946 0.75 
0.741301 -0.073112 0.75 
0.753392 -0.074308 0.75 
0.76593 -0.075548 0.75 
0.778768 -0.076818 0.75 
0.791754 -0.078102 0.75 
0.804741 -0.079386 0.75 
0.81728 -0.080627 0.75 
0.82952 -0.081837 0.75 
0.841462 -0.083018 0.75 
0.853105 -0.08417 0.75 
0.864748 -0.085321 0.75 
0.876093 -0.086443 0.75 
0.887139 -0.087536 0.75 
0.897887 -0.088599 0.75 
0.908634 -0.089662 0.75 
0.919083 -0.090695 0.75 
0.929234 -0.091699 0.75 
0.94237 -0.092998 0.75 
0.955356 -0.094282 0.75 
0.967895 -0.095523 0.75 
0.980284 -0.096753 0.75 
0.99207 -0.097986 0.75 
1.00325 -0.099229 0.75 
1.01383 -0.100474 0.75 
1.0238 -0.101712 0.75 
1.0354 -0.103232 0.75 
1.04699 -0.104841 0.75 
1.05694 -0.106288 0.75 
1.06747 -0.107882 0.75 
1.07858 -0.109627 0.75 
1.09028 -0.11153 0.75 
1.10255 -0.113596 0.75 
1.11541 -0.115832 0.75 
1.12545 -0.117628 0.75 
1.13578 -0.119517 0.75 
1.1464 -0.121504 0.75 
1.15744 -0.123618 0.75 
1.16878 -0.125818 0.75 
1.18042 -0.128073 0.75 
1.19235 -0.130383 0.75 
1.20472 -0.132777 0.75 
1.21738 -0.135226 0.75 
1.23034 -0.137729 0.75 
1.2436 -0.140287 0.75 
1.25641 -0.142757 0.75 
1.26893 -0.145169 0.75 
1.2813 -0.147551 0.75 
1.29368 -0.149931 0.75 
1.30561 -0.152224 0.75 
1.31725 -0.154459 0.75 
1.32859 -0.156635 0.75 
1.33964 -0.158754 0.75 
1.35069 -0.160871 0.75 
1.36144 -0.162931 0.75 
1.3719 -0.164932 0.75 
1.38207 -0.166877 0.75 
1.39223 -0.16882 0.75 
1.4021 -0.170706 0.75 
1.41507 -0.173181 0.75 
1.42804 -0.175654 0.75 
1.43791 -0.177538 0.75 
1.44808 -0.179477 0.75 
1.45868 -0.181501 0.75 
1.46959 -0.183582 0.75 
1.48079 -0.185718 0.75 
1.49228 -0.187911 0.75 
1.50421 -0.190188 0.75 
1.51644 -0.192521 0.75 
1.52897 -0.19491 0.75 
1.54179 -0.197356 0.75 
1.55416 -0.199718 0.75 
1.56624 -0.202023 0.75 
1.57803 -0.204272 0.75 
1.58952 -0.206464 0.75 
1.60102 -0.208657 0.75 
1.61222 -0.210794 0.75 
1.62312 -0.212874 0.75 
1.63373 -0.214898 0.75 
1.64434 -0.216922 0.75 
1.65465 -0.21889 0.75 
1.66467 -0.220802 0.75 
1.67778 -0.223304 0.75 
1.68795 -0.225244 0.75 
1.69856 -0.227268 0.75 
1.70946 -0.229349 0.75 
1.72066 -0.231485 0.75 
1.73215 -0.233678 0.75 
1.74409 -0.235955 0.75 
1.75632 -0.238289 0.75 
1.76869 -0.24065 0.75 
1.78107 -0.243012 0.75 
1.793 -0.245289 0.75 
1.80494 -0.247566 0.75 
1.81673 -0.249815 0.75 
1.82822 -0.252008 0.75 
1.83927 -0.254117 0.75 
1.85032 -0.256225 0.75 
1.86122 -0.258305 0.75 
1.87183 -0.26033 0.75 
1.882 -0.262269 0.75 
1.89217 -0.264209 0.75 
1.90218 -0.266121 0.75 
1.915 -0.268567 0.75 
1.92738 -0.270928 0.75 
1.93961 -0.273262 0.75 
1.9514 -0.275511 0.75 
1.96304 -0.277732 0.75 
1.97424 -0.279869 0.75 
1.98529 -0.281977 0.75 
1.9959 -0.284001 0.75 
2.00636 -0.285997 0.75 
2.01638 -0.287909 0.75 
2.02625 -0.289793 0.75 
2.03803 -0.292042 0.75 
2.04982 -0.294291 0.75 
2.06102 -0.296427 0.75 
2.07192 -0.298508 0.75 
2.08224 -0.300476 0.75 
2.09255 -0.302444 0.75 
2.10419 -0.304665 0.75 
2.11568 -0.306857 0.75 
2.12644 -0.30891 0.75 
2.13705 -0.310934 0.75 
2.14692 -0.312818 0.75 
2.15827 -0.314982 0.75 
2.16917 -0.317063 0.75 
2.17948 -0.319031 0.75 
2.19039 -0.321111 0.75 
2.201 -0.323135 0.75 
2.21131 -0.325103 0.75 
2.22192 -0.327127 0.75 
2.23194 -0.329039 0.75 
2.24225 -0.331007 0.75 
2.25257 -0.332975 0.75 
2.26318 -0.334999 0.75 
2.27334 -0.336939 0.75 
2.28439 -0.339047 0.75 
2.29471 -0.341015 0.75 
2.30502 -0.342983 0.75 
2.31533 -0.344951 0.75 
2.32535 -0.346863 0.75 
2.33611 -0.348915 0.75 
2.34657 -0.350911 0.75 
2.35644 -0.352788 0.75 
2.36726 -0.354514 0.75 
2.3777 -0.355593 0.75 
2.38741 -0.35187 0.75 
2.39554 -0.34596 0.75 
2.40373 -0.339883 0.75 
2.41248 -0.3333 0.75 
2.42108 -0.326761 0.75 
2.42905 -0.320645 0.75 
2.43772 -0.313953 0.75 
2.44708 -0.306684 0.75 
2.45512 -0.30041 0.75 
2.46362 -0.293752 0.75 
2.47259 -0.286711 0.75 
2.48202 -0.279287 0.75 
2.49191 -0.271482 0.75 
2.50226 -0.263297 0.75 
2.51038 -0.256875 0.75 
2.51873 -0.250265 0.75 
2.52731 -0.243467 0.75 
2.53613 -0.236482 0.75 
2.54531 -0.229218 0.75 
2.55471 -0.221768 0.75 
2.56436 -0.214132 0.75 
2.57423 -0.20631 0.75 
2.58446 -0.198208 0.75 
2.59493 -0.18992 0.75 
2.6054 -0.181631 0.75 
2.61562 -0.17353 0.75 
2.6255 -0.165707 0.75 
2.63538 -0.157884 0.75 
2.64514 -0.150155 0.75 
2.65466 -0.142612 0.75 
2.66384 -0.135348 0.75 
2.67277 -0.12827 0.75 
2.68159 -0.121286 0.75 
2.69041 -0.114302 0.75 
2.69888 -0.107596 0.75 
2.70711 -0.101078 0.75 
2.71522 -0.094652 0.75 
2.72334 -0.088226 0.75 
2.73369 -0.080031 0.75 
2.74359 -0.072249 0.75 
2.75308 -0.064899 0.75 
2.76214 -0.057975 0.75 
2.77076 -0.05147 0.75 
2.77894 -0.045377 0.75 
2.78861 -0.038276 0.75 
2.79858 -0.031072 0.75 
2.80713 -0.024978 0.75 
2.81621 -0.018587 0.75 
2.82581 -0.011905 0.75 
2.83595 -0.004937 0.75 
2.84662 0.002314 0.75 
2.85496 0.007922 0.75 
2.86357 0.013663 0.75 
2.87258 0.019617 0.75 
2.88187 0.025698 0.75 
2.8913 0.031822 0.75 
2.90077 0.037906 0.75 
2.91 0.043791 0.75 
2.91888 0.049397 0.75 
2.92778 0.054971 0.75 
2.93693 0.060701 0.75 
2.94647 0.066672 0.75 
2.95625 0.072804 0.75 
2.96629 0.079097 0.75 
2.97659 0.085551 0.75 
2.98726 0.092246 0.75 
2.99819 0.099102 0.75 
3.00924 0.106039 0.75 
3.0203 0.112978 0.75 
3.03097 0.11968 0.75 
3.04138 0.126223 0.75 
3.05154 0.132608 0.75 
3.06145 0.138835 0.75 
3.07135 0.145064 0.75 
3.081 0.151134 0.75 
3.09039 0.157045 0.75 
3.09954 0.162798 0.75 
3.10868 0.168551 0.75 
3.11756 0.174146 0.75 
3.12619 0.179582 0.75 
3.13736 0.186619 0.75 
3.1484 0.193576 0.75 
3.15906 0.200296 0.75 
3.16959 0.206932 0.75 
3.17965 0.213197 0.75 
3.18924 0.219083 0.75 
3.19835 0.224599 0.75 
3.20711 0.229828 0.75 
3.21603 0.235081 0.75 
3.22549 0.240582 0.75 
3.23551 0.246326 0.75 
3.24609 0.252308 0.75 
3.25722 0.258523 0.75 
3.26891 0.264965 0.75 
3.278 0.269914 0.75 
3.28751 0.275039 0.75 
3.2973 0.280265 0.75 
3.30738 0.285589 0.75 
3.31775 0.29101 0.75 
3.32814 0.296388 0.75 
3.33829 0.301584 0.75 
3.34832 0.306674 0.75 
3.35836 0.311759 0.75 
3.36879 0.317049 0.75 
3.3795 0.322475 0.75 
3.39047 0.328037 0.75 
3.40171 0.333736 0.75 
3.41334 0.339638 0.75 
3.42525 0.345677 0.75 
3.43716 0.351717 0.75 
3.44879 0.357622 0.75 
3.46003 0.363323 0.75 
3.471 0.36889 0.75 
3.48183 0.374389 0.75 
3.49267 0.379888 0.75 
3.5031 0.385185 0.75 
3.51326 0.390346 0.75 
3.52316 0.395371 0.75 
3.53279 0.400262 0.75 
3.54242 0.405152 0.75 
3.55178 0.409908 0.75 
3.56101 0.414595 0.75 
3.57024 0.419283 0.75 
3.582 0.425262 0.75 
3.59324 0.43097 0.75 
3.60447 0.436679 0.75 
3.61514 0.442159 0.75 
3.62525 0.447429 0.75 
3.6348 0.452482 0.75 
3.64378 0.45731 0.75 
3.65274 0.462191 0.75 
3.66219 0.467416 0.75 
3.67214 0.472989 0.75 
3.68257 0.478916 0.75 
3.69349 0.485201 0.75 
3.7049 0.491849 0.75 
3.71381 0.497106 0.75 
3.72296 0.502554 0.75 
3.73235 0.508196 0.75 
3.74196 0.514032 0.75 
3.75194 0.520144 0.75 
3.76189 0.526297 0.75 
3.77169 0.532413 0.75 
3.78121 0.538412 0.75 
3.79032 0.54421 0.75 
3.79941 0.550046 0.75 
3.80834 0.55584 0.75 
3.817 0.561512 0.75 
3.828 0.568806 0.75 
3.83846 0.575835 0.75 
3.84838 0.58259 0.75 
3.85776 0.589065 0.75 
3.86661 0.595254 0.75 
3.87542 0.601494 0.75 
3.88469 0.608136 0.75 
3.8944 0.615184 0.75 
3.90456 0.622642 0.75 
3.91515 0.630517 0.75 
3.92343 0.636732 0.75 
3.93192 0.643163 0.75 
3.94062 0.649812 0.75 
3.94953 0.65668 0.75 
3.95841 0.663586 0.75 
3.96702 0.670345 0.75 
3.97549 0.677054 0.75 
3.98387 0.683863 0.75 
3.99182 0.690488 0.75 
3.99946 0.697014 0.75 
4.00915 0.705528 0.75 
4.01827 0.713788 0.75 
4.02682 0.721777 0.75 
4.03481 0.729475 0.75 
4.04227 0.736865 0.75 
4.05088 0.745655 0.75 
4.05871 0.753934 0.75 
4.06571 0.761562 0.75 
4.07317 0.769977 0.75 
4.08058 0.778641 0.75 
4.08744 0.786985 0.75 
4.09375 0.795001 0.75 
4.10025 0.803626 0.75 
4.10628 0.81185 0.75 
4.11267 0.820739 0.75 
4.11892 0.829553 0.75 
4.12467 0.837791 0.75 
4.1309 0.846799 0.75 
4.13758 0.856584 0.75 
4.1433 0.865032 0.75 
4.14931 0.874003 0.75 
4.15562 0.883498 0.75 
4.16222 0.893519 0.75 
4.16844 0.903074 0.75 
4.17427 0.912163 0.75 
4.17973 0.92078 0.75 
4.18616 0.93109 0.75 
4.19157 0.939909 0.75 
4.19725 0.949272 0.75 
4.20318 0.959183 0.75 
4.20936 0.969643 0.75 
4.21579 0.980657 0.75 
4.22245 0.992225 0.75 
4.22757 1.00122 0.75 
4.23288 1.01063 0.75 
4.23829 1.02032 0.75 
4.24381 1.03029 0.75 
4.24943 1.04055 0.75 
4.2548 1.05044 0.75 
4.26012 1.06035 0.75 
4.26533 1.07015 0.75 
4.27036 1.07971 0.75 
4.27537 1.08928 0.75 
4.28053 1.09911 0.75 
4.28582 1.1092 0.75 
4.29126 1.11956 0.75 
4.2969 1.13032 0.75 
4.30269 1.14135 0.75 
4.30861 1.15264 0.75 
4.31468 1.16419 0.75 
4.32074 1.17575 0.75 
4.32667 1.18703 0.75 
4.33246 1.19806 0.75 
4.33811 1.20881 0.75 
4.34376 1.21957 0.75 
4.34927 1.23006 0.75 
4.35464 1.24029 0.75 
4.35987 1.25024 0.75 
4.36511 1.2602 0.75 
4.3702 1.2699 0.75 
4.37515 1.27933 0.75 
4.37997 1.28849 0.75 
4.38478 1.29765 0.75 
4.38946 1.30654 0.75 
4.39548 1.31796 0.75 
4.40128 1.3288 0.75 
4.40686 1.33908 0.75 
4.41222 1.3488 0.75 
4.41735 1.35797 0.75 
4.42253 1.3671 0.75 
4.42806 1.37672 0.75 
4.43395 1.38683 0.75 
4.44021 1.39742 0.75 
4.44684 1.40849 0.75 
4.45204 1.41709 0.75 
4.45743 1.42592 0.75 
4.4631 1.43511 0.75 
4.46897 1.44453 0.75 
4.47504 1.45418 0.75 
4.48131 1.46406 0.75 
4.48737 1.47354 0.75 
4.49348 1.48298 0.75 
4.49971 1.49253 0.75 
4.5061 1.50233 0.75 
4.51274 1.51251 0.75 
4.51954 1.52294 0.75 
4.52649 1.53362 0.75 
4.53362 1.54456 0.75 
4.54098 1.55587 0.75 
4.54818 1.56693 0.75 
4.55522 1.57775 0.75 
4.56209 1.58831 0.75 
4.56895 1.59888 0.75 
4.57566 1.60919 0.75 
4.5822 1.61925 0.75 
4.58857 1.62906 0.75 
4.5947 1.6385 0.75 
4.60082 1.64794 0.75 
4.60686 1.65725 0.75 
4.61274 1.66631 0.75 
4.61837 1.67499 0.75 
4.624 1.68368 0.75 
4.62955 1.69223 0.75 
4.63673 1.70331 0.75 
4.64382 1.71426 0.75 
4.65059 1.72471 0.75 
4.65711 1.73479 0.75 
4.66363 1.74486 0.75 
4.67023 1.75506 0.75 
4.67716 1.76576 0.75 
4.68441 1.77697 0.75 
4.69004 1.78566 0.75 
4.69591 1.79473 0.75 
4.70194 1.80405 0.75 
4.70813 1.81362 0.75 
4.71449 1.82344 0.75 
4.72109 1.83364 0.75 
4.72786 1.84409 0.75 
4.73462 1.85454 0.75 
4.74122 1.86474 0.75 
4.74782 1.87494 0.75 
4.75426 1.88489 0.75 
4.76054 1.89459 0.75 
4.76665 1.90403 0.75 
4.77276 1.91347 0.75 
4.77871 1.92267 0.75 
4.78449 1.93161 0.75 
4.79008 1.94033 0.75 
4.79713 1.95148 0.75 
4.8038 1.96217 0.75 
4.81009 1.97239 0.75 
4.816 1.98214 0.75 
4.82155 1.99141 0.75 
4.82703 2.00071 0.75 
4.83277 2.01056 0.75 
4.83875 2.02097 0.75 
4.84496 2.03193 0.75 
4.8514 2.04345 0.75 
4.85641 2.05251 0.75 
4.86152 2.06185 0.75 
4.86673 2.07148 0.75 
4.87205 2.0814 0.75 
4.87732 2.09134 0.75 
4.88255 2.10129 0.75 
4.88767 2.11115 0.75 
4.89255 2.12078 0.75 
4.89715 2.13005 0.75 
4.90152 2.1391 0.75 
4.907 2.15078 0.75 
4.91209 2.16198 0.75 
4.91679 2.17269 0.75 
4.92113 2.18291 0.75 
4.92512 2.19262 0.75 
4.92963 2.20406 0.75 
4.93366 2.21473 0.75 
4.93718 2.22446 0.75 
4.94085 2.23509 0.75 
4.94438 2.24593 0.75 
4.94754 2.25626 0.75 
4.95033 2.26607 0.75 
4.95295 2.27593 0.75 
4.9556 2.2864 0.75 
4.95829 2.29748 0.75 
4.96087 2.30843 0.75 
4.96317 2.31852 0.75 
4.96565 2.32965 0.75 
4.96826 2.34167 0.75 
4.97043 2.35194 0.75 
4.97269 2.36281 0.75 
4.97499 2.37413 0.75 
4.97739 2.38619 0.75 
4.97986 2.39885 0.75 
4.98178 2.40871 0.75 
4.98377 2.41887 0.75 
4.98584 2.42947 0.75 
4.98797 2.44037 0.75 
4.99016 2.45155 0.75 
4.99241 2.46304 0.75 
4.99475 2.47496 0.75 
4.99715 2.48717 0.75 
4.99957 2.49954 0.75 
5.002 2.5119 0.75 
5.00443 2.52427 0.75 
5.0068 2.53634 0.75 
5.00912 2.54811 0.75 
5.01138 2.55959 0.75 
5.01355 2.57063 0.75 
5.01573 2.58167 0.75 
5.01787 2.59256 0.75 
5.01996 2.60315 0.75 
5.02197 2.61331 0.75 
5.02397 2.62346 0.75 
5.02595 2.63347 0.75 
5.02853 2.64656 0.75 
5.03054 2.65672 0.75 
5.03263 2.66731 0.75 
5.03478 2.6782 0.75 
5.03699 2.68939 0.75 
5.03926 2.70086 0.75 
5.04162 2.71278 0.75 
5.04403 2.725 0.75 
5.04647 2.73736 0.75 
5.04891 2.74972 0.75 
5.05135 2.76208 0.75 
5.05374 2.77415 0.75 
5.05606 2.78592 0.75 
5.05833 2.7974 0.75 
5.0606 2.80888 0.75 
5.06281 2.82006 0.75 
5.06496 2.83095 0.75 
5.06705 2.84155 0.75 
5.06914 2.85214 0.75 
5.07121 2.86259 0.75 
5.07318 2.8726 0.75 
5.07574 2.88555 0.75 
5.07827 2.89835 0.75 
5.08071 2.91071 0.75 
5.08312 2.92292 0.75 
5.08545 2.9347 0.75 
5.08775 2.94632 0.75 
5.08995 2.9575 0.75 
5.09213 2.96854 0.75 
5.09422 2.97914 0.75 
5.09629 2.98958 0.75 
5.09827 2.99959 0.75 
5.10021 3.00945 0.75 
5.10254 3.02122 0.75 
5.10477 3.03256 0.75 
5.10695 3.04359 0.75 
5.1091 3.05448 0.75 
5.11114 3.06478 0.75 
5.11308 3.07464 0.75 
5.11532 3.08612 0.75 
5.1175 3.09762 0.75 
5.11948 3.10839 0.75 
5.12138 3.11902 0.75 
5.1231 3.12892 0.75 
5.12503 3.14031 0.75 
5.12672 3.15067 0.75 
5.12837 3.16104 0.75 
5.13006 3.17201 0.75 
5.13166 3.18269 0.75 
5.13312 3.19279 0.75 
5.13466 3.20378 0.75 
5.1361 3.21449 0.75 
5.1374 3.22445 0.75 
5.1387 3.23487 0.75 
5.13998 3.24544 0.75 
5.14122 3.25617 0.75 
5.1424 3.26676 0.75 
5.14353 3.2772 0.75 
5.14463 3.28749 0.75 
5.14573 3.29763 0.75 
5.14691 3.30851 0.75 
5.14806 3.3191 0.75 
5.14916 3.32924 0.75 
5.15044 3.34027 0.75 
5.15179 3.35068 0.75 
5.14974 3.34022 0.75 
5.14795 3.32927 0.75 
5.14614 3.31771 0.75 
5.14443 3.30644 0.75 
5.14287 3.2959 0.75 
5.1412 3.28447 0.75 
5.13944 3.27215 0.75 
5.13796 3.2616 0.75 
5.1364 3.25046 0.75 
5.13478 3.23872 0.75 
5.13309 3.22639 0.75 
5.13133 3.21346 0.75 
5.12996 3.20335 0.75 
5.12854 3.19295 0.75 
5.12708 3.18225 0.75 
5.12552 3.1711 0.75 
5.12391 3.15967 0.75 
5.12222 3.14794 0.75 
5.12046 3.13592 0.75 
5.11861 3.12345 0.75 
5.11667 3.1107 0.75 
5.11467 3.0978 0.75 
5.11264 3.08491 0.75 
5.11062 3.07248 0.75 
5.10862 3.06034 0.75 
5.10659 3.04836 0.75 
5.10451 3.03639 0.75 
5.10246 3.02487 0.75 
5.10041 3.01366 0.75 
5.09837 3.00275 0.75 
5.09633 2.99214 0.75 
5.09433 2.98199 0.75 
5.09234 2.97214 0.75 
5.0897 2.95951 0.75 
5.08711 2.94748 0.75 
5.08458 2.93606 0.75 
5.0821 2.92524 0.75 
5.07963 2.91473 0.75 
5.07702 2.90394 0.75 
5.07421 2.89258 0.75 
5.07118 2.88066 0.75 
5.06794 2.86818 0.75 
5.06536 2.85846 0.75 
5.06266 2.84847 0.75 
5.0598 2.83805 0.75 
5.05682 2.82736 0.75 
5.05371 2.81639 0.75 
5.05047 2.80515 0.75 
5.04718 2.79392 0.75 
5.04393 2.783 0.75 
5.04068 2.77223 0.75 
5.03737 2.76147 0.75 
5.03416 2.75116 0.75 
5.0309 2.74087 0.75 
5.02764 2.73073 0.75 
5.02443 2.72089 0.75 
5.02109 2.71062 0.75 
5.01769 2.70005 0.75 
5.01423 2.68919 0.75 
5.01071 2.67803 0.75 
5.00708 2.66643 0.75 
5.0034 2.65454 0.75 
4.99965 2.64236 0.75 
4.99584 2.62987 0.75 
4.99205 2.61739 0.75 
4.98837 2.60518 0.75 
4.98479 2.59325 0.75 
4.98132 2.58161 0.75 
4.97798 2.5704 0.75 
4.97465 2.55918 0.75 
4.97138 2.54811 0.75 
4.96819 2.53731 0.75 
4.96514 2.52696 0.75 
4.96209 2.5166 0.75 
4.95908 2.50638 0.75 
4.95615 2.49645 0.75 
4.95323 2.48653 0.75 
4.95038 2.47689 0.75 
4.94754 2.46725 0.75 
4.9446 2.45732 0.75 
4.94154 2.44696 0.75 
4.9384 2.43632 0.75 
4.93517 2.42539 0.75 
4.93185 2.41417 0.75 
4.92841 2.40251 0.75 
4.92488 2.39057 0.75 
4.92127 2.37835 0.75 
4.91758 2.36583 0.75 
4.91401 2.35375 0.75 
4.91052 2.34195 0.75 
4.90708 2.3303 0.75 
4.90364 2.31865 0.75 
4.90032 2.30743 0.75 
4.8971 2.29649 0.75 
4.89395 2.28585 0.75 
4.89089 2.27549 0.75 
4.88784 2.26513 0.75 
4.88486 2.25506 0.75 
4.88193 2.24514 0.75 
4.879 2.23521 0.75 
4.87526 2.22255 0.75 
4.87233 2.21262 0.75 
4.86932 2.20241 0.75 
4.86622 2.19191 0.75 
4.86303 2.18112 0.75 
4.85972 2.1699 0.75 
4.85632 2.15839 0.75 
4.85284 2.14659 0.75 
4.84927 2.13451 0.75 
4.84557 2.12199 0.75 
4.84196 2.10976 0.75 
4.83844 2.09782 0.75 
4.835 2.08617 0.75 
4.83156 2.07452 0.75 
4.8282 2.06315 0.75 
4.82493 2.05207 0.75 
4.82174 2.04128 0.75 
4.81869 2.03093 0.75 
4.81563 2.02057 0.75 
4.81261 2.01035 0.75 
4.80968 2.00043 0.75 
4.80675 1.9905 0.75 
4.8039 1.98086 0.75 
4.80025 1.96849 0.75 
4.79668 1.95641 0.75 
4.7932 1.94461 0.75 
4.78987 1.93339 0.75 
4.78665 1.92277 0.75 
4.78354 1.91274 0.75 
4.77982 1.90102 0.75 
4.77628 1.89018 0.75 
4.77243 1.87866 0.75 
4.76908 1.86886 0.75 
4.76548 1.85852 0.75 
4.76163 1.84763 0.75 
4.75751 1.8362 0.75 
4.75312 1.82423 0.75 
4.74845 1.81173 0.75 
4.74479 1.80204 0.75 
4.74093 1.79196 0.75 
4.73692 1.78161 0.75 
4.73281 1.77113 0.75 
4.72866 1.76068 0.75 
4.72444 1.75025 0.75 
4.72026 1.74013 0.75 
4.71612 1.73032 0.75 
4.71202 1.72081 0.75 
4.70669 1.70874 0.75 
4.7015 1.69726 0.75 
4.69646 1.68637 0.75 
4.69158 1.67606 0.75 
4.68688 1.66634 0.75 
4.68237 1.65719 0.75 
4.67704 1.64661 0.75 
4.67204 1.63687 0.75 
4.66737 1.62797 0.75 
4.66212 1.61819 0.75 
4.6573 1.60937 0.75 
4.65199 1.59979 0.75 
4.64617 1.58947 0.75 
4.64112 1.58061 0.75 
4.63515 1.57037 0.75 
4.62952 1.56098 0.75 
4.62425 1.55242 0.75 
4.61847 1.5433 0.75 
4.61249 1.53413 0.75 
4.60679 1.52567 0.75 
4.60105 1.51742 0.75 
4.59464 1.50854 0.75 
4.58822 1.49986 0.75 
4.58138 1.49074 0.75 
4.57458 1.48177 0.75 
4.5683 1.47355 0.75 
4.56135 1.46451 0.75 
4.55382 1.45478 0.75 
4.54738 1.44649 0.75 
4.54056 1.43774 0.75 
4.53335 1.42852 0.75 
4.52576 1.41884 0.75 
4.51779 1.4087 0.75 
4.51158 1.4008 0.75 
4.50518 1.39267 0.75 
4.49849 1.38418 0.75 
4.49162 1.37546 0.75 
4.48466 1.36663 0.75 
4.4777 1.35779 0.75 
4.47071 1.34897 0.75 
4.46386 1.34043 0.75 
4.45717 1.33215 0.75 
4.45062 1.32413 0.75 
4.44221 1.31396 0.75 
4.43412 1.30429 0.75 
4.42636 1.29514 0.75 
4.41893 1.2865 0.75 
4.41184 1.27835 0.75 
4.4051 1.27069 0.75 
4.39832 1.26308 0.75 
4.39108 1.25506 0.75 
4.3834 1.24663 0.75 
4.37526 1.23782 0.75 
4.36667 1.2286 0.75 
4.35761 1.219 0.75 
4.35047 1.21151 0.75 
4.34349 1.20428 0.75 
4.33443 1.19509 0.75 
4.32569 1.18644 0.75 
4.31726 1.17833 0.75 
4.30917 1.17072 0.75 
4.30143 1.16363 0.75 
4.29226 1.15543 0.75 
4.28364 1.14797 0.75 
4.27573 1.1413 0.75 
4.26701 1.13419 0.75 
4.25806 1.12713 0.75 
4.24945 1.12061 0.75 
4.2412 1.11461 0.75 
4.23234 1.10845 0.75 
4.22389 1.10273 0.75 
4.21476 1.09668 0.75 
4.20571 1.09078 0.75 
4.19726 1.08534 0.75 
4.18802 1.07947 0.75 
4.17799 1.07316 0.75 
4.16933 1.06777 0.75 
4.16013 1.06211 0.75 
4.1504 1.05617 0.75 
4.14014 1.04995 0.75 
4.12935 1.04345 0.75 
4.11804 1.03663 0.75 
4.10918 1.03128 0.75 
4.10006 1.02578 0.75 
4.09069 1.02012 0.75 
4.08106 1.01431 0.75 
4.07104 1.00827 0.75 
4.06077 1.00206 0.75 
4.05023 0.995709 0.75 
4.03945 0.989197 0.75 
4.02866 0.982685 0.75 
4.01813 0.976328 0.75 
4.00773 0.970048 0.75 
3.99733 0.963768 0.75 
3.98731 0.95772 0.75 
3.97756 0.951827 0.75 
3.96805 0.946088 0.75 
3.95881 0.940504 0.75 
3.94956 0.934921 0.75 
3.94058 0.929492 0.75 
3.93172 0.92414 0.75 
3.92286 0.918788 0.75 
3.91153 0.912009 0.75 
3.90068 0.90561 0.75 
3.8903 0.899582 0.75 
3.88041 0.893919 0.75 
3.871 0.888613 0.75 
3.86209 0.883657 0.75 
3.85142 0.877827 0.75 
3.84231 0.872921 0.75 
3.83264 0.867787 0.75 
3.82241 0.86243 0.75 
3.81161 0.856855 0.75 
3.80025 0.851068 0.75 
3.78832 0.845076 0.75 
3.77905 0.840474 0.75 
3.76936 0.835712 0.75 
3.75937 0.83086 0.75 
3.74937 0.826048 0.75 
3.73962 0.821407 0.75 
3.72945 0.816586 0.75 
3.71902 0.811634 0.75 
3.70832 0.806551 0.75 
3.69734 0.801338 0.75 
3.68596 0.795929 0.75 
3.67431 0.79039 0.75 
3.66266 0.784849 0.75 
3.65128 0.779435 0.75 
3.64031 0.774213 0.75 
3.62962 0.769118 0.75 
3.61919 0.76415 0.75 
3.60903 0.75931 0.75 
3.59928 0.754662 0.75 
3.58981 0.750142 0.75 
3.5806 0.74575 0.75 
3.56882 0.740129 0.75 
3.55759 0.734765 0.75 
3.54676 0.729592 0.75 
3.5358 0.724354 0.75 
3.52429 0.718855 0.75 
3.51239 0.713156 0.75 
3.50065 0.70746 0.75 
3.48948 0.701955 0.75 
3.47888 0.696648 0.75 
3.46886 0.691548 0.75 
3.45939 0.686661 0.75 
3.45023 0.681856 0.75 
3.44056 0.676715 0.75 
3.43039 0.671233 0.75 
3.41973 0.665406 0.75 
3.40858 0.659227 0.75 
3.39694 0.652692 0.75 
3.38794 0.647582 0.75 
3.37857 0.64221 0.75 
3.36896 0.636647 0.75 
3.35912 0.630893 0.75 
3.34905 0.624945 0.75 
3.33938 0.619184 0.75 
3.33 0.613537 0.75 
3.3209 0.608005 0.75 
3.31208 0.602588 0.75 
3.30087 0.595617 0.75 
3.29022 0.588895 0.75 
3.28011 0.582431 0.75 
3.27054 0.576232 0.75 
3.26151 0.570304 0.75 
3.25202 0.563989 0.75 
3.24207 0.557285 0.75 
3.23166 0.550184 0.75 
3.2208 0.542683 0.75 
3.21231 0.536759 0.75 
3.2036 0.530626 0.75 
3.19468 0.524282 0.75 
3.18553 0.517726 0.75 
3.17606 0.510867 0.75 
3.16685 0.504144 0.75 
3.15779 0.497471 0.75 
3.14876 0.490759 0.75 
3.14012 0.484278 0.75 
3.13126 0.477592 0.75 
3.12216 0.470727 0.75 
3.11282 0.463684 0.75 
3.10312 0.456371 0.75 
3.09317 0.448879 0.75 
3.08299 0.441209 0.75 
3.07256 0.43336 0.75 
3.06214 0.425513 0.75 
3.05195 0.417848 0.75 
3.04188 0.410275 0.75 
3.03181 0.402703 0.75 
3.02209 0.395404 0.75 
3.01262 0.388286 0.75 
3.00326 0.381259 0.75 
2.99391 0.374234 0.75 
2.98491 0.36748 0.75 
2.97615 0.360907 0.75 
2.96751 0.354426 0.75 
2.95887 0.347945 0.75 
2.95059 0.341736 0.75 
2.94255 0.335707 0.75 
2.93199 0.327791 0.75 
2.92167 0.320056 0.75 
2.91158 0.312502 0.75 
2.90126 0.304769 0.75 
2.89321 0.298745 0.75 
2.88493 0.29254 0.75 
2.87628 0.286067 0.75 
2.8674 0.279413 0.75 
2.85827 0.272579 0.75 
2.84891 0.265566 0.75 
2.83918 0.258283 0.75 
2.82922 0.250819 0.75 
2.81913 0.243266 0.75 
2.80905 0.235713 0.75 
2.79896 0.22816 0.75 
2.78912 0.220787 0.75 
2.77951 0.213594 0.75 
2.77015 0.20658 0.75 
2.76114 0.199836 0.75 
2.75214 0.193092 0.75 
2.74325 0.186438 0.75 
2.73461 0.179964 0.75 
2.72597 0.17349 0.75 
2.71756 0.167195 0.75 
2.70916 0.160901 0.75 
2.70051 0.154427 0.75 
2.69151 0.147683 0.75 
2.68226 0.140759 0.75 
2.67278 0.133655 0.75 
2.66305 0.126372 0.75 
2.65297 0.118818 0.75 
2.64264 0.111085 0.75 
2.6322 0.103262 0.75 
2.62175 0.095439 0.75 
2.61167 0.087886 0.75 
2.60182 0.080512 0.75 
2.59222 0.073319 0.75 
2.58285 0.066305 0.75 
2.57349 0.059291 0.75 
2.56437 0.052457 0.75 
2.55548 0.045803 0.75 
2.54684 0.039329 0.75 
2.53819 0.032855 0.75 
2.52979 0.026561 0.75 
2.52162 0.020446 0.75 
2.51118 0.012619 0.75 
2.50126 0.005099 0.75 
2.49186 -0.00212 0.75 
2.48299 -0.00903 0.75 
2.47462 -0.015625 0.75 
2.46677 -0.021898 0.75 
2.45745 -0.029452 0.75 
2.44783 -0.037361 0.75 
2.43965 -0.04418 0.75 
2.43105 -0.051432 0.75 
2.42204 -0.059122 0.75 
2.41261 -0.067253 0.75 
2.40277 -0.07583 0.75 
2.39512 -0.082571 0.75 
2.38727 -0.089542 0.75 
2.37922 -0.096746 0.75 
2.37087 -0.104284 0.75 
2.36255 -0.111856 0.75 
2.35437 -0.119361 0.75 
2.34644 -0.126697 0.75 
2.33888 -0.133758 0.75 
2.33157 -0.140658 0.75 
2.32229 -0.149621 0.75 
2.31356 -0.158279 0.75 
2.30535 -0.166618 0.75 
2.29766 -0.174626 0.75 
2.29048 -0.18229 0.75 
2.2822 -0.19138 0.75 
2.27465 -0.199918 0.75 
2.2679 -0.207766 0.75 
2.26069 -0.216406 0.75 
2.25354 -0.225285 0.75 
2.24693 -0.233821 0.75 
2.24067 -0.242251 0.75 
2.23478 -0.250577 0.75 
2.22856 -0.259412 0.75 
2.222 -0.268733 0.75 
2.21612 -0.27707 0.75 
2.20955 -0.286386 0.75 
2.20341 -0.295087 0.75 
2.19675 -0.304521 0.75 
2.18956 -0.314688 0.75 
2.18342 -0.323385 0.75 
2.17692 -0.33257 0.75 
2.17007 -0.342243 0.75 
2.16319 -0.352072 0.75 
2.15669 -0.361615 0.75 
2.15063 -0.37074 0.75 
2.14502 -0.379435 0.75 
2.13857 -0.38973 0.75 
2.13281 -0.399222 0.75 
2.12765 -0.40802 0.75 
2.12218 -0.417677 0.75 
2.11687 -0.427428 0.75 
2.11203 -0.436743 0.75 
2.10739 -0.44616 0.75 
2.10296 -0.455844 0.75 
2.09898 -0.465073 0.75 
2.09504 -0.474483 0.75 
2.0909 -0.48462 0.75 
2.08688 -0.494645 0.75 
2.08319 -0.503994 0.75 
2.07923 -0.5142 0.75 
2.07499 -0.525265 0.75 
2.07138 -0.534804 0.75 
2.06759 -0.544919 0.75 
2.06364 -0.555611 0.75 
2.05951 -0.566881 0.75 
2.05517 -0.578709 0.75 
2.05057 -0.591081 0.75 
2.04693 -0.60077 0.75 
2.04316 -0.61073 0.75 
2.03926 -0.620961 0.75 
2.03522 -0.631464 0.75 
2.03101 -0.642378 0.75 
2.02666 -0.653563 0.75 
2.02219 -0.665021 0.75 
2.01759 -0.676751 0.75 
2.01297 -0.688475 0.75 
2.00845 -0.699915 0.75 
2.00403 -0.711071 0.75 
1.99971 -0.721944 0.75 
1.99539 -0.732815 0.75 
1.99117 -0.743405 0.75 
1.98706 -0.753716 0.75 
1.98306 -0.763748 0.75 
1.97906 -0.77378 0.75 
1.97518 -0.783539 0.75 
1.97147 -0.793038 0.75 
1.96678 -0.805218 0.75 
1.96238 -0.816865 0.75 
1.95827 -0.827977 0.75 
1.95442 -0.83855 0.75 
1.95085 -0.848582 0.75 
1.94753 -0.858068 0.75 
1.94374 -0.869137 0.75 
1.94031 -0.879379 0.75 
1.93669 -0.890503 0.75 
1.93356 -0.900368 0.75 
1.93033 -0.910833 0.75 
1.92732 -0.920892 0.75 
1.92396 -0.932412 0.75 
1.92096 -0.942942 0.75 
1.91818 -0.953222 0.75 
1.91552 -0.964307 0.75 
1.91345 -0.974295 0.75 
1.91175 -0.984199 0.75 
1.91042 -0.994462 0.75 
1.90969 -1.00478 0.75 
1.91681 -1.01252 0.75 
1.92524 -1.01878 0.75 
1.93378 -1.02489 0.75 
1.94288 -1.03124 0.75 
1.95253 -1.03786 0.75 
1.96198 -1.04424 0.75 
1.97084 -1.05015 0.75 
1.98048 -1.05651 0.75 
1.99091 -1.06331 0.75 
1.99986 -1.06908 0.75 
2.00934 -1.07514 0.75 
2.01897 -1.08124 0.75 
2.02826 -1.08704 0.75 
2.03707 -1.09246 0.75 
2.04746 -1.09876 0.75 
2.05622 -1.10399 0.75 
2.06553 -1.10947 0.75 
2.07538 -1.1152 0.75 
2.08579 -1.12117 0.75 
2.09675 -1.12739 0.75 
2.10827 -1.13383 0.75 
2.11733 -1.13884 0.75 
2.12667 -1.14395 0.75 
2.1363 -1.14917 0.75 
2.14621 -1.15449 0.75 
2.15654 -1.15998 0.75 
2.16689 -1.16543 0.75 
2.17727 -1.17084 0.75 
2.18727 -1.17599 0.75 
2.19689 -1.1809 0.75 
2.20653 -1.18577 0.75 
2.21606 -1.19052 0.75 
2.22534 -1.1951 0.75 
2.23722 -1.20087 0.75 
2.24858 -1.20631 0.75 
2.25944 -1.21142 0.75 
2.26978 -1.21621 0.75 
2.27961 -1.22069 0.75 
2.29001 -1.22535 0.75 
2.30099 -1.2302 0.75 
2.31255 -1.23522 0.75 
2.32469 -1.24041 0.75 
2.33422 -1.24443 0.75 
2.34405 -1.24852 0.75 
2.35418 -1.25269 0.75 
2.3646 -1.25693 0.75 
2.37504 -1.26112 0.75 
2.3855 -1.26527 0.75 
2.39583 -1.26932 0.75 
2.40591 -1.27321 0.75 
2.41558 -1.2769 0.75 
2.42499 -1.28043 0.75 
2.43709 -1.2849 0.75 
2.44865 -1.28909 0.75 
2.45968 -1.293 0.75 
2.47016 -1.29665 0.75 
2.4801 -1.30004 0.75 
2.49006 -1.30337 0.75 
2.5006 -1.30683 0.75 
2.51174 -1.31042 0.75 
2.52347 -1.31412 0.75 
2.53579 -1.31793 0.75 
2.54541 -1.32086 0.75 
2.55532 -1.32383 0.75 
2.56568 -1.32688 0.75 
2.57634 -1.32998 0.75 
2.5873 -1.33313 0.75 
2.59854 -1.33635 0.75 
2.61022 -1.33971 0.75 
2.62218 -1.34316 0.75 
2.63443 -1.3467 0.75 
2.64697 -1.35034 0.75 
2.65993 -1.3541 0.75 
2.6726 -1.3578 0.75 
2.68498 -1.36141 0.75 
2.69708 -1.36495 0.75 
2.70917 -1.36849 0.75 
2.72097 -1.37196 0.75 
2.73248 -1.37535 0.75 
2.7437 -1.37866 0.75 
2.75449 -1.38185 0.75 
2.76499 -1.38496 0.75 
2.77534 -1.38803 0.75 
2.7857 -1.39111 0.75 
2.79562 -1.39406 0.75 
2.80554 -1.39702 0.75 
2.81531 -1.39994 0.75 
2.82781 -1.40368 0.75 
2.83988 -1.4073 0.75 
2.8518 -1.41087 0.75 
2.86317 -1.41422 0.75 
2.87398 -1.41733 0.75 
2.88424 -1.42021 0.75 
2.89393 -1.42286 0.75 
2.90524 -1.42587 0.75 
2.91569 -1.42857 0.75 
2.92646 -1.43126 0.75 
2.93827 -1.43412 0.75 
2.94835 -1.4365 0.75 
2.95902 -1.43895 0.75 
2.97029 -1.44148 0.75 
2.98216 -1.44407 0.75 
2.99463 -1.44673 0.75 
3.0077 -1.44945 0.75 
3.01784 -1.45151 0.75 
3.02843 -1.45361 0.75 
3.03932 -1.45576 0.75 
3.05051 -1.45796 0.75 
3.06199 -1.46023 0.75 
3.0739 -1.46259 0.75 
3.08612 -1.46502 0.75 
3.09862 -1.46751 0.75 
3.11142 -1.47007 0.75 
3.12421 -1.47263 0.75 
3.13671 -1.47514 0.75 
3.14907 -1.47763 0.75 
3.16142 -1.48012 0.75 
3.17333 -1.48253 0.75 
3.18494 -1.48488 0.75 
3.19641 -1.48721 0.75 
3.20787 -1.48954 0.75 
3.21889 -1.49179 0.75 
3.22962 -1.49398 0.75 
3.2402 -1.49614 0.75 
3.25078 -1.49831 0.75 
3.26092 -1.50039 0.75 
3.27077 -1.50242 0.75 
3.2834 -1.50502 0.75 
3.29604 -1.50762 0.75 
3.30588 -1.50965 0.75 
3.31602 -1.51175 0.75 
3.32659 -1.51393 0.75 
3.33746 -1.51617 0.75 
3.34863 -1.51847 0.75 
3.36009 -1.52084 0.75 
3.37199 -1.52329 0.75 
3.38418 -1.52581 0.75 
3.39652 -1.52835 0.75 
3.40886 -1.53089 0.75 
3.4212 -1.53344 0.75 
3.43354 -1.53598 0.75 
3.44573 -1.5385 0.75 
3.45763 -1.54095 0.75 
3.46909 -1.54331 0.75 
3.48026 -1.54561 0.75 
3.49128 -1.54788 0.75 
3.5023 -1.55015 0.75 
3.51288 -1.55233 0.75 
3.52316 -1.55445 0.75 
3.5333 -1.55654 0.75 
3.54343 -1.55863 0.75 
3.55357 -1.56072 0.75 
3.564 -1.56287 0.75 
3.57473 -1.56508 0.75 
3.58575 -1.56735 0.75 
3.5972 -1.56971 0.75 
3.60896 -1.57213 0.75 
3.62101 -1.57461 0.75 
3.63335 -1.57715 0.75 
3.64613 -1.57978 0.75 
3.65891 -1.58242 0.75 
3.67154 -1.58502 0.75 
3.68389 -1.58756 0.75 
3.69623 -1.59011 0.75 
3.70827 -1.59259 0.75 
3.72003 -1.59501 0.75 
3.73149 -1.59737 0.75 
3.74294 -1.59973 0.75 
3.75411 -1.60203 0.75 
3.76498 -1.60427 0.75 
3.77556 -1.60645 0.75 
3.7857 -1.60854 0.75 
3.79583 -1.61063 0.75 
3.80582 -1.61268 0.75 
3.81861 -1.61531 0.75 
3.83082 -1.61776 0.75 
3.84245 -1.62001 0.75 
3.85351 -1.62208 0.75 
3.86399 -1.62397 0.75 
3.87389 -1.62569 0.75 
3.88543 -1.62762 0.75 
3.89699 -1.62945 0.75 
3.90692 -1.63096 0.75 
3.91746 -1.63251 0.75 
3.9286 -1.63407 0.75 
3.94034 -1.63566 0.75 
3.95269 -1.63726 0.75 
3.96564 -1.63886 0.75 
3.97577 -1.64007 0.75 
3.9862 -1.64128 0.75 
3.99693 -1.64251 0.75 
4.0081 -1.6438 0.75 
4.01958 -1.64512 0.75 
4.03135 -1.64648 0.75 
4.04342 -1.64788 0.75 
4.05593 -1.64933 0.75 
4.06875 -1.65082 0.75 
4.08186 -1.65234 0.75 
4.09527 -1.6539 0.75 
4.10823 -1.65541 0.75 
4.1209 -1.65689 0.75 
4.13341 -1.65835 0.75 
4.14593 -1.65982 0.75 
4.15799 -1.66123 0.75 
4.16976 -1.66261 0.75 
4.18123 -1.66396 0.75 
4.19241 -1.66527 0.75 
4.20313 -1.66654 0.75 
4.21386 -1.6678 0.75 
4.22443 -1.66905 0.75 
4.23471 -1.67026 0.75 
4.24499 -1.67148 0.75 
4.25557 -1.67273 0.75 
4.26644 -1.67402 0.75 
4.27762 -1.67534 0.75 
4.28923 -1.67671 0.75 
4.30115 -1.67812 0.75 
4.31337 -1.67956 0.75 
4.32588 -1.68104 0.75 
4.33839 -1.68251 0.75 
4.3509 -1.68399 0.75 
4.36342 -1.68547 0.75 
4.37593 -1.68695 0.75 
4.388 -1.68837 0.75 
4.39976 -1.68976 0.75 
4.41123 -1.69111 0.75 
4.42241 -1.69243 0.75 
4.43358 -1.69375 0.75 
4.44445 -1.69503 0.75 
4.45503 -1.69628 0.75 
4.46531 -1.69749 0.75 
4.47559 -1.69871 0.75 
4.48557 -1.69989 0.75 
4.49868 -1.70143 0.75 
4.50866 -1.70261 0.75 
4.51894 -1.70382 0.75 
4.52966 -1.70509 0.75 
4.54069 -1.70639 0.75 
4.55201 -1.70772 0.75 
4.56363 -1.70909 0.75 
4.57569 -1.71052 0.75 
4.58806 -1.71198 0.75 
4.60057 -1.71345 0.75 
4.61308 -1.71493 0.75 
4.6256 -1.7164 0.75 
4.63811 -1.71788 0.75 
4.65047 -1.71934 0.75 
4.66254 -1.72076 0.75 
4.67416 -1.72213 0.75 
4.68548 -1.72347 0.75 
4.69665 -1.72479 0.75 
4.70782 -1.72611 0.75 
4.71855 -1.72737 0.75 
4.72898 -1.7286 0.75 
4.73926 -1.72981 0.75 
4.74953 -1.73103 0.75 
4.76264 -1.73257 0.75 
4.77292 -1.73379 0.75 
4.7835 -1.73503 0.75 
4.79437 -1.73632 0.75 
4.80554 -1.73764 0.75 
4.81716 -1.739 0.75 
4.82908 -1.74041 0.75 
4.8413 -1.74185 0.75 
4.85381 -1.74333 0.75 
4.86677 -1.74486 0.75 
4.87943 -1.74635 0.75 
4.89195 -1.74783 0.75 
4.90446 -1.7493 0.75 
4.91697 -1.75078 0.75 
4.92919 -1.75222 0.75 
4.9411 -1.75363 0.75 
4.95272 -1.755 0.75 
4.9639 -1.75632 0.75 
4.97477 -1.7576 0.75 
4.9855 -1.75886 0.75 
4.99622 -1.76013 0.75 
5.0065 -1.76134 0.75 
5.01708 -1.76259 0.75 
5.02766 -1.76384 0.75 
5.03793 -1.76505 0.75 
5.04821 -1.76626 0.75 
5.05849 -1.76748 0.75 
5.06862 -1.76867 0.75 
5.08173 -1.77022 0.75 
5.09469 -1.77175 0.75 
5.10705 -1.77321 0.75 
5.11897 -1.77461 0.75 
5.13074 -1.776 0.75 
5.14206 -1.77733 0.75 
5.15323 -1.77865 0.75 
5.16396 -1.77992 0.75 
5.17468 -1.78118 0.75 
5.18526 -1.78243 0.75 
5.19524 -1.78361 0.75 
5.20716 -1.78501 0.75 
5.21908 -1.78635 0.75 
5.23102 -1.78762 0.75 
5.24221 -1.78875 0.75 
5.25311 -1.7898 0.75 
5.26357 -1.79075 0.75 
5.27403 -1.79166 0.75 
5.28569 -1.79261 0.75 
5.29675 -1.79345 0.75 
5.30753 -1.79423 0.75 
5.3177 -1.79491 0.75 
5.32923 -1.79563 0.75 
5.33986 -1.79624 0.75 
5.3502 -1.79681 0.75 
5.36098 -1.7974 0.75 
5.37162 -1.798 0.75 
5.3824 -1.79861 0.75 
5.39318 -1.79923 0.75 
5.40366 -1.79984 0.75 
5.41444 -1.80048 0.75 
5.42522 -1.80112 0.75 
5.436 -1.80177 0.75 
5.44648 -1.80239 0.75 
