ply
format ascii 1.0
element vertex 694
property float x
property float y
property float z
end_header
0.0108 0 0.75 
0.0216 0 0.75 
0.033 0 0.75 
0.0432 0 0.75 
0.0546 0 0.75 
0.06525 0 0.75 
0.0768 0 0.75 
0.08925 0 0.75 
0.0999 0 0.75 
0.11115 0 0.75 
0.123 0 0.75 
0.13545 0 0.75 
0.1485 0 0.75 
0.1587 0 0.75 
0.1692 0 0.75 
0.18 0 0.75 
0.19125 0 0.75 
0.2028 0 0.75 
0.21465 0 0.75 
0.2268 0 0.75 
0.23895 0 0.75 
0.2508 0 0.75 
0.26235 0 0.75 
0.2736 0 0.75 
0.28485 0 0.75 
0.2958 0 0.75 
0.3066 0 0.75 
0.31695 0 0.75 
0.3273 0 0.75 
0.33795 0 0.75 
0.3489 0 0.75 
0.36015 0 0.75 
0.37185 0 0.75 
0.38385 0 0.75 
0.39615 0 0.75 
0.40875 0 0.75 
0.4218 0 0.75 
0.43485 0 0.75 
0.44775 0 0.75 
0.46035 0 0.75 
0.4725 0 0.75 
0.48435 0 0.75 
0.49605 0 0.75 
0.50775 0 0.75 
0.519 0 0.75 
0.52995 0 0.75 
0.54075 0 0.75 
0.55155 0 0.75 
0.5619 0 0.75 
0.57195 0 0.75 
0.58515 0 0.75 
0.59805 0 0.75 
0.61035 1.5e-05 0.75 
0.62205 0.0001 0.75 
0.633148 0.000253 0.75 
0.643646 0.000465 0.75 
0.655942 0.000799 0.75 
0.667335 0.001195 0.75 
0.679474 0.001709 0.75 
0.689812 0.002214 0.75 
0.700745 0.002809 0.75 
0.712275 0.003501 0.75 
0.724399 0.004296 0.75 
0.737117 0.005199 0.75 
0.750428 0.006216 0.75 
0.760744 0.007054 0.75 
0.771505 0.007971 0.75 
0.782561 0.008959 0.75 
0.793912 0.010013 0.75 
0.805561 0.011099 0.75 
0.817659 0.012224 0.75 
0.830056 0.013375 0.75 
0.842752 0.014552 0.75 
0.855746 0.015753 0.75 
0.869189 0.016995 0.75 
0.882333 0.018206 0.75 
0.895179 0.019388 0.75 
0.907726 0.02054 0.75 
0.920273 0.021691 0.75 
0.932522 0.022812 0.75 
0.944472 0.023904 0.75 
0.956124 0.024968 0.75 
0.967328 0.025989 0.75 
0.978531 0.027008 0.75 
0.989586 0.028013 0.75 
1.00034 0.028989 0.75 
1.01065 0.029923 0.75 
1.02096 0.030856 0.75 
1.03112 0.031775 0.75 
1.04426 0.032962 0.75 
1.05726 0.034134 0.75 
1.06966 0.03525 0.75 
1.08176 0.036338 0.75 
1.09446 0.037479 0.75 
1.10776 0.038674 0.75 
1.11806 0.039601 0.75 
1.12882 0.040568 0.75 
1.13988 0.041561 0.75 
1.15123 0.042582 0.75 
1.16288 0.04363 0.75 
1.17498 0.044718 0.75 
1.18738 0.045833 0.75 
1.19993 0.046961 0.75 
1.21248 0.04809 0.75 
1.22459 0.049178 0.75 
1.23639 0.050239 0.75 
1.24804 0.051287 0.75 
1.25969 0.052335 0.75 
1.2709 0.053343 0.75 
1.2818 0.054323 0.75 
1.29256 0.055291 0.75 
1.30332 0.056258 0.75 
1.31362 0.057185 0.75 
1.32363 0.058086 0.75 
1.33678 0.059268 0.75 
1.34963 0.060424 0.75 
1.36248 0.06158 0.75 
1.37249 0.06248 0.75 
1.3828 0.063407 0.75 
1.39355 0.064375 0.75 
1.40461 0.065369 0.75 
1.41596 0.066391 0.75 
1.42762 0.067439 0.75 
1.43972 0.068528 0.75 
1.45212 0.069643 0.75 
1.46467 0.070772 0.75 
1.47721 0.071901 0.75 
1.48976 0.07303 0.75 
1.50201 0.074132 0.75 
1.51397 0.075207 0.75 
1.52562 0.076255 0.75 
1.53682 0.077263 0.75 
1.54803 0.078271 0.75 
1.55908 0.079265 0.75 
1.56984 0.080233 0.75 
1.58015 0.08116 0.75 
1.59046 0.082087 0.75 
1.60062 0.083001 0.75 
1.61361 0.084175 0.75 
1.62601 0.085361 0.75 
1.63779 0.086567 0.75 
1.64898 0.087783 0.75 
1.65956 0.089001 0.75 
1.66954 0.090213 0.75 
1.68144 0.091743 0.75 
1.69377 0.093421 0.75 
1.70432 0.094926 0.75 
1.71545 0.096579 0.75 
1.72716 0.098385 0.75 
1.73945 0.100351 0.75 
1.75233 0.102482 0.75 
1.76238 0.104196 0.75 
1.77272 0.106003 0.75 
1.78335 0.107905 0.75 
1.79442 0.109932 0.75 
1.80548 0.112004 0.75 
1.81638 0.114094 0.75 
1.82698 0.116178 0.75 
1.83712 0.118223 0.75 
1.84696 0.120255 0.75 
1.85958 0.122933 0.75 
1.8716 0.12556 0.75 
1.88301 0.12813 0.75 
1.89383 0.130634 0.75 
1.90463 0.133203 0.75 
1.91599 0.135978 0.75 
1.92792 0.138965 0.75 
1.94042 0.142169 0.75 
1.95014 0.144714 0.75 
1.96014 0.147378 0.75 
1.97057 0.150202 0.75 
1.98127 0.15315 0.75 
1.9921 0.156185 0.75 
2.00292 0.159266 0.75 
2.01373 0.162394 0.75 
2.02423 0.165484 0.75 
2.03444 0.168533 0.75 
2.04434 0.171539 0.75 
2.05423 0.174587 0.75 
2.06412 0.177663 0.75 
2.07414 0.180783 0.75 
2.08445 0.183992 0.75 
2.0952 0.187333 0.75 
2.10623 0.190763 0.75 
2.11754 0.194282 0.75 
2.12914 0.197889 0.75 
2.14118 0.201628 0.75 
2.15349 0.205457 0.75 
2.16581 0.209284 0.75 
2.17785 0.213022 0.75 
2.18988 0.216759 0.75 
2.20163 0.220407 0.75 
2.21308 0.223965 0.75 
2.22426 0.227434 0.75 
2.235 0.230769 0.75 
2.24575 0.234103 0.75 
2.25635 0.237393 0.75 
2.26666 0.240593 0.75 
2.27655 0.243659 0.75 
2.28643 0.246725 0.75 
2.29618 0.249747 0.75 
2.30878 0.253656 0.75 
2.32125 0.25752 0.75 
2.33314 0.261206 0.75 
2.34446 0.26471 0.75 
2.35523 0.26798 0.75 
2.36544 0.271009 0.75 
2.37509 0.273806 0.75 
2.38635 0.276984 0.75 
2.3972 0.279957 0.75 
2.40865 0.283005 0.75 
2.41852 0.285565 0.75 
2.42899 0.288216 0.75 
2.44006 0.290955 0.75 
2.45172 0.293773 0.75 
2.46399 0.296667 0.75 
2.47685 0.299631 0.75 
2.48695 0.301907 0.75 
2.49735 0.304207 0.75 
2.50805 0.306529 0.75 
2.51905 0.30887 0.75 
2.53006 0.311167 0.75 
2.54079 0.313359 0.75 
2.55138 0.315478 0.75 
2.56198 0.317553 0.75 
2.57302 0.319702 0.75 
2.58436 0.32191 0.75 
2.59599 0.324178 0.75 
2.60792 0.326505 0.75 
2.62028 0.328921 0.75 
2.63294 0.331396 0.75 
2.64575 0.333901 0.75 
2.65856 0.336409 0.75 
2.67092 0.338833 0.75 
2.68329 0.341258 0.75 
2.6955 0.343656 0.75 
2.70743 0.345998 0.75 
2.71891 0.348254 0.75 
2.73039 0.350513 0.75 
2.74172 0.352744 0.75 
2.75276 0.354918 0.75 
2.76335 0.357006 0.75 
2.77395 0.359096 0.75 
2.7844 0.361158 0.75 
2.79455 0.363163 0.75 
2.8075 0.365722 0.75 
2.82045 0.368282 0.75 
2.83281 0.370728 0.75 
2.84517 0.373175 0.75 
2.85812 0.37574 0.75 
2.86827 0.377751 0.75 
2.87872 0.379819 0.75 
2.88946 0.381947 0.75 
2.9005 0.384132 0.75 
2.91197 0.386405 0.75 
2.92374 0.388736 0.75 
2.93581 0.391125 0.75 
2.94817 0.393572 0.75 
2.96053 0.39602 0.75 
2.97289 0.398467 0.75 
2.9851 0.400885 0.75 
2.99702 0.403245 0.75 
3.0085 0.405518 0.75 
3.01968 0.407732 0.75 
3.03072 0.409917 0.75 
3.04175 0.412102 0.75 
3.05235 0.414199 0.75 
3.06265 0.416238 0.75 
3.0728 0.418248 0.75 
3.08295 0.420259 0.75 
3.0959 0.422822 0.75 
3.10885 0.425385 0.75 
3.12122 0.427783 0.75 
3.13302 0.42999 0.75 
3.14423 0.432017 0.75 
3.15487 0.433872 0.75 
3.16493 0.435562 0.75 
3.17559 0.437288 0.75 
3.18686 0.439043 0.75 
3.19873 0.440822 0.75 
3.2112 0.442618 0.75 
3.22427 0.444425 0.75 
3.23453 0.445791 0.75 
3.2451 0.447153 0.75 
3.25596 0.448506 0.75 
3.26713 0.44985 0.75 
3.27875 0.451198 0.75 
3.29008 0.452464 0.75 
3.30127 0.453664 0.75 
3.31246 0.454817 0.75 
3.32321 0.455878 0.75 
3.33366 0.456864 0.75 
3.34412 0.45781 0.75 
3.35487 0.458779 0.75 
3.36608 0.459788 0.75 
3.37758 0.460826 0.75 
3.38938 0.461891 0.75 
3.40148 0.462983 0.75 
3.41403 0.464117 0.75 
3.42688 0.465279 0.75 
3.43988 0.466455 0.75 
3.45288 0.467631 0.75 
3.46542 0.468768 0.75 
3.47767 0.469878 0.75 
3.48977 0.470975 0.75 
3.50187 0.472073 0.75 
3.51353 0.473131 0.75 
3.52488 0.474162 0.75 
3.53608 0.47518 0.75 
3.54729 0.476198 0.75 
3.55804 0.477176 0.75 
3.5685 0.478128 0.75 
3.57881 0.479066 0.75 
3.58911 0.480005 0.75 
3.60226 0.481202 0.75 
3.61481 0.482295 0.75 
3.62677 0.48326 0.75 
3.63814 0.484105 0.75 
3.64892 0.484839 0.75 
3.6591 0.48547 0.75 
3.66988 0.486073 0.75 
3.68127 0.486643 0.75 
3.69325 0.487173 0.75 
3.70584 0.487657 0.75 
3.71904 0.48809 0.75 
3.72938 0.488378 0.75 
3.74003 0.488629 0.75 
3.75098 0.488841 0.75 
3.76223 0.489011 0.75 
3.77393 0.489139 0.75 
3.78533 0.489215 0.75 
3.79658 0.489241 0.75 
3.80783 0.48922 0.75 
3.81863 0.489153 0.75 
3.82912 0.489042 0.75 
3.83947 0.488889 0.75 
3.84982 0.48869 0.75 
3.86302 0.488367 0.75 
3.87561 0.487978 0.75 
3.8876 0.487533 0.75 
3.89899 0.48704 0.75 
3.90978 0.486507 0.75 
3.92116 0.485877 0.75 
3.93314 0.485142 0.75 
3.94571 0.484297 0.75 
3.95888 0.483336 0.75 
3.96919 0.482531 0.75 
3.97981 0.481656 0.75 
3.99072 0.480711 0.75 
4.00192 0.479692 0.75 
4.01357 0.478582 0.75 
4.02521 0.477423 0.75 
4.0367 0.47623 0.75 
4.04788 0.475019 0.75 
4.05906 0.473759 0.75 
4.06994 0.472487 0.75 
4.08051 0.471203 0.75 
4.09078 0.469911 0.75 
4.10387 0.468192 0.75 
4.11635 0.466472 0.75 
4.12823 0.46476 0.75 
4.1395 0.463064 0.75 
4.15017 0.461393 0.75 
4.16083 0.459657 0.75 
4.17207 0.45776 0.75 
4.18389 0.455694 0.75 
4.19629 0.453454 0.75 
4.20927 0.451033 0.75 
4.21943 0.449084 0.75 
4.22929 0.447151 0.75 
4.24224 0.444549 0.75 
4.25487 0.441938 0.75 
4.26719 0.439323 0.75 
4.27921 0.43671 0.75 
4.29063 0.434168 0.75 
4.30175 0.431639 0.75 
4.31285 0.429058 0.75 
4.32365 0.426488 0.75 
4.33415 0.423934 0.75 
4.34434 0.4214 0.75 
4.35422 0.41889 0.75 
4.3641 0.416335 0.75 
4.37599 0.413195 0.75 
4.38757 0.410068 0.75 
4.39842 0.407081 0.75 
4.40896 0.404122 0.75 
4.41906 0.401237 0.75 
4.42914 0.398306 0.75 
4.44036 0.394987 0.75 
4.45156 0.391612 0.75 
4.46189 0.388448 0.75 
4.4722 0.385239 0.75 
4.48221 0.382071 0.75 
4.49321 0.37853 0.75 
4.50418 0.37493 0.75 
4.51414 0.371608 0.75 
4.5238 0.368336 0.75 
4.53401 0.364823 0.75 
4.54421 0.361262 0.75 
4.55467 0.357554 0.75 
4.56484 0.353899 0.75 
4.57498 0.350195 0.75 
4.58525 0.34639 0.75 
4.59508 0.342693 0.75 
4.60474 0.339004 0.75 
4.61482 0.335107 0.75 
4.62445 0.331328 0.75 
4.63421 0.327449 0.75 
4.64438 0.323402 0.75 
4.65442 0.31941 0.75 
4.66487 0.315244 0.75 
4.67494 0.310936 0.75 
4.68415 0.306561 0.75 
4.69301 0.301816 0.75 
4.69647 0.311564 0.75 
4.69492 0.321798 0.75 
4.6935 0.332352 0.75 
4.69221 0.342622 0.75 
4.69101 0.352902 0.75 
4.68972 0.364531 0.75 
4.6886 0.375272 0.75 
4.68745 0.386915 0.75 
4.6865 0.39692 0.75 
4.68554 0.407527 0.75 
4.68457 0.418736 0.75 
4.6836 0.430546 0.75 
4.68263 0.442958 0.75 
4.68167 0.455972 0.75 
4.68094 0.466146 0.75 
4.68019 0.47662 0.75 
4.67942 0.487392 0.75 
4.67862 0.498613 0.75 
4.67779 0.510133 0.75 
4.67694 0.521953 0.75 
4.67606 0.534071 0.75 
4.67515 0.546638 0.75 
4.67422 0.559504 0.75 
4.67329 0.572371 0.75 
4.67237 0.584937 0.75 
4.67149 0.597055 0.75 
4.67061 0.609173 0.75 
4.66973 0.621141 0.75 
4.66888 0.63281 0.75 
4.66806 0.64403 0.75 
4.66726 0.654951 0.75 
4.66647 0.665722 0.75 
4.66568 0.676493 0.75 
4.66492 0.686815 0.75 
4.66416 0.697137 0.75 
4.66341 0.707309 0.75 
4.66246 0.720325 0.75 
4.66173 0.732753 0.75 
4.66123 0.744593 0.75 
4.66093 0.755839 0.75 
4.66082 0.766488 0.75 
4.66086 0.776538 0.75 
4.6611 0.788235 0.75 
4.66152 0.799027 0.75 
4.66217 0.810708 0.75 
4.66295 0.821029 0.75 
4.66392 0.831333 0.75 
4.66515 0.841912 0.75 
4.66659 0.852161 0.75 
4.66824 0.86329 0.75 
4.66969 0.873234 0.75 
4.67117 0.883327 0.75 
4.67262 0.893272 0.75 
4.6741 0.903515 0.75 
4.67555 0.913612 0.75 
4.67697 0.923863 0.75 
4.67836 0.935027 0.75 
4.6796 0.945906 0.75 
4.68073 0.956647 0.75 
4.68171 0.966649 0.75 
4.68272 0.977552 0.75 
4.68374 0.989359 0.75 
4.68457 0.999525 0.75 
4.68539 1.01029 0.75 
4.68621 1.02166 0.75 
4.68703 1.03364 0.75 
4.68783 1.04621 0.75 
4.6886 1.05924 0.75 
4.68944 1.07241 0.75 
4.69038 1.08498 0.75 
4.69139 1.09693 0.75 
4.69246 1.10828 0.75 
4.69358 1.11902 0.75 
4.69472 1.12916 0.75 
4.69616 1.14092 0.75 
4.6976 1.15178 0.75 
4.69902 1.16173 0.75 
4.70064 1.1724 0.75 
4.7024 1.18321 0.75 
4.70428 1.194 0.75 
4.70623 1.20462 0.75 
4.70813 1.21464 0.75 
4.71025 1.22539 0.75 
4.71257 1.23701 0.75 
4.71456 1.24701 0.75 
4.71668 1.2576 0.75 
4.71891 1.26878 0.75 
4.72125 1.28055 0.75 
4.72371 1.29291 0.75 
4.72628 1.30586 0.75 
4.7283 1.31601 0.75 
4.73037 1.32645 0.75 
4.7325 1.33719 0.75 
4.73469 1.34823 0.75 
4.73696 1.3597 0.75 
4.7393 1.37148 0.75 
4.74162 1.38325 0.75 
4.7439 1.39473 0.75 
4.74608 1.40576 0.75 
4.74826 1.4168 0.75 
4.75041 1.42769 0.75 
4.7525 1.43828 0.75 
4.7546 1.44888 0.75 
4.75675 1.45977 0.75 
4.75896 1.47095 0.75 
4.76122 1.48243 0.75 
4.76357 1.49435 0.75 
4.76599 1.50656 0.75 
4.76846 1.51907 0.75 
4.77098 1.53188 0.75 
4.77351 1.54468 0.75 
4.77598 1.55719 0.75 
4.77839 1.5694 0.75 
4.78074 1.58132 0.75 
4.7831 1.59324 0.75 
4.78539 1.60487 0.75 
4.78763 1.6162 0.75 
4.78981 1.62723 0.75 
4.79199 1.63827 0.75 
4.79411 1.64901 0.75 
4.79618 1.65946 0.75 
4.79818 1.66962 0.75 
4.80019 1.67977 0.75 
4.80214 1.68963 0.75 
4.80464 1.70228 0.75 
4.80709 1.71464 0.75 
4.80956 1.72669 0.75 
4.81198 1.73814 0.75 
4.81435 1.74898 0.75 
4.81665 1.75923 0.75 
4.81894 1.76917 0.75 
4.82137 1.77938 0.75 
4.824 1.79017 0.75 
4.82683 1.80152 0.75 
4.82987 1.81344 0.75 
4.83314 1.82592 0.75 
4.83572 1.83563 0.75 
4.83843 1.84562 0.75 
4.8413 1.85603 0.75 
4.8443 1.86672 0.75 
4.84742 1.87768 0.75 
4.85067 1.88892 0.75 
4.85384 1.89972 0.75 
4.85696 1.91021 0.75 
4.86009 1.92055 0.75 
4.86327 1.93087 0.75 
4.86635 1.94075 0.75 
4.86938 1.95033 0.75 
4.87245 1.9599 0.75 
4.87562 1.96976 0.75 
4.87892 1.98004 0.75 
4.88231 1.99061 0.75 
4.8858 2.00146 0.75 
4.88937 2.0126 0.75 
4.89309 2.02417 0.75 
4.89689 2.03603 0.75 
4.90078 2.04817 0.75 
4.90477 2.06059 0.75 
4.90862 2.07259 0.75 
4.91246 2.08459 0.75 
4.91626 2.09645 0.75 
4.91997 2.10802 0.75 
4.92354 2.11916 0.75 
4.92702 2.13001 0.75 
4.93045 2.14073 0.75 
4.93389 2.15144 0.75 
4.93718 2.16173 0.75 
4.94038 2.17173 0.75 
4.94354 2.18158 0.75 
4.94669 2.19144 0.75 
4.95072 2.20401 0.75 
4.95474 2.21658 0.75 
4.95853 2.2286 0.75 
4.96207 2.24007 0.75 
4.96536 2.25098 0.75 
4.96841 2.26134 0.75 
4.97123 2.27114 0.75 
4.97447 2.2827 0.75 
4.97769 2.29457 0.75 
4.98039 2.30472 0.75 
4.98317 2.31546 0.75 
4.98604 2.3268 0.75 
4.98899 2.33874 0.75 
4.99202 2.35128 0.75 
4.99433 2.36106 0.75 
4.99667 2.37115 0.75 
4.99906 2.38168 0.75 
5.00148 2.39251 0.75 
5.00389 2.4035 0.75 
5.00625 2.4145 0.75 
5.00847 2.42507 0.75 
5.01059 2.43535 0.75 
5.0126 2.44535 0.75 
5.0151 2.45816 0.75 
5.01741 2.4704 0.75 
5.01953 2.48205 0.75 
5.02148 2.49313 0.75 
5.02328 2.50378 0.75 
5.02505 2.51459 0.75 
5.02685 2.526 0.75 
5.02867 2.53801 0.75 
5.03051 2.55063 0.75 
5.03236 2.56385 0.75 
5.03374 2.57411 0.75 
5.03514 2.58481 0.75 
5.03653 2.59583 0.75 
5.0379 2.60699 0.75 
5.03922 2.61817 0.75 
5.04043 2.6289 0.75 
5.0416 2.63963 0.75 
5.04272 2.65022 0.75 
5.04375 2.66052 0.75 
5.04477 2.67082 0.75 
5.04583 2.68142 0.75 
5.04691 2.69232 0.75 
5.04802 2.70351 0.75 
5.04918 2.71516 0.75 
5.05037 2.7271 0.75 
5.05159 2.73934 0.75 
5.05283 2.75187 0.75 
5.05413 2.76486 0.75 
5.05539 2.77755 0.75 
5.05664 2.79008 0.75 
5.0579 2.80262 0.75 
5.0591 2.81471 0.75 
5.06028 2.8265 0.75 
5.06143 2.838 0.75 
5.06255 2.84919 0.75 
5.06367 2.86038 0.75 
5.06476 2.87128 0.75 
5.06582 2.88188 0.75 
5.06685 2.89217 0.75 
5.06788 2.90247 0.75 
5.06888 2.91247 0.75 
5.0702 2.92561 0.75 
5.07149 2.93844 0.75 
5.0727 2.95068 0.75 
5.07379 2.96233 0.75 
5.07475 2.97339 0.75 
5.07559 2.98386 0.75 
5.07634 2.99403 0.75 
5.07706 3.0045 0.75 
5.07775 3.01558 0.75 
5.07841 3.02726 0.75 
5.07903 3.03955 0.75 
5.07961 3.05213 0.75 
5.08011 3.06472 0.75 
5.08054 3.07702 0.75 
5.0809 3.08901 0.75 
5.08119 3.10071 0.75 
5.08143 3.11211 0.75 
5.0816 3.1232 0.75 
5.08173 3.134 0.75 
5.08181 3.1445 0.75 
5.08184 3.1547 0.75 
5.08183 3.167 0.75 
5.08175 3.1784 0.75 
5.08162 3.18965 0.75 
5.08143 3.2006 0.75 
5.0812 3.2111 0.75 
5.08092 3.22159 0.75 
5.08055 3.23329 0.75 
5.08014 3.24438 0.75 
5.0797 3.25517 0.75 
5.07923 3.26536 0.75 
5.07864 3.2769 0.75 
5.07801 3.28813 0.75 
5.07738 3.29861 0.75 
5.0767 3.30909 0.75 
5.07595 3.31986 0.75 
5.07514 3.33063 0.75 
5.07429 3.34139 0.75 
5.0734 3.35186 0.75 
5.07247 3.36232 0.75 
5.07149 3.37277 0.75 
5.07046 3.38322 0.75 
5.06935 3.39396 0.75 
5.06819 3.4047 0.75 
5.06703 3.41498 0.75 
5.06585 3.42496 0.75 
