ply
format ascii 1.0
element vertex 630
property float x
property float y
property float z
end_header
0.009478 -0.004433 0.75 
0.018084 -0.010315 0.75 
0.027114 -0.016641 0.75 
0.035639 -0.022771 0.75 
0.044052 -0.029177 0.75 
0.051747 -0.035746 0.75 
0.058903 -0.042803 0.75 
0.065667 -0.050224 0.75 
0.071919 -0.058565 0.75 
0.078018 -0.066928 0.75 
0.084339 -0.075869 0.75 
0.090807 -0.085256 0.75 
0.096438 -0.093581 0.75 
0.102839 -0.103195 0.75 
0.108644 -0.112034 0.75 
0.114889 -0.121661 0.75 
0.121649 -0.132205 0.75 
0.127353 -0.141199 0.75 
0.133337 -0.150725 0.75 
0.139599 -0.160786 0.75 
0.146132 -0.171384 0.75 
0.152933 -0.182521 0.75 
0.158178 -0.191182 0.75 
0.163626 -0.200245 0.75 
0.169199 -0.209584 0.75 
0.174815 -0.219071 0.75 
0.180388 -0.228584 0.75 
0.18569 -0.237734 0.75 
0.190799 -0.246649 0.75 
0.197299 -0.258137 0.75 
0.203435 -0.269142 0.75 
0.209213 -0.279659 0.75 
0.214641 -0.289684 0.75 
0.219866 -0.299478 0.75 
0.225172 -0.309568 0.75 
0.230694 -0.320222 0.75 
0.236427 -0.331442 0.75 
0.242365 -0.343231 0.75 
0.246941 -0.352431 0.75 
0.251611 -0.361919 0.75 
0.256437 -0.371831 0.75 
0.261351 -0.382034 0.75 
0.266221 -0.392259 0.75 
0.27092 -0.402232 0.75 
0.275385 -0.411818 0.75 
0.279809 -0.421423 0.75 
0.28413 -0.430911 0.75 
0.288286 -0.440143 0.75 
0.293524 -0.451932 0.75 
0.298697 -0.46375 0.75 
0.30357 -0.475043 0.75 
0.308142 -0.485813 0.75 
0.312415 -0.496057 0.75 
0.316398 -0.505773 0.75 
0.321069 -0.517394 0.75 
0.324975 -0.527302 0.75 
0.329039 -0.537792 0.75 
0.333258 -0.548866 0.75 
0.337624 -0.560525 0.75 
0.342131 -0.572772 0.75 
0.345582 -0.582291 0.75 
0.349145 -0.592248 0.75 
0.352766 -0.602502 0.75 
0.356443 -0.613055 0.75 
0.360174 -0.623906 0.75 
0.363858 -0.634774 0.75 
0.367497 -0.645656 0.75 
0.371044 -0.656412 0.75 
0.374451 -0.666897 0.75 
0.377677 -0.676968 0.75 
0.38086 -0.687052 0.75 
0.383955 -0.697007 0.75 
0.38692 -0.706689 0.75 
0.390637 -0.719041 0.75 
0.394288 -0.731414 0.75 
0.397707 -0.743229 0.75 
0.401056 -0.755064 0.75 
0.404172 -0.766342 0.75 
0.407061 -0.777059 0.75 
0.409731 -0.787214 0.75 
0.41249 -0.797966 0.75 
0.415331 -0.809316 0.75 
0.418249 -0.821265 0.75 
0.421236 -0.833814 0.75 
0.423531 -0.843675 0.75 
0.425851 -0.853839 0.75 
0.428161 -0.864159 0.75 
0.430427 -0.874488 0.75 
0.432554 -0.884387 0.75 
0.435233 -0.897159 0.75 
0.437812 -0.909798 0.75 
0.440238 -0.92201 0.75 
0.442573 -0.934086 0.75 
0.444766 -0.945731 0.75 
0.446876 -0.95724 0.75 
0.448855 -0.968314 0.75 
0.450759 -0.97925 0.75 
0.452541 -0.98975 0.75 
0.454254 -1.00011 0.75 
0.455852 -1.01003 0.75 
0.457754 -1.02226 0.75 
0.459476 -1.03376 0.75 
0.461135 -1.04526 0.75 
0.462674 -1.05633 0.75 
0.464116 -1.06711 0.75 
0.465412 -1.07715 0.75 
0.466662 -1.0872 0.75 
0.468033 -1.09867 0.75 
0.469312 -1.10984 0.75 
0.470473 -1.12043 0.75 
0.471555 -1.13072 0.75 
0.472673 -1.14184 0.75 
0.473666 -1.1523 0.75 
0.474288 -1.16285 0.75 
0.480263 -1.1542 0.75 
0.48403 -1.14472 0.75 
0.488008 -1.13492 0.75 
0.492174 -1.12496 0.75 
0.49636 -1.11525 0.75 
0.500663 -1.10551 0.75 
0.505535 -1.0947 0.75 
0.510137 -1.08469 0.75 
0.51518 -1.07388 0.75 
0.519542 -1.06466 0.75 
0.524207 -1.05492 0.75 
0.529179 -1.04466 0.75 
0.534463 -1.03389 0.75 
0.540063 -1.0226 0.75 
0.545983 -1.0108 0.75 
0.550628 -1.00164 0.75 
0.555442 -0.992221 0.75 
0.560494 -0.982421 0.75 
0.565719 -0.972374 0.75 
0.571045 -0.96221 0.75 
0.576373 -0.952047 0.75 
0.58191 -0.941485 0.75 
0.587585 -0.930657 0.75 
0.593398 -0.919563 0.75 
0.599349 -0.908202 0.75 
0.605508 -0.896442 0.75 
0.611665 -0.884682 0.75 
0.617752 -0.873054 0.75 
0.623699 -0.861691 0.75 
0.629437 -0.850726 0.75 
0.635173 -0.839761 0.75 
0.640909 -0.828795 0.75 
0.653523 -0.804669 0.75 
0.658631 -0.794899 0.75 
0.670406 -0.772365 0.75 
0.675233 -0.763125 0.75 
0.68617 -0.742184 0.75 
0.692141 -0.730749 0.75 
0.700957 -0.713861 0.75 
0.706648 -0.702957 0.75 
0.714905 -0.687132 0.75 
0.72008 -0.677312 0.75 
0.727389 -0.663701 0.75 
0.733122 -0.653244 0.75 
0.741222 -0.638783 0.75 
0.746278 -0.629925 0.75 
0.754484 -0.615783 0.75 
0.760427 -0.605705 0.75 
0.770062 -0.58962 0.75 
0.776922 -0.578342 0.75 
0.787879 -0.560603 0.75 
0.793729 -0.551258 0.75 
0.80801 -0.528787 0.75 
0.814148 -0.519271 0.75 
0.827912 -0.498251 0.75 
0.833767 -0.489445 0.75 
0.847065 -0.469737 0.75 
0.85453 -0.458851 0.75 
0.868616 -0.438683 0.75 
0.875232 -0.429399 0.75 
0.884646 -0.4164 0.75 
0.891225 -0.40746 0.75 
0.901911 -0.393162 0.75 
0.909527 -0.383125 0.75 
0.926034 -0.361758 0.75 
0.932656 -0.353321 0.75 
0.949058 -0.332731 0.75 
0.956554 -0.323456 0.75 
0.973437 -0.302869 0.75 
0.98049 -0.294395 0.75 
1.00109 -0.270072 0.75 
1.0077 -0.262403 0.75 
1.02286 -0.245071 0.75 
1.03103 -0.235879 0.75 
1.04259 -0.223077 0.75 
1.04989 -0.215118 0.75 
1.06104 -0.203155 0.75 
1.06907 -0.194652 0.75 
1.08205 -0.18112 0.75 
1.09126 -0.17166 0.75 
1.10591 -0.156821 0.75 
1.1137 -0.149023 0.75 
1.13287 -0.130118 0.75 
1.14131 -0.12191 0.75 
1.16021 -0.103798 0.75 
1.16823 -0.096227 0.75 
1.18617 -0.079514 0.75 
1.19363 -0.072669 0.75 
1.21071 -0.057221 0.75 
1.22034 -0.048639 0.75 
1.23838 -0.032817 0.75 
1.2468 -0.025578 0.75 
1.25681 -0.017087 0.75 
1.26497 -0.010253 0.75 
1.28044 0.002471 0.75 
1.29 0.010211 0.75 
1.30536 0.022467 0.75 
1.31343 0.028824 0.75 
1.33947 0.048973 0.75 
1.34872 0.056009 0.75 
1.37051 0.072333 0.75 
1.37974 0.079147 0.75 
1.40043 0.094186 0.75 
1.40903 0.100342 0.75 
1.43135 0.116058 0.75 
1.44196 0.123393 0.75 
1.45503 0.132312 0.75 
1.46525 0.139169 0.75 
1.48022 0.148891 0.75 
1.48962 0.154788 0.75 
1.50283 0.162795 0.75 
1.51313 0.168806 0.75 
1.52273 0.174224 0.75 
1.53951 0.183239 0.75 
1.55561 0.191301 0.75 
1.56552 0.195943 0.75 
1.57494 0.200046 0.75 
1.58682 0.20448 0.75 
1.60039 0.209282 0.75 
1.61558 0.214473 0.75 
1.63452 0.220752 0.75 
1.65693 0.227966 0.75 
1.66695 0.231123 0.75 
1.68873 0.237864 0.75 
1.7005 0.241439 0.75 
1.7158 0.246019 0.75 
1.72746 0.249428 0.75 
1.74391 0.254095 0.75 
1.75418 0.256922 0.75 
1.77107 0.261417 0.75 
1.78095 0.26396 0.75 
1.79681 0.267921 0.75 
1.80818 0.270675 0.75 
1.82643 0.274961 0.75 
1.83931 0.27789 0.75 
1.86685 0.283918 0.75 
1.87779 0.286225 0.75 
1.90344 0.291454 0.75 
1.91425 0.293581 0.75 
1.93835 0.298146 0.75 
1.94831 0.29996 0.75 
1.97706 0.304941 0.75 
1.9889 0.306868 0.75 
2.00565 0.309462 0.75 
2.01663 0.311077 0.75 
2.03431 0.313541 0.75 
2.0468 0.31519 0.75 
2.0666 0.317657 0.75 
2.0771 0.318897 0.75 
2.10282 0.321745 0.75 
2.11438 0.322943 0.75 
2.1488 0.32621 0.75 
2.15979 0.327155 0.75 
2.18483 0.329127 0.75 
2.19493 0.329848 0.75 
2.22143 0.331531 0.75 
2.23431 0.332239 0.75 
2.24982 0.332998 0.75 
2.26151 0.333494 0.75 
2.27785 0.334059 0.75 
2.28804 0.334334 0.75 
2.30904 0.334707 0.75 
2.32044 0.334811 0.75 
2.33859 0.334848 0.75 
2.35149 0.334783 0.75 
2.37204 0.334536 0.75 
2.38276 0.33434 0.75 
2.41672 0.333436 0.75 
2.42819 0.333034 0.75 
2.45434 0.331936 0.75 
2.46491 0.331417 0.75 
2.48924 0.330048 0.75 
2.50241 0.329204 0.75 
2.52172 0.327835 0.75 
2.53398 0.326875 0.75 
2.55117 0.325394 0.75 
2.56192 0.324384 0.75 
2.57818 0.322732 0.75 
2.58981 0.321468 0.75 
2.60814 0.31935 0.75 
2.62005 0.317896 0.75 
2.63746 0.315661 0.75 
2.64846 0.314181 0.75 
2.66465 0.31191 0.75 
2.67504 0.310395 0.75 
2.69002 0.30813 0.75 
2.7021 0.306236 0.75 
2.71358 0.304379 0.75 
2.7246 0.302544 0.75 
2.73532 0.300711 0.75 
2.74588 0.298859 0.75 
2.75585 0.297075 0.75 
2.76582 0.295287 0.75 
2.77704 0.293275 0.75 
2.79335 0.290353 0.75 
2.81033 0.287316 0.75 
2.82584 0.284545 0.75 
2.84075 0.281882 0.75 
2.85448 0.279433 0.75 
2.86704 0.277196 0.75 
2.87929 0.275013 0.75 
2.89259 0.272648 0.75 
2.90307 0.270782 0.75 
2.91363 0.268903 0.75 
2.92389 0.267076 0.75 
2.93852 0.264475 0.75 
2.949 0.262609 0.75 
2.95919 0.260795 0.75 
2.94538 0.260856 0.75 
2.93496 0.260684 0.75 
2.92165 0.259014 0.75 
2.91154 0.257221 0.75 
2.90171 0.255097 0.75 
2.88814 0.250513 0.75 
2.87783 0.246832 0.75 
2.86844 0.243254 0.75 
2.85657 0.238208 0.75 
2.84657 0.233736 0.75 
2.83022 0.226214 0.75 
2.81462 0.218862 0.75 
2.80022 0.211766 0.75 
2.7892 0.205977 0.75 
2.78009 0.200898 0.75 
2.76785 0.193184 0.75 
2.75663 0.185678 0.75 
2.74713 0.1791 0.75 
2.73901 0.173187 0.75 
2.73085 0.166814 0.75 
2.72305 0.160476 0.75 
2.7152 0.153968 0.75 
2.70746 0.14744 0.75 
2.69977 0.140847 0.75 
2.6922 0.13424 0.75 
2.68409 0.126888 0.75 
2.6755 0.11851 0.75 
2.66793 0.110911 0.75 
2.66044 0.103231 0.75 
2.65346 0.095903 0.75 
2.64985 0.086508 0.75 
2.64856 0.076465 0.75 
2.64737 0.066335 0.75 
2.64534 0.046639 0.75 
2.64353 0.026169 0.75 
2.6426 0.014431 0.75 
2.64167 0.001791 0.75 
2.64093 -0.008984 0.75 
2.6395 -0.03234 0.75 
2.63881 -0.044921 0.75 
2.63784 -0.064847 0.75 
2.63737 -0.075412 0.75 
2.63643 -0.100069 0.75 
2.63609 -0.110488 0.75 
2.63545 -0.133505 0.75 
2.63518 -0.146402 0.75 
2.63489 -0.164549 0.75 
2.63478 -0.176249 0.75 
2.63477 -0.200549 0.75 
2.63487 -0.212548 0.75 
2.63512 -0.229496 0.75 
2.63535 -0.240594 0.75 
2.63578 -0.256338 0.75 
2.63612 -0.266533 0.75 
2.63669 -0.281372 0.75 
2.6372 -0.292985 0.75 
2.63777 -0.304596 0.75 
2.63838 -0.315755 0.75 
2.63902 -0.326611 0.75 
2.63966 -0.336715 0.75 
2.64034 -0.346817 0.75 
2.64174 -0.365816 0.75 
2.64304 -0.381136 0.75 
2.64462 -0.395297 0.75 
2.6462 -0.40651 0.75 
2.64809 -0.416838 0.75 
2.65172 -0.431392 0.75 
2.65477 -0.442842 0.75 
2.65773 -0.452838 0.75 
2.66226 -0.464829 0.75 
2.66613 -0.474102 0.75 
2.67017 -0.483304 0.75 
2.67475 -0.492751 0.75 
2.68213 -0.505808 0.75 
2.6872 -0.514487 0.75 
2.6934 -0.524935 0.75 
2.69941 -0.536006 0.75 
2.70311 -0.546458 0.75 
2.70309 -0.556508 0.75 
2.70297 -0.566782 0.75 
2.70279 -0.576905 0.75 
2.70262 -0.590854 0.75 
2.70273 -0.600903 0.75 
2.70321 -0.61139 0.75 
2.70481 -0.626304 0.75 
2.70658 -0.640821 0.75 
2.70905 -0.659786 0.75 
2.71194 -0.681041 0.75 
2.71362 -0.692999 0.75 
2.71626 -0.711334 0.75 
2.71793 -0.722611 0.75 
2.72066 -0.740554 0.75 
2.72266 -0.753298 0.75 
2.72594 -0.773585 0.75 
2.7277 -0.784164 0.75 
2.73217 -0.810108 0.75 
2.73418 -0.821405 0.75 
2.73899 -0.847439 0.75 
2.74104 -0.858119 0.75 
2.74447 -0.875408 0.75 
2.74655 -0.885622 0.75 
2.74863 -0.895531 0.75 
2.75267 -0.914148 0.75 
2.75532 -0.925852 0.75 
2.75931 -0.942324 0.75 
2.76195 -0.952487 0.75 
2.76582 -0.966512 0.75 
2.76898 -0.977233 0.75 
2.77202 -0.987047 0.75 
2.77758 -1.00369 0.75 
2.78235 -1.0168 0.75 
2.78601 -1.02616 0.75 
2.79101 -1.03739 0.75 
2.79606 -1.04711 0.75 
2.80127 -1.05683 0.75 
2.80632 -1.06611 0.75 
2.81527 -1.08225 0.75 
2.82045 -1.09147 0.75 
2.82612 -1.10145 0.75 
2.83234 -1.11232 0.75 
2.83906 -1.12394 0.75 
2.84481 -1.13379 0.75 
2.85399 -1.14944 0.75 
2.86052 -1.16057 0.75 
2.86913 -1.17525 0.75 
2.87448 -1.18438 0.75 
2.88005 -1.19389 0.75 
2.89366 -1.21712 0.75 
2.89976 -1.22754 0.75 
2.91465 -1.25298 0.75 
2.92112 -1.26405 0.75 
2.93562 -1.28885 0.75 
2.94156 -1.29902 0.75 
2.95476 -1.32162 0.75 
2.96032 -1.33114 0.75 
2.97268 -1.35232 0.75 
2.97779 -1.36107 0.75 
2.99101 -1.38374 0.75 
2.99743 -1.39476 0.75 
3.00355 -1.40525 0.75 
3.00944 -1.41536 0.75 
3.01816 -1.43007 0.75 
3.02366 -1.43919 0.75 
3.03268 -1.45381 0.75 
3.03863 -1.46326 0.75 
3.04418 -1.47192 0.75 
3.05464 -1.48783 0.75 
3.06054 -1.49661 0.75 
3.06982 -1.51016 0.75 
3.07564 -1.51854 0.75 
3.08506 -1.5319 0.75 
3.09187 -1.54142 0.75 
3.10286 -1.55661 0.75 
3.11066 -1.56726 0.75 
3.12309 -1.584 0.75 
3.12971 -1.59282 0.75 
3.14455 -1.61234 0.75 
3.15073 -1.62036 0.75 
3.16875 -1.6433 0.75 
3.17626 -1.65266 0.75 
3.18698 -1.66579 0.75 
3.19368 -1.67388 0.75 
3.20401 -1.68616 0.75 
3.21141 -1.69483 0.75 
3.2233 -1.70854 0.75 
3.23182 -1.71823 0.75 
3.2455 -1.73356 0.75 
3.25269 -1.74152 0.75 
3.27007 -1.76049 0.75 
3.27757 -1.76857 0.75 
3.295 -1.78708 0.75 
3.30231 -1.79472 0.75 
3.32357 -1.81662 0.75 
3.33265 -1.82578 0.75 
3.34606 -1.83889 0.75 
3.35456 -1.84693 0.75 
3.36467 -1.85622 0.75 
3.37239 -1.86311 0.75 
3.3884 -1.87681 0.75 
3.40392 -1.88935 0.75 
3.41669 -1.89907 0.75 
3.42678 -1.90637 0.75 
3.43537 -1.91227 0.75 
3.44481 -1.91824 0.75 
3.45389 -1.92367 0.75 
3.46419 -1.92968 0.75 
3.47681 -1.93691 0.75 
3.48637 -1.94227 0.75 
3.49557 -1.94732 0.75 
3.50526 -1.95257 0.75 
3.51763 -1.95919 0.75 
3.53832 -1.97011 0.75 
3.5592 -1.98102 0.75 
3.5685 -1.98588 0.75 
3.58353 -1.99372 0.75 
3.59417 -1.99927 0.75 
3.61106 -2.00809 0.75 
3.62003 -2.01277 0.75 
3.64204 -2.02426 0.75 
3.65194 -2.02943 0.75 
3.68352 -2.04593 0.75 
3.69449 -2.05166 0.75 
3.71955 -2.06475 0.75 
3.72972 -2.07006 0.75 
3.75319 -2.08232 0.75 
3.76282 -2.08736 0.75 
3.78715 -2.10007 0.75 
3.79613 -2.10476 0.75 
3.81301 -2.11359 0.75 
3.82392 -2.11927 0.75 
3.84476 -2.1299 0.75 
3.85444 -2.1347 0.75 
3.86806 -2.14132 0.75 
3.87843 -2.14625 0.75 
3.88801 -2.15071 0.75 
3.9099 -2.16056 0.75 
3.93153 -2.16988 0.75 
3.94121 -2.17395 0.75 
3.95688 -2.18041 0.75 
3.968 -2.18492 0.75 
3.99198 -2.19443 0.75 
4.00156 -2.19816 0.75 
4.02461 -2.20696 0.75 
4.03451 -2.21067 0.75 
4.05379 -2.21778 0.75 
4.06372 -2.22143 0.75 
4.08829 -2.23043 0.75 
4.09935 -2.23449 0.75 
4.11068 -2.23866 0.75 
4.13835 -2.24883 0.75 
4.1508 -2.25341 0.75 
4.17959 -2.26402 0.75 
4.19148 -2.2684 0.75 
4.21801 -2.2782 0.75 
4.22877 -2.28217 0.75 
4.2536 -2.29136 0.75 
4.26394 -2.29519 0.75 
4.2875 -2.30391 0.75 
4.29699 -2.30743 0.75 
4.31802 -2.31523 0.75 
4.32955 -2.31951 0.75 
4.35149 -2.32765 0.75 
4.36164 -2.33134 0.75 
4.37358 -2.33559 0.75 
4.38471 -2.33944 0.75 
4.39679 -2.34351 0.75 
4.41964 -2.35084 0.75 
4.44218 -2.35768 0.75 
4.45225 -2.36064 0.75 
4.46855 -2.3653 0.75 
4.4801 -2.36853 0.75 
4.49848 -2.37354 0.75 
4.50827 -2.37615 0.75 
4.53585 -2.38331 0.75 
4.54654 -2.38601 0.75 
4.56737 -2.39114 0.75 
4.57765 -2.39361 0.75 
4.60052 -2.39893 0.75 
4.61281 -2.40167 0.75 
4.6274 -2.40482 0.75 
4.63841 -2.40712 0.75 
4.65688 -2.4108 0.75 
4.66807 -2.41294 0.75 
4.69228 -2.41733 0.75 
4.70529 -2.41957 0.75 
4.72586 -2.42297 0.75 
4.73675 -2.4247 0.75 
4.76218 -2.42855 0.75 
4.7731 -2.43012 0.75 
4.79799 -2.43353 0.75 
4.80803 -2.43483 0.75 
4.82798 -2.4373 0.75 
4.84079 -2.43879 0.75 
4.86263 -2.44118 0.75 
4.87487 -2.44246 0.75 
4.89441 -2.44453 0.75 
4.90462 -2.44562 0.75 
4.92976 -2.44829 0.75 
4.94117 -2.44952 0.75 
4.96779 -2.45238 0.75 
4.9792 -2.45361 0.75 
5.00522 -2.45643 0.75 
5.01573 -2.45757 0.75 
5.03907 -2.46011 0.75 
5.05189 -2.46152 0.75 
5.07664 -2.46424 0.75 
5.08887 -2.46558 0.75 
5.10661 -2.46754 0.75 
5.11764 -2.46876 0.75 
5.13389 -2.47057 0.75 
5.14433 -2.47173 0.75 
5.15938 -2.4734 0.75 
5.18309 -2.47604 0.75 
5.2056 -2.47854 0.75 
5.22632 -2.48084 0.75 
5.24585 -2.48301 0.75 
5.26359 -2.48498 0.75 
5.28328 -2.48716 0.75 
5.29833 -2.48883 0.75 
5.3125 -2.4904 0.75 
5.3286 -2.49218 0.75 
5.34127 -2.49358 0.75 
5.35305 -2.49489 0.75 
5.36557 -2.49628 0.75 
5.37623 -2.49746 0.75 
5.38652 -2.4986 0.75 
5.40046 -2.50014 0.75 
5.41068 -2.50127 0.75 
