ply
format ascii 1.0
element vertex 1509
property float x
property float y
property float z
end_header
0.010747 0.00107 0.75 
0.021477 0.002294 0.75 
0.032793 0.003678 0.75 
0.04291 0.004975 0.75 
0.05421 0.006477 0.75 
0.064765 0.007897 0.75 
0.076212 0.009436 0.75 
0.088552 0.011093 0.75 
0.099107 0.012509 0.75 
0.110257 0.014004 0.75 
0.122002 0.015577 0.75 
0.134342 0.017229 0.75 
0.147277 0.018958 0.75 
0.157387 0.02031 0.75 
0.167795 0.0217 0.75 
0.1785 0.023129 0.75 
0.189651 0.024617 0.75 
0.2011 0.026144 0.75 
0.212697 0.027691 0.75 
0.224294 0.029236 0.75 
0.235446 0.030722 0.75 
0.246597 0.032207 0.75 
0.2576 0.033671 0.75 
0.268306 0.035096 0.75 
0.278566 0.03646 0.75 
0.288825 0.037824 0.75 
0.298936 0.039168 0.75 
0.311872 0.040892 0.75 
0.324204 0.042601 0.75 
0.335931 0.044305 0.75 
0.347053 0.045994 0.75 
0.357572 0.047659 0.75 
0.367489 0.049293 0.75 
0.379315 0.051325 0.75 
0.39157 0.053524 0.75 
0.402039 0.055475 0.75 
0.413087 0.057597 0.75 
0.424712 0.059898 0.75 
0.436911 0.062383 0.75 
0.449684 0.065058 0.75 
0.459657 0.067197 0.75 
0.469915 0.06944 0.75 
0.480456 0.071791 0.75 
0.491426 0.074285 0.75 
0.502386 0.076824 0.75 
0.513189 0.079374 0.75 
0.52369 0.081899 0.75 
0.533743 0.08436 0.75 
0.543786 0.086863 0.75 
0.553673 0.08937 0.75 
0.56631 0.092627 0.75 
0.578379 0.095682 0.75 
0.589886 0.098511 0.75 
0.600829 0.101124 0.75 
0.611203 0.10353 0.75 
0.621008 0.105738 0.75 
0.63244 0.108227 0.75 
0.64345 0.110536 0.75 
0.655066 0.112882 0.75 
0.665077 0.114836 0.75 
0.675688 0.116845 0.75 
0.686901 0.118903 0.75 
0.698716 0.121004 0.75 
0.711133 0.123143 0.75 
0.724153 0.125314 0.75 
0.73437 0.126968 0.75 
0.74489 0.128627 0.75 
0.755565 0.130267 0.75 
0.766246 0.131864 0.75 
0.776934 0.133418 0.75 
0.78733 0.134886 0.75 
0.797585 0.136291 0.75 
0.807844 0.137654 0.75 
0.820937 0.139331 0.75 
0.833432 0.140961 0.75 
0.84532 0.142593 0.75 
0.856604 0.144219 0.75 
0.867283 0.145829 0.75 
0.877359 0.147415 0.75 
0.889051 0.149341 0.75 
0.900137 0.151255 0.75 
0.911651 0.153331 0.75 
0.92153 0.15518 0.75 
0.931987 0.157198 0.75 
0.943021 0.159391 0.75 
0.95463 0.161766 0.75 
0.966814 0.164327 0.75 
0.97957 0.167081 0.75 
0.98953 0.16928 0.75 
0.999774 0.171585 0.75 
1.0103 0.173998 0.75 
1.02082 0.176453 0.75 
1.03133 0.178951 0.75 
1.04168 0.181457 0.75 
1.05173 0.183933 0.75 
1.06176 0.18645 0.75 
1.0718 0.188994 0.75 
1.08198 0.191574 0.75 
1.09245 0.194228 0.75 
1.10335 0.196991 0.75 
1.11455 0.199828 0.75 
1.12603 0.202737 0.75 
1.13781 0.20572 0.75 
1.15003 0.208812 0.75 
1.16253 0.211978 0.75 
1.17504 0.215142 0.75 
1.18725 0.218233 0.75 
1.19947 0.221323 0.75 
1.21139 0.224339 0.75 
1.22303 0.227281 0.75 
1.23437 0.230148 0.75 
1.24528 0.232905 0.75 
1.25618 0.235662 0.75 
1.26695 0.238381 0.75 
1.27742 0.241027 0.75 
1.28745 0.243561 0.75 
1.29749 0.246096 0.75 
1.30737 0.248593 0.75 
1.32017 0.251825 0.75 
1.33283 0.255019 0.75 
1.3449 0.258066 0.75 
1.35653 0.261002 0.75 
1.36802 0.263901 0.75 
1.37893 0.266648 0.75 
1.38927 0.269195 0.75 
1.39905 0.271535 0.75 
1.41044 0.274179 0.75 
1.42098 0.276539 0.75 
1.43183 0.278882 0.75 
1.44373 0.281361 0.75 
1.45387 0.283409 0.75 
1.46462 0.285517 0.75 
1.47596 0.287679 0.75 
1.48791 0.289889 0.75 
1.50046 0.292142 0.75 
1.51361 0.294431 0.75 
1.52382 0.296159 0.75 
1.53447 0.29792 0.75 
1.54543 0.299687 0.75 
1.55655 0.301433 0.75 
1.56767 0.303135 0.75 
1.57835 0.304726 0.75 
1.58904 0.306274 0.75 
1.59958 0.307759 0.75 
1.60984 0.309159 0.75 
1.62292 0.310884 0.75 
1.63543 0.312455 0.75 
1.64734 0.313877 0.75 
1.65867 0.315157 0.75 
1.66941 0.316304 0.75 
1.67956 0.317326 0.75 
1.69031 0.318345 0.75 
1.70166 0.319354 0.75 
1.71362 0.320348 0.75 
1.72618 0.321319 0.75 
1.73935 0.322263 0.75 
1.74968 0.322953 0.75 
1.76031 0.323618 0.75 
1.77124 0.324255 0.75 
1.78247 0.324863 0.75 
1.79416 0.325446 0.75 
1.80555 0.325966 0.75 
1.81664 0.326425 0.75 
1.82743 0.326825 0.75 
1.83822 0.32718 0.75 
1.84872 0.32748 0.75 
1.85907 0.327731 0.75 
1.86941 0.327938 0.75 
1.88261 0.328139 0.75 
1.89521 0.328262 0.75 
1.90781 0.328319 0.75 
1.91981 0.328313 0.75 
1.93241 0.328284 0.75 
1.94561 0.328258 0.75 
1.95596 0.328239 0.75 
1.96661 0.328221 0.75 
1.97756 0.328204 0.75 
1.98881 0.328188 0.75 
2.00051 0.328174 0.75 
2.01251 0.328161 0.75 
2.02481 0.328149 0.75 
2.03741 0.328139 0.75 
2.04956 0.32813 0.75 
2.06171 0.328123 0.75 
2.07371 0.328118 0.75 
2.08541 0.328114 0.75 
2.09666 0.328112 0.75 
2.10791 0.32811 0.75 
2.11901 0.32811 0.75 
2.12981 0.328112 0.75 
2.14016 0.328114 0.75 
2.15051 0.328117 0.75 
2.16071 0.328121 0.75 
2.17376 0.328128 0.75 
2.18636 0.328136 0.75 
2.19881 0.328141 0.75 
2.21081 0.328089 0.75 
2.22266 0.327972 0.75 
2.23406 0.327797 0.75 
2.24531 0.327566 0.75 
2.2561 0.327289 0.75 
2.26675 0.326963 0.75 
2.27694 0.326603 0.75 
2.28698 0.326203 0.75 
2.29897 0.325665 0.75 
2.31051 0.325086 0.75 
2.32174 0.324465 0.75 
2.33282 0.323799 0.75 
2.3433 0.323119 0.75 
2.35332 0.322424 0.75 
2.36499 0.32156 0.75 
2.37621 0.320675 0.75 
2.38697 0.319775 0.75 
2.39728 0.318868 0.75 
2.40878 0.317827 0.75 
2.42014 0.316803 0.75 
2.43059 0.315861 0.75 
2.4406 0.314962 0.75 
2.45136 0.313998 0.75 
2.46167 0.313076 0.75 
2.47243 0.312115 0.75 
2.48304 0.311171 0.75 
2.49349 0.310241 0.75 
2.5038 0.309327 0.75 
2.51426 0.3084 0.75 
2.52502 0.307447 0.75 
2.53518 0.306547 0.75 
2.54564 0.30562 0.75 
2.5558 0.30472 0.75 
2.5658 0.302835 0.75 
2.57601 0.300384 0.75 
2.5862 0.297839 0.75 
2.59694 0.295033 0.75 
2.60703 0.292121 0.75 
2.61658 0.289003 0.75 
2.6264 0.284883 0.75 
2.6363 0.280561 0.75 
2.64611 0.276051 0.75 
2.65524 0.271496 0.75 
2.66425 0.266115 0.75 
2.67317 0.260572 0.75 
2.68178 0.2551 0.75 
2.69051 0.249273 0.75 
2.69873 0.24324 0.75 
2.70717 0.236264 0.75 
2.7153 0.229381 0.75 
2.72303 0.22273 0.75 
2.73133 0.215364 0.75 
2.73904 0.20823 0.75 
2.74622 0.201199 0.75 
2.75341 0.193343 0.75 
2.76058 0.185271 0.75 
2.76809 0.176686 0.75 
2.77469 0.168914 0.75 
2.78104 0.161125 0.75 
2.78728 0.152872 0.75 
2.79304 0.144632 0.75 
2.79881 0.136041 0.75 
2.80425 0.12759 0.75 
2.80666 0.117597 0.75 
2.80431 0.107364 0.75 
2.80173 0.096721 0.75 
2.79916 0.086388 0.75 
2.79656 0.076214 0.75 
2.79357 0.064747 0.75 
2.79077 0.054161 0.75 
2.78771 0.042712 0.75 
2.78509 0.032857 0.75 
2.7823 0.022421 0.75 
2.77937 0.011405 0.75 
2.77628 -0.00019 0.75 
2.77319 -0.011786 0.75 
2.77026 -0.022803 0.75 
2.76748 -0.03324 0.75 
2.76471 -0.043677 0.75 
2.76193 -0.054115 0.75 
2.75932 -0.063972 0.75 
2.7567 -0.073831 0.75 
2.75362 -0.085429 0.75 
2.75061 -0.096737 0.75 
2.74773 -0.107611 0.75 
2.745 -0.117905 0.75 
2.74231 -0.128054 0.75 
2.7397 -0.137914 0.75 
2.73709 -0.147776 0.75 
2.73429 -0.158516 0.75 
2.73125 -0.170281 0.75 
2.7287 -0.180312 0.75 
2.72603 -0.190931 0.75 
2.72325 -0.202141 0.75 
2.72037 -0.213943 0.75 
2.71738 -0.226339 0.75 
2.7143 -0.239328 0.75 
2.71194 -0.249407 0.75 
2.70952 -0.259932 0.75 
2.70707 -0.270757 0.75 
2.70459 -0.281884 0.75 
2.70208 -0.293313 0.75 
2.69962 -0.304751 0.75 
2.69721 -0.316199 0.75 
2.69487 -0.32751 0.75 
2.69264 -0.338537 0.75 
2.69055 -0.349133 0.75 
2.68857 -0.359444 0.75 
2.68669 -0.369469 0.75 
2.68435 -0.382308 0.75 
2.68221 -0.394572 0.75 
2.68026 -0.406262 0.75 
2.67852 -0.417375 0.75 
2.67695 -0.42791 0.75 
2.67557 -0.437864 0.75 
2.67407 -0.449468 0.75 
2.67281 -0.460194 0.75 
2.67158 -0.471829 0.75 
2.67064 -0.482136 0.75 
2.66983 -0.492454 0.75 
2.66918 -0.503084 0.75 
2.66877 -0.513126 0.75 
2.66873 -0.523174 0.75 
2.66952 -0.533494 0.75 
2.6705 -0.544249 0.75 
2.67162 -0.555594 0.75 
2.67269 -0.565738 0.75 
2.67393 -0.57707 0.75 
2.67514 -0.587651 0.75 
2.6764 -0.598529 0.75 
2.67744 -0.608524 0.75 
2.67842 -0.619279 0.75 
2.67926 -0.630197 0.75 
2.67988 -0.640379 0.75 
2.68031 -0.650419 0.75 
2.68049 -0.660767 0.75 
2.68044 -0.671567 0.75 
2.68029 -0.681765 0.75 
2.68031 -0.691965 0.75 
2.68074 -0.702004 0.75 
2.6826 -0.712258 0.75 
2.68644 -0.722031 0.75 
2.69045 -0.731899 0.75 
2.69431 -0.741503 0.75 
2.69811 -0.75113 0.75 
2.70234 -0.762035 0.75 
2.70622 -0.772117 0.75 
2.71037 -0.783054 0.75 
2.71392 -0.792458 0.75 
2.71765 -0.802431 0.75 
2.72158 -0.812974 0.75 
2.7257 -0.824086 0.75 
2.73001 -0.835767 0.75 
2.73451 -0.848015 0.75 
2.73802 -0.857592 0.75 
2.74163 -0.867452 0.75 
2.74534 -0.877595 0.75 
2.7492 -0.888162 0.75 
2.75306 -0.898729 0.75 
2.75692 -0.909296 0.75 
2.76078 -0.919862 0.75 
2.76449 -0.930004 0.75 
2.76811 -0.939862 0.75 
2.77168 -0.949578 0.75 
2.77525 -0.95929 0.75 
2.77987 -0.971657 0.75 
2.78435 -0.983434 0.75 
2.78868 -0.994623 0.75 
2.79287 -1.00523 0.75 
2.7969 -1.01525 0.75 
2.80076 -1.02469 0.75 
2.80491 -1.03466 0.75 
2.80935 -1.04516 0.75 
2.81408 -1.05619 0.75 
2.81912 -1.06773 0.75 
2.82447 -1.0798 0.75 
2.82871 -1.08925 0.75 
2.83311 -1.09894 0.75 
2.83768 -1.10889 0.75 
2.84241 -1.1191 0.75 
2.84738 -1.12969 0.75 
2.85227 -1.13999 0.75 
2.85707 -1.15 0.75 
2.86178 -1.15972 0.75 
2.86654 -1.16941 0.75 
2.8712 -1.17882 0.75 
2.87577 -1.18794 0.75 
2.88174 -1.19971 0.75 
2.8877 -1.21132 0.75 
2.89345 -1.22236 0.75 
2.89899 -1.23284 0.75 
2.90431 -1.24275 0.75 
2.9094 -1.25211 0.75 
2.91434 -1.26103 0.75 
2.91939 -1.27006 0.75 
2.9248 -1.27959 0.75 
2.93056 -1.2896 0.75 
2.93668 -1.30009 0.75 
2.94317 -1.31107 0.75 
2.95002 -1.32253 0.75 
2.95538 -1.33138 0.75 
2.961 -1.3406 0.75 
2.96683 -1.35005 0.75 
2.97285 -1.35973 0.75 
2.97907 -1.36964 0.75 
2.98534 -1.37952 0.75 
2.99148 -1.38912 0.75 
2.9975 -1.39845 0.75 
3.0034 -1.4075 0.75 
3.00933 -1.41652 0.75 
3.01514 -1.42527 0.75 
3.02082 -1.43374 0.75 
3.02822 -1.44467 0.75 
3.03559 -1.45544 0.75 
3.04269 -1.46566 0.75 
3.04951 -1.47536 0.75 
3.05604 -1.48452 0.75 
3.06228 -1.49315 0.75 
3.06839 -1.5015 0.75 
3.0749 -1.5103 0.75 
3.08183 -1.51955 0.75 
3.08917 -1.52923 0.75 
3.09694 -1.53934 0.75 
3.10512 -1.54989 0.75 
3.11151 -1.55803 0.75 
3.11821 -1.5665 0.75 
3.12513 -1.57518 0.75 
3.13228 -1.58406 0.75 
3.13966 -1.59314 0.75 
3.14678 -1.60185 0.75 
3.15395 -1.61052 0.75 
3.16105 -1.61905 0.75 
3.168 -1.62732 0.75 
3.17469 -1.63521 0.75 
3.18142 -1.64308 0.75 
3.18808 -1.6508 0.75 
3.19675 -1.66075 0.75 
3.20538 -1.67055 0.75 
3.21375 -1.67996 0.75 
3.22208 -1.68922 0.75 
3.23006 -1.69798 0.75 
3.23768 -1.70625 0.75 
3.24495 -1.71403 0.75 
3.25196 -1.72145 0.75 
3.25911 -1.72893 0.75 
3.26673 -1.7368 0.75 
3.2748 -1.74505 0.75 
3.28335 -1.75368 0.75 
3.29237 -1.76269 0.75 
3.30187 -1.77207 0.75 
3.30927 -1.77931 0.75 
3.31702 -1.78683 0.75 
3.32502 -1.79453 0.75 
3.33327 -1.80239 0.75 
3.34177 -1.81044 0.75 
3.34998 -1.81814 0.75 
3.35821 -1.8258 0.75 
3.36637 -1.83333 0.75 
3.37434 -1.84062 0.75 
3.382 -1.84757 0.75 
3.3897 -1.85449 0.75 
3.39731 -1.86128 0.75 
3.40721 -1.87002 0.75 
3.41703 -1.8786 0.75 
3.42646 -1.88673 0.75 
3.43548 -1.89442 0.75 
3.44409 -1.90166 0.75 
3.45228 -1.90847 0.75 
3.46028 -1.91503 0.75 
3.46879 -1.92193 0.75 
3.4778 -1.92915 0.75 
3.48733 -1.93669 0.75 
3.49737 -1.94455 0.75 
3.50793 -1.95272 0.75 
3.51614 -1.95901 0.75 
3.52474 -1.96554 0.75 
3.53361 -1.97222 0.75 
3.54275 -1.97904 0.75 
3.55216 -1.98599 0.75 
3.56123 -1.99265 0.75 
3.57033 -1.99926 0.75 
3.57934 -2.00574 0.75 
3.58813 -2.01202 0.75 
3.59658 -2.01799 0.75 
3.60506 -2.02393 0.75 
3.61344 -2.02975 0.75 
3.62431 -2.03723 0.75 
3.63511 -2.04456 0.75 
3.64557 -2.05158 0.75 
3.65594 -2.05847 0.75 
3.66585 -2.06497 0.75 
3.6753 -2.07107 0.75 
3.68428 -2.0768 0.75 
3.69291 -2.08223 0.75 
3.70171 -2.08769 0.75 
3.71104 -2.09341 0.75 
3.72093 -2.09939 0.75 
3.73136 -2.10562 0.75 
3.74234 -2.11209 0.75 
3.75388 -2.1188 0.75 
3.76285 -2.12397 0.75 
3.77223 -2.12931 0.75 
3.7819 -2.13477 0.75 
3.79185 -2.14033 0.75 
3.80209 -2.146 0.75 
3.81195 -2.15141 0.75 
3.82184 -2.15677 0.75 
3.83162 -2.16203 0.75 
3.84115 -2.1671 0.75 
3.85031 -2.17192 0.75 
3.85949 -2.17671 0.75 
3.86869 -2.18145 0.75 
3.87789 -2.1862 0.75 
3.88748 -2.19115 0.75 
3.89735 -2.19624 0.75 
3.90748 -2.20147 0.75 
3.91788 -2.20683 0.75 
3.92867 -2.21241 0.75 
3.93973 -2.21812 0.75 
3.95106 -2.22397 0.75 
3.96266 -2.22995 0.75 
3.97385 -2.23574 0.75 
3.98505 -2.24152 0.75 
3.99611 -2.24723 0.75 
4.00691 -2.25281 0.75 
4.0173 -2.25818 0.75 
4.02743 -2.26341 0.75 
4.03742 -2.26858 0.75 
4.04741 -2.27375 0.75 
4.05701 -2.2787 0.75 
4.06634 -2.28353 0.75 
4.07553 -2.28828 0.75 
4.08472 -2.29303 0.75 
4.09645 -2.2991 0.75 
4.10817 -2.30516 0.75 
4.11937 -2.31095 0.75 
4.13002 -2.31646 0.75 
4.14068 -2.32197 0.75 
4.15081 -2.32721 0.75 
4.16095 -2.33241 0.75 
4.1706 -2.33727 0.75 
4.17973 -2.34181 0.75 
4.19065 -2.34714 0.75 
4.19998 -2.35162 0.75 
4.20988 -2.35629 0.75 
4.22036 -2.36117 0.75 
4.2314 -2.36624 0.75 
4.24302 -2.37149 0.75 
4.25507 -2.37685 0.75 
4.26455 -2.38102 0.75 
4.27446 -2.38532 0.75 
4.28466 -2.3897 0.75 
4.29515 -2.39416 0.75 
4.30594 -2.39869 0.75 
4.31674 -2.40317 0.75 
4.32729 -2.40749 0.75 
4.33758 -2.41166 0.75 
4.34761 -2.41567 0.75 
4.35765 -2.41964 0.75 
4.36743 -2.42346 0.75 
4.37709 -2.42718 0.75 
4.38677 -2.43086 0.75 
4.39913 -2.43549 0.75 
4.40882 -2.43911 0.75 
4.4188 -2.44283 0.75 
4.42906 -2.44666 0.75 
4.4396 -2.45059 0.75 
4.45056 -2.45469 0.75 
4.4618 -2.45889 0.75 
4.47332 -2.4632 0.75 
4.48512 -2.46761 0.75 
4.49734 -2.47219 0.75 
4.50928 -2.47666 0.75 
4.52094 -2.48103 0.75 
4.53232 -2.48529 0.75 
4.5437 -2.48956 0.75 
4.55479 -2.49372 0.75 
4.56561 -2.49778 0.75 
4.57614 -2.50173 0.75 
4.58625 -2.50553 0.75 
4.59636 -2.50933 0.75 
4.60633 -2.51307 0.75 
4.61602 -2.51672 0.75 
4.6257 -2.52036 0.75 
4.63511 -2.5239 0.75 
4.64718 -2.52844 0.75 
4.65898 -2.53288 0.75 
4.67077 -2.53732 0.75 
4.68284 -2.54187 0.75 
4.69224 -2.54541 0.75 
4.70193 -2.54906 0.75 
4.71204 -2.55286 0.75 
4.72242 -2.55678 0.75 
4.73295 -2.56074 0.75 
4.74348 -2.5647 0.75 
4.75401 -2.56867 0.75 
4.76482 -2.57274 0.75 
4.77591 -2.57692 0.75 
4.78728 -2.5812 0.75 
4.79865 -2.58548 0.75 
4.81002 -2.58976 0.75 
4.82125 -2.59399 0.75 
4.8322 -2.59812 0.75 
4.84273 -2.60208 0.75 
4.85326 -2.60605 0.75 
4.86365 -2.60996 0.75 
4.87375 -2.61376 0.75 
4.88344 -2.61741 0.75 
4.89313 -2.62106 0.75 
4.90267 -2.62465 0.75 
4.91489 -2.62925 0.75 
4.92668 -2.63369 0.75 
4.93833 -2.63808 0.75 
4.94942 -2.64225 0.75 
4.95997 -2.64616 0.75 
4.96998 -2.64979 0.75 
4.97945 -2.65316 0.75 
4.9905 -2.657 0.75 
5.00115 -2.66061 0.75 
5.0124 -2.66434 0.75 
5.02211 -2.66748 0.75 
5.0324 -2.67075 0.75 
5.04328 -2.67415 0.75 
5.05476 -2.67766 0.75 
5.06682 -2.68129 0.75 
5.07833 -2.68469 0.75 
5.08927 -2.68787 0.75 
5.10024 -2.69101 0.75 
5.11063 -2.69393 0.75 
5.12104 -2.69681 0.75 
5.13146 -2.69965 0.75 
5.14131 -2.70231 0.75 
5.15115 -2.70498 0.75 
5.16274 -2.70811 0.75 
5.17403 -2.71117 0.75 
5.18489 -2.71411 0.75 
5.19574 -2.71706 0.75 
5.20588 -2.71981 0.75 
5.21601 -2.72255 0.75 
5.22572 -2.72518 0.75 
5.23686 -2.72821 0.75 
5.24728 -2.73103 0.75 
5.25756 -2.73382 0.75 
5.26871 -2.73685 0.75 
5.27985 -2.73988 0.75 
5.29013 -2.74267 0.75 
5.30012 -2.74538 0.75 
5.31055 -2.74817 0.75 
5.321 -2.75091 0.75 
5.33074 -2.75341 0.75 
5.34121 -2.75605 0.75 
5.3517 -2.75863 0.75 
5.3619 -2.76109 0.75 
5.37183 -2.76344 0.75 
5.38235 -2.76587 0.75 
5.39215 -2.76809 0.75 
5.4024 -2.77036 0.75 
5.41223 -2.77249 0.75 
5.42221 -2.77456 0.75 
5.4325 -2.77668 0.75 
5.44278 -2.77879 0.75 
5.45365 -2.78103 0.75 
5.46453 -2.78326 0.75 
5.47452 -2.78532 0.75 
5.48539 -2.78755 0.75 
5.49715 -2.78997 0.75 
5.50728 -2.79206 0.75 
5.51771 -2.7942 0.75 
5.52756 -2.79623 0.75 
5.53902 -2.79858 0.75 
5.5496 -2.80076 0.75 
5.56106 -2.80311 0.75 
5.5712 -2.8052 0.75 
5.58134 -2.80728 0.75 
5.59177 -2.80943 0.75 
5.60161 -2.81145 0.75 
5.59177 -2.80943 0.75 
5.58134 -2.80728 0.75 
5.5712 -2.8052 0.75 
5.56106 -2.80311 0.75 
5.5496 -2.80076 0.75 
5.53902 -2.79858 0.75 
5.52756 -2.79623 0.75 
5.51771 -2.7942 0.75 
5.50728 -2.79206 0.75 
5.49626 -2.78979 0.75 
5.48466 -2.7874 0.75 
5.47246 -2.7849 0.75 
5.45968 -2.78227 0.75 
5.44969 -2.78021 0.75 
5.4394 -2.7781 0.75 
5.42882 -2.77592 0.75 
5.41781 -2.77366 0.75 
5.40649 -2.77133 0.75 
5.39489 -2.76894 0.75 
5.38299 -2.7665 0.75 
5.37064 -2.76396 0.75 
5.35801 -2.76136 0.75 
5.34522 -2.75873 0.75 
5.33244 -2.7561 0.75 
5.3201 -2.75357 0.75 
5.30805 -2.75109 0.75 
5.29615 -2.74864 0.75 
5.28425 -2.74619 0.75 
5.27279 -2.74384 0.75 
5.26162 -2.74154 0.75 
5.2506 -2.73927 0.75 
5.23958 -2.73701 0.75 
5.22901 -2.73483 0.75 
5.21872 -2.73272 0.75 
5.20858 -2.73063 0.75 
5.19844 -2.72855 0.75 
5.18551 -2.72589 0.75 
5.17259 -2.72323 0.75 
5.16024 -2.72069 0.75 
5.14849 -2.71828 0.75 
5.13673 -2.71586 0.75 
5.12558 -2.71352 0.75 
5.11502 -2.71123 0.75 
5.10507 -2.70901 0.75 
5.09352 -2.70635 0.75 
5.08258 -2.70373 0.75 
5.07122 -2.70093 0.75 
5.06148 -2.69846 0.75 
5.05117 -2.69579 0.75 
5.04029 -2.6929 0.75 
5.02886 -2.6898 0.75 
5.01686 -2.68647 0.75 
5.0043 -2.68292 0.75 
4.9945 -2.6801 0.75 
4.98442 -2.67715 0.75 
4.97407 -2.67408 0.75 
4.96329 -2.67084 0.75 
4.95254 -2.66755 0.75 
4.94193 -2.66427 0.75 
4.93163 -2.66103 0.75 
4.92134 -2.65775 0.75 
4.91106 -2.65444 0.75 
4.90064 -2.65109 0.75 
4.88993 -2.64764 0.75 
4.87879 -2.64406 0.75 
4.86737 -2.64038 0.75 
4.85566 -2.63662 0.75 
4.84366 -2.63276 0.75 
4.83124 -2.62876 0.75 
4.81882 -2.62476 0.75 
4.80654 -2.62081 0.75 
4.79454 -2.61695 0.75 
4.78255 -2.61309 0.75 
4.77084 -2.60932 0.75 
4.75942 -2.60565 0.75 
4.74828 -2.60207 0.75 
4.73757 -2.59862 0.75 
4.72686 -2.59517 0.75 
4.71629 -2.59177 0.75 
4.70601 -2.58846 0.75 
4.69616 -2.58529 0.75 
4.68631 -2.58212 0.75 
4.6766 -2.579 0.75 
4.66403 -2.57496 0.75 
4.65147 -2.57091 0.75 
4.63876 -2.56682 0.75 
4.62891 -2.56365 0.75 
4.61863 -2.56035 0.75 
4.60806 -2.55695 0.75 
4.59721 -2.55345 0.75 
4.58607 -2.54987 0.75 
4.5745 -2.54615 0.75 
4.56265 -2.54234 0.75 
4.55052 -2.53843 0.75 
4.53809 -2.53443 0.75 
4.5261 -2.53057 0.75 
4.51439 -2.52681 0.75 
4.50297 -2.52313 0.75 
4.49183 -2.51955 0.75 
4.48069 -2.51596 0.75 
4.46984 -2.51247 0.75 
4.45927 -2.50907 0.75 
4.44899 -2.50576 0.75 
4.43871 -2.50246 0.75 
4.42872 -2.49924 0.75 
4.41901 -2.49612 0.75 
4.40644 -2.49207 0.75 
4.39402 -2.48808 0.75 
4.38202 -2.48422 0.75 
4.37017 -2.4804 0.75 
4.35875 -2.47673 0.75 
4.34747 -2.47308 0.75 
4.33681 -2.46948 0.75 
4.32678 -2.4659 0.75 
4.31738 -2.46237 0.75 
4.3065 -2.45806 0.75 
4.29653 -2.4539 0.75 
4.28582 -2.44919 0.75 
4.27644 -2.44482 0.75 
4.26714 -2.44027 0.75 
4.25769 -2.43537 0.75 
4.2489 -2.4305 0.75 
4.24011 -2.42503 0.75 
4.23172 -2.4195 0.75 
4.22326 -2.4138 0.75 
4.21423 -2.40761 0.75 
4.20535 -2.40146 0.75 
4.19712 -2.39569 0.75 
4.18819 -2.38936 0.75 
4.17854 -2.38247 0.75 
4.17027 -2.37651 0.75 
4.16152 -2.37017 0.75 
4.15232 -2.36345 0.75 
4.14266 -2.35633 0.75 
4.13252 -2.34885 0.75 
4.1219 -2.34101 0.75 
4.11357 -2.33487 0.75 
4.105 -2.32855 0.75 
4.09618 -2.32205 0.75 
4.08713 -2.31537 0.75 
4.07771 -2.30843 0.75 
4.06805 -2.30132 0.75 
4.05815 -2.29402 0.75 
4.048 -2.28655 0.75 
4.03785 -2.27908 0.75 
4.02795 -2.27179 0.75 
4.01828 -2.26467 0.75 
4.00886 -2.25774 0.75 
3.99944 -2.2508 0.75 
3.99026 -2.24405 0.75 
3.98131 -2.23747 0.75 
3.97261 -2.23107 0.75 
3.96391 -2.22467 0.75 
3.95545 -2.21845 0.75 
3.94724 -2.21241 0.75 
3.9366 -2.20459 0.75 
3.92608 -2.19686 0.75 
3.91593 -2.1894 0.75 
3.9059 -2.18203 0.75 
3.89635 -2.17501 0.75 
3.88734 -2.16828 0.75 
3.87887 -2.16182 0.75 
3.87093 -2.15566 0.75 
3.86175 -2.1484 0.75 
3.85335 -2.14162 0.75 
3.84432 -2.13417 0.75 
3.83641 -2.1275 0.75 
3.82857 -2.12074 0.75 
3.82025 -2.1134 0.75 
3.81178 -2.10577 0.75 
3.80349 -2.09816 0.75 
3.79591 -2.09112 0.75 
3.78761 -2.08331 0.75 
3.77912 -2.07525 0.75 
3.77102 -2.06744 0.75 
3.76344 -2.05996 0.75 
3.75542 -2.05186 0.75 
3.74833 -2.04453 0.75 
3.74143 -2.03722 0.75 
3.73444 -2.02959 0.75 
3.72766 -2.02197 0.75 
3.72058 -2.01381 0.75 
3.7132 -2.00513 0.75 
3.70597 -1.99651 0.75 
3.69936 -1.98854 0.75 
3.69214 -1.97972 0.75 
3.68457 -1.97041 0.75 
3.67701 -1.96109 0.75 
3.66972 -1.95232 0.75 
3.66301 -1.94445 0.75 
3.6556 -1.93598 0.75 
3.64797 -1.92751 0.75 
3.64062 -1.91959 0.75 
3.63357 -1.91223 0.75 
3.62605 -1.90468 0.75 
3.61843 -1.89725 0.75 
3.61095 -1.89009 0.75 
3.60342 -1.88299 0.75 
3.59486 -1.87502 0.75 
3.58738 -1.86808 0.75 
3.57941 -1.86035 0.75 
3.57167 -1.8524 0.75 
3.56457 -1.84466 0.75 
3.55774 -1.83668 0.75 
3.55153 -1.82861 0.75 
3.54516 -1.82064 0.75 
3.53803 -1.81194 0.75 
3.53159 -1.80422 0.75 
3.52502 -1.79641 0.75 
3.51765 -1.78772 0.75 
3.51076 -1.7796 0.75 
3.50329 -1.77079 0.75 
3.49524 -1.76129 0.75 
3.48835 -1.75317 0.75 
3.48108 -1.74459 0.75 
3.47371 -1.73589 0.75 
3.46634 -1.72719 0.75 
3.45926 -1.71884 0.75 
3.45228 -1.7106 0.75 
3.44559 -1.7027 0.75 
3.439 -1.69492 0.75 
3.43115 -1.68564 0.75 
3.42349 -1.6766 0.75 
3.41622 -1.66801 0.75 
3.40895 -1.65943 0.75 
3.40207 -1.6513 0.75 
3.39539 -1.6434 0.75 
3.3889 -1.63572 0.75 
3.38182 -1.62736 0.75 
3.37417 -1.61832 0.75 
3.36758 -1.61053 0.75 
3.3606 -1.60229 0.75 
3.35324 -1.59358 0.75 
3.34588 -1.58488 0.75 
3.33851 -1.57618 0.75 
3.33154 -1.56793 0.75 
3.32456 -1.55969 0.75 
3.31797 -1.5519 0.75 
3.31139 -1.54411 0.75 
3.30363 -1.53496 0.75 
3.29588 -1.52579 0.75 
3.28842 -1.51698 0.75 
3.28116 -1.50839 0.75 
3.27437 -1.50037 0.75 
3.26759 -1.49236 0.75 
3.2611 -1.48468 0.75 
3.25442 -1.47678 0.75 
3.24707 -1.46806 0.75 
3.23916 -1.45865 0.75 
3.23241 -1.45061 0.75 
3.22528 -1.4421 0.75 
3.21796 -1.43335 0.75 
3.21066 -1.4246 0.75 
3.20355 -1.41607 0.75 
3.19665 -1.40777 0.75 
3.18993 -1.3997 0.75 
3.18342 -1.39185 0.75 
3.17558 -1.38237 0.75 
3.16793 -1.37312 0.75 
3.16039 -1.36399 0.75 
3.15323 -1.3553 0.75 
3.14637 -1.34697 0.75 
3.1397 -1.33885 0.75 
3.13314 -1.33085 0.75 
3.12572 -1.3218 0.75 
3.11917 -1.31379 0.75 
3.11198 -1.30494 0.75 
3.10425 -1.29538 0.75 
3.09766 -1.2872 0.75 
3.09071 -1.27854 0.75 
3.0836 -1.26964 0.75 
3.07649 -1.26072 0.75 
3.06959 -1.25203 0.75 
3.06288 -1.24357 0.75 
3.05638 -1.23532 0.75 
3.05007 -1.22731 0.75 
3.04377 -1.21929 0.75 
3.03619 -1.2096 0.75 
3.02881 -1.20014 0.75 
3.0219 -1.19126 0.75 
3.01519 -1.1826 0.75 
3.00877 -1.17429 0.75 
3.00236 -1.16598 0.75 
2.99514 -1.15658 0.75 
2.98803 -1.14729 0.75 
2.98172 -1.1389 0.75 
2.97547 -1.13028 0.75 
2.96919 -1.12131 0.75 
2.96336 -1.11257 0.75 
2.95781 -1.10366 0.75 
2.95246 -1.09463 0.75 
2.9472 -1.08554 0.75 
2.9417 -1.0759 0.75 
2.93625 -1.06623 0.75 
2.93127 -1.05733 0.75 
2.92585 -1.04764 0.75 
2.91993 -1.03703 0.75 
2.9149 -1.02798 0.75 
2.90958 -1.01841 0.75 
2.90406 -1.00844 0.75 
2.89854 -0.998468 0.75 
2.8931 -0.988621 0.75 
2.88788 -0.979165 0.75 
2.88274 -0.969836 0.75 
2.87782 -0.960899 0.75 
2.87298 -0.95209 0.75 
2.86721 -0.941569 0.75 
2.86167 -0.931438 0.75 
2.85627 -0.921566 0.75 
2.85096 -0.911823 0.75 
2.84593 -0.902603 0.75 
2.84113 -0.893776 0.75 
2.83554 -0.883495 0.75 
2.8302 -0.873595 0.75 
2.82492 -0.86349 0.75 
2.82008 -0.853837 0.75 
2.81566 -0.844644 0.75 
2.8115 -0.835495 0.75 
2.80716 -0.825442 0.75 
2.80299 -0.81548 0.75 
2.79867 -0.804928 0.75 
2.79448 -0.794488 0.75 
2.79067 -0.784864 0.75 
2.78653 -0.774245 0.75 
2.78224 -0.763038 0.75 
2.77833 -0.752169 0.75 
2.77496 -0.742068 0.75 
2.7716 -0.731175 0.75 
2.76882 -0.721361 0.75 
2.76631 -0.711629 0.75 
2.764 -0.701542 0.75 
2.76202 -0.691383 0.75 
2.76092 -0.680946 0.75 
2.76009 -0.670027 0.75 
2.75939 -0.6594 0.75 
2.75872 -0.64802 0.75 
2.75811 -0.636786 0.75 
2.75759 -0.626449 0.75 
2.75707 -0.615211 0.75 
2.75659 -0.603972 0.75 
2.75615 -0.592731 0.75 
2.75576 -0.582088 0.75 
2.75518 -0.563947 0.75 
2.75468 -0.544904 0.75 
2.75433 -0.528707 0.75 
2.75398 -0.50726 0.75 
2.7538 -0.491811 0.75 
2.75369 -0.476962 0.75 
2.75364 -0.464812 0.75 
2.75364 -0.450712 0.75 
2.75368 -0.436462 0.75 
2.75374 -0.425962 0.75 
2.75383 -0.415613 0.75 
2.75395 -0.404813 0.75 
2.7541 -0.394014 0.75 
2.75432 -0.380066 0.75 
2.75452 -0.369718 0.75 
2.75466 -0.359519 0.75 
2.75443 -0.341371 0.75 
2.75402 -0.326377 0.75 
2.75333 -0.307639 0.75 
2.75231 -0.285163 0.75 
2.7518 -0.275126 0.75 
2.75089 -0.258951 0.75 
2.7502 -0.247422 0.75 
2.74901 -0.22901 0.75 
2.74811 -0.215991 0.75 
2.74659 -0.195347 0.75 
2.74576 -0.18458 0.75 
2.74359 -0.160979 0.75 
2.7422 -0.148305 0.75 
2.73996 -0.130446 0.75 
2.73838 -0.119307 0.75 
2.7351 -0.098869 0.75 
2.73096 -0.076755 0.75 
2.72699 -0.058431 0.75 
2.72343 -0.043859 0.75 
2.7205 -0.032998 0.75 
2.71727 -0.022222 0.75 
2.71375 -0.012491 0.75 
2.71001 -0.002676 0.75 
2.70482 0.010593 0.75 
2.6981 0.027293 0.75 
2.69418 0.036871 0.75 
2.68981 0.047402 0.75 
2.68506 0.058745 0.75 
2.6799 0.070896 0.75 
2.67547 0.081235 0.75 
2.6683 0.097748 0.75 
2.66318 0.109423 0.75 
2.65531 0.127101 0.75 
2.65029 0.138164 0.75 
2.64309 0.153678 0.75 
2.63854 0.163304 0.75 
2.62925 0.182473 0.75 
2.62413 0.192823 0.75 
2.61582 0.209296 0.75 
2.60986 0.220906 0.75 
2.60027 0.239253 0.75 
2.59521 0.248794 0.75 
2.58275 0.271896 0.75 
2.57748 0.281496 0.75 
2.56557 0.302847 0.75 
2.56046 0.311849 0.75 
2.54915 0.331472 0.75 
2.54277 0.342341 0.75 
2.53349 0.357939 0.75 
2.52737 0.368086 0.75 
2.51845 0.382675 0.75 
2.51268 0.39198 0.75 
2.50413 0.405564 0.75 
2.49865 0.414163 0.75 
2.49034 0.427014 0.75 
2.48369 0.437179 0.75 
2.47714 0.447058 0.75 
2.47088 0.456404 0.75 
2.46246 0.468818 0.75 
2.45079 0.485734 0.75 
2.43967 0.501568 0.75 
2.42719 0.519015 0.75 
2.41775 0.531993 0.75 
2.40992 0.542436 0.75 
2.39917 0.556305 0.75 
2.39009 0.567674 0.75 
2.38154 0.578119 0.75 
2.37354 0.587664 0.75 
2.36575 0.596784 0.75 
2.35855 0.60504 0.75 
2.35159 0.612896 0.75 
2.34354 0.621803 0.75 
2.33674 0.629197 0.75 
2.32934 0.63707 0.75 
2.32219 0.64455 0.75 
2.31413 0.652819 0.75 
2.30619 0.660789 0.75 
2.29703 0.664903 0.75 
2.28698 0.662504 0.75 
2.27644 0.659526 0.75 
2.26651 0.656592 0.75 
2.25577 0.653254 0.75 
2.24207 0.648815 0.75 
2.22359 0.642582 0.75 
2.20165 0.634891 0.75 
2.19191 0.631391 0.75 
2.17628 0.625675 0.75 
2.16517 0.621546 0.75 
2.14749 0.614864 0.75 
2.13503 0.610075 0.75 
2.11533 0.60238 0.75 
2.10501 0.59829 0.75 
2.0808 0.588537 0.75 
2.07081 0.584444 0.75 
2.04797 0.574892 0.75 
2.03873 0.570939 0.75 
2.01839 0.562051 0.75 
2.00757 0.557213 0.75 
1.99242 0.550301 0.75 
1.98263 0.545744 0.75 
1.96718 0.538413 0.75 
1.95624 0.533127 0.75 
1.93284 0.521568 0.75 
1.9236 0.516913 0.75 
1.90077 0.505216 0.75 
1.8908 0.500016 0.75 
1.8684 0.488143 0.75 
1.85929 0.483229 0.75 
1.83851 0.471833 0.75 
1.82699 0.465397 0.75 
1.81054 0.456072 0.75 
1.80028 0.450149 0.75 
1.78142 0.439028 0.75 
1.77268 0.433767 0.75 
1.75925 0.425542 0.75 
1.74969 0.419598 0.75 
1.73448 0.409979 0.75 
1.72375 0.403089 0.75 
1.70679 0.392029 0.75 
1.6979 0.386156 0.75 
1.67623 0.371614 0.75 
1.66656 0.365029 0.75 
1.64497 0.350104 0.75 
1.636 0.343815 0.75 
1.61609 0.329634 0.75 
1.6077 0.323571 0.75 
1.58905 0.309931 0.75 
1.58083 0.303899 0.75 
1.56063 0.289088 0.75 
1.55155 0.282437 0.75 
1.52917 0.266034 0.75 
1.51913 0.258675 0.75 
1.49493 0.240946 0.75 
1.48476 0.2335 0.75 
1.46225 0.217015 0.75 
1.45281 0.210103 0.75 
1.43151 0.194508 0.75 
1.4228 0.188128 0.75 
1.40283 0.17351 0.75 
1.39472 0.167575 0.75 
1.37619 0.154022 0.75 
1.36603 0.146582 0.75 
1.35114 0.135688 0.75 
1.34145 0.128603 0.75 
1.32753 0.118419 0.75 
1.3182 0.1116 0.75 
1.29811 0.0969 0.75 
1.28733 0.089019 0.75 
1.27026 0.076532 0.75 
1.2613 0.069979 0.75 
1.23939 0.053951 0.75 
1.22958 0.046778 0.75 
1.20622 0.029687 0.75 
1.19665 0.022691 0.75 
1.17474 0.006662 0.75 
1.16566 2.1e-05 0.75 
1.14532 -0.014857 0.75 
1.13684 -0.021055 0.75 
1.11796 -0.03487 0.75 
1.10742 -0.042574 0.75 
1.09217 -0.053732 0.75 
1.08236 -0.060905 0.75 
1.06832 -0.071178 0.75 
1.05851 -0.078351 0.75 
1.04289 -0.089775 0.75 
1.03466 -0.095796 0.75 
1.01444 -0.110585 0.75 
1.00536 -0.117227 0.75 
0.982962 -0.13361 0.75 
0.972914 -0.14096 0.75 
0.949789 -0.157874 0.75 
0.939983 -0.165047 0.75 
0.918311 -0.180898 0.75 
0.909231 -0.18754 0.75 
0.88877 -0.202506 0.75 
0.880416 -0.208616 0.75 
0.85596 -0.226504 0.75 
0.845427 -0.234209 0.75 
0.830172 -0.245367 0.75 
0.819639 -0.253071 0.75 
0.802932 -0.265292 0.75 
0.794215 -0.271668 0.75 
0.772664 -0.287431 0.75 
0.762979 -0.294515 0.75 
0.739491 -0.311695 0.75 
0.729321 -0.319133 0.75 
0.706439 -0.335871 0.75 
0.696874 -0.342866 0.75 
0.675566 -0.358452 0.75 
0.666849 -0.364828 0.75 
0.646873 -0.37944 0.75 
0.638519 -0.38555 0.75 
0.619753 -0.399276 0.75 
0.609583 -0.406715 0.75 
0.594692 -0.417607 0.75 
0.585006 -0.424692 0.75 
0.570357 -0.435407 0.75 
0.560066 -0.442934 0.75 
0.538031 -0.459051 0.75 
0.529314 -0.465427 0.75 
0.507764 -0.48119 0.75 
0.498078 -0.488275 0.75 
0.474712 -0.505366 0.75 
0.464905 -0.512539 0.75 
0.442386 -0.52901 0.75 
0.433185 -0.535741 0.75 
0.412118 -0.551149 0.75 
0.403401 -0.557525 0.75 
0.383909 -0.571782 0.75 
0.375797 -0.577716 0.75 
0.357274 -0.591265 0.75 
0.347225 -0.598615 0.75 
0.332697 -0.609241 0.75 
0.323374 -0.61606 0.75 
0.310261 -0.625572 0.75 
0.302078 -0.631406 0.75 
0.290656 -0.639416 0.75 
0.272449 -0.651853 0.75 
0.251187 -0.665931 0.75 
0.241749 -0.672053 0.75 
0.226581 -0.681745 0.75 
0.215792 -0.68854 0.75 
0.198969 -0.69898 0.75 
0.188091 -0.705632 0.75 
0.172417 -0.715076 0.75 
0.161453 -0.721585 0.75 
0.143974 -0.731809 0.75 
0.134749 -0.737132 0.75 
0.113496 -0.749219 0.75 
0.104485 -0.754311 0.75 
0.082155 -0.766931 0.75 
0.0721 -0.772615 0.75 
0.061784 -0.778447 0.75 
0.047552 -0.786494 0.75 
0.036584 -0.792696 0.75 
0.025225 -0.799121 0.75 
0.003161 -0.811602 0.75 
-0.007806 -0.817807 0.75 
-0.032088 -0.831547 0.75 
-0.042009 -0.837162 0.75 
-0.064723 -0.850018 0.75 
-0.074121 -0.855339 0.75 
-0.095137 -0.867238 0.75 
-0.103882 -0.87219 0.75 
-0.123852 -0.8835 0.75 
-0.134685 -0.889636 0.75 
-0.150346 -0.898508 0.75 
-0.160395 -0.904201 0.75 
-0.174405 -0.912334 0.75 
-0.182988 -0.917562 0.75 
-0.198387 -0.927449 0.75 
-0.206831 -0.933171 0.75 
-0.215896 -0.939575 0.75 
-0.227088 -0.947903 0.75 
-0.236506 -0.955338 0.75 
-0.244204 -0.961798 0.75 
-0.252328 -0.970397 0.75 
-0.259411 -0.978748 0.75 
-0.267276 -0.988205 0.75 
-0.278196 -1.00156 0.75 
-0.284536 -1.00936 0.75 
-0.291445 -1.01785 0.75 
-0.298922 -1.02704 0.75 
-0.307062 -1.03705 0.75 
-0.313972 -1.04555 0.75 
-0.325048 -1.05916 0.75 
-0.332906 -1.06882 0.75 
-0.345403 -1.08417 0.75 
-0.351935 -1.0922 0.75 
-0.368126 -1.1121 0.75 
-0.375417 -1.12105 0.75 
-0.382803 -1.13013 0.75 
-0.397291 -1.14793 0.75 
-0.404393 -1.15665 0.75 
-0.420398 -1.17631 0.75 
-0.426932 -1.18434 0.75 
-0.441896 -1.20272 0.75 
-0.449946 -1.2126 0.75 
-0.461877 -1.22726 0.75 
-0.469893 -1.23718 0.75 
-0.482547 -1.25299 0.75 
-0.48917 -1.26133 0.75 
-0.49596 -1.26992 0.75 
-0.505323 -1.28183 0.75 
-0.512534 -1.29104 0.75 
-0.520005 -1.30062 0.75 
-0.530218 -1.31377 0.75 
-0.537932 -1.32373 0.75 
-0.545542 -1.33359 0.75 
-0.560367 -1.35284 0.75 
-0.567587 -1.36224 0.75 
-0.58366 -1.38318 0.75 
-0.590234 -1.39175 0.75 
-0.605303 -1.41138 0.75 
-0.61161 -1.41959 0.75 
-0.61783 -1.42767 0.75 
-0.629643 -1.443 0.75 
-0.637343 -1.45297 0.75 
-0.644775 -1.46258 0.75 
-0.652122 -1.47207 0.75 
-0.665741 -1.48998 0.75 
-0.671878 -1.49832 0.75 
-0.680276 -1.51002 0.75 
-0.686549 -1.51899 0.75 
-0.692219 -1.52729 0.75 
-0.701741 -1.54167 0.75 
-0.708991 -1.55306 0.75 
-0.715035 -1.5629 0.75 
-0.722708 -1.57579 0.75 
-0.728145 -1.58512 0.75 
-0.734192 -1.59566 0.75 
-0.739663 -1.60532 0.75 
-0.74507 -1.61501 0.75 
-0.74997 -1.62396 0.75 
-0.754801 -1.63294 0.75 
-0.759988 -1.64275 0.75 
-0.76559 -1.65354 0.75 
-0.770306 -1.66275 0.75 
-0.777793 -1.67762 0.75 
-0.783051 -1.68824 0.75 
-0.791327 -1.70523 0.75 
-0.797096 -1.71727 0.75 
-0.80611 -1.7364 0.75 
-0.810783 -1.74647 0.75 
-0.821927 -1.7709 0.75 
-0.82653 -1.78117 0.75 
-0.836932 -1.80477 0.75 
-0.841101 -1.81441 0.75 
-0.850483 -1.8365 0.75 
-0.855615 -1.84883 0.75 
-0.863732 -1.86836 0.75 
-0.867994 -1.87861 0.75 
-0.878428 -1.90367 0.75 
-0.883099 -1.91489 0.75 
-0.894584 -1.94244 0.75 
-0.899493 -1.95421 0.75 
-0.904287 -1.9657 0.75 
-0.910529 -1.98064 0.75 
-0.915211 -1.99186 0.75 
-0.919722 -2.00265 0.75 
-0.9284 -2.02341 0.75 
-0.932567 -2.03338 0.75 
-0.942121 -2.05621 0.75 
-0.946119 -2.06575 0.75 
-0.950059 -2.07516 0.75 
-0.955101 -2.0872 0.75 
-0.959971 -2.09882 0.75 
-0.967105 -2.11583 0.75 
-0.971746 -2.1269 0.75 
-0.978421 -2.14281 0.75 
-0.982891 -2.15346 0.75 
-0.990032 -2.17047 0.75 
-0.995083 -2.1825 0.75 
-1.00309 -2.20159 0.75 
-1.00727 -2.21155 0.75 
-1.01163 -2.22192 0.75 
-1.01761 -2.23617 0.75 
-1.02225 -2.24723 0.75 
-1.02701 -2.25857 0.75 
-1.03346 -2.27392 0.75 
-1.03816 -2.28513 0.75 
-1.04269 -2.29591 0.75 
-1.04872 -2.3103 0.75 
-1.05314 -2.32081 0.75 
-1.05743 -2.33105 0.75 
-1.063 -2.34432 0.75 
-1.06718 -2.35428 0.75 
-1.07119 -2.36383 0.75 
-1.07914 -2.38278 0.75 
-1.08419 -2.39481 0.75 
-1.09151 -2.41224 0.75 
-1.09621 -2.42344 0.75 
-1.10276 -2.43923 0.75 
-1.10677 -2.4491 0.75 
-1.11392 -2.46724 0.75 
-1.11795 -2.47775 0.75 
-1.12205 -2.4887 0.75 
-1.12551 -2.49814 0.75 
-1.13099 -2.51339 0.75 
-1.13482 -2.52428 0.75 
-1.14082 -2.54173 0.75 
-1.14498 -2.5541 0.75 
-1.15145 -2.57376 0.75 
-1.15476 -2.58404 0.75 
-1.15817 -2.59476 0.75 
-1.16265 -2.60908 0.75 
-1.16587 -2.61954 0.75 
-1.169 -2.62988 0.75 
-1.17404 -2.64685 0.75 
-1.17689 -2.65664 0.75 
-1.18413 -2.68218 0.75 
-1.18693 -2.69215 0.75 
-1.19385 -2.71685 0.75 
-1.19697 -2.72797 0.75 
-1.20459 -2.75512 0.75 
-1.208 -2.76725 0.75 
-1.21613 -2.79612 0.75 
-1.21947 -2.80796 0.75 
-1.22712 -2.83511 0.75 
-1.23029 -2.84637 0.75 
-1.23731 -2.8712 0.75 
-1.24024 -2.88159 0.75 
-1.24314 -2.89184 0.75 
-1.24689 -2.90512 0.75 
-1.24971 -2.91508 0.75 
-1.25588 -2.93687 0.75 
-1.25932 -2.94899 0.75 
-1.2659 -2.97223 0.75 
-1.26906 -2.98334 0.75 
-1.27369 -2.99964 0.75 
-1.27665 -3.00987 0.75 
-1.2809 -3.0241 0.75 
-1.28426 -3.035 0.75 
-1.28747 -3.04515 0.75 
-1.29104 -3.05613 0.75 
-1.29497 -3.06795 0.75 
-1.29839 -3.07803 0.75 
-1.304 -3.09419 0.75 
-1.30806 -3.10564 0.75 
-1.31465 -3.12383 0.75 
-1.31818 -3.1334 0.75 
-1.327 -3.15685 0.75 
-1.33103 -3.16735 0.75 
-1.34044 -3.19138 0.75 
-1.34444 -3.20141 0.75 
-1.34843 -3.21128 0.75 
-1.3536 -3.22391 0.75 
-1.35867 -3.2361 0.75 
-1.36875 -3.25985 0.75 
-1.37401 -3.27212 0.75 
-1.38233 -3.29156 0.75 
-1.3867 -3.30177 0.75 
-1.39118 -3.31225 0.75 
-1.40056 -3.33418 0.75 
-1.40544 -3.34563 0.75 
-1.41699 -3.37267 0.75 
-1.42193 -3.38426 0.75 
-1.43287 -3.40992 0.75 
-1.43734 -3.42041 0.75 
-1.44757 -3.44442 0.75 
-1.4518 -3.45436 0.75 
-1.46125 -3.47658 0.75 
-1.46519 -3.48583 0.75 
-1.47417 -3.50695 0.75 
-1.47904 -3.51841 0.75 
-1.48592 -3.53455 0.75 
-1.49029 -3.54459 0.75 
-1.49849 -3.56294 0.75 
-1.50267 -3.57208 0.75 
-1.50952 -3.58677 0.75 
-1.51447 -3.5972 0.75 
-1.5221 -3.613 0.75 
-1.52712 -3.62324 0.75 
-1.53683 -3.6427 0.75 
-1.54151 -3.65193 0.75 
-1.54851 -3.66554 0.75 
-1.55315 -3.67445 0.75 
-1.55987 -3.68719 0.75 
-1.56524 -3.69725 0.75 
-1.57051 -3.70702 0.75 
-1.57553 -3.71623 0.75 
-1.5806 -3.72543 0.75 
-1.58571 -3.73461 0.75 
-1.59145 -3.7448 0.75 
-1.59965 -3.75912 0.75 
-1.60507 -3.76846 0.75 
-1.61031 -3.77738 0.75 
-1.61867 -3.79143 0.75 
-1.62643 -3.80427 0.75 
-1.63387 -3.81643 0.75 
-1.64099 -3.82789 0.75 
-1.64745 -3.83819 0.75 
-1.65388 -3.84832 0.75 
-1.65996 -3.85778 0.75 
-1.66568 -3.86659 0.75 
-1.67152 -3.87549 0.75 
-1.67749 -3.8845 0.75 
-1.68333 -3.89322 0.75 
-1.69022 -3.90341 0.75 
