ply
format ascii 1.0
element vertex 792
property float x
property float y
property float z
end_header
-0.010495 -0.000302 0.75 
-0.021435 -0.000778 0.75 
-0.032819 -0.001375 0.75 
-0.042852 -0.001965 0.75 
-0.054378 -0.002706 0.75 
-0.064928 -0.003435 0.75 
-0.076372 -0.004275 0.75 
-0.08886 -0.005244 0.75 
-0.099474 -0.006109 0.75 
-0.110385 -0.007037 0.75 
-0.120693 -0.007974 0.75 
-0.13271 -0.009151 0.75 
-0.144271 -0.010373 0.75 
-0.156418 -0.011749 0.75 
-0.166843 -0.012998 0.75 
-0.177857 -0.014381 0.75 
-0.189457 -0.015903 0.75 
-0.201644 -0.017571 0.75 
-0.214415 -0.019389 0.75 
-0.224432 -0.020864 0.75 
-0.234739 -0.022425 0.75 
-0.245337 -0.024074 0.75 
-0.256224 -0.025814 0.75 
-0.267547 -0.02767 0.75 
-0.278863 -0.029574 0.75 
-0.290024 -0.031499 0.75 
-0.300879 -0.033424 0.75 
-0.311283 -0.03532 0.75 
-0.321383 -0.037209 0.75 
-0.334344 -0.039707 0.75 
-0.346701 -0.04217 0.75 
-0.358455 -0.044587 0.75 
-0.369607 -0.046951 0.75 
-0.380745 -0.049384 0.75 
-0.392453 -0.052015 0.75 
-0.40473 -0.054849 0.75 
-0.417574 -0.057892 0.75 
-0.42756 -0.060312 0.75 
-0.437827 -0.062847 0.75 
-0.448519 -0.065535 0.75 
-0.45949 -0.068345 0.75 
-0.470594 -0.07124 0.75 
-0.481685 -0.074183 0.75 
-0.492328 -0.077058 0.75 
-0.50267 -0.079899 0.75 
-0.512855 -0.082745 0.75 
-0.523027 -0.085635 0.75 
-0.532754 -0.088447 0.75 
-0.545271 -0.09214 0.75 
-0.557189 -0.095738 0.75 
-0.568512 -0.099234 0.75 
-0.579241 -0.102618 0.75 
-0.589806 -0.106021 0.75 
-0.600779 -0.109628 0.75 
-0.612299 -0.11349 0.75 
-0.624364 -0.117612 0.75 
-0.636972 -0.122002 0.75 
-0.6468 -0.125479 0.75 
-0.656895 -0.129099 0.75 
-0.667257 -0.132864 0.75 
-0.678026 -0.136829 0.75 
-0.688777 -0.14084 0.75 
-0.69937 -0.144844 0.75 
-0.709666 -0.148786 0.75 
-0.719945 -0.152772 0.75 
-0.729928 -0.156693 0.75 
-0.739754 -0.160602 0.75 
-0.749563 -0.164554 0.75 
-0.759366 -0.168519 0.75 
-0.769448 -0.172597 0.75 
-0.779807 -0.176788 0.75 
-0.790445 -0.181091 0.75 
-0.8015 -0.185563 0.75 
-0.812833 -0.190147 0.75 
-0.824444 -0.194844 0.75 
-0.836333 -0.199653 0.75 
-0.848639 -0.204631 0.75 
-0.860667 -0.209497 0.75 
-0.872417 -0.21425 0.75 
-0.883889 -0.218891 0.75 
-0.894944 -0.223363 0.75 
-0.905999 -0.227834 0.75 
-0.916915 -0.23225 0.75 
-0.927552 -0.236553 0.75 
-0.937773 -0.240687 0.75 
-0.947993 -0.244822 0.75 
-0.958075 -0.2489 0.75 
-0.967878 -0.252865 0.75 
-0.977264 -0.256662 0.75 
-0.98665 -0.260459 0.75 
-0.998887 -0.265409 0.75 
-1.01085 -0.270247 0.75 
-1.02308 -0.275197 0.75 
-1.03261 -0.27905 0.75 
-1.04241 -0.283015 0.75 
-1.05263 -0.28715 0.75 
-1.06313 -0.291396 0.75 
-1.07391 -0.295756 0.75 
-1.08496 -0.300228 0.75 
-1.09643 -0.304868 0.75 
-1.10818 -0.309621 0.75 
-1.12007 -0.314431 0.75 
-1.13196 -0.31924 0.75 
-1.14343 -0.323881 0.75 
-1.15463 -0.328409 0.75 
-1.16568 -0.332881 0.75 
-1.17674 -0.337352 0.75 
-1.18737 -0.341656 0.75 
-1.19773 -0.345846 0.75 
-1.20795 -0.349981 0.75 
-1.21817 -0.354115 0.75 
-1.22798 -0.35808 0.75 
-1.2375 -0.361933 0.75 
-1.24689 -0.36573 0.75 
-1.25628 -0.369527 0.75 
-1.26821 -0.374412 0.75 
-1.27957 -0.379141 0.75 
-1.29034 -0.383707 0.75 
-1.30053 -0.388101 0.75 
-1.31015 -0.392317 0.75 
-1.32029 -0.396834 0.75 
-1.33095 -0.401657 0.75 
-1.34213 -0.406793 0.75 
-1.35382 -0.412246 0.75 
-1.36297 -0.416572 0.75 
-1.37238 -0.421066 0.75 
-1.38204 -0.42573 0.75 
-1.39194 -0.430566 0.75 
-1.40223 -0.435644 0.75 
-1.41277 -0.440899 0.75 
-1.42329 -0.446199 0.75 
-1.43351 -0.451408 0.75 
-1.44331 -0.456455 0.75 
-1.45309 -0.461544 0.75 
-1.46272 -0.466606 0.75 
-1.47205 -0.471572 0.75 
-1.48097 -0.476369 0.75 
-1.49243 -0.482615 0.75 
-1.50332 -0.488643 0.75 
-1.51365 -0.494444 0.75 
-1.52343 -0.500011 0.75 
-1.53343 -0.505788 0.75 
-1.54392 -0.511927 0.75 
-1.55488 -0.518434 0.75 
-1.56632 -0.525313 0.75 
-1.57523 -0.530731 0.75 
-1.58437 -0.536344 0.75 
-1.59374 -0.542154 0.75 
-1.60346 -0.548244 0.75 
-1.61316 -0.554376 0.75 
-1.62271 -0.56047 0.75 
-1.63198 -0.566443 0.75 
-1.64122 -0.572456 0.75 
-1.65018 -0.578345 0.75 
-1.65887 -0.584108 0.75 
-1.66728 -0.589741 0.75 
-1.67606 -0.595636 0.75 
-1.68509 -0.601698 0.75 
-1.69437 -0.607925 0.75 
-1.7039 -0.614319 0.75 
-1.7138 -0.620962 0.75 
-1.72395 -0.627771 0.75 
-1.73436 -0.634746 0.75 
-1.74501 -0.641887 0.75 
-1.75566 -0.649027 0.75 
-1.76632 -0.656165 0.75 
-1.77685 -0.663219 0.75 
-1.78713 -0.670105 0.75 
-1.79704 -0.67674 0.75 
-1.8067 -0.683207 0.75 
-1.81624 -0.689589 0.75 
-1.82577 -0.695971 0.75 
-1.83494 -0.702102 0.75 
-1.84385 -0.708065 0.75 
-1.85264 -0.713943 0.75 
-1.86143 -0.719822 0.75 
-1.86985 -0.725449 0.75 
-1.87827 -0.731076 0.75 
-1.88924 -0.738411 0.75 
-1.89972 -0.745411 0.75 
-1.91019 -0.752411 0.75 
-1.92117 -0.759744 0.75 
-1.92971 -0.765452 0.75 
-1.93851 -0.771327 0.75 
-1.94767 -0.777452 0.75 
-1.95709 -0.783744 0.75 
-1.96676 -0.790202 0.75 
-1.97667 -0.796827 0.75 
-1.98696 -0.803702 0.75 
-1.9975 -0.810744 0.75 
-2.00804 -0.817785 0.75 
-2.01833 -0.82466 0.75 
-2.02824 -0.831285 0.75 
-2.03816 -0.837911 0.75 
-2.04795 -0.844453 0.75 
-2.05749 -0.850828 0.75 
-2.06666 -0.856953 0.75 
-2.07558 -0.862912 0.75 
-2.08437 -0.868787 0.75 
-2.09316 -0.874662 0.75 
-2.10158 -0.880288 0.75 
-2.11025 -0.88608 0.75 
-2.11916 -0.892038 0.75 
-2.12833 -0.898163 0.75 
-2.13787 -0.904539 0.75 
-2.14766 -0.911081 0.75 
-2.1577 -0.91779 0.75 
-2.16799 -0.924665 0.75 
-2.17865 -0.93179 0.75 
-2.18932 -0.938916 0.75 
-2.19998 -0.946041 0.75 
-2.21064 -0.953166 0.75 
-2.22093 -0.960042 0.75 
-2.23097 -0.966751 0.75 
-2.24076 -0.973293 0.75 
-2.2503 -0.979668 0.75 
-2.25985 -0.986043 0.75 
-2.26914 -0.992252 0.75 
-2.27818 -0.998294 0.75 
-2.28697 -1.00417 0.75 
-2.29576 -1.01005 0.75 
-2.30431 -1.01575 0.75 
-2.31273 -1.02138 0.75 
-2.32114 -1.027 0.75 
-2.33187 -1.03417 0.75 
-2.34029 -1.0398 0.75 
-2.34896 -1.04559 0.75 
-2.35787 -1.05155 0.75 
-2.36704 -1.05767 0.75 
-2.37658 -1.06405 0.75 
-2.38637 -1.07059 0.75 
-2.39641 -1.0773 0.75 
-2.4067 -1.08417 0.75 
-2.41737 -1.0913 0.75 
-2.42803 -1.09842 0.75 
-2.43857 -1.10547 0.75 
-2.44886 -1.11234 0.75 
-2.45877 -1.11897 0.75 
-2.46869 -1.12559 0.75 
-2.47848 -1.13213 0.75 
-2.48802 -1.13851 0.75 
-2.49718 -1.14463 0.75 
-2.50635 -1.15076 0.75 
-2.51539 -1.1568 0.75 
-2.52419 -1.16268 0.75 
-2.5326 -1.1683 0.75 
-2.54102 -1.17393 0.75 
-2.54957 -1.17964 0.75 
-2.55836 -1.18551 0.75 
-2.56753 -1.19164 0.75 
-2.57694 -1.19793 0.75 
-2.58648 -1.20431 0.75 
-2.59602 -1.21068 0.75 
-2.60557 -1.21706 0.75 
-2.61486 -1.22326 0.75 
-2.6239 -1.22931 0.75 
-2.63269 -1.23518 0.75 
-2.64148 -1.24106 0.75 
-2.65003 -1.24677 0.75 
-2.661 -1.2541 0.75 
-2.67173 -1.26127 0.75 
-2.6822 -1.26827 0.75 
-2.69243 -1.2751 0.75 
-2.70241 -1.28177 0.75 
-2.71214 -1.28827 0.75 
-2.72162 -1.2946 0.75 
-2.73085 -1.30077 0.75 
-2.73983 -1.30677 0.75 
-2.74856 -1.3126 0.75 
-2.75704 -1.31827 0.75 
-2.76733 -1.32514 0.75 
-2.77712 -1.33168 0.75 
-2.78678 -1.33814 0.75 
-2.7962 -1.34444 0.75 
-2.80524 -1.35048 0.75 
-2.81378 -1.35619 0.75 
-2.8222 -1.36181 0.75 
-2.83193 -1.36831 0.75 
-2.84128 -1.37456 0.75 
-2.85026 -1.38056 0.75 
-2.85887 -1.38631 0.75 
-2.86841 -1.39269 0.75 
-2.87758 -1.39881 0.75 
-2.8865 -1.40477 0.75 
-2.89598 -1.41111 0.75 
-2.90471 -1.41694 0.75 
-2.91319 -1.42261 0.75 
-2.92235 -1.42873 0.75 
-2.93077 -1.43436 0.75 
-2.93987 -1.44044 0.75 
-2.94879 -1.4464 0.75 
-2.95721 -1.45202 0.75 
-2.96613 -1.45798 0.75 
-2.95715 -1.45198 0.75 
-2.94792 -1.44581 0.75 
-2.93825 -1.43936 0.75 
-2.92865 -1.43294 0.75 
-2.91986 -1.42706 0.75 
-2.91031 -1.42069 0.75 
-2.8999 -1.41373 0.75 
-2.89103 -1.40783 0.75 
-2.88165 -1.40163 0.75 
-2.87175 -1.39511 0.75 
-2.86133 -1.3883 0.75 
-2.85038 -1.3812 0.75 
-2.84187 -1.37571 0.75 
-2.83297 -1.37 0.75 
-2.8238 -1.36416 0.75 
-2.81436 -1.35818 0.75 
-2.80465 -1.35207 0.75 
-2.79453 -1.34575 0.75 
-2.78414 -1.33932 0.75 
-2.77372 -1.33291 0.75 
-2.76354 -1.32671 0.75 
-2.75371 -1.32078 0.75 
-2.74386 -1.3149 0.75 
-2.73411 -1.30913 0.75 
-2.7246 -1.30357 0.75 
-2.71544 -1.29827 0.75 
-2.70653 -1.29317 0.75 
-2.69503 -1.28667 0.75 
-2.68402 -1.28054 0.75 
-2.6735 -1.27477 0.75 
-2.66348 -1.26935 0.75 
-2.65368 -1.26413 0.75 
-2.64359 -1.25883 0.75 
-2.63293 -1.25331 0.75 
-2.62171 -1.24759 0.75 
-2.60991 -1.24165 0.75 
-2.60071 -1.23708 0.75 
-2.59122 -1.23242 0.75 
-2.58131 -1.2276 0.75 
-2.5711 -1.22269 0.75 
-2.56074 -1.21776 0.75 
-2.55036 -1.21287 0.75 
-2.53995 -1.20803 0.75 
-2.5298 -1.20336 0.75 
-2.51977 -1.19879 0.75 
-2.50973 -1.19423 0.75 
-2.49928 -1.18948 0.75 
-2.48857 -1.1846 0.75 
-2.47758 -1.1796 0.75 
-2.46631 -1.17448 0.75 
-2.45464 -1.16917 0.75 
-2.44269 -1.16374 0.75 
-2.43061 -1.15824 0.75 
-2.41852 -1.15274 0.75 
-2.40685 -1.14743 0.75 
-2.39545 -1.14225 0.75 
-2.38432 -1.13719 0.75 
-2.37346 -1.13225 0.75 
-2.36261 -1.12731 0.75 
-2.35203 -1.1225 0.75 
-2.34172 -1.11781 0.75 
-2.33168 -1.11325 0.75 
-2.32206 -1.10887 0.75 
-2.31243 -1.10449 0.75 
-2.30294 -1.10017 0.75 
-2.29373 -1.09598 0.75 
-2.28451 -1.09179 0.75 
-2.27263 -1.08639 0.75 
-2.26131 -1.08121 0.75 
-2.25057 -1.0762 0.75 
-2.2404 -1.07139 0.75 
-2.2308 -1.06677 0.75 
-2.22177 -1.06236 0.75 
-2.21069 -1.05685 0.75 
-2.20132 -1.05211 0.75 
-2.19144 -1.04705 0.75 
-2.18106 -1.04165 0.75 
-2.17018 -1.03591 0.75 
-2.15881 -1.02983 0.75 
-2.1499 -1.02502 0.75 
-2.14075 -1.02002 0.75 
-2.13136 -1.01484 0.75 
-2.12173 -1.00948 0.75 
-2.11172 -1.00385 0.75 
-2.10174 -0.998188 0.75 
-2.09191 -0.992565 0.75 
-2.08232 -0.987128 0.75 
-2.0731 -0.981955 0.75 
-2.06411 -0.976972 0.75 
-2.05254 -0.970633 0.75 
-2.04145 -0.964652 0.75 
-2.03085 -0.959021 0.75 
-2.02075 -0.953733 0.75 
-2.01062 -0.948507 0.75 
-1.99992 -0.943069 0.75 
-1.98865 -0.937425 0.75 
-1.97682 -0.931581 0.75 
-1.96758 -0.927079 0.75 
-1.95806 -0.922486 0.75 
-1.94811 -0.917741 0.75 
-1.93786 -0.912911 0.75 
-1.92746 -0.908063 0.75 
-1.91704 -0.903259 0.75 
-1.90701 -0.898688 0.75 
-1.89723 -0.894283 0.75 
-1.88757 -0.889983 0.75 
-1.87789 -0.885724 0.75 
-1.8686 -0.881689 0.75 
-1.85661 -0.876555 0.75 
-1.84513 -0.871728 0.75 
-1.83418 -0.867202 0.75 
-1.82375 -0.862968 0.75 
-1.81344 -0.858854 0.75 
-1.80269 -0.854637 0.75 
-1.79136 -0.850267 0.75 
-1.77943 -0.845751 0.75 
-1.76692 -0.841093 0.75 
-1.75713 -0.837506 0.75 
-1.74705 -0.833857 0.75 
-1.73666 -0.830151 0.75 
-1.72584 -0.82634 0.75 
-1.715 -0.822574 0.75 
-1.70414 -0.818856 0.75 
-1.69327 -0.815183 0.75 
-1.68281 -0.8117 0.75 
-1.67262 -0.808356 0.75 
-1.66256 -0.805102 0.75 
-1.65249 -0.801892 0.75 
-1.64241 -0.798696 0.75 
-1.63204 -0.79541 0.75 
-1.62139 -0.792033 0.75 
-1.61045 -0.788565 0.75 
-1.59908 -0.784961 0.75 
-1.58743 -0.781267 0.75 
-1.57549 -0.777482 0.75 
-1.56326 -0.773606 0.75 
-1.55061 -0.769595 0.75 
-1.53824 -0.765674 0.75 
-1.52616 -0.761843 0.75 
-1.51436 -0.758104 0.75 
-1.50299 -0.7545 0.75 
-1.49162 -0.750896 0.75 
-1.4804 -0.747338 0.75 
-1.46946 -0.74387 0.75 
-1.45895 -0.740539 0.75 
-1.44844 -0.737207 0.75 
-1.43808 -0.733921 0.75 
-1.428 -0.730725 0.75 
-1.41834 -0.727665 0.75 
-1.40869 -0.724605 0.75 
-1.39611 -0.720616 0.75 
-1.38409 -0.716823 0.75 
-1.37263 -0.713277 0.75 
-1.36172 -0.709977 0.75 
-1.35136 -0.706914 0.75 
-1.34127 -0.703998 0.75 
-1.33088 -0.70106 0.75 
-1.31989 -0.698024 0.75 
-1.30831 -0.694895 0.75 
-1.29613 -0.691679 0.75 
-1.28334 -0.688382 0.75 
-1.27338 -0.685864 0.75 
-1.26312 -0.683316 0.75 
-1.25241 -0.680705 0.75 
-1.24139 -0.67807 0.75 
-1.23008 -0.675412 0.75 
-1.21846 -0.672736 0.75 
-1.20726 -0.670208 0.75 
-1.19635 -0.667793 0.75 
-1.18558 -0.665456 0.75 
-1.17479 -0.663166 0.75 
-1.16444 -0.661018 0.75 
-1.15437 -0.658977 0.75 
-1.14142 -0.656427 0.75 
-1.12904 -0.654071 0.75 
-1.11724 -0.651901 0.75 
-1.10601 -0.649907 0.75 
-1.09478 -0.647983 0.75 
-1.08294 -0.646028 0.75 
-1.07049 -0.644048 0.75 
-1.05745 -0.64205 0.75 
-1.04728 -0.640546 0.75 
-1.03681 -0.639043 0.75 
-1.02589 -0.637524 0.75 
-1.01467 -0.636012 0.75 
-1.00329 -0.63453 0.75 
-0.991907 -0.633097 0.75 
-0.980962 -0.631768 0.75 
-0.970012 -0.630487 0.75 
-0.959205 -0.629271 0.75 
-0.948691 -0.628135 0.75 
-0.93862 -0.62709 0.75 
-0.928545 -0.626089 0.75 
-0.915403 -0.624852 0.75 
-0.902851 -0.623749 0.75 
-0.890891 -0.622774 0.75 
-0.879523 -0.621918 0.75 
-0.86845 -0.621152 0.75 
-0.857073 -0.620433 0.75 
-0.845092 -0.619748 0.75 
-0.832509 -0.619102 0.75 
-0.819323 -0.618501 0.75 
-0.809056 -0.618085 0.75 
-0.798488 -0.617703 0.75 
-0.787468 -0.617352 0.75 
-0.776148 -0.617039 0.75 
-0.764526 -0.616768 0.75 
-0.752603 -0.616541 0.75 
-0.74113 -0.616373 0.75 
-0.729955 -0.616258 0.75 
-0.71893 -0.616193 0.75 
-0.707905 -0.616175 0.75 
-0.697331 -0.61623 0.75 
-0.687056 -0.616362 0.75 
-0.67386 -0.616647 0.75 
-0.661266 -0.617042 0.75 
-0.649276 -0.617531 0.75 
-0.63789 -0.618097 0.75 
-0.627109 -0.618727 0.75 
-0.616931 -0.619406 0.75 
-0.60504 -0.620306 0.75 
-0.594055 -0.62124 0.75 
-0.582258 -0.622358 0.75 
-0.571666 -0.623466 0.75 
-0.561084 -0.624673 0.75 
-0.549322 -0.626114 0.75 
-0.538389 -0.627532 0.75 
-0.527171 -0.629083 0.75 
-0.51688 -0.630752 0.75 
-0.505828 -0.632851 0.75 
-0.494624 -0.635327 0.75 
-0.484157 -0.637986 0.75 
-0.474505 -0.640784 0.75 
-0.464881 -0.64392 0.75 
-0.455005 -0.64647 0.75 
-0.444093 -0.649206 0.75 
-0.434261 -0.651626 0.75 
-0.424494 -0.653992 0.75 
-0.413259 -0.656674 0.75 
-0.402965 -0.659096 0.75 
-0.391787 -0.661689 0.75 
-0.379576 -0.664475 0.75 
-0.369185 -0.666811 0.75 
-0.358202 -0.669244 0.75 
-0.346916 -0.671703 0.75 
-0.336204 -0.673972 0.75 
-0.326066 -0.676054 0.75 
-0.314221 -0.6784 0.75 
-0.302359 -0.680657 0.75 
-0.292179 -0.682524 0.75 
-0.281397 -0.684438 0.75 
-0.270014 -0.686392 0.75 
-0.258027 -0.68838 0.75 
-0.245438 -0.690398 0.75 
-0.232245 -0.692437 0.75 
-0.221935 -0.693981 0.75 
-0.211322 -0.695526 0.75 
-0.200405 -0.69707 0.75 
-0.189037 -0.69863 0.75 
-0.177662 -0.700144 0.75 
-0.166281 -0.70161 0.75 
-0.154894 -0.703029 0.75 
-0.143948 -0.704347 0.75 
-0.133295 -0.705584 0.75 
-0.122786 -0.70676 0.75 
-0.112271 -0.707892 0.75 
-0.101311 -0.70908 0.75 
-0.090055 -0.710336 0.75 
-0.078506 -0.711659 0.75 
-0.066662 -0.713048 0.75 
-0.054375 -0.714522 0.75 
-0.041794 -0.716061 0.75 
-0.028919 -0.717665 0.75 
-0.015749 -0.719332 0.75 
-0.003028 -0.720965 0.75 
0.009392 -0.722579 0.75 
0.021662 -0.724192 0.75 
0.03393 -0.725819 0.75 
0.045749 -0.727398 0.75 
0.057271 -0.728947 0.75 
0.068643 -0.730483 0.75 
0.080014 -0.732024 0.75 
0.090938 -0.733509 0.75 
0.101565 -0.734955 0.75 
0.112044 -0.73638 0.75 
0.122522 -0.737804 0.75 
0.132556 -0.739164 0.75 
0.145479 -0.740975 0.75 
0.157785 -0.742863 0.75 
0.169474 -0.74481 0.75 
0.180547 -0.746798 0.75 
0.191005 -0.74881 0.75 
0.20085 -0.75083 0.75 
0.212352 -0.753351 0.75 
0.222793 -0.7558 0.75 
0.234142 -0.758646 0.75 
0.244139 -0.761326 0.75 
0.254161 -0.764193 0.75 
0.264414 -0.767342 0.75 
0.274164 -0.770584 0.75 
0.284339 -0.774203 0.75 
0.293906 -0.77774 0.75 
0.304074 -0.781598 0.75 
0.314143 -0.785502 0.75 
0.325444 -0.789965 0.75 
0.335815 -0.794128 0.75 
0.346998 -0.798682 0.75 
0.356566 -0.802629 0.75 
0.366672 -0.806843 0.75 
0.377315 -0.811331 0.75 
0.388499 -0.816078 0.75 
0.400236 -0.821058 0.75 
0.412527 -0.82627 0.75 
0.422124 -0.83034 0.75 
0.431999 -0.834526 0.75 
0.442149 -0.838829 0.75 
0.452715 -0.843306 0.75 
0.463557 -0.8479 0.75 
0.474676 -0.85261 0.75 
0.486071 -0.857436 0.75 
0.497466 -0.862261 0.75 
0.508862 -0.867085 0.75 
0.52012 -0.871851 0.75 
0.531102 -0.876499 0.75 
0.54167 -0.88097 0.75 
0.552238 -0.885441 0.75 
0.562668 -0.889854 0.75 
0.572822 -0.894148 0.75 
0.582562 -0.898267 0.75 
0.592302 -0.902386 0.75 
0.602181 -0.906562 0.75 
0.612335 -0.910855 0.75 
0.622905 -0.915324 0.75 
0.63375 -0.919909 0.75 
0.644872 -0.924611 0.75 
0.65627 -0.92943 0.75 
0.668083 -0.934424 0.75 
0.680172 -0.939535 0.75 
0.692261 -0.944646 0.75 
0.704073 -0.94964 0.75 
0.715471 -0.954459 0.75 
0.726869 -0.959278 0.75 
0.738129 -0.964039 0.75 
0.749113 -0.968683 0.75 
0.759682 -0.973151 0.75 
0.770251 -0.97762 0.75 
0.780682 -0.98203 0.75 
0.790837 -0.986323 0.75 
0.800577 -0.990442 0.75 
0.810317 -0.99456 0.75 
0.819919 -0.998619 0.75 
0.829245 -1.00256 0.75 
0.841127 -1.00759 0.75 
0.850457 -1.01152 0.75 
0.860071 -1.01555 0.75 
0.869971 -1.01967 0.75 
0.880157 -1.02389 0.75 
0.890769 -1.02826 0.75 
0.90167 -1.03271 0.75 
0.912861 -1.03725 0.75 
0.924343 -1.04186 0.75 
0.936258 -1.0466 0.75 
0.948189 -1.05131 0.75 
0.959996 -1.05592 0.75 
0.971541 -1.06038 0.75 
0.982682 -1.06463 0.75 
0.993842 -1.06883 0.75 
1.00488 -1.07293 0.75 
1.01565 -1.07689 0.75 
1.02602 -1.08063 0.75 
1.03612 -1.08423 0.75 
1.04596 -1.08768 0.75 
1.05553 -1.09098 0.75 
1.06775 -1.09511 0.75 
1.07943 -1.09897 0.75 
1.09057 -1.10257 0.75 
1.10115 -1.10591 0.75 
1.11118 -1.10901 0.75 
1.12318 -1.11263 0.75 
1.13339 -1.11563 0.75 
1.1442 -1.11874 0.75 
1.15561 -1.12195 0.75 
1.16761 -1.12526 0.75 
1.18021 -1.12865 0.75 
1.19 -1.13124 0.75 
1.20024 -1.1339 0.75 
1.21078 -1.13658 0.75 
1.22162 -1.1393 0.75 
1.23276 -1.14204 0.75 
1.24435 -1.14485 0.75 
1.25566 -1.14753 0.75 
1.26684 -1.15013 0.75 
1.27802 -1.15269 0.75 
1.28878 -1.15509 0.75 
1.29926 -1.15739 0.75 
1.30974 -1.15964 0.75 
1.32053 -1.16194 0.75 
1.33176 -1.16431 0.75 
1.34328 -1.16672 0.75 
1.35511 -1.16917 0.75 
1.36723 -1.17165 0.75 
1.3798 -1.17419 0.75 
1.39267 -1.17675 0.75 
1.4057 -1.1793 0.75 
1.41874 -1.18181 0.75 
1.43134 -1.18419 0.75 
1.44365 -1.18648 0.75 
1.45568 -1.18866 0.75 
1.46742 -1.19074 0.75 
1.47917 -1.19276 0.75 
1.49064 -1.19469 0.75 
1.50181 -1.19652 0.75 
1.5127 -1.19825 0.75 
1.52316 -1.19985 0.75 
1.53332 -1.20136 0.75 
1.54639 -1.20322 0.75 
1.55888 -1.20491 0.75 
1.57078 -1.20643 0.75 
1.5821 -1.2078 0.75 
1.59283 -1.20903 0.75 
1.60297 -1.21012 0.75 
1.61483 -1.21132 0.75 
1.62641 -1.2124 0.75 
1.63889 -1.21347 0.75 
1.6495 -1.21431 0.75 
1.66072 -1.21513 0.75 
1.67254 -1.21594 0.75 
1.68497 -1.21671 0.75 
1.698 -1.21745 0.75 
1.70811 -1.21798 0.75 
1.71867 -1.21849 0.75 
1.72954 -1.21896 0.75 
1.7407 -1.21941 0.75 
1.75217 -1.21982 0.75 
1.76409 -1.2202 0.75 
1.77571 -1.22052 0.75 
1.78703 -1.22078 0.75 
1.79806 -1.221 0.75 
1.80908 -1.22116 0.75 
1.8198 -1.22128 0.75 
1.83038 -1.22136 0.75 
1.84095 -1.22143 0.75 
1.85198 -1.2215 0.75 
1.8633 -1.22158 0.75 
1.87493 -1.22166 0.75 
1.88685 -1.22174 0.75 
1.89923 -1.22182 0.75 
1.9119 -1.2219 0.75 
1.92488 -1.22199 0.75 
1.93815 -1.22208 0.75 
1.95098 -1.22217 0.75 
1.9635 -1.22225 0.75 
1.97573 -1.22234 0.75 
1.98765 -1.22242 0.75 
1.99958 -1.2225 0.75 
2.0112 -1.22257 0.75 
2.02252 -1.22265 0.75 
2.03355 -1.22273 0.75 
2.04457 -1.2228 0.75 
2.0553 -1.22287 0.75 
2.06572 -1.22294 0.75 
2.07585 -1.22301 0.75 
2.08597 -1.22308 0.75 
2.0961 -1.22315 0.75 
2.1093 -1.22324 0.75 
2.1222 -1.22332 0.75 
2.1348 -1.22341 0.75 
2.14709 -1.22349 0.75 
2.1591 -1.22357 0.75 
2.17079 -1.22365 0.75 
2.18219 -1.22373 0.75 
2.19299 -1.2238 0.75 
2.20349 -1.22387 0.75 
2.21399 -1.22394 0.75 
2.22419 -1.22401 0.75 
2.23657 -1.22409 0.75 
2.24834 -1.22417 0.75 
2.25982 -1.22425 0.75 
2.27069 -1.22432 0.75 
2.28112 -1.22439 0.75 
2.29124 -1.22446 0.75 
2.30249 -1.22454 0.75 
2.31374 -1.22461 0.75 
2.32409 -1.22468 0.75 
2.33444 -1.22475 0.75 
2.34449 -1.22482 0.75 
2.35552 -1.2249 0.75 
2.36594 -1.22497 0.75 
2.37734 -1.22504 0.75 
2.38814 -1.22512 0.75 
2.39894 -1.22519 0.75 
2.40914 -1.22526 0.75 
2.41987 -1.22533 0.75 
2.42999 -1.2254 0.75 
2.44064 -1.22547 0.75 
2.45136 -1.22554 0.75 
2.46201 -1.22562 0.75 
2.47274 -1.22569 0.75 
2.48279 -1.22576 0.75 
