ply
format ascii 1.0
element vertex 829
property float x
property float y
property float z
end_header
-0.010495 0.000302 0.75 
-0.021435 0.000778 0.75 
-0.032819 0.001375 0.75 
-0.042852 0.001965 0.75 
-0.054378 0.002706 0.75 
-0.064778 0.003425 0.75 
-0.075623 0.004236 0.75 
-0.087432 0.005221 0.75 
-0.099231 0.006314 0.75 
-0.110201 0.007418 0.75 
-0.122058 0.008693 0.75 
-0.132192 0.009846 0.75 
-0.142916 0.011123 0.75 
-0.154229 0.01253 0.75 
-0.16613 0.014073 0.75 
-0.178617 0.015757 0.75 
-0.191689 0.017588 0.75 
-0.201858 0.019059 0.75 
-0.212318 0.020612 0.75 
-0.223217 0.022274 0.75 
-0.234406 0.024024 0.75 
-0.245737 0.025841 0.75 
-0.25706 0.027702 0.75 
-0.267932 0.029533 0.75 
-0.2785 0.031359 0.75 
-0.288764 0.033182 0.75 
-0.298725 0.035001 0.75 
-0.311402 0.037388 0.75 
-0.323475 0.039739 0.75 
-0.334945 0.042046 0.75 
-0.345814 0.044302 0.75 
-0.356668 0.046622 0.75 
-0.368095 0.049136 0.75 
-0.380092 0.051849 0.75 
-0.392658 0.054766 0.75 
-0.402509 0.057105 0.75 
-0.412641 0.059557 0.75 
-0.423055 0.062125 0.75 
-0.433748 0.064809 0.75 
-0.444865 0.067651 0.75 
-0.45597 0.070541 0.75 
-0.466918 0.07344 0.75 
-0.477563 0.076309 0.75 
-0.487762 0.079105 0.75 
-0.497948 0.081946 0.75 
-0.507976 0.084795 0.75 
-0.517702 0.087609 0.75 
-0.530074 0.091261 0.75 
-0.541849 0.094817 0.75 
-0.553029 0.098268 0.75 
-0.563615 0.101607 0.75 
-0.57418 0.105009 0.75 
-0.585296 0.108661 0.75 
-0.596959 0.112569 0.75 
-0.609167 0.116737 0.75 
-0.618732 0.120056 0.75 
-0.628566 0.123516 0.75 
-0.638668 0.127119 0.75 
-0.649036 0.130867 0.75 
-0.659811 0.134814 0.75 
-0.670568 0.138808 0.75 
-0.681168 0.142795 0.75 
-0.691471 0.14672 0.75 
-0.701336 0.150529 0.75 
-0.711185 0.15438 0.75 
-0.720878 0.158218 0.75 
-0.730274 0.16199 0.75 
-0.742218 0.166862 0.75 
-0.753578 0.171578 0.75 
-0.764356 0.176131 0.75 
-0.774554 0.180513 0.75 
-0.784176 0.184717 0.75 
-0.794321 0.18922 0.75 
-0.804987 0.19403 0.75 
-0.81617 0.199151 0.75 
-0.827868 0.204588 0.75 
-0.837029 0.208901 0.75 
-0.846442 0.213382 0.75 
-0.856106 0.218032 0.75 
-0.866021 0.222854 0.75 
-0.876319 0.227916 0.75 
-0.886596 0.233021 0.75 
-0.896851 0.23817 0.75 
-0.906682 0.24316 0.75 
-0.916092 0.247986 0.75 
-0.925213 0.252715 0.75 
-0.936898 0.258856 0.75 
-0.948015 0.264787 0.75 
-0.958567 0.270501 0.75 
-0.968558 0.275991 0.75 
-0.977991 0.281249 0.75 
-0.987393 0.286565 0.75 
-0.997283 0.292234 0.75 
-1.00766 0.298261 0.75 
-1.01852 0.304652 0.75 
-1.02986 0.311412 0.75 
-1.03866 0.316718 0.75 
-1.04769 0.322216 0.75 
-1.05708 0.327988 0.75 
-1.0667 0.333958 0.75 
-1.07643 0.340048 0.75 
-1.08613 0.346178 0.75 
-1.09555 0.352189 0.75 
-1.10482 0.358158 0.75 
-1.11419 0.364244 0.75 
-1.12382 0.370496 0.75 
-1.13382 0.376991 0.75 
-1.14407 0.383648 0.75 
-1.15458 0.390467 0.75 
-1.16534 0.397446 0.75 
-1.17647 0.404669 0.75 
-1.18761 0.41189 0.75 
-1.19863 0.419027 0.75 
-1.20939 0.426 0.75 
-1.21978 0.432726 0.75 
-1.22992 0.439288 0.75 
-1.23993 0.445766 0.75 
-1.24994 0.452244 0.75 
-1.25958 0.458475 0.75 
-1.26896 0.464542 0.75 
-1.27822 0.470527 0.75 
-1.28748 0.47651 0.75 
-1.29636 0.482248 0.75 
-1.30499 0.487822 0.75 
-1.3135 0.493314 0.75 
-1.32201 0.498805 0.75 
-1.33285 0.5058 0.75 
-1.34135 0.511289 0.75 
-1.35011 0.516941 0.75 
-1.35913 0.522756 0.75 
-1.36839 0.528734 0.75 
-1.37803 0.534955 0.75 
-1.38793 0.541339 0.75 
-1.39807 0.547886 0.75 
-1.40847 0.554596 0.75 
-1.41925 0.56155 0.75 
-1.43002 0.568503 0.75 
-1.44067 0.575376 0.75 
-1.45107 0.582086 0.75 
-1.46109 0.588552 0.75 
-1.47086 0.594855 0.75 
-1.4805 0.601077 0.75 
-1.49014 0.607299 0.75 
-1.4994 0.613277 0.75 
-1.50842 0.619092 0.75 
-1.5173 0.624826 0.75 
-1.52619 0.63056 0.75 
-1.53469 0.63605 0.75 
-1.54345 0.641703 0.75 
-1.55246 0.647518 0.75 
-1.56173 0.653496 0.75 
-1.57137 0.659719 0.75 
-1.58126 0.666103 0.75 
-1.59141 0.672651 0.75 
-1.60181 0.679361 0.75 
-1.61258 0.686315 0.75 
-1.62336 0.693269 0.75 
-1.63401 0.700142 0.75 
-1.64441 0.706852 0.75 
-1.6548 0.713562 0.75 
-1.66495 0.72011 0.75 
-1.67484 0.726494 0.75 
-1.68448 0.732716 0.75 
-1.69413 0.738938 0.75 
-1.70352 0.744998 0.75 
-1.71265 0.750895 0.75 
-1.72154 0.756629 0.75 
-1.73042 0.762363 0.75 
-1.73906 0.767934 0.75 
-1.75015 0.775092 0.75 
-1.76073 0.781936 0.75 
-1.77076 0.788516 0.75 
-1.78025 0.794829 0.75 
-1.78921 0.800867 0.75 
-1.79763 0.806623 0.75 
-1.80743 0.813419 0.75 
-1.81742 0.820462 0.75 
-1.82596 0.826568 0.75 
-1.83496 0.833074 0.75 
-1.8444 0.839985 0.75 
-1.85428 0.847305 0.75 
-1.86461 0.85504 0.75 
-1.87268 0.86115 0.75 
-1.88097 0.867475 0.75 
-1.88946 0.874017 0.75 
-1.89817 0.880778 0.75 
-1.90721 0.887852 0.75 
-1.91646 0.895136 0.75 
-1.92595 0.902604 0.75 
-1.93568 0.910256 0.75 
-1.94576 0.918184 0.75 
-1.95607 0.926296 0.75 
-1.96651 0.934498 0.75 
-1.97695 0.942699 0.75 
-1.98739 0.950898 0.75 
-1.9976 0.958911 0.75 
-2.00757 0.966736 0.75 
-2.0173 0.974375 0.75 
-2.02669 0.981735 0.75 
-2.03607 0.989093 0.75 
-2.04534 0.996357 0.75 
-2.05437 1.00344 0.75 
-2.06305 1.01023 0.75 
-2.07173 1.01703 0.75 
-2.08029 1.02374 0.75 
-2.08862 1.03026 0.75 
-2.09659 1.0365 0.75 
-2.10699 1.04463 0.75 
-2.11715 1.05258 0.75 
-2.12693 1.06027 0.75 
-2.1362 1.06765 0.75 
-2.14496 1.07472 0.75 
-2.15321 1.08146 0.75 
-2.16095 1.08786 0.75 
-2.16888 1.09451 0.75 
-2.17724 1.10159 0.75 
-2.18601 1.10911 0.75 
-2.19518 1.11707 0.75 
-2.20477 1.12548 0.75 
-2.21476 1.13434 0.75 
-2.22252 1.14129 0.75 
-2.23048 1.14848 0.75 
-2.23863 1.15591 0.75 
-2.24708 1.16367 0.75 
-2.2555 1.17147 0.75 
-2.26388 1.1793 0.75 
-2.27227 1.18713 0.75 
-2.28098 1.19527 0.75 
-2.28992 1.20362 0.75 
-2.29907 1.21217 0.75 
-2.30845 1.22092 0.75 
-2.31815 1.22998 0.75 
-2.32785 1.23904 0.75 
-2.33745 1.24799 0.75 
-2.34682 1.25674 0.75 
-2.35587 1.26519 0.75 
-2.36492 1.27363 0.75 
-2.37386 1.28197 0.75 
-2.38258 1.2901 0.75 
-2.39097 1.29793 0.75 
-2.39936 1.30576 0.75 
-2.40764 1.31348 0.75 
-2.4157 1.321 0.75 
-2.42344 1.32821 0.75 
-2.43117 1.33543 0.75 
-2.4388 1.34253 0.75 
-2.4462 1.34944 0.75 
-2.45564 1.35824 0.75 
-2.46305 1.36514 0.75 
-2.47067 1.37225 0.75 
-2.47852 1.37956 0.75 
-2.48658 1.38708 0.75 
-2.49498 1.3949 0.75 
-2.50359 1.40293 0.75 
-2.51242 1.41116 0.75 
-2.52147 1.4196 0.75 
-2.53085 1.42835 0.75 
-2.54024 1.43709 0.75 
-2.54951 1.44574 0.75 
-2.55856 1.45417 0.75 
-2.56728 1.46231 0.75 
-2.57578 1.47023 0.75 
-2.58418 1.47806 0.75 
-2.59257 1.48588 0.75 
-2.60064 1.4934 0.75 
-2.60848 1.50071 0.75 
-2.61621 1.50792 0.75 
-2.62395 1.51513 0.75 
-2.63136 1.52204 0.75 
-2.63898 1.52915 0.75 
-2.64671 1.53636 0.75 
-2.65445 1.54357 0.75 
-2.66186 1.55047 0.75 
-2.66926 1.55738 0.75 
-2.67892 1.56638 0.75 
-2.68835 1.57517 0.75 
-2.69757 1.58377 0.75 
-2.70656 1.59215 0.75 
-2.71534 1.60034 0.75 
-2.7239 1.60831 0.75 
-2.73224 1.61609 0.75 
-2.74014 1.62345 0.75 
-2.74782 1.63061 0.75 
-2.7555 1.63777 0.75 
-2.76296 1.64472 0.75 
-2.77201 1.65316 0.75 
-2.78063 1.66119 0.75 
-2.78902 1.66902 0.75 
-2.79697 1.67643 0.75 
-2.8046 1.68354 0.75 
-2.81201 1.69044 0.75 
-2.82067 1.69852 0.75 
-2.8289 1.7062 0.75 
-2.83691 1.71366 0.75 
-2.84448 1.72072 0.75 
-2.85183 1.72757 0.75 
-2.8599 1.73509 0.75 
-2.86796 1.74261 0.75 
-2.87627 1.75041 0.75 
-2.88455 1.75825 0.75 
-2.89191 1.76531 0.75 
-2.89924 1.7724 0.75 
-2.90692 1.77989 0.75 
-2.91413 1.787 0.75 
-2.92126 1.79408 0.75 
-2.92884 1.80167 0.75 
-2.93635 1.80922 0.75 
-2.94392 1.81682 0.75 
-2.95101 1.82394 0.75 
-2.94371 1.81661 0.75 
-2.93598 1.80885 0.75 
-2.92796 1.80075 0.75 
-2.92093 1.79356 0.75 
-2.9129 1.78526 0.75 
-2.90558 1.77763 0.75 
-2.89766 1.76933 0.75 
-2.88905 1.76023 0.75 
-2.88174 1.75248 0.75 
-2.87404 1.74428 0.75 
-2.86594 1.73563 0.75 
-2.85745 1.72653 0.75 
-2.84856 1.71698 0.75 
-2.84166 1.70957 0.75 
-2.83446 1.70182 0.75 
-2.82726 1.69408 0.75 
-2.82011 1.68648 0.75 
-2.81314 1.67914 0.75 
-2.80421 1.66984 0.75 
-2.79563 1.66102 0.75 
-2.78742 1.65268 0.75 
-2.77959 1.64482 0.75 
-2.77213 1.63743 0.75 
-2.7642 1.62967 0.75 
-2.75579 1.62153 0.75 
-2.7469 1.61303 0.75 
-2.73753 1.60416 0.75 
-2.73014 1.59724 0.75 
-2.7225 1.59015 0.75 
-2.71461 1.58289 0.75 
-2.70646 1.57546 0.75 
-2.69795 1.56776 0.75 
-2.68964 1.56029 0.75 
-2.68151 1.55307 0.75 
-2.67357 1.54608 0.75 
-2.66595 1.53942 0.75 
-2.65607 1.53089 0.75 
-2.64659 1.52282 0.75 
-2.63752 1.51519 0.75 
-2.62887 1.508 0.75 
-2.62029 1.50095 0.75 
-2.61132 1.49368 0.75 
-2.60184 1.48608 0.75 
-2.59185 1.47817 0.75 
-2.58133 1.46994 0.75 
-2.57309 1.46355 0.75 
-2.56458 1.45702 0.75 
-2.55581 1.45035 0.75 
-2.54665 1.44343 0.75 
-2.53746 1.43656 0.75 
-2.52836 1.42982 0.75 
-2.51947 1.4233 0.75 
-2.51092 1.41708 0.75 
-2.50234 1.41089 0.75 
-2.49386 1.40483 0.75 
-2.4856 1.39898 0.75 
-2.47509 1.39149 0.75 
-2.46512 1.38429 0.75 
-2.45569 1.37737 0.75 
-2.44678 1.37075 0.75 
-2.43839 1.36443 0.75 
-2.42868 1.35701 0.75 
-2.41974 1.35006 0.75 
-2.41085 1.34304 0.75 
-2.40131 1.3354 0.75 
-2.39316 1.32878 0.75 
-2.38458 1.32174 0.75 
-2.37558 1.31426 0.75 
-2.36615 1.30635 0.75 
-2.35632 1.29801 0.75 
-2.34863 1.29142 0.75 
-2.34073 1.28461 0.75 
-2.33261 1.27761 0.75 
-2.32425 1.27042 0.75 
-2.31556 1.26294 0.75 
-2.30663 1.25526 0.75 
-2.29748 1.24738 0.75 
-2.28809 1.23932 0.75 
-2.27836 1.23096 0.75 
-2.26864 1.2226 0.75 
-2.25902 1.21434 0.75 
-2.24963 1.20628 0.75 
-2.24025 1.19822 0.75 
-2.23108 1.19035 0.75 
-2.22215 1.18268 0.75 
-2.21343 1.17521 0.75 
-2.20473 1.16774 0.75 
-2.19624 1.16047 0.75 
-2.18798 1.15339 0.75 
-2.17995 1.14651 0.75 
-2.17192 1.13963 0.75 
-2.16367 1.13255 0.75 
-2.15518 1.12528 0.75 
-2.14646 1.11782 0.75 
-2.13741 1.11006 0.75 
-2.12812 1.10211 0.75 
-2.11861 1.09396 0.75 
-2.10887 1.08562 0.75 
-2.09879 1.07698 0.75 
-2.08894 1.06854 0.75 
-2.07931 1.06029 0.75 
-2.06991 1.05224 0.75 
-2.06051 1.04419 0.75 
-2.05135 1.03633 0.75 
-2.0424 1.02867 0.75 
-2.03369 1.0212 0.75 
-2.02532 1.01403 0.75 
-2.01694 1.00686 0.75 
-2.00869 0.999783 0.75 
-2.00066 0.992903 0.75 
-1.99297 0.986315 0.75 
-1.98528 0.979727 0.75 
-1.97525 0.971139 0.75 
-1.96545 0.962757 0.75 
-1.95582 0.954628 0.75 
-1.9466 0.946945 0.75 
-1.9378 0.9397 0.75 
-1.92942 0.932888 0.75 
-1.92123 0.926315 0.75 
-1.91277 0.919605 0.75 
-1.9038 0.912575 0.75 
-1.89431 0.905229 0.75 
-1.8843 0.897573 0.75 
-1.87377 0.889612 0.75 
-1.86554 0.883456 0.75 
-1.85705 0.877155 0.75 
-1.84817 0.870623 0.75 
-1.83902 0.863953 0.75 
-1.82972 0.857234 0.75 
-1.82038 0.850555 0.75 
-1.81139 0.844175 0.75 
-1.80237 0.837835 0.75 
-1.79345 0.831619 0.75 
-1.78474 0.825616 0.75 
-1.77638 0.819908 0.75 
-1.76556 0.812609 0.75 
-1.7552 0.805711 0.75 
-1.74529 0.799207 0.75 
-1.73585 0.793089 0.75 
-1.72688 0.787353 0.75 
-1.71762 0.78151 0.75 
-1.70781 0.775404 0.75 
-1.69746 0.76904 0.75 
-1.68657 0.762425 0.75 
-1.67511 0.755562 0.75 
-1.66614 0.750247 0.75 
-1.6569 0.744818 0.75 
-1.64736 0.739277 0.75 
-1.63742 0.733552 0.75 
-1.62771 0.728016 0.75 
-1.61824 0.72267 0.75 
-1.60901 0.71751 0.75 
-1.60015 0.712611 0.75 
-1.5887 0.706359 0.75 
-1.57773 0.700463 0.75 
-1.56726 0.694916 0.75 
-1.55728 0.689711 0.75 
-1.54781 0.684841 0.75 
-1.53805 0.679892 0.75 
-1.52771 0.674732 0.75 
-1.51681 0.669367 0.75 
-1.50534 0.663802 0.75 
-1.4933 0.658044 0.75 
-1.48387 0.653595 0.75 
-1.47415 0.649057 0.75 
-1.46414 0.644435 0.75 
-1.4537 0.639668 0.75 
-1.44325 0.634945 0.75 
-1.4329 0.630328 0.75 
-1.42282 0.625875 0.75 
-1.41271 0.621466 0.75 
-1.40286 0.61722 0.75 
-1.39327 0.613139 0.75 
-1.38394 0.609219 0.75 
-1.37201 0.604291 0.75 
-1.36062 0.599663 0.75 
-1.34975 0.595328 0.75 
-1.33942 0.591278 0.75 
-1.32906 0.58729 0.75 
-1.31811 0.583151 0.75 
-1.30658 0.578867 0.75 
-1.29447 0.574443 0.75 
-1.28494 0.571019 0.75 
-1.27511 0.567536 0.75 
-1.26499 0.563995 0.75 
-1.25457 0.5604 0.75 
-1.2437 0.556705 0.75 
-1.23282 0.553056 0.75 
-1.22207 0.549502 0.75 
-1.21159 0.546087 0.75 
-1.2011 0.542687 0.75 
-1.19033 0.539193 0.75 
-1.17927 0.535606 0.75 
-1.16793 0.531926 0.75 
-1.15616 0.528106 0.75 
-1.1441 0.524194 0.75 
-1.13176 0.520187 0.75 
-1.11913 0.516088 0.75 
-1.10694 0.512126 0.75 
-1.09474 0.508165 0.75 
-1.08268 0.504248 0.75 
-1.07091 0.500424 0.75 
-1.05957 0.496739 0.75 
-1.04852 0.493145 0.75 
-1.0376 0.489598 0.75 
-1.02669 0.48605 0.75 
-1.01621 0.48264 0.75 
-1.00601 0.479323 0.75 
-0.995951 0.476052 0.75 
-0.985894 0.472781 0.75 
-0.975838 0.469509 0.75 
-0.965497 0.466145 0.75 
-0.95487 0.462688 0.75 
-0.943958 0.459138 0.75 
-0.932618 0.455448 0.75 
-0.920992 0.451666 0.75 
-0.909082 0.447792 0.75 
-0.896886 0.443824 0.75 
-0.884262 0.439717 0.75 
-0.871924 0.435703 0.75 
-0.859871 0.431782 0.75 
-0.848103 0.427954 0.75 
-0.836763 0.424265 0.75 
-0.825423 0.420576 0.75 
-0.814225 0.416933 0.75 
-0.803313 0.413383 0.75 
-0.792829 0.409972 0.75 
-0.78263 0.406654 0.75 
-0.772574 0.403383 0.75 
-0.762517 0.400111 0.75 
-0.752889 0.396979 0.75 
-0.743261 0.393847 0.75 
-0.730708 0.389764 0.75 
-0.718722 0.38588 0.75 
-0.707284 0.38225 0.75 
-0.696397 0.37887 0.75 
-0.686063 0.375732 0.75 
-0.676285 0.372828 0.75 
-0.666489 0.369985 0.75 
-0.6561 0.367035 0.75 
-0.645115 0.363985 0.75 
-0.633535 0.36084 0.75 
-0.621357 0.357607 0.75 
-0.60858 0.354291 0.75 
-0.598622 0.351759 0.75 
-0.588363 0.349195 0.75 
-0.577656 0.346566 0.75 
-0.566646 0.343912 0.75 
-0.55548 0.341269 0.75 
-0.544302 0.338673 0.75 
-0.533407 0.33619 0.75 
-0.522647 0.333785 0.75 
-0.512026 0.331448 0.75 
-0.501707 0.329135 0.75 
-0.491838 0.326872 0.75 
-0.479135 0.323883 0.75 
-0.467034 0.320955 0.75 
-0.455535 0.318095 0.75 
-0.444635 0.315312 0.75 
-0.434332 0.312613 0.75 
-0.424191 0.309891 0.75 
-0.413633 0.306989 0.75 
-0.402514 0.303863 0.75 
-0.390837 0.300507 0.75 
-0.378603 0.296916 0.75 
-0.365815 0.293084 0.75 
-0.355843 0.290042 0.75 
-0.345742 0.286913 0.75 
-0.335224 0.283607 0.75 
-0.324721 0.280257 0.75 
-0.313941 0.276785 0.75 
-0.302875 0.273223 0.75 
-0.291524 0.269569 0.75 
-0.279744 0.265778 0.75 
-0.267678 0.261895 0.75 
-0.255326 0.257922 0.75 
-0.242689 0.253857 0.75 
-0.230051 0.249793 0.75 
-0.217699 0.245822 0.75 
-0.205632 0.241943 0.75 
-0.193851 0.238156 0.75 
-0.182069 0.23437 0.75 
-0.170573 0.230677 0.75 
-0.159362 0.227075 0.75 
-0.148437 0.223566 0.75 
-0.137512 0.220057 0.75 
-0.126872 0.216641 0.75 
-0.116517 0.213317 0.75 
-0.106448 0.210084 0.75 
-0.096379 0.206853 0.75 
-0.086596 0.203713 0.75 
-0.074027 0.19968 0.75 
-0.061458 0.195647 0.75 
-0.051674 0.192508 0.75 
-0.041605 0.189278 0.75 
-0.031107 0.185909 0.75 
-0.020323 0.18245 0.75 
-0.009254 0.178898 0.75 
0.002101 0.175255 0.75 
0.013884 0.171475 0.75 
0.025953 0.167602 0.75 
0.038165 0.163684 0.75 
0.050377 0.159766 0.75 
0.06216 0.155986 0.75 
0.073658 0.152297 0.75 
0.085013 0.148654 0.75 
0.096368 0.145011 0.75 
0.107294 0.141505 0.75 
0.117935 0.138091 0.75 
0.128433 0.134723 0.75 
0.138931 0.131355 0.75 
0.149 0.128124 0.75 
0.158784 0.124985 0.75 
0.168568 0.121846 0.75 
0.178637 0.118615 0.75 
0.189135 0.115247 0.75 
0.199918 0.111787 0.75 
0.210988 0.108236 0.75 
0.222343 0.104592 0.75 
0.234126 0.100812 0.75 
0.246195 0.09694 0.75 
0.25855 0.092976 0.75 
0.27119 0.08892 0.75 
0.283402 0.085002 0.75 
0.295328 0.081176 0.75 
0.306969 0.077441 0.75 
0.318323 0.073798 0.75 
0.329678 0.070154 0.75 
0.340747 0.066603 0.75 
0.351531 0.063143 0.75 
0.362029 0.059775 0.75 
0.372098 0.056544 0.75 
0.382168 0.053314 0.75 
0.392094 0.050129 0.75 
0.401735 0.047035 0.75 
0.411376 0.043942 0.75 
0.423802 0.039955 0.75 
0.436511 0.035868 0.75 
0.446431 0.032663 0.75 
0.456634 0.029358 0.75 
0.467121 0.025957 0.75 
0.478036 0.022416 0.75 
0.489238 0.018786 0.75 
0.500727 0.015071 0.75 
0.512506 0.011277 0.75 
0.524719 0.007361 0.75 
0.536938 0.003467 0.75 
0.549024 -0.000352 0.75 
0.560834 -0.00405 0.75 
0.572225 -0.007578 0.75 
0.583628 -0.011068 0.75 
0.5949 -0.014473 0.75 
0.605898 -0.017746 0.75 
0.616479 -0.020845 0.75 
0.626785 -0.023811 0.75 
0.636818 -0.026645 0.75 
0.646576 -0.029345 0.75 
0.659031 -0.032705 0.75 
0.670931 -0.035817 0.75 
0.682272 -0.038691 0.75 
0.69306 -0.041303 0.75 
0.703296 -0.043644 0.75 
0.71525 -0.046205 0.75 
0.726358 -0.048411 0.75 
0.736611 -0.050291 0.75 
0.747707 -0.052147 0.75 
0.759056 -0.05384 0.75 
0.769767 -0.055227 0.75 
0.779758 -0.056309 0.75 
0.789853 -0.05701 0.75 
0.800048 -0.056707 0.75 
0.811289 -0.056261 0.75 
0.821406 -0.055859 0.75 
0.831449 -0.05546 0.75 
0.84299 -0.055002 0.75 
0.853556 -0.054584 0.75 
0.865022 -0.054131 0.75 
0.877538 -0.053636 0.75 
0.888179 -0.053217 0.75 
0.899421 -0.052774 0.75 
0.911261 -0.052308 0.75 
0.923702 -0.051819 0.75 
0.936742 -0.051306 0.75 
0.946859 -0.050909 0.75 
0.957426 -0.050494 0.75 
0.968292 -0.050068 0.75 
0.979459 -0.04963 0.75 
0.990925 -0.049181 0.75 
1.00284 -0.048714 0.75 
1.01506 -0.048236 0.75 
1.02757 -0.047745 0.75 
1.04039 -0.047243 0.75 
1.05365 -0.046724 0.75 
1.06692 -0.046204 0.75 
1.08018 -0.045684 0.75 
1.09345 -0.045165 0.75 
1.10626 -0.044662 0.75 
1.11878 -0.044172 0.75 
1.13099 -0.043693 0.75 
1.14291 -0.043227 0.75 
1.15482 -0.04276 0.75 
1.16644 -0.042304 0.75 
1.17776 -0.041861 0.75 
1.18877 -0.041429 0.75 
1.19979 -0.040998 0.75 
1.21051 -0.040578 0.75 
1.22107 -0.040164 0.75 
1.23119 -0.039767 0.75 
1.24131 -0.039371 0.75 
1.25142 -0.03898 0.75 
1.26169 -0.038602 0.75 
1.27226 -0.038233 0.75 
1.28328 -0.03787 0.75 
1.2946 -0.037521 0.75 
1.30622 -0.037191 0.75 
1.31814 -0.036883 0.75 
1.33051 -0.036597 0.75 
1.34318 -0.036341 0.75 
1.35601 -0.036124 0.75 
1.36883 -0.035951 0.75 
1.38121 -0.035828 0.75 
1.39328 -0.035754 0.75 
1.40521 -0.035728 0.75 
1.41713 -0.035751 0.75 
1.42861 -0.035823 0.75 
1.43978 -0.035942 0.75 
1.45065 -0.036108 0.75 
1.46123 -0.036321 0.75 
1.47135 -0.036574 0.75 
1.48439 -0.036976 0.75 
1.49683 -0.037447 0.75 
1.50867 -0.037979 0.75 
1.52081 -0.038575 0.75 
1.53354 -0.039196 0.75 
1.54688 -0.039843 0.75 
1.55729 -0.040345 0.75 
1.568 -0.040859 0.75 
1.57901 -0.041386 0.75 
1.59048 -0.041932 0.75 
1.60224 -0.04249 0.75 
1.6143 -0.04306 0.75 
1.62666 -0.043642 0.75 
1.63902 -0.044221 0.75 
1.65138 -0.044799 0.75 
1.66359 -0.045367 0.75 
1.67551 -0.04592 0.75 
1.68697 -0.04645 0.75 
1.69813 -0.046964 0.75 
1.70915 -0.04747 0.75 
1.72016 -0.047974 0.75 
1.73072 -0.048456 0.75 
1.74129 -0.048937 0.75 
1.7517 -0.04941 0.75 
1.76182 -0.049867 0.75 
1.77471 -0.050398 0.75 
1.787 -0.050826 0.75 
1.79869 -0.05116 0.75 
1.81099 -0.051439 0.75 
1.82329 -0.051647 0.75 
1.83559 -0.051787 0.75 
1.84729 -0.051857 0.75 
1.85899 -0.051866 0.75 
1.87009 -0.05182 0.75 
1.88119 -0.05172 0.75 
1.89169 -0.051576 0.75 
1.90218 -0.051384 0.75 
1.91456 -0.051098 0.75 
1.92663 -0.050756 0.75 
1.93825 -0.050368 0.75 
1.94926 -0.049947 0.75 
1.96013 -0.049483 0.75 
1.97069 -0.049022 0.75 
1.98081 -0.04858 0.75 
1.99092 -0.04814 0.75 
2.00216 -0.047651 0.75 
2.0134 -0.047163 0.75 
2.02374 -0.046714 0.75 
2.03408 -0.046266 0.75 
2.0451 -0.04579 0.75 
2.05611 -0.045315 0.75 
2.06638 -0.044872 0.75 
2.07762 -0.044388 0.75 
2.08781 -0.04395 0.75 
2.09785 -0.043518 0.75 
2.10796 -0.043083 0.75 
2.11808 -0.042648 0.75 
2.12894 -0.042181 0.75 
2.13966 -0.04172 0.75 
2.14985 -0.041282 0.75 
2.16034 -0.040831 0.75 
2.17158 -0.040347 0.75 
2.18432 -0.0398 0.75 
2.2008 -0.039091 0.75 
2.21249 -0.038588 0.75 
2.22321 -0.038127 0.75 
2.23497 -0.037621 0.75 
2.24501 -0.037189 0.75 
2.2555 -0.036738 0.75 
2.27079 -0.036081 0.75 
2.28315 -0.035549 0.75 
2.29477 -0.03505 0.75 
2.30638 -0.03455 0.75 
2.31754 -0.03407 0.75 
2.32841 -0.033603 0.75 
2.33853 -0.033168 0.75 
2.34864 -0.032733 0.75 
2.36206 -0.032156 0.75 
2.37974 -0.031395 0.75 
2.38993 -0.030957 0.75 
2.40094 -0.030483 0.75 
2.41436 -0.029906 0.75 
2.42859 -0.029294 0.75 
2.44463 -0.028605 0.75 
2.45602 -0.028115 0.75 
2.46725 -0.027631 0.75 
2.47909 -0.027122 0.75 
2.48981 -0.026661 0.75 
2.50038 -0.026207 0.75 
2.51109 -0.025746 0.75 
2.52196 -0.025279 0.75 
