ply
format ascii 1.0
element vertex 521
property float x
property float y
property float z
end_header
-0.010495 -0.000302 0.75 
-0.021435 -0.000778 0.75 
-0.032819 -0.001375 0.75 
-0.042852 -0.001965 0.75 
-0.054378 -0.002706 0.75 
-0.064928 -0.003435 0.75 
-0.076372 -0.004275 0.75 
-0.08886 -0.005244 0.75 
-0.099475 -0.006107 0.75 
-0.110687 -0.007024 0.75 
-0.122498 -0.007989 0.75 
-0.134907 -0.009001 0.75 
-0.147913 -0.010062 0.75 
-0.158005 -0.010884 0.75 
-0.168545 -0.011741 0.75 
-0.179384 -0.012622 0.75 
-0.190523 -0.013527 0.75 
-0.20196 -0.014456 0.75 
-0.213846 -0.01542 0.75 
-0.226031 -0.016408 0.75 
-0.238216 -0.017395 0.75 
-0.250102 -0.018358 0.75 
-0.261988 -0.019319 0.75 
-0.273576 -0.020256 0.75 
-0.284864 -0.021168 0.75 
-0.295853 -0.022056 0.75 
-0.306842 -0.022943 0.75 
-0.317532 -0.023805 0.75 
-0.327924 -0.024643 0.75 
-0.338016 -0.025457 0.75 
-0.348108 -0.02627 0.75 
-0.361116 -0.027317 0.75 
-0.373975 -0.028351 0.75 
-0.387282 -0.029421 0.75 
-0.397673 -0.030257 0.75 
-0.408364 -0.031117 0.75 
-0.419353 -0.032001 0.75 
-0.430791 -0.032921 0.75 
-0.442528 -0.033865 0.75 
-0.454564 -0.034833 0.75 
-0.4669 -0.035825 0.75 
-0.479683 -0.036854 0.75 
-0.492467 -0.037882 0.75 
-0.505101 -0.038898 0.75 
-0.517436 -0.039891 0.75 
-0.529323 -0.040847 0.75 
-0.54091 -0.041779 0.75 
-0.552348 -0.042699 0.75 
-0.563786 -0.04362 0.75 
-0.574776 -0.044504 0.75 
-0.585466 -0.045364 0.75 
-0.596007 -0.046212 0.75 
-0.606548 -0.04706 0.75 
-0.616641 -0.047872 0.75 
-0.629649 -0.048919 0.75 
-0.642507 -0.049953 0.75 
-0.654917 -0.050952 0.75 
-0.666731 -0.051873 0.75 
-0.677952 -0.052674 0.75 
-0.68858 -0.053363 0.75 
-0.698613 -0.053949 0.75 
-0.710373 -0.054553 0.75 
-0.721387 -0.055033 0.75 
-0.733304 -0.055465 0.75 
-0.7435 -0.055769 0.75 
-0.754296 -0.05603 0.75 
-0.765694 -0.056243 0.75 
-0.777693 -0.056401 0.75 
-0.790293 -0.056499 0.75 
-0.803493 -0.056531 0.75 
-0.813768 -0.056509 0.75 
-0.824343 -0.056443 0.75 
-0.835367 -0.05633 0.75 
-0.846391 -0.056173 0.75 
-0.857414 -0.055971 0.75 
-0.868436 -0.055724 0.75 
-0.879008 -0.055444 0.75 
-0.889578 -0.055121 0.75 
-0.899996 -0.05476 0.75 
-0.910114 -0.054369 0.75 
-0.923007 -0.053939 0.75 
-0.935303 -0.05366 0.75 
-0.947002 -0.053512 0.75 
-0.958102 -0.053481 0.75 
-0.968602 -0.053549 0.75 
-0.980825 -0.053751 0.75 
-0.992146 -0.054058 0.75 
-1.00256 -0.054445 0.75 
-1.0138 -0.054978 0.75 
-1.02526 -0.055652 0.75 
-1.03663 -0.056458 0.75 
-1.04806 -0.057395 0.75 
-1.05927 -0.058409 0.75 
-1.06965 -0.059417 0.75 
-1.08091 -0.060575 0.75 
-1.09307 -0.061864 0.75 
-1.10351 -0.062969 0.75 
-1.11455 -0.064136 0.75 
-1.12618 -0.065365 0.75 
-1.13841 -0.066655 0.75 
-1.15124 -0.068008 0.75 
-1.16131 -0.069068 0.75 
-1.17168 -0.070159 0.75 
-1.18235 -0.07128 0.75 
-1.19331 -0.072432 0.75 
-1.20472 -0.073631 0.75 
-1.21643 -0.07486 0.75 
-1.22829 -0.076104 0.75 
-1.24015 -0.077347 0.75 
-1.25201 -0.078589 0.75 
-1.26358 -0.079799 0.75 
-1.27484 -0.080978 0.75 
-1.2858 -0.082124 0.75 
-1.29677 -0.083271 0.75 
-1.30744 -0.084385 0.75 
-1.31781 -0.085467 0.75 
-1.32788 -0.086518 0.75 
-1.33795 -0.087569 0.75 
-1.35093 -0.088922 0.75 
-1.36421 -0.090306 0.75 
-1.37457 -0.091387 0.75 
-1.38524 -0.092499 0.75 
-1.39621 -0.093642 0.75 
-1.40762 -0.094832 0.75 
-1.41933 -0.096052 0.75 
-1.43134 -0.097304 0.75 
-1.44365 -0.098587 0.75 
-1.4564 -0.099917 0.75 
-1.46916 -0.101247 0.75 
-1.48177 -0.102561 0.75 
-1.49407 -0.103844 0.75 
-1.50594 -0.105081 0.75 
-1.5175 -0.106286 0.75 
-1.52891 -0.107476 0.75 
-1.54032 -0.108666 0.75 
-1.55129 -0.10981 0.75 
-1.56196 -0.110922 0.75 
-1.57247 -0.112018 0.75 
-1.58299 -0.113115 0.75 
-1.59306 -0.114165 0.75 
-1.60604 -0.115519 0.75 
-1.61887 -0.116856 0.75 
-1.63126 -0.118148 0.75 
-1.64304 -0.119348 0.75 
-1.65424 -0.120413 0.75 
-1.66485 -0.121353 0.75 
-1.67487 -0.122175 0.75 
-1.68661 -0.123057 0.75 
-1.69761 -0.123797 0.75 
-1.70951 -0.12451 0.75 
-1.7197 -0.125055 0.75 
-1.73049 -0.125571 0.75 
-1.74188 -0.126052 0.75 
-1.75387 -0.126494 0.75 
-1.76646 -0.126889 0.75 
-1.77966 -0.127233 0.75 
-1.78993 -0.127453 0.75 
-1.8005 -0.127637 0.75 
-1.81153 -0.127784 0.75 
-1.82255 -0.127887 0.75 
-1.83358 -0.127946 0.75 
-1.8446 -0.127959 0.75 
-1.85518 -0.127929 0.75 
-1.86545 -0.127857 0.75 
-1.87558 -0.127745 0.75 
-1.8857 -0.127593 0.75 
-1.8986 -0.127329 0.75 
-1.91089 -0.127 0.75 
-1.92259 -0.126614 0.75 
-1.93368 -0.12618 0.75 
-1.94417 -0.125706 0.75 
-1.95525 -0.125138 0.75 
-1.96693 -0.124471 0.75 
-1.97921 -0.123699 0.75 
-1.99208 -0.122815 0.75 
-2.00218 -0.122071 0.75 
-2.01257 -0.121261 0.75 
-2.02326 -0.120382 0.75 
-2.03424 -0.119432 0.75 
-2.04567 -0.118394 0.75 
-2.0571 -0.117307 0.75 
-2.06836 -0.116187 0.75 
-2.07933 -0.115048 0.75 
-2.09029 -0.113863 0.75 
-2.10095 -0.112664 0.75 
-2.1113 -0.111453 0.75 
-2.12136 -0.110235 0.75 
-2.1314 -0.108973 0.75 
-2.14434 -0.107285 0.75 
-2.15667 -0.105571 0.75 
-2.16839 -0.103789 0.75 
-2.17949 -0.101957 0.75 
-2.18997 -0.100091 0.75 
-2.19985 -0.098208 0.75 
-2.21138 -0.095846 0.75 
-2.22185 -0.093541 0.75 
-2.23324 -0.09085 0.75 
-2.24327 -0.088306 0.75 
-2.25333 -0.085574 0.75 
-2.26348 -0.082606 0.75 
-2.27349 -0.079414 0.75 
-2.28297 -0.075878 0.75 
-2.29279 -0.07194 0.75 
-2.30249 -0.067933 0.75 
-2.31279 -0.063594 0.75 
-2.32286 -0.059282 0.75 
-2.33228 -0.055189 0.75 
-2.34251 -0.050691 0.75 
-2.35354 -0.045784 0.75 
-2.36298 -0.041541 0.75 
-2.37296 -0.037017 0.75 
-2.38332 -0.032272 0.75 
-2.39435 -0.027175 0.75 
-2.40508 -0.022156 0.75 
-2.41525 -0.017326 0.75 
-2.42483 -0.012694 0.75 
-2.43386 -0.008267 0.75 
-2.44312 -0.003651 0.75 
-2.45289 0.00129 0.75 
-2.46317 0.006563 0.75 
-2.47395 0.012172 0.75 
-2.48522 0.018122 0.75 
-2.49699 0.024419 0.75 
-2.50616 0.029382 0.75 
-2.51557 0.034527 0.75 
-2.52522 0.039857 0.75 
-2.53525 0.045446 0.75 
-2.54524 0.051078 0.75 
-2.55522 0.056751 0.75 
-2.56517 0.062467 0.75 
-2.5747 0.068 0.75 
-2.58396 0.073422 0.75 
-2.59306 0.078807 0.75 
-2.60214 0.084231 0.75 
-2.61081 0.089461 0.75 
-2.62194 0.096259 0.75 
-2.63253 0.102812 0.75 
-2.64257 0.109112 0.75 
-2.65206 0.115151 0.75 
-2.66139 0.121167 0.75 
-2.67106 0.127485 0.75 
-2.68119 0.134191 0.75 
-2.69178 0.141289 0.75 
-2.70283 0.148786 0.75 
-2.71142 0.154683 0.75 
-2.72024 0.160789 0.75 
-2.72928 0.167104 0.75 
-2.73866 0.173716 0.75 
-2.74825 0.180543 0.75 
-2.75781 0.187411 0.75 
-2.76711 0.194145 0.75 
-2.77601 0.200654 0.75 
-2.78487 0.207202 0.75 
-2.7936 0.213698 0.75 
-2.80205 0.220052 0.75 
-2.81012 0.226171 0.75 
-2.81816 0.232325 0.75 
-2.8286 0.240401 0.75 
-2.83852 0.248166 0.75 
-2.84792 0.255621 0.75 
-2.85681 0.262759 0.75 
-2.86519 0.269572 0.75 
-2.87353 0.276437 0.75 
-2.88229 0.283736 0.75 
-2.89146 0.291473 0.75 
-2.90104 0.299653 0.75 
-2.91081 0.308083 0.75 
-2.92053 0.316567 0.75 
-2.92997 0.324904 0.75 
-2.93915 0.33309 0.75 
-2.94807 0.341121 0.75 
-2.95672 0.348994 0.75 
-2.96512 0.356704 0.75 
-2.97326 0.364248 0.75 
-2.98115 0.371622 0.75 
-2.9888 0.378824 0.75 
-2.99619 0.38585 0.75 
-3.00512 0.394414 0.75 
-3.01358 0.402603 0.75 
-3.02189 0.410731 0.75 
-3.03016 0.418904 0.75 
-3.03807 0.426803 0.75 
-3.04572 0.434528 0.75 
-3.05281 0.441755 0.75 
-3.05987 0.449014 0.75 
-3.06788 0.457333 0.75 
-3.07564 0.465476 0.75 
-3.08296 0.47322 0.75 
-3.09003 0.480778 0.75 
-3.09773 0.489083 0.75 
-3.10518 0.497204 0.75 
-3.1123 0.505025 0.75 
-3.11994 0.513492 0.75 
-3.12753 0.521995 0.75 
-3.13478 0.530201 0.75 
-3.14149 0.537877 0.75 
-3.14862 0.546094 0.75 
-3.15521 0.553776 0.75 
-3.16221 0.562002 0.75 
-3.16912 0.570204 0.75 
-3.1759 0.578321 0.75 
-3.18274 0.586583 0.75 
-3.17615 0.578603 0.75 
-3.1693 0.570444 0.75 
-3.16264 0.562719 0.75 
-3.15546 0.554553 0.75 
-3.14826 0.546502 0.75 
-3.1401 0.537503 0.75 
-3.13254 0.529273 0.75 
-3.12432 0.520428 0.75 
-3.11724 0.512881 0.75 
-3.10971 0.50493 0.75 
-3.10173 0.496577 0.75 
-3.0933 0.487828 0.75 
-3.08441 0.478685 0.75 
-3.07507 0.469152 0.75 
-3.06774 0.461736 0.75 
-3.06018 0.454132 0.75 
-3.05238 0.446341 0.75 
-3.04454 0.438584 0.75 
-3.03689 0.431074 0.75 
-3.02941 0.423809 0.75 
-3.02211 0.416789 0.75 
-3.01277 0.407895 0.75 
-3.00381 0.39947 0.75 
-2.99523 0.391509 0.75 
-2.98705 0.384007 0.75 
-2.97927 0.376956 0.75 
-2.971 0.369551 0.75 
-2.96224 0.361797 0.75 
-2.95299 0.353698 0.75 
-2.94323 0.345259 0.75 
-2.93554 0.338673 0.75 
-2.92759 0.331926 0.75 
-2.91939 0.325018 0.75 
-2.91092 0.317953 0.75 
-2.90243 0.310924 0.75 
-2.89391 0.30393 0.75 
-2.88547 0.297068 0.75 
-2.87724 0.290429 0.75 
-2.86933 0.284107 0.75 
-2.86139 0.277818 0.75 
-2.85101 0.269671 0.75 
-2.84105 0.261956 0.75 
-2.83151 0.254669 0.75 
-2.82241 0.247802 0.75 
-2.81375 0.241349 0.75 
-2.80505 0.234949 0.75 
-2.79583 0.228248 0.75 
-2.78608 0.221251 0.75 
-2.7758 0.213963 0.75 
-2.76499 0.206389 0.75 
-2.75655 0.200535 0.75 
-2.74783 0.194547 0.75 
-2.73872 0.188343 0.75 
-2.72933 0.18201 0.75 
-2.71979 0.175633 0.75 
-2.71022 0.169296 0.75 
-2.70063 0.163001 0.75 
-2.69126 0.156909 0.75 
-2.68212 0.15102 0.75 
-2.6732 0.145332 0.75 
-2.66426 0.139682 0.75 
-2.65556 0.13423 0.75 
-2.64695 0.128894 0.75 
-2.63832 0.123595 0.75 
-2.6273 0.116897 0.75 
-2.61863 0.111656 0.75 
-2.60972 0.106258 0.75 
-2.60054 0.100703 0.75 
-2.59111 0.094992 0.75 
-2.5813 0.089045 0.75 
-2.57123 0.082941 0.75 
-2.5609 0.07668 0.75 
-2.55032 0.070262 0.75 
-2.53936 0.063609 0.75 
-2.52839 0.056954 0.75 
-2.51756 0.050376 0.75 
-2.50698 0.043951 0.75 
-2.49679 0.037759 0.75 
-2.48686 0.031722 0.75 
-2.47705 0.025761 0.75 
-2.46725 0.019798 0.75 
-2.45783 0.014069 0.75 
-2.44867 0.008494 0.75 
-2.43964 0.002996 0.75 
-2.4306 -0.002503 0.75 
-2.42195 -0.007769 0.75 
-2.41331 -0.013036 0.75 
-2.40203 -0.019903 0.75 
-2.39127 -0.02646 0.75 
-2.38052 -0.033018 0.75 
-2.36924 -0.039888 0.75 
-2.36047 -0.045236 0.75 
-2.35144 -0.050739 0.75 
-2.34203 -0.056478 0.75 
-2.33236 -0.062372 0.75 
-2.32243 -0.068422 0.75 
-2.31225 -0.074628 0.75 
-2.30168 -0.081069 0.75 
-2.29086 -0.087665 0.75 
-2.28003 -0.094262 0.75 
-2.26947 -0.100702 0.75 
-2.25928 -0.106908 0.75 
-2.2491 -0.113114 0.75 
-2.23904 -0.119243 0.75 
-2.22925 -0.125214 0.75 
-2.21983 -0.130952 0.75 
-2.21042 -0.13669 0.75 
-2.20113 -0.142349 0.75 
-2.1921 -0.147853 0.75 
-2.18346 -0.153122 0.75 
-2.17481 -0.158391 0.75 
-2.16354 -0.16526 0.75 
-2.15252 -0.171974 0.75 
-2.14176 -0.178531 0.75 
-2.13126 -0.184932 0.75 
-2.1205 -0.191489 0.75 
-2.10923 -0.198358 0.75 
-2.10046 -0.203705 0.75 
-2.09142 -0.209208 0.75 
-2.08201 -0.214946 0.75 
-2.07234 -0.220839 0.75 
-2.06241 -0.226889 0.75 
-2.05223 -0.233095 0.75 
-2.04166 -0.239535 0.75 
-2.03084 -0.246131 0.75 
-2.02002 -0.252727 0.75 
-2.00945 -0.259167 0.75 
-1.99927 -0.265373 0.75 
-1.98934 -0.271423 0.75 
-1.97954 -0.277394 0.75 
-1.96974 -0.283366 0.75 
-1.96033 -0.289103 0.75 
-1.95117 -0.294684 0.75 
-1.94214 -0.300188 0.75 
-1.93311 -0.305691 0.75 
-1.92446 -0.31096 0.75 
-1.91582 -0.316229 0.75 
-1.90454 -0.323098 0.75 
-1.89379 -0.329656 0.75 
-1.88328 -0.336056 0.75 
-1.87278 -0.342457 0.75 
-1.86202 -0.349014 0.75 
-1.85075 -0.355884 0.75 
-1.84197 -0.361231 0.75 
-1.83294 -0.366734 0.75 
-1.82353 -0.372472 0.75 
-1.81386 -0.378365 0.75 
-1.80393 -0.384415 0.75 
-1.79375 -0.390621 0.75 
-1.78318 -0.397061 0.75 
-1.77236 -0.403657 0.75 
-1.76154 -0.410253 0.75 
-1.75097 -0.416693 0.75 
-1.74078 -0.422899 0.75 
-1.73086 -0.428948 0.75 
-1.72106 -0.43492 0.75 
-1.71126 -0.440891 0.75 
-1.70185 -0.446629 0.75 
-1.69269 -0.45221 0.75 
-1.68366 -0.457713 0.75 
-1.67463 -0.463217 0.75 
-1.66598 -0.468486 0.75 
-1.65734 -0.473755 0.75 
-1.64606 -0.480624 0.75 
-1.6353 -0.487181 0.75 
-1.62454 -0.493738 0.75 
-1.61327 -0.500608 0.75 
-1.6045 -0.505955 0.75 
-1.59547 -0.511458 0.75 
-1.58605 -0.517195 0.75 
-1.57638 -0.523089 0.75 
-1.56646 -0.529139 0.75 
-1.55627 -0.535344 0.75 
-1.54609 -0.54155 0.75 
-1.53616 -0.5476 0.75 
-1.52637 -0.553572 0.75 
-1.51657 -0.559543 0.75 
-1.50715 -0.565281 0.75 
-1.49799 -0.570862 0.75 
-1.48896 -0.576365 0.75 
-1.47993 -0.581868 0.75 
-1.47129 -0.587137 0.75 
-1.46014 -0.593929 0.75 
-1.44913 -0.600642 0.75 
-1.4385 -0.607121 0.75 
-1.42799 -0.613522 0.75 
-1.41788 -0.619689 0.75 
-1.40788 -0.625777 0.75 
-1.39828 -0.631632 0.75 
-1.3888 -0.637408 0.75 
-1.3797 -0.642951 0.75 
-1.37074 -0.648415 0.75 
-1.36216 -0.653645 0.75 
-1.35159 -0.660085 0.75 
-1.34166 -0.666135 0.75 
-1.33174 -0.672184 0.75 
-1.3222 -0.678 0.75 
-1.31291 -0.683659 0.75 
-1.30426 -0.688928 0.75 
-1.29562 -0.694197 0.75 
-1.28575 -0.700208 0.75 
-1.27615 -0.706062 0.75 
-1.26705 -0.711604 0.75 
-1.25821 -0.716991 0.75 
-1.24854 -0.722884 0.75 
-1.23912 -0.728611 0.75 
-1.23006 -0.73406 0.75 
-1.22026 -0.739882 0.75 
-1.21082 -0.745425 0.75 
-1.20199 -0.750544 0.75 
-1.19256 -0.755956 0.75 
-1.18375 -0.760952 0.75 
-1.17434 -0.766238 0.75 
-1.16496 -0.771442 0.75 
-1.15542 -0.776675 0.75 
-1.14549 -0.782111 0.75 
-1.13621 -0.787187 0.75 
-1.127 -0.792229 0.75 
-1.11773 -0.797308 0.75 
