ply
format ascii 1.0
element vertex 889
property float x
property float y
property float z
end_header
-0.009249 -0.00497 0.75 
-0.018816 -0.010298 0.75 
-0.028261 -0.015835 0.75 
-0.036643 -0.021377 0.75 
-0.043119 -0.029142 0.75 
-0.04963 -0.037379 0.75 
-0.055868 -0.045543 0.75 
-0.061634 -0.053773 0.75 
-0.065569 -0.063371 0.75 
-0.068986 -0.073695 0.75 
-0.072277 -0.083981 0.75 
-0.075474 -0.094375 0.75 
-0.078603 -0.105025 0.75 
-0.081768 -0.116211 0.75 
-0.084821 -0.12735 0.75 
-0.087548 -0.137567 0.75 
-0.090442 -0.148671 0.75 
-0.093531 -0.160809 0.75 
-0.096105 -0.171144 0.75 
-0.098774 -0.182072 0.75 
-0.101534 -0.193597 0.75 
-0.10438 -0.205717 0.75 
-0.107306 -0.218435 0.75 
-0.109538 -0.228311 0.75 
-0.111834 -0.238633 0.75 
-0.114159 -0.249257 0.75 
-0.116447 -0.259888 0.75 
-0.118624 -0.270237 0.75 
-0.12066 -0.280155 0.75 
-0.123215 -0.292953 0.75 
-0.125575 -0.305177 0.75 
-0.127749 -0.316826 0.75 
-0.129744 -0.327897 0.75 
-0.131647 -0.338833 0.75 
-0.133558 -0.350224 0.75 
-0.135498 -0.362218 0.75 
-0.137461 -0.374816 0.75 
-0.13944 -0.388018 0.75 
-0.140933 -0.398336 0.75 
-0.142424 -0.408957 0.75 
-0.143911 -0.419881 0.75 
-0.145409 -0.431258 0.75 
-0.146859 -0.442641 0.75 
-0.148241 -0.453881 0.75 
-0.14954 -0.464829 0.75 
-0.15074 -0.475336 0.75 
-0.151895 -0.485848 0.75 
-0.152989 -0.496215 0.75 
-0.154007 -0.506289 0.75 
-0.155241 -0.51913 0.75 
-0.156189 -0.52921 0.75 
-0.157165 -0.539589 0.75 
-0.158169 -0.550267 0.75 
-0.159201 -0.561244 0.75 
-0.160275 -0.572669 0.75 
-0.161377 -0.584392 0.75 
-0.162507 -0.596414 0.75 
-0.163665 -0.608735 0.75 
-0.164865 -0.621503 0.75 
-0.166066 -0.634272 0.75 
-0.167252 -0.646892 0.75 
-0.16841 -0.659212 0.75 
-0.169569 -0.671533 0.75 
-0.170699 -0.683555 0.75 
-0.171801 -0.695278 0.75 
-0.172875 -0.706703 0.75 
-0.173907 -0.717679 0.75 
-0.174939 -0.728656 0.75 
-0.175957 -0.739483 0.75 
-0.176946 -0.750012 0.75 
-0.177936 -0.760541 0.75 
-0.178898 -0.77077 0.75 
-0.180133 -0.783913 0.75 
-0.181341 -0.796756 0.75 
-0.18252 -0.809301 0.75 
-0.183671 -0.821546 0.75 
-0.184809 -0.833492 0.75 
-0.185958 -0.844834 0.75 
-0.187115 -0.855572 0.75 
-0.188272 -0.865706 0.75 
-0.189706 -0.877545 0.75 
-0.191268 -0.88967 0.75 
-0.192677 -0.900075 0.75 
-0.19423 -0.911065 0.75 
-0.195932 -0.922641 0.75 
-0.19779 -0.9348 0.75 
-0.199808 -0.947541 0.75 
-0.20144 -0.957533 0.75 
-0.203163 -0.967815 0.75 
-0.204979 -0.978385 0.75 
-0.206891 -0.989243 0.75 
-0.208927 -1.00054 0.75 
-0.21101 -1.01182 0.75 
-0.213112 -1.02295 0.75 
-0.215203 -1.03377 0.75 
-0.217253 -1.04415 0.75 
-0.219346 -1.05451 0.75 
-0.221452 -1.06472 0.75 
-0.223544 -1.07463 0.75 
-0.226279 -1.08724 0.75 
-0.228962 -1.09924 0.75 
-0.231585 -1.11064 0.75 
-0.234139 -1.12144 0.75 
-0.236758 -1.13223 0.75 
-0.239586 -1.14358 0.75 
-0.242628 -1.1555 0.75 
-0.245891 -1.16798 0.75 
-0.248502 -1.17777 0.75 
-0.251233 -1.18783 0.75 
-0.254087 -1.19817 0.75 
-0.257066 -1.20878 0.75 
-0.260213 -1.21981 0.75 
-0.263407 -1.23084 0.75 
-0.266649 -1.24184 0.75 
-0.269938 -1.25284 0.75 
-0.273143 -1.26339 0.75 
-0.276306 -1.27363 0.75 
-0.279468 -1.28373 0.75 
-0.282673 -1.2938 0.75 
-0.285784 -1.30344 0.75 
-0.288937 -1.31306 0.75 
-0.293109 -1.32558 0.75 
-0.297131 -1.33752 0.75 
-0.300898 -1.34892 0.75 
-0.30441 -1.35976 0.75 
-0.307673 -1.37006 0.75 
-0.310784 -1.38008 0.75 
-0.313923 -1.39042 0.75 
-0.317172 -1.40135 0.75 
-0.320525 -1.41287 0.75 
-0.323977 -1.42499 0.75 
-0.327522 -1.4377 0.75 
-0.330232 -1.44761 0.75 
-0.332979 -1.45782 0.75 
-0.335798 -1.46848 0.75 
-0.338646 -1.47944 0.75 
-0.341523 -1.49071 0.75 
-0.344424 -1.50227 0.75 
-0.347169 -1.51342 0.75 
-0.349796 -1.52428 0.75 
-0.352341 -1.535 0.75 
-0.354839 -1.54574 0.75 
-0.357192 -1.55605 0.75 
-0.359434 -1.56608 0.75 
-0.361602 -1.57597 0.75 
-0.363728 -1.58587 0.75 
-0.366368 -1.5985 0.75 
-0.36881 -1.61055 0.75 
-0.371061 -1.62203 0.75 
-0.37313 -1.63294 0.75 
-0.375133 -1.64386 0.75 
-0.377176 -1.65538 0.75 
-0.379253 -1.6675 0.75 
-0.381357 -1.68023 0.75 
-0.382958 -1.69023 0.75 
-0.384561 -1.70053 0.75 
-0.386165 -1.71113 0.75 
-0.387767 -1.72204 0.75 
-0.389386 -1.7334 0.75 
-0.390997 -1.74506 0.75 
-0.392558 -1.75673 0.75 
-0.39403 -1.76811 0.75 
-0.395396 -1.77905 0.75 
-0.396713 -1.79 0.75 
-0.397967 -1.8008 0.75 
-0.39914 -1.81131 0.75 
-0.400219 -1.82138 0.75 
-0.401254 -1.83145 0.75 
-0.402538 -1.84459 0.75 
-0.403721 -1.85743 0.75 
-0.404873 -1.87058 0.75 
-0.405768 -1.88082 0.75 
-0.406691 -1.89135 0.75 
-0.407653 -1.90234 0.75 
-0.408644 -1.91362 0.75 
-0.409662 -1.9252 0.75 
-0.410707 -1.93708 0.75 
-0.411794 -1.9494 0.75 
-0.412908 -1.96203 0.75 
-0.414036 -1.97481 0.75 
-0.415165 -1.98758 0.75 
-0.416256 -1.99991 0.75 
-0.417322 -2.01194 0.75 
-0.418376 -2.02381 0.75 
-0.41943 -2.03569 0.75 
-0.420446 -2.04712 0.75 
-0.421436 -2.05825 0.75 
-0.422414 -2.06923 0.75 
-0.423393 -2.08021 0.75 
-0.424332 -2.09075 0.75 
-0.425245 -2.10098 0.75 
-0.426146 -2.11107 0.75 
-0.427048 -2.12115 0.75 
-0.428197 -2.134 0.75 
-0.429294 -2.14625 0.75 
-0.430392 -2.1585 0.75 
-0.431483 -2.17015 0.75 
-0.432588 -2.1812 0.75 
-0.433697 -2.19164 0.75 
-0.435106 -2.20408 0.75 
-0.436374 -2.21466 0.75 
-0.437779 -2.22582 0.75 
-0.439326 -2.23757 0.75 
-0.441021 -2.2499 0.75 
-0.442871 -2.26282 0.75 
-0.444355 -2.27284 0.75 
-0.445948 -2.28329 0.75 
-0.447631 -2.29403 0.75 
-0.449407 -2.30507 0.75 
-0.451277 -2.31639 0.75 
-0.45327 -2.32815 0.75 
-0.45526 -2.3396 0.75 
-0.457246 -2.35075 0.75 
-0.459225 -2.3616 0.75 
-0.461251 -2.37243 0.75 
-0.463266 -2.38297 0.75 
-0.465297 -2.39335 0.75 
-0.467373 -2.40371 0.75 
-0.469403 -2.41363 0.75 
-0.471521 -2.42384 0.75 
-0.473699 -2.43434 0.75 
-0.475937 -2.44514 0.75 
-0.478265 -2.45637 0.75 
-0.480652 -2.46791 0.75 
-0.483099 -2.47973 0.75 
-0.485605 -2.49185 0.75 
-0.4882 -2.50441 0.75 
-0.490795 -2.51697 0.75 
-0.493388 -2.52953 0.75 
-0.49598 -2.54209 0.75 
-0.498479 -2.55421 0.75 
-0.500917 -2.56604 0.75 
-0.503293 -2.57757 0.75 
-0.505608 -2.58881 0.75 
-0.507921 -2.60005 0.75 
-0.510174 -2.61099 0.75 
-0.512364 -2.62164 0.75 
-0.514494 -2.632 0.75 
-0.516623 -2.64236 0.75 
-0.51869 -2.65243 0.75 
-0.520727 -2.66234 0.75 
-0.522763 -2.67226 0.75 
-0.525356 -2.6849 0.75 
-0.527827 -2.69695 0.75 
-0.530298 -2.709 0.75 
-0.532646 -2.72046 0.75 
-0.534963 -2.73131 0.75 
-0.537284 -2.74155 0.75 
-0.540155 -2.75344 0.75 
-0.542982 -2.76441 0.75 
-0.545734 -2.77446 0.75 
-0.548872 -2.78526 0.75 
-0.552268 -2.79622 0.75 
-0.555664 -2.80648 0.75 
-0.559027 -2.81595 0.75 
-0.562725 -2.82537 0.75 
-0.567003 -2.83463 0.75 
-0.571862 -2.84478 0.75 
-0.576312 -2.85387 0.75 
-0.580785 -2.86287 0.75 
-0.585983 -2.87318 0.75 
-0.590789 -2.88261 0.75 
-0.596049 -2.8928 0.75 
-0.601838 -2.90391 0.75 
-0.606727 -2.9132 0.75 
-0.612 -2.92314 0.75 
-0.617589 -2.93359 0.75 
-0.623468 -2.94456 0.75 
-0.629631 -2.95607 0.75 
-0.634412 -2.96499 0.75 
-0.639405 -2.97431 0.75 
-0.64454 -2.9839 0.75 
-0.649817 -2.99375 0.75 
-0.655236 -3.00387 0.75 
-0.660867 -3.01438 0.75 
-0.66664 -3.02515 0.75 
-0.672554 -3.0362 0.75 
-0.67861 -3.0475 0.75 
-0.684454 -3.05841 0.75 
-0.690156 -3.06905 0.75 
-0.695787 -3.07956 0.75 
-0.701418 -3.09008 0.75 
-0.706837 -3.10019 0.75 
-0.712114 -3.11004 0.75 
-0.717249 -3.11963 0.75 
-0.722242 -3.12895 0.75 
-0.727236 -3.13827 0.75 
-0.732088 -3.14733 0.75 
-0.736869 -3.15625 0.75 
-0.74165 -3.16518 0.75 
-0.747742 -3.17655 0.75 
-0.75355 -3.18739 0.75 
-0.759358 -3.19823 0.75 
-0.764925 -3.20852 0.75 
-0.770269 -3.21825 0.75 
-0.775382 -3.22743 0.75 
-0.781409 -3.23806 0.75 
-0.787368 -3.24839 0.75 
-0.792523 -3.25719 0.75 
-0.798035 -3.26648 0.75 
-0.803908 -3.27625 0.75 
-0.810149 -3.2865 0.75 
-0.816761 -3.29722 0.75 
-0.82375 -3.30842 0.75 
-0.829231 -3.31711 0.75 
-0.83491 -3.32604 0.75 
-0.840868 -3.33531 0.75 
-0.847027 -3.34482 0.75 
-0.853226 -3.35429 0.75 
-0.859299 -3.36349 0.75 
-0.86541 -3.37267 0.75 
-0.871393 -3.38157 0.75 
-0.877244 -3.3902 0.75 
-0.882961 -3.39856 0.75 
-0.888713 -3.40689 0.75 
-0.896177 -3.41759 0.75 
-0.903355 -3.42777 0.75 
-0.910507 -3.43777 0.75 
-0.917717 -3.44774 0.75 
-0.924716 -3.4573 0.75 
-0.931678 -3.46671 0.75 
-0.938418 -3.47571 0.75 
-0.945114 -3.48457 0.75 
-0.951579 -3.49303 0.75 
-0.957992 -3.50134 0.75 
-0.964167 -3.50927 0.75 
-0.971818 -3.519 0.75 
-0.979053 -3.5281 0.75 
-0.986334 -3.53716 0.75 
-0.993375 -3.54584 0.75 
-1.00027 -3.55425 0.75 
-1.00672 -3.56205 0.75 
-1.0132 -3.56983 0.75 
-1.02064 -3.57867 0.75 
-1.02792 -3.58724 0.75 
-1.03524 -3.59578 0.75 
-1.04242 -3.60405 0.75 
-1.04924 -3.61184 0.75 
-1.05589 -3.61937 0.75 
-1.06323 -3.6276 0.75 
-1.07021 -3.63534 0.75 
-1.07788 -3.64378 0.75 
-1.08519 -3.65173 0.75 
-1.09212 -3.65921 0.75 
-1.09944 -3.66705 0.75 
-1.10639 -3.67441 0.75 
-1.11338 -3.68173 0.75 
-1.12044 -3.68899 0.75 
-1.12799 -3.69661 0.75 
-1.13562 -3.70415 0.75 
-1.14293 -3.71126 0.75 
-1.13527 -3.7043 0.75 
-1.12735 -3.69695 0.75 
-1.11958 -3.68979 0.75 
-1.11124 -3.68257 0.75 
-1.10309 -3.67607 0.75 
-1.11275 -3.67931 0.75 
-1.12252 -3.68335 0.75 
-1.13206 -3.68717 0.75 
-1.14242 -3.69116 0.75 
-1.15331 -3.69523 0.75 
-1.16416 -3.69919 0.75 
-1.17412 -3.70275 0.75 
-1.18495 -3.70654 0.75 
-1.19679 -3.71062 0.75 
-1.20688 -3.71403 0.75 
-1.21755 -3.71759 0.75 
-1.22881 -3.72129 0.75 
-1.24065 -3.72512 0.75 
-1.25309 -3.72908 0.75 
-1.26275 -3.73212 0.75 
-1.27285 -3.73526 0.75 
-1.28324 -3.73845 0.75 
-1.29393 -3.74169 0.75 
-1.30493 -3.74499 0.75 
-1.3155 -3.74811 0.75 
-1.3258 -3.75112 0.75 
-1.33582 -3.75399 0.75 
-1.34556 -3.75673 0.75 
-1.358 -3.76015 0.75 
-1.36988 -3.76335 0.75 
-1.3812 -3.76631 0.75 
-1.39195 -3.76906 0.75 
-1.40331 -3.77189 0.75 
-1.41526 -3.77479 0.75 
-1.42781 -3.77776 0.75 
-1.43767 -3.78005 0.75 
-1.44784 -3.78235 0.75 
-1.45831 -3.78468 0.75 
-1.46908 -3.78703 0.75 
-1.48031 -3.78942 0.75 
-1.49154 -3.79176 0.75 
-1.50278 -3.79406 0.75 
-1.51403 -3.7963 0.75 
-1.52486 -3.79841 0.75 
-1.53539 -3.80042 0.75 
-1.54579 -3.80235 0.75 
-1.55619 -3.80424 0.75 
-1.56616 -3.80601 0.75 
-1.57903 -3.80821 0.75 
-1.59175 -3.81033 0.75 
-1.60404 -3.8123 0.75 
-1.61576 -3.81408 0.75 
-1.6269 -3.81563 0.75 
-1.63747 -3.81697 0.75 
-1.64745 -3.81811 0.75 
-1.65917 -3.81928 0.75 
-1.66985 -3.82019 0.75 
-1.68153 -3.82101 0.75 
-1.69186 -3.82156 0.75 
-1.70228 -3.82194 0.75 
-1.71285 -3.82212 0.75 
-1.72335 -3.82204 0.75 
-1.73346 -3.82144 0.75 
-1.74399 -3.82053 0.75 
-1.75444 -3.81952 0.75 
-1.76556 -3.81836 0.75 
-1.77644 -3.81717 0.75 
-1.78665 -3.81599 0.75 
-1.79775 -3.81467 0.75 
-1.80973 -3.81318 0.75 
-1.82 -3.81187 0.75 
-1.83086 -3.81044 0.75 
-1.8423 -3.8089 0.75 
-1.85419 -3.80725 0.75 
-1.86681 -3.80546 0.75 
-1.87913 -3.80365 0.75 
-1.89084 -3.80185 0.75 
-1.90195 -3.80008 0.75 
-1.91246 -3.79833 0.75 
-1.92236 -3.79662 0.75 
-1.93454 -3.79443 0.75 
-1.94486 -3.7925 0.75 
-1.95576 -3.79041 0.75 
-1.96724 -3.78813 0.75 
-1.97929 -3.78567 0.75 
-1.99191 -3.78302 0.75 
-2.00181 -3.78089 0.75 
-2.012 -3.77866 0.75 
-2.02246 -3.77632 0.75 
-2.03321 -3.77387 0.75 
-2.04439 -3.77127 0.75 
-2.05526 -3.7687 0.75 
-2.06598 -3.76612 0.75 
-2.07669 -3.76349 0.75 
-2.08695 -3.76092 0.75 
-2.09691 -3.75839 0.75 
-2.10671 -3.75586 0.75 
-2.1165 -3.75328 0.75 
-2.12896 -3.74993 0.75 
-2.14081 -3.74666 0.75 
-2.15207 -3.74348 0.75 
-2.16274 -3.7404 0.75 
-2.17338 -3.73725 0.75 
-2.18458 -3.73386 0.75 
-2.19634 -3.73024 0.75 
-2.20864 -3.72636 0.75 
-2.21828 -3.72327 0.75 
-2.22819 -3.72005 0.75 
-2.23838 -3.71669 0.75 
-2.24883 -3.71319 0.75 
-2.2597 -3.7095 0.75 
-2.27083 -3.70566 0.75 
-2.28195 -3.70178 0.75 
-2.29277 -3.69795 0.75 
-2.30314 -3.69423 0.75 
-2.3135 -3.69045 0.75 
-2.32371 -3.68669 0.75 
-2.33361 -3.68299 0.75 
-2.34308 -3.6794 0.75 
-2.35253 -3.67577 0.75 
-2.36483 -3.67098 0.75 
-2.37654 -3.66632 0.75 
-2.38763 -3.66175 0.75 
-2.39812 -3.65728 0.75 
-2.408 -3.65291 0.75 
-2.41728 -3.64868 0.75 
-2.42806 -3.64358 0.75 
-2.43796 -3.63873 0.75 
-2.44851 -3.63334 0.75 
-2.45792 -3.62835 0.75 
-2.46717 -3.62323 0.75 
-2.47672 -3.61771 0.75 
-2.48562 -3.61228 0.75 
-2.49419 -3.60662 0.75 
-2.50289 -3.60061 0.75 
-2.51146 -3.59454 0.75 
-2.52053 -3.58802 0.75 
-2.52939 -3.58158 0.75 
-2.53766 -3.57548 0.75 
-2.54663 -3.56881 0.75 
-2.55628 -3.56157 0.75 
-2.56454 -3.55532 0.75 
-2.57324 -3.54868 0.75 
-2.5824 -3.54164 0.75 
-2.59189 -3.53429 0.75 
-2.60194 -3.52645 0.75 
-2.61172 -3.51874 0.75 
-2.62098 -3.51135 0.75 
-2.62973 -3.50428 0.75 
-2.63797 -3.49753 0.75 
-2.64605 -3.49083 0.75 
-2.65444 -3.48379 0.75 
-2.66325 -3.47632 0.75 
-2.67246 -3.4684 0.75 
-2.68209 -3.46004 0.75 
-2.69211 -3.45122 0.75 
-2.69991 -3.4443 0.75 
-2.7079 -3.43714 0.75 
-2.71608 -3.42975 0.75 
-2.72456 -3.42203 0.75 
-2.73301 -3.41427 0.75 
-2.74143 -3.40647 0.75 
-2.74982 -3.39863 0.75 
-2.75784 -3.39107 0.75 
-2.76561 -3.38368 0.75 
-2.77325 -3.37637 0.75 
-2.78085 -3.36902 0.75 
-2.7881 -3.36195 0.75 
-2.79532 -3.35485 0.75 
-2.80469 -3.34555 0.75 
-2.81358 -3.33662 0.75 
-2.82199 -3.32806 0.75 
-2.82993 -3.31988 0.75 
-2.83741 -3.31209 0.75 
-2.84463 -3.30447 0.75 
-2.85201 -3.29658 0.75 
-2.85975 -3.28821 0.75 
-2.86785 -3.27936 0.75 
-2.8763 -3.27002 0.75 
-2.8851 -3.26017 0.75 
-2.89191 -3.25248 0.75 
-2.89889 -3.24453 0.75 
-2.90613 -3.23622 0.75 
-2.91352 -3.22764 0.75 
-2.92108 -3.21881 0.75 
-2.92879 -3.20971 0.75 
-2.93618 -3.20093 0.75 
-2.94333 -3.19235 0.75 
-2.95036 -3.18385 0.75 
-2.95734 -3.17532 0.75 
-2.96401 -3.16711 0.75 
-2.97045 -3.1591 0.75 
-2.97676 -3.15119 0.75 
-2.98304 -3.14325 0.75 
-2.991 -3.13309 0.75 
-2.99889 -3.12289 0.75 
-3.00637 -3.11312 0.75 
-3.01342 -3.10378 0.75 
-3.02005 -3.09488 0.75 
-3.02627 -3.08643 0.75 
-3.0328 -3.07745 0.75 
-3.03962 -3.06794 0.75 
-3.04673 -3.0579 0.75 
-3.05413 -3.04734 0.75 
-3.05989 -3.03901 0.75 
-3.06579 -3.03042 0.75 
-3.07182 -3.02155 0.75 
-3.07798 -3.0124 0.75 
-3.08435 -3.00286 0.75 
-3.09085 -2.99304 0.75 
-3.0973 -2.98319 0.75 
-3.10355 -2.97357 0.75 
-3.10951 -2.96429 0.75 
-3.11544 -2.95499 0.75 
-3.12124 -2.9458 0.75 
-3.12684 -2.93683 0.75 
-3.13217 -2.92822 0.75 
-3.13746 -2.91959 0.75 
-3.1443 -2.9083 0.75 
-3.15093 -2.89723 0.75 
-3.15734 -2.88638 0.75 
-3.16338 -2.87601 0.75 
-3.16905 -2.86613 0.75 
-3.17438 -2.85673 0.75 
-3.17964 -2.8473 0.75 
-3.18513 -2.83731 0.75 
-3.19086 -2.82676 0.75 
-3.1968 -2.81565 0.75 
-3.20296 -2.80398 0.75 
-3.20771 -2.79487 0.75 
-3.21256 -2.78547 0.75 
-3.21758 -2.77565 0.75 
-3.22268 -2.76554 0.75 
-3.22788 -2.75514 0.75 
-3.23317 -2.74445 0.75 
-3.23821 -2.73415 0.75 
-3.24321 -2.72382 0.75 
-3.2481 -2.7136 0.75 
-3.25281 -2.70364 0.75 
-3.25729 -2.69406 0.75 
-3.26174 -2.68446 0.75 
-3.26607 -2.67498 0.75 
-3.27024 -2.66576 0.75 
-3.2755 -2.65398 0.75 
-3.28044 -2.64271 0.75 
-3.28508 -2.63197 0.75 
-3.28941 -2.62175 0.75 
-3.29345 -2.61206 0.75 
-3.29766 -2.60179 0.75 
-3.30203 -2.59094 0.75 
-3.30656 -2.5795 0.75 
-3.31125 -2.56748 0.75 
-3.31487 -2.55803 0.75 
-3.31857 -2.54828 0.75 
-3.32233 -2.53823 0.75 
-3.32614 -2.52789 0.75 
-3.33007 -2.51711 0.75 
-3.33406 -2.50603 0.75 
-3.33799 -2.49493 0.75 
-3.34178 -2.4841 0.75 
-3.34553 -2.47325 0.75 
-3.34913 -2.46267 0.75 
-3.35259 -2.45236 0.75 
-3.35591 -2.44232 0.75 
-3.35918 -2.43227 0.75 
-3.36232 -2.42248 0.75 
-3.36629 -2.4099 0.75 
-3.3702 -2.39729 0.75 
-3.37325 -2.38748 0.75 
-3.37638 -2.37737 0.75 
-3.37965 -2.36685 0.75 
-3.38301 -2.35603 0.75 
-3.38646 -2.34493 0.75 
-3.39 -2.33354 0.75 
-3.39367 -2.32172 0.75 
-3.39744 -2.30962 0.75 
-3.40125 -2.29738 0.75 
-3.40506 -2.28513 0.75 
-3.40874 -2.27331 0.75 
-3.41233 -2.26179 0.75 
-3.41588 -2.2504 0.75 
-3.41943 -2.23902 0.75 
-3.42284 -2.22806 0.75 
-3.42617 -2.21739 0.75 
-3.42945 -2.20687 0.75 
-3.43273 -2.19634 0.75 
-3.43589 -2.18625 0.75 
-3.43895 -2.17644 0.75 
-3.44197 -2.16678 0.75 
-3.44499 -2.15711 0.75 
-3.44883 -2.1448 0.75 
-3.4525 -2.13306 0.75 
-3.45617 -2.12132 0.75 
-3.45967 -2.11015 0.75 
-3.46316 -2.09899 0.75 
-3.46683 -2.08725 0.75 
-3.47068 -2.07494 0.75 
-3.47371 -2.06527 0.75 
-3.47682 -2.05532 0.75 
-3.48002 -2.04509 0.75 
-3.48331 -2.03457 0.75 
-3.48674 -2.02361 0.75 
-3.49025 -2.01238 0.75 
-3.49386 -2.00085 0.75 
-3.49755 -1.98904 0.75 
-3.50138 -1.9768 0.75 
-3.50512 -1.96485 0.75 
-3.50877 -1.95318 0.75 
-3.51233 -1.9418 0.75 
-3.51589 -1.93042 0.75 
-3.51936 -1.91932 0.75 
-3.52278 -1.90837 0.75 
-3.52621 -1.89742 0.75 
-3.5295 -1.8869 0.75 
-3.5327 -1.87666 0.75 
-3.53581 -1.86671 0.75 
-3.53884 -1.85705 0.75 
-3.54269 -1.84474 0.75 
-3.54654 -1.83242 0.75 
-3.55039 -1.82011 0.75 
-3.55406 -1.80837 0.75 
-3.5576 -1.79722 0.75 
-3.56102 -1.78666 0.75 
-3.56433 -1.7767 0.75 
-3.56826 -1.76512 0.75 
-3.57199 -1.75443 0.75 
-3.57579 -1.74376 0.75 
-3.57998 -1.73227 0.75 
-3.58364 -1.72243 0.75 
-3.58755 -1.71204 0.75 
-3.59152 -1.70168 0.75 
-3.59532 -1.69189 0.75 
-3.59916 -1.68212 0.75 
-3.60374 -1.67062 0.75 
-3.60839 -1.65915 0.75 
-3.61292 -1.64812 0.75 
-3.61739 -1.63739 0.75 
-3.62161 -1.62737 0.75 
-3.62588 -1.61737 0.75 
-3.62997 -1.60778 0.75 
-3.63296 -1.61178 0.75 
-3.63114 -1.60085 0.75 
-3.63047 -1.59015 0.75 
-3.62964 -1.57916 0.75 
-3.62872 -1.56862 0.75 
-3.6277 -1.55802 0.75 
-3.62649 -1.54623 0.75 
-3.62528 -1.53527 0.75 
-3.62392 -1.52343 0.75 
-3.62269 -1.5133 0.75 
-3.62136 -1.50258 0.75 
-3.61989 -1.49128 0.75 
-3.6183 -1.47938 0.75 
-3.61657 -1.4669 0.75 
-3.61471 -1.45384 0.75 
-3.61322 -1.44367 0.75 
-3.61165 -1.43321 0.75 
-3.60998 -1.42231 0.75 
-3.60827 -1.41142 0.75 
-3.60653 -1.40069 0.75 
-3.60479 -1.39026 0.75 
-3.60307 -1.38028 0.75 
-3.60079 -1.36743 0.75 
-3.59854 -1.35518 0.75 
-3.59632 -1.34354 0.75 
-3.59415 -1.3325 0.75 
-3.59193 -1.32163 0.75 
-3.58956 -1.31032 0.75 
-3.587 -1.29845 0.75 
-3.58424 -1.286 0.75 
-3.58127 -1.27298 0.75 
-3.5789 -1.26283 0.75 
-3.57642 -1.2524 0.75 
-3.57382 -1.24168 0.75 
-3.57107 -1.23054 0.75 
-3.56827 -1.21941 0.75 
-3.56546 -1.20844 0.75 
-3.56269 -1.19777 0.75 
-3.55986 -1.18712 0.75 
-3.55707 -1.17676 0.75 
-3.55423 -1.16642 0.75 
-3.55132 -1.15579 0.75 
-3.54828 -1.14472 0.75 
-3.54517 -1.13336 0.75 
-3.54199 -1.12172 0.75 
-3.53873 -1.10978 0.75 
-3.53535 -1.0974 0.75 
-3.5319 -1.08474 0.75 
-3.52842 -1.07193 0.75 
-3.52494 -1.05912 0.75 
-3.52158 -1.04674 0.75 
-3.51822 -1.03437 0.75 
-3.51491 -1.02213 0.75 
-3.51167 -1.01019 0.75 
-3.50856 -0.998675 0.75 
-3.50553 -0.987452 0.75 
-3.50258 -0.976518 0.75 
-3.49971 -0.965873 0.75 
-3.49685 -0.955227 0.75 
-3.49406 -0.94487 0.75 
-3.49135 -0.934803 0.75 
-3.48872 -0.925025 0.75 
-3.4861 -0.915246 0.75 
-3.48272 -0.902641 0.75 
-3.47938 -0.890181 0.75 
-3.47616 -0.878154 0.75 
-3.4731 -0.866706 0.75 
-3.46996 -0.854968 0.75 
-3.46667 -0.842651 0.75 
-3.46322 -0.829754 0.75 
-3.46053 -0.819682 0.75 
-3.45776 -0.809321 0.75 
-3.45492 -0.79867 0.75 
-3.45195 -0.787584 0.75 
-3.44891 -0.776208 0.75 
-3.4458 -0.764543 0.75 
-3.4426 -0.752587 0.75 
-3.43929 -0.740197 0.75 
-3.43598 -0.727807 0.75 
-3.43267 -0.715417 0.75 
-3.42935 -0.703027 0.75 
-3.42616 -0.691072 0.75 
-3.42304 -0.679406 0.75 
-3.42 -0.668031 0.75 
-3.41704 -0.656945 0.75 
-3.41419 -0.646294 0.75 
-3.41134 -0.635643 0.75 
-3.40854 -0.625136 0.75 
-3.40581 -0.61492 0.75 
-3.40319 -0.605138 0.75 
-3.39982 -0.592531 0.75 
-3.39649 -0.580068 0.75 
-3.39316 -0.567606 0.75 
-3.38994 -0.555578 0.75 
-3.38665 -0.54326 0.75 
-3.3832 -0.530363 0.75 
-3.38051 -0.520292 0.75 
-3.37774 -0.50993 0.75 
-3.3749 -0.499279 0.75 
-3.37193 -0.488193 0.75 
-3.36889 -0.476818 0.75 
-3.36578 -0.465152 0.75 
-3.36258 -0.453197 0.75 
-3.35927 -0.440807 0.75 
-3.35596 -0.428417 0.75 
-3.35268 -0.416171 0.75 
-3.34949 -0.404216 0.75 
-3.34641 -0.392695 0.75 
-3.34341 -0.381465 0.75 
-3.34049 -0.370524 0.75 
-3.33764 -0.359873 0.75 
-3.33479 -0.349221 0.75 
-3.33202 -0.33886 0.75 
-3.32933 -0.328789 0.75 
-3.32672 -0.319007 0.75 
-3.3241 -0.309225 0.75 
-3.32073 -0.296618 0.75 
-3.3174 -0.284155 0.75 
-3.31419 -0.272128 0.75 
-3.31113 -0.260679 0.75 
-3.3081 -0.249376 0.75 
-3.30497 -0.237638 0.75 
-3.30168 -0.225321 0.75 
-3.29823 -0.212423 0.75 
-3.29554 -0.202352 0.75 
-3.29277 -0.19199 0.75 
-3.28992 -0.181339 0.75 
-3.28696 -0.170253 0.75 
-3.28392 -0.158878 0.75 
-3.2808 -0.147212 0.75 
-3.27761 -0.135257 0.75 
-3.27453 -0.123736 0.75 
-3.27145 -0.112216 0.75 
-3.26837 -0.100695 0.75 
-3.26529 -0.089174 0.75 
-3.26233 -0.078088 0.75 
-3.25944 -0.067292 0.75 
-3.25659 -0.056641 0.75 
-3.25375 -0.04599 0.75 
-3.25102 -0.035774 0.75 
-3.24836 -0.025847 0.75 
-3.24495 -0.013095 0.75 
-3.24162 -0.000632 0.75 
-3.23829 0.01183 0.75 
-3.23504 0.024003 0.75 
-3.23195 0.0356 0.75 
-3.22909 0.046634 0.75 
-3.22645 0.057106 0.75 
-3.22402 0.067013 0.75 
-3.22127 0.078617 0.75 
-3.21882 0.089365 0.75 
-3.21628 0.10094 0.75 
-3.21397 0.11195 0.75 
-3.21194 0.122023 0.75 
-3.20981 0.132993 0.75 
-3.20759 0.144863 0.75 
-3.20575 0.155047 0.75 
-3.20386 0.165832 0.75 
-3.20192 0.177218 0.75 
-3.19994 0.189206 0.75 
-3.19792 0.201795 0.75 
-3.19594 0.214542 0.75 
-3.19409 0.226855 0.75 
-3.19241 0.238585 0.75 
-3.19076 0.250622 0.75 
-3.18916 0.262817 0.75 
-3.18763 0.275022 0.75 
-3.18622 0.286787 0.75 
-3.18489 0.298411 0.75 
-3.18366 0.309594 0.75 
-3.18251 0.320634 0.75 
-3.18145 0.331231 0.75 
-3.18045 0.341684 0.75 
-3.17951 0.352141 0.75 
-3.17864 0.362154 0.75 
-3.17768 0.37389 0.75 
-3.1768 0.385331 0.75 
-3.17602 0.396178 0.75 
-3.17532 0.406579 0.75 
-3.17468 0.416684 0.75 
-3.17409 0.426792 0.75 
-3.17355 0.436902 0.75 
-3.17299 0.448439 0.75 
-3.1725 0.459678 0.75 
-3.17208 0.47032 0.75 
-3.17174 0.480364 0.75 
-3.17141 0.491384 0.75 
-3.17115 0.501806 0.75 
-3.17092 0.513203 0.75 
-3.17074 0.524602 0.75 
-3.17063 0.534801 0.75 
-3.17055 0.545676 0.75 
-3.17053 0.556251 0.75 
-3.17056 0.566376 0.75 
-3.17065 0.576875 0.75 
-3.17078 0.5876 0.75 
-3.17096 0.598098 0.75 
-3.1712 0.60882 0.75 
