ply
format ascii 1.0
element vertex 2015
property float x
property float y
property float z
end_header
0.007106 -0.009009 0.75 
0.015569 -0.020099 0.75 
0.024991 -0.03272 0.75 
0.034 -0.045086 0.75 
0.043945 -0.059181 0.75 
0.050842 -0.069183 0.75 
0.058419 -0.080357 0.75 
0.069553 -0.097091 0.75 
0.075552 -0.106252 0.75 
0.086746 -0.123663 0.75 
0.099599 -0.144285 0.75 
0.10514 -0.153381 0.75 
0.11393 -0.168049 0.75 
0.120102 -0.178514 0.75 
0.129816 -0.195249 0.75 
0.134844 -0.204037 0.75 
0.140058 -0.213237 0.75 
0.147171 -0.22593 0.75 
0.152673 -0.235829 0.75 
0.158321 -0.24599 0.75 
0.166119 -0.260018 0.75 
0.172131 -0.270835 0.75 
0.178362 -0.282044 0.75 
0.186888 -0.297384 0.75 
0.193338 -0.308987 0.75 
0.199714 -0.320459 0.75 
0.208022 -0.335405 0.75 
0.214253 -0.346615 0.75 
0.220265 -0.357431 0.75 
0.229994 -0.374934 0.75 
0.235569 -0.384964 0.75 
0.246646 -0.404892 0.75 
0.252002 -0.414528 0.75 
0.257577 -0.424558 0.75 
0.265229 -0.438324 0.75 
0.271168 -0.449009 0.75 
0.300683 -0.502108 0.75 
0.306914 -0.513317 0.75 
0.317007 -0.531476 0.75 
0.322801 -0.541899 0.75 
0.328594 -0.552322 0.75 
0.33989 -0.572643 0.75 
0.345246 -0.58228 0.75 
0.357447 -0.604244 0.75 
0.36285 -0.614026 0.75 
0.375997 -0.638037 0.75 
0.381894 -0.648916 0.75 
0.396102 -0.675424 0.75 
0.402241 -0.687025 0.75 
0.415801 -0.713026 0.75 
0.421247 -0.723635 0.75 
0.433648 -0.748208 0.75 
0.438673 -0.758357 0.75 
0.44999 -0.781459 0.75 
0.455078 -0.791744 0.75 
0.467597 -0.816762 0.75 
0.473247 -0.82794 0.75 
0.487112 -0.855134 0.75 
0.493177 -0.866943 0.75 
0.506844 -0.893396 0.75 
0.512476 -0.904246 0.75 
0.529016 -0.935968 0.75 
0.534644 -0.946651 0.75 
0.548503 -0.972665 0.75 
0.554792 -0.984355 0.75 
0.569564 -1.01158 0.75 
0.575858 -1.0231 0.75 
0.589983 -1.0488 0.75 
0.595748 -1.05924 0.75 
0.60909 -1.08331 0.75 
0.614589 -1.09321 0.75 
0.62709 -1.11569 0.75 
0.632687 -1.12571 0.75 
0.646452 -1.15007 0.75 
0.652662 -1.16094 0.75 
0.667896 -1.1874 0.75 
0.674559 -1.19888 0.75 
0.689571 -1.22459 0.75 
0.695757 -1.23513 0.75 
0.709876 -1.25911 0.75 
0.71571 -1.26899 0.75 
0.728728 -1.29101 0.75 
0.734189 -1.30024 0.75 
0.747594 -1.3229 0.75 
0.753666 -1.33316 0.75 
0.768446 -1.35814 0.75 
0.775052 -1.36931 0.75 
0.790519 -1.39545 0.75 
0.79682 -1.4061 0.75 
0.811064 -1.43018 0.75 
0.817059 -1.44031 0.75 
0.830386 -1.46284 0.75 
0.835999 -1.47233 0.75 
0.848382 -1.4935 0.75 
0.854941 -1.50495 0.75 
0.866956 -1.52642 0.75 
0.872427 -1.53642 0.75 
0.880017 -1.55056 0.75 
0.885706 -1.56138 0.75 
0.891174 -1.57198 0.75 
0.896836 -1.58315 0.75 
0.902952 -1.59544 0.75 
0.908138 -1.60593 0.75 
0.916452 -1.62273 0.75 
0.922307 -1.63456 0.75 
0.934822 -1.65983 0.75 
0.939783 -1.66985 0.75 
0.95194 -1.69437 0.75 
0.957438 -1.70546 0.75 
0.970137 -1.73106 0.75 
0.975438 -1.74174 0.75 
0.988076 -1.7672 0.75 
0.993778 -1.77869 0.75 
1.00762 -1.80657 0.75 
1.01365 -1.81873 0.75 
1.02716 -1.84594 0.75 
1.03266 -1.85702 0.75 
1.04183 -1.87549 0.75 
1.04713 -1.88618 0.75 
1.07947 -1.95218 0.75 
1.08502 -1.96399 0.75 
1.09272 -1.98075 0.75 
1.09746 -1.99129 0.75 
1.10189 -2.0013 0.75 
1.10603 -2.01079 0.75 
1.11305 -2.02728 0.75 
1.11731 -2.03753 0.75 
1.1229 -2.05121 0.75 
1.12754 -2.06276 0.75 
1.13445 -2.08035 0.75 
1.1387 -2.09141 0.75 
1.14455 -2.107 0.75 
1.14816 -2.11686 0.75 
1.15551 -2.13749 0.75 
1.1594 -2.14868 0.75 
1.16341 -2.16047 0.75 
1.16754 -2.17285 0.75 
1.17623 -2.19936 0.75 
1.17966 -2.20984 0.75 
1.18813 -2.23571 0.75 
1.19194 -2.24733 0.75 
1.20117 -2.27548 0.75 
1.20517 -2.28766 0.75 
1.21437 -2.31567 0.75 
1.21814 -2.32714 0.75 
1.22645 -2.35275 0.75 
1.22977 -2.36326 0.75 
1.2329 -2.37336 0.75 
1.23876 -2.39275 0.75 
1.24234 -2.40498 0.75 
1.24568 -2.41667 0.75 
1.24878 -2.42779 0.75 
1.25431 -2.44836 0.75 
1.25907 -2.46696 0.75 
1.26147 -2.47672 0.75 
1.26651 -2.49803 0.75 
1.26915 -2.50959 0.75 
1.27335 -2.52801 0.75 
1.27631 -2.54103 0.75 
1.28099 -2.5615 0.75 
1.28344 -2.57225 0.75 
1.29132 -2.60669 0.75 
1.29409 -2.61875 0.75 
1.30054 -2.64689 0.75 
1.30325 -2.65866 0.75 
1.30928 -2.6849 0.75 
1.31175 -2.69565 0.75 
1.31786 -2.72218 0.75 
1.3206 -2.73409 0.75 
1.32728 -2.76311 0.75 
1.33025 -2.77605 0.75 
1.33898 -2.81398 0.75 
1.34176 -2.82604 0.75 
1.348 -2.85316 0.75 
1.3506 -2.86449 0.75 
1.35644 -2.88985 0.75 
1.35891 -2.90059 0.75 
1.36275 -2.91764 0.75 
1.3649 -2.92753 0.75 
1.37064 -2.95507 0.75 
1.37287 -2.9664 0.75 
1.37492 -2.97716 0.75 
1.3768 -2.98733 0.75 
1.38035 -3.00758 0.75 
1.38219 -3.01867 0.75 
1.38407 -3.03037 0.75 
1.38597 -3.04268 0.75 
1.3899 -3.06909 0.75 
1.39145 -3.07955 0.75 
1.39418 -3.09787 0.75 
1.39588 -3.10922 0.75 
1.39764 -3.12101 0.75 
1.40131 -3.14549 0.75 
1.40322 -3.15817 0.75 
1.40884 -3.19548 0.75 
1.41062 -3.20727 0.75 
1.41349 -3.22618 0.75 
1.4152 -3.23752 0.75 
1.41699 -3.24931 0.75 
1.4207 -3.27378 0.75 
1.42262 -3.28646 0.75 
1.43429 -3.36343 0.75 
1.43612 -3.37552 0.75 
1.4402 -3.40244 0.75 
1.44192 -3.41378 0.75 
1.44574 -3.43907 0.75 
1.44733 -3.44952 0.75 
1.45093 -3.47333 0.75 
1.45245 -3.48334 0.75 
1.45401 -3.49364 0.75 
1.45617 -3.50788 0.75 
1.45784 -3.51893 0.75 
1.45956 -3.53028 0.75 
1.46194 -3.546 0.75 
1.46379 -3.55823 0.75 
1.46569 -3.57076 0.75 
1.46825 -3.58767 0.75 
1.47015 -3.6002 0.75 
1.472 -3.61244 0.75 
1.47447 -3.62875 0.75 
1.47626 -3.64054 0.75 
1.47802 -3.65218 0.75 
1.48027 -3.66702 0.75 
1.48192 -3.67792 0.75 
1.48357 -3.68882 0.75 
1.48577 -3.70335 0.75 
1.48749 -3.7147 0.75 
1.48925 -3.72634 0.75 
1.49291 -3.75051 0.75 
1.49483 -3.76319 0.75 
1.4994 -3.79337 0.75 
1.5013 -3.80591 0.75 
1.50562 -3.83446 0.75 
1.50741 -3.84625 0.75 
1.50915 -3.85774 0.75 
1.51138 -3.87257 0.75 
1.51293 -3.88334 0.75 
1.51439 -3.89381 0.75 
1.517 -3.91359 0.75 
1.51855 -3.92609 0.75 
1.52059 -3.94383 0.75 
1.52177 -3.95486 0.75 
1.5233 -3.97024 0.75 
1.52437 -3.98211 0.75 
1.52539 -3.9943 0.75 
1.52619 -4.00477 0.75 
1.52773 -4.02751 0.75 
1.52847 -4.03979 0.75 
1.5296 -4.05941 0.75 
1.53019 -4.06966 0.75 
1.53166 -4.0949 0.75 
1.53233 -4.10635 0.75 
1.53396 -4.13428 0.75 
1.5347 -4.14678 0.75 
1.53642 -4.17606 0.75 
1.53712 -4.18796 0.75 
1.53875 -4.21544 0.75 
1.53942 -4.22675 0.75 
1.54094 -4.25243 0.75 
1.54162 -4.26388 0.75 
1.54232 -4.27563 0.75 
1.54377 -4.30004 0.75 
1.54454 -4.31284 0.75 
1.54637 -4.34361 0.75 
1.54714 -4.35672 0.75 
1.54888 -4.38599 0.75 
1.54959 -4.39789 0.75 
1.5503 -4.4098 0.75 
1.55168 -4.433 0.75 
1.55233 -4.44401 0.75 
1.55381 -4.46879 0.75 
1.55444 -4.4795 0.75 
1.556 -4.50577 0.75 
1.5567 -4.51753 0.75 
1.55893 -4.55504 0.75 
1.55972 -4.56829 0.75 
1.56149 -4.59801 0.75 
1.56221 -4.61022 0.75 
1.56292 -4.62212 0.75 
1.56362 -4.63402 0.75 
1.56431 -4.64563 0.75 
1.56499 -4.65693 0.75 
1.56651 -4.68261 0.75 
1.56714 -4.69316 0.75 
1.56855 -4.7169 0.75 
1.56933 -4.73007 0.75 
1.57029 -4.74617 0.75 
1.57104 -4.75875 0.75 
1.57265 -4.78592 0.75 
1.57334 -4.7976 0.75 
1.57404 -4.80928 0.75 
1.57472 -4.82066 0.75 
1.57551 -4.83406 0.75 
1.57644 -4.84978 0.75 
1.57704 -4.85981 0.75 
1.58448 -4.98491 0.75 
1.58537 -5.00003 0.75 
1.58605 -5.01141 0.75 
1.5873 -5.03237 0.75 
1.58796 -5.0436 0.75 
1.58863 -5.05483 0.75 
1.58938 -5.06553 0.75 
1.59036 -5.07636 0.75 
1.59145 -5.0871 0.75 
1.59292 -5.10022 0.75 
1.59429 -5.11169 0.75 
1.59588 -5.12434 0.75 
1.59841 -5.14337 0.75 
1.59986 -5.15377 0.75 
1.60312 -5.17634 0.75 
1.60488 -5.18851 0.75 
1.60769 -5.20796 0.75 
1.60916 -5.21813 0.75 
1.61277 -5.24315 0.75 
1.6144 -5.2545 0.75 
1.61837 -5.2822 0.75 
1.62013 -5.29445 0.75 
1.6248 -5.32711 0.75 
1.62655 -5.33937 0.75 
1.63084 -5.36943 0.75 
1.63272 -5.38258 0.75 
1.63709 -5.41324 0.75 
1.63897 -5.42638 0.75 
1.64197 -5.44739 0.75 
1.64372 -5.45965 0.75 
1.64548 -5.4719 0.75 
1.64885 -5.49551 0.75 
1.65047 -5.50687 0.75 
1.65405 -5.53189 0.75 
1.65555 -5.54235 0.75 
1.65906 -5.56693 0.75 
1.66062 -5.57784 0.75 
1.66335 -5.59692 0.75 
1.66504 -5.60873 0.75 
1.6668 -5.62098 0.75 
1.67043 -5.64637 0.75 
1.67231 -5.65951 0.75 
1.67542 -5.68126 0.75 
1.67724 -5.69396 0.75 
1.67899 -5.70621 0.75 
1.68236 -5.72982 0.75 
1.68399 -5.74118 0.75 
1.68918 -5.77749 0.75 
1.691 -5.79018 0.75 
1.69413 -5.81208 0.75 
1.69601 -5.82522 0.75 
1.69789 -5.83836 0.75 
1.70152 -5.86376 0.75 
1.70328 -5.87601 0.75 
1.70824 -5.91068 0.75 
1.70986 -5.92204 0.75 
1.71244 -5.94008 0.75 
1.71394 -5.95055 0.75 
1.71534 -5.96058 0.75 
1.71788 -5.97976 0.75 
1.71936 -5.99182 0.75 
1.72131 -6.0088 0.75 
1.72244 -6.0194 0.75 
1.72389 -6.03417 0.75 
1.72489 -6.04546 0.75 
1.7258 -6.05674 0.75 
1.7267 -6.06894 0.75 
1.72758 -6.08218 0.75 
1.72826 -6.09341 0.75 
1.72934 -6.11138 0.75 
1.73011 -6.1241 0.75 
1.73136 -6.14432 0.75 
1.73202 -6.15487 0.75 
1.73343 -6.17718 0.75 
1.73417 -6.18878 0.75 
1.73861 -6.25711 0.75 
1.73938 -6.26871 0.75 
1.74118 -6.29587 0.75 
1.7419 -6.30687 0.75 
1.74352 -6.33134 0.75 
1.74439 -6.34451 0.75 
1.74563 -6.36322 0.75 
1.7464 -6.3749 0.75 
1.74747 -6.39121 0.75 
1.74814 -6.40139 0.75 
1.74912 -6.41621 0.75 
1.7498 -6.42654 0.75 
1.7513 -6.44929 0.75 
1.75188 -6.46037 0.75 
1.75229 -6.47582 0.75 
1.75226 -6.48774 0.75 
1.75195 -6.49876 0.75 
1.75127 -6.51059 0.75 
1.75033 -6.5212 0.75 
1.74845 -6.53562 0.75 
1.74652 -6.5464 0.75 
1.7442 -6.55664 0.75 
1.73882 -6.56819 0.75 
1.73366 -6.57767 0.75 
1.72872 -6.5866 0.75 
1.72086 -6.60059 0.75 
1.71515 -6.61063 0.75 
1.70991 -6.61982 0.75 
1.7042 -6.62977 0.75 
1.69794 -6.64062 0.75 
1.69259 -6.64983 0.75 
1.68541 -6.66205 0.75 
1.67929 -6.67238 0.75 
1.66951 -6.68872 0.75 
1.66429 -6.6974 0.75 
1.65889 -6.70632 0.75 
1.64759 -6.7249 0.75 
1.6416 -6.73469 0.75 
1.62696 -6.75852 0.75 
1.62047 -6.76906 0.75 
1.6056 -6.79311 0.75 
1.59906 -6.80362 0.75 
1.58307 -6.82908 0.75 
1.57587 -6.84042 0.75 
1.55893 -6.86689 0.75 
1.55173 -6.87804 0.75 
1.53503 -6.90377 0.75 
1.52811 -6.91439 0.75 
1.51052 -6.94124 0.75 
1.50422 -6.95084 0.75 
1.4938 -6.96669 0.75 
1.48775 -6.97591 0.75 
1.46515 -7.00951 0.75 
1.45814 -7.01962 0.75 
1.45141 -7.02919 0.75 
1.44497 -7.03823 0.75 
1.43296 -7.05472 0.75 
1.42611 -7.06393 0.75 
1.41973 -7.07236 0.75 
1.41329 -7.08075 0.75 
1.40623 -7.0898 0.75 
1.39855 -7.0995 0.75 
1.38805 -7.11252 0.75 
1.37583 -7.12732 0.75 
1.36907 -7.13536 0.75 
1.35424 -7.15268 0.75 
1.34617 -7.16196 0.75 
1.33541 -7.17417 0.75 
1.32867 -7.18173 0.75 
1.30936 -7.20309 0.75 
1.30187 -7.21118 0.75 
1.28493 -7.22892 0.75 
1.27564 -7.2383 0.75 
1.26223 -7.2514 0.75 
1.25372 -7.25943 0.75 
1.23774 -7.27396 0.75 
1.22852 -7.28199 0.75 
1.21976 -7.2894 0.75 
1.2117 -7.29602 0.75 
1.20382 -7.30237 0.75 
1.19525 -7.3093 0.75 
1.18598 -7.3168 0.75 
1.17805 -7.32323 0.75 
1.16536 -7.33354 0.75 
1.15629 -7.34092 0.75 
1.14176 -7.35277 0.75 
1.13154 -7.36112 0.75 
1.1154 -7.37433 0.75 
1.10687 -7.38132 0.75 
1.08606 -7.3984 0.75 
1.07685 -7.40597 0.75 
1.05578 -7.42322 0.75 
1.0472 -7.43014 0.75 
1.03882 -7.43683 0.75 
1.02267 -7.44954 0.75 
1.01247 -7.45744 0.75 
0.998024 -7.46842 0.75 
0.988895 -7.47525 0.75 
0.975967 -7.48476 0.75 
0.966059 -7.49192 0.75 
0.95683 -7.49849 0.75 
0.94792 -7.50472 0.75 
0.939455 -7.51055 0.75 
0.929884 -7.51701 0.75 
0.919256 -7.52406 0.75 
0.903149 -7.5345 0.75 
0.894295 -7.54015 0.75 
0.874972 -7.55225 0.75 
0.864498 -7.5587 0.75 
0.85348 -7.56541 0.75 
0.844808 -7.57064 0.75 
0.83586 -7.57598 0.75 
0.818156 -7.58642 0.75 
0.806991 -7.59288 0.75 
0.791212 -7.60185 0.75 
0.781257 -7.60741 0.75 
0.767182 -7.61512 0.75 
0.757936 -7.62009 0.75 
0.737764 -7.63072 0.75 
0.726833 -7.63636 0.75 
0.712322 -7.64373 0.75 
0.703268 -7.64826 0.75 
0.693806 -7.65298 0.75 
0.674077 -7.66283 0.75 
0.663811 -7.66796 0.75 
0.638517 -7.68059 0.75 
0.62718 -7.68626 0.75 
0.599744 -7.69998 0.75 
0.587873 -7.70592 0.75 
0.561515 -7.71911 0.75 
0.550719 -7.72452 0.75 
0.529931 -7.73493 0.75 
0.51927 -7.74028 0.75 
0.489497 -7.75519 0.75 
0.457982 -7.77098 0.75 
0.446113 -7.77693 0.75 
0.422375 -7.78882 0.75 
0.410908 -7.79457 0.75 
0.39971 -7.80018 0.75 
0.378117 -7.81099 0.75 
0.367857 -7.81613 0.75 
0.344991 -7.82759 0.75 
0.335401 -7.83239 0.75 
0.311864 -7.84418 0.75 
0.301201 -7.84952 0.75 
0.27525 -7.86252 0.75 
0.263649 -7.86833 0.75 
0.23649 -7.88193 0.75 
0.225023 -7.88767 0.75 
0.19934 -7.90054 0.75 
0.188678 -7.90588 0.75 
0.154478 -7.92301 0.75 
0.144896 -7.92783 0.75 
0.126606 -7.93719 0.75 
0.115178 -7.94318 0.75 
0.099173 -7.95174 0.75 
0.089168 -7.9572 0.75 
0.075149 -7.96502 0.75 
0.064526 -7.97107 0.75 
0.05473 -7.97675 0.75 
0.045755 -7.98205 0.75 
0.036565 -7.98758 0.75 
0.027929 -7.99287 0.75 
0.019079 -7.99838 0.75 
0.00989 -8.00419 0.75 
0.001247 -8.00975 0.75 
-0.013918 -8.01972 0.75 
-0.032858 -8.03255 0.75 
-0.053175 -8.04668 0.75 
-0.061376 -8.05249 0.75 
-0.072696 -8.06065 0.75 
-0.090549 -8.07384 0.75 
-0.110831 -8.0893 0.75 
-0.119714 -8.0962 0.75 
-0.133851 -8.10734 0.75 
-0.143813 -8.1153 0.75 
-0.165007 -8.13251 0.75 
-0.173401 -8.13942 0.75 
-0.192449 -8.15534 0.75 
-0.200165 -8.16189 0.75 
-0.216914 -8.17635 0.75 
-0.225816 -8.18417 0.75 
-0.238238 -8.19526 0.75 
-0.246017 -8.20231 0.75 
-0.257937 -8.21328 0.75 
-0.266377 -8.22117 0.75 
-0.279659 -8.23376 0.75 
-0.288413 -8.24218 0.75 
-0.300643 -8.25413 0.75 
-0.308201 -8.26164 0.75 
-0.3194 -8.27292 0.75 
-0.327264 -8.28097 0.75 
-0.339754 -8.29393 0.75 
-0.348536 -8.30317 0.75 
-0.36238 -8.31795 0.75 
-0.369561 -8.32572 0.75 
-0.382065 -8.33938 0.75 
-0.389763 -8.34789 0.75 
-0.39775 -8.35675 0.75 
-0.414336 -8.37512 0.75 
-0.422936 -8.38463 0.75 
-0.443726 -8.4076 0.75 
-0.452643 -8.41743 0.75 
-0.47286 -8.4397 0.75 
-0.481185 -8.44885 0.75 
-0.500319 -8.46987 0.75 
-0.50815 -8.47846 0.75 
-0.525591 -8.49758 0.75 
-0.532723 -8.50539 0.75 
-0.548233 -8.52261 0.75 
-0.556475 -8.53194 0.75 
-0.566168 -8.54309 0.75 
-0.573385 -8.55152 0.75 
-0.580159 -8.55955 0.75 
-0.590929 -8.57254 0.75 
-0.601685 -8.58583 0.75 
-0.607974 -8.59377 0.75 
-0.616183 -8.60429 0.75 
-0.623533 -8.61387 0.75 
-0.63139 -8.6242 0.75 
-0.638113 -8.63303 0.75 
-0.64893 -8.64723 0.75 
-0.656569 -8.65725 0.75 
-0.668671 -8.67311 0.75 
-0.675089 -8.68152 0.75 
-0.690799 -8.70208 0.75 
-0.697861 -8.71131 0.75 
-0.715133 -8.73389 0.75 
-0.722656 -8.74371 0.75 
-0.740941 -8.76759 0.75 
-0.749011 -8.77813 0.75 
-0.767841 -8.80272 0.75 
-0.77591 -8.81326 0.75 
-0.794008 -8.83691 0.75 
-0.801529 -8.84674 0.75 
-0.818713 -8.86919 0.75 
-0.825687 -8.8783 0.75 
-0.832462 -8.88719 0.75 
-0.845328 -8.90435 0.75 
-0.851334 -8.91251 0.75 
-0.864478 -8.93068 0.75 
-0.871416 -8.94047 0.75 
-0.881097 -8.95438 0.75 
-0.88702 -8.96305 0.75 
-0.897696 -8.97901 0.75 
-0.903566 -8.98798 0.75 
-0.909887 -8.99783 0.75 
-0.918518 -9.01163 0.75 
-0.923878 -9.02039 0.75 
-0.929641 -9.02997 0.75 
-0.935798 -9.04035 0.75 
-0.942339 -9.05156 0.75 
-0.94788 -9.06118 0.75 
-0.956691 -9.0767 0.75 
-0.962843 -9.0877 0.75 
-0.972518 -9.10514 0.75 
-0.977652 -9.11439 0.75 
-0.982938 -9.12389 0.75 
-0.993964 -9.14368 0.75 
-0.999778 -9.15409 0.75 
-1.01395 -9.17942 0.75 
-1.02023 -9.1906 0.75 
-1.03654 -9.21963 0.75 
-1.0424 -9.23002 0.75 
-1.05172 -9.24655 0.75 
-1.05714 -9.25615 0.75 
-1.06279 -9.26614 0.75 
-1.07452 -9.2869 0.75 
-1.0806 -9.29768 0.75 
-1.09119 -9.31642 0.75 
-1.09772 -9.32798 0.75 
-1.10424 -9.33954 0.75 
-1.11685 -9.36187 0.75 
-1.12294 -9.37265 0.75 
-1.13691 -9.39741 0.75 
-1.14277 -9.40779 0.75 
-1.156 -9.43124 0.75 
-1.16141 -9.44084 0.75 
-1.17317 -9.46203 0.75 
-1.17938 -9.4735 0.75 
-1.18803 -9.4898 0.75 
-1.19335 -9.50005 0.75 
-1.19833 -9.5098 0.75 
-1.20298 -9.51905 0.75 
-1.2113 -9.53603 0.75 
-1.22033 -9.55515 0.75 
-1.22995 -9.57631 0.75 
-1.23402 -9.58551 0.75 
-1.24046 -9.60037 0.75 
-1.24498 -9.611 0.75 
-1.25207 -9.62803 0.75 
-1.25701 -9.64011 0.75 
-1.26211 -9.65278 0.75 
-1.26601 -9.6626 0.75 
-1.27004 -9.67287 0.75 
-1.27687 -9.69057 0.75 
-1.2811 -9.70172 0.75 
-1.28806 -9.72033 0.75 
-1.29201 -9.7311 0.75 
-1.29705 -9.74507 0.75 
-1.30838 -9.77766 0.75 
-1.31244 -9.78975 0.75 
-1.31802 -9.80686 0.75 
-1.32142 -9.81758 0.75 
-1.32608 -9.83263 0.75 
-1.33344 -9.85751 0.75 
-1.3366 -9.86862 0.75 
-1.34153 -9.8864 0.75 
-1.34499 -9.89898 0.75 
-1.35049 -9.91894 0.75 
-1.35339 -9.92942 0.75 
-1.36049 -9.95508 0.75 
-1.36368 -9.96657 0.75 
-1.37154 -9.99482 0.75 
-1.37499 -10.0072 0.75 
-1.38173 -10.0313 0.75 
-1.38494 -10.0428 0.75 
-1.38807 -10.054 0.75 
-1.39427 -10.0761 0.75 
-1.39749 -10.0876 0.75 
-1.40532 -10.1155 0.75 
-1.40883 -10.128 0.75 
-1.41719 -10.1578 0.75 
-1.42077 -10.1706 0.75 
-1.42435 -10.1834 0.75 
-1.43135 -10.2084 0.75 
-1.43473 -10.2204 0.75 
-1.44014 -10.2397 0.75 
-1.44324 -10.2508 0.75 
-1.44623 -10.2615 0.75 
-1.45182 -10.2822 0.75 
-1.45438 -10.292 0.75 
-1.45986 -10.3138 0.75 
-1.46268 -10.3255 0.75 
-1.46652 -10.342 0.75 
-1.46881 -10.3522 0.75 
-1.47187 -10.3664 0.75 
-1.47413 -10.3774 0.75 
-1.47625 -10.388 0.75 
-1.47845 -10.3996 0.75 
-1.48074 -10.4121 0.75 
-1.48268 -10.4227 0.75 
-1.48579 -10.4397 0.75 
-1.48801 -10.4518 0.75 
-1.49278 -10.4777 0.75 
-1.49469 -10.4881 0.75 
-1.49938 -10.5136 0.75 
-1.5015 -10.525 0.75 
-1.50667 -10.553 0.75 
-1.50892 -10.5651 0.75 
-1.51112 -10.577 0.75 
-1.51558 -10.601 0.75 
-1.51792 -10.6137 0.75 
-1.52359 -10.6443 0.75 
-1.52613 -10.6579 0.75 
-1.53205 -10.6898 0.75 
-1.53447 -10.7029 0.75 
-1.53683 -10.7156 0.75 
-1.5414 -10.7403 0.75 
-1.54358 -10.752 0.75 
-1.54709 -10.771 0.75 
-1.5491 -10.7818 0.75 
-1.55116 -10.7929 0.75 
-1.55546 -10.8161 0.75 
-1.55771 -10.8283 0.75 
-1.56319 -10.8578 0.75 
-1.56561 -10.8709 0.75 
-1.57115 -10.9007 0.75 
-1.57341 -10.9129 0.75 
-1.57862 -10.941 0.75 
-1.58076 -10.9526 0.75 
-1.58623 -10.9821 0.75 
-1.58824 -10.9929 0.75 
-1.59301 -11.0187 0.75 
-1.59516 -11.0302 0.75 
-1.6004 -11.0585 0.75 
-1.60274 -11.0711 0.75 
-1.60811 -11.1001 0.75 
-1.61036 -11.1122 0.75 
-1.61549 -11.1399 0.75 
-1.61767 -11.1516 0.75 
-1.62246 -11.1775 0.75 
-1.62447 -11.1883 0.75 
-1.62899 -11.2128 0.75 
-1.63079 -11.2227 0.75 
-1.63454 -11.2445 0.75 
-1.63645 -11.2562 0.75 
-1.63818 -11.2673 0.75 
-1.63975 -11.2779 0.75 
-1.64214 -11.2949 0.75 
-1.6436 -11.306 0.75 
-1.64521 -11.3191 0.75 
-1.64656 -11.3309 0.75 
-1.64794 -11.3437 0.75 
-1.64906 -11.3546 0.75 
-1.65056 -11.369 0.75 
-1.65183 -11.3812 0.75 
-1.65459 -11.4074 0.75 
-1.65569 -11.418 0.75 
-1.65842 -11.4437 0.75 
-1.65965 -11.4552 0.75 
-1.66266 -11.4835 0.75 
-1.66398 -11.4958 0.75 
-1.66703 -11.5242 0.75 
-1.66831 -11.5361 0.75 
-1.66959 -11.5479 0.75 
-1.67226 -11.5727 0.75 
-1.67365 -11.5856 0.75 
-1.67697 -11.6164 0.75 
-1.67839 -11.6296 0.75 
-1.68167 -11.6601 0.75 
-1.68303 -11.6727 0.75 
-1.68606 -11.7008 0.75 
-1.68729 -11.7122 0.75 
-1.69015 -11.7388 0.75 
-1.69139 -11.7504 0.75 
-1.69443 -11.7787 0.75 
-1.6958 -11.7914 0.75 
-1.69721 -11.8045 0.75 
-1.6991 -11.8221 0.75 
-1.70052 -11.8353 0.75 
-1.70194 -11.8485 0.75 
-1.70384 -11.8661 0.75 
-1.70521 -11.8788 0.75 
-1.70655 -11.8913 0.75 
-1.70954 -11.9191 0.75 
-1.71077 -11.9305 0.75 
-1.7128 -11.9493 0.75 
-1.71403 -11.9603 0.75 
-1.71527 -11.9708 0.75 
-1.71777 -11.9909 0.75 
-1.71945 -12.0035 0.75 
-1.72197 -12.0214 0.75 
-1.72363 -12.0325 0.75 
-1.72607 -12.048 0.75 
-1.73011 -12.0719 0.75 
-1.73194 -12.082 0.75 
-1.73501 -12.0984 0.75 
-1.73726 -12.11 0.75 
-1.74088 -12.1286 0.75 
-1.74343 -12.1417 0.75 
-1.74745 -12.1625 0.75 
-1.74954 -12.1733 0.75 
-1.75469 -12.2 0.75 
-1.75699 -12.212 0.75 
-1.76253 -12.241 0.75 
-1.76485 -12.2531 0.75 
-1.76708 -12.2648 0.75 
-1.77151 -12.2881 0.75 
-1.77365 -12.2994 0.75 
-1.77852 -12.3251 0.75 
-1.78071 -12.3367 0.75 
-1.78606 -12.3649 0.75 
-1.78845 -12.3775 0.75 
-1.79257 -12.3993 0.75 
-1.79504 -12.4123 0.75 
-1.79743 -12.4249 0.75 
-1.80207 -12.4494 0.75 
-1.80438 -12.4615 0.75 
-1.80949 -12.4884 0.75 
-1.81157 -12.4994 0.75 
-1.81623 -12.5239 0.75 
-1.8182 -12.5343 0.75 
-1.82253 -12.5571 0.75 
-1.82485 -12.5693 0.75 
-1.82829 -12.5874 0.75 
-1.83056 -12.5994 0.75 
-1.83375 -12.6162 0.75 
-1.83582 -12.6271 0.75 
-1.83878 -12.6427 0.75 
-1.84072 -12.6529 0.75 
-1.84348 -12.6675 0.75 
-1.84579 -12.6796 0.75 
-1.85332 -12.7193 0.75 
-1.85715 -12.7395 0.75 
-1.861 -12.7597 0.75 
-1.86361 -12.7734 0.75 
-1.86669 -12.789 0.75 
-1.86986 -12.8045 0.75 
-1.87283 -12.8184 0.75 
-1.87558 -12.8308 0.75 
-1.87887 -12.8453 0.75 
-1.88118 -12.8552 0.75 
-1.88372 -12.8658 0.75 
-1.88626 -12.8763 0.75 
-1.88885 -12.8867 0.75 
-1.89149 -12.8971 0.75 
-1.89478 -12.9097 0.75 
-1.89738 -12.9195 0.75 
-1.90036 -12.9298 0.75 
-1.89618 -12.9168 0.75 
-1.89268 -12.9053 0.75 
-1.88715 -12.8867 0.75 
-1.87351 -12.8389 0.75 
-1.86886 -12.8205 0.75 
-1.86542 -12.8054 0.75 
-1.8627 -12.7922 0.75 
-1.86085 -12.7821 0.75 
-1.859 -12.771 0.75 
-1.85743 -12.761 0.75 
-1.85482 -12.7436 0.75 
-1.85335 -12.7334 0.75 
-1.85115 -12.7178 0.75 
-1.84838 -12.6976 0.75 
-1.8469 -12.6866 0.75 
-1.84378 -12.6628 0.75 
-1.84217 -12.65 0.75 
-1.83969 -12.6296 0.75 
-1.83844 -12.6189 0.75 
-1.83545 -12.5928 0.75 
-1.83413 -12.5809 0.75 
-1.83102 -12.5523 0.75 
-1.82972 -12.5402 0.75 
-1.8268 -12.5125 0.75 
-1.82553 -12.5002 0.75 
-1.8226 -12.4703 0.75 
-1.82137 -12.4571 0.75 
-1.8186 -12.4262 0.75 
-1.81749 -12.4134 0.75 
-1.81505 -12.3845 0.75 
-1.81404 -12.3723 0.75 
-1.81184 -12.3452 0.75 
-1.81092 -12.3338 0.75 
-1.80888 -12.3083 0.75 
-1.80805 -12.2979 0.75 
-1.80614 -12.2743 0.75 
-1.80527 -12.2638 0.75 
-1.80435 -12.2529 0.75 
-1.80235 -12.2304 0.75 
-1.80125 -12.2185 0.75 
-1.79843 -12.1896 0.75 
-1.79711 -12.1769 0.75 
-1.79385 -12.1471 0.75 
-1.79242 -12.1348 0.75 
-1.79097 -12.1228 0.75 
-1.78795 -12.0992 0.75 
-1.78642 -12.0878 0.75 
-1.78398 -12.0694 0.75 
-1.78269 -12.059 0.75 
-1.78153 -12.0487 0.75 
-1.77955 -12.0292 0.75 
-1.77847 -12.0169 0.75 
-1.77717 -11.9997 0.75 
-1.77648 -11.989 0.75 
-1.77568 -11.9738 0.75 
-1.7752 -11.9624 0.75 
-1.77476 -11.9478 0.75 
-1.77449 -11.9302 0.75 
-1.77435 -11.9163 0.75 
-1.77408 -11.9062 0.75 
-1.77362 -11.8959 0.75 
-1.77295 -11.8849 0.75 
-1.77219 -11.8745 0.75 
-1.77082 -11.8585 0.75 
-1.76884 -11.8386 0.75 
-1.76762 -11.8274 0.75 
-1.76623 -11.8152 0.75 
-1.76498 -11.8048 0.75 
-1.76323 -11.7909 0.75 
-1.7617 -11.7791 0.75 
-1.75537 -11.7334 0.75 
-1.75382 -11.7226 0.75 
-1.74993 -11.6963 0.75 
-1.74814 -11.6845 0.75 
-1.7436 -11.6555 0.75 
-1.74155 -11.6428 0.75 
-1.73519 -11.6053 0.75 
-1.73307 -11.5935 0.75 
-1.72803 -11.5662 0.75 
-1.72585 -11.555 0.75 
-1.72037 -11.5272 0.75 
-1.71788 -11.5148 0.75 
-1.7153 -11.5021 0.75 
-1.71174 -11.4848 0.75 
-1.70903 -11.4718 0.75 
-1.70628 -11.4588 0.75 
-1.70069 -11.433 0.75 
-1.69791 -11.4205 0.75 
-1.69157 -11.3927 0.75 
-1.6889 -11.3814 0.75 
-1.68621 -11.3703 0.75 
-1.68251 -11.3553 0.75 
-1.67967 -11.3437 0.75 
-1.67677 -11.3317 0.75 
-1.67285 -11.3152 0.75 
-1.66986 -11.3024 0.75 
-1.66687 -11.2895 0.75 
-1.66099 -11.2636 0.75 
-1.65808 -11.2506 0.75 
-1.6534 -11.2295 0.75 
-1.65072 -11.2172 0.75 
-1.64809 -11.2051 0.75 
-1.64463 -11.1891 0.75 
-1.64212 -11.1775 0.75 
-1.63971 -11.1663 0.75 
-1.6366 -11.1517 0.75 
-1.63437 -11.1413 0.75 
-1.63226 -11.131 0.75 
-1.63025 -11.1211 0.75 
-1.62777 -11.1085 0.75 
-1.62291 -11.0821 0.75 
-1.62103 -11.0713 0.75 
-1.61854 -11.0563 0.75 
-1.61671 -11.0446 0.75 
-1.61449 -11.0296 0.75 
-1.61299 -11.0189 0.75 
-1.61109 -11.0047 0.75 
-1.60952 -10.9927 0.75 
-1.60703 -10.9735 0.75 
-1.60571 -10.9635 0.75 
-1.60434 -10.953 0.75 
-1.60146 -10.9311 0.75 
-1.59995 -10.9197 0.75 
-1.59623 -10.8917 0.75 
-1.59455 -10.8791 0.75 
-1.5907 -10.8504 0.75 
-1.58911 -10.8386 0.75 
-1.58545 -10.8114 0.75 
-1.58394 -10.8004 0.75 
-1.58037 -10.7758 0.75 
-1.57883 -10.7658 0.75 
-1.57528 -10.7439 0.75 
-1.57327 -10.7323 0.75 
-1.57031 -10.7159 0.75 
-1.56839 -10.7057 0.75 
-1.5656 -10.6916 0.75 
-1.56337 -10.6808 0.75 
-1.56056 -10.6677 0.75 
-1.55793 -10.656 0.75 
-1.55407 -10.6394 0.75 
-1.54836 -10.6162 0.75 
-1.54574 -10.606 0.75 
-1.54139 -10.5897 0.75 
-1.53823 -10.5781 0.75 
-1.53309 -10.5597 0.75 
-1.53029 -10.55 0.75 
-1.52336 -10.5265 0.75 
-1.52034 -10.5165 0.75 
-1.51163 -10.4887 0.75 
-1.50793 -10.4773 0.75 
-1.50258 -10.4612 0.75 
-1.49918 -10.4512 0.75 
-1.49388 -10.4361 0.75 
-1.49004 -10.4253 0.75 
-1.48166 -10.4025 0.75 
-1.477 -10.3902 0.75 
-1.47207 -10.3773 0.75 
-1.46824 -10.3673 0.75 
-1.46293 -10.3534 0.75 
-1.44574 -10.3084 0.75 
-1.44116 -10.2965 0.75 
-1.43027 -10.2679 0.75 
-1.4257 -10.256 0.75 
-1.41509 -10.2281 0.75 
-1.41069 -10.2166 0.75 
-1.40094 -10.191 0.75 
-1.39697 -10.1805 0.75 
-1.38776 -10.1564 0.75 
-1.38368 -10.1456 0.75 
-1.37362 -10.1192 0.75 
-1.36911 -10.1074 0.75 
-1.3582 -10.0787 0.75 
-1.35347 -10.0663 0.75 
-1.34891 -10.0543 0.75 
-1.3401 -10.0312 0.75 
-1.33586 -10.0201 0.75 
-1.32633 -9.99503 0.75 
-1.32225 -9.98431 0.75 
-1.3124 -9.95844 0.75 
-1.30799 -9.94688 0.75 
-1.29718 -9.9185 0.75 
-1.29246 -9.90609 0.75 
-1.28149 -9.87728 0.75 
-1.27693 -9.8653 0.75 
-1.26665 -9.83832 0.75 
-1.26235 -9.82703 0.75 
-1.25271 -9.80173 0.75 
-1.24857 -9.79103 0.75 
-1.23924 -9.76754 0.75 
-1.23536 -9.75803 0.75 
-1.22659 -9.73706 0.75 
-1.22179 -9.7259 0.75 
-1.21491 -9.71025 0.75 
-1.21054 -9.70054 0.75 
-1.20433 -9.68705 0.75 
-1.19951 -9.6768 0.75 
-1.19316 -9.66363 0.75 
-1.18517 -9.64716 0.75 
-1.1808 -9.63811 0.75 
-1.1713 -9.61838 0.75 
-1.16616 -9.6077 0.75 
-1.15799 -9.59066 0.75 
-1.15223 -9.57862 0.75 
-1.14311 -9.55953 0.75 
-1.13837 -9.54958 0.75 
-1.13008 -9.53218 0.75 
-1.12496 -9.52141 0.75 
-1.11964 -9.51024 0.75 
-1.10861 -9.48708 0.75 
-1.1029 -9.4751 0.75 
-1.09339 -9.45512 0.75 
-1.08768 -9.44314 0.75 
-1.08217 -9.43156 0.75 
-1.07145 -9.40908 0.75 
-1.06613 -9.39791 0.75 
-1.05106 -9.36629 0.75 
-1.04612 -9.35593 0.75 
-1.03828 -9.33948 0.75 
-1.03367 -9.32996 0.75 
-1.02922 -9.32087 0.75 
-1.02057 -9.30356 0.75 
-1.01505 -9.29274 0.75 
-1.00461 -9.2728 0.75 
-0.999718 -9.26368 0.75 
-0.992808 -9.25105 0.75 
-0.98243 -9.23262 0.75 
-0.973838 -9.21783 0.75 
-0.967809 -9.20755 0.75 
-0.958609 -9.19181 0.75 
-0.952938 -9.1821 0.75 
-0.943876 -9.16655 0.75 
-0.937464 -9.15553 0.75 
-0.927291 -9.13802 0.75 
-0.921984 -9.12887 0.75 
-0.912694 -9.11284 0.75 
-0.906944 -9.10291 0.75 
-0.900972 -9.09259 0.75 
-0.888961 -9.07181 0.75 
-0.882771 -9.0611 0.75 
-0.867574 -9.0348 0.75 
-0.860931 -9.02331 0.75 
-0.817841 -8.94876 0.75 
-0.811722 -8.93818 0.75 
-0.798093 -8.91461 0.75 
-0.792573 -8.90507 0.75 
-0.780144 -8.88358 0.75 
-0.774924 -8.87455 0.75 
-0.763395 -8.85462 0.75 
-0.756935 -8.84346 0.75 
-0.747703 -8.82783 0.75 
-0.741776 -8.81809 0.75 
-0.733264 -8.80449 0.75 
-0.726646 -8.79421 0.75 
-0.72041 -8.78475 0.75 
-0.714576 -8.77612 0.75 
-0.708181 -8.76686 0.75 
-0.700715 -8.75634 0.75 
-0.692501 -8.74516 0.75 
-0.686103 -8.73693 0.75 
-0.67715 -8.72778 0.75 
-0.669757 -8.72097 0.75 
-0.659423 -8.7116 0.75 
-0.651943 -8.70489 0.75 
-0.64332 -8.6972 0.75 
-0.630296 -8.68567 0.75 
-0.621251 -8.67767 0.75 
-0.611534 -8.66907 0.75 
-0.603223 -8.66171 0.75 
-0.589861 -8.64987 0.75 
-0.58043 -8.64152 0.75 
-0.565501 -8.62828 0.75 
-0.557589 -8.62127 0.75 
-0.549452 -8.61405 0.75 
-0.532734 -8.59922 0.75 
-0.523814 -8.59131 0.75 
-0.502106 -8.57204 0.75 
-0.492402 -8.56343 0.75 
-0.468786 -8.54247 0.75 
-0.458857 -8.53366 0.75 
-0.43569 -8.51309 0.75 
-0.425873 -8.50438 0.75 
-0.403939 -8.48492 0.75 
-0.395019 -8.47701 0.75 
-0.37488 -8.45914 0.75 
-0.366409 -8.45162 0.75 
-0.347141 -8.43457 0.75 
-0.338512 -8.42701 0.75 
-0.319203 -8.41024 0.75 
-0.311305 -8.40343 0.75 
-0.293807 -8.38847 0.75 
-0.284432 -8.3805 0.75 
-0.271256 -8.36937 0.75 
-0.262993 -8.36242 0.75 
-0.251386 -8.35268 0.75 
-0.242354 -8.34512 0.75 
-0.228578 -8.33366 0.75 
-0.220011 -8.3266 0.75 
-0.206182 -8.31531 0.75 
-0.196389 -8.30738 0.75 
-0.180839 -8.29488 0.75 
-0.172577 -8.28828 0.75 
-0.161193 -8.27922 0.75 
-0.12747 -8.25258 0.75 
-0.117742 -8.24494 0.75 
-0.0955 -8.22748 0.75 
-0.08642 -8.22046 0.75 
-0.065903 -8.20519 0.75 
-0.057428 -8.19912 0.75 
-0.038498 -8.18602 0.75 
-0.028265 -8.17919 0.75 
-0.013781 -8.16982 0.75 
-0.004635 -8.16408 0.75 
0.008294 -8.15618 0.75 
0.018161 -8.15032 0.75 
0.030821 -8.143 0.75 
0.045021 -8.13505 0.75 
0.060156 -8.12677 0.75 
0.07081 -8.12093 0.75 
0.08264 -8.11443 0.75 
0.104968 -8.10211 0.75 
0.114813 -8.09667 0.75 
0.130558 -8.08794 0.75 
0.141706 -8.08176 0.75 
0.157896 -8.07291 0.75 
0.168108 -8.06751 0.75 
0.182528 -8.06013 0.75 
0.191532 -8.05567 0.75 
0.204102 -8.04962 0.75 
0.213686 -8.04515 0.75 
0.225788 -8.03969 0.75 
0.240247 -8.03345 0.75 
0.252313 -8.02848 0.75 
0.270243 -8.0212 0.75 
0.289001 -8.01357 0.75 
0.299628 -8.00924 0.75 
0.313656 -8.00352 0.75 
0.323655 -7.99944 0.75 
0.342469 -7.99175 0.75 
0.353993 -7.98704 0.75 
0.372321 -7.97955 0.75 
0.38197 -7.9756 0.75 
0.405644 -7.96592 0.75 
0.416266 -7.96158 0.75 
0.442439 -7.95088 0.75 
0.454172 -7.94609 0.75 
0.466044 -7.94124 0.75 
0.481734 -7.93482 0.75 
0.49319 -7.93014 0.75 
0.504228 -7.92563 0.75 
0.525439 -7.91687 0.75 
0.535598 -7.91259 0.75 
0.557845 -7.903 0.75 
0.569782 -7.89773 0.75 
0.5866 -7.89014 0.75 
0.597091 -7.88531 0.75 
0.616356 -7.87622 0.75 
0.634295 -7.86749 0.75 
0.643696 -7.86282 0.75 
0.661611 -7.8537 0.75 
0.671919 -7.84833 0.75 
0.682584 -7.84267 0.75 
0.691695 -7.83776 0.75 
0.706296 -7.82975 0.75 
0.71665 -7.82399 0.75 
0.733101 -7.81469 0.75 
0.744548 -7.80811 0.75 
0.762818 -7.79746 0.75 
0.772309 -7.79185 0.75 
0.781389 -7.78643 0.75 
0.793069 -7.77936 0.75 
0.804193 -7.77254 0.75 
0.819843 -7.76277 0.75 
0.829592 -7.75658 0.75 
0.847466 -7.74499 0.75 
0.857783 -7.73816 0.75 
0.868423 -7.731 0.75 
0.877469 -7.72483 0.75 
0.907345 -7.70395 0.75 
0.917451 -7.69667 0.75 
0.931525 -7.68619 0.75 
0.940196 -7.6795 0.75 
0.957669 -7.66545 0.75 
0.973979 -7.65152 0.75 
0.987094 -7.63963 0.75 
0.997176 -7.62999 0.75 
1.00813 -7.6191 0.75 
1.02148 -7.6055 0.75 
1.02914 -7.59758 0.75 
1.03738 -7.58895 0.75 
1.04439 -7.58155 0.75 
1.05557 -7.56961 0.75 
1.06352 -7.56103 0.75 
1.07392 -7.54971 0.75 
1.08208 -7.54071 0.75 
1.09877 -7.52192 0.75 
1.10546 -7.51423 0.75 
1.11473 -7.5034 0.75 
1.12279 -7.49382 0.75 
1.13137 -7.48349 0.75 
1.13859 -7.47467 0.75 
1.15402 -7.45551 0.75 
1.16202 -7.44539 0.75 
1.17341 -7.4305 0.75 
1.18037 -7.4211 0.75 
1.18989 -7.4078 0.75 
1.19569 -7.39942 0.75 
1.20362 -7.38758 0.75 
1.20944 -7.37857 0.75 
1.21564 -7.36864 0.75 
1.22478 -7.35323 0.75 
1.23092 -7.34222 0.75 
1.23564 -7.33326 0.75 
1.24044 -7.32384 0.75 
1.24729 -7.30999 0.75 
1.25554 -7.29282 0.75 
1.26024 -7.28285 0.75 
1.26527 -7.27204 0.75 
1.26958 -7.26279 0.75 
1.27649 -7.24797 0.75 
1.28144 -7.23737 0.75 
1.28939 -7.22039 0.75 
1.29499 -7.20844 0.75 
1.30385 -7.18957 0.75 
1.30854 -7.17959 0.75 
1.32001 -7.15523 0.75 
1.32509 -7.14444 0.75 
1.33659 -7.11976 0.75 
1.34111 -7.1097 0.75 
1.35078 -7.08717 0.75 
1.35576 -7.07494 0.75 
1.36254 -7.05747 0.75 
1.3666 -7.04649 0.75 
1.37201 -7.03106 0.75 
1.37524 -7.02139 0.75 
1.37954 -7.0078 0.75 
1.3826 -6.99752 0.75 
1.38576 -6.98626 0.75 
1.38952 -6.97166 0.75 
1.39244 -6.95894 0.75 
1.39446 -6.94902 0.75 
1.39452 -6.93753 0.75 
1.39223 -6.92744 0.75 
1.38962 -6.91642 0.75 
1.38537 -6.89901 0.75 
1.38152 -6.88358 0.75 
1.37877 -6.87275 0.75 
1.37448 -6.85612 0.75 
1.37179 -6.84581 0.75 
1.3689 -6.83494 0.75 
1.36583 -6.82349 0.75 
1.35909 -6.7989 0.75 
1.35637 -6.78915 0.75 
1.34956 -6.76543 0.75 
1.34659 -6.7556 0.75 
1.33967 -6.73395 0.75 
1.33577 -6.72244 0.75 
1.32815 -6.70127 0.75 
1.32446 -6.6916 0.75 
1.31913 -6.67822 0.75 
1.31092 -6.6589 0.75 
1.30503 -6.64609 0.75 
1.29741 -6.63129 0.75 
1.29213 -6.62213 0.75 
1.28657 -6.61367 0.75 
1.2794 -6.6033 0.75 
1.27142 -6.59159 0.75 
1.26098 -6.57611 0.75 
1.25022 -6.56021 0.75 
1.23952 -6.54518 0.75 
1.23277 -6.53618 0.75 
1.22577 -6.52737 0.75 
1.21711 -6.51812 0.75 
1.20996 -6.51074 0.75 
1.20014 -6.50082 0.75 
1.19208 -6.49298 0.75 
1.18364 -6.48521 0.75 
1.17554 -6.47853 0.75 
1.16699 -6.47168 0.75 
1.15804 -6.46462 0.75 
1.147 -6.4561 0.75 
1.13582 -6.44775 0.75 
1.12162 -6.43743 0.75 
1.11326 -6.43147 0.75 
1.10412 -6.42505 0.75 
1.0942 -6.41816 0.75 
1.08349 -6.41082 0.75 
1.07431 -6.40459 0.75 
1.06146 -6.39601 0.75 
1.05148 -6.38948 0.75 
1.04222 -6.3835 0.75 
1.0329 -6.3776 0.75 
1.02279 -6.37129 0.75 
1.0141 -6.36595 0.75 
1.00012 -6.35747 0.75 
0.990068 -6.35148 0.75 
0.974421 -6.34228 0.75 
0.96455 -6.33658 0.75 
0.95059 -6.32866 0.75 
0.939644 -6.32257 0.75 
0.927863 -6.31613 0.75 
0.917823 -6.31074 0.75 
0.901777 -6.30225 0.75 
0.89033 -6.2963 0.75 
0.872029 -6.28696 0.75 
0.862447 -6.28214 0.75 
0.852577 -6.27723 0.75 
0.838847 -6.27048 0.75 
0.828135 -6.26524 0.75 
0.817154 -6.25986 0.75 
0.802067 -6.25247 0.75 
0.790417 -6.24676 0.75 
0.778501 -6.24091 0.75 
0.754674 -6.2292 0.75 
0.742764 -6.22334 0.75 
0.71552 -6.20991 0.75 
0.704423 -6.20443 0.75 
0.693597 -6.19908 0.75 
0.672757 -6.18877 0.75 
0.662473 -6.18368 0.75 
0.639021 -6.17206 0.75 
0.628606 -6.16689 0.75 
0.603139 -6.15427 0.75 
0.591648 -6.14857 0.75 
0.579888 -6.14274 0.75 
0.564029 -6.13488 0.75 
0.552269 -6.12905 0.75 
0.540777 -6.12336 0.75 
0.525993 -6.11603 0.75 
0.514904 -6.11054 0.75 
0.504084 -6.10518 0.75 
0.490106 -6.09825 0.75 
0.479823 -6.09316 0.75 
0.46954 -6.08806 0.75 
0.456342 -6.08159 0.75 
0.446822 -6.07699 0.75 
0.437551 -6.07256 0.75 
0.419758 -6.06422 0.75 
0.408578 -6.05909 0.75 
0.392841 -6.05202 0.75 
0.382954 -6.04768 0.75 
0.336588 -6.02831 0.75 
0.326024 -6.02403 0.75 
0.309212 -6.01719 0.75 
0.297268 -6.01231 0.75 
0.278525 -6.00465 0.75 
0.266312 -5.99964 0.75 
0.248969 -5.99251 0.75 
0.238151 -5.98806 0.75 
0.223038 -5.98182 0.75 
0.213612 -5.97792 0.75 
0.200447 -5.97247 0.75 
0.190264 -5.96824 0.75 
0.17925 -5.96367 0.75 
0.169813 -5.9598 0.75 
0.154657 -5.95366 0.75 
0.143792 -5.94933 0.75 
0.126351 -5.94244 0.75 
0.114055 -5.93764 0.75 
0.094612 -5.93011 0.75 
0.084322 -5.92616 0.75 
0.073745 -5.92211 0.75 
0.059169 -5.91655 0.75 
0.047883 -5.91226 0.75 
0.036326 -5.90783 0.75 
0.020376 -5.90167 0.75 
0.008009 -5.89684 0.75 
-0.004343 -5.89197 0.75 
-0.020785 -5.88542 0.75 
-0.033097 -5.88046 0.75 
-0.045391 -5.87545 0.75 
-0.068808 -5.86574 0.75 
-0.08007 -5.86099 0.75 
-0.105065 -5.85019 0.75 
-0.11515 -5.84574 0.75 
-0.137497 -5.83564 0.75 
-0.149475 -5.83009 0.75 
-0.166427 -5.82208 0.75 
-0.176966 -5.817 0.75 
-0.19164 -5.80979 0.75 
-0.201029 -5.80509 0.75 
-0.215594 -5.79766 0.75 
-0.225979 -5.79227 0.75 
-0.242561 -5.78351 0.75 
-0.254191 -5.77727 0.75 
-0.272495 -5.76729 0.75 
-0.28214 -5.76195 0.75 
-0.291763 -5.75657 0.75 
-0.310409 -5.74596 0.75 
-0.319175 -5.7409 0.75 
-0.3385 -5.72952 0.75 
-0.348788 -5.72334 0.75 
-0.363253 -5.71451 0.75 
-0.37217 -5.70896 0.75 
-0.385737 -5.70039 0.75 
-0.395328 -5.69423 0.75 
-0.410528 -5.68431 0.75 
-0.421306 -5.67722 0.75 
-0.43848 -5.66594 0.75 
-0.447446 -5.66005 0.75 
-0.456665 -5.65401 0.75 
-0.476112 -5.64126 0.75 
-0.486215 -5.63465 0.75 
-0.510884 -5.61852 0.75 
-0.521621 -5.6115 0.75 
-0.545676 -5.5958 0.75 
-0.555665 -5.58929 0.75 
-0.578442 -5.57438 0.75 
-0.587621 -5.56827 0.75 
-0.607933 -5.55453 0.75 
-0.618799 -5.54703 0.75 
-0.634149 -5.53626 0.75 
-0.643673 -5.52947 0.75 
-0.661141 -5.51676 0.75 
-0.671076 -5.50938 0.75 
-0.681195 -5.50175 0.75 
-0.689776 -5.49519 0.75 
-0.703406 -5.48462 0.75 
-0.713099 -5.47705 0.75 
-0.728588 -5.46496 0.75 
-0.736691 -5.45864 0.75 
-0.75663 -5.44311 0.75 
-0.765687 -5.43606 0.75 
-0.787773 -5.41889 0.75 
-0.797664 -5.41121 0.75 
-0.817572 -5.39576 0.75 
-0.840156 -5.37825 0.75 
-0.852477 -5.36868 0.75 
-0.861386 -5.36169 0.75 
-0.878283 -5.34824 0.75 
-0.886273 -5.34177 0.75 
-0.90146 -5.32931 0.75 
-0.910903 -5.32142 0.75 
-0.924056 -5.31027 0.75 
-0.932235 -5.30321 0.75 
-0.943632 -5.29323 0.75 
-0.952201 -5.2856 0.75 
-0.960267 -5.2783 0.75 
-0.968611 -5.27065 0.75 
-0.97756 -5.26232 0.75 
-0.98642 -5.25389 0.75 
-0.997614 -5.24292 0.75 
-1.01095 -5.22932 0.75 
-1.02153 -5.21806 0.75 
-1.03057 -5.20804 0.75 
-1.03731 -5.20028 0.75 
-1.04468 -5.19178 0.75 
-1.0534 -5.18177 0.75 
-1.06421 -5.1694 0.75 
-1.07107 -5.16156 0.75 
-1.08007 -5.15129 0.75 
-1.08833 -5.14188 0.75 
-1.09718 -5.13178 0.75 
-1.1047 -5.12322 0.75 
-1.11667 -5.10957 0.75 
-1.12518 -5.09987 0.75 
-1.14338 -5.07912 0.75 
-1.15065 -5.07084 0.75 
-1.1684 -5.05059 0.75 
-1.17636 -5.04151 0.75 
-1.195 -5.02026 0.75 
-1.20287 -5.01129 0.75 
-1.21052 -5.00253 0.75 
-1.22031 -4.99118 0.75 
-1.22736 -4.9829 0.75 
-1.23418 -4.97481 0.75 
-1.24281 -4.96443 0.75 
-1.25098 -4.95445 0.75 
-1.266 -4.93573 0.75 
-1.27286 -4.927 0.75 
-1.27929 -4.9187 0.75 
-1.2867 -4.90898 0.75 
-1.2935 -4.89992 0.75 
-1.29969 -4.89153 0.75 
-1.30782 -4.88029 0.75 
-1.31827 -4.86545 0.75 
-1.32409 -4.85698 0.75 
-1.33036 -4.84773 0.75 
-1.33706 -4.83769 0.75 
-1.3442 -4.82685 0.75 
-1.35025 -4.81754 0.75 
-1.35988 -4.80252 0.75 
-1.36662 -4.79187 0.75 
-1.37719 -4.77495 0.75 
-1.38275 -4.76596 0.75 
-1.39625 -4.74388 0.75 
-1.40228 -4.73394 0.75 
-1.41691 -4.70958 0.75 
-1.42349 -4.69856 0.75 
-1.43875 -4.67282 0.75 
-1.44527 -4.66178 0.75 
-1.46013 -4.6365 0.75 
-1.46617 -4.62621 0.75 
-1.47951 -4.60317 0.75 
-1.48487 -4.59371 0.75 
-1.49656 -4.57266 0.75 
-1.50271 -4.56133 0.75 
-1.51123 -4.5453 0.75 
-1.51649 -4.53519 0.75 
-1.52378 -4.52089 0.75 
-1.52924 -4.50995 0.75 
-1.53516 -4.49782 0.75 
-1.53959 -4.48855 0.75 
-1.55086 -4.46376 0.75 
-1.55516 -4.45353 0.75 
-1.55905 -4.44378 0.75 
-1.56258 -4.43429 0.75 
-1.5661 -4.42384 0.75 
-1.56971 -4.41319 0.75 
-1.57565 -4.39572 0.75 
-1.58126 -4.37933 0.75 
-1.58484 -4.3689 0.75 
-1.5886 -4.3579 0.75 
-1.59215 -4.34731 0.75 
-1.59533 -4.33754 0.75 
-1.59863 -4.3271 0.75 
-1.60194 -4.31626 0.75 
-1.60625 -4.30151 0.75 
-1.61167 -4.28199 0.75 
-1.61477 -4.27063 0.75 
-1.61811 -4.25841 0.75 
-1.62096 -4.24799 0.75 
-1.62554 -4.23136 0.75 
-1.62881 -4.2195 0.75 
-1.63405 -4.20056 0.75 
-1.6368 -4.19066 0.75 
-1.64357 -4.16631 0.75 
-1.64665 -4.15526 0.75 
-1.65419 -4.12832 0.75 
-1.65748 -4.11655 0.75 
-1.66474 -4.0903 0.75 
-1.66755 -4.07965 0.75 
-1.67349 -4.05585 0.75 
-1.67651 -4.043 0.75 
-1.68058 -4.0247 0.75 
-1.68298 -4.01325 0.75 
-1.68618 -3.99721 0.75 
-1.68807 -3.98719 0.75 
-1.69057 -3.97316 0.75 
-1.69235 -3.96258 0.75 
-1.69418 -3.95103 0.75 
-1.69672 -3.93374 0.75 
-1.69822 -3.92282 0.75 
-1.69975 -3.91099 0.75 
-1.701 -3.90087 0.75 
-1.70323 -3.88172 0.75 
-1.70451 -3.86994 0.75 
-1.70613 -3.85435 0.75 
-1.70741 -3.84121 0.75 
-1.70935 -3.82045 0.75 
-1.71038 -3.80948 0.75 
-1.71144 -3.7982 0.75 
-1.7129 -3.78267 0.75 
-1.71403 -3.77065 0.75 
-1.7152 -3.75833 0.75 
-1.71681 -3.7413 0.75 
-1.71807 -3.72809 0.75 
-1.71932 -3.71487 0.75 
-1.72138 -3.6933 0.75 
-1.72257 -3.68083 0.75 
-1.72515 -3.65297 0.75 
-1.72611 -3.64154 0.75 
-1.72699 -3.63055 0.75 
-1.72851 -3.60945 0.75 
-1.72917 -3.59935 0.75 
-1.7301 -3.5834 0.75 
-1.73072 -3.57127 0.75 
-1.73166 -3.54878 0.75 
-1.73199 -3.53844 0.75 
-1.7323 -3.52637 0.75 
-1.7325 -3.51475 0.75 
-1.73271 -3.4999 0.75 
-1.73285 -3.48925 0.75 
-1.73301 -3.478 0.75 
-1.73318 -3.46615 0.75 
-1.73403 -3.40908 0.75 
-1.73421 -3.39791 0.75 
-1.7347 -3.36656 0.75 
-1.73495 -3.35464 0.75 
-1.73571 -3.32833 0.75 
-1.73611 -3.31761 0.75 
-1.7372 -3.29386 0.75 
-1.73791 -3.28113 0.75 
-1.73905 -3.26317 0.75 
-1.73986 -3.25195 0.75 
-1.74111 -3.23624 0.75 
-1.74218 -3.22422 0.75 
-1.74334 -3.2122 0.75 
-1.74452 -3.19988 0.75 
-1.74546 -3.18844 0.75 
-1.74618 -3.17789 0.75 
-1.74682 -3.16636 0.75 
-1.74736 -3.15175 0.75 
-1.7476 -3.13675 0.75 
-1.74753 -3.12617 0.75 
-1.74741 -3.11613 0.75 
-1.74728 -3.10533 0.75 
-1.74713 -3.09025 0.75 
-1.74694 -3.07 0.75 
-1.74676 -3.04615 0.75 
-1.74674 -3.03408 0.75 
-1.74682 -3.0229 0.75 
-1.74697 -3.01263 0.75 
-1.7473 -2.99906 0.75 
-1.74802 -2.97905 0.75 
-1.74859 -2.96654 0.75 
-1.74914 -2.9559 0.75 
-1.74978 -2.94467 0.75 
-1.75117 -2.92041 0.75 
-1.7519 -2.90738 0.75 
-1.75305 -2.88671 0.75 
-1.75365 -2.87585 0.75 
-1.7551 -2.84927 0.75 
-1.75574 -2.83736 0.75 
-1.75728 -2.80852 0.75 
-1.75793 -2.79617 0.75 
-1.75857 -2.78396 0.75 
-1.75976 -2.76059 0.75 
-1.76025 -2.74942 0.75 
-1.76093 -2.73151 0.75 
-1.76125 -2.72124 0.75 
-1.76177 -2.69852 0.75 
-1.76195 -2.68637 0.75 
-1.76205 -2.66387 0.75 
-1.76199 -2.65352 0.75 
-1.76181 -2.63913 0.75 
-1.76158 -2.6281 0.75 
-1.76121 -2.61438 0.75 
-1.76105 -2.59788 0.75 
-1.76121 -2.58513 0.75 
-1.76155 -2.57479 0.75 
-1.76226 -2.56296 0.75 
-1.76296 -2.55173 0.75 
-1.76376 -2.53676 0.75 
-1.76426 -2.52597 0.75 
-1.76477 -2.51383 0.75 
-1.7652 -2.50266 0.75 
-1.76572 -2.48812 0.75 
-1.76606 -2.47763 0.75 
-1.76785 -2.4229 0.75 
-1.76819 -2.41264 0.75 
-1.76902 -2.38737 0.75 
-1.7694 -2.37591 0.75 
-1.77032 -2.34795 0.75 
-1.77073 -2.33558 0.75 
-1.77167 -2.30732 0.75 
-1.77206 -2.2954 0.75 
-1.77295 -2.26879 0.75 
-1.77331 -2.25792 0.75 
-1.77433 -2.23387 0.75 
-1.775 -2.22098 0.75 
-1.77611 -2.20287 0.75 
-1.7769 -2.1915 0.75 
-1.77815 -2.1755 0.75 
-1.77922 -2.16332 0.75 
-1.7803 -2.15204 0.75 
-1.78137 -2.14167 0.75 
-1.78256 -2.13102 0.75 
-1.78376 -2.12096 0.75 
-1.78507 -2.11062 0.75 
-1.78658 -2.0994 0.75 
-1.78905 -2.0821 0.75 
-1.79065 -2.07142 0.75 
-1.79333 -2.05437 0.75 
-1.79532 -2.04224 0.75 
-1.79863 -2.02287 0.75 
-1.80041 -2.01275 0.75 
-1.80475 -1.98907 0.75 
-1.80719 -1.9764 0.75 
-1.81076 -1.95861 0.75 
-1.81309 -1.94745 0.75 
-1.81757 -1.92693 0.75 
-1.81984 -1.91698 0.75 
-1.82359 -1.90107 0.75 
-1.82635 -1.8897 0.75 
-1.83091 -1.87151 0.75 
-1.83421 -1.85873 0.75 
-1.83941 -1.83916 0.75 
-1.84282 -1.82672 0.75 
-1.84775 -1.80925 0.75 
-1.85093 -1.79831 0.75 
-1.85707 -1.77791 0.75 
-1.86027 -1.7676 0.75 
-1.86551 -1.75116 0.75 
-1.86932 -1.73947 0.75 
-1.8734 -1.72723 0.75 
-1.87664 -1.71764 0.75 
-1.88002 -1.70777 0.75 
-1.88681 -1.68838 0.75 
-1.89117 -1.67624 0.75 
-1.8954 -1.66469 0.75 
-1.89949 -1.65373 0.75 
-1.90723 -1.63356 0.75 
-1.91109 -1.62379 0.75 
-1.91522 -1.61349 0.75 
-1.91964 -1.60266 0.75 
-1.92935 -1.57941 0.75 
-1.93445 -1.56756 0.75 
-1.93942 -1.55631 0.75 
-1.94425 -1.54565 0.75 
-1.95345 -1.52611 0.75 
-1.96197 -1.5089 0.75 
-1.96688 -1.49936 0.75 
-1.97327 -1.48739 0.75 
-1.9811 -1.47338 0.75 
-1.98742 -1.46265 0.75 
-1.9929 -1.45379 0.75 
-1.99859 -1.44523 0.75 
-2.00451 -1.43665 0.75 
-2.01044 -1.42798 0.75 
-2.02983 -1.39936 0.75 
-2.04303 -1.37985 0.75 
-2.04892 -1.37116 0.75 
-2.06525 -1.34726 0.75 
-2.07235 -1.33685 0.75 
-2.08357 -1.32035 0.75 
-2.08951 -1.3116 0.75 
-2.09977 -1.29654 0.75 
-2.10623 -1.28705 0.75 
-2.11286 -1.27733 0.75 
-2.12669 -1.25716 0.75 
-2.13373 -1.24698 0.75 
-2.14552 -1.23006 0.75 
-2.15263 -1.21993 0.75 
-2.1596 -1.21007 0.75 
-2.16867 -1.19738 0.75 
-2.17531 -1.18821 0.75 
-2.18191 -1.17937 0.75 
-2.19054 -1.16823 0.75 
-2.19689 -1.16033 0.75 
-2.21137 -1.14321 0.75 
-2.21937 -1.13427 0.75 
-2.23464 -1.11817 0.75 
-2.24188 -1.11097 0.75 
-2.25221 -1.10116 0.75 
-2.26017 -1.09397 0.75 
-2.26899 -1.08629 0.75 
-2.28058 -1.07665 0.75 
-2.29083 -1.06857 0.75 
-2.29894 -1.06251 0.75 
-2.3086 -1.05753 0.75 
-2.31926 -1.05469 0.75 
-2.33023 -1.05188 0.75 
-2.3437 -1.04855 0.75 
-2.35787 -1.04525 0.75 
-2.37472 -1.04158 0.75 
-2.3953 -1.03739 0.75 
-2.40701 -1.03511 0.75 
-2.42478 -1.0318 0.75 
-2.43585 -1.02981 0.75 
-2.44723 -1.02782 0.75 
-2.45802 -1.026 0.75 
-2.46824 -1.02434 0.75 
-2.48017 -1.02249 0.75 
-2.49123 -1.02086 0.75 
-2.50259 -1.01927 0.75 
-2.51501 -1.01763 0.75 
-2.52833 -1.01596 0.75 
-2.53965 -1.01461 0.75 
-2.55157 -1.01326 0.75 
-2.58395 -1.00988 0.75 
-2.59447 -1.00887 0.75 
-2.62735 -1.00604 0.75 
-2.63947 -1.00513 0.75 
-2.65653 -1.00398 0.75 
-2.66716 -1.00335 0.75 
-2.68304 -1.00253 0.75 
-2.69428 -1.00203 0.75 
-2.71227 -1.00137 0.75 
-2.72486 -1.00099 0.75 
-2.7451 -1.00052 0.75 
-2.75568 -1.00034 0.75 
-2.78185 -0.999939 0.75 
-2.79362 -0.999749 0.75 
-2.83089 -0.999114 0.75 
-2.84401 -0.998879 0.75 
-2.87423 -0.998317 0.75 
-2.88706 -0.99807 0.75 
-2.91548 -0.997506 0.75 
-2.9274 -0.997262 0.75 
-2.95432 -0.996696 0.75 
-2.96534 -0.996458 0.75 
-2.98956 -0.996108 0.75 
-3.00261 -0.99605 0.75 
-3.02106 -0.996132 0.75 
-3.03261 -0.996286 0.75 
-3.04881 -0.99664 0.75 
-3.05885 -0.996946 0.75 
-3.07279 -0.997485 0.75 
-3.09391 -0.998569 0.75 
-3.11681 -1.00009 0.75 
-3.13431 -1.0015 0.75 
-3.14618 -1.00257 0.75 
-3.15895 -1.00382 0.75 
-3.16984 -1.00495 0.75 
-3.19339 -1.00759 0.75 
-3.20605 -1.00912 0.75 
-3.22614 -1.01168 0.75 
-3.23662 -1.01307 0.75 
-3.27026 -1.01782 0.75 
-3.28206 -1.01953 0.75 
-3.30262 -1.02251 0.75 
-3.31532 -1.02435 0.75 
-3.32846 -1.02624 0.75 
-3.34598 -1.02875 0.75 
-3.35912 -1.03063 0.75 
-3.37226 -1.03251 0.75 
-3.38964 -1.03498 0.75 
-3.40233 -1.03679 0.75 
-3.41459 -1.03852 0.75 
-3.43441 -1.04133 0.75 
-3.44578 -1.04293 0.75 
-3.47563 -1.04712 0.75 
-3.48655 -1.04865 0.75 
-3.51292 -1.05234 0.75 
-3.52473 -1.054 0.75 
-3.55377 -1.05807 0.75 
-3.56677 -1.05989 0.75 
-3.57977 -1.06171 0.75 
-3.60517 -1.06527 0.75 
-3.61757 -1.06701 0.75 
-3.62968 -1.06871 0.75 
-3.64527 -1.0709 0.75 
-3.65664 -1.07249 0.75 
-3.67543 -1.07513 0.75 
-3.68635 -1.07667 0.75 
-3.69771 -1.07826 0.75 
-3.72133 -1.08158 0.75 
-3.73358 -1.0833 0.75 
-3.76366 -1.08752 0.75 
-3.77681 -1.08937 0.75 
-3.80659 -1.09355 0.75 
-3.81884 -1.09527 0.75 
-3.84699 -1.09922 0.75 
-3.8585 -1.10084 0.75 
-3.88427 -1.10446 0.75 
-3.89519 -1.10599 0.75 
-3.92111 -1.10963 0.75 
-3.93277 -1.11127 0.75 
-3.96122 -1.11526 0.75 
-3.97392 -1.11704 0.75 
-4.00311 -1.12114 0.75 
-4.01536 -1.12286 0.75 
-4.05562 -1.12851 0.75 
-4.06698 -1.13011 0.75 
-4.09261 -1.13371 0.75 
-4.10338 -1.13522 0.75 
-4.13359 -1.13957 0.75 
-4.14604 -1.14149 0.75 
-4.16366 -1.14436 0.75 
-4.1746 -1.14623 0.75 
-4.18981 -1.14896 0.75 
-4.20153 -1.15117 0.75 
-4.21235 -1.1533 0.75 
-4.22315 -1.1555 0.75 
-4.23467 -1.15793 0.75 
-4.24463 -1.16011 0.75 
-4.26058 -1.1637 0.75 
-4.27199 -1.1663 0.75 
-4.29028 -1.17046 0.75 
-4.30315 -1.17337 0.75 
-4.32349 -1.17796 0.75 
-4.33424 -1.18038 0.75 
-4.36052 -1.18627 0.75 
-4.3723 -1.18891 0.75 
-4.40048 -1.19519 0.75 
-4.41256 -1.19788 0.75 
-4.43987 -1.20394 0.75 
-4.45166 -1.20655 0.75 
-4.48044 -1.21293 0.75 
-4.4934 -1.2158 0.75 
-4.52364 -1.22251 0.75 
-4.5366 -1.22538 0.75 
-4.57431 -1.23375 0.75 
-4.58625 -1.2364 0.75 
-4.61282 -1.24229 0.75 
-4.62403 -1.24478 0.75 
-4.64899 -1.25032 0.75 
-4.65946 -1.25264 0.75 
-4.68516 -1.25835 0.75 
-4.69681 -1.26093 0.75 
-4.72514 -1.26722 0.75 
-4.73766 -1.27 0.75 
-4.76687 -1.27648 0.75 
-4.77939 -1.27926 0.75 
-4.80355 -1.28463 0.75 
-4.8152 -1.28721 0.75 
-4.83731 -1.29212 0.75 
-4.84822 -1.29454 0.75 
-4.87494 -1.30047 0.75 
-4.88702 -1.30315 0.75 
-4.91638 -1.30967 0.75 
-4.92934 -1.31254 0.75 
-4.96705 -1.32091 0.75 
-4.97913 -1.32359 0.75 
-5.01046 -1.33055 0.75 
-5.02167 -1.33303 0.75 
-5.04378 -1.33794 0.75 
-5.05454 -1.34033 0.75 
-5.08024 -1.34604 0.75 
-5.09188 -1.34862 0.75 
-5.10382 -1.35127 0.75 
-5.12856 -1.35676 0.75 
-5.14152 -1.35964 0.75 
-5.17147 -1.36628 0.75 
-5.18384 -1.36903 0.75 
-5.21518 -1.37599 0.75 
-5.22638 -1.37847 0.75 
-5.24849 -1.38338 0.75 
-5.25925 -1.38577 0.75 
-5.28496 -1.39147 0.75 
-5.2966 -1.39405 0.75 
-5.32493 -1.40034 0.75 
-5.3376 -1.40315 0.75 
-5.36725 -1.40974 0.75 
-5.37977 -1.41251 0.75 
-5.392 -1.41523 0.75 
-5.41557 -1.42046 0.75 
-5.42677 -1.42295 0.75 
-5.45203 -1.42855 0.75 
-5.4628 -1.43094 0.75 
-5.48791 -1.43651 0.75 
-5.49911 -1.439 0.75 
-5.52613 -1.445 0.75 
-5.53777 -1.44758 0.75 
-5.56062 -1.45265 0.75 
-5.57555 -1.45597 0.75 
-5.59005 -1.45918 0.75 
-5.62117 -1.46609 0.75 
-5.63105 -1.46828 0.75 
-5.65324 -1.47321 0.75 
-5.66554 -1.47594 0.75 
-5.68925 -1.48129 0.75 
-5.70034 -1.4839 0.75 
-5.71652 -1.48782 0.75 
-5.72671 -1.49037 0.75 
-5.74646 -1.49547 0.75 
-5.76558 -1.50061 0.75 
-5.77679 -1.50372 0.75 
-5.79186 -1.508 0.75 
-5.80799 -1.51271 0.75 
-5.81769 -1.51562 0.75 
-5.83069 -1.51952 0.75 
-5.84836 -1.52481 0.75 
-5.86432 -1.52957 0.75 
-5.8805 -1.53438 0.75 
-5.89416 -1.53843 0.75 
-5.90739 -1.54235 0.75 
-5.91962 -1.54596 0.75 
-5.93357 -1.5501 0.75 
-5.94393 -1.55316 0.75 
-5.95421 -1.55621 0.75 
-5.9645 -1.55926 0.75 
-5.97421 -1.56213 0.75 
-5.98449 -1.56518 0.75 
-5.99628 -1.56867 0.75 
