ply
format ascii 1.0
element vertex 733
property float x
property float y
property float z
end_header
0.012444 -0.000378 0.75 
0.023982 -0.000904 0.75 
0.038809 -0.001724 0.75 
0.051006 -0.002557 0.75 
0.062145 -0.003449 0.75 
0.073052 -0.004417 0.75 
0.08328 -0.005399 0.75 
0.094397 -0.006536 0.75 
0.106402 -0.007838 0.75 
0.119292 -0.009313 0.75 
0.131428 -0.010788 0.75 
0.142659 -0.012242 0.75 
0.153879 -0.013781 0.75 
0.165978 -0.015532 0.75 
0.17636 -0.017101 0.75 
0.193102 -0.019751 0.75 
0.204941 -0.021708 0.75 
0.223714 -0.024943 0.75 
0.233682 -0.026722 0.75 
0.25809 -0.03125 0.75 
0.268769 -0.033305 0.75 
0.292374 -0.03804 0.75 
0.305 -0.040687 0.75 
0.322734 -0.044548 0.75 
0.333854 -0.04706 0.75 
0.349482 -0.050715 0.75 
0.360271 -0.053323 0.75 
0.37759 -0.057645 0.75 
0.389793 -0.060783 0.75 
0.409078 -0.065888 0.75 
0.419292 -0.06863 0.75 
0.444283 -0.075335 0.75 
0.455511 -0.078346 0.75 
0.467029 -0.081434 0.75 
0.482967 -0.085706 0.75 
0.495355 -0.089026 0.75 
0.508033 -0.092423 0.75 
0.52484 -0.096925 0.75 
0.537084 -0.100204 0.75 
0.549037 -0.103404 0.75 
0.572076 -0.109571 0.75 
0.583451 -0.112615 0.75 
0.601637 -0.11748 0.75 
0.612287 -0.120329 0.75 
0.622938 -0.123178 0.75 
0.689812 -0.141066 0.75 
0.702636 -0.144496 0.75 
0.731545 -0.152229 0.75 
0.743644 -0.155465 0.75 
0.770669 -0.162694 0.75 
0.781754 -0.165659 0.75 
0.80733 -0.1725 0.75 
0.817981 -0.175349 0.75 
0.843701 -0.182229 0.75 
0.855221 -0.185311 0.75 
0.88355 -0.192889 0.75 
0.89623 -0.19628 0.75 
0.917169 -0.201881 0.75 
0.929558 -0.205195 0.75 
0.941803 -0.20847 0.75 
0.965277 -0.21475 0.75 
0.976507 -0.217754 0.75 
0.998678 -0.223684 0.75 
1.00933 -0.226533 0.75 
1.03669 -0.233945 0.75 
1.04656 -0.236809 0.75 
1.06226 -0.241644 0.75 
1.07409 -0.245523 0.75 
1.09587 -0.253221 0.75 
1.10582 -0.256995 0.75 
1.11962 -0.262498 0.75 
1.1396 -0.271088 0.75 
1.15606 -0.278733 0.75 
1.17293 -0.286917 0.75 
1.18253 -0.291698 0.75 
1.19744 -0.299275 0.75 
1.20663 -0.30403 0.75 
1.22654 -0.31452 0.75 
1.23724 -0.320266 0.75 
1.24845 -0.326351 0.75 
1.26015 -0.33278 0.75 
1.28502 -0.346695 0.75 
1.29486 -0.352292 0.75 
1.31888 -0.366051 0.75 
1.32961 -0.372202 0.75 
1.35598 -0.387294 0.75 
1.3675 -0.393887 0.75 
1.37902 -0.400477 0.75 
1.40168 -0.413431 0.75 
1.41255 -0.419645 0.75 
1.43698 -0.433593 0.75 
1.44733 -0.439504 0.75 
1.4702 -0.45255 0.75 
1.48004 -0.45816 0.75 
1.50408 -0.471871 0.75 
1.51482 -0.478002 0.75 
1.54121 -0.493051 0.75 
1.55274 -0.499628 0.75 
1.57157 -0.510367 0.75 
1.58245 -0.516573 0.75 
1.59307 -0.52263 0.75 
1.61339 -0.534224 0.75 
1.6231 -0.539761 0.75 
1.63867 -0.548642 0.75 
1.6476 -0.553733 0.75 
1.67268 -0.56804 0.75 
1.68336 -0.574135 0.75 
1.69365 -0.580006 0.75 
1.70343 -0.58558 0.75 
1.72232 -0.596357 0.75 
1.73144 -0.601559 0.75 
1.74499 -0.609289 0.75 
1.75574 -0.61542 0.75 
1.7661 -0.621329 0.75 
1.77619 -0.627089 0.75 
1.78707 -0.633295 0.75 
1.79632 -0.638572 0.75 
1.81118 -0.647044 0.75 
1.82173 -0.653064 0.75 
1.8444 -0.665996 0.75 
1.85346 -0.671162 0.75 
1.87567 -0.683833 0.75 
1.88564 -0.689519 0.75 
1.90636 -0.701336 0.75 
1.91658 -0.707176 0.75 
1.92652 -0.71291 0.75 
1.97117 -0.739515 0.75 
1.98177 -0.746052 0.75 
1.99663 -0.755382 0.75 
2.00586 -0.761275 0.75 
2.0148 -0.767061 0.75 
2.02421 -0.773229 0.75 
2.03919 -0.783208 0.75 
2.04975 -0.790352 0.75 
2.06644 -0.801813 0.75 
2.07515 -0.807818 0.75 
2.08422 -0.814078 0.75 
2.10312 -0.827107 0.75 
2.11293 -0.833876 0.75 
2.13004 -0.845668 0.75 
2.1406 -0.852946 0.75 
2.15153 -0.86048 0.75 
2.16573 -0.870268 0.75 
2.17605 -0.877374 0.75 
2.18611 -0.88431 0.75 
2.20575 -0.89784 0.75 
2.21533 -0.904434 0.75 
2.23664 -0.919104 0.75 
2.24538 -0.925059 0.75 
2.26464 -0.937951 0.75 
2.27505 -0.944784 0.75 
2.29448 -0.957278 0.75 
2.30349 -0.962953 0.75 
2.31203 -0.968256 0.75 
2.32258 -0.974714 0.75 
2.33873 -0.984395 0.75 
2.34868 -0.990258 0.75 
2.35918 -0.996365 0.75 
2.36946 -1.00226 0.75 
2.38856 -1.01298 0.75 
2.39736 -1.01783 0.75 
2.41122 -1.02531 0.75 
2.42116 -1.03058 0.75 
2.43712 -1.0389 0.75 
2.44847 -1.04471 0.75 
2.47287 -1.05695 0.75 
2.48263 -1.06175 0.75 
2.51337 -1.07656 0.75 
2.52375 -1.08146 0.75 
2.54724 -1.09231 0.75 
2.55688 -1.09666 0.75 
2.57807 -1.10604 0.75 
2.5895 -1.11099 0.75 
2.6004 -1.11562 0.75 
2.61078 -1.11996 0.75 
2.63176 -1.1285 0.75 
2.64305 -1.13299 0.75 
2.65493 -1.13763 0.75 
2.66738 -1.14244 0.75 
2.69396 -1.15272 0.75 
2.70452 -1.15681 0.75 
2.73802 -1.1698 0.75 
2.74983 -1.17439 0.75 
2.77759 -1.18517 0.75 
2.78912 -1.18965 0.75 
2.81464 -1.19957 0.75 
2.82533 -1.20374 0.75 
2.84944 -1.21312 0.75 
2.85931 -1.21691 0.75 
2.88102 -1.22504 0.75 
2.89271 -1.2293 0.75 
2.90925 -1.23518 0.75 
2.9196 -1.23876 0.75 
2.93409 -1.24366 0.75 
2.94585 -1.24752 0.75 
2.95849 -1.25157 0.75 
2.96923 -1.25493 0.75 
2.98601 -1.26006 0.75 
2.9968 -1.26326 0.75 
3.01193 -1.26762 0.75 
3.02161 -1.27033 0.75 
3.03724 -1.27459 0.75 
3.04841 -1.27754 0.75 
3.06628 -1.28213 0.75 
3.07894 -1.28529 0.75 
3.09906 -1.29016 0.75 
3.10964 -1.29265 0.75 
3.12053 -1.29516 0.75 
3.14249 -1.30009 0.75 
3.15297 -1.30236 0.75 
3.16978 -1.30589 0.75 
3.18256 -1.30849 0.75 
3.21476 -1.31463 0.75 
3.22539 -1.31653 0.75 
3.24151 -1.31929 0.75 
3.25305 -1.32117 0.75 
3.27158 -1.32407 0.75 
3.28464 -1.32601 0.75 
3.30469 -1.32885 0.75 
3.31747 -1.33055 0.75 
3.33548 -1.33282 0.75 
3.3468 -1.33415 0.75 
3.36276 -1.33591 0.75 
3.3738 -1.33704 0.75 
3.39769 -1.33928 0.75 
3.41055 -1.34037 0.75 
3.43103 -1.34197 0.75 
3.44173 -1.34274 0.75 
3.468 -1.34443 0.75 
3.47946 -1.34509 0.75 
3.505 -1.34635 0.75 
3.51542 -1.34678 0.75 
3.53843 -1.34755 0.75 
3.55073 -1.34785 0.75 
3.56797 -1.34815 0.75 
3.57907 -1.34825 0.75 
3.59632 -1.34829 0.75 
3.60862 -1.34822 0.75 
3.62767 -1.34799 0.75 
3.63967 -1.34775 0.75 
3.65661 -1.34728 0.75 
3.6671 -1.3469 0.75 
3.68314 -1.34621 0.75 
3.69453 -1.34564 0.75 
3.71265 -1.34459 0.75 
3.72552 -1.34376 0.75 
3.74953 -1.34202 0.75 
3.76037 -1.34116 0.75 
3.78294 -1.33922 0.75 
3.79436 -1.33816 0.75 
3.82682 -1.33485 0.75 
3.83688 -1.33373 0.75 
3.85915 -1.33106 0.75 
3.87105 -1.32954 0.75 
3.88785 -1.32725 0.75 
3.89943 -1.32559 0.75 
3.91782 -1.3228 0.75 
3.93086 -1.32073 0.75 
3.95143 -1.31737 0.75 
3.96231 -1.31558 0.75 
3.98888 -1.31123 0.75 
4.0008 -1.30928 0.75 
4.02989 -1.30453 0.75 
4.04299 -1.30239 0.75 
4.08051 -1.29626 0.75 
4.09228 -1.29434 0.75 
4.11945 -1.28991 0.75 
4.13063 -1.28808 0.75 
4.15602 -1.28395 0.75 
4.16734 -1.2821 0.75 
4.19495 -1.2776 0.75 
4.20732 -1.27559 0.75 
4.23744 -1.27067 0.75 
4.2501 -1.26861 0.75 
4.27934 -1.26384 0.75 
4.29141 -1.26188 0.75 
4.31828 -1.2575 0.75 
4.32961 -1.25565 0.75 
4.35485 -1.25152 0.75 
4.36512 -1.24978 0.75 
4.38779 -1.24574 0.75 
4.39988 -1.24347 0.75 
4.41681 -1.24016 0.75 
4.42739 -1.238 0.75 
4.44221 -1.23486 0.75 
4.45444 -1.23216 0.75 
4.46753 -1.22918 0.75 
4.47863 -1.22657 0.75 
4.49628 -1.22233 0.75 
4.50882 -1.21932 0.75 
4.5288 -1.21452 0.75 
4.53923 -1.21202 0.75 
4.59633 -1.19833 0.75 
4.60881 -1.19534 0.75 
4.62901 -1.1905 0.75 
4.64061 -1.18772 0.75 
4.65191 -1.18501 0.75 
4.67051 -1.18056 0.75 
4.68138 -1.17796 0.75 
4.70567 -1.17215 0.75 
4.71595 -1.16969 0.75 
4.73853 -1.16445 0.75 
4.75068 -1.16174 0.75 
4.76784 -1.15806 0.75 
4.77856 -1.15585 0.75 
4.79357 -1.15288 0.75 
4.80573 -1.15057 0.75 
4.81879 -1.1482 0.75 
4.82987 -1.14626 0.75 
4.84762 -1.14326 0.75 
4.86019 -1.14114 0.75 
4.88016 -1.13777 0.75 
4.89059 -1.13601 0.75 
4.90146 -1.13417 0.75 
4.9164 -1.13165 0.75 
4.92801 -1.12969 0.75 
4.93991 -1.12767 0.75 
4.96476 -1.12347 0.75 
4.97711 -1.12138 0.75 
5.00469 -1.11671 0.75 
5.01601 -1.1148 0.75 
5.02732 -1.11288 0.75 
5.04196 -1.1104 0.75 
5.05313 -1.10851 0.75 
5.06459 -1.10657 0.75 
5.08041 -1.10388 0.75 
5.09262 -1.10182 0.75 
5.10526 -1.09967 0.75 
5.12256 -1.09674 0.75 
5.13565 -1.09452 0.75 
5.14859 -1.09233 0.75 
5.17344 -1.08812 0.75 
5.18534 -1.0861 0.75 
5.21263 -1.08148 0.75 
5.22394 -1.07956 0.75 
5.2493 -1.07526 0.75 
5.25988 -1.07347 0.75 
5.28436 -1.06932 0.75 
5.29523 -1.06748 0.75 
5.32207 -1.06293 0.75 
5.33412 -1.06089 0.75 
5.36348 -1.05592 0.75 
5.37657 -1.0537 0.75 
5.40563 -1.04878 0.75 
5.41753 -1.04676 0.75 
5.44482 -1.04214 0.75 
5.45613 -1.04022 0.75 
5.48297 -1.03567 0.75 
5.49503 -1.03363 0.75 
5.50737 -1.03153 0.75 
5.53311 -1.02717 0.75 
5.5462 -1.02496 0.75 
5.57585 -1.01993 0.75 
5.58805 -1.01786 0.75 
5.60025 -1.0158 0.75 
5.61607 -1.01312 0.75 
5.62753 -1.01117 0.75 
5.63885 -1.00926 0.75 
5.66103 -1.0055 0.75 
5.67161 -1.00371 0.75 
5.69682 -0.999432 0.75 
5.70814 -0.997515 0.75 
5.73601 -0.992791 0.75 
5.74851 -0.990674 0.75 
5.77861 -0.985574 0.75 
5.79125 -0.983432 0.75 
5.81972 -0.978608 0.75 
5.83162 -0.97659 0.75 
5.85817 -0.972092 0.75 
5.86904 -0.97025 0.75 
5.8929 -0.966046 0.75 
5.90573 -0.963666 0.75 
5.92384 -0.960155 0.75 
5.93516 -0.957865 0.75 
5.95101 -0.95453 0.75 
5.96083 -0.952385 0.75 
5.97546 -0.949073 0.75 
5.98583 -0.946645 0.75 
6.00246 -0.942627 0.75 
6.01424 -0.93969 0.75 
6.03124 -0.935322 0.75 
6.04183 -0.932514 0.75 
6.0542 -0.92914 0.75 
6.06402 -0.926389 0.75 
6.09684 -0.916776 0.75 
6.10889 -0.913099 0.75 
6.1215 -0.909176 0.75 
6.13129 -0.906075 0.75 
6.14136 -0.902842 0.75 
6.16231 -0.895968 0.75 
6.17277 -0.892471 0.75 
6.19659 -0.88449 0.75 
6.20619 -0.881274 0.75 
6.22774 -0.874055 0.75 
6.23969 -0.870053 0.75 
6.25718 -0.864192 0.75 
6.26828 -0.860476 0.75 
6.28463 -0.854997 0.75 
6.29516 -0.851471 0.75 
6.31535 -0.844705 0.75 
6.32503 -0.841465 0.75 
6.33911 -0.836748 0.75 
6.3507 -0.832865 0.75 
6.36172 -0.829172 0.75 
6.37232 -0.825623 0.75 
6.38647 -0.820882 0.75 
6.40567 -0.814449 0.75 
6.42345 -0.808494 0.75 
6.44008 -0.802871 0.75 
6.45496 -0.797708 0.75 
6.46923 -0.79264 0.75 
6.48263 -0.787783 0.75 
6.49487 -0.783261 0.75 
6.50653 -0.778882 0.75 
6.51704 -0.774867 0.75 
6.52725 -0.770907 0.75 
6.53723 -0.766979 0.75 
6.54719 -0.763004 0.75 
6.55713 -0.758982 0.75 
6.56858 -0.754296 0.75 
6.57795 -0.750459 0.75 
6.58746 -0.746567 0.75 
6.59961 -0.741598 0.75 
6.61099 -0.73694 0.75 
6.62071 -0.732964 0.75 
6.61072 -0.737053 0.75 
6.60044 -0.741257 0.75 
6.58448 -0.747789 0.75 
6.56289 -0.756621 0.75 
6.55171 -0.761193 0.75 
6.50722 -0.779397 0.75 
6.49528 -0.784282 0.75 
6.47626 -0.792063 0.75 
6.46633 -0.796124 0.75 
6.44197 -0.806093 0.75 
6.43093 -0.810608 0.75 
6.40462 -0.821372 0.75 
6.39372 -0.825831 0.75 
6.36894 -0.83597 0.75 
6.35791 -0.840485 0.75 
6.33104 -0.851476 0.75 
6.31903 -0.856389 0.75 
6.29037 -0.868118 0.75 
6.27808 -0.873144 0.75 
6.25052 -0.884419 0.75 
6.2392 -0.889048 0.75 
6.22817 -0.893564 0.75 
6.20623 -0.902538 0.75 
6.19575 -0.906827 0.75 
6.17194 -0.916568 0.75 
6.16132 -0.920913 0.75 
6.13543 -0.931506 0.75 
6.12384 -0.936249 0.75 
6.09559 -0.947807 0.75 
6.0833 -0.952834 0.75 
6.05574 -0.964109 0.75 
6.04443 -0.968738 0.75 
6.01867 -0.979274 0.75 
6.00806 -0.98362 0.75 
5.98216 -0.994213 0.75 
5.97057 -0.998956 0.75 
5.94232 -1.01051 0.75 
5.93003 -1.01554 0.75 
5.89373 -1.03039 0.75 
5.88227 -1.03508 0.75 
5.85638 -1.04567 0.75 
5.84548 -1.05013 0.75 
5.82126 -1.06004 0.75 
5.81106 -1.06422 0.75 
5.78697 -1.07407 0.75 
5.77621 -1.07847 0.75 
5.7499 -1.08924 0.75 
5.73803 -1.09409 0.75 
5.70978 -1.10565 0.75 
5.69791 -1.11051 0.75 
5.67076 -1.12161 0.75 
5.65973 -1.12613 0.75 
5.62773 -1.13922 0.75 
5.61711 -1.14357 0.75 
5.59122 -1.15416 0.75 
5.57963 -1.1589 0.75 
5.55137 -1.17046 0.75 
5.53909 -1.17549 0.75 
5.50389 -1.18989 0.75 
5.49244 -1.19457 0.75 
5.46682 -1.20505 0.75 
5.4562 -1.2094 0.75 
5.43198 -1.21931 0.75 
5.42136 -1.22365 0.75 
5.39547 -1.23424 0.75 
5.38387 -1.23899 0.75 
5.35562 -1.25055 0.75 
5.34334 -1.25557 0.75 
5.31578 -1.26685 0.75 
5.30446 -1.27148 0.75 
5.27871 -1.28201 0.75 
5.26809 -1.28636 0.75 
5.24303 -1.29661 0.75 
5.23186 -1.30118 0.75 
5.20458 -1.31234 0.75 
5.19229 -1.31737 0.75 
5.1639 -1.32899 0.75 
5.15203 -1.33384 0.75 
5.12488 -1.34495 0.75 
5.11385 -1.34946 0.75 
5.08893 -1.35966 0.75 
5.07845 -1.36395 0.75 
5.06824 -1.36812 0.75 
5.04756 -1.37658 0.75 
5.0368 -1.38099 0.75 
5.01813 -1.38862 0.75 
5.00653 -1.39337 0.75 
4.99466 -1.39822 0.75 
4.97419 -1.4066 0.75 
4.9619 -1.41163 0.75 
4.92344 -1.42736 0.75 
4.91241 -1.43188 0.75 
4.89075 -1.44074 0.75 
4.88041 -1.44497 0.75 
4.8543 -1.45563 0.75 
4.84205 -1.46054 0.75 
4.82459 -1.46738 0.75 
4.81366 -1.47155 0.75 
4.79834 -1.47727 0.75 
4.78876 -1.48076 0.75 
4.7742 -1.48594 0.75 
4.76372 -1.48959 0.75 
4.74682 -1.49533 0.75 
4.73486 -1.4993 0.75 
4.71588 -1.50546 0.75 
4.70581 -1.50868 0.75 
4.68117 -1.51658 0.75 
4.6701 -1.52012 0.75 
4.64303 -1.5288 0.75 
4.63082 -1.53271 0.75 
4.60175 -1.54202 0.75 
4.58968 -1.54589 0.75 
4.56654 -1.55331 0.75 
4.55518 -1.55694 0.75 
4.54382 -1.56058 0.75 
4.52461 -1.56674 0.75 
4.51268 -1.57056 0.75 
4.48361 -1.57987 0.75 
4.47054 -1.58406 0.75 
4.43304 -1.59608 0.75 
4.42126 -1.59985 0.75 
4.39405 -1.60857 0.75 
4.38283 -1.61216 0.75 
4.35791 -1.62015 0.75 
4.34741 -1.62351 0.75 
4.31705 -1.63324 0.75 
4.30655 -1.6366 0.75 
4.28091 -1.64482 0.75 
4.26941 -1.6485 0.75 
4.24134 -1.6575 0.75 
4.2287 -1.66155 0.75 
4.20035 -1.67063 0.75 
4.1887 -1.67436 0.75 
4.16599 -1.68164 0.75 
4.15492 -1.68518 0.75 
4.12549 -1.69461 0.75 
4.11399 -1.6983 0.75 
4.08592 -1.70729 0.75 
4.07328 -1.71134 0.75 
4.04407 -1.7207 0.75 
4.032 -1.72457 0.75 
4.0045 -1.73338 0.75 
3.99314 -1.73702 0.75 
3.9675 -1.74523 0.75 
3.95658 -1.74873 0.75 
3.93051 -1.75708 0.75 
3.91872 -1.76086 0.75 
3.88165 -1.77274 0.75 
3.86901 -1.77679 0.75 
3.84066 -1.78587 0.75 
3.82887 -1.78965 0.75 
3.80195 -1.79828 0.75 
3.79102 -1.80178 0.75 
3.76581 -1.80986 0.75 
3.75531 -1.81322 0.75 
3.73024 -1.82125 0.75 
3.71888 -1.82489 0.75 
3.69124 -1.83375 0.75 
3.67888 -1.83771 0.75 
3.65403 -1.84567 0.75 
3.64181 -1.84958 0.75 
3.61039 -1.85965 0.75 
3.59917 -1.86324 0.75 
3.57368 -1.87141 0.75 
3.56318 -1.87478 0.75 
3.53754 -1.88299 0.75 
3.52604 -1.88668 0.75 
3.49797 -1.89567 0.75 
3.48533 -1.89972 0.75 
3.45611 -1.90908 0.75 
3.44404 -1.91295 0.75 
3.4209 -1.92036 0.75 
3.40955 -1.924 0.75 
3.39833 -1.92759 0.75 
3.37341 -1.93558 0.75 
3.36291 -1.93894 0.75 
3.34484 -1.94473 0.75 
3.33348 -1.94837 0.75 
3.32184 -1.9521 0.75 
3.2977 -1.95984 0.75 
3.28506 -1.96389 0.75 
3.25584 -1.97325 0.75 
3.24377 -1.97711 0.75 
3.21685 -1.98574 0.75 
3.20549 -1.98938 0.75 
3.18014 -1.9975 0.75 
3.16964 -2.00087 0.75 
3.15914 -2.00423 0.75 
3.13928 -2.01059 0.75 
3.12964 -2.01368 0.75 
3.10773 -2.02076 0.75 
3.09605 -2.02463 0.75 
3.07973 -2.03019 0.75 
3.06953 -2.03375 0.75 
3.0547 -2.03906 0.75 
3.04428 -2.04288 0.75 
3.02756 -2.04914 0.75 
3.01579 -2.05364 0.75 
2.99721 -2.0609 0.75 
2.98781 -2.06465 0.75 
2.96136 -2.07548 0.75 
2.95058 -2.08002 0.75 
2.93556 -2.08648 0.75 
2.92567 -2.09083 0.75 
2.90993 -2.09788 0.75 
2.89874 -2.10299 0.75 
2.88093 -2.11128 0.75 
2.87164 -2.11567 0.75 
2.8621 -2.12024 0.75 
2.842 -2.13001 0.75 
2.83171 -2.13509 0.75 
2.80776 -2.14706 0.75 
2.7971 -2.1524 0.75 
2.77114 -2.1654 0.75 
2.75954 -2.1712 0.75 
2.73184 -2.18506 0.75 
2.72037 -2.1908 0.75 
2.69441 -2.20378 0.75 
2.68348 -2.20925 0.75 
2.65913 -2.22143 0.75 
2.64886 -2.22656 0.75 
2.62464 -2.23866 0.75 
2.61384 -2.24406 0.75 
2.58748 -2.25724 0.75 
2.5756 -2.26317 0.75 
2.54816 -2.27689 0.75 
2.53682 -2.28255 0.75 
2.511 -2.29546 0.75 
2.50033 -2.30079 0.75 
2.47624 -2.31283 0.75 
2.46611 -2.31789 0.75 
2.45625 -2.32282 0.75 
2.44257 -2.32966 0.75 
2.4319 -2.335 0.75 
2.42096 -2.34046 0.75 
2.40594 -2.34797 0.75 
2.39433 -2.35377 0.75 
2.38246 -2.35971 0.75 
2.35898 -2.37144 0.75 
2.34764 -2.37711 0.75 
2.32235 -2.38975 0.75 
2.31168 -2.39508 0.75 
2.28786 -2.40699 0.75 
2.278 -2.41192 0.75 
2.25499 -2.42342 0.75 
2.24473 -2.42855 0.75 
2.2197 -2.44105 0.75 
2.2085 -2.44665 0.75 
2.19703 -2.45239 0.75 
2.18119 -2.4603 0.75 
2.16932 -2.46623 0.75 
2.15771 -2.47204 0.75 
2.14269 -2.47955 0.75 
2.13175 -2.48501 0.75 
2.12108 -2.49034 0.75 
2.10686 -2.49745 0.75 
2.0966 -2.50258 0.75 
2.0866 -2.50758 0.75 
2.07318 -2.51429 0.75 
2.06278 -2.51948 0.75 
2.05212 -2.52481 0.75 
2.02971 -2.53601 0.75 
2.01811 -2.54181 0.75 
1.99436 -2.55368 0.75 
1.96403 -2.56884 0.75 
1.95323 -2.57424 0.75 
1.93545 -2.58312 0.75 
1.92506 -2.58832 0.75 
1.90178 -2.59996 0.75 
1.89191 -2.60489 0.75 
1.87534 -2.61317 0.75 
1.86508 -2.6183 0.75 
1.85441 -2.62363 0.75 
1.83979 -2.63094 0.75 
1.82899 -2.63634 0.75 
1.81832 -2.64167 0.75 
1.79739 -2.65213 0.75 
1.78739 -2.65713 0.75 
1.75875 -2.67144 0.75 
1.74956 -2.67604 0.75 
1.72856 -2.68653 0.75 
1.71702 -2.6923 0.75 
1.70011 -2.70075 0.75 
1.68911 -2.70625 0.75 
1.67328 -2.71416 0.75 
1.66295 -2.71933 0.75 
1.64846 -2.72657 0.75 
1.63906 -2.73127 0.75 
1.62068 -2.74045 0.75 
1.60129 -2.75014 0.75 
1.59105 -2.75531 0.75 
1.58136 -2.76025 0.75 
1.5721 -2.76503 0.75 
1.56313 -2.76972 0.75 
1.54657 -2.77852 0.75 
1.53719 -2.78358 0.75 
1.52811 -2.78854 0.75 
1.51355 -2.79661 0.75 
1.49983 -2.80434 0.75 
1.48473 -2.81299 0.75 
1.47294 -2.81987 0.75 
1.46196 -2.82636 0.75 
1.45012 -2.83344 0.75 
1.44149 -2.8386 0.75 
1.43229 -2.8441 0.75 
1.42315 -2.84957 0.75 
1.41112 -2.85678 0.75 
1.40227 -2.86215 0.75 
