ply
format ascii 1.0
element vertex 548
property float x
property float y
property float z
end_header
0.010765 -0.000868 0.75 
0.021516 -0.001893 0.75 
0.031661 -0.002952 0.75 
0.041792 -0.004132 0.75 
0.052655 -0.005514 0.75 
0.063356 -0.006969 0.75 
0.073305 -0.008391 0.75 
0.084135 -0.010006 0.75 
0.095845 -0.011823 0.75 
0.105916 -0.013441 0.75 
0.116571 -0.015202 0.75 
0.12781 -0.017113 0.75 
0.139631 -0.019178 0.75 
0.15144 -0.02131 0.75 
0.162646 -0.023406 0.75 
0.173249 -0.025457 0.75 
0.183251 -0.027456 0.75 
0.193242 -0.029514 0.75 
0.203807 -0.031755 0.75 
0.214945 -0.034185 0.75 
0.226654 -0.03681 0.75 
0.238933 -0.039634 0.75 
0.25178 -0.042666 0.75 
0.261842 -0.045091 0.75 
0.272185 -0.047631 0.75 
0.282808 -0.050286 0.75 
0.293711 -0.05306 0.75 
0.305038 -0.055991 0.75 
0.316352 -0.058969 0.75 
0.327509 -0.061956 0.75 
0.338364 -0.064912 0.75 
0.348772 -0.067795 0.75 
0.359461 -0.070787 0.75 
0.37044 -0.073858 0.75 
0.381708 -0.077008 0.75 
0.39341 -0.080276 0.75 
0.405401 -0.083623 0.75 
0.417683 -0.087049 0.75 
0.430253 -0.090553 0.75 
0.442825 -0.094055 0.75 
0.455108 -0.097475 0.75 
0.467247 -0.100852 0.75 
0.479386 -0.104227 0.75 
0.491092 -0.107481 0.75 
0.50251 -0.110652 0.75 
0.513784 -0.113781 0.75 
0.525058 -0.116909 0.75 
0.535899 -0.119915 0.75 
0.546451 -0.122839 0.75 
0.556859 -0.125722 0.75 
0.567268 -0.128604 0.75 
0.577243 -0.131365 0.75 
0.586929 -0.134044 0.75 
0.596616 -0.136722 0.75 
0.606591 -0.139481 0.75 
0.617001 -0.142359 0.75 
0.627699 -0.145317 0.75 
0.638687 -0.148356 0.75 
0.649964 -0.151474 0.75 
0.661674 -0.154712 0.75 
0.673674 -0.15803 0.75 
0.685963 -0.161428 0.75 
0.698541 -0.164906 0.75 
0.710685 -0.168264 0.75 
0.72283 -0.171622 0.75 
0.734829 -0.17494 0.75 
0.74654 -0.178179 0.75 
0.757817 -0.181297 0.75 
0.768804 -0.184335 0.75 
0.779647 -0.187334 0.75 
0.790491 -0.190332 0.75 
0.8009 -0.193211 0.75 
0.81102 -0.196009 0.75 
0.820996 -0.198768 0.75 
0.830971 -0.201526 0.75 
0.843694 -0.205045 0.75 
0.85367 -0.207803 0.75 
0.863934 -0.210642 0.75 
0.874488 -0.21356 0.75 
0.885331 -0.216559 0.75 
0.896608 -0.219677 0.75 
0.908174 -0.222876 0.75 
0.920029 -0.226154 0.75 
0.932173 -0.229512 0.75 
0.944751 -0.232991 0.75 
0.95704 -0.236389 0.75 
0.969039 -0.239707 0.75 
0.98075 -0.242946 0.75 
0.99246 -0.246184 0.75 
1.00388 -0.249342 0.75 
1.01501 -0.252421 0.75 
1.02586 -0.255419 0.75 
1.03627 -0.258298 0.75 
1.04668 -0.261176 0.75 
1.05694 -0.264015 0.75 
1.06692 -0.266773 0.75 
1.07689 -0.269532 0.75 
1.08658 -0.272211 0.75 
1.0993 -0.275729 0.75 
1.10899 -0.278407 0.75 
1.11896 -0.281166 0.75 
1.12894 -0.283925 0.75 
1.13863 -0.286603 0.75 
1.15106 -0.290041 0.75 
1.1632 -0.2934 0.75 
1.17506 -0.296678 0.75 
1.18662 -0.299876 0.75 
1.1979 -0.302995 0.75 
1.20889 -0.306033 0.75 
1.21959 -0.308992 0.75 
1.23 -0.31187 0.75 
1.24012 -0.314669 0.75 
1.24995 -0.317387 0.75 
1.2618 -0.320666 0.75 
1.27337 -0.323864 0.75 
1.28479 -0.327022 0.75 
1.29563 -0.330021 0.75 
1.30604 -0.332899 0.75 
1.31616 -0.335698 0.75 
1.32614 -0.338456 0.75 
1.33741 -0.341575 0.75 
1.34855 -0.344653 0.75 
1.35896 -0.347532 0.75 
1.36922 -0.35037 0.75 
1.38035 -0.353449 0.75 
1.39148 -0.356527 0.75 
1.40175 -0.359366 0.75 
1.41173 -0.362124 0.75 
1.42213 -0.365003 0.75 
1.4324 -0.367841 0.75 
1.44281 -0.37072 0.75 
1.45278 -0.373478 0.75 
1.4629 -0.376277 0.75 
1.47302 -0.379075 0.75 
1.48271 -0.381754 0.75 
1.4937 -0.384792 0.75 
1.50353 -0.387511 0.75 
1.51452 -0.390549 0.75 
1.52478 -0.393387 0.75 
1.53562 -0.396386 0.75 
1.54603 -0.399264 0.75 
1.55731 -0.402383 0.75 
1.56729 -0.405141 0.75 
1.57726 -0.4079 0.75 
1.58753 -0.410738 0.75 
1.59721 -0.413417 0.75 
1.60719 -0.416175 0.75 
1.61688 -0.418854 0.75 
1.62671 -0.421572 0.75 
1.63726 -0.424491 0.75 
1.64767 -0.427369 0.75 
1.65736 -0.430048 0.75 
1.66791 -0.432967 0.75 
1.67933 -0.436125 0.75 
1.69077 -0.439229 0.75 
1.70136 -0.442016 0.75 
1.71153 -0.444609 0.75 
1.72231 -0.447272 0.75 
1.73412 -0.450103 0.75 
1.7442 -0.452451 0.75 
1.75488 -0.454877 0.75 
1.76616 -0.457376 0.75 
1.77803 -0.459942 0.75 
1.79051 -0.462568 0.75 
1.80359 -0.465249 0.75 
1.81374 -0.467281 0.75 
1.82433 -0.46936 0.75 
1.83524 -0.471454 0.75 
1.84644 -0.47356 0.75 
1.85795 -0.475675 0.75 
1.86902 -0.477665 0.75 
1.8798 -0.479558 0.75 
1.8903 -0.481357 0.75 
1.90051 -0.483056 0.75 
1.91354 -0.485151 0.75 
1.926 -0.487073 0.75 
1.93787 -0.48883 0.75 
1.94915 -0.490429 0.75 
1.95986 -0.49188 0.75 
1.97057 -0.493267 0.75 
1.98188 -0.494664 0.75 
1.9938 -0.496065 0.75 
2.00632 -0.497466 0.75 
2.01945 -0.498858 0.75 
2.02974 -0.499898 0.75 
2.04034 -0.500924 0.75 
2.05125 -0.501933 0.75 
2.06245 -0.502922 0.75 
2.07366 -0.503864 0.75 
2.08458 -0.504734 0.75 
2.0955 -0.505564 0.75 
2.10672 -0.506413 0.75 
2.11838 -0.507297 0.75 
2.13035 -0.508207 0.75 
2.14261 -0.509142 0.75 
2.15518 -0.510102 0.75 
2.16819 -0.511098 0.75 
2.1812 -0.512097 0.75 
2.19406 -0.513086 0.75 
2.20663 -0.514054 0.75 
2.21919 -0.515024 0.75 
2.23145 -0.515973 0.75 
2.24342 -0.516901 0.75 
2.25508 -0.517807 0.75 
2.26675 -0.518715 0.75 
2.27811 -0.519601 0.75 
2.28918 -0.520465 0.75 
2.29995 -0.521307 0.75 
2.31071 -0.52215 0.75 
2.32118 -0.522971 0.75 
2.33135 -0.52377 0.75 
2.35782 -0.525855 0.75 
2.36813 -0.526669 0.75 
2.3937 -0.528685 0.75 
2.40522 -0.529593 0.75 
2.43333 -0.531809 0.75 
2.44589 -0.532799 0.75 
2.4758 -0.535157 0.75 
2.48806 -0.536123 0.75 
2.51618 -0.538339 0.75 
2.52784 -0.539258 0.75 
2.55356 -0.541284 0.75 
2.56433 -0.542133 0.75 
2.57494 -0.542969 0.75 
2.59214 -0.544324 0.75 
2.60231 -0.545125 0.75 
2.62773 -0.547132 0.75 
2.63954 -0.54813 0.75 
2.65612 -0.549666 0.75 
2.66641 -0.550703 0.75 
2.67849 -0.552004 0.75 
2.68982 -0.553312 0.75 
2.70456 -0.555136 0.75 
2.71512 -0.556519 0.75 
2.73205 -0.558858 0.75 
2.74408 -0.560602 0.75 
2.76321 -0.56351 0.75 
2.77328 -0.565105 0.75 
2.78365 -0.566788 0.75 
2.798 -0.569188 0.75 
2.80909 -0.571095 0.75 
2.82016 -0.573047 0.75 
2.84141 -0.576925 0.75 
2.85158 -0.578847 0.75 
2.86837 -0.582113 0.75 
2.88146 -0.584739 0.75 
2.90219 -0.588914 0.75 
2.91307 -0.591102 0.75 
2.92425 -0.593348 0.75 
2.94763 -0.59804 0.75 
2.95984 -0.600486 0.75 
2.98926 -0.606373 0.75 
3.00161 -0.608843 0.75 
3.01353 -0.611223 0.75 
3.03721 -0.615948 0.75 
3.04869 -0.618235 0.75 
3.07046 -0.62257 0.75 
3.08105 -0.624677 0.75 
3.10179 -0.6288 0.75 
3.11195 -0.630816 0.75 
3.12195 -0.632797 0.75 
3.13477 -0.635263 0.75 
3.14701 -0.637537 0.75 
3.16429 -0.640603 0.75 
3.17508 -0.64243 0.75 
3.19019 -0.644867 0.75 
3.20235 -0.646723 0.75 
3.21541 -0.648619 0.75 
3.22655 -0.650164 0.75 
3.2444 -0.652508 0.75 
3.25705 -0.65408 0.75 
3.27717 -0.656437 0.75 
3.2879 -0.657628 0.75 
3.29864 -0.658774 0.75 
3.31968 -0.660869 0.75 
3.32969 -0.661794 0.75 
3.35181 -0.663664 0.75 
3.36363 -0.664562 0.75 
3.38024 -0.665697 0.75 
3.39147 -0.666379 0.75 
3.40944 -0.667339 0.75 
3.42218 -0.667927 0.75 
3.44241 -0.668717 0.75 
3.45306 -0.669064 0.75 
3.464 -0.669374 0.75 
3.479 -0.669724 0.75 
3.49025 -0.66993 0.75 
3.5015 -0.670087 0.75 
3.5165 -0.670255 0.75 
3.52805 -0.670384 0.75 
3.5399 -0.670518 0.75 
3.56464 -0.6708 0.75 
3.57754 -0.670948 0.75 
3.60859 -0.671307 0.75 
3.62164 -0.671459 0.75 
3.65059 -0.671799 0.75 
3.66274 -0.671943 0.75 
3.69019 -0.67227 0.75 
3.70144 -0.672405 0.75 
3.71223 -0.672535 0.75 
3.73368 -0.672794 0.75 
3.74403 -0.67292 0.75 
3.76113 -0.673128 0.75 
3.77418 -0.673288 0.75 
3.79353 -0.673526 0.75 
3.80373 -0.673652 0.75 
3.81422 -0.673781 0.75 
3.82877 -0.67396 0.75 
3.84002 -0.674098 0.75 
3.85172 -0.674242 0.75 
3.86777 -0.674439 0.75 
3.88022 -0.674592 0.75 
3.89282 -0.674747 0.75 
3.91802 -0.675057 0.75 
3.93032 -0.675208 0.75 
3.95777 -0.675545 0.75 
3.96901 -0.675683 0.75 
3.98026 -0.675822 0.75 
3.99481 -0.676 0.75 
4.00531 -0.676129 0.75 
4.01566 -0.676257 0.75 
4.03591 -0.676505 0.75 
4.04911 -0.676667 0.75 
4.06276 -0.676835 0.75 
4.07341 -0.676966 0.75 
4.08436 -0.6771 0.75 
4.10731 -0.677382 0.75 
4.1193 -0.677529 0.75 
4.14855 -0.677888 0.75 
4.1616 -0.678049 0.75 
4.19055 -0.678404 0.75 
4.2024 -0.678549 0.75 
4.22954 -0.678883 0.75 
4.24079 -0.679021 0.75 
4.25159 -0.679153 0.75 
4.26599 -0.67933 0.75 
4.27649 -0.679459 0.75 
4.28669 -0.679585 0.75 
4.30649 -0.679828 0.75 
4.31669 -0.679953 0.75 
4.34174 -0.680261 0.75 
4.35299 -0.680399 0.75 
4.38073 -0.680739 0.75 
4.39318 -0.680892 0.75 
4.42318 -0.68126 0.75 
4.43578 -0.681415 0.75 
4.46413 -0.681763 0.75 
4.47598 -0.681908 0.75 
4.50237 -0.682232 0.75 
4.51317 -0.682365 0.75 
4.53792 -0.682669 0.75 
4.54827 -0.682796 0.75 
4.55847 -0.682916 0.75 
4.57782 -0.683014 0.75 
4.58997 -0.682979 0.75 
4.60857 -0.682786 0.75 
4.62042 -0.682579 0.75 
4.63751 -0.682162 0.75 
4.64846 -0.681822 0.75 
4.66449 -0.681224 0.75 
4.67469 -0.680782 0.75 
4.69491 -0.679766 0.75 
4.71842 -0.678356 0.75 
4.72964 -0.677597 0.75 
4.74011 -0.676838 0.75 
4.75058 -0.676031 0.75 
4.76105 -0.675172 0.75 
4.77285 -0.67414 0.75 
4.7845 -0.673058 0.75 
4.80256 -0.671256 0.75 
4.81942 -0.66944 0.75 
4.83566 -0.66757 0.75 
4.85352 -0.665379 0.75 
4.86453 -0.663961 0.75 
4.87791 -0.662165 0.75 
4.89291 -0.66005 0.75 
4.90479 -0.6583 0.75 
4.91561 -0.656649 0.75 
4.92806 -0.654684 0.75 
4.93798 -0.653068 0.75 
4.94863 -0.651283 0.75 
4.95926 -0.649407 0.75 
4.97121 -0.647171 0.75 
4.9815 -0.64513 0.75 
4.99252 -0.642841 0.75 
5.00279 -0.640641 0.75 
5.01276 -0.638506 0.75 
5.02332 -0.636245 0.75 
5.03447 -0.633858 0.75 
5.04547 -0.631503 0.75 
5.05679 -0.629218 0.75 
5.07307 -0.626536 0.75 
5.08573 -0.625001 0.75 
5.09605 -0.624183 0.75 
5.10778 -0.627995 0.75 
5.1163 -0.633593 0.75 
5.12498 -0.639505 0.75 
5.13358 -0.645524 0.75 
5.14408 -0.65302 0.75 
5.15983 -0.664513 0.75 
5.16875 -0.671127 0.75 
5.17847 -0.678417 0.75 
5.18672 -0.684666 0.75 
5.19994 -0.694786 0.75 
5.20931 -0.702037 0.75 
5.2295 -0.717857 0.75 
5.2375 -0.724193 0.75 
5.25562 -0.73875 0.75 
5.26526 -0.74663 0.75 
5.27877 -0.757843 0.75 
5.28713 -0.764905 0.75 
5.30385 -0.779278 0.75 
5.31277 -0.787081 0.75 
5.32691 -0.799629 0.75 
5.33683 -0.808564 0.75 
5.35244 -0.82283 0.75 
5.36059 -0.830369 0.75 
5.36892 -0.838148 0.75 
5.3856 -0.853913 0.75 
5.39351 -0.861486 0.75 
5.41148 -0.87894 0.75 
5.41885 -0.886205 0.75 
5.43486 -0.902228 0.75 
5.44337 -0.910897 0.75 
5.45526 -0.923189 0.75 
5.46271 -0.93101 0.75 
5.47808 -0.947442 0.75 
5.4863 -0.956387 0.75 
5.49929 -0.970725 0.75 
5.50609 -0.978327 0.75 
5.52267 -0.997113 0.75 
5.53005 -1.0056 0.75 
5.53769 -1.01446 0.75 
5.54752 -1.02599 0.75 
5.55458 -1.03436 0.75 
5.56141 -1.04253 0.75 
5.57011 -1.05305 0.75 
5.57835 -1.06316 0.75 
5.5899 -1.07755 0.75 
5.59707 -1.08661 0.75 
5.60711 -1.09952 0.75 
5.61376 -1.10821 0.75 
5.62433 -1.12222 0.75 
5.63176 -1.13221 0.75 
5.64952 -1.15657 0.75 
5.65581 -1.16535 0.75 
5.66828 -1.18299 0.75 
5.67446 -1.19185 0.75 
5.6897 -1.21377 0.75 
5.69656 -1.22362 0.75 
5.71328 -1.24762 0.75 
5.72074 -1.25832 0.75 
5.72821 -1.26903 0.75 
5.7379 -1.28293 0.75 
5.74511 -1.29326 0.75 
5.75224 -1.30347 0.75 
5.76589 -1.32303 0.75 
5.77259 -1.33262 0.75 
5.78772 -1.35426 0.75 
5.79391 -1.36311 0.75 
5.81197 -1.38892 0.75 
5.81945 -1.39961 0.75 
5.82653 -1.40985 0.75 
5.83321 -1.41964 0.75 
5.84248 -1.43347 0.75 
5.84817 -1.44211 0.75 
5.85609 -1.45432 0.75 
5.86269 -1.4647 0.75 
5.86969 -1.47589 0.75 
5.8756 -1.48546 0.75 
5.88495 -1.50084 0.75 
5.8915 -1.51179 0.75 
5.90532 -1.53533 0.75 
5.91071 -1.54468 0.75 
5.91999 -1.56097 0.75 
5.92551 -1.57078 0.75 
5.93077 -1.58021 0.75 
5.93796 -1.59321 0.75 
5.94355 -1.60331 0.75 
5.9493 -1.61368 0.75 
5.95722 -1.62797 0.75 
5.96334 -1.63899 0.75 
5.96967 -1.65041 0.75 
5.97811 -1.66562 0.75 
5.9843 -1.67676 0.75 
5.99042 -1.68778 0.75 
5.99851 -1.70233 0.75 
6.00441 -1.71295 0.75 
6.0101 -1.72318 0.75 
6.01768 -1.73681 0.75 
6.02323 -1.74677 0.75 
6.02863 -1.75647 0.75 
6.03914 -1.77534 0.75 
6.04425 -1.78451 0.75 
6.05564 -1.80495 0.75 
6.06199 -1.81635 0.75 
6.07364 -1.83768 0.75 
6.07894 -1.8476 0.75 
6.08389 -1.85703 0.75 
6.08851 -1.86596 0.75 
6.09503 -1.8788 0.75 
6.09951 -1.88779 0.75 
6.10664 -1.90234 0.75 
6.11164 -1.91275 0.75 
6.11952 -1.92943 0.75 
6.12501 -1.94127 0.75 
6.13347 -1.95984 0.75 
6.13879 -1.97175 0.75 
6.14849 -1.99403 0.75 
6.15288 -2.00439 0.75 
6.15704 -2.01436 0.75 
6.16119 -2.02449 0.75 
6.16773 -2.04077 0.75 
6.17229 -2.05236 0.75 
6.1794 -2.07084 0.75 
6.18306 -2.08052 0.75 
6.18667 -2.09022 0.75 
6.19353 -2.10895 0.75 
6.19793 -2.12124 0.75 
6.20211 -2.13312 0.75 
6.20619 -2.14489 0.75 
6.212 -2.16193 0.75 
6.21572 -2.17286 0.75 
6.22119 -2.1889 0.75 
6.22467 -2.19913 0.75 
6.22976 -2.21403 0.75 
6.23306 -2.22368 0.75 
6.23951 -2.24256 0.75 
6.2434 -2.25391 0.75 
6.24704 -2.26456 0.75 
6.25059 -2.27491 0.75 
6.25536 -2.28882 0.75 
6.26057 -2.304 0.75 
6.26421 -2.31464 0.75 
6.26766 -2.32488 0.75 
6.27194 -2.33784 0.75 
6.27701 -2.35354 0.75 
6.28155 -2.368 0.75 
6.28603 -2.38263 0.75 
6.28952 -2.39426 0.75 
6.29318 -2.40679 0.75 
6.29641 -2.41835 0.75 
6.29993 -2.43154 0.75 
6.30253 -2.44171 0.75 
6.30507 -2.45205 0.75 
6.30754 -2.46256 0.75 
6.30992 -2.4731 0.75 
6.31231 -2.48425 0.75 
