ply
format ascii 1.0
element vertex 585
property float x
property float y
property float z
end_header
0.006757 -0.00784 0.75 
0.013437 -0.015941 0.75 
0.019899 -0.024025 0.75 
0.026098 -0.031935 0.75 
0.032332 -0.040009 0.75 
0.03924 -0.049078 0.75 
0.045645 -0.057586 0.75 
0.052544 -0.066849 0.75 
0.059931 -0.076871 0.75 
0.066211 -0.085472 0.75 
0.07281 -0.094584 0.75 
0.079722 -0.104209 0.75 
0.086944 -0.114351 0.75 
0.094146 -0.124689 0.75 
0.100882 -0.1348 0.75 
0.107083 -0.144544 0.75 
0.112767 -0.153904 0.75 
0.117953 -0.16286 0.75 
0.123794 -0.173514 0.75 
0.128884 -0.183377 0.75 
0.133342 -0.192551 0.75 
0.137938 -0.202655 0.75 
0.142247 -0.212884 0.75 
0.146029 -0.222679 0.75 
0.149475 -0.232597 0.75 
0.152545 -0.242794 0.75 
0.155216 -0.252482 0.75 
0.157817 -0.262345 0.75 
0.160522 -0.272956 0.75 
0.163117 -0.283439 0.75 
0.165479 -0.293208 0.75 
0.168001 -0.303863 0.75 
0.170673 -0.315408 0.75 
0.172931 -0.325355 0.75 
0.175135 -0.335314 0.75 
0.177614 -0.346902 0.75 
0.179944 -0.358214 0.75 
0.182365 -0.370427 0.75 
0.184368 -0.380886 0.75 
0.186422 -0.391947 0.75 
0.18852 -0.40361 0.75 
0.190656 -0.415876 0.75 
0.192825 -0.428744 0.75 
0.194472 -0.43881 0.75 
0.196125 -0.449179 0.75 
0.197782 -0.459851 0.75 
0.199464 -0.470975 0.75 
0.201143 -0.482402 0.75 
0.202797 -0.493985 0.75 
0.204404 -0.505574 0.75 
0.205903 -0.516724 0.75 
0.20741 -0.528175 0.75 
0.208959 -0.539923 0.75 
0.210548 -0.551969 0.75 
0.212197 -0.56446 0.75 
0.213887 -0.577249 0.75 
0.215618 -0.590335 0.75 
0.21739 -0.603718 0.75 
0.219104 -0.616655 0.75 
0.22078 -0.629295 0.75 
0.222438 -0.641785 0.75 
0.224097 -0.654275 0.75 
0.225697 -0.66632 0.75 
0.22726 -0.678066 0.75 
0.228803 -0.689664 0.75 
0.230348 -0.701261 0.75 
0.231835 -0.712413 0.75 
0.233282 -0.723267 0.75 
0.234711 -0.733972 0.75 
0.23614 -0.744677 0.75 
0.237511 -0.754936 0.75 
0.238843 -0.764897 0.75 
0.240593 -0.77798 0.75 
0.242304 -0.790766 0.75 
0.243952 -0.802956 0.75 
0.245589 -0.81454 0.75 
0.247213 -0.825521 0.75 
0.248814 -0.835898 0.75 
0.251167 -0.850408 0.75 
0.253213 -0.862385 0.75 
0.255503 -0.875233 0.75 
0.25752 -0.886147 0.75 
0.26086 -0.90353 0.75 
0.263322 -0.915887 0.75 
0.267385 -0.935572 0.75 
0.269571 -0.945842 0.75 
0.271862 -0.956396 0.75 
0.27677 -0.978354 0.75 
0.279291 -0.989318 0.75 
0.285208 -1.01428 0.75 
0.287848 -1.02521 0.75 
0.294284 -1.0519 0.75 
0.297165 -1.06385 0.75 
0.300116 -1.0761 0.75 
0.304188 -1.09302 0.75 
0.30724 -1.10571 0.75 
0.310292 -1.1184 0.75 
0.31625 -1.14319 0.75 
0.319087 -1.155 0.75 
0.325493 -1.1817 0.75 
0.328187 -1.19293 0.75 
0.334166 -1.21787 0.75 
0.336681 -1.22837 0.75 
0.34227 -1.25171 0.75 
0.345341 -1.26455 0.75 
0.349947 -1.28381 0.75 
0.352355 -1.29388 0.75 
0.358252 -1.31853 0.75 
0.360904 -1.32962 0.75 
0.367394 -1.35675 0.75 
0.370326 -1.36901 0.75 
0.373327 -1.38155 0.75 
0.377304 -1.39818 0.75 
0.380201 -1.41029 0.75 
0.383027 -1.42211 0.75 
0.386656 -1.43728 0.75 
0.389378 -1.44866 0.75 
0.39203 -1.45975 0.75 
0.397124 -1.48105 0.75 
0.399637 -1.49155 0.75 
0.40522 -1.51489 0.75 
0.408291 -1.52773 0.75 
0.413036 -1.54757 0.75 
0.415549 -1.55807 0.75 
0.42169 -1.58375 0.75 
0.424447 -1.59527 0.75 
0.431181 -1.62343 0.75 
0.434217 -1.63612 0.75 
0.441021 -1.66457 0.75 
0.443848 -1.67639 0.75 
0.450303 -1.70337 0.75 
0.45292 -1.71432 0.75 
0.458957 -1.73955 0.75 
0.461434 -1.74991 0.75 
0.467052 -1.7734 0.75 
0.470123 -1.78624 0.75 
0.475008 -1.80666 0.75 
0.477556 -1.81731 0.75 
0.480173 -1.82825 0.75 
0.483802 -1.84342 0.75 
0.486628 -1.85524 0.75 
0.489524 -1.86735 0.75 
0.495526 -1.89244 0.75 
0.498457 -1.9047 0.75 
0.505087 -1.93241 0.75 
0.507879 -1.94408 0.75 
0.51409 -1.97005 0.75 
0.516603 -1.98056 0.75 
0.522186 -2.0039 0.75 
0.524523 -2.01367 0.75 
0.530101 -2.03655 0.75 
0.53327 -2.04874 0.75 
0.537949 -2.06581 0.75 
0.541012 -2.07648 0.75 
0.545474 -2.09143 0.75 
0.548981 -2.10275 0.75 
0.552397 -2.11347 0.75 
0.556027 -2.12459 0.75 
0.561732 -2.14166 0.75 
0.565303 -2.15217 0.75 
0.570076 -2.16608 0.75 
0.574144 -2.17785 0.75 
0.579509 -2.19329 0.75 
0.58291 -2.20306 0.75 
0.586408 -2.21312 0.75 
0.591238 -2.22701 0.75 
0.594983 -2.23778 0.75 
0.598826 -2.24883 0.75 
0.604148 -2.26413 0.75 
0.608288 -2.27603 0.75 
0.612526 -2.28821 0.75 
0.620903 -2.31229 0.75 
0.625042 -2.3242 0.75 
0.634307 -2.35083 0.75 
0.63815 -2.36188 0.75 
0.641994 -2.37293 0.75 
0.646922 -2.3871 0.75 
0.65047 -2.3973 0.75 
0.654018 -2.4075 0.75 
0.65865 -2.42082 0.75 
0.662001 -2.43045 0.75 
0.672124 -2.45965 0.75 
0.675692 -2.47 0.75 
0.684433 -2.49538 0.75 
0.688394 -2.50687 0.75 
0.698071 -2.53479 0.75 
0.702325 -2.54697 0.75 
0.711929 -2.57412 0.75 
0.716036 -2.58556 0.75 
0.725361 -2.61105 0.75 
0.729296 -2.62159 0.75 
0.738449 -2.64556 0.75 
0.742224 -2.65519 0.75 
0.75079 -2.67648 0.75 
0.755509 -2.68784 0.75 
0.764602 -2.70875 0.75 
0.768945 -2.71831 0.75 
0.77416 -2.72945 0.75 
0.779118 -2.73972 0.75 
0.784606 -2.75072 0.75 
0.791222 -2.76351 0.75 
0.799368 -2.77855 0.75 
0.804399 -2.78742 0.75 
0.809568 -2.79621 0.75 
0.81662 -2.80807 0.75 
0.821844 -2.81684 0.75 
0.82769 -2.82662 0.75 
0.833159 -2.83576 0.75 
0.839096 -2.84567 0.75 
0.845502 -2.85634 0.75 
0.852378 -2.86779 0.75 
0.857946 -2.87704 0.75 
0.866149 -2.89066 0.75 
0.871417 -2.8994 0.75 
0.880255 -2.91404 0.75 
0.886463 -2.9243 0.75 
0.892443 -2.93419 0.75 
0.898017 -2.94326 0.75 
0.904153 -2.95287 0.75 
0.911489 -2.96384 0.75 
0.919103 -2.97463 0.75 
0.925119 -2.98268 0.75 
0.931705 -2.99065 0.75 
0.94065 -3.00036 0.75 
0.94972 -3.00995 0.75 
0.961378 -3.02205 0.75 
0.975872 -3.03683 0.75 
0.984118 -3.04513 0.75 
0.993036 -3.05403 0.75 
1.00071 -3.06163 0.75 
1.01313 -3.07382 0.75 
1.02194 -3.08239 0.75 
1.03598 -3.09593 0.75 
1.04345 -3.1031 0.75 
1.05115 -3.11045 0.75 
1.06725 -3.12574 0.75 
1.07574 -3.13378 0.75 
1.09627 -3.15312 0.75 
1.10513 -3.16143 0.75 
1.12538 -3.18041 0.75 
1.13359 -3.1881 0.75 
1.15253 -3.20583 0.75 
1.16031 -3.21311 0.75 
1.16786 -3.22019 0.75 
1.18273 -3.23415 0.75 
1.19234 -3.2432 0.75 
1.20218 -3.25245 0.75 
1.20983 -3.25964 0.75 
1.21769 -3.26704 0.75 
1.22862 -3.27732 0.75 
1.23714 -3.28533 0.75 
1.24589 -3.29355 0.75 
1.26402 -3.31061 0.75 
1.2732 -3.31924 0.75 
1.2944 -3.33917 0.75 
1.30315 -3.34739 0.75 
1.31167 -3.35541 0.75 
1.32807 -3.37082 0.75 
1.33615 -3.37842 0.75 
1.35451 -3.39568 0.75 
1.36205 -3.40277 0.75 
1.3787 -3.41857 0.75 
1.38755 -3.42712 0.75 
1.39996 -3.43931 0.75 
1.40761 -3.44693 0.75 
1.42192 -3.46147 0.75 
1.42943 -3.46923 0.75 
1.44143 -3.48183 0.75 
1.44986 -3.49079 0.75 
1.46311 -3.5051 0.75 
1.4701 -3.51273 0.75 
1.48708 -3.53155 0.75 
1.49456 -3.53996 0.75 
1.502 -3.5484 0.75 
1.51619 -3.56468 0.75 
1.52313 -3.57276 0.75 
1.53411 -3.58567 0.75 
1.5424 -3.59555 0.75 
1.55765 -3.61409 0.75 
1.56462 -3.62273 0.75 
1.57153 -3.63141 0.75 
1.57877 -3.6406 0.75 
1.59017 -3.6553 0.75 
1.59818 -3.66579 0.75 
1.61081 -3.68257 0.75 
1.61734 -3.69136 0.75 
1.62401 -3.70042 0.75 
1.6332 -3.71303 0.75 
1.64004 -3.72252 0.75 
1.64666 -3.73179 0.75 
1.65515 -3.7438 0.75 
1.66124 -3.75253 0.75 
1.66713 -3.76104 0.75 
1.67811 -3.77716 0.75 
1.68495 -3.78738 0.75 
1.6914 -3.79714 0.75 
1.69763 -3.80669 0.75 
1.70718 -3.82159 0.75 
1.71391 -3.83225 0.75 
1.72812 -3.8552 0.75 
1.73373 -3.86443 0.75 
1.74926 -3.89045 0.75 
1.75503 -3.90028 0.75 
1.76629 -3.91976 0.75 
1.77163 -3.92915 0.75 
1.77678 -3.9383 0.75 
1.78334 -3.9501 0.75 
1.78953 -3.96142 0.75 
1.80086 -3.98257 0.75 
1.80615 -3.99267 0.75 
1.81424 -4.00841 0.75 
1.81992 -4.01966 0.75 
1.82885 -4.03767 0.75 
1.83345 -4.04711 0.75 
1.83814 -4.05684 0.75 
1.84778 -4.07716 0.75 
1.85247 -4.08722 0.75 
1.85986 -4.10331 0.75 
1.86406 -4.1126 0.75 
1.87343 -4.13372 0.75 
1.87756 -4.14321 0.75 
1.88153 -4.15244 0.75 
1.88662 -4.1643 0.75 
1.8917 -4.1755 0.75 
1.90174 -4.19596 0.75 
1.90666 -4.20524 0.75 
1.91269 -4.21596 0.75 
1.91853 -4.22575 0.75 
1.92513 -4.23613 0.75 
1.93329 -4.24799 0.75 
1.94218 -4.2597 0.75 
1.94915 -4.26795 0.75 
1.95665 -4.27571 0.75 
1.96625 -4.28066 0.75 
1.97544 -4.28507 0.75 
1.98794 -4.28932 0.75 
1.9981 -4.2925 0.75 
2.00831 -4.29553 0.75 
2.01985 -4.29882 0.75 
2.0375 -4.30367 0.75 
2.04779 -4.30641 0.75 
2.05897 -4.30932 0.75 
2.07103 -4.3124 0.75 
2.08398 -4.31563 0.75 
2.09506 -4.31834 0.75 
2.11052 -4.32201 0.75 
2.12252 -4.32475 0.75 
2.13834 -4.32822 0.75 
2.15832 -4.33236 0.75 
2.1692 -4.33452 0.75 
2.18659 -4.33784 0.75 
2.19898 -4.34013 0.75 
2.22557 -4.3448 0.75 
2.23622 -4.34659 0.75 
2.26229 -4.35079 0.75 
2.2737 -4.35256 0.75 
2.29908 -4.35629 0.75 
2.30933 -4.35772 0.75 
2.33208 -4.3607 0.75 
2.34429 -4.36219 0.75 
2.36158 -4.36417 0.75 
2.37292 -4.36538 0.75 
2.3974 -4.36777 0.75 
2.41055 -4.36894 0.75 
2.43148 -4.37065 0.75 
2.4424 -4.37146 0.75 
2.46859 -4.37323 0.75 
2.47982 -4.37391 0.75 
2.50828 -4.3754 0.75 
2.51862 -4.37585 0.75 
2.5453 -4.37684 0.75 
2.55534 -4.37719 0.75 
2.57288 -4.37779 0.75 
2.58383 -4.37817 0.75 
2.59507 -4.37856 0.75 
2.61066 -4.37911 0.75 
2.6228 -4.37954 0.75 
2.63524 -4.37997 0.75 
2.66043 -4.38087 0.75 
2.67302 -4.38131 0.75 
2.7012 -4.38232 0.75 
2.71274 -4.38273 0.75 
2.73898 -4.38367 0.75 
2.74977 -4.38406 0.75 
2.76026 -4.38444 0.75 
2.77405 -4.38494 0.75 
2.78425 -4.38531 0.75 
2.80733 -4.38616 0.75 
2.82052 -4.38664 0.75 
2.8487 -4.38767 0.75 
2.85995 -4.38808 0.75 
2.88738 -4.38908 0.75 
2.89967 -4.38953 0.75 
2.91226 -4.38999 0.75 
2.92905 -4.3906 0.75 
2.94164 -4.39106 0.75 
2.95393 -4.39151 0.75 
2.97762 -4.39237 0.75 
2.98886 -4.39278 0.75 
3.01479 -4.39373 0.75 
3.02543 -4.39412 0.75 
3.03578 -4.3945 0.75 
3.05617 -4.39522 0.75 
3.06906 -4.3956 0.75 
3.08736 -4.39599 0.75 
3.09875 -4.39614 0.75 
3.11466 -4.39622 0.75 
3.12485 -4.3962 0.75 
3.14075 -4.39605 0.75 
3.15215 -4.39585 0.75 
3.17045 -4.39541 0.75 
3.18334 -4.39501 0.75 
3.21092 -4.39392 0.75 
3.22186 -4.3934 0.75 
3.24058 -4.39242 0.75 
3.25166 -4.39176 0.75 
3.26244 -4.39103 0.75 
3.27619 -4.38993 0.75 
3.28934 -4.38871 0.75 
3.30783 -4.3867 0.75 
3.31944 -4.38525 0.75 
3.33578 -4.38296 0.75 
3.34585 -4.38138 0.75 
3.35975 -4.379 0.75 
3.37036 -4.37701 0.75 
3.38359 -4.3743 0.75 
3.39792 -4.37105 0.75 
3.40928 -4.3682 0.75 
3.41969 -4.36536 0.75 
3.43295 -4.36154 0.75 
3.44272 -4.35861 0.75 
3.45362 -4.35526 0.75 
3.47021 -4.35002 0.75 
3.48177 -4.34627 0.75 
3.49416 -4.34218 0.75 
3.50468 -4.33864 0.75 
3.52441 -4.33188 0.75 
3.53644 -4.32768 0.75 
3.55877 -4.31974 0.75 
3.5685 -4.3162 0.75 
3.59001 -4.3082 0.75 
3.6015 -4.30381 0.75 
3.61771 -4.29748 0.75 
3.62774 -4.29347 0.75 
3.64385 -4.28689 0.75 
3.6552 -4.28216 0.75 
3.67314 -4.27452 0.75 
3.68264 -4.27041 0.75 
3.69239 -4.26614 0.75 
3.71267 -4.25709 0.75 
3.72332 -4.25226 0.75 
3.74701 -4.24131 0.75 
3.75678 -4.23671 0.75 
3.76654 -4.23206 0.75 
3.77896 -4.22606 0.75 
3.79081 -4.22024 0.75 
3.80744 -4.21192 0.75 
3.81787 -4.2066 0.75 
3.83251 -4.19899 0.75 
3.84258 -4.19366 0.75 
3.86422 -4.18196 0.75 
3.87578 -4.17558 0.75 
3.89409 -4.1653 0.75 
3.9036 -4.15988 0.75 
3.92684 -4.14643 0.75 
3.93653 -4.14072 0.75 
3.95572 -4.12926 0.75 
3.96496 -4.12366 0.75 
3.97379 -4.11826 0.75 
3.98845 -4.10917 0.75 
3.99962 -4.10214 0.75 
4.01661 -4.0914 0.75 
4.02549 -4.0858 0.75 
4.03462 -4.08003 0.75 
4.04731 -4.07203 0.75 
4.0572 -4.06578 0.75 
4.06735 -4.05938 0.75 
4.08131 -4.05058 0.75 
4.09197 -4.04386 0.75 
4.10263 -4.03714 0.75 
4.12369 -4.02387 0.75 
4.13385 -4.01747 0.75 
4.15644 -4.00324 0.75 
4.16596 -3.99725 0.75 
4.18716 -3.98391 0.75 
4.19592 -3.97839 0.75 
4.21575 -3.96569 0.75 
4.2263 -3.9588 0.75 
4.24104 -3.94901 0.75 
4.25024 -3.94279 0.75 
4.26729 -3.93105 0.75 
4.27588 -3.92501 0.75 
4.28492 -3.91858 0.75 
4.29442 -3.91174 0.75 
4.30943 -3.90076 0.75 
4.32004 -3.8929 0.75 
4.34255 -3.87592 0.75 
4.35148 -3.86907 0.75 
4.37251 -3.85286 0.75 
4.38189 -3.84563 0.75 
4.40482 -3.82795 0.75 
4.41515 -3.81999 0.75 
4.43975 -3.80103 0.75 
4.44996 -3.79315 0.75 
4.45994 -3.78546 0.75 
4.47919 -3.77063 0.75 
4.48869 -3.7633 0.75 
4.5039 -3.75158 0.75 
4.51281 -3.74471 0.75 
4.52172 -3.73784 0.75 
4.53312 -3.72905 0.75 
4.54132 -3.72273 0.75 
4.54951 -3.71641 0.75 
4.56282 -3.70615 0.75 
4.57327 -3.69809 0.75 
4.58587 -3.68839 0.75 
4.59537 -3.68106 0.75 
4.60862 -3.67073 0.75 
4.61684 -3.6642 0.75 
4.62829 -3.65497 0.75 
4.63687 -3.64793 0.75 
4.64516 -3.64102 0.75 
4.6541 -3.63346 0.75 
4.66366 -3.62526 0.75 
4.67181 -3.61817 0.75 
4.68935 -3.60268 0.75 
4.69873 -3.59427 0.75 
4.7136 -3.58074 0.75 
4.72132 -3.57363 0.75 
4.73975 -3.55644 0.75 
4.74726 -3.54932 0.75 
4.76379 -3.5334 0.75 
4.77258 -3.5248 0.75 
4.78492 -3.51253 0.75 
4.79294 -3.50443 0.75 
4.80572 -3.49133 0.75 
4.81466 -3.48203 0.75 
4.82869 -3.46722 0.75 
4.83607 -3.45934 0.75 
4.84362 -3.4512 0.75 
4.85921 -3.43416 0.75 
4.86675 -3.42581 0.75 
4.88401 -3.40642 0.75 
4.89103 -3.39842 0.75 
4.90682 -3.38015 0.75 
4.91385 -3.37195 0.75 
4.92108 -3.36352 0.75 
4.93084 -3.35213 0.75 
4.93807 -3.34371 0.75 
4.9451 -3.33551 0.75 
4.95408 -3.32504 0.75 
4.96083 -3.31718 0.75 
4.96737 -3.30956 0.75 
4.98027 -3.29454 0.75 
4.98848 -3.28498 0.75 
5.00022 -3.27133 0.75 
5.00784 -3.26246 0.75 
5.01899 -3.24949 0.75 
5.02604 -3.24131 0.75 
5.03973 -3.22539 0.75 
5.04639 -3.21766 0.75 
5.05304 -3.20993 0.75 
5.06087 -3.20083 0.75 
5.06866 -3.1917 0.75 
5.0761 -3.18287 0.75 
5.08331 -3.17424 0.75 
5.08999 -3.16614 0.75 
5.09664 -3.15801 0.75 
5.10296 -3.15019 0.75 
5.11149 -3.13954 0.75 
5.12282 -3.12517 0.75 
5.13331 -3.11166 0.75 
5.14332 -3.09855 0.75 
5.15414 -3.08416 0.75 
5.16253 -3.07283 0.75 
5.1705 -3.06193 0.75 
5.17752 -3.0522 0.75 
5.18415 -3.04293 0.75 
5.19021 -3.03435 0.75 
5.19623 -3.02575 0.75 
5.20217 -3.01709 0.75 
5.20787 -3.00863 0.75 
5.2138 -2.99961 0.75 
5.21925 -2.99116 0.75 
5.22542 -2.9814 0.75 
