ply
format ascii 1.0
element vertex 771
property float x
property float y
property float z
end_header
-0.010701 0.001456 0.75 
-0.021379 0.003073 0.75 
-0.032635 0.004883 0.75 
-0.042693 0.006574 0.75 
-0.053924 0.008531 0.75 
-0.064406 0.010415 0.75 
-0.075171 0.012421 0.75 
-0.085023 0.014405 0.75 
-0.095573 0.016715 0.75 
-0.106223 0.019259 0.75 
-0.116093 0.021834 0.75 
-0.125755 0.024597 0.75 
-0.135564 0.02789 0.75 
-0.144924 0.031547 0.75 
-0.154797 0.035541 0.75 
-0.164358 0.039504 0.75 
-0.173754 0.043474 0.75 
-0.183534 0.04769 0.75 
-0.194094 0.052369 0.75 
-0.204199 0.056961 0.75 
-0.213453 0.061251 0.75 
-0.223492 0.065987 0.75 
-0.234447 0.071241 0.75 
-0.243754 0.075771 0.75 
-0.253575 0.080612 0.75 
-0.26391 0.085769 0.75 
-0.274755 0.091247 0.75 
-0.286107 0.097052 0.75 
-0.297963 0.103187 0.75 
-0.307135 0.107983 0.75 
-0.316688 0.113022 0.75 
-0.326486 0.118237 0.75 
-0.336397 0.12356 0.75 
-0.346289 0.12892 0.75 
-0.356159 0.134317 0.75 
-0.365747 0.139606 0.75 
-0.375183 0.144859 0.75 
-0.3846 0.150149 0.75 
-0.393604 0.155252 0.75 
-0.402328 0.160241 0.75 
-0.413758 0.166844 0.75 
-0.424896 0.173352 0.75 
-0.435745 0.17976 0.75 
-0.446307 0.186064 0.75 
-0.456326 0.192105 0.75 
-0.465806 0.19788 0.75 
-0.474738 0.203399 0.75 
-0.485157 0.209936 0.75 
-0.495272 0.216392 0.75 
-0.503834 0.221936 0.75 
-0.512865 0.227859 0.75 
-0.522362 0.234165 0.75 
-0.532322 0.240859 0.75 
-0.54274 0.247946 0.75 
-0.553613 0.25543 0.75 
-0.56211 0.26134 0.75 
-0.570828 0.267456 0.75 
-0.579766 0.273782 0.75 
-0.588921 0.280319 0.75 
-0.604607 0.29165 0.75 
-0.61369 0.298288 0.75 
-0.634413 0.313657 0.75 
-0.643042 0.320151 0.75 
-0.662356 0.334898 0.75 
-0.672785 0.342989 0.75 
-0.687994 0.354952 0.75 
-0.697847 0.362806 0.75 
-0.711853 0.374112 0.75 
-0.720681 0.381325 0.75 
-0.739732 0.397124 0.75 
-0.747997 0.404076 0.75 
-0.757923 0.412547 0.75 
-0.767042 0.420576 0.75 
-0.775259 0.428039 0.75 
-0.782707 0.435008 0.75 
-0.791864 0.44388 0.75 
-0.802394 0.454562 0.75 
-0.810088 0.462769 0.75 
-0.817538 0.471198 0.75 
-0.825013 0.480775 0.75 
-0.831779 0.489763 0.75 
-0.842703 0.504632 0.75 
-0.854072 0.520474 0.75 
-0.860475 0.529541 0.75 
-0.867431 0.539503 0.75 
-0.873316 0.548017 0.75 
-0.885985 0.566611 0.75 
-0.892757 0.576699 0.75 
-0.903444 0.592829 0.75 
-0.910426 0.603498 0.75 
-0.920605 0.619244 0.75 
-0.926986 0.62923 0.75 
-0.939146 0.648516 0.75 
-0.945091 0.658067 0.75 
-0.953353 0.671476 0.75 
-0.958665 0.680184 0.75 
-0.96897 0.697266 0.75 
-0.975115 0.707574 0.75 
-0.980838 0.717259 0.75 
-0.986527 0.726965 0.75 
-0.991956 0.736301 0.75 
-0.997203 0.745396 0.75 
-1.00302 0.75555 0.75 
-1.01144 0.770429 0.75 
-1.01672 0.779849 0.75 
-1.02176 0.788893 0.75 
-1.02814 0.800449 0.75 
-1.03576 0.814402 0.75 
-1.04275 0.827332 0.75 
-1.04913 0.839233 0.75 
-1.05497 0.850229 0.75 
-1.06056 0.860846 0.75 
-1.06563 0.87055 0.75 
-1.07047 0.879869 0.75 
-1.07522 0.889067 0.75 
-1.08014 0.898679 0.75 
-1.08619 0.910578 0.75 
-1.09093 0.919951 0.75 
-1.08648 0.91094 0.75 
-1.08161 0.901299 0.75 
-1.0767 0.89236 0.75 
-1.06849 0.880717 0.75 
-1.06139 0.871042 0.75 
-1.05086 0.856999 0.75 
-1.04011 0.842938 0.75 
-1.03289 0.833733 0.75 
-1.02635 0.825712 0.75 
-1.01709 0.814878 0.75 
-1.01006 0.807081 0.75 
-1.00255 0.799324 0.75 
-0.993051 0.790818 0.75 
-0.983995 0.782944 0.75 
-0.972006 0.772731 0.75 
-0.964072 0.766083 0.75 
-0.95561 0.759135 0.75 
-0.945907 0.751334 0.75 
-0.938023 0.745101 0.75 
-0.929388 0.738368 0.75 
-0.919997 0.731141 0.75 
-0.909724 0.723338 0.75 
-0.900967 0.716764 0.75 
-0.881908 0.702677 0.75 
-0.8716 0.695173 0.75 
-0.855158 0.683354 0.75 
-0.846476 0.677185 0.75 
-0.837528 0.670874 0.75 
-0.825109 0.662197 0.75 
-0.815489 0.655537 0.75 
-0.806216 0.649168 0.75 
-0.794187 0.640983 0.75 
-0.785479 0.635115 0.75 
-0.776874 0.629364 0.75 
-0.765492 0.62183 0.75 
-0.754447 0.614601 0.75 
-0.738193 0.604102 0.75 
-0.727569 0.597328 0.75 
-0.712337 0.587737 0.75 
-0.702657 0.581715 0.75 
-0.688475 0.572992 0.75 
-0.679248 0.56738 0.75 
-0.666126 0.559513 0.75 
-0.65604 0.553583 0.75 
-0.646298 0.547956 0.75 
-0.635993 0.542105 0.75 
-0.62473 0.535816 0.75 
-0.615136 0.530538 0.75 
-0.599701 0.522185 0.75 
-0.588712 0.516333 0.75 
-0.571173 0.507145 0.75 
-0.561977 0.502397 0.75 
-0.552361 0.49748 0.75 
-0.539108 0.490782 0.75 
-0.528775 0.48562 0.75 
-0.518422 0.4805 0.75 
-0.504945 0.473914 0.75 
-0.494814 0.469023 0.75 
-0.485069 0.464368 0.75 
-0.466201 0.455496 0.75 
-0.456807 0.45115 0.75 
-0.435777 0.441594 0.75 
-0.424131 0.436402 0.75 
-0.402002 0.426734 0.75 
-0.391385 0.422185 0.75 
-0.375768 0.415596 0.75 
-0.365794 0.411453 0.75 
-0.351216 0.405493 0.75 
-0.339931 0.40099 0.75 
-0.32931 0.396847 0.75 
-0.317818 0.392463 0.75 
-0.300243 0.385932 0.75 
-0.289385 0.381992 0.75 
-0.271998 0.37582 0.75 
-0.259671 0.371539 0.75 
-0.24007 0.364882 0.75 
-0.229823 0.36147 0.75 
-0.204433 0.353209 0.75 
-0.193283 0.349665 0.75 
-0.164339 0.340702 0.75 
-0.153711 0.3375 0.75 
-0.133423 0.331525 0.75 
-0.123476 0.328664 0.75 
-0.113662 0.325886 0.75 
-0.101089 0.322391 0.75 
-0.088931 0.319083 0.75 
-0.071098 0.314352 0.75 
-0.05948 0.311347 0.75 
-0.042754 0.307126 0.75 
-0.031831 0.304435 0.75 
-0.011117 0.299473 0.75 
-0.001183 0.297159 0.75 
0.013298 0.293869 0.75 
0.024435 0.291436 0.75 
0.034857 0.289244 0.75 
0.046177 0.286949 0.75 
0.063554 0.283583 0.75 
0.074319 0.281582 0.75 
0.091595 0.278494 0.75 
0.103865 0.276385 0.75 
0.123401 0.273162 0.75 
0.133623 0.271538 0.75 
0.144296 0.269885 0.75 
0.166551 0.266576 0.75 
0.178134 0.264925 0.75 
0.204146 0.261396 0.75 
0.215006 0.259998 0.75 
0.239276 0.257041 0.75 
0.249559 0.255861 0.75 
0.272525 0.253381 0.75 
0.285211 0.252104 0.75 
0.303281 0.250397 0.75 
0.315085 0.249353 0.75 
0.332127 0.247945 0.75 
0.343044 0.247103 0.75 
0.359053 0.245952 0.75 
0.36923 0.245272 0.75 
0.384501 0.244326 0.75 
0.395132 0.243701 0.75 
0.412203 0.242692 0.75 
0.424331 0.241973 0.75 
0.443647 0.240822 0.75 
0.453829 0.240213 0.75 
0.46431 0.239584 0.75 
0.478834 0.238712 0.75 
0.490063 0.238035 0.75 
0.501742 0.23733 0.75 
0.525848 0.23587 0.75 
0.537976 0.235133 0.75 
0.564776 0.233501 0.75 
0.576005 0.232815 0.75 
0.601308 0.231265 0.75 
0.611638 0.23063 0.75 
0.635293 0.229174 0.75 
0.648468 0.228361 0.75 
0.667482 0.227184 0.75 
0.679908 0.226414 0.75 
0.697424 0.225326 0.75 
0.708802 0.224618 0.75 
0.725121 0.223601 0.75 
0.73575 0.222937 0.75 
0.753565 0.221822 0.75 
0.763745 0.221184 0.75 
0.775572 0.220449 0.75 
0.786508 0.219899 0.75 
0.796552 0.219548 0.75 
0.8138 0.219315 0.75 
0.827298 0.219501 0.75 
0.837789 0.219917 0.75 
0.849442 0.220923 0.75 
0.859847 0.222334 0.75 
0.87068 0.223929 0.75 
0.884462 0.226087 0.75 
0.901331 0.228884 0.75 
0.911981 0.230682 0.75 
0.928399 0.23345 0.75 
0.938605 0.23517 0.75 
0.955024 0.237934 0.75 
0.96671 0.239899 0.75 
0.985348 0.243032 0.75 
0.998514 0.245244 0.75 
1.01937 0.248746 0.75 
1.03032 0.250582 0.75 
1.05695 0.255047 0.75 
1.06849 0.256981 0.75 
1.08002 0.258914 0.75 
1.09497 0.261417 0.75 
1.10577 0.263225 0.75 
1.11642 0.265008 0.75 
1.13047 0.267359 0.75 
1.14068 0.269067 0.75 
1.16347 0.272876 0.75 
1.17604 0.274978 0.75 
1.19454 0.278067 0.75 
1.20622 0.280019 0.75 
1.22856 0.283748 0.75 
1.23922 0.285526 0.75 
1.25727 0.288536 0.75 
1.26733 0.290214 0.75 
1.27976 0.292286 0.75 
1.29189 0.294308 0.75 
1.30491 0.296477 0.75 
1.31601 0.298327 0.75 
1.33376 0.301286 0.75 
1.34634 0.303382 0.75 
1.36631 0.306711 0.75 
1.37682 0.308462 0.75 
1.38762 0.310262 0.75 
1.39872 0.312111 0.75 
1.41026 0.314035 0.75 
1.42209 0.316008 0.75 
1.44162 0.319263 0.75 
1.45316 0.321186 0.75 
1.46456 0.323085 0.75 
1.47921 0.325526 0.75 
1.48986 0.327302 0.75 
1.50051 0.329078 0.75 
1.52108 0.332506 0.75 
1.53129 0.334207 0.75 
1.55363 0.337931 0.75 
1.56606 0.340003 0.75 
1.58381 0.342962 0.75 
1.59491 0.344812 0.75 
1.61045 0.347401 0.75 
1.62051 0.349079 0.75 
1.63619 0.351693 0.75 
1.64625 0.35337 0.75 
1.6609 0.355811 0.75 
1.67274 0.357784 0.75 
1.68442 0.359729 0.75 
1.69524 0.361459 0.75 
1.70888 0.363508 0.75 
1.72716 0.366008 0.75 
1.73743 0.3673 0.75 
1.74875 0.368647 0.75 
1.76098 0.370018 0.75 
1.7741 0.371404 0.75 
1.7853 0.372522 0.75 
1.80322 0.374196 0.75 
1.81592 0.375302 0.75 
1.83611 0.376934 0.75 
1.84673 0.377732 0.75 
1.85765 0.378512 0.75 
1.87261 0.379514 0.75 
1.88384 0.380215 0.75 
1.89462 0.380847 0.75 
1.90856 0.381601 0.75 
1.91889 0.382113 0.75 
1.92908 0.38258 0.75 
1.94212 0.383119 0.75 
1.95471 0.383577 0.75 
1.97315 0.384141 0.75 
1.98515 0.384439 0.75 
2.00524 0.384821 0.75 
2.01635 0.384969 0.75 
2.03029 0.385108 0.75 
2.04214 0.385226 0.75 
2.06104 0.385416 0.75 
2.07439 0.385552 0.75 
2.09554 0.385771 0.75 
2.10664 0.385887 0.75 
2.11804 0.386007 0.75 
2.13379 0.386174 0.75 
2.14594 0.386304 0.75 
2.15854 0.386439 0.75 
2.17489 0.386616 0.75 
2.18673 0.386745 0.75 
2.19829 0.386872 0.75 
2.21328 0.387038 0.75 
2.22453 0.387162 0.75 
2.23533 0.387283 0.75 
2.24928 0.387439 0.75 
2.25963 0.387556 0.75 
2.26983 0.387671 0.75 
2.28303 0.387822 0.75 
2.29608 0.387971 0.75 
2.31453 0.388183 0.75 
2.32653 0.388322 0.75 
2.34378 0.388523 0.75 
2.35502 0.388655 0.75 
2.37647 0.388908 0.75 
2.38667 0.389029 0.75 
2.40197 0.389211 0.75 
2.41412 0.389356 0.75 
2.42522 0.389385 0.75 
2.43542 0.389253 0.75 
2.44816 0.388858 0.75 
2.46314 0.388036 0.75 
2.47435 0.387127 0.75 
2.48553 0.385878 0.75 
2.49572 0.384055 0.75 
2.50602 0.382031 0.75 
2.51689 0.37979 0.75 
2.53009 0.376958 0.75 
2.54122 0.374488 0.75 
2.55131 0.372162 0.75 
2.56953 0.367723 0.75 
2.57999 0.365057 0.75 
2.59131 0.362092 0.75 
2.60102 0.359488 0.75 
2.61664 0.35519 0.75 
2.62775 0.352055 0.75 
2.64548 0.346936 0.75 
2.65799 0.343238 0.75 
2.67781 0.337247 0.75 
2.68813 0.334065 0.75 
2.69886 0.330709 0.75 
2.71359 0.326037 0.75 
2.72444 0.322541 0.75 
2.73499 0.319098 0.75 
2.74866 0.314569 0.75 
2.7589 0.311126 0.75 
2.7687 0.307788 0.75 
2.78131 0.303426 0.75 
2.79377 0.299048 0.75 
2.8117 0.292618 0.75 
2.82339 0.288347 0.75 
2.84574 0.280012 0.75 
2.85639 0.275958 0.75 
2.87221 0.26985 0.75 
2.88226 0.265907 0.75 
2.89645 0.260176 0.75 
2.90722 0.255604 0.75 
2.91709 0.251231 0.75 
2.93407 0.243269 0.75 
2.94746 0.236528 0.75 
2.95739 0.231224 0.75 
2.96625 0.226183 0.75 
2.97512 0.220562 0.75 
2.98363 0.214942 0.75 
2.99259 0.208913 0.75 
3.00349 0.201468 0.75 
3.02161 0.188893 0.75 
3.03104 0.18223 0.75 
3.04116 0.174982 0.75 
3.04979 0.168735 0.75 
3.06225 0.1596 0.75 
3.07032 0.153612 0.75 
3.08184 0.144971 0.75 
3.09092 0.138078 0.75 
3.09985 0.131232 0.75 
3.1085 0.124528 0.75 
3.11678 0.118061 0.75 
3.12608 0.11072 0.75 
3.13523 0.103425 0.75 
3.14655 0.094293 0.75 
3.15481 0.087566 0.75 
3.16373 0.080229 0.75 
3.17227 0.073141 0.75 
3.18216 0.064852 0.75 
3.19416 0.054655 0.75 
3.2044 0.045859 0.75 
3.21285 0.038425 0.75 
3.22033 0.031493 0.75 
3.23089 0.020639 0.75 
3.23911 0.011889 0.75 
3.24978 0.000312 0.75 
3.25736 -0.008006 0.75 
3.2658 -0.017359 0.75 
3.27351 -0.025962 0.75 
3.28179 -0.035262 0.75 
3.28854 -0.042901 0.75 
3.29855 -0.054277 0.75 
3.30645 -0.063312 0.75 
3.31402 -0.07203 0.75 
3.32138 -0.080541 0.75 
3.32872 -0.089071 0.75 
3.33622 -0.097849 0.75 
3.34768 -0.111343 0.75 
3.35473 -0.119717 0.75 
3.36599 -0.133181 0.75 
3.37394 -0.142763 0.75 
3.38651 -0.158057 0.75 
3.39305 -0.166079 0.75 
3.40916 -0.186041 0.75 
3.41636 -0.195069 0.75 
3.43364 -0.216979 0.75 
3.44082 -0.226214 0.75 
3.44769 -0.235123 0.75 
3.45652 -0.246691 0.75 
3.46302 -0.255312 0.75 
3.47751 -0.274821 0.75 
3.48519 -0.285368 0.75 
3.49594 -0.300368 0.75 
3.50259 -0.309811 0.75 
3.51241 -0.32399 0.75 
3.51909 -0.333779 0.75 
3.52863 -0.347971 0.75 
3.53468 -0.357099 0.75 
3.54647 -0.375196 0.75 
3.55206 -0.383907 0.75 
3.55752 -0.392518 0.75 
3.56404 -0.402773 0.75 
3.57007 -0.412092 0.75 
3.57568 -0.420612 0.75 
3.58219 -0.430332 0.75 
3.58819 -0.439131 0.75 
3.59477 -0.448627 0.75 
3.60192 -0.458814 0.75 
3.6081 -0.467492 0.75 
3.61467 -0.476624 0.75 
3.62527 -0.491166 0.75 
3.63285 -0.501418 0.75 
3.64925 -0.523243 0.75 
3.6558 -0.531832 0.75 
3.67185 -0.552605 0.75 
3.6786 -0.561227 0.75 
3.6937 -0.580263 0.75 
3.70189 -0.590426 0.75 
3.71356 -0.60472 0.75 
3.72092 -0.613622 0.75 
3.73237 -0.627312 0.75 
3.74012 -0.636472 0.75 
3.75153 -0.649806 0.75 
3.75899 -0.658429 0.75 
3.76975 -0.670742 0.75 
3.77679 -0.678729 0.75 
3.78696 -0.690156 0.75 
3.79517 -0.699121 0.75 
3.80287 -0.707112 0.75 
3.81014 -0.714268 0.75 
3.81827 -0.721825 0.75 
3.82884 -0.730918 0.75 
3.83989 -0.739431 0.75 
3.84929 -0.745615 0.75 
3.85958 -0.745563 0.75 
3.87006 -0.745119 0.75 
3.8843 -0.74438 0.75 
3.90226 -0.743302 0.75 
3.91259 -0.742667 0.75 
3.92397 -0.741969 0.75 
3.93625 -0.741217 0.75 
3.95496 -0.740073 0.75 
3.96634 -0.739378 0.75 
3.98341 -0.738339 0.75 
3.99434 -0.737674 0.75 
4.01036 -0.7367 0.75 
4.02054 -0.736083 0.75 
4.03537 -0.735184 0.75 
4.04735 -0.73446 0.75 
4.05857 -0.733781 0.75 
4.0698 -0.733103 0.75 
4.08058 -0.732453 0.75 
4.09106 -0.731822 0.75 
4.10274 -0.731119 0.75 
4.11981 -0.730093 0.75 
4.13059 -0.729446 0.75 
4.14092 -0.728827 0.75 
4.15739 -0.727841 0.75 
4.17282 -0.72694 0.75 
4.18556 -0.72642 0.75 
4.1959 -0.726224 0.75 
4.2064 -0.726336 0.75 
4.2169 -0.726672 0.75 
4.22739 -0.727117 0.75 
4.24387 -0.727965 0.75 
4.25555 -0.728649 0.75 
4.26632 -0.729331 0.75 
4.278 -0.730116 0.75 
4.29311 -0.731194 0.75 
4.30313 -0.731946 0.75 
4.31749 -0.733073 0.75 
4.32885 -0.734007 0.75 
4.34006 -0.734963 0.75 
4.35097 -0.735928 0.75 
4.36142 -0.736883 0.75 
4.37337 -0.73801 0.75 
4.38412 -0.739033 0.75 
4.39577 -0.740141 0.75 
4.411 -0.741588 0.75 
4.4219 -0.742624 0.75 
4.43937 -0.744281 0.75 
4.45177 -0.745457 0.75 
4.47148 -0.747325 0.75 
4.48178 -0.748301 0.75 
4.50732 -0.750718 0.75 
4.51882 -0.751806 0.75 
4.53047 -0.752908 0.75 
4.546 -0.754376 0.75 
4.55764 -0.755477 0.75 
4.56884 -0.756535 0.75 
4.58333 -0.757904 0.75 
4.59408 -0.758919 0.75 
4.60468 -0.75992 0.75 
4.61827 -0.761202 0.75 
4.63141 -0.762442 0.75 
4.65068 -0.764259 0.75 
4.66322 -0.765442 0.75 
4.68115 -0.767131 0.75 
4.6925 -0.7682 0.75 
4.70907 -0.769761 0.75 
4.71982 -0.770774 0.75 
4.73521 -0.772222 0.75 
4.74536 -0.773177 0.75 
4.76 -0.774554 0.75 
4.77194 -0.775678 0.75 
4.78405 -0.776764 0.75 
4.79436 -0.777625 0.75 
4.81096 -0.778903 0.75 
4.82188 -0.779675 0.75 
4.8379 -0.780711 0.75 
4.84808 -0.781311 0.75 
4.86291 -0.782103 0.75 
4.8749 -0.782673 0.75 
4.88614 -0.783151 0.75 
4.89738 -0.783574 0.75 
4.91237 -0.784057 0.75 
4.92257 -0.784332 0.75 
4.93426 -0.784593 0.75 
4.95106 -0.784871 0.75 
4.96861 -0.785039 0.75 
4.98511 -0.785085 0.75 
5.00341 -0.785015 0.75 
5.01586 -0.78489 0.75 
5.02936 -0.784665 0.75 
5.046 -0.784158 0.75 
5.05949 -0.783561 0.75 
5.07162 -0.782887 0.75 
5.08314 -0.782127 0.75 
5.09361 -0.781334 0.75 
5.10407 -0.78045 0.75 
5.11408 -0.77952 0.75 
5.12483 -0.77843 0.75 
5.13482 -0.777333 0.75 
5.14524 -0.776104 0.75 
5.15552 -0.774826 0.75 
5.16668 -0.77343 0.75 
5.17829 -0.77198 0.75 
5.19615 -0.76975 0.75 
5.20642 -0.768469 0.75 
5.21773 -0.767059 0.75 
5.22994 -0.765537 0.75 
5.24304 -0.763905 0.75 
5.2542 -0.762515 0.75 
5.27206 -0.76029 0.75 
5.28471 -0.758715 0.75 
5.31181 -0.755344 0.75 
5.32252 -0.75401 0.75 
5.34857 -0.75077 0.75 
5.35944 -0.749419 0.75 
5.3843 -0.746328 0.75 
5.39457 -0.745051 0.75 
5.41749 -0.742202 0.75 
5.43015 -0.74063 0.75 
5.44875 -0.738318 0.75 
5.46051 -0.736858 0.75 
5.47748 -0.73475 0.75 
5.48924 -0.73329 0.75 
5.508 -0.73096 0.75 
5.52125 -0.729315 0.75 
5.54223 -0.726709 0.75 
5.55325 -0.725341 0.75 
5.56456 -0.723936 0.75 
5.57617 -0.722494 0.75 
5.58823 -0.720997 0.75 
5.60058 -0.719462 0.75 
5.62887 -0.71595 0.75 
5.64048 -0.714508 0.75 
5.66713 -0.711199 0.75 
5.67799 -0.709849 0.75 
5.68871 -0.708518 0.75 
5.70285 -0.706762 0.75 
5.71312 -0.705486 0.75 
5.74245 -0.701845 0.75 
5.75495 -0.700292 0.75 
5.77326 -0.698018 0.75 
5.78517 -0.696539 0.75 
5.80229 -0.694413 0.75 
5.81345 -0.693026 0.75 
5.83474 -0.690383 0.75 
5.84486 -0.689126 0.75 
5.85959 -0.687295 0.75 
5.8715 -0.685816 0.75 
5.88356 -0.684319 0.75 
5.89383 -0.683043 0.75 
5.91616 -0.68027 0.75 
5.92822 -0.678772 0.75 
5.94742 -0.676387 0.75 
5.95754 -0.67513 0.75 
5.96796 -0.673836 0.75 
5.9824 -0.672043 0.75 
5.99357 -0.670656 0.75 
6.00518 -0.669214 0.75 
6.0211 -0.667236 0.75 
6.03287 -0.665776 0.75 
6.04448 -0.664334 0.75 
6.05981 -0.66243 0.75 
6.07097 -0.661043 0.75 
6.08169 -0.659712 0.75 
6.09598 -0.657937 0.75 
6.1064 -0.656643 0.75 
6.11652 -0.655386 0.75 
6.12962 -0.653759 0.75 
6.14257 -0.65215 0.75 
6.16133 -0.649821 0.75 
6.17339 -0.648323 0.75 
6.1911 -0.646123 0.75 
6.20241 -0.644718 0.75 
6.21893 -0.642666 0.75 
6.22965 -0.641335 0.75 
6.24498 -0.639431 0.75 
6.25496 -0.638192 0.75 
6.27312 -0.63599 0.75 
6.28326 -0.634861 0.75 
6.2949 -0.633664 0.75 
6.3055 -0.63266 0.75 
6.31701 -0.631652 0.75 
6.32942 -0.63065 0.75 
6.34004 -0.629857 0.75 
6.35126 -0.629079 0.75 
6.36923 -0.627952 0.75 
6.38196 -0.627235 0.75 
6.40922 -0.625912 0.75 
6.42001 -0.625464 0.75 
6.44625 -0.624544 0.75 
6.45749 -0.624224 0.75 
6.48299 -0.623663 0.75 
6.49378 -0.623498 0.75 
6.50414 -0.623381 0.75 
6.51749 -0.623292 0.75 
6.53068 -0.623274 0.75 
6.54974 -0.623365 0.75 
6.56218 -0.6235 0.75 
6.57973 -0.62379 0.75 
6.59113 -0.624042 0.75 
6.60747 -0.624489 0.75 
6.61812 -0.624836 0.75 
6.6376 -0.625645 0.75 
6.64884 -0.626226 0.75 
6.66052 -0.626917 0.75 
6.67055 -0.627575 0.75 
6.6867 -0.628751 0.75 
6.69822 -0.629668 0.75 
6.72302 -0.63185 0.75 
6.73631 -0.633126 0.75 
6.75735 -0.635289 0.75 
6.76838 -0.63649 0.75 
6.79074 -0.639059 0.75 
6.8019 -0.640412 0.75 
6.8269 -0.643612 0.75 
6.83731 -0.645016 0.75 
6.86047 -0.648302 0.75 
6.87338 -0.65023 0.75 
6.89206 -0.653143 0.75 
6.90405 -0.655088 0.75 
6.92165 -0.65805 0.75 
6.93288 -0.660005 0.75 
6.94927 -0.662947 0.75 
6.95989 -0.664912 0.75 
6.97566 -0.667919 0.75 
6.98566 -0.669892 0.75 
7.00022 -0.672847 0.75 
7.01196 -0.675308 0.75 
7.02296 -0.677674 0.75 
7.03365 -0.680031 0.75 
7.04389 -0.682342 0.75 
7.05412 -0.6847 0.75 
7.06551 -0.687384 0.75 
7.08213 -0.691411 0.75 
7.09945 -0.695745 0.75 
7.11543 -0.699867 0.75 
7.13007 -0.703748 0.75 
7.14411 -0.707562 0.75 
7.15842 -0.711538 0.75 
7.1691 -0.714565 0.75 
7.1812 -0.718062 0.75 
7.19271 -0.721458 0.75 
7.20291 -0.724525 0.75 
7.21481 -0.728173 0.75 
7.22512 -0.73139 0.75 
7.23542 -0.734656 0.75 
7.24727 -0.738477 0.75 
7.25725 -0.741746 0.75 
