ply
format ascii 1.0
element vertex 739
property float x
property float y
property float z
end_header
0.013641 0.00047 0.75 
0.025626 0.001071 0.75 
0.044941 0.002242 0.75 
0.060803 0.003339 0.75 
0.071872 0.004164 0.75 
0.089068 0.00553 0.75 
0.099681 0.00642 0.75 
0.116715 0.007917 0.75 
0.128814 0.009029 0.75 
0.148075 0.01088 0.75 
0.158225 0.011893 0.75 
0.175682 0.013694 0.75 
0.18642 0.014848 0.75 
0.197004 0.016036 0.75 
0.217111 0.018439 0.75 
0.229758 0.020056 0.75 
0.253237 0.023285 0.75 
0.26407 0.024881 0.75 
0.274299 0.026454 0.75 
0.286295 0.028382 0.75 
0.303302 0.031271 0.75 
0.313787 0.033138 0.75 
0.330601 0.036253 0.75 
0.342532 0.038547 0.75 
0.361508 0.042331 0.75 
0.371499 0.044385 0.75 
0.381775 0.046542 0.75 
0.402888 0.051103 0.75 
0.413431 0.053446 0.75 
0.430542 0.057345 0.75 
0.440329 0.059628 0.75 
0.467743 0.066239 0.75 
0.479386 0.069145 0.75 
0.496099 0.073416 0.75 
0.507129 0.076299 0.75 
0.523227 0.080551 0.75 
0.533251 0.083127 0.75 
0.547225 0.086601 0.75 
0.567668 0.091407 0.75 
0.590389 0.096338 0.75 
0.608325 0.099967 0.75 
0.618191 0.101882 0.75 
0.639721 0.105887 0.75 
0.651387 0.107968 0.75 
0.670014 0.111171 0.75 
0.683184 0.113353 0.75 
0.70407 0.116684 0.75 
0.715041 0.118372 0.75 
0.747396 0.123111 0.75 
0.758093 0.124596 0.75 
0.775488 0.126923 0.75 
0.785456 0.128207 0.75 
0.813449 0.131612 0.75 
0.825372 0.132972 0.75 
0.842371 0.134825 0.75 
0.852955 0.136017 0.75 
0.867698 0.137796 0.75 
0.879002 0.139266 0.75 
0.893115 0.141239 0.75 
0.907945 0.143491 0.75 
0.918162 0.145143 0.75 
0.936496 0.148278 0.75 
0.946536 0.150077 0.75 
0.959957 0.152564 0.75 
0.971302 0.154734 0.75 
0.992488 0.15894 0.75 
1.00542 0.161599 0.75 
1.033 0.167485 0.75 
1.04398 0.169907 0.75 
1.0687 0.175521 0.75 
1.07922 0.177979 0.75 
1.10314 0.18373 0.75 
1.11595 0.186903 0.75 
1.13398 0.19148 0.75 
1.14559 0.194499 0.75 
1.16255 0.199009 0.75 
1.17297 0.201854 0.75 
1.19202 0.207247 0.75 
1.21473 0.214024 0.75 
1.22476 0.217127 0.75 
1.24078 0.222208 0.75 
1.25219 0.225916 0.75 
1.27041 0.231976 0.75 
1.27993 0.235206 0.75 
1.30331 0.243319 0.75 
1.31391 0.247078 0.75 
1.33578 0.254978 0.75 
1.34676 0.259021 0.75 
1.35772 0.263108 0.75 
1.37539 0.269806 0.75 
1.38547 0.273689 0.75 
1.40781 0.282469 0.75 
1.42006 0.287391 0.75 
1.43782 0.294667 0.75 
1.44945 0.299515 0.75 
1.46575 0.306421 0.75 
1.47622 0.31093 0.75 
1.49134 0.317538 0.75 
1.50121 0.321916 0.75 
1.51489 0.328068 0.75 
1.52539 0.33289 0.75 
1.53503 0.337411 0.75 
1.55663 0.347877 0.75 
1.57779 0.358541 0.75 
1.58713 0.363351 0.75 
1.60201 0.371143 0.75 
1.61261 0.376776 0.75 
1.6295 0.385893 0.75 
1.63832 0.390715 0.75 
1.65996 0.402724 0.75 
1.66977 0.408243 0.75 
1.69905 0.42502 0.75 
1.70877 0.430686 0.75 
1.73033 0.443439 0.75 
1.7392 0.448766 0.75 
1.75932 0.461013 0.75 
1.77004 0.467639 0.75 
1.78529 0.477194 0.75 
1.79542 0.483621 0.75 
1.81007 0.49302 0.75 
1.82015 0.499529 0.75 
1.83628 0.509937 0.75 
1.84473 0.515382 0.75 
1.86554 0.528779 0.75 
1.875 0.534864 0.75 
1.8981 0.549703 0.75 
1.90845 0.556348 0.75 
1.93269 0.571897 0.75 
1.94292 0.578452 0.75 
1.96578 0.593094 0.75 
1.97526 0.599157 0.75 
1.99383 0.611037 0.75 
2.00293 0.616853 0.75 
2.01191 0.622586 0.75 
2.0262 0.631709 0.75 
2.03732 0.63881 0.75 
2.05351 0.649135 0.75 
2.06363 0.655586 0.75 
2.08336 0.66816 0.75 
2.09298 0.674283 0.75 
2.10665 0.682981 0.75 
2.11576 0.688779 0.75 
2.12892 0.69715 0.75 
2.13905 0.703587 0.75 
2.14891 0.709885 0.75 
2.1579 0.715866 0.75 
2.1675 0.722562 0.75 
2.17954 0.731498 0.75 
2.18987 0.739715 0.75 
2.19753 0.746227 0.75 
2.20592 0.754363 0.75 
2.21332 0.76244 0.75 
2.22019 0.770175 0.75 
2.22703 0.778143 0.75 
2.23377 0.786193 0.75 
2.24082 0.794766 0.75 
2.25288 0.809709 0.75 
2.25969 0.818285 0.75 
2.26701 0.827602 0.75 
2.27328 0.83565 0.75 
2.28335 0.848718 0.75 
2.29045 0.858019 0.75 
2.30166 0.87286 0.75 
2.30956 0.883431 0.75 
2.32206 0.90031 0.75 
2.32853 0.90914 0.75 
2.34395 0.930386 0.75 
2.35051 0.939526 0.75 
2.36897 0.965601 0.75 
2.3749 0.974087 0.75 
2.38793 0.992977 0.75 
2.39483 1.00316 0.75 
2.40449 1.01763 0.75 
2.41041 1.02667 0.75 
2.41854 1.03927 0.75 
2.43098 1.05909 0.75 
2.43631 1.06779 0.75 
2.44777 1.0868 0.75 
2.45387 1.09713 0.75 
2.46354 1.11372 0.75 
2.46854 1.12244 0.75 
2.48073 1.14398 0.75 
2.48621 1.1538 0.75 
2.49869 1.17655 0.75 
2.50383 1.18605 0.75 
2.51538 1.20777 0.75 
2.52149 1.21947 0.75 
2.53326 1.24243 0.75 
2.53893 1.25368 0.75 
2.5468 1.26954 0.75 
2.55182 1.27978 0.75 
2.55906 1.2946 0.75 
2.5636 1.30373 0.75 
2.56998 1.31631 0.75 
2.57775 1.3312 0.75 
2.58392 1.3427 0.75 
2.59407 1.36109 0.75 
2.6037 1.37804 0.75 
2.60903 1.38726 0.75 
2.62074 1.40718 0.75 
2.62713 1.41786 0.75 
2.63388 1.42903 0.75 
2.63919 1.43774 0.75 
2.64469 1.44668 0.75 
2.65634 1.4654 0.75 
2.66218 1.47467 0.75 
2.67575 1.4959 0.75 
2.68162 1.50497 0.75 
2.69462 1.52478 0.75 
2.70194 1.53577 0.75 
2.71591 1.55638 0.75 
2.72255 1.56583 0.75 
2.73208 1.57893 0.75 
2.73812 1.58696 0.75 
2.74668 1.59798 0.75 
2.75708 1.61079 0.75 
2.76406 1.61903 0.75 
2.77128 1.62726 0.75 
2.77887 1.63556 0.75 
2.78615 1.64313 0.75 
2.79357 1.65013 0.75 
2.80575 1.6608 0.75 
2.81646 1.6702 0.75 
2.82997 1.6821 0.75 
2.83774 1.68894 0.75 
2.84989 1.69965 0.75 
2.85742 1.7063 0.75 
2.86541 1.71335 0.75 
2.87384 1.7208 0.75 
2.89193 1.7368 0.75 
2.9017 1.74545 0.75 
2.91192 1.75449 0.75 
2.9199 1.76155 0.75 
2.92809 1.76881 0.75 
2.94493 1.78373 0.75 
2.95335 1.7912 0.75 
2.97288 1.80851 0.75 
2.98096 1.81568 0.75 
2.99869 1.83141 0.75 
3.00822 1.83987 0.75 
3.02214 1.85243 0.75 
3.03081 1.86052 0.75 
3.04279 1.87208 0.75 
3.05012 1.87939 0.75 
3.06324 1.89299 0.75 
3.0744 1.90515 0.75 
3.08153 1.91325 0.75 
3.08861 1.9216 0.75 
3.09505 1.92951 0.75 
3.10122 1.93745 0.75 
3.1072 1.94589 0.75 
3.11269 1.95431 0.75 
3.11861 1.96317 0.75 
3.12628 1.97446 0.75 
3.13461 1.98656 0.75 
3.14052 1.99506 0.75 
3.14981 2.00834 0.75 
3.15559 2.01656 0.75 
3.16658 2.03212 0.75 
3.17335 2.04166 0.75 
3.18604 2.05951 0.75 
3.19378 2.07038 0.75 
3.20606 2.0876 0.75 
3.21251 2.09664 0.75 
3.23243 2.12462 0.75 
3.23878 2.13355 0.75 
3.25291 2.1535 0.75 
3.25888 2.16195 0.75 
3.27251 2.18134 0.75 
3.27989 2.19174 0.75 
3.29056 2.20623 0.75 
3.29739 2.21517 0.75 
3.30718 2.22751 0.75 
3.31489 2.2369 0.75 
3.3248 2.24855 0.75 
3.33726 2.26257 0.75 
3.34746 2.27357 0.75 
3.35526 2.28167 0.75 
3.36267 2.28911 0.75 
3.37103 2.29729 0.75 
3.38294 2.30872 0.75 
3.3945 2.31963 0.75 
3.4026 2.32722 0.75 
3.41524 2.33896 0.75 
3.42304 2.34622 0.75 
3.43986 2.36204 0.75 
3.44888 2.37063 0.75 
3.4583 2.37966 0.75 
3.46564 2.38674 0.75 
3.47319 2.39404 0.75 
3.48899 2.40942 0.75 
3.49724 2.4175 0.75 
3.51724 2.43717 0.75 
3.52589 2.4457 0.75 
3.54573 2.46531 0.75 
3.55405 2.47355 0.75 
3.56758 2.48695 0.75 
3.57536 2.49466 0.75 
3.58292 2.50216 0.75 
3.59732 2.5164 0.75 
3.60672 2.52567 0.75 
3.6158 2.53462 0.75 
3.62478 2.54345 0.75 
3.6417 2.56006 0.75 
3.64984 2.56803 0.75 
3.66539 2.58324 0.75 
3.67312 2.59078 0.75 
3.6842 2.60133 0.75 
3.70104 2.61625 0.75 
3.7156 2.62807 0.75 
3.72759 2.63707 0.75 
3.73681 2.64352 0.75 
3.74537 2.64906 0.75 
3.75465 2.65398 0.75 
3.76797 2.66054 0.75 
3.77884 2.66563 0.75 
3.79318 2.67213 0.75 
3.81103 2.67998 0.75 
3.82123 2.68437 0.75 
3.83241 2.68911 0.75 
3.84196 2.69311 0.75 
3.85735 2.69946 0.75 
3.86833 2.70393 0.75 
3.88587 2.71096 0.75 
3.89828 2.71587 0.75 
3.91799 2.72355 0.75 
3.92835 2.72753 0.75 
3.9529 2.73682 0.75 
3.96344 2.74075 0.75 
3.98767 2.74962 0.75 
3.99783 2.75329 0.75 
4.02237 2.76217 0.75 
4.03337 2.76615 0.75 
4.06045 2.77597 0.75 
4.07257 2.78038 0.75 
4.10838 2.79341 0.75 
4.12021 2.79772 0.75 
4.14699 2.80749 0.75 
4.15798 2.81151 0.75 
4.18319 2.82073 0.75 
4.19347 2.82449 0.75 
4.20671 2.82934 0.75 
4.21643 2.83291 0.75 
4.22615 2.83647 0.75 
4.24741 2.84428 0.75 
4.25923 2.84863 0.75 
4.27064 2.85283 0.75 
4.2819 2.85697 0.75 
4.30301 2.86475 0.75 
4.31314 2.86849 0.75 
4.32285 2.87207 0.75 
4.33242 2.8756 0.75 
4.34438 2.88002 0.75 
4.35564 2.88418 0.75 
4.36874 2.88898 0.75 
4.37879 2.89249 0.75 
4.38962 2.89606 0.75 
4.40368 2.90034 0.75 
4.41597 2.90374 0.75 
4.42602 2.90622 0.75 
4.43795 2.90849 0.75 
4.44789 2.91 0.75 
4.45798 2.91143 0.75 
4.47583 2.91377 0.75 
4.50038 2.91694 0.75 
4.52493 2.92011 0.75 
4.53578 2.92152 0.75 
4.55319 2.92378 0.75 
4.56553 2.92538 0.75 
4.57847 2.92706 0.75 
4.58859 2.92838 0.75 
4.599 2.92973 0.75 
4.62087 2.93258 0.75 
4.63232 2.93407 0.75 
4.65166 2.93659 0.75 
4.66326 2.93811 0.75 
4.67471 2.9396 0.75 
4.69658 2.94245 0.75 
4.70728 2.94385 0.75 
4.72469 2.94613 0.75 
4.73465 2.94743 0.75 
4.76365 2.95122 0.75 
4.77615 2.95286 0.75 
4.78819 2.95444 0.75 
4.79964 2.95594 0.75 
4.82182 2.95872 0.75 
4.8321 2.95991 0.75 
4.84418 2.96123 0.75 
4.85537 2.96236 0.75 
4.86926 2.96365 0.75 
4.87928 2.96451 0.75 
4.89543 2.96579 0.75 
4.90695 2.96662 0.75 
4.92536 2.96783 0.75 
4.93838 2.9686 0.75 
4.95201 2.96933 0.75 
4.96265 2.96986 0.75 
4.97359 2.97036 0.75 
4.99652 2.97127 0.75 
5.00821 2.97166 0.75 
5.02726 2.97221 0.75 
5.0382 2.97246 0.75 
5.049 2.97267 0.75 
5.07015 2.97295 0.75 
5.0802 2.97303 0.75 
5.10255 2.97304 0.75 
5.11515 2.97296 0.75 
5.1336 2.97274 0.75 
5.14515 2.97253 0.75 
5.1624 2.97218 0.75 
5.17454 2.97193 0.75 
5.19389 2.97153 0.75 
5.20409 2.97132 0.75 
5.22178 2.97095 0.75 
5.23288 2.97073 0.75 
5.24428 2.9705 0.75 
5.26813 2.97001 0.75 
5.28057 2.96976 0.75 
5.30112 2.96935 0.75 
5.31327 2.9691 0.75 
5.32541 2.96886 0.75 
5.34926 2.96838 0.75 
5.36066 2.96815 0.75 
5.38615 2.96765 0.75 
5.39695 2.96743 0.75 
5.42064 2.96696 0.75 
5.43384 2.9667 0.75 
5.45274 2.96633 0.75 
5.46474 2.96609 0.75 
5.48228 2.96575 0.75 
5.49368 2.96553 0.75 
5.50463 2.96531 0.75 
5.51543 2.9651 0.75 
5.53552 2.96482 0.75 
5.55412 2.96479 0.75 
5.56417 2.96487 0.75 
5.58607 2.96523 0.75 
5.59792 2.96553 0.75 
5.61681 2.96613 0.75 
5.62985 2.96663 0.75 
5.64828 2.96747 0.75 
5.65981 2.96807 0.75 
5.67598 2.96902 0.75 
5.68601 2.96967 0.75 
5.69993 2.97067 0.75 
5.71054 2.9715 0.75 
5.7222 2.9725 0.75 
5.74117 2.9743 0.75 
5.75295 2.97552 0.75 
5.76578 2.97691 0.75 
5.77666 2.97814 0.75 
5.79706 2.98057 0.75 
5.80957 2.98214 0.75 
5.83188 2.98503 0.75 
5.84199 2.98635 0.75 
5.85955 2.98863 0.75 
5.87055 2.99006 0.75 
5.88186 2.99153 0.75 
5.90551 2.9946 0.75 
5.91786 2.99619 0.75 
5.94702 2.99996 0.75 
5.95951 3.00156 0.75 
5.98823 3.00526 0.75 
5.99998 3.00676 0.75 
6.01888 3.00919 0.75 
6.03004 3.01062 0.75 
6.04105 3.01202 0.75 
6.06203 3.0147 0.75 
6.07229 3.01601 0.75 
6.09536 3.01895 0.75 
6.10785 3.02054 0.75 
6.12616 3.02286 0.75 
6.13806 3.02437 0.75 
6.15503 3.02652 0.75 
6.16574 3.02787 0.75 
6.18137 3.02985 0.75 
6.19149 3.03113 0.75 
6.21069 3.03355 0.75 
6.2323 3.03597 0.75 
6.25025 3.03738 0.75 
6.26193 3.03797 0.75 
6.27498 3.03828 0.75 
6.28577 3.0381 0.75 
6.30056 3.03675 0.75 
6.31115 3.03563 0.75 
6.32306 3.03418 0.75 
6.33718 3.03225 0.75 
6.35498 3.02959 0.75 
6.37646 3.02613 0.75 
6.40158 3.02179 0.75 
6.41266 3.0198 0.75 
6.43035 3.01651 0.75 
6.44288 3.01412 0.75 
6.46275 3.01022 0.75 
6.47319 3.00811 0.75 
6.49126 3.00439 0.75 
6.50256 3.00201 0.75 
6.51385 2.9996 0.75 
6.53539 2.99488 0.75 
6.54593 2.99252 0.75 
6.56961 2.98706 0.75 
6.58246 2.98401 0.75 
6.59514 2.98095 0.75 
6.60738 2.97793 0.75 
6.62525 2.97336 0.75 
6.63637 2.97025 0.75 
6.65187 2.96553 0.75 
6.66141 2.96237 0.75 
6.67862 2.95615 0.75 
6.6881 2.9524 0.75 
6.69833 2.94808 0.75 
6.71101 2.94227 0.75 
6.72173 2.93688 0.75 
6.73053 2.93203 0.75 
6.73889 2.92621 0.75 
6.74741 2.91957 0.75 
6.75539 2.91322 0.75 
6.76658 2.90416 0.75 
6.78165 2.89178 0.75 
6.79018 2.88468 0.75 
6.80338 2.87358 0.75 
6.81151 2.86669 0.75 
6.82905 2.85167 0.75 
6.83847 2.84352 0.75 
6.84832 2.83496 0.75 
6.85599 2.82824 0.75 
6.86388 2.82131 0.75 
6.88038 2.80668 0.75 
6.88899 2.79898 0.75 
6.90383 2.78565 0.75 
6.91309 2.77733 0.75 
6.92258 2.76881 0.75 
6.94233 2.75107 0.75 
6.9526 2.74185 0.75 
6.97616 2.72071 0.75 
6.98587 2.712 0.75 
7.0082 2.69196 0.75 
7.01736 2.68375 0.75 
7.0264 2.67564 0.75 
7.04416 2.65972 0.75 
7.05265 2.65211 0.75 
7.07409 2.63289 0.75 
7.0818 2.62598 0.75 
7.1018 2.60806 0.75 
7.11152 2.59936 0.75 
7.12527 2.58705 0.75 
7.13421 2.57904 0.75 
7.14281 2.57134 0.75 
7.1513 2.56373 0.75 
7.16717 2.54953 0.75 
7.17478 2.54272 0.75 
7.1855 2.53312 0.75 
7.19362 2.52576 0.75 
7.20101 2.51896 0.75 
7.209 2.51147 0.75 
7.21714 2.50371 0.75 
7.22939 2.49178 0.75 
7.23781 2.48343 0.75 
7.2507 2.47045 0.75 
7.25858 2.46241 0.75 
7.27109 2.44947 0.75 
7.27989 2.44025 0.75 
7.29379 2.42552 0.75 
7.30105 2.41773 0.75 
7.31863 2.39864 0.75 
7.32621 2.39032 0.75 
7.34345 2.37113 0.75 
7.35062 2.36306 0.75 
7.36664 2.34478 0.75 
7.37527 2.33479 0.75 
7.38793 2.31996 0.75 
7.39605 2.31033 0.75 
7.41252 2.29067 0.75 
7.41907 2.28285 0.75 
7.43516 2.26365 0.75 
7.44239 2.25503 0.75 
7.45896 2.23526 0.75 
7.4659 2.22698 0.75 
7.47717 2.21353 0.75 
7.48362 2.20583 0.75 
7.50241 2.18341 0.75 
7.51051 2.17375 0.75 
7.51831 2.16444 0.75 
7.52602 2.15524 0.75 
7.54047 2.138 0.75 
7.54741 2.12972 0.75 
7.55733 2.11788 0.75 
7.56388 2.11006 0.75 
7.57342 2.09868 0.75 
7.58113 2.08948 0.75 
7.59125 2.07741 0.75 
7.60261 2.06385 0.75 
7.60936 2.0558 0.75 
7.61809 2.0453 0.75 
7.6277 2.03359 0.75 
7.63449 2.0252 0.75 
7.64125 2.01677 0.75 
7.65196 2.00325 0.75 
7.66147 1.99107 0.75 
7.67016 1.97978 0.75 
7.67833 1.96904 0.75 
7.686 1.95885 0.75 
7.69316 1.94922 0.75 
7.70108 1.93847 0.75 
7.70727 1.92999 0.75 
7.7132 1.92151 0.75 
7.71585 1.91151 0.75 
7.71539 1.90117 0.75 
7.71477 1.89053 0.75 
7.71378 1.88054 0.75 
7.71109 1.86873 0.75 
7.70773 1.85894 0.75 
7.70395 1.84834 0.75 
7.70004 1.83828 0.75 
7.69575 1.82886 0.75 
7.68979 1.8204 0.75 
7.68355 1.81196 0.75 
7.67684 1.80312 0.75 
7.66857 1.79244 0.75 
7.65872 1.77996 0.75 
7.65178 1.7713 0.75 
7.64091 1.75791 0.75 
7.63415 1.74968 0.75 
7.62515 1.73882 0.75 
7.61745 1.72962 0.75 
7.60291 1.71245 0.75 
7.59628 1.70469 0.75 
7.57991 1.68574 0.75 
7.5725 1.67727 0.75 
7.55473 1.65714 0.75 
7.54724 1.64875 0.75 
7.53025 1.62994 0.75 
7.52327 1.62229 0.75 
7.50718 1.60489 0.75 
7.49845 1.59561 0.75 
7.4859 1.5827 0.75 
7.47793 1.57476 0.75 
7.46659 1.56383 0.75 
7.4577 1.55555 0.75 
7.44946 1.54811 0.75 
7.44179 1.54139 0.75 
7.43333 1.5342 0.75 
7.42251 1.52539 0.75 
7.41387 1.51867 0.75 
7.40542 1.51244 0.75 
7.39691 1.50682 0.75 
7.38495 1.49964 0.75 
7.37391 1.49326 0.75 
7.35954 1.48515 0.75 
7.3418 1.47538 0.75 
7.32067 1.464 0.75 
7.31126 1.45901 0.75 
7.29612 1.45107 0.75 
7.28534 1.44547 0.75 
7.26812 1.43664 0.75 
7.25902 1.43203 0.75 
7.22991 1.41746 0.75 
7.21955 1.41235 0.75 
7.20244 1.40399 0.75 
7.19258 1.39923 0.75 
7.18284 1.39456 0.75 
7.16373 1.3855 0.75 
7.15462 1.38125 0.75 
7.14005 1.37452 0.75 
7.12898 1.36951 0.75 
7.1084 1.36041 0.75 
7.0989 1.35632 0.75 
7.08909 1.35217 0.75 
7.0787 1.34784 0.75 
7.05619 1.3387 0.75 
7.04406 1.33389 0.75 
7.01803 1.32384 0.75 
7.00765 1.31991 0.75 
6.98303 1.31081 0.75 
6.97245 1.30698 0.75 
6.94813 1.29838 0.75 
6.9382 1.29494 0.75 
6.91604 1.28745 0.75 
6.9035 1.28331 0.75 
6.88508 1.27738 0.75 
6.8735 1.27372 0.75 
6.85702 1.26863 0.75 
6.8461 1.26533 0.75 
6.83014 1.2606 0.75 
6.81977 1.25758 0.75 
6.80507 1.25335 0.75 
6.79382 1.25011 0.75 
6.78344 1.24712 0.75 
6.77336 1.24422 0.75 
6.75966 1.24027 0.75 
6.74165 1.23507 0.75 
6.72478 1.23021 0.75 
6.70893 1.22563 0.75 
6.69351 1.22118 0.75 
6.67982 1.21723 0.75 
6.66685 1.21348 0.75 
6.6546 1.20994 0.75 
6.6435 1.20673 0.75 
6.63342 1.20381 0.75 
6.62376 1.20102 0.75 
6.61281 1.19785 0.75 
6.60244 1.19485 0.75 
6.59279 1.19206 0.75 
6.58169 1.18885 0.75 
6.57089 1.18572 0.75 
6.55648 1.18156 0.75 
6.54321 1.17775 0.75 
6.52709 1.17357 0.75 
6.51685 1.17125 0.75 
6.50682 1.16943 0.75 
6.49596 1.16808 0.75 
6.48403 1.16673 0.75 
6.46479 1.16473 0.75 
6.45089 1.16348 0.75 
6.43428 1.16236 0.75 
6.42379 1.16192 0.75 
6.41329 1.16179 0.75 
6.3971 1.1621 0.75 
6.38285 1.16258 0.75 
6.36487 1.16334 0.75 
6.34539 1.16432 0.75 
6.32638 1.16543 0.75 
6.31575 1.16611 0.75 
6.30422 1.16689 0.75 
6.29031 1.16793 0.75 
6.27836 1.169 0.75 
6.26837 1.17005 0.75 
6.25645 1.17147 0.75 
6.24157 1.17341 0.75 
6.22702 1.17547 0.75 
6.21427 1.17742 0.75 
6.20242 1.17934 0.75 
6.19119 1.18126 0.75 
6.18085 1.18311 0.75 
6.17023 1.18509 0.75 
6.15963 1.18716 0.75 
6.14905 1.18929 0.75 
6.13759 1.19169 0.75 
6.12762 1.19384 0.75 
