ply
format ascii 1.0
element vertex 644
property float x
property float y
property float z
end_header
0.010492 0.000408 0.75 
0.021427 0.000978 0.75 
0.032806 0.001663 0.75 
0.042835 0.002324 0.75 
0.054356 0.003139 0.75 
0.064901 0.003931 0.75 
0.076341 0.004833 0.75 
0.087027 0.005743 0.75 
0.098676 0.006834 0.75 
0.109121 0.00791 0.75 
0.119854 0.009109 0.75 
0.131917 0.01056 0.75 
0.143002 0.011975 0.75 
0.15497 0.01358 0.75 
0.16522 0.015013 0.75 
0.176057 0.016581 0.75 
0.18748 0.018291 0.75 
0.199487 0.020147 0.75 
0.212078 0.022155 0.75 
0.225251 0.02432 0.75 
0.235531 0.026054 0.75 
0.246101 0.027869 0.75 
0.256967 0.029735 0.75 
0.268278 0.03167 0.75 
0.279885 0.03365 0.75 
0.291789 0.035674 0.75 
0.30399 0.037742 0.75 
0.316636 0.039879 0.75 
0.329283 0.042009 0.75 
0.341931 0.044134 0.75 
0.354579 0.046253 0.75 
0.366785 0.048292 0.75 
0.378696 0.050276 0.75 
0.39046 0.052231 0.75 
0.402224 0.054181 0.75 
0.413546 0.056053 0.75 
0.424572 0.057871 0.75 
0.43545 0.059661 0.75 
0.44633 0.061448 0.75 
0.456766 0.063157 0.75 
0.466906 0.064815 0.75 
0.479934 0.06694 0.75 
0.492962 0.06906 0.75 
0.503104 0.07071 0.75 
0.513542 0.072408 0.75 
0.524424 0.074179 0.75 
0.535602 0.075998 0.75 
0.547076 0.077866 0.75 
0.558846 0.079782 0.75 
0.57106 0.081771 0.75 
0.58357 0.083808 0.75 
0.596228 0.085869 0.75 
0.608886 0.087931 0.75 
0.621545 0.089993 0.75 
0.633907 0.092006 0.75 
0.645973 0.093972 0.75 
0.657743 0.09589 0.75 
0.669068 0.097735 0.75 
0.680098 0.099532 0.75 
0.690979 0.101306 0.75 
0.70186 0.103079 0.75 
0.712298 0.10478 0.75 
0.722735 0.106482 0.75 
0.73332 0.108207 0.75 
0.744201 0.109981 0.75 
0.755527 0.111827 0.75 
0.767149 0.113722 0.75 
0.779066 0.115665 0.75 
0.79128 0.117656 0.75 
0.803938 0.119719 0.75 
0.816596 0.121782 0.75 
0.829254 0.123846 0.75 
0.841912 0.125909 0.75 
0.854569 0.127972 0.75 
0.866931 0.129987 0.75 
0.878997 0.131954 0.75 
0.890767 0.133872 0.75 
0.902092 0.135718 0.75 
0.913122 0.137516 0.75 
0.924003 0.13929 0.75 
0.934884 0.141064 0.75 
0.945322 0.142765 0.75 
0.955463 0.144418 0.75 
0.965456 0.146047 0.75 
0.975449 0.147675 0.75 
0.988181 0.149751 0.75 
0.998174 0.151379 0.75 
1.00846 0.153056 0.75 
1.01905 0.154782 0.75 
1.02993 0.156555 0.75 
1.04126 0.158401 0.75 
1.05288 0.160296 0.75 
1.0648 0.162238 0.75 
1.07701 0.164229 0.75 
1.08967 0.166292 0.75 
1.10232 0.168355 0.75 
1.11498 0.170418 0.75 
1.12764 0.172481 0.75 
1.13986 0.174472 0.75 
1.15177 0.176415 0.75 
1.16354 0.178333 0.75 
1.17531 0.180251 0.75 
1.18664 0.182097 0.75 
1.19767 0.183895 0.75 
1.2084 0.185645 0.75 
1.21884 0.187346 0.75 
1.22883 0.188975 0.75 
1.23882 0.190603 0.75 
1.24882 0.192232 0.75 
1.25881 0.193861 0.75 
1.26925 0.195562 0.75 
1.27998 0.197312 0.75 
1.29101 0.199109 0.75 
1.30234 0.200955 0.75 
1.31411 0.202874 0.75 
1.32617 0.20484 0.75 
1.33853 0.206855 0.75 
1.35119 0.208919 0.75 
1.36385 0.210982 0.75 
1.37651 0.213045 0.75 
1.38916 0.215108 0.75 
1.40182 0.217171 0.75 
1.41403 0.219162 0.75 
1.42595 0.221104 0.75 
1.43757 0.222999 0.75 
1.4489 0.224845 0.75 
1.45978 0.226618 0.75 
1.47066 0.228392 0.75 
1.4814 0.230141 0.75 
1.49183 0.231843 0.75 
1.50183 0.233471 0.75 
1.51182 0.2351 0.75 
1.52181 0.236729 0.75 
1.53181 0.238358 0.75 
1.54224 0.240059 0.75 
1.55298 0.241808 0.75 
1.56401 0.243606 0.75 
1.57533 0.245452 0.75 
1.5871 0.247371 0.75 
1.59917 0.249337 0.75 
1.61153 0.251352 0.75 
1.62419 0.253415 0.75 
1.63684 0.255478 0.75 
1.6495 0.257542 0.75 
1.66201 0.259581 0.75 
1.67423 0.261571 0.75 
1.686 0.26349 0.75 
1.69776 0.265408 0.75 
1.70939 0.267302 0.75 
1.72071 0.269148 0.75 
1.73159 0.270922 0.75 
1.74248 0.272695 0.75 
1.75321 0.274445 0.75 
1.76365 0.276146 0.75 
1.77364 0.277775 0.75 
1.78652 0.279874 0.75 
1.79925 0.28195 0.75 
1.81243 0.284097 0.75 
1.82272 0.285774 0.75 
1.8333 0.2875 0.75 
1.84418 0.289273 0.75 
1.85551 0.291119 0.75 
1.86713 0.293013 0.75 
1.87905 0.294956 0.75 
1.89126 0.296947 0.75 
1.90392 0.29901 0.75 
1.91658 0.301073 0.75 
1.92909 0.303112 0.75 
1.9413 0.305103 0.75 
1.95307 0.307021 0.75 
1.96484 0.30894 0.75 
1.97646 0.310834 0.75 
1.98779 0.31268 0.75 
1.99867 0.314453 0.75 
2.00955 0.316227 0.75 
2.02028 0.317976 0.75 
2.03072 0.319678 0.75 
2.04116 0.321379 0.75 
2.05189 0.323128 0.75 
2.06292 0.324926 0.75 
2.07424 0.326772 0.75 
2.08601 0.32869 0.75 
2.09808 0.330657 0.75 
2.11044 0.332672 0.75 
2.1231 0.334735 0.75 
2.13576 0.336798 0.75 
2.14842 0.338861 0.75 
2.16107 0.340925 0.75 
2.17373 0.342988 0.75 
2.18595 0.344978 0.75 
2.19786 0.346921 0.75 
2.20948 0.348815 0.75 
2.22081 0.350661 0.75 
2.23169 0.352435 0.75 
2.24257 0.354208 0.75 
2.2533 0.355958 0.75 
2.26374 0.357659 0.75 
2.27374 0.359288 0.75 
2.28373 0.360917 0.75 
2.29387 0.36257 0.75 
2.30431 0.364271 0.75 
2.31519 0.366044 0.75 
2.32607 0.367818 0.75 
2.33695 0.369592 0.75 
2.34783 0.371365 0.75 
2.35871 0.373139 0.75 
2.3693 0.374864 0.75 
2.37959 0.376541 0.75 
2.38958 0.37817 0.75 
2.40231 0.380245 0.75 
2.41445 0.382224 0.75 
2.42659 0.384202 0.75 
2.43814 0.386085 0.75 
2.44969 0.387967 0.75 
2.46064 0.389752 0.75 
2.4716 0.391538 0.75 
2.48255 0.393324 0.75 
2.49292 0.395013 0.75 
2.50513 0.397004 0.75 
2.51705 0.398946 0.75 
2.52852 0.400816 0.75 
2.5394 0.40259 0.75 
2.55014 0.404339 0.75 
2.56058 0.40604 0.75 
2.57057 0.407669 0.75 
2.58182 0.409503 0.75 
2.59292 0.411313 0.75 
2.60329 0.413002 0.75 
2.6135 0.414667 0.75 
2.62453 0.416465 0.75 
2.63541 0.418238 0.75 
2.6457 0.419915 0.75 
2.65695 0.421749 0.75 
2.66821 0.423583 0.75 
2.67827 0.425224 0.75 
2.68886 0.426949 0.75 
2.69885 0.428578 0.75 
2.70936 0.430292 0.75 
2.71994 0.43203 0.75 
2.73044 0.433809 0.75 
2.74101 0.435661 0.75 
2.7509 0.437447 0.75 
2.76107 0.439341 0.75 
2.76842 0.44671 0.75 
2.77543 0.454523 0.75 
2.78238 0.46209 0.75 
2.78958 0.469105 0.75 
2.77959 0.466969 0.75 
2.7695 0.464068 0.75 
2.75881 0.461073 0.75 
2.7476 0.457989 0.75 
2.73645 0.45496 0.75 
2.72625 0.452167 0.75 
2.71519 0.449104 0.75 
2.70314 0.445719 0.75 
2.69289 0.442809 0.75 
2.68208 0.439701 0.75 
2.6707 0.436393 0.75 
2.65876 0.432876 0.75 
2.64625 0.429144 0.75 
2.63656 0.426218 0.75 
2.62644 0.423131 0.75 
2.61605 0.419924 0.75 
2.60539 0.416594 0.75 
2.59444 0.413141 0.75 
2.58308 0.409512 0.75 
2.57174 0.405841 0.75 
2.56041 0.402127 0.75 
2.54909 0.398364 0.75 
2.53822 0.394695 0.75 
2.52707 0.39089 0.75 
2.51565 0.38697 0.75 
2.50396 0.382929 0.75 
2.49184 0.378718 0.75 
2.47945 0.37438 0.75 
2.46694 0.369959 0.75 
2.45443 0.365504 0.75 
2.44194 0.361014 0.75 
2.42946 0.356485 0.75 
2.41714 0.351964 0.75 
2.40512 0.347501 0.75 
2.39353 0.34315 0.75 
2.38225 0.338857 0.75 
2.37126 0.334622 0.75 
2.36057 0.330447 0.75 
2.35032 0.326388 0.75 
2.34037 0.322389 0.75 
2.33071 0.318454 0.75 
2.32136 0.314582 0.75 
2.30947 0.309576 0.75 
2.29817 0.304724 0.75 
2.28745 0.300035 0.75 
2.27731 0.295519 0.75 
2.26768 0.291336 0.75 
2.25637 0.286698 0.75 
2.24579 0.282639 0.75 
2.23599 0.279109 0.75 
2.22532 0.275539 0.75 
2.21435 0.272166 0.75 
2.20395 0.269259 0.75 
2.1942 0.266828 0.75 
2.18407 0.264709 0.75 
2.17419 0.26286 0.75 
2.16409 0.260961 0.75 
2.15414 0.259083 0.75 
2.14427 0.257214 0.75 
2.13292 0.255062 0.75 
2.12253 0.253088 0.75 
2.11126 0.250942 0.75 
2.09895 0.248597 0.75 
2.08849 0.246603 0.75 
2.07744 0.244496 0.75 
2.0658 0.242277 0.75 
2.05357 0.239945 0.75 
2.04075 0.237501 0.75 
2.03081 0.235605 0.75 
2.02042 0.233624 0.75 
2.00974 0.231588 0.75 
1.99876 0.229495 0.75 
1.98749 0.227346 0.75 
1.97578 0.225113 0.75 
1.96377 0.222824 0.75 
1.95161 0.220507 0.75 
1.93945 0.218189 0.75 
1.9273 0.215872 0.75 
1.91544 0.213611 0.75 
1.90387 0.211406 0.75 
1.8926 0.209257 0.75 
1.88177 0.207193 0.75 
1.87109 0.205157 0.75 
1.84699 0.200559 0.75 
1.83706 0.198615 0.75 
1.81538 0.194194 0.75 
1.80379 0.191723 0.75 
1.78242 0.186957 0.75 
1.77263 0.184678 0.75 
1.75804 0.181167 0.75 
1.74771 0.178599 0.75 
1.73114 0.174353 0.75 
1.7194 0.171255 0.75 
1.69747 0.165293 0.75 
1.68757 0.16253 0.75 
1.6668 0.156595 0.75 
1.65651 0.153582 0.75 
1.64652 0.150607 0.75 
1.63374 0.146727 0.75 
1.62157 0.142944 0.75 
1.599 0.135703 0.75 
1.58861 0.13226 0.75 
1.57327 0.12705 0.75 
1.56236 0.123255 0.75 
1.54498 0.117065 0.75 
1.53271 0.112599 0.75 
1.51002 0.104131 0.75 
1.49972 0.100206 0.75 
1.47234 0.089491 0.75 
1.46241 0.085432 0.75 
1.44055 0.076088 0.75 
1.42892 0.070871 0.75 
1.41261 0.063246 0.75 
1.4025 0.058319 0.75 
1.38845 0.051206 0.75 
1.37776 0.045575 0.75 
1.36429 0.038167 0.75 
1.34808 0.028749 0.75 
1.33531 0.020879 0.75 
1.32588 0.014748 0.75 
1.31719 0.008858 0.75 
1.30736 0.001976 0.75 
1.29456 -0.00721 0.75 
1.28548 -0.013851 0.75 
1.2771 -0.020053 0.75 
1.26803 -0.026837 0.75 
1.25619 -0.035796 0.75 
1.24773 -0.042262 0.75 
1.23881 -0.049127 0.75 
1.22957 -0.056303 0.75 
1.21193 -0.070262 0.75 
1.20387 -0.076761 0.75 
1.19273 -0.085888 0.75 
1.18427 -0.092947 0.75 
1.17585 -0.100068 0.75 
1.1668 -0.107835 0.75 
1.15713 -0.116254 0.75 
1.14891 -0.123492 0.75 
1.13582 -0.135179 0.75 
1.12647 -0.14363 0.75 
1.11187 -0.157003 0.75 
1.10444 -0.163887 0.75 
1.0879 -0.179466 0.75 
1.07913 -0.187873 0.75 
1.06688 -0.199801 0.75 
1.0593 -0.207288 0.75 
1.04808 -0.218553 0.75 
1.0402 -0.226582 0.75 
1.02333 -0.244071 0.75 
1.01435 -0.25354 0.75 
1.00021 -0.268659 0.75 
0.992833 -0.276648 0.75 
0.975511 -0.295667 0.75 
0.968174 -0.303895 0.75 
0.952279 -0.322176 0.75 
0.943852 -0.332141 0.75 
0.932106 -0.346368 0.75 
0.924853 -0.355357 0.75 
0.91481 -0.368069 0.75 
0.908661 -0.376018 0.75 
0.90023 -0.387131 0.75 
0.893921 -0.395618 0.75 
0.887113 -0.404948 0.75 
0.877587 -0.418329 0.75 
0.871623 -0.426879 0.75 
0.865201 -0.436207 0.75 
0.858328 -0.446318 0.75 
0.851972 -0.455872 0.75 
0.846228 -0.46475 0.75 
0.840085 -0.474531 0.75 
0.832509 -0.487041 0.75 
0.826109 -0.498068 0.75 
0.821114 -0.507047 0.75 
0.81626 -0.516103 0.75 
0.809335 -0.529409 0.75 
0.804434 -0.539033 0.75 
0.798962 -0.549881 0.75 
0.793927 -0.559857 0.75 
0.788486 -0.570637 0.75 
0.78382 -0.579876 0.75 
0.776313 -0.594737 0.75 
0.770968 -0.605313 0.75 
0.762442 -0.622181 0.75 
0.756417 -0.634094 0.75 
0.743553 -0.659525 0.75 
0.738439 -0.66963 0.75 
0.722418 -0.701281 0.75 
0.717032 -0.71192 0.75 
0.704872 -0.735943 0.75 
0.699937 -0.745802 0.75 
0.689276 -0.767555 0.75 
0.683643 -0.779327 0.75 
0.67582 -0.796036 0.75 
0.67101 -0.806536 0.75 
0.664381 -0.821318 0.75 
0.660343 -0.830521 0.75 
0.654836 -0.843338 0.75 
0.650742 -0.853089 0.75 
0.645033 -0.867041 0.75 
0.64061 -0.878115 0.75 
0.635933 -0.890057 0.75 
0.632 -0.900276 0.75 
0.625849 -0.916552 0.75 
0.621732 -0.927344 0.75 
0.615837 -0.942433 0.75 
0.612101 -0.951763 0.75 
0.606809 -0.96467 0.75 
0.602711 -0.974419 0.75 
0.598143 -0.985027 0.75 
0.590232 -1.00277 0.75 
0.581466 -1.02169 0.75 
0.576349 -1.03246 0.75 
0.570773 -1.04401 0.75 
0.566393 -1.05305 0.75 
0.560415 -1.06565 0.75 
0.555975 -1.07525 0.75 
0.550521 -1.08736 0.75 
0.543469 -1.10359 0.75 
0.535383 -1.12297 0.75 
0.530903 -1.13402 0.75 
0.526162 -1.14594 0.75 
0.522173 -1.15614 0.75 
0.515883 -1.17252 0.75 
0.511546 -1.18403 0.75 
0.505326 -1.20092 0.75 
0.501523 -1.21151 0.75 
0.496311 -1.22637 0.75 
0.492412 -1.2378 0.75 
0.488599 -1.24926 0.75 
0.485395 -1.2591 0.75 
0.478611 -1.28055 0.75 
0.475042 -1.29217 0.75 
0.469483 -1.3107 0.75 
0.466632 -1.32042 0.75 
0.459717 -1.34457 0.75 
0.456673 -1.35548 0.75 
0.451747 -1.37349 0.75 
0.448897 -1.38414 0.75 
0.446045 -1.39495 0.75 
0.4421 -1.40989 0.75 
0.439048 -1.42141 0.75 
0.435874 -1.43337 0.75 
0.429276 -1.45816 0.75 
0.425851 -1.47099 0.75 
0.417952 -1.50047 0.75 
0.414702 -1.51257 0.75 
0.407422 -1.53958 0.75 
0.404428 -1.55066 0.75 
0.397543 -1.57606 0.75 
0.394653 -1.5867 0.75 
0.387242 -1.61391 0.75 
0.384575 -1.62368 0.75 
0.378453 -1.64588 0.75 
0.375087 -1.65771 0.75 
0.370236 -1.67426 0.75 
0.367117 -1.6846 0.75 
0.362632 -1.69907 0.75 
0.355106 -1.72233 0.75 
0.35168 -1.73258 0.75 
0.346094 -1.7489 0.75 
0.34203 -1.76051 0.75 
0.33541 -1.77901 0.75 
0.33189 -1.78866 0.75 
0.323493 -1.81122 0.75 
0.318904 -1.82328 0.75 
0.312274 -1.84018 0.75 
0.307986 -1.85074 0.75 
0.301779 -1.86554 0.75 
0.296921 -1.87676 0.75 
0.292318 -1.8871 0.75 
0.28799 -1.89659 0.75 
0.283218 -1.90678 0.75 
0.276983 -1.91967 0.75 
0.270861 -1.93187 0.75 
0.263053 -1.94692 0.75 
0.253453 -1.96509 0.75 
0.247959 -1.9755 0.75 
0.242052 -1.98672 0.75 
0.237024 -1.99627 0.75 
0.226143 -2.01699 0.75 
0.220291 -2.02815 0.75 
0.211034 -2.04582 0.75 
0.206131 -2.05519 0.75 
0.194144 -2.07812 0.75 
0.188762 -2.08843 0.75 
0.17617 -2.11256 0.75 
0.170866 -2.12274 0.75 
0.159053 -2.14542 0.75 
0.154102 -2.15494 0.75 
0.141949 -2.17829 0.75 
0.136444 -2.18887 0.75 
0.123044 -2.21461 0.75 
0.117053 -2.22612 0.75 
0.09908 -2.26065 0.75 
0.093227 -2.27189 0.75 
0.08017 -2.29697 0.75 
0.074662 -2.30755 0.75 
0.062365 -2.33117 0.75 
0.057273 -2.34094 0.75 
0.045668 -2.36323 0.75 
0.040991 -2.37221 0.75 
0.030632 -2.3921 0.75 
0.02495 -2.40301 0.75 
0.016704 -2.41884 0.75 
0.011022 -2.42975 0.75 
0.001944 -2.44717 0.75 
-0.002803 -2.45629 0.75 
-0.014479 -2.4787 0.75 
-0.01978 -2.48888 0.75 
-0.032704 -2.51369 0.75 
-0.03849 -2.5248 0.75 
-0.05571 -2.55786 0.75 
-0.061219 -2.56844 0.75 
-0.073797 -2.59258 0.75 
-0.079098 -2.60276 0.75 
-0.089284 -2.62232 0.75 
-0.094169 -2.6317 0.75 
-0.106411 -2.65509 0.75 
-0.112204 -2.66594 0.75 
-0.120449 -2.68109 0.75 
-0.125686 -2.69054 0.75 
-0.133133 -2.70373 0.75 
-0.145413 -2.72487 0.75 
-0.15093 -2.73415 0.75 
-0.163056 -2.75417 0.75 
-0.169673 -2.76489 0.75 
-0.180266 -2.7818 0.75 
-0.185936 -2.79072 0.75 
-0.199956 -2.81247 0.75 
-0.206237 -2.82207 0.75 
-0.218667 -2.84083 0.75 
-0.224802 -2.84999 0.75 
-0.231021 -2.85927 0.75 
-0.239613 -2.87211 0.75 
-0.246242 -2.88203 0.75 
-0.253117 -2.89231 0.75 
-0.262529 -2.90641 0.75 
-0.269814 -2.91733 0.75 
-0.277178 -2.92838 0.75 
-0.291648 -2.9501 0.75 
-0.298588 -2.96052 0.75 
-0.309844 -2.97745 0.75 
-0.316444 -2.98738 0.75 
-0.322959 -2.99719 0.75 
-0.331339 -3.00981 0.75 
-0.337434 -3.019 0.75 
-0.343527 -3.02818 0.75 
-0.3514 -3.04006 0.75 
-0.357075 -3.04863 0.75 
-0.362665 -3.05707 0.75 
-0.373593 -3.07358 0.75 
-0.380709 -3.08434 0.75 
-0.387575 -3.09473 0.75 
-0.394108 -3.10461 0.75 
-0.406754 -3.12376 0.75 
-0.412867 -3.13303 0.75 
-0.421621 -3.1463 0.75 
-0.427318 -3.15494 0.75 
-0.435241 -3.16697 0.75 
-0.441635 -3.17668 0.75 
-0.447944 -3.18626 0.75 
-0.453922 -3.19535 0.75 
-0.461876 -3.20744 0.75 
-0.467438 -3.2159 0.75 
-0.473781 -3.22555 0.75 
-0.482963 -3.23953 0.75 
-0.49243 -3.25395 0.75 
-0.498025 -3.26248 0.75 
-0.504072 -3.2717 0.75 
-0.50987 -3.28054 0.75 
-0.518668 -3.29397 0.75 
-0.525655 -3.30463 0.75 
-0.532393 -3.31492 0.75 
-0.538554 -3.32434 0.75 
-0.544468 -3.33337 0.75 
-0.550872 -3.34316 0.75 
-0.556701 -3.35208 0.75 
-0.562569 -3.36105 0.75 
-0.568847 -3.37066 0.75 
-0.574802 -3.37976 0.75 
-0.583308 -3.39211 0.75 
-0.590874 -3.40275 0.75 
-0.598718 -3.41355 0.75 
-0.606302 -3.4238 0.75 
-0.612749 -3.43237 0.75 
-0.62095 -3.44309 0.75 
-0.627466 -3.45142 0.75 
-0.634193 -3.45958 0.75 
-0.640869 -3.46729 0.75 
-0.647989 -3.47531 0.75 
-0.655201 -3.48325 0.75 
-0.663735 -3.49242 0.75 
-0.671194 -3.50023 0.75 
-0.678715 -3.50787 0.75 
-0.686078 -3.51515 0.75 
-0.693599 -3.52236 0.75 
-0.701498 -3.52973 0.75 
