ply
format ascii 1.0
element vertex 719
property float x
property float y
property float z
end_header
0.004938 -0.009605 0.75 
0.009337 -0.018806 0.75 
0.012634 -0.028456 0.75 
0.015887 -0.038911 0.75 
0.019083 -0.049698 0.75 
0.022095 -0.060226 0.75 
0.024992 -0.07063 0.75 
0.027631 -0.080327 0.75 
0.030452 -0.090907 0.75 
0.033448 -0.102372 0.75 
0.035982 -0.112253 0.75 
0.038624 -0.122725 0.75 
0.041396 -0.133782 0.75 
0.044317 -0.145421 0.75 
0.047384 -0.157642 0.75 
0.050599 -0.170445 0.75 
0.053121 -0.180483 0.75 
0.055717 -0.190812 0.75 
0.058386 -0.201431 0.75 
0.061129 -0.212342 0.75 
0.063983 -0.223688 0.75 
0.066911 -0.235326 0.75 
0.069913 -0.247254 0.75 
0.072989 -0.259472 0.75 
0.075956 -0.271255 0.75 
0.07885 -0.282746 0.75 
0.081672 -0.293946 0.75 
0.084421 -0.304855 0.75 
0.08717 -0.315764 0.75 
0.089847 -0.326381 0.75 
0.092451 -0.336708 0.75 
0.094982 -0.346744 0.75 
0.097514 -0.356779 0.75 
0.099973 -0.366524 0.75 
0.103115 -0.379036 0.75 
0.10604 -0.390983 0.75 
0.108752 -0.402364 0.75 
0.111258 -0.413177 0.75 
0.113632 -0.423713 0.75 
0.116006 -0.434556 0.75 
0.118442 -0.446 0.75 
0.120933 -0.458045 0.75 
0.123473 -0.470692 0.75 
0.125402 -0.480555 0.75 
0.127346 -0.490721 0.75 
0.12933 -0.501337 0.75 
0.131322 -0.512257 0.75 
0.13332 -0.523481 0.75 
0.135321 -0.535008 0.75 
0.137274 -0.546544 0.75 
0.139128 -0.557792 0.75 
0.140909 -0.5689 0.75 
0.142643 -0.580016 0.75 
0.144261 -0.590694 0.75 
0.14579 -0.601082 0.75 
0.147278 -0.611476 0.75 
0.148804 -0.622168 0.75 
0.150393 -0.633305 0.75 
0.152024 -0.644739 0.75 
0.153698 -0.65647 0.75 
0.155414 -0.668498 0.75 
0.157194 -0.680972 0.75 
0.159016 -0.693743 0.75 
0.160859 -0.706662 0.75 
0.162702 -0.719581 0.75 
0.164482 -0.732055 0.75 
0.166262 -0.744528 0.75 
0.16802 -0.756854 0.75 
0.169737 -0.768882 0.75 
0.171389 -0.780464 0.75 
0.172999 -0.79175 0.75 
0.174588 -0.802887 0.75 
0.176177 -0.814025 0.75 
0.177703 -0.824716 0.75 
0.179186 -0.835111 0.75 
0.180648 -0.845357 0.75 
0.18211 -0.855603 0.75 
0.183974 -0.868671 0.75 
0.185705 -0.881152 0.75 
0.187278 -0.893048 0.75 
0.188703 -0.904359 0.75 
0.189987 -0.915082 0.75 
0.191206 -0.925813 0.75 
0.192426 -0.937148 0.75 
0.193641 -0.949086 0.75 
0.194844 -0.961628 0.75 
0.196028 -0.974775 0.75 
0.196905 -0.985088 0.75 
0.197763 -0.995703 0.75 
0.198598 -1.00662 0.75 
0.199409 -1.01784 0.75 
0.200203 -1.02952 0.75 
0.200946 -1.04119 0.75 
0.201631 -1.05272 0.75 
0.20225 -1.06395 0.75 
0.20282 -1.07519 0.75 
0.203328 -1.08613 0.75 
0.203787 -1.09692 0.75 
0.204242 -1.10771 0.75 
0.204718 -1.11895 0.75 
0.205208 -1.13049 0.75 
0.205712 -1.14233 0.75 
0.20623 -1.15447 0.75 
0.206769 -1.16705 0.75 
0.207322 -1.17994 0.75 
0.207883 -1.19298 0.75 
0.208445 -1.20602 0.75 
0.20899 -1.21861 0.75 
0.209523 -1.2309 0.75 
0.21005 -1.24303 0.75 
0.210579 -1.25517 0.75 
0.211089 -1.26686 0.75 
0.211587 -1.27825 0.75 
0.212073 -1.28934 0.75 
0.212546 -1.30013 0.75 
0.213021 -1.31092 0.75 
0.213483 -1.32141 0.75 
0.213946 -1.3319 0.75 
0.214423 -1.34269 0.75 
0.214919 -1.35393 0.75 
0.215428 -1.36547 0.75 
0.215951 -1.37731 0.75 
0.216486 -1.38944 0.75 
0.217042 -1.40203 0.75 
0.217611 -1.41492 0.75 
0.218186 -1.42796 0.75 
0.218761 -1.44099 0.75 
0.219317 -1.45358 0.75 
0.219859 -1.46587 0.75 
0.220395 -1.47801 0.75 
0.22093 -1.49014 0.75 
0.221446 -1.50183 0.75 
0.221948 -1.51322 0.75 
0.222438 -1.52431 0.75 
0.222914 -1.5351 0.75 
0.22339 -1.54589 0.75 
0.223852 -1.55638 0.75 
0.224308 -1.56672 0.75 
0.224764 -1.57706 0.75 
0.225346 -1.59025 0.75 
0.225952 -1.60283 0.75 
0.226607 -1.61482 0.75 
0.227302 -1.62619 0.75 
0.228028 -1.63697 0.75 
0.228776 -1.64714 0.75 
0.22975 -1.65925 0.75 
0.230649 -1.66956 0.75 
0.231663 -1.68047 0.75 
0.232798 -1.69196 0.75 
0.23406 -1.70405 0.75 
0.235455 -1.71672 0.75 
0.236988 -1.72998 0.75 
0.238226 -1.74026 0.75 
0.239563 -1.75097 0.75 
0.240982 -1.76198 0.75 
0.242466 -1.77313 0.75 
0.243996 -1.78428 0.75 
0.24551 -1.79497 0.75 
0.247069 -1.80566 0.75 
0.248689 -1.81649 0.75 
0.250358 -1.82762 0.75 
0.252092 -1.83919 0.75 
0.253869 -1.85105 0.75 
0.255689 -1.86322 0.75 
0.257551 -1.87568 0.75 
0.259479 -1.88859 0.75 
0.261406 -1.90149 0.75 
0.263331 -1.9144 0.75 
0.265255 -1.92731 0.75 
0.267111 -1.93977 0.75 
0.268922 -1.95194 0.75 
0.270687 -1.96381 0.75 
0.272408 -1.97538 0.75 
0.274127 -1.98695 0.75 
0.275801 -1.99823 0.75 
0.27743 -2.00921 0.75 
0.279014 -2.01989 0.75 
0.280598 -2.03058 0.75 
0.282136 -2.04096 0.75 
0.28363 -2.05105 0.75 
0.285584 -2.06426 0.75 
0.287099 -2.0745 0.75 
0.28868 -2.08518 0.75 
0.290304 -2.09616 0.75 
0.291973 -2.10744 0.75 
0.293685 -2.11901 0.75 
0.295464 -2.13103 0.75 
0.297286 -2.14335 0.75 
0.299152 -2.15596 0.75 
0.301062 -2.16887 0.75 
0.302907 -2.18133 0.75 
0.304707 -2.1935 0.75 
0.306486 -2.20552 0.75 
0.308264 -2.21754 0.75 
0.309977 -2.22911 0.75 
0.311646 -2.24039 0.75 
0.313292 -2.25152 0.75 
0.314939 -2.26265 0.75 
0.31652 -2.27333 0.75 
0.318057 -2.28372 0.75 
0.319578 -2.29396 0.75 
0.321142 -2.30419 0.75 
0.323208 -2.31722 0.75 
0.325258 -2.32966 0.75 
0.327284 -2.34148 0.75 
0.329277 -2.35271 0.75 
0.33123 -2.36333 0.75 
0.333359 -2.37453 0.75 
0.335668 -2.38631 0.75 
0.338164 -2.39865 0.75 
0.340854 -2.41158 0.75 
0.343013 -2.4217 0.75 
0.34528 -2.43211 0.75 
0.347655 -2.4428 0.75 
0.350143 -2.45377 0.75 
0.352778 -2.46517 0.75 
0.355393 -2.47626 0.75 
0.358021 -2.4872 0.75 
0.360696 -2.49813 0.75 
0.36331 -2.50861 0.75 
0.365894 -2.51878 0.75 
0.368491 -2.5288 0.75 
0.371178 -2.5388 0.75 
0.374748 -2.55151 0.75 
0.37831 -2.56359 0.75 
0.381846 -2.57506 0.75 
0.38534 -2.58591 0.75 
0.388775 -2.59615 0.75 
0.392135 -2.60578 0.75 
0.396186 -2.61692 0.75 
0.400076 -2.62715 0.75 
0.403775 -2.6365 0.75 
0.407898 -2.64648 0.75 
0.412247 -2.65653 0.75 
0.416467 -2.66581 0.75 
0.420827 -2.67503 0.75 
0.42561 -2.68488 0.75 
0.430409 -2.69456 0.75 
0.434937 -2.70353 0.75 
0.439928 -2.71328 0.75 
0.445392 -2.72379 0.75 
0.45014 -2.73282 0.75 
0.455212 -2.74236 0.75 
0.46061 -2.7524 0.75 
0.466339 -2.76294 0.75 
0.472404 -2.77398 0.75 
0.47881 -2.78553 0.75 
0.483867 -2.79456 0.75 
0.488812 -2.80331 0.75 
0.495222 -2.8145 0.75 
0.501401 -2.82514 0.75 
0.507342 -2.83522 0.75 
0.513037 -2.84474 0.75 
0.51848 -2.85372 0.75 
0.523977 -2.86267 0.75 
0.529844 -2.87209 0.75 
0.536085 -2.88199 0.75 
0.542705 -2.89235 0.75 
0.54971 -2.90319 0.75 
0.555209 -2.9116 0.75 
0.560907 -2.92024 0.75 
0.566892 -2.92923 0.75 
0.573081 -2.93844 0.75 
0.579393 -2.94776 0.75 
0.585744 -2.95704 0.75 
0.591909 -2.96591 0.75 
0.597985 -2.97447 0.75 
0.603965 -2.98274 0.75 
0.611731 -2.99322 0.75 
0.619265 -3.00313 0.75 
0.626552 -3.01248 0.75 
0.633577 -3.02127 0.75 
0.640326 -3.02951 0.75 
0.646787 -3.0372 0.75 
0.654423 -3.04607 0.75 
0.661586 -3.05415 0.75 
0.669475 -3.06279 0.75 
0.676572 -3.07032 0.75 
0.68379 -3.07774 0.75 
0.691625 -3.0856 0.75 
0.699674 -3.09368 0.75 
0.707618 -3.10164 0.75 
0.714926 -3.10897 0.75 
0.722975 -3.11704 0.75 
0.73166 -3.12576 0.75 
0.739074 -3.13319 0.75 
0.746912 -3.14105 0.75 
0.755173 -3.14933 0.75 
0.763858 -3.15805 0.75 
0.772967 -3.16718 0.75 
0.780063 -3.1743 0.75 
0.787371 -3.18163 0.75 
0.794996 -3.18927 0.75 
0.802634 -3.19691 0.75 
0.810201 -3.2044 0.75 
0.81759 -3.21165 0.75 
0.827064 -3.22084 0.75 
0.836162 -3.22956 0.75 
0.844877 -3.23781 0.75 
0.853205 -3.24559 0.75 
0.861579 -3.25333 0.75 
0.870443 -3.26142 0.75 
0.879799 -3.26986 0.75 
0.889653 -3.27864 0.75 
0.897413 -3.28549 0.75 
0.90543 -3.2925 0.75 
0.913703 -3.29967 0.75 
0.922235 -3.30701 0.75 
0.931141 -3.31459 0.75 
0.93985 -3.32195 0.75 
0.948477 -3.32917 0.75 
0.957135 -3.33635 0.75 
0.965477 -3.34321 0.75 
0.973617 -3.34985 0.75 
0.981668 -3.35635 0.75 
0.989748 -3.36282 0.75 
1.0001 -3.37101 0.75 
1.01003 -3.37877 0.75 
1.01953 -3.3861 0.75 
1.02859 -3.39301 0.75 
1.03723 -3.3995 0.75 
1.04638 -3.4063 0.75 
1.05605 -3.41339 0.75 
1.06626 -3.42079 0.75 
1.07699 -3.42847 0.75 
1.08544 -3.43445 0.75 
1.09415 -3.44057 0.75 
1.10314 -3.44682 0.75 
1.11241 -3.45321 0.75 
1.12207 -3.45981 0.75 
1.13176 -3.46636 0.75 
1.14135 -3.47279 0.75 
1.15072 -3.47902 0.75 
1.15974 -3.48496 0.75 
1.16879 -3.49085 0.75 
1.17774 -3.49663 0.75 
1.18646 -3.5022 0.75 
1.19762 -3.50926 0.75 
1.20831 -3.51592 0.75 
1.21853 -3.5222 0.75 
1.22828 -3.52811 0.75 
1.23755 -3.53365 0.75 
1.24737 -3.53944 0.75 
1.25775 -3.54548 0.75 
1.26867 -3.55175 0.75 
1.28016 -3.55826 0.75 
1.28919 -3.56331 0.75 
1.29851 -3.56847 0.75 
1.30811 -3.57374 0.75 
1.31799 -3.57911 0.75 
1.3283 -3.58465 0.75 
1.33836 -3.59 0.75 
1.34818 -3.59518 0.75 
1.35776 -3.60016 0.75 
1.36697 -3.6049 0.75 
1.37592 -3.60945 0.75 
1.38746 -3.61524 0.75 
1.39848 -3.62068 0.75 
1.40901 -3.6258 0.75 
1.41929 -3.63072 0.75 
1.42987 -3.63571 0.75 
1.44103 -3.64089 0.75 
1.45276 -3.64625 0.75 
1.46192 -3.65038 0.75 
1.47137 -3.6546 0.75 
1.48126 -3.65895 0.75 
1.49144 -3.66338 0.75 
1.50191 -3.66789 0.75 
1.51267 -3.67247 0.75 
1.52305 -3.67682 0.75 
1.53344 -3.68113 0.75 
1.54371 -3.68534 0.75 
1.55372 -3.68939 0.75 
1.56333 -3.69323 0.75 
1.57268 -3.69691 0.75 
1.58471 -3.70158 0.75 
1.59621 -3.70595 0.75 
1.60717 -3.71004 0.75 
1.61787 -3.71396 0.75 
1.62889 -3.71792 0.75 
1.64049 -3.72201 0.75 
1.65268 -3.72623 0.75 
1.66219 -3.72947 0.75 
1.672 -3.73276 0.75 
1.68225 -3.73615 0.75 
1.69281 -3.73959 0.75 
1.70366 -3.74308 0.75 
1.71482 -3.74661 0.75 
1.72556 -3.74995 0.75 
1.73631 -3.75325 0.75 
1.74708 -3.75651 0.75 
1.75785 -3.75976 0.75 
1.76905 -3.76315 0.75 
1.78054 -3.76662 0.75 
1.79231 -3.77017 0.75 
1.80438 -3.77381 0.75 
1.81687 -3.77759 0.75 
1.82965 -3.78145 0.75 
1.84243 -3.78531 0.75 
1.85492 -3.78908 0.75 
1.86698 -3.79272 0.75 
1.87876 -3.79628 0.75 
1.89039 -3.79979 0.75 
1.90202 -3.8033 0.75 
1.91322 -3.80669 0.75 
1.92413 -3.80998 0.75 
1.9349 -3.81323 0.75 
1.94567 -3.81649 0.75 
1.95601 -3.81961 0.75 
1.96606 -3.82264 0.75 
1.97597 -3.82563 0.75 
1.98588 -3.82863 0.75 
1.99852 -3.83244 0.75 
2.00842 -3.83543 0.75 
2.01862 -3.83851 0.75 
2.0291 -3.84168 0.75 
2.03987 -3.84493 0.75 
2.05107 -3.84831 0.75 
2.06198 -3.85161 0.75 
2.07275 -3.85486 0.75 
2.08352 -3.85811 0.75 
2.09386 -3.86124 0.75 
2.10391 -3.86427 0.75 
2.11382 -3.86726 0.75 
2.12373 -3.87025 0.75 
2.13636 -3.87407 0.75 
2.149 -3.87789 0.75 
2.16106 -3.88153 0.75 
2.17313 -3.88517 0.75 
2.18461 -3.88864 0.75 
2.19553 -3.89194 0.75 
2.20644 -3.89523 0.75 
2.21678 -3.89835 0.75 
2.22712 -3.90148 0.75 
2.23688 -3.90442 0.75 
2.24665 -3.90737 0.75 
2.25641 -3.91032 0.75 
2.2679 -3.91379 0.75 
2.2791 -3.91717 0.75 
2.28987 -3.92043 0.75 
2.30007 -3.92351 0.75 
2.31012 -3.92654 0.75 
2.31988 -3.92949 0.75 
2.33108 -3.93287 0.75 
2.342 -3.93617 0.75 
2.35233 -3.93929 0.75 
2.36268 -3.94238 0.75 
2.37247 -3.94525 0.75 
2.38357 -3.94843 0.75 
2.39382 -3.95132 0.75 
2.40394 -3.95411 0.75 
2.4148 -3.95705 0.75 
2.42525 -3.95982 0.75 
2.43497 -3.96234 0.75 
2.44544 -3.96501 0.75 
2.45548 -3.96752 0.75 
2.46524 -3.9699 0.75 
2.47575 -3.97238 0.75 
2.48627 -3.97482 0.75 
2.49681 -3.97721 0.75 
2.50676 -3.97946 0.75 
2.49634 -3.9766 0.75 
2.48638 -3.97378 0.75 
2.47673 -3.97099 0.75 
2.46709 -3.96812 0.75 
2.45692 -3.96497 0.75 
2.44692 -3.96177 0.75 
2.43552 -3.95802 0.75 
2.42514 -3.95453 0.75 
2.41394 -3.95068 0.75 
2.40431 -3.94731 0.75 
2.39413 -3.94369 0.75 
2.38341 -3.93983 0.75 
2.37214 -3.9357 0.75 
2.36033 -3.93132 0.75 
2.34797 -3.92667 0.75 
2.3383 -3.92298 0.75 
2.32863 -3.91928 0.75 
2.31909 -3.91569 0.75 
2.30685 -3.91116 0.75 
2.29514 -3.90692 0.75 
2.28398 -3.90295 0.75 
2.27335 -3.89926 0.75 
2.26327 -3.89582 0.75 
2.25374 -3.89263 0.75 
2.24233 -3.88891 0.75 
2.23047 -3.88513 0.75 
2.2203 -3.88197 0.75 
2.20954 -3.87869 0.75 
2.19819 -3.87529 0.75 
2.18624 -3.87179 0.75 
2.1737 -3.86819 0.75 
2.16402 -3.86547 0.75 
2.15391 -3.86265 0.75 
2.1435 -3.85977 0.75 
2.13266 -3.85676 0.75 
2.12153 -3.85367 0.75 
2.11011 -3.8505 0.75 
2.0984 -3.84725 0.75 
2.08626 -3.84388 0.75 
2.07383 -3.84044 0.75 
2.06126 -3.83695 0.75 
2.04868 -3.83346 0.75 
2.03654 -3.83009 0.75 
2.0244 -3.82672 0.75 
2.0124 -3.82339 0.75 
2.00069 -3.82014 0.75 
1.98942 -3.81701 0.75 
1.97844 -3.81397 0.75 
1.96759 -3.81096 0.75 
1.95676 -3.80795 0.75 
1.94635 -3.80506 0.75 
1.93623 -3.80226 0.75 
1.92626 -3.79949 0.75 
1.91628 -3.79672 0.75 
1.90356 -3.79319 0.75 
1.89084 -3.78966 0.75 
1.88087 -3.7869 0.75 
1.87061 -3.78405 0.75 
1.86006 -3.78112 0.75 
1.84922 -3.77811 0.75 
1.83794 -3.77498 0.75 
1.82638 -3.77178 0.75 
1.81453 -3.76849 0.75 
1.80239 -3.76512 0.75 
1.78981 -3.76163 0.75 
1.77753 -3.75822 0.75 
1.76553 -3.75489 0.75 
1.75382 -3.75164 0.75 
1.74211 -3.74839 0.75 
1.7307 -3.74522 0.75 
1.71957 -3.74214 0.75 
1.70873 -3.73913 0.75 
1.69789 -3.73612 0.75 
1.68733 -3.73319 0.75 
1.67707 -3.73035 0.75 
1.6671 -3.72758 0.75 
1.65713 -3.72481 0.75 
1.64745 -3.72211 0.75 
1.63504 -3.71857 0.75 
1.62323 -3.71512 0.75 
1.61203 -3.71177 0.75 
1.60141 -3.70851 0.75 
1.59139 -3.70538 0.75 
1.58168 -3.70227 0.75 
1.57169 -3.69902 0.75 
1.56116 -3.69551 0.75 
1.55008 -3.69176 0.75 
1.53846 -3.68774 0.75 
1.52629 -3.68346 0.75 
1.51682 -3.68008 0.75 
1.50709 -3.67655 0.75 
1.49709 -3.67289 0.75 
1.48669 -3.66902 0.75 
1.47616 -3.66506 0.75 
1.46565 -3.66105 0.75 
1.45558 -3.65715 0.75 
1.4458 -3.65331 0.75 
1.43633 -3.64954 0.75 
1.42423 -3.64464 0.75 
1.41272 -3.6399 0.75 
1.40179 -3.63532 0.75 
1.3913 -3.63085 0.75 
1.3807 -3.62626 0.75 
1.36958 -3.62136 0.75 
1.35794 -3.61616 0.75 
1.34579 -3.61063 0.75 
1.33639 -3.6063 0.75 
1.3266 -3.60174 0.75 
1.31656 -3.59701 0.75 
1.3064 -3.59218 0.75 
1.29627 -3.58729 0.75 
1.28656 -3.58256 0.75 
1.27714 -3.57792 0.75 
1.26801 -3.57337 0.75 
1.25636 -3.56748 0.75 
1.24529 -3.56179 0.75 
1.23478 -3.55632 0.75 
1.2247 -3.55099 0.75 
1.21453 -3.54552 0.75 
1.20386 -3.53971 0.75 
1.1927 -3.53355 0.75 
1.18105 -3.52703 0.75 
1.17204 -3.52193 0.75 
1.16267 -3.51656 0.75 
1.15306 -3.51101 0.75 
1.14321 -3.50526 0.75 
1.13313 -3.49932 0.75 
1.12347 -3.49356 0.75 
1.11383 -3.48776 0.75 
1.10408 -3.48185 0.75 
1.09408 -3.47578 0.75 
1.0837 -3.46947 0.75 
1.07306 -3.46301 0.75 
1.06216 -3.45639 0.75 
1.051 -3.44963 0.75 
1.03945 -3.44263 0.75 
1.02817 -3.43578 0.75 
1.01714 -3.4291 0.75 
1.00636 -3.42256 0.75 
0.995583 -3.41603 0.75 
0.985063 -3.40966 0.75 
0.974798 -3.40345 0.75 
0.96479 -3.39739 0.75 
0.954781 -3.39133 0.75 
0.945028 -3.38543 0.75 
0.935531 -3.37968 0.75 
0.92629 -3.37409 0.75 
0.917049 -3.3685 0.75 
0.908064 -3.36307 0.75 
0.899336 -3.35779 0.75 
0.888039 -3.35096 0.75 
0.87687 -3.34421 0.75 
0.866217 -3.33777 0.75 
0.856109 -3.33158 0.75 
0.846552 -3.32565 0.75 
0.837539 -3.31997 0.75 
0.829068 -3.31457 0.75 
0.818998 -3.30804 0.75 
0.808601 -3.30119 0.75 
0.799745 -3.29528 0.75 
0.790426 -3.28897 0.75 
0.780647 -3.28228 0.75 
0.770412 -3.27519 0.75 
0.759725 -3.2677 0.75 
0.7514 -3.26181 0.75 
0.742854 -3.25571 0.75 
0.734091 -3.2494 0.75 
0.724989 -3.24278 0.75 
0.715663 -3.23597 0.75 
0.706093 -3.22898 0.75 
0.696281 -3.22182 0.75 
0.686104 -3.21439 0.75 
0.675684 -3.20678 0.75 
0.665021 -3.199 0.75 
0.654114 -3.19105 0.75 
0.643571 -3.18336 0.75 
0.633268 -3.17584 0.75 
0.623087 -3.16842 0.75 
0.612904 -3.161 0.75 
0.603085 -3.15385 0.75 
0.593507 -3.14687 0.75 
0.58405 -3.13998 0.75 
0.574593 -3.13309 0.75 
0.565498 -3.12647 0.75 
0.556646 -3.12002 0.75 
0.547914 -3.11367 0.75 
0.539182 -3.10731 0.75 
0.530813 -3.10122 0.75 
0.522687 -3.09531 0.75 
0.512012 -3.08754 0.75 
0.501589 -3.07994 0.75 
0.491694 -3.07264 0.75 
0.482327 -3.06563 0.75 
0.473483 -3.05892 0.75 
0.465156 -3.05252 0.75 
0.455454 -3.04496 0.75 
0.447569 -3.03873 0.75 
0.439252 -3.03208 0.75 
0.430507 -3.025 0.75 
0.421338 -3.01749 0.75 
0.411748 -3.00956 0.75 
0.401743 -3.00118 0.75 
0.393955 -2.99459 0.75 
0.385966 -2.98778 0.75 
0.377777 -2.98074 0.75 
0.369277 -2.97337 0.75 
0.361035 -2.96616 0.75 
0.353052 -2.95911 0.75 
0.345327 -2.95222 0.75 
0.335523 -2.94338 0.75 
0.326218 -2.93488 0.75 
0.317407 -2.92674 0.75 
0.309083 -2.91895 0.75 
0.300807 -2.91111 0.75 
0.292145 -2.9028 0.75 
0.283101 -2.89403 0.75 
0.27368 -2.88478 0.75 
0.26633 -2.8775 0.75 
0.259012 -2.87018 0.75 
0.251726 -2.86283 0.75 
0.244472 -2.85545 0.75 
0.235268 -2.84598 0.75 
0.226116 -2.83647 0.75 
0.21743 -2.82734 0.75 
0.208792 -2.81817 0.75 
0.200581 -2.80942 0.75 
0.192369 -2.80067 0.75 
0.184566 -2.79236 0.75 
0.177173 -2.78449 0.75 
0.169779 -2.77661 0.75 
0.162384 -2.76874 0.75 
0.155398 -2.76131 0.75 
0.148412 -2.75388 0.75 
0.140192 -2.74514 0.75 
0.132175 -2.73661 0.75 
0.124467 -2.72842 0.75 
0.117168 -2.72067 0.75 
0.109971 -2.71302 0.75 
0.102979 -2.70559 0.75 
0.094957 -2.69708 0.75 
0.086938 -2.68856 0.75 
0.079368 -2.68044 0.75 
0.072046 -2.6725 0.75 
0.065168 -2.66497 0.75 
0.057425 -2.6564 0.75 
0.050327 -2.64846 0.75 
0.043369 -2.64059 0.75 
0.035956 -2.63213 0.75 
0.028881 -2.62397 0.75 
0.021845 -2.61578 0.75 
0.015334 -2.60812 0.75 
0.008378 -2.59986 0.75 
0.001749 -2.59191 0.75 
-0.004939 -2.58382 0.75 
-0.011306 -2.57604 0.75 
-0.018099 -2.56765 0.75 
-0.02481 -2.55918 0.75 
-0.031345 -2.55078 0.75 
