ply
format ascii 1.0
element vertex 566
property float x
property float y
property float z
end_header
0.009084 0.004926 0.75 
0.019123 0.011769 0.75 
0.028302 0.018274 0.75 
0.040676 0.027273 0.75 
0.056075 0.03874 0.75 
0.064807 0.045348 0.75 
0.074219 0.052547 0.75 
0.082294 0.058779 0.75 
0.095186 0.068834 0.75 
0.104376 0.076075 0.75 
0.118929 0.087659 0.75 
0.129237 0.095905 0.75 
0.145639 0.109018 0.75 
0.154077 0.115759 0.75 
0.174943 0.132417 0.75 
0.184441 0.139994 0.75 
0.207548 0.158414 0.75 
0.217754 0.166546 0.75 
0.227963 0.174675 0.75 
0.247445 0.190182 0.75 
0.256836 0.197652 0.75 
0.277853 0.214362 0.75 
0.286308 0.221081 0.75 
0.305806 0.236568 0.75 
0.313912 0.243003 0.75 
0.332477 0.257735 0.75 
0.342467 0.265658 0.75 
0.35699 0.277279 0.75 
0.366059 0.28467 0.75 
0.378758 0.295206 0.75 
0.386665 0.301883 0.75 
0.400756 0.314024 0.75 
0.408638 0.320962 0.75 
0.417131 0.328566 0.75 
0.428634 0.339103 0.75 
0.443603 0.353183 0.75 
0.451506 0.360762 0.75 
0.458705 0.367774 0.75 
0.471778 0.380794 0.75 
0.478928 0.388068 0.75 
0.489981 0.399498 0.75 
0.498566 0.408514 0.75 
0.507712 0.418239 0.75 
0.515476 0.426587 0.75 
0.527754 0.439953 0.75 
0.536324 0.449394 0.75 
0.549943 0.464582 0.75 
0.557011 0.472549 0.75 
0.564248 0.480766 0.75 
0.574015 0.491952 0.75 
0.581075 0.500125 0.75 
0.587803 0.507989 0.75 
0.596328 0.518067 0.75 
0.604405 0.527738 0.75 
0.615645 0.541411 0.75 
0.622626 0.550041 0.75 
0.632717 0.562714 0.75 
0.639752 0.571684 0.75 
0.65094 0.586166 0.75 
0.658753 0.596431 0.75 
0.670992 0.612752 0.75 
0.677417 0.621432 0.75 
0.683983 0.630382 0.75 
0.697219 0.648577 0.75 
0.7041 0.65804 0.75 
0.720864 0.681088 0.75 
0.728278 0.691276 0.75 
0.746553 0.716378 0.75 
0.754501 0.72729 0.75 
0.772433 0.7519 0.75 
0.779855 0.762082 0.75 
0.787278 0.772263 0.75 
0.796824 0.785352 0.75 
0.80372 0.794804 0.75 
0.810439 0.804013 0.75 
0.82335 0.821703 0.75 
0.829718 0.830425 0.75 
0.843872 0.849807 0.75 
0.851659 0.860466 0.75 
0.863075 0.87609 0.75 
0.870775 0.886625 0.75 
0.882989 0.903338 0.75 
0.88945 0.912178 0.75 
0.896088 0.921261 0.75 
0.905293 0.933857 0.75 
0.912462 0.943666 0.75 
0.919808 0.953718 0.75 
0.92972 0.967282 0.75 
0.937154 0.977455 0.75 
0.944588 0.987629 0.75 
0.954146 1.00071 0.75 
0.961049 1.01015 0.75 
0.967952 1.0196 0.75 
0.977067 1.03208 0.75 
0.983705 1.04116 0.75 
0.990342 1.05024 0.75 
0.998837 1.06187 0.75 
1.00521 1.07059 0.75 
1.01158 1.07931 0.75 
1.01999 1.09082 0.75 
1.0261 1.09917 0.75 
1.0322 1.10753 0.75 
1.04388 1.12352 0.75 
1.05167 1.13417 0.75 
1.063 1.14968 0.75 
1.07008 1.15937 0.75 
1.08052 1.17366 0.75 
1.08725 1.18286 0.75 
1.09698 1.19618 0.75 
1.103 1.20442 0.75 
1.11185 1.21653 0.75 
1.11893 1.22622 0.75 
1.12565 1.23542 0.75 
1.13229 1.24451 0.75 
1.13884 1.25347 0.75 
1.14503 1.26195 0.75 
1.15202 1.27152 0.75 
1.16238 1.28569 0.75 
1.16928 1.29514 0.75 
1.17574 1.30398 0.75 
1.18601 1.31803 0.75 
1.19707 1.33317 0.75 
1.20379 1.34237 0.75 
1.21335 1.35545 0.75 
1.22079 1.36563 0.75 
1.22787 1.37531 0.75 
1.2345 1.3844 0.75 
1.2407 1.39288 0.75 
1.24689 1.40135 0.75 
1.25326 1.41008 0.75 
1.26081 1.42054 0.75 
1.26691 1.42909 0.75 
1.27278 1.43742 0.75 
1.27906 1.4464 0.75 
1.28517 1.45512 0.75 
1.29394 1.46765 0.75 
1.30158 1.47915 0.75 
1.30761 1.48917 0.75 
1.31755 1.48559 0.75 
1.324 1.47583 0.75 
1.33174 1.46441 0.75 
1.34181 1.44985 0.75 
1.34758 1.44162 0.75 
1.35399 1.43256 0.75 
1.36097 1.4228 0.75 
1.36825 1.4127 0.75 
1.37507 1.40338 0.75 
1.38143 1.39484 0.75 
1.38849 1.38551 0.75 
1.39472 1.37743 0.75 
1.40155 1.36868 0.75 
1.41068 1.35716 0.75 
1.41727 1.34898 0.75 
1.42788 1.33596 0.75 
1.43552 1.3267 0.75 
1.44783 1.31198 0.75 
1.45432 1.3043 0.75 
1.46104 1.29642 0.75 
1.47004 1.28596 0.75 
1.47664 1.27839 0.75 
1.49526 1.2574 0.75 
1.50301 1.24884 0.75 
1.51418 1.2367 0.75 
1.52216 1.22815 0.75 
1.53496 1.21465 0.75 
1.54411 1.20513 0.75 
1.55877 1.19009 0.75 
1.56646 1.1823 0.75 
1.58546 1.16333 0.75 
1.5938 1.15513 0.75 
1.61318 1.13633 0.75 
1.62131 1.12855 0.75 
1.63929 1.11176 0.75 
1.64906 1.10289 0.75 
1.66298 1.09055 0.75 
1.67182 1.08289 0.75 
1.68453 1.07213 0.75 
1.69239 1.06562 0.75 
1.70684 1.05392 0.75 
1.71496 1.0475 0.75 
1.72385 1.04061 0.75 
1.73629 1.03119 0.75 
1.74569 1.02422 0.75 
1.75466 1.01769 0.75 
1.76848 1.00788 0.75 
1.78466 0.99673 0.75 
1.79399 0.990434 0.75 
1.80422 0.983612 0.75 
1.81299 0.977835 0.75 
1.82707 0.968674 0.75 
1.83717 0.962189 0.75 
1.85338 0.951905 0.75 
1.8619 0.946565 0.75 
1.88294 0.933538 0.75 
1.89254 0.92767 0.75 
1.91575 0.913579 0.75 
1.92613 0.907266 0.75 
1.93689 0.900714 0.75 
1.95175 0.891656 0.75 
1.96327 0.884622 0.75 
1.97453 0.877739 0.75 
1.98912 0.868814 0.75 
1.99986 0.862232 0.75 
2.0106 0.855646 0.75 
2.02441 0.84717 0.75 
2.03438 0.841044 0.75 
2.04409 0.835071 0.75 
2.06274 0.823587 0.75 
2.07193 0.817918 0.75 
2.09311 0.804836 0.75 
2.10179 0.799472 0.75 
2.12103 0.787527 0.75 
2.13118 0.781121 0.75 
2.14557 0.771878 0.75 
2.15448 0.76605 0.75 
2.16672 0.757908 0.75 
2.17603 0.751597 0.75 
2.18555 0.745049 0.75 
2.19575 0.737916 0.75 
2.21115 0.726957 0.75 
2.22063 0.720103 0.75 
2.23563 0.709105 0.75 
2.24623 0.70123 0.75 
2.26288 0.688681 0.75 
2.27158 0.682041 0.75 
2.29237 0.666009 0.75 
2.30163 0.658854 0.75 
2.32418 0.641426 0.75 
2.33427 0.633632 0.75 
2.3446 0.625655 0.75 
2.35884 0.614655 0.75 
2.36953 0.606406 0.75 
2.37998 0.598342 0.75 
2.40017 0.582766 0.75 
2.41015 0.575072 0.75 
2.4326 0.557762 0.75 
2.44187 0.55062 0.75 
2.46302 0.534325 0.75 
2.47158 0.527735 0.75 
2.49059 0.513092 0.75 
2.50105 0.50504 0.75 
2.5171 0.492689 0.75 
2.52554 0.486194 0.75 
2.54634 0.470183 0.75 
2.55573 0.462956 0.75 
2.56536 0.455545 0.75 
2.58557 0.439992 0.75 
2.59603 0.431941 0.75 
2.62063 0.413003 0.75 
2.63062 0.405318 0.75 
2.65296 0.388117 0.75 
2.66224 0.380981 0.75 
2.68339 0.364695 0.75 
2.69195 0.358108 0.75 
2.71097 0.343469 0.75 
2.72143 0.335418 0.75 
2.73676 0.323615 0.75 
2.74638 0.316182 0.75 
2.76404 0.302245 0.75 
2.77198 0.295847 0.75 
2.78289 0.286915 0.75 
2.79119 0.280002 0.75 
2.79955 0.272927 0.75 
2.80865 0.265107 0.75 
2.81849 0.256531 0.75 
2.82681 0.249186 0.75 
2.84933 0.228917 0.75 
2.85906 0.219998 0.75 
2.87423 0.205909 0.75 
2.8821 0.198512 0.75 
2.89913 0.182252 0.75 
2.90817 0.173471 0.75 
2.92077 0.161037 0.75 
2.9286 0.153178 0.75 
2.94038 0.141192 0.75 
2.94872 0.132568 0.75 
2.96186 0.11878 0.75 
2.96875 0.111461 0.75 
2.98517 0.093754 0.75 
2.99216 0.086115 0.75 
3.00823 0.068289 0.75 
3.01699 0.058419 0.75 
3.02974 0.043863 0.75 
3.03768 0.034667 0.75 
3.04925 0.021076 0.75 
3.05659 0.012347 0.75 
3.06712 -0.000353 0.75 
3.07358 -0.008243 0.75 
3.08603 -0.023643 0.75 
3.0935 -0.03303 0.75 
3.10074 -0.04222 0.75 
3.10766 -0.05109 0.75 
3.11417 -0.059519 0.75 
3.12055 -0.067858 0.75 
3.12681 -0.076105 0.75 
3.13383 -0.085461 0.75 
3.14036 -0.094253 0.75 
3.15064 -0.108294 0.75 
3.16028 -0.121685 0.75 
3.16948 -0.134655 0.75 
3.17756 -0.14621 0.75 
3.18523 -0.157319 0.75 
3.19368 -0.169713 0.75 
3.20038 -0.179669 0.75 
3.20768 -0.190662 0.75 
3.2136 -0.199697 0.75 
3.22053 -0.210574 0.75 
3.22648 -0.219947 0.75 
3.23311 -0.230306 0.75 
3.24261 -0.245061 0.75 
3.24814 -0.253632 0.75 
3.25416 -0.262959 0.75 
3.26074 -0.273173 0.75 
3.2678 -0.284152 0.75 
3.27378 -0.293501 0.75 
3.28329 -0.30843 0.75 
3.29002 -0.31908 0.75 
3.30252 -0.339043 0.75 
3.30812 -0.348096 0.75 
3.31965 -0.366895 0.75 
3.3253 -0.376271 0.75 
3.33072 -0.385442 0.75 
3.33752 -0.397276 0.75 
3.34387 -0.408674 0.75 
3.35252 -0.424801 0.75 
3.35775 -0.434933 0.75 
3.36482 -0.449176 0.75 
3.3701 -0.460286 0.75 
3.37483 -0.470655 0.75 
3.37899 -0.480131 0.75 
3.38404 -0.492164 0.75 
3.3897 -0.506541 0.75 
3.39373 -0.517527 0.75 
3.39702 -0.527337 0.75 
3.39929 -0.537121 0.75 
3.40117 -0.546992 0.75 
3.40383 -0.562821 0.75 
3.40604 -0.577352 0.75 
3.40862 -0.595469 0.75 
3.41003 -0.605874 0.75 
3.41154 -0.617326 0.75 
3.41311 -0.629676 0.75 
3.41537 -0.648138 0.75 
3.41665 -0.658862 0.75 
3.41842 -0.674512 0.75 
3.41963 -0.686451 0.75 
3.4206 -0.697357 0.75 
3.42139 -0.707377 0.75 
3.4222 -0.7198 0.75 
3.42292 -0.734633 0.75 
3.42325 -0.745577 0.75 
3.42339 -0.756226 0.75 
3.42337 -0.767177 0.75 
3.42321 -0.777675 0.75 
3.42287 -0.787869 0.75 
3.42218 -0.799849 0.75 
3.4213 -0.811967 0.75 
3.41998 -0.827813 0.75 
3.41852 -0.843645 0.75 
3.41673 -0.861104 0.75 
3.41499 -0.876002 0.75 
3.41312 -0.890281 0.75 
3.41132 -0.902902 0.75 
3.40948 -0.914761 0.75 
3.40767 -0.925712 0.75 
3.40586 -0.936055 0.75 
3.404 -0.94593 0.75 
3.40139 -0.957951 0.75 
3.39901 -0.968178 0.75 
3.39651 -0.978375 0.75 
3.39381 -0.988832 0.75 
3.39042 -1.00128 0.75 
3.38741 -1.01165 0.75 
3.38425 -1.02198 0.75 
3.38094 -1.03226 0.75 
3.37729 -1.04306 0.75 
3.38068 -1.0336 0.75 
3.38425 -1.02356 0.75 
3.38903 -1.0103 0.75 
3.39325 -1.00003 0.75 
3.39801 -0.990344 0.75 
3.39981 -1.00242 0.75 
3.40131 -1.01267 0.75 
3.40383 -1.02912 0.75 
3.40685 -1.04809 0.75 
3.40859 -1.0589 0.75 
3.41048 -1.0706 0.75 
3.4121 -1.08066 0.75 
3.41562 -1.10258 0.75 
3.41753 -1.11443 0.75 
3.42056 -1.13339 0.75 
3.42215 -1.14331 0.75 
3.42379 -1.15353 0.75 
3.42606 -1.16775 0.75 
3.42784 -1.17886 0.75 
3.42966 -1.19027 0.75 
3.43335 -1.21337 0.75 
3.43519 -1.22493 0.75 
3.43944 -1.25159 0.75 
3.44118 -1.26256 0.75 
3.44559 -1.29026 0.75 
3.44721 -1.30048 0.75 
3.45027 -1.31974 0.75 
3.45224 -1.33218 0.75 
3.45501 -1.35027 0.75 
3.45656 -1.36156 0.75 
3.45848 -1.37735 0.75 
3.45975 -1.38958 0.75 
3.46075 -1.40094 0.75 
3.46151 -1.41126 0.75 
3.46224 -1.42429 0.75 
3.46269 -1.43688 0.75 
3.46286 -1.45128 0.75 
3.46268 -1.46163 0.75 
3.46218 -1.47317 0.75 
3.46148 -1.48545 0.75 
3.46039 -1.50161 0.75 
3.45887 -1.52135 0.75 
3.45792 -1.53271 0.75 
3.45684 -1.54496 0.75 
3.45587 -1.55542 0.75 
3.45429 -1.57154 0.75 
3.45321 -1.58168 0.75 
3.45162 -1.5957 0.75 
3.45031 -1.60642 0.75 
3.44888 -1.61742 0.75 
3.44723 -1.62946 0.75 
3.44536 -1.64238 0.75 
3.44372 -1.65335 0.75 
3.44097 -1.67084 0.75 
3.43893 -1.68327 0.75 
3.43555 -1.70309 0.75 
3.43373 -1.71343 0.75 
3.43181 -1.72406 0.75 
3.42908 -1.73881 0.75 
3.4269 -1.7503 0.75 
3.42474 -1.76149 0.75 
3.42045 -1.78297 0.75 
3.41821 -1.79399 0.75 
3.41276 -1.8209 0.75 
3.41032 -1.83295 0.75 
3.40783 -1.8453 0.75 
3.4044 -1.86236 0.75 
3.40174 -1.8756 0.75 
3.39914 -1.88854 0.75 
3.39414 -1.91355 0.75 
3.39167 -1.9259 0.75 
3.38617 -1.95356 0.75 
3.38389 -1.96503 0.75 
3.3787 -1.99123 0.75 
3.37661 -2.00182 0.75 
3.37194 -2.02551 0.75 
3.36939 -2.03847 0.75 
3.36573 -2.05732 0.75 
3.36354 -2.06911 0.75 
3.3606 -2.08565 0.75 
3.35884 -2.096 0.75 
3.3563 -2.1117 0.75 
3.35456 -2.12297 0.75 
3.3519 -2.14107 0.75 
3.35012 -2.15385 0.75 
3.34745 -2.17407 0.75 
3.3461 -2.18479 0.75 
3.34476 -2.19581 0.75 
3.34299 -2.211 0.75 
3.34169 -2.22263 0.75 
3.34045 -2.23427 0.75 
3.33892 -2.24919 0.75 
3.33783 -2.26039 0.75 
3.33682 -2.27129 0.75 
3.33502 -2.29221 0.75 
3.33399 -2.30537 0.75 
3.33268 -2.32393 0.75 
3.33196 -2.3356 0.75 
3.33073 -2.35867 0.75 
3.33019 -2.37096 0.75 
3.32947 -2.39044 0.75 
3.32916 -2.40079 0.75 
3.32857 -2.42613 0.75 
3.32839 -2.43753 0.75 
3.32815 -2.46873 0.75 
3.32815 -2.48043 0.75 
3.32829 -2.50263 0.75 
3.32843 -2.51358 0.75 
3.32878 -2.54043 0.75 
3.32892 -2.55257 0.75 
3.32926 -2.58212 0.75 
3.3294 -2.59532 0.75 
3.32971 -2.62622 0.75 
3.32982 -2.63882 0.75 
3.33006 -2.66702 0.75 
3.33016 -2.67872 0.75 
3.33025 -2.69042 0.75 
3.3304 -2.71262 0.75 
3.33047 -2.72341 0.75 
3.33064 -2.75131 0.75 
3.33071 -2.76451 0.75 
3.33079 -2.78071 0.75 
3.33086 -2.79301 0.75 
3.33109 -2.81041 0.75 
3.33133 -2.82121 0.75 
3.33196 -2.841 0.75 
3.33295 -2.86228 0.75 
3.33411 -2.88114 0.75 
3.33489 -2.89176 0.75 
3.3358 -2.90328 0.75 
3.33687 -2.91568 0.75 
3.33865 -2.93465 0.75 
3.33982 -2.94629 0.75 
3.34177 -2.96479 0.75 
3.34315 -2.97791 0.75 
3.34535 -2.9988 0.75 
3.3465 -3.00969 0.75 
3.34767 -3.02088 0.75 
3.3493 -3.03639 0.75 
3.35057 -3.04847 0.75 
3.35187 -3.06086 0.75 
3.35362 -3.07756 0.75 
3.35494 -3.0901 0.75 
3.35625 -3.10263 0.75 
3.35875 -3.1265 0.75 
3.35997 -3.13813 0.75 
3.36274 -3.16469 0.75 
3.36391 -3.17588 0.75 
3.36651 -3.20079 0.75 
3.36758 -3.21094 0.75 
3.37009 -3.23329 0.75 
3.37155 -3.24521 0.75 
3.37446 -3.26721 0.75 
3.3759 -3.27731 0.75 
3.37801 -3.29125 0.75 
3.37971 -3.30192 0.75 
3.38155 -3.31287 0.75 
3.38365 -3.32483 0.75 
3.38699 -3.34298 0.75 
3.38914 -3.35417 0.75 
3.39209 -3.36903 0.75 
3.39461 -3.38138 0.75 
3.39918 -3.40295 0.75 
3.40188 -3.41526 0.75 
3.40452 -3.42696 0.75 
3.40722 -3.43865 0.75 
3.41254 -3.46082 0.75 
3.41529 -3.47189 0.75 
3.41794 -3.48236 0.75 
3.42049 -3.49223 0.75 
3.42432 -3.50674 0.75 
3.42746 -3.51832 0.75 
3.4305 -3.52931 0.75 
3.43355 -3.54014 0.75 
3.43774 -3.5547 0.75 
3.44361 -3.57454 0.75 
3.44915 -3.59261 0.75 
3.45457 -3.60978 0.75 
3.45993 -3.62633 0.75 
3.46581 -3.64398 0.75 
3.47036 -3.65733 0.75 
3.47479 -3.67008 0.75 
3.47899 -3.68196 0.75 
3.48308 -3.69324 0.75 
3.48697 -3.70364 0.75 
3.49076 -3.71343 0.75 
3.49464 -3.72318 0.75 
3.49874 -3.73318 0.75 
3.50293 -3.74313 0.75 
3.50732 -3.75332 0.75 
