ply
format ascii 1.0
element vertex 752
property float x
property float y
property float z
end_header
0.009956 0.001368 0.75 
0.02032 0.003052 0.75 
0.031105 0.004946 0.75 
0.041578 0.00688 0.75 
0.05189 0.008856 0.75 
0.063662 0.011186 0.75 
0.074392 0.01337 0.75 
0.085993 0.015788 0.75 
0.095969 0.017911 0.75 
0.105934 0.020088 0.75 
0.117493 0.022697 0.75 
0.12874 0.025328 0.75 
0.140841 0.028253 0.75 
0.151177 0.030822 0.75 
0.162079 0.033597 0.75 
0.173546 0.036585 0.75 
0.185576 0.039791 0.75 
0.198167 0.04322 0.75 
0.207996 0.045947 0.75 
0.218102 0.048796 0.75 
0.228485 0.051768 0.75 
0.239288 0.054908 0.75 
0.250366 0.058177 0.75 
0.261574 0.061533 0.75 
0.272768 0.064936 0.75 
0.283958 0.068354 0.75 
0.295434 0.07186 0.75 
0.307198 0.075454 0.75 
0.319248 0.079135 0.75 
0.331729 0.082947 0.75 
0.344496 0.086847 0.75 
0.357407 0.090791 0.75 
0.370318 0.094735 0.75 
0.382799 0.098548 0.75 
0.394993 0.102273 0.75 
0.406899 0.10591 0.75 
0.418519 0.10946 0.75 
0.430139 0.113009 0.75 
0.441472 0.116471 0.75 
0.452518 0.119846 0.75 
0.463278 0.123132 0.75 
0.473606 0.126287 0.75 
0.483935 0.129443 0.75 
0.494121 0.132554 0.75 
0.504019 0.135578 0.75 
0.513917 0.138602 0.75 
0.523529 0.141538 0.75 
0.535862 0.145321 0.75 
0.547599 0.149 0.75 
0.55874 0.152571 0.75 
0.569289 0.156025 0.75 
0.579247 0.159355 0.75 
0.590885 0.163335 0.75 
0.600372 0.166653 0.75 
0.610404 0.170227 0.75 
0.62098 0.174063 0.75 
0.632097 0.178167 0.75 
0.643752 0.182544 0.75 
0.655943 0.1872 0.75 
0.665454 0.190884 0.75 
0.67523 0.194717 0.75 
0.685268 0.198701 0.75 
0.695707 0.202894 0.75 
0.706129 0.207131 0.75 
0.716395 0.211353 0.75 
0.726365 0.215503 0.75 
0.736317 0.219698 0.75 
0.745973 0.223823 0.75 
0.755334 0.227874 0.75 
0.767282 0.233122 0.75 
0.77865 0.238201 0.75 
0.789439 0.243101 0.75 
0.799789 0.247878 0.75 
0.810247 0.252781 0.75 
0.821217 0.258004 0.75 
0.832696 0.263553 0.75 
0.844682 0.269433 0.75 
0.853951 0.274038 0.75 
0.863602 0.278885 0.75 
0.873499 0.28391 0.75 
0.883642 0.289115 0.75 
0.894028 0.294501 0.75 
0.903992 0.299724 0.75 
0.913933 0.304991 0.75 
0.923719 0.31023 0.75 
0.933218 0.315369 0.75 
0.94271 0.320522 0.75 
0.952466 0.325816 0.75 
0.962486 0.331252 0.75 
0.972771 0.33683 0.75 
0.983452 0.34262 0.75 
0.994398 0.348553 0.75 
1.00561 0.354627 0.75 
1.01708 0.360843 0.75 
1.02856 0.367058 0.75 
1.03977 0.373129 0.75 
1.05072 0.379055 0.75 
1.0614 0.384838 0.75 
1.07209 0.39062 0.75 
1.08251 0.396258 0.75 
1.09267 0.401752 0.75 
1.10257 0.407102 0.75 
1.11207 0.412238 0.75 
1.12157 0.417373 0.75 
1.13094 0.422436 0.75 
1.14005 0.427355 0.75 
1.14915 0.432274 0.75 
1.15852 0.437335 0.75 
1.16816 0.442539 0.75 
1.17806 0.447885 0.75 
1.18835 0.453445 0.75 
1.19891 0.459147 0.75 
1.20973 0.464992 0.75 
1.22082 0.47098 0.75 
1.2323 0.477182 0.75 
1.24378 0.483383 0.75 
1.25513 0.489514 0.75 
1.26622 0.495501 0.75 
1.27691 0.501275 0.75 
1.2876 0.507049 0.75 
1.29816 0.512752 0.75 
1.30845 0.518312 0.75 
1.31835 0.523659 0.75 
1.32799 0.528862 0.75 
1.33749 0.533995 0.75 
1.34699 0.539127 0.75 
1.3561 0.544046 0.75 
1.3652 0.548965 0.75 
1.37418 0.553812 0.75 
1.38593 0.560156 0.75 
1.39503 0.565075 0.75 
1.40453 0.570207 0.75 
1.4143 0.575482 0.75 
1.42433 0.5809 0.75 
1.43463 0.58646 0.75 
1.44532 0.592234 0.75 
1.45627 0.598151 0.75 
1.46749 0.60421 0.75 
1.47897 0.610412 0.75 
1.49006 0.6164 0.75 
1.50088 0.622245 0.75 
1.51157 0.62802 0.75 
1.52226 0.633794 0.75 
1.53255 0.639354 0.75 
1.54258 0.644771 0.75 
1.55248 0.650118 0.75 
1.56238 0.655464 0.75 
1.57188 0.660597 0.75 
1.58112 0.665587 0.75 
1.59023 0.670505 0.75 
1.59933 0.675424 0.75 
1.60884 0.680556 0.75 
1.6186 0.685831 0.75 
1.62863 0.691249 0.75 
1.63893 0.696809 0.75 
1.64962 0.702583 0.75 
1.66057 0.7085 0.75 
1.67179 0.714559 0.75 
1.68327 0.720761 0.75 
1.69475 0.726963 0.75 
1.70597 0.733022 0.75 
1.71693 0.738939 0.75 
1.72762 0.744713 0.75 
1.73831 0.750487 0.75 
1.74873 0.756118 0.75 
1.7589 0.761607 0.75 
1.7688 0.766954 0.75 
1.7783 0.772086 0.75 
1.7878 0.777219 0.75 
1.79717 0.782275 0.75 
1.8063 0.787151 0.75 
1.81798 0.793304 0.75 
1.82916 0.799108 0.75 
1.83985 0.80457 0.75 
1.85003 0.809696 0.75 
1.85971 0.814494 0.75 
1.86995 0.819497 0.75 
1.88076 0.8247 0.75 
1.89215 0.830098 0.75 
1.90411 0.835684 0.75 
1.91351 0.840017 0.75 
1.9232 0.844435 0.75 
1.93318 0.848934 0.75 
1.94346 0.853514 0.75 
1.95416 0.85823 0.75 
1.96462 0.862782 0.75 
1.97495 0.867229 0.75 
1.9853 0.871631 0.75 
1.99526 0.875815 0.75 
2.00551 0.880085 0.75 
2.01603 0.884474 0.75 
2.02682 0.88898 0.75 
2.03804 0.893661 0.75 
2.04952 0.89846 0.75 
2.06129 0.903377 0.75 
2.07333 0.908411 0.75 
2.08537 0.913448 0.75 
2.09713 0.918371 0.75 
2.10875 0.923237 0.75 
2.12037 0.928106 0.75 
2.13158 0.932802 0.75 
2.1425 0.937384 0.75 
2.1533 0.94191 0.75 
2.16408 0.946437 0.75 
2.17446 0.950791 0.75 
2.18455 0.955031 0.75 
2.19451 0.959214 0.75 
2.20447 0.963398 0.75 
2.21401 0.967409 0.75 
2.22327 0.971304 0.75 
2.23253 0.975201 0.75 
2.24207 0.979214 0.75 
2.25203 0.983401 0.75 
2.26226 0.987705 0.75 
2.27277 0.992125 0.75 
2.28356 0.996661 0.75 
2.29475 1.00137 0.75 
2.30623 1.0062 0.75 
2.31798 1.01114 0.75 
2.33001 1.0162 0.75 
2.34163 1.02109 0.75 
2.35296 1.02586 0.75 
2.36416 1.03057 0.75 
2.37536 1.03528 0.75 
2.38615 1.03981 0.75 
2.39666 1.04423 0.75 
2.40703 1.04859 0.75 
2.4174 1.05296 0.75 
2.42735 1.05714 0.75 
2.43703 1.06121 0.75 
2.44657 1.06523 0.75 
2.45611 1.06924 0.75 
2.46828 1.07436 0.75 
2.48045 1.07947 0.75 
2.49208 1.08431 0.75 
2.5032 1.08884 0.75 
2.51378 1.09308 0.75 
2.52383 1.09703 0.75 
2.53335 1.1007 0.75 
2.54443 1.10488 0.75 
2.55527 1.10888 0.75 
2.56698 1.11311 0.75 
2.57702 1.11665 0.75 
2.58765 1.12034 0.75 
2.59887 1.12417 0.75 
2.61067 1.12812 0.75 
2.62307 1.1322 0.75 
2.63277 1.13534 0.75 
2.64278 1.13853 0.75 
2.65308 1.14177 0.75 
2.66381 1.14514 0.75 
2.67483 1.14859 0.75 
2.68614 1.15215 0.75 
2.69773 1.15579 0.75 
2.70975 1.15957 0.75 
2.72205 1.16344 0.75 
2.7345 1.16736 0.75 
2.74695 1.17128 0.75 
2.75896 1.17507 0.75 
2.77098 1.17887 0.75 
2.78285 1.18262 0.75 
2.79444 1.18628 0.75 
2.80559 1.18981 0.75 
2.81646 1.19325 0.75 
2.82719 1.19664 0.75 
2.83791 1.20004 0.75 
2.84821 1.2033 0.75 
2.85821 1.20648 0.75 
2.86808 1.20961 0.75 
2.87794 1.21274 0.75 
2.88824 1.21601 0.75 
2.89882 1.21937 0.75 
2.90968 1.22282 0.75 
2.92083 1.22636 0.75 
2.93241 1.23004 0.75 
2.94428 1.23381 0.75 
2.95643 1.23767 0.75 
2.96887 1.24162 0.75 
2.98131 1.24557 0.75 
2.99346 1.24942 0.75 
3.00533 1.25319 0.75 
3.01691 1.25687 0.75 
3.02849 1.26055 0.75 
3.03978 1.26413 0.75 
3.05079 1.26763 0.75 
3.06151 1.27103 0.75 
3.07181 1.2743 0.75 
3.0821 1.27757 0.75 
3.09225 1.28079 0.75 
3.10211 1.28392 0.75 
3.11198 1.28706 0.75 
3.12155 1.29011 0.75 
3.13382 1.29411 0.75 
3.14549 1.29799 0.75 
3.15657 1.30175 0.75 
3.16706 1.30539 0.75 
3.17695 1.30889 0.75 
3.18655 1.31235 0.75 
3.1964 1.31597 0.75 
3.2068 1.31986 0.75 
3.21774 1.32403 0.75 
3.22921 1.32847 0.75 
3.24121 1.33319 0.75 
3.25054 1.33692 0.75 
3.26014 1.3408 0.75 
3.27013 1.34489 0.75 
3.28011 1.34902 0.75 
3.29008 1.35319 0.75 
3.30004 1.35736 0.75 
3.30958 1.36135 0.75 
3.31885 1.36524 0.75 
3.33103 1.37034 0.75 
3.34293 1.37532 0.75 
3.35455 1.38019 0.75 
3.3659 1.38494 0.75 
3.37696 1.38958 0.75 
3.38775 1.39409 0.75 
3.39827 1.3985 0.75 
3.40851 1.40279 0.75 
3.41847 1.40696 0.75 
3.42815 1.41102 0.75 
3.43756 1.41496 0.75 
3.44891 1.41971 0.75 
3.45998 1.42435 0.75 
3.47035 1.42869 0.75 
3.48045 1.43292 0.75 
3.49014 1.43698 0.75 
3.49982 1.44103 0.75 
3.51061 1.44555 0.75 
3.52141 1.45007 0.75 
3.53137 1.45424 0.75 
3.54133 1.45842 0.75 
3.55198 1.46288 0.75 
3.56236 1.46722 0.75 
3.57204 1.47128 0.75 
3.58171 1.47537 0.75 
3.59164 1.47963 0.75 
3.60154 1.48394 0.75 
3.61142 1.4883 0.75 
3.62128 1.4927 0.75 
3.63112 1.49716 0.75 
3.64067 1.50153 0.75 
3.64992 1.50582 0.75 
3.65944 1.51025 0.75 
3.66869 1.51456 0.75 
3.67807 1.51892 0.75 
3.68827 1.52366 0.75 
3.6982 1.52828 0.75 
3.70833 1.53316 0.75 
3.71791 1.53816 0.75 
3.72679 1.54318 0.75 
3.7219 1.53424 0.75 
3.71577 1.5259 0.75 
3.70921 1.51675 0.75 
3.7029 1.50781 0.75 
3.69673 1.49894 0.75 
3.69103 1.49067 0.75 
3.68486 1.48162 0.75 
3.67822 1.47181 0.75 
3.67206 1.46257 0.75 
3.66647 1.45404 0.75 
3.66094 1.44547 0.75 
3.655 1.43609 0.75 
3.64856 1.42579 0.75 
3.64313 1.41698 0.75 
3.63744 1.40762 0.75 
3.63148 1.39773 0.75 
3.62528 1.38728 0.75 
3.61882 1.37629 0.75 
3.61212 1.36474 0.75 
3.60696 1.35577 0.75 
3.60162 1.34638 0.75 
3.59617 1.33671 0.75 
3.59068 1.32689 0.75 
3.58524 1.31705 0.75 
3.58006 1.30757 0.75 
3.57507 1.29833 0.75 
3.57026 1.28934 0.75 
3.56417 1.27779 0.75 
3.55844 1.26674 0.75 
3.55304 1.25619 0.75 
3.54791 1.24601 0.75 
3.54278 1.23567 0.75 
3.53744 1.22475 0.75 
3.53191 1.21326 0.75 
3.52618 1.2012 0.75 
3.52179 1.19183 0.75 
3.51725 1.18203 0.75 
3.51263 1.17194 0.75 
3.50799 1.16169 0.75 
3.5034 1.15142 0.75 
3.49885 1.14113 0.75 
3.49447 1.1311 0.75 
3.49025 1.12132 0.75 
3.48619 1.11179 0.75 
3.48109 1.09962 0.75 
3.47629 1.08797 0.75 
3.47179 1.07685 0.75 
3.46758 1.06625 0.75 
3.46343 1.05563 0.75 
3.45914 1.04443 0.75 
3.45469 1.03264 0.75 
3.45011 1.02026 0.75 
3.44656 1.01054 0.75 
3.44296 1.00052 0.75 
3.4393 0.990197 0.75 
3.43558 0.979578 0.75 
3.43176 0.968518 0.75 
3.42809 0.957726 0.75 
3.42452 0.94706 0.75 
3.42099 0.936378 0.75 
3.41764 0.926108 0.75 
3.41444 0.916108 0.75 
3.41138 0.906379 0.75 
3.40753 0.89391 0.75 
3.40393 0.881992 0.75 
3.40057 0.870627 0.75 
3.39741 0.859674 0.75 
3.39427 0.848558 0.75 
3.39105 0.836845 0.75 
3.38773 0.824534 0.75 
3.38433 0.811624 0.75 
3.38175 0.801602 0.75 
3.3791 0.791132 0.75 
3.37642 0.78036 0.75 
3.37372 0.769284 0.75 
3.37099 0.757906 0.75 
3.36842 0.746953 0.75 
3.36597 0.736282 0.75 
3.36359 0.725747 0.75 
3.36126 0.715201 0.75 
3.35907 0.705085 0.75 
3.35699 0.695253 0.75 
3.35439 0.682619 0.75 
3.35198 0.670556 0.75 
3.34977 0.659068 0.75 
3.34773 0.648157 0.75 
3.34576 0.637233 0.75 
3.34375 0.625706 0.75 
3.34172 0.613576 0.75 
3.33965 0.600842 0.75 
3.33809 0.590914 0.75 
3.33653 0.580682 0.75 
3.33495 0.569999 0.75 
3.33337 0.559012 0.75 
3.33179 0.547722 0.75 
3.33023 0.536127 0.75 
3.32871 0.524526 0.75 
3.32728 0.513216 0.75 
3.32593 0.502198 0.75 
3.32467 0.491472 0.75 
3.32351 0.481187 0.75 
3.32243 0.471195 0.75 
3.32111 0.458363 0.75 
3.31993 0.44612 0.75 
3.31888 0.434467 0.75 
3.31795 0.423406 0.75 
3.31709 0.412339 0.75 
3.31625 0.400669 0.75 
3.31544 0.388396 0.75 
3.31466 0.37552 0.75 
3.31396 0.362639 0.75 
3.31333 0.350054 0.75 
3.31279 0.337766 0.75 
3.31232 0.325776 0.75 
3.31192 0.314083 0.75 
3.31158 0.302688 0.75 
3.3113 0.291591 0.75 
3.31107 0.280794 0.75 
3.3109 0.270295 0.75 
3.31077 0.260096 0.75 
3.31067 0.247796 0.75 
3.31064 0.235796 0.75 
3.31067 0.223796 0.75 
3.31077 0.212097 0.75 
3.31093 0.200848 0.75 
3.31114 0.1896 0.75 
3.31138 0.179253 0.75 
3.3117 0.168007 0.75 
3.3121 0.156614 0.75 
3.31253 0.145823 0.75 
3.31301 0.135634 0.75 
3.31362 0.124701 0.75 
3.31442 0.114683 0.75 
3.31583 0.104433 0.75 
3.3175 0.094523 0.75 
3.3193 0.084483 0.75 
3.32122 0.07416 0.75 
3.32343 0.062977 0.75 
3.32583 0.051525 0.75 
3.32826 0.040388 0.75 
3.33061 0.029999 0.75 
3.33322 0.018749 0.75 
3.33612 0.006641 0.75 
3.33865 -0.003704 0.75 
3.34138 -0.014618 0.75 
3.3443 -0.026101 0.75 
3.34744 -0.038151 0.75 
3.35078 -0.050765 0.75 
3.35343 -0.060614 0.75 
3.35619 -0.070744 0.75 
3.35904 -0.081163 0.75 
3.362 -0.092016 0.75 
3.36504 -0.103159 0.75 
3.36816 -0.114591 0.75 
3.37136 -0.126313 0.75 
3.37467 -0.13847 0.75 
3.37806 -0.150917 0.75 
3.38149 -0.163508 0.75 
3.38492 -0.1761 0.75 
3.38822 -0.188258 0.75 
3.39145 -0.200127 0.75 
3.39464 -0.211851 0.75 
3.39783 -0.223575 0.75 
3.4009 -0.234866 0.75 
3.40388 -0.245867 0.75 
3.40679 -0.256579 0.75 
3.40962 -0.267001 0.75 
3.41245 -0.277424 0.75 
3.4152 -0.287558 0.75 
3.41791 -0.297547 0.75 
3.42062 -0.307536 0.75 
3.42408 -0.320275 0.75 
3.42728 -0.332462 0.75 
3.43017 -0.344108 0.75 
3.43278 -0.355204 0.75 
3.43513 -0.365746 0.75 
3.43723 -0.375728 0.75 
3.43952 -0.387354 0.75 
3.4415 -0.398124 0.75 
3.44319 -0.408031 0.75 
3.44486 -0.4187 0.75 
3.44641 -0.429541 0.75 
3.44769 -0.43966 0.75 
3.44877 -0.449651 0.75 
3.44961 -0.459665 0.75 
3.44965 -0.470162 0.75 
3.44943 -0.48036 0.75 
3.4491 -0.491155 0.75 
3.44866 -0.502546 0.75 
3.44815 -0.513785 0.75 
3.44762 -0.524121 0.75 
3.447 -0.535354 0.75 
3.44635 -0.546285 0.75 
3.44569 -0.556764 0.75 
3.44488 -0.568586 0.75 
3.44404 -0.580256 0.75 
3.4432 -0.591174 0.75 
3.44233 -0.601938 0.75 
3.44135 -0.613297 0.75 
3.44025 -0.62404 0.75 
3.43899 -0.634162 0.75 
3.43742 -0.644239 0.75 
3.43527 -0.654516 0.75 
3.43319 -0.664655 0.75 
3.43162 -0.675186 0.75 
3.43034 -0.685608 0.75 
3.42917 -0.696042 0.75 
3.42805 -0.707086 0.75 
3.4273 -0.717559 0.75 
3.42698 -0.727602 0.75 
3.4276 -0.738234 0.75 
3.42834 -0.749009 0.75 
3.42919 -0.760377 0.75 
3.42998 -0.770546 0.75 
3.4309 -0.781909 0.75 
3.43179 -0.792522 0.75 
3.43276 -0.804031 0.75 
3.43383 -0.816435 0.75 
3.43475 -0.827045 0.75 
3.43575 -0.83825 0.75 
3.43685 -0.850049 0.75 
3.43806 -0.862441 0.75 
3.43936 -0.875426 0.75 
3.44041 -0.885572 0.75 
3.44151 -0.896014 0.75 
3.44266 -0.906752 0.75 
3.44388 -0.917936 0.75 
3.44516 -0.929415 0.75 
3.44645 -0.940893 0.75 
3.44772 -0.952071 0.75 
3.449 -0.963247 0.75 
3.45026 -0.974124 0.75 
3.4515 -0.984703 0.75 
3.4527 -0.994982 0.75 
3.45392 -1.00526 0.75 
3.4551 -1.01524 0.75 
3.45662 -1.02805 0.75 
3.45811 -1.04056 0.75 
3.45957 -1.05278 0.75 
3.461 -1.06469 0.75 
3.46243 -1.0766 0.75 
3.46387 -1.08852 0.75 
3.46526 -1.10013 0.75 
3.46659 -1.11116 0.75 
3.46788 -1.12188 0.75 
3.46917 -1.1326 0.75 
3.47042 -1.14303 0.75 
3.47164 -1.15315 0.75 
3.47311 -1.16536 0.75 
3.47454 -1.17728 0.75 
3.47589 -1.18845 0.75 
3.47719 -1.19932 0.75 
3.47845 -1.20975 0.75 
3.4797 -1.22017 0.75 
3.4811 -1.23179 0.75 
3.48238 -1.24281 0.75 
3.48353 -1.25385 0.75 
3.48447 -1.26431 0.75 
3.48525 -1.27478 0.75 
3.48585 -1.28526 0.75 
3.48631 -1.29575 0.75 
3.4867 -1.30685 0.75 
3.48699 -1.31794 0.75 
3.48709 -1.32844 0.75 
3.48697 -1.33894 0.75 
3.48651 -1.34913 0.75 
3.48562 -1.35959 0.75 
3.48387 -1.36961 0.75 
3.48133 -1.37965 0.75 
3.47866 -1.39058 0.75 
3.47614 -1.40123 0.75 
3.4737 -1.41175 0.75 
3.47147 -1.42155 0.75 
3.46906 -1.43223 0.75 
3.46649 -1.4438 0.75 
3.46429 -1.45376 0.75 
3.46198 -1.46431 0.75 
3.45956 -1.47545 0.75 
3.45703 -1.48718 0.75 
3.45437 -1.4995 0.75 
3.4516 -1.5124 0.75 
3.44941 -1.52252 0.75 
3.44715 -1.53293 0.75 
3.4448 -1.54362 0.75 
3.44237 -1.55461 0.75 
3.43981 -1.56602 0.75 
3.43716 -1.57773 0.75 
3.43441 -1.58972 0.75 
3.43156 -1.60199 0.75 
3.42857 -1.61469 0.75 
3.42554 -1.62739 0.75 
3.4225 -1.63992 0.75 
3.41949 -1.65216 0.75 
3.41653 -1.66394 0.75 
3.41361 -1.67543 0.75 
3.41068 -1.68675 0.75 
3.40769 -1.69806 0.75 
3.40477 -1.70893 0.75 
3.40188 -1.71949 0.75 
3.39902 -1.72975 0.75 
3.39619 -1.7397 0.75 
3.3925 -1.75238 0.75 
3.3889 -1.76445 0.75 
3.38539 -1.77593 0.75 
3.38185 -1.78739 0.75 
3.37813 -1.79943 0.75 
3.37423 -1.81204 0.75 
3.37118 -1.82193 0.75 
3.36804 -1.83211 0.75 
3.36481 -1.84257 0.75 
3.36149 -1.85332 0.75 
3.35803 -1.8645 0.75 
3.35449 -1.87596 0.75 
3.35086 -1.88772 0.75 
3.34714 -1.89976 0.75 
3.34343 -1.9118 0.75 
3.3398 -1.92355 0.75 
3.33625 -1.93501 0.75 
3.3328 -1.94619 0.75 
3.32948 -1.95694 0.75 
3.32616 -1.96769 0.75 
3.32289 -1.9783 0.75 
3.3197 -1.98862 0.75 
3.31664 -1.9985 0.75 
3.31359 -2.00839 0.75 
3.31059 -2.01814 0.75 
3.3068 -2.03063 0.75 
3.30327 -2.04257 0.75 
3.29999 -2.05396 0.75 
3.29694 -2.06478 0.75 
3.29411 -2.07505 0.75 
3.29147 -2.0849 0.75 
3.28884 -2.09491 0.75 
3.28613 -2.10552 0.75 
3.28333 -2.11673 0.75 
3.28045 -2.12853 0.75 
3.2775 -2.14094 0.75 
3.27449 -2.15394 0.75 
3.2722 -2.16404 0.75 
3.26986 -2.17458 0.75 
3.26749 -2.18542 0.75 
3.26515 -2.19643 0.75 
3.26284 -2.20744 0.75 
3.26068 -2.21802 0.75 
3.25855 -2.22861 0.75 
3.25647 -2.2392 0.75 
3.25453 -2.24937 0.75 
3.2521 -2.26235 0.75 
3.25023 -2.27252 0.75 
3.24829 -2.283 0.75 
3.24631 -2.29377 0.75 
3.24427 -2.30483 0.75 
3.24215 -2.31633 0.75 
3.23997 -2.32814 0.75 
3.23774 -2.34023 0.75 
3.23545 -2.35262 0.75 
3.23317 -2.36501 0.75 
3.23093 -2.37711 0.75 
3.22876 -2.38891 0.75 
3.22663 -2.40042 0.75 
3.22459 -2.41148 0.75 
3.22255 -2.42254 0.75 
3.22054 -2.43346 0.75 
3.21858 -2.44408 0.75 
3.2167 -2.45426 0.75 
3.21482 -2.46444 0.75 
3.21298 -2.47447 0.75 
3.21058 -2.48745 0.75 
3.20821 -2.50028 0.75 
3.20595 -2.51253 0.75 
3.20378 -2.52433 0.75 
3.20163 -2.53598 0.75 
3.19956 -2.54719 0.75 
3.19752 -2.55825 0.75 
3.19556 -2.56887 0.75 
3.19363 -2.57935 0.75 
3.19178 -2.58938 0.75 
3.18993 -2.59941 0.75 
3.18811 -2.60929 0.75 
3.18593 -2.62109 0.75 
3.18383 -2.63245 0.75 
3.18179 -2.64352 0.75 
3.17989 -2.65384 0.75 
3.17798 -2.66417 0.75 
3.17616 -2.67405 0.75 
3.17404 -2.68556 0.75 
3.17199 -2.69662 0.75 
3.17003 -2.70724 0.75 
3.16816 -2.71742 0.75 
3.16606 -2.72878 0.75 
3.1641 -2.7394 0.75 
3.1622 -2.74972 0.75 
3.16038 -2.7596 0.75 
3.15842 -2.77023 0.75 
3.15654 -2.7804 0.75 
3.15458 -2.79102 0.75 
3.15262 -2.80165 0.75 
3.15067 -2.81242 0.75 
3.14886 -2.82276 0.75 
3.14712 -2.83297 0.75 
3.14535 -2.84362 0.75 
